<?xml version="1.0" encoding="utf-8"?>
<!-- Generator: Adobe Illustrator 16.0.0, SVG Export Plug-In . SVG Version: 6.00 Build 0)  -->
<!DOCTYPE svg PUBLIC "-//W3C//DTD SVG 1.1//EN" "http://www.w3.org/Graphics/SVG/1.1/DTD/svg11.dtd">
<svg version="1.1" xmlns="http://www.w3.org/2000/svg" xmlns:xlink="http://www.w3.org/1999/xlink" x="0px" y="0px" width="120px"
	 height="120px" viewBox="0 0 120 120" enable-background="new 0 0 120 120" xml:space="preserve">
<g id="Layer_1">
</g>
<g id="Layer_1_copy">
</g>
<g id="Layer_1_copy_2">
</g>
<g id="Layer_1_copy_3">
</g>
<g id="Layer_1_copy_4">
</g>
<g id="Layer_1_copy_5">
</g>
<g id="Layer_1_copy_11">
</g>
<g id="Layer_1_copy_10">
</g>
<g id="Layer_1_copy_9">
</g>
<g id="Layer_1_copy_8">
</g>
<g id="Layer_1_copy_7">
</g>
<g id="Layer_1_copy_6">
</g>
<g id="Layer_1_copy_17">
</g>
<g id="Layer_1_copy_16">
</g>
<g id="Layer_1_copy_15">
</g>
<g id="Layer_1_copy_14">
</g>
<g id="Layer_1_copy_13">
</g>
<g id="Layer_1_copy_12">
</g>
<g id="Layer_1_copy_23">
</g>
<g id="Layer_1_copy_22">
</g>
<g id="Layer_1_copy_25">
</g>
<g id="Layer_1_copy_24">
	<rect x="-1" y="-1" fill="#3F3FB2" width="122" height="122"/>
	<g>
		<rect y="29.6699219" fill-rule="evenodd" clip-rule="evenodd" fill="none" width="113.2128906" height="83.3300781"/>
		<path fill="#EA246B" d="M71.6914063,73.0136719c1.8710938,0,3.2265625,0.2285156,4.0673828,0.6835938
			c0.8388672,0.4570313,1.4150391,1.1162109,1.7275391,1.9804688c0.3125,0.8632813,0.46875,1.96875,0.46875,3.3125
			s-0.1210938,2.4238281-0.359375,3.2392578c-0.2421875,0.8173828-0.5292969,1.4404297-0.8652344,1.8720703
			s-0.8398438,0.7441406-1.5117188,0.9355469c-0.7675781,0.2890625-1.9921875,0.4326172-3.671875,0.4326172H41.5957031
			c-1.1054688,0-2.1601563-0.2880859-3.1689453-0.8642578c-2.1123047-1.1992188-3.1679688-3.0957031-3.1679688-5.6875
			c0-1.2480469,0.2880859-2.2558594,0.8642578-3.0244141l22.3203125-30.8876953H41.8828125
			c-1.1523438,0-2.0039063-0.0361328-2.5556641-0.1083984c-0.5527344-0.0712891-1.2128906-0.2753906-1.9794922-0.6123047
			c-1.3935547-0.6708984-2.0888672-2.4707031-2.0888672-5.3994141c0-3.0712891,0.6484375-4.9433594,1.9443359-5.6162109
			c0.7197266-0.3828125,1.3554688-0.6113281,1.9082031-0.6835938c0.5507813-0.0722656,1.4042969-0.1083984,2.5556641-0.1083984
			h28.9443359c1.1035156,0,2.1601563,0.2880859,3.1679688,0.8642578s1.7871094,1.34375,2.3398438,2.3037109
			c0.5507813,0.9609375,0.828125,2.0888672,0.828125,3.3837891c0,1.296875-0.2880859,2.3291016-0.8642578,3.0957031
			L53.7636719,73.0136719H71.6914063z"/>
	</g>
	<g>
		<rect x="4" y="30.6699219" fill-rule="evenodd" clip-rule="evenodd" fill="none" width="113.2128906" height="87.3300781"/>
		<path fill="none" stroke="#000000" stroke-width="4" stroke-miterlimit="10" d="M75.6914063,74.0136719
			c1.8710938,0,3.2265625,0.2285156,4.0673828,0.6835938c0.8388672,0.4570313,1.4150391,1.1162109,1.7275391,1.9804688
			c0.3125,0.8632813,0.46875,1.96875,0.46875,3.3125s-0.1210938,2.4238281-0.359375,3.2392578
			c-0.2421875,0.8173828-0.5292969,1.4404297-0.8652344,1.8720703s-0.8398438,0.7441406-1.5117188,0.9355469
			c-0.7675781,0.2890625-1.9921875,0.4326172-3.671875,0.4326172H45.5957031c-1.1054688,0-2.1601563-0.2880859-3.1689453-0.8642578
			c-2.1123047-1.1992188-3.1679688-3.0957031-3.1679688-5.6875c0-1.2480469,0.2880859-2.2558594,0.8642578-3.0244141
			l22.3203125-30.8876953H45.8828125c-1.1523438,0-2.0039063-0.0361328-2.5556641-0.1083984
			c-0.5527344-0.0712891-1.2128906-0.2753906-1.9794922-0.6123047c-1.3935547-0.6708984-2.0888672-2.4707031-2.0888672-5.3994141
			c0-3.0712891,0.6484375-4.9433594,1.9443359-5.6162109c0.7197266-0.3828125,1.3554688-0.6113281,1.9082031-0.6835938
			c0.5507813-0.0722656,1.4042969-0.1083984,2.5556641-0.1083984h28.9443359c1.1035156,0,2.1601563,0.2880859,3.1679688,0.8642578
			s1.7871094,1.34375,2.3398438,2.3037109c0.5507813,0.9609375,0.828125,2.0888672,0.828125,3.3837891
			c0,1.296875-0.2880859,2.3291016-0.8642578,3.0957031L57.7636719,74.0136719H75.6914063z"/>
	</g>
</g>
<g id="Layer_1_copy_21">
</g>
<g id="Layer_1_copy_20">
</g>
<g id="Layer_1_copy_19">
</g>
<g id="Layer_1_copy_18">
</g>
</svg>
