<?xml version="1.0" encoding="utf-8"?>
<!-- Generator: Adobe Illustrator 16.0.0, SVG Export Plug-In . SVG Version: 6.00 Build 0)  -->
<!DOCTYPE svg PUBLIC "-//W3C//DTD SVG 1.1//EN" "http://www.w3.org/Graphics/SVG/1.1/DTD/svg11.dtd">
<svg version="1.1" xmlns="http://www.w3.org/2000/svg" xmlns:xlink="http://www.w3.org/1999/xlink" x="0px" y="0px" width="120px"
	 height="119.9995117px" viewBox="0 0 120 119.9995117" enable-background="new 0 0 120 119.9995117" xml:space="preserve">
<g id="Layer_1">
</g>
<g id="Layer_1_copy">
</g>
<g id="Layer_1_copy_2">
	<rect x="-1" y="-1" fill="#CBEFF7" width="122" height="121.9995117"/>
	<g>
		<rect y="29.6694336" fill-rule="evenodd" clip-rule="evenodd" fill="none" width="113.2128906" height="83.3300781"/>
		<path fill="#008CB2" d="M68.0195313,71.5014648l1.2949219-0.9355469c1.6318359-0.9609375,2.7832031-1.4414063,3.4570313-1.4414063
			c1.4863281,0,3.0957031,1.3457031,4.8242188,4.0332031c1.0546875,1.6796875,1.5839844,3.0234375,1.5839844,4.03125
			s-0.3242188,1.8486328-0.9726563,2.5195313c-0.6484375,0.6738281-1.4042969,1.2734375-2.2675781,1.8007813
			c-0.8642578,0.5292969-1.6923828,1.0332031-2.484375,1.5117188c-0.7919922,0.4804688-2.4121094,1.1054688-4.859375,1.8720703
			c-2.4492188,0.7675781-4.8134766,1.1523438-7.0927734,1.1523438c-2.2802734,0-4.5839844-0.3007813-6.9111328-0.9003906
			c-2.3300781-0.5996094-4.7285156-1.6074219-7.2011719-3.0244141c-2.4726563-1.4140625-4.6914063-3.1425781-6.6601563-5.1835938
			c-1.96875-2.0390625-3.5878906-4.6552734-4.859375-7.8476563c-1.2724609-3.1914063-1.9082031-6.6601563-1.9082031-10.4042969
			c0-3.7436523,0.6230469-7.1391602,1.8720703-10.1879883c1.2470703-3.0473633,2.8447266-5.5673828,4.7880859-7.5600586
			c1.9433594-1.9912109,4.1640625-3.659668,6.6601563-5.0039063c4.703125-2.5917969,9.4316406-3.8876953,14.1835938-3.8876953
			c2.2558594,0,4.546875,0.3486328,6.8769531,1.0439453c2.3271484,0.6962891,4.0908203,1.4038086,5.2910156,2.1240234
			l1.7285156,1.0078125c0.8632813,0.5288086,1.5351563,0.9609375,2.015625,1.2958984
			c1.2480469,1.0083008,1.8720703,2.1489258,1.8720703,3.4199219c0,1.2724609-0.5039063,2.6044922-1.5117188,3.9960938
			c-1.8720703,2.5922852-3.5527344,3.8881836-5.0400391,3.8881836c-0.8642578,0-2.0878906-0.527832-3.671875-1.5839844
			c-2.015625-1.6313477-4.7050781-2.4482422-8.0644531-2.4482422c-3.1210938,0-6.1914063,1.0800781-9.2158203,3.2402344
			c-1.4404297,1.0561523-2.6396484,2.5444336-3.6005859,4.4638672c-0.9599609,1.9204102-1.4394531,4.0927734-1.4394531,6.5161133
			c0,2.4238281,0.4794922,4.5966797,1.4394531,6.515625c0.9609375,1.9208984,2.1835938,3.4326172,3.671875,4.5361328
			c2.9277344,2.1123047,5.9765625,3.1679688,9.1445313,3.1679688c1.4873047,0,2.8916016-0.1904297,4.2128906-0.5751953
			C66.4941406,72.269043,67.4433594,71.8862305,68.0195313,71.5014648z"/>
	</g>
	<g>
		<rect x="4" y="30.6694336" fill-rule="evenodd" clip-rule="evenodd" fill="none" width="113.2128906" height="87.3300781"/>
		<path fill="none" stroke="#000000" stroke-width="4" stroke-miterlimit="10" d="M72.0195313,72.5014648l1.2949219-0.9355469
			c1.6318359-0.9609375,2.7832031-1.4414063,3.4570313-1.4414063c1.4863281,0,3.0957031,1.3457031,4.8242188,4.0332031
			c1.0546875,1.6796875,1.5839844,3.0234375,1.5839844,4.03125s-0.3242188,1.8486328-0.9726563,2.5195313
			c-0.6484375,0.6738281-1.4042969,1.2734375-2.2675781,1.8007813c-0.8642578,0.5292969-1.6923828,1.0332031-2.484375,1.5117188
			c-0.7919922,0.4804688-2.4121094,1.1054688-4.859375,1.8720703c-2.4492188,0.7675781-4.8134766,1.1523438-7.0927734,1.1523438
			c-2.2802734,0-4.5839844-0.3007813-6.9111328-0.9003906c-2.3300781-0.5996094-4.7285156-1.6074219-7.2011719-3.0244141
			c-2.4726563-1.4140625-4.6914063-3.1425781-6.6601563-5.1835938c-1.96875-2.0390625-3.5878906-4.6552734-4.859375-7.8476563
			c-1.2724609-3.1914063-1.9082031-6.6601563-1.9082031-10.4042969c0-3.7436523,0.6230469-7.1391602,1.8720703-10.1879883
			c1.2470703-3.0473633,2.8447266-5.5673828,4.7880859-7.5600586c1.9433594-1.9912109,4.1640625-3.659668,6.6601563-5.0039063
			c4.703125-2.5917969,9.4316406-3.8876953,14.1835938-3.8876953c2.2558594,0,4.546875,0.3486328,6.8769531,1.0439453
			c2.3271484,0.6962891,4.0908203,1.4038086,5.2910156,2.1240234l1.7285156,1.0078125
			c0.8632813,0.5288086,1.5351563,0.9609375,2.015625,1.2958984c1.2480469,1.0083008,1.8720703,2.1489258,1.8720703,3.4199219
			c0,1.2724609-0.5039063,2.6044922-1.5117188,3.9960938c-1.8720703,2.5922852-3.5527344,3.8881836-5.0400391,3.8881836
			c-0.8642578,0-2.0878906-0.527832-3.671875-1.5839844c-2.015625-1.6313477-4.7050781-2.4482422-8.0644531-2.4482422
			c-3.1210938,0-6.1914063,1.0800781-9.2158203,3.2402344c-1.4404297,1.0561523-2.6396484,2.5444336-3.6005859,4.4638672
			c-0.9599609,1.9204102-1.4394531,4.0927734-1.4394531,6.5161133c0,2.4238281,0.4794922,4.5966797,1.4394531,6.515625
			c0.9609375,1.9208984,2.1835938,3.4326172,3.671875,4.5361328c2.9277344,2.1123047,5.9765625,3.1679688,9.1445313,3.1679688
			c1.4873047,0,2.8916016-0.1904297,4.2128906-0.5751953C70.4941406,73.269043,71.4433594,72.8862305,72.0195313,72.5014648z"/>
	</g>
</g>
<g id="Layer_1_copy_3">
</g>
<g id="Layer_1_copy_4">
</g>
<g id="Layer_1_copy_5">
</g>
<g id="Layer_1_copy_11">
</g>
<g id="Layer_1_copy_10">
</g>
<g id="Layer_1_copy_9">
</g>
<g id="Layer_1_copy_8">
</g>
<g id="Layer_1_copy_7">
</g>
<g id="Layer_1_copy_6">
</g>
<g id="Layer_1_copy_17">
</g>
<g id="Layer_1_copy_16">
</g>
<g id="Layer_1_copy_15">
</g>
<g id="Layer_1_copy_14">
</g>
<g id="Layer_1_copy_13">
</g>
<g id="Layer_1_copy_12">
</g>
<g id="Layer_1_copy_23">
</g>
<g id="Layer_1_copy_22">
</g>
<g id="Layer_1_copy_25">
</g>
<g id="Layer_1_copy_24">
</g>
<g id="Layer_1_copy_21">
</g>
<g id="Layer_1_copy_20">
</g>
<g id="Layer_1_copy_19">
</g>
<g id="Layer_1_copy_18">
</g>
</svg>
