<?xml version="1.0" encoding="utf-8"?>
<!-- Generator: Adobe Illustrator 16.0.0, SVG Export Plug-In . SVG Version: 6.00 Build 0)  -->
<!DOCTYPE svg PUBLIC "-//W3C//DTD SVG 1.1//EN" "http://www.w3.org/Graphics/SVG/1.1/DTD/svg11.dtd">
<svg version="1.1" xmlns="http://www.w3.org/2000/svg" xmlns:xlink="http://www.w3.org/1999/xlink" x="0px" y="0px" width="120px"
	 height="120px" viewBox="0 0 120 120" enable-background="new 0 0 120 120" xml:space="preserve">
<g id="Layer_1">
</g>
<g id="Layer_1_copy">
</g>
<g id="Layer_1_copy_2">
</g>
<g id="Layer_1_copy_3">
</g>
<g id="Layer_1_copy_4">
</g>
<g id="Layer_1_copy_5">
</g>
<g id="Layer_1_copy_11">
	<rect x="-0.9995117" y="-1" fill="#F98C6E" width="121.9995117" height="122"/>
	<g>
		<rect y="29.6699219" fill-rule="evenodd" clip-rule="evenodd" fill="none" width="113.2128906" height="83.3300781"/>
		<path fill="#00B7FF" d="M61.2871094,53.5019531h12.671875c2.5917969,0.0966797,4.1757813,0.7675781,4.7519531,2.015625
			c0.4785156,0.9121094,0.7197266,2.2568359,0.7197266,4.0322266v15.8398438c0,1.5361328-0.6728516,3.0009766-2.015625,4.3916016
			c-4.0322266,4.1757813-10.0800781,6.2646484-18.144043,6.2646484c-7.152832,0-13.3686523-2.7001953-18.6479492-8.1005859
			c-5.2807617-5.3994141-7.9204102-11.9160156-7.9204102-19.5478516S35.390625,44.3935547,40.7666016,39.28125
			c5.3754883-5.1113281,11.7114258-7.6679688,19.0083008-7.6679688c5.6625977,0,11.0161133,1.8730469,16.0561523,5.6162109
			c1.2958984,0.9609375,1.9443359,2.0283203,1.9443359,3.2041016c0,1.1767578-0.5527344,2.5322266-1.65625,4.0683594
			c-1.8720703,2.5449219-3.5761719,3.8164063-5.1123047,3.8164063c-0.9130859,0-2.3759766-0.6601563-4.3916016-1.9804688
			c-2.0166016-1.3203125-4.4169922-1.9804688-7.2001953-1.9804688c-3.6484375,0-6.8886719,1.2851563-9.7202148,3.8515625
			c-2.8325195,2.5683594-4.2480469,5.9296875-4.2480469,10.0800781c0,4.1523438,1.4399414,7.6816406,4.3198242,10.5839844
			c2.8803711,2.9052734,6.144043,4.3564453,9.7919922,4.3564453c2.6396484,0,5.015625-0.4316406,7.1289063-1.2958984v-7.8476563
			h-5.6884766c-1.4887695,0-2.5449219-0.1914063-3.1679688-0.5761719c-0.6245117-0.3837891-1.0332031-0.9472656-1.2241211-1.6914063
			c-0.1923828-0.7441406-0.2880859-1.7519531-0.2880859-3.0253906c0-1.2705078,0.1079102-2.2910156,0.3242188-3.0585938
			c0.2158203-0.7675781,0.6118164-1.296875,1.1879883-1.5839844C58.6948242,53.7177734,59.8466797,53.5019531,61.2871094,53.5019531
			z"/>
	</g>
	<g>
		<rect x="4" y="30.6699219" fill-rule="evenodd" clip-rule="evenodd" fill="none" width="113.2128906" height="87.3300781"/>
		<path fill="none" stroke="#000000" stroke-width="4" stroke-miterlimit="10" d="M65.2871094,54.5019531h12.671875
			c2.5917969,0.0966797,4.1757813,0.7675781,4.7519531,2.015625c0.4785156,0.9121094,0.7197266,2.2568359,0.7197266,4.0322266
			v15.8398438c0,1.5361328-0.6728516,3.0009766-2.015625,4.3916016c-4.0322266,4.1757813-10.0800781,6.2646484-18.1435547,6.2646484
			c-7.1533203,0-13.3691406-2.7001953-18.6484375-8.1005859c-5.2807617-5.3994141-7.9204102-11.9160156-7.9204102-19.5478516
			S39.390625,45.3935547,44.7666016,40.28125c5.3754883-5.1113281,11.7114258-7.6679688,19.0087891-7.6679688
			c5.6621094,0,11.015625,1.8730469,16.0556641,5.6162109c1.2958984,0.9609375,1.9443359,2.0283203,1.9443359,3.2041016
			c0,1.1767578-0.5527344,2.5322266-1.65625,4.0683594c-1.8720703,2.5449219-3.5761719,3.8164063-5.1123047,3.8164063
			c-0.9130859,0-2.3759766-0.6601563-4.3916016-1.9804688c-2.0166016-1.3203125-4.4169922-1.9804688-7.2001953-1.9804688
			c-3.6484375,0-6.8886719,1.2851563-9.7202148,3.8515625c-2.8325195,2.5683594-4.2480469,5.9296875-4.2480469,10.0800781
			c0,4.1523438,1.4399414,7.6816406,4.3198242,10.5839844c2.8803711,2.9052734,6.144043,4.3564453,9.7919922,4.3564453
			c2.6396484,0,5.015625-0.4316406,7.1289063-1.2958984v-7.8476563h-5.6884766
			c-1.4892578,0-2.5449219-0.1914063-3.1679688-0.5761719c-0.6240234-0.3837891-1.0332031-0.9472656-1.2241211-1.6914063
			c-0.1923828-0.7441406-0.2880859-1.7519531-0.2880859-3.0253906c0-1.2705078,0.1079102-2.2910156,0.3242188-3.0585938
			c0.2158203-0.7675781,0.6118164-1.296875,1.1879883-1.5839844C62.6953125,54.7177734,63.8466797,54.5019531,65.2871094,54.5019531
			z"/>
	</g>
</g>
<g id="Layer_1_copy_10">
</g>
<g id="Layer_1_copy_9">
</g>
<g id="Layer_1_copy_8">
</g>
<g id="Layer_1_copy_7">
</g>
<g id="Layer_1_copy_6">
</g>
<g id="Layer_1_copy_17">
</g>
<g id="Layer_1_copy_16">
</g>
<g id="Layer_1_copy_15">
</g>
<g id="Layer_1_copy_14">
</g>
<g id="Layer_1_copy_13">
</g>
<g id="Layer_1_copy_12">
</g>
<g id="Layer_1_copy_23">
</g>
<g id="Layer_1_copy_22">
</g>
<g id="Layer_1_copy_25">
</g>
<g id="Layer_1_copy_24">
</g>
<g id="Layer_1_copy_21">
</g>
<g id="Layer_1_copy_20">
</g>
<g id="Layer_1_copy_19">
</g>
<g id="Layer_1_copy_18">
</g>
</svg>
