<?xml version="1.0" encoding="utf-8"?>
<!-- Generator: Adobe Illustrator 16.0.0, SVG Export Plug-In . SVG Version: 6.00 Build 0)  -->
<!DOCTYPE svg PUBLIC "-//W3C//DTD SVG 1.1//EN" "http://www.w3.org/Graphics/SVG/1.1/DTD/svg11.dtd">
<svg version="1.1" xmlns="http://www.w3.org/2000/svg" xmlns:xlink="http://www.w3.org/1999/xlink" x="0px" y="0px" width="120px"
	 height="119.9995117px" viewBox="0 0 120 119.9995117" enable-background="new 0 0 120 119.9995117" xml:space="preserve">
<g id="Layer_1">
</g>
<g id="Layer_1_copy">
</g>
<g id="Layer_1_copy_2">
</g>
<g id="Layer_1_copy_3">
</g>
<g id="Layer_1_copy_4">
</g>
<g id="Layer_1_copy_5">
	<rect x="-1" y="-1" fill="#6F88FF" width="122" height="121.9995117"/>
	<g>
		<rect y="29.6694336" fill-rule="evenodd" clip-rule="evenodd" fill="none" width="113.2128906" height="83.3300781"/>
		<path fill="#B3E036" d="M71.4746094,32.5493164c1.1035156,0,1.9316406,0.0356445,2.484375,0.1079102
			c0.5507813,0.0717773,1.1757813,0.300293,1.8710938,0.684082c0.6953125,0.3847656,1.1894531,1.0327148,1.4765625,1.9438477
			c0.2880859,0.9125977,0.4316406,2.1362305,0.4316406,3.671875c0,1.5371094-0.1435547,2.7607422-0.4316406,3.6723633
			c-0.2871094,0.9121094-0.7919922,1.5478516-1.5117188,1.9077148c-0.7207031,0.3598633-1.3574219,0.5761719-1.9082031,0.6479492
			c-0.5527344,0.0722656-1.4042969,0.1079102-2.5566406,0.1079102h-22.03125v7.2724609h14.1835938
			c1.1523438,0,2.0039063,0.0356445,2.5566406,0.1079102c0.5507813,0.0717773,1.1875,0.300293,1.9082031,0.684082
			c1.2470703,0.7197266,1.8710938,2.6166992,1.8710938,5.6879883c0,3.3603516-0.9121094,5.3525391-2.7353516,5.9755859
			c-0.7685547,0.2402344-1.9931641,0.3603516-3.6728516,0.3603516H49.2988281v13.6083984
			c0,1.1513672-0.0361328,1.9921875-0.1074219,2.5195313c-0.0722656,0.5292969-0.3007813,1.1523438-0.6845703,1.8720703
			c-0.6728516,1.2958984-2.5449219,1.9443359-5.6162109,1.9443359c-3.3603516,0-5.328125-0.9121094-5.9042969-2.7363281
			c-0.2871094-0.7675781-0.4316406-1.9912109-0.4316406-3.671875V38.8852539c0-2.4482422,0.4550781-4.1152344,1.3681641-5.0039063
			c0.9111328-0.8876953,2.6396484-1.3320313,5.1845703-1.3320313H71.4746094z"/>
	</g>
	<g>
		<rect x="4" y="30.6694336" fill-rule="evenodd" clip-rule="evenodd" fill="none" width="113.2128906" height="87.3300781"/>
		<path fill="none" stroke="#000000" stroke-width="4" stroke-miterlimit="10" d="M75.4746094,33.5493164
			c1.1035156,0,1.9316406,0.0356445,2.484375,0.1079102c0.5507813,0.0717773,1.1757813,0.300293,1.8710938,0.684082
			c0.6953125,0.3847656,1.1894531,1.0327148,1.4765625,1.9438477c0.2880859,0.9125977,0.4316406,2.1362305,0.4316406,3.671875
			c0,1.5371094-0.1435547,2.7607422-0.4316406,3.6723633c-0.2871094,0.9121094-0.7919922,1.5478516-1.5117188,1.9077148
			c-0.7207031,0.3598633-1.3574219,0.5761719-1.9082031,0.6479492c-0.5527344,0.0722656-1.4042969,0.1079102-2.5566406,0.1079102
			h-22.03125v7.2724609h14.1835938c1.1523438,0,2.0039063,0.0356445,2.5566406,0.1079102
			c0.5507813,0.0717773,1.1875,0.300293,1.9082031,0.684082c1.2470703,0.7197266,1.8710938,2.6166992,1.8710938,5.6879883
			c0,3.3603516-0.9121094,5.3525391-2.7353516,5.9755859c-0.7685547,0.2402344-1.9931641,0.3603516-3.6728516,0.3603516H53.2988281
			v13.6083984c0,1.1513672-0.0361328,1.9921875-0.1074219,2.5195313c-0.0722656,0.5292969-0.3007813,1.1523438-0.6845703,1.8720703
			c-0.6728516,1.2958984-2.5449219,1.9443359-5.6162109,1.9443359c-3.3603516,0-5.328125-0.9121094-5.9042969-2.7363281
			c-0.2871094-0.7675781-0.4316406-1.9912109-0.4316406-3.671875V39.8852539c0-2.4482422,0.4550781-4.1152344,1.3681641-5.0039063
			c0.9111328-0.8876953,2.6396484-1.3320313,5.1845703-1.3320313H75.4746094z"/>
	</g>
</g>
<g id="Layer_1_copy_11">
</g>
<g id="Layer_1_copy_10">
</g>
<g id="Layer_1_copy_9">
</g>
<g id="Layer_1_copy_8">
</g>
<g id="Layer_1_copy_7">
</g>
<g id="Layer_1_copy_6">
</g>
<g id="Layer_1_copy_17">
</g>
<g id="Layer_1_copy_16">
</g>
<g id="Layer_1_copy_15">
</g>
<g id="Layer_1_copy_14">
</g>
<g id="Layer_1_copy_13">
</g>
<g id="Layer_1_copy_12">
</g>
<g id="Layer_1_copy_23">
</g>
<g id="Layer_1_copy_22">
</g>
<g id="Layer_1_copy_25">
</g>
<g id="Layer_1_copy_24">
</g>
<g id="Layer_1_copy_21">
</g>
<g id="Layer_1_copy_20">
</g>
<g id="Layer_1_copy_19">
</g>
<g id="Layer_1_copy_18">
</g>
</svg>
