<?xml version="1.0" encoding="utf-8"?>
<!-- Generator: Adobe Illustrator 16.0.0, SVG Export Plug-In . SVG Version: 6.00 Build 0)  -->
<!DOCTYPE svg PUBLIC "-//W3C//DTD SVG 1.1//EN" "http://www.w3.org/Graphics/SVG/1.1/DTD/svg11.dtd">
<svg version="1.1" xmlns="http://www.w3.org/2000/svg" xmlns:xlink="http://www.w3.org/1999/xlink" x="0px" y="0px" width="120px"
	 height="119.9995117px" viewBox="0 0 120 119.9995117" enable-background="new 0 0 120 119.9995117" xml:space="preserve">
<g id="Layer_1">
</g>
<g id="Layer_1_copy">
	<rect x="-1" y="-1" fill="#56E2FF" width="122" height="121.9995117"/>
	<g>
		<rect y="29.6694336" fill-rule="evenodd" clip-rule="evenodd" fill="none" width="113.2128906" height="83.3300781"/>
		<path fill="#FF56E6" d="M73.8144531,57.0292969c2.8320313,3.3603516,4.2480469,7.128418,4.2480469,11.3041992
			c-0.0966797,4.8007813-1.7402344,8.8203125-4.9316406,12.0595703C69.9375,83.6333008,66.0625,85.253418,61.5019531,85.253418
			H42.5664063c-3.3603516,0-5.328125-0.9121094-5.9042969-2.7363281c-0.2871094-0.8154297-0.4316406-2.0625-0.4316406-3.7441406
			V38.8129883c0-1.1518555,0.0361328-1.9912109,0.1074219-2.5200195c0.0722656-0.5273438,0.2998047-1.1518555,0.6845703-1.871582
			c0.671875-1.2963867,2.5439453-1.9443359,5.6162109-1.9443359h18.1445313c4.4150391,0,8.1113281,1.5371094,11.0878906,4.6079102
			c3.1191406,3.1210938,4.6796875,6.8647461,4.6796875,11.2324219
			C76.5507813,51.4853516,75.6386719,54.3901367,73.8144531,57.0292969z M65.3183594,67.612793
			c0-1.1513672-0.1328125-2.0625-0.3964844-2.7363281c-0.2636719-0.6708984-0.7080078-1.1513672-1.3310547-1.4394531
			c-0.9609375-0.3828125-2.3037109-0.5761719-4.0322266-0.5761719s-3.0234375-0.3349609-3.8886719-1.0078125
			C54.8066406,61.1811523,54.375,59.8012695,54.375,57.7133789c0-2.0883789,0.4433594-3.4672852,1.3320313-4.1401367
			c0.8867188-0.671875,2.3632813-1.0078125,4.4277344-1.0078125c1.9189453,0,3.0712891-0.5043945,3.4560547-1.512207
			c0.1435547-0.527832,0.2158203-1.3916016,0.2158203-2.5917969c0-1.199707-0.3964844-2.0400391-1.1875-2.5200195
			c-0.7929688-0.4794922-1.9804688-0.7202148-3.5644531-0.7202148H48.9746094v27.2880859h11.8085938
			C63.8066406,72.5092773,65.3183594,70.878418,65.3183594,67.612793z"/>
	</g>
	<g>
		<rect x="4" y="30.6694336" fill-rule="evenodd" clip-rule="evenodd" fill="none" width="113.2128906" height="87.3300781"/>
		<path fill="none" stroke="#000000" stroke-width="4" stroke-miterlimit="10" d="M77.8144531,58.0292969
			c2.8320313,3.3608398,4.2480469,7.128418,4.2480469,11.3041992c-0.0966797,4.8007813-1.7402344,8.8203125-4.9316406,12.0595703
			C73.9375,84.6333008,70.0625,86.253418,65.5019531,86.253418H46.5664063c-3.3603516,0-5.328125-0.9121094-5.9042969-2.7363281
			c-0.2871094-0.8154297-0.4316406-2.0625-0.4316406-3.7441406V39.8129883c0-1.1518555,0.0361328-1.9912109,0.1074219-2.5200195
			c0.0722656-0.5273438,0.2998047-1.1518555,0.6845703-1.871582c0.671875-1.2963867,2.5439453-1.9443359,5.6162109-1.9443359
			h18.1445313c4.4150391,0,8.1113281,1.5371094,11.0878906,4.6079102c3.1191406,3.1210938,4.6796875,6.8647461,4.6796875,11.2324219
			C80.5507813,52.4853516,79.6386719,55.3901367,77.8144531,58.0292969z M69.3183594,68.612793
			c0-1.1513672-0.1328125-2.0625-0.3964844-2.7363281c-0.2636719-0.6708984-0.7080078-1.1513672-1.3310547-1.4394531
			c-0.9609375-0.3828125-2.3037109-0.5761719-4.0322266-0.5761719s-3.0234375-0.3349609-3.8886719-1.0078125
			C58.8066406,62.1811523,58.375,60.8012695,58.375,58.7133789c0-2.0883789,0.4433594-3.4672852,1.3320313-4.1401367
			c0.8867188-0.671875,2.3632813-1.0078125,4.4277344-1.0078125c1.9189453,0,3.0712891-0.5043945,3.4560547-1.512207
			c0.1435547-0.527832,0.2158203-1.3916016,0.2158203-2.5917969c0-1.199707-0.3964844-2.0400391-1.1875-2.5200195
			c-0.7929688-0.4794922-1.9804688-0.7202148-3.5644531-0.7202148H52.9746094v27.2880859h11.8085938
			C67.8066406,73.5092773,69.3183594,71.878418,69.3183594,68.612793z"/>
	</g>
</g>
<g id="Layer_1_copy_2">
</g>
<g id="Layer_1_copy_3">
</g>
<g id="Layer_1_copy_4">
</g>
<g id="Layer_1_copy_5">
</g>
<g id="Layer_1_copy_11">
</g>
<g id="Layer_1_copy_10">
</g>
<g id="Layer_1_copy_9">
</g>
<g id="Layer_1_copy_8">
</g>
<g id="Layer_1_copy_7">
</g>
<g id="Layer_1_copy_6">
</g>
<g id="Layer_1_copy_17">
</g>
<g id="Layer_1_copy_16">
</g>
<g id="Layer_1_copy_15">
</g>
<g id="Layer_1_copy_14">
</g>
<g id="Layer_1_copy_13">
</g>
<g id="Layer_1_copy_12">
</g>
<g id="Layer_1_copy_23">
</g>
<g id="Layer_1_copy_22">
</g>
<g id="Layer_1_copy_25">
</g>
<g id="Layer_1_copy_24">
</g>
<g id="Layer_1_copy_21">
</g>
<g id="Layer_1_copy_20">
</g>
<g id="Layer_1_copy_19">
</g>
<g id="Layer_1_copy_18">
</g>
</svg>
