<?xml version="1.0" encoding="utf-8"?>
<!-- Generator: Adobe Illustrator 16.0.0, SVG Export Plug-In . SVG Version: 6.00 Build 0)  -->
<!DOCTYPE svg PUBLIC "-//W3C//DTD SVG 1.1//EN" "http://www.w3.org/Graphics/SVG/1.1/DTD/svg11.dtd">
<svg version="1.1" xmlns="http://www.w3.org/2000/svg" xmlns:xlink="http://www.w3.org/1999/xlink" x="0px" y="0px" width="120px"
	 height="120px" viewBox="0 0 120 120" enable-background="new 0 0 120 120" xml:space="preserve">
<g id="Layer_1">
</g>
<g id="Layer_1_copy">
</g>
<g id="Layer_1_copy_2">
</g>
<g id="Layer_1_copy_3">
</g>
<g id="Layer_1_copy_4">
</g>
<g id="Layer_1_copy_5">
</g>
<g id="Layer_1_copy_11">
</g>
<g id="Layer_1_copy_10">
</g>
<g id="Layer_1_copy_9">
</g>
<g id="Layer_1_copy_8">
	<rect x="-1" y="-1" fill="#E5E500" width="122" height="122"/>
	<g>
		<rect y="29.6699219" fill-rule="evenodd" clip-rule="evenodd" fill="none" width="113.2128906" height="83.3300781"/>
		<path fill="#6B7E99" d="M66.6503906,32.5498047c1.8730469,0,3.2519531,0.15625,4.140625,0.4677734
			c0.8867188,0.3125,1.5234375,0.828125,1.9082031,1.5488281c0.5273438,1.1035156,0.7910156,2.5917969,0.7910156,4.4628906
			v27.8642578c0,5.0400391-1.8242188,9.4931641-5.4716797,13.3564453
			c-3.6474609,3.8642578-8.3046875,5.7958984-13.9677734,5.7958984c-3.1679688,0-5.9765625-0.6962891-8.4238281-2.0888672
			c-2.2089844-1.1992188-3.7441406-2.2792969-4.6083984-3.2392578l-0.5751953-0.5761719
			c-1.6816406-1.7753906-2.5205078-3.2998047-2.5205078-4.5712891s0.8388672-2.7724609,2.5205078-4.5
			c1.6796875-1.7285156,3.1679688-2.5927734,4.4628906-2.5927734c1.296875,0,2.7363281,0.7919922,4.3203125,2.3759766
			s3.2998047,2.3759766,5.1484375,2.3759766c1.8476563,0,3.3710938-0.6230469,4.5722656-1.8720703
			c1.1992188-1.2480469,1.7988281-2.9033203,1.7988281-4.9677734V39.4619141c0-2.8798828,0.4804688-4.7275391,1.4414063-5.5439453
			C63.2910156,33.0058594,64.7792969,32.5498047,66.6503906,32.5498047z"/>
	</g>
	<g>
		<rect x="4" y="30.6699219" fill-rule="evenodd" clip-rule="evenodd" fill="none" width="113.2128906" height="87.3300781"/>
		<path fill="none" stroke="#000000" stroke-width="4" stroke-miterlimit="10" d="M70.6503906,33.5498047
			c1.8730469,0,3.2519531,0.15625,4.140625,0.4677734c0.8867188,0.3125,1.5234375,0.828125,1.9082031,1.5488281
			c0.5273438,1.1035156,0.7910156,2.5917969,0.7910156,4.4628906v27.8642578c0,5.0400391-1.8242188,9.4931641-5.4716797,13.3564453
			c-3.6474609,3.8642578-8.3046875,5.7958984-13.9677734,5.7958984c-3.1679688,0-5.9765625-0.6962891-8.4238281-2.0888672
			c-2.2089844-1.1992188-3.7441406-2.2792969-4.6083984-3.2392578l-0.5751953-0.5761719
			c-1.6816406-1.7753906-2.5205078-3.2998047-2.5205078-4.5712891s0.8388672-2.7724609,2.5205078-4.5
			c1.6796875-1.7285156,3.1679688-2.5927734,4.4628906-2.5927734c1.296875,0,2.7363281,0.7919922,4.3203125,2.3759766
			s3.2998047,2.3759766,5.1484375,2.3759766c1.8476563,0,3.3710938-0.6230469,4.5722656-1.8720703
			c1.1992188-1.2480469,1.7988281-2.9033203,1.7988281-4.9677734V40.4619141c0-2.8798828,0.4804688-4.7275391,1.4414063-5.5439453
			C67.2910156,34.0058594,68.7792969,33.5498047,70.6503906,33.5498047z"/>
	</g>
</g>
<g id="Layer_1_copy_7">
</g>
<g id="Layer_1_copy_6">
</g>
<g id="Layer_1_copy_17">
</g>
<g id="Layer_1_copy_16">
</g>
<g id="Layer_1_copy_15">
</g>
<g id="Layer_1_copy_14">
</g>
<g id="Layer_1_copy_13">
</g>
<g id="Layer_1_copy_12">
</g>
<g id="Layer_1_copy_23">
</g>
<g id="Layer_1_copy_22">
</g>
<g id="Layer_1_copy_25">
</g>
<g id="Layer_1_copy_24">
</g>
<g id="Layer_1_copy_21">
</g>
<g id="Layer_1_copy_20">
</g>
<g id="Layer_1_copy_19">
</g>
<g id="Layer_1_copy_18">
</g>
</svg>
