<?xml version="1.0" encoding="utf-8"?>
<!-- Generator: Adobe Illustrator 16.0.0, SVG Export Plug-In . SVG Version: 6.00 Build 0)  -->
<!DOCTYPE svg PUBLIC "-//W3C//DTD SVG 1.1//EN" "http://www.w3.org/Graphics/SVG/1.1/DTD/svg11.dtd">
<svg version="1.1" xmlns="http://www.w3.org/2000/svg" xmlns:xlink="http://www.w3.org/1999/xlink" x="0px" y="0px" width="120px"
	 height="120px" viewBox="0 0 120 120" enable-background="new 0 0 120 120" xml:space="preserve">
<g id="Layer_1">
</g>
<g id="Layer_1_copy">
</g>
<g id="Layer_1_copy_2">
</g>
<g id="Layer_1_copy_3">
</g>
<g id="Layer_1_copy_4">
</g>
<g id="Layer_1_copy_5">
</g>
<g id="Layer_1_copy_11">
</g>
<g id="Layer_1_copy_10">
</g>
<g id="Layer_1_copy_9">
</g>
<g id="Layer_1_copy_8">
</g>
<g id="Layer_1_copy_7">
</g>
<g id="Layer_1_copy_6">
</g>
<g id="Layer_1_copy_17">
</g>
<g id="Layer_1_copy_16">
</g>
<g id="Layer_1_copy_15">
</g>
<g id="Layer_1_copy_14">
</g>
<g id="Layer_1_copy_13">
</g>
<g id="Layer_1_copy_12">
</g>
<g id="Layer_1_copy_23">
</g>
<g id="Layer_1_copy_22">
</g>
<g id="Layer_1_copy_25">
</g>
<g id="Layer_1_copy_24">
</g>
<g id="Layer_1_copy_21">
</g>
<g id="Layer_1_copy_20">
	<rect x="-1" y="-1" fill="#22EFD6" width="122" height="122"/>
	<g>
		<rect y="29.6699219" fill-rule="evenodd" clip-rule="evenodd" fill="none" width="113.2128906" height="83.3300781"/>
		<path fill="#5097FF" d="M79.4667969,33.3417969c2.8320313,1.3925781,4.2480469,2.9277344,4.2480469,4.6074219
			c0,0.7695313-0.359375,1.9208984-1.0800781,3.4570313L62.7636719,81.7255859
			c-0.5292969,1.0566406-1.3320313,1.9082031-2.4121094,2.5556641c-1.0800781,0.6484375-2.1972656,0.9726563-3.3486328,0.9726563
			h-0.7197266c-1.2011719,0-2.3398438-0.3242188-3.4199219-0.9726563c-1.0800781-0.6474609-1.8847656-1.4990234-2.4121094-2.5556641
			L30.5791016,41.40625c-0.7197266-1.5361328-1.0800781-2.6875-1.0800781-3.4570313
			c0-1.6796875,1.4150391-3.2148438,4.2480469-4.6074219c1.5839844-0.8164063,2.7958984-1.2246094,3.6357422-1.2246094
			s1.4765625,0.0976563,1.9082031,0.2890625s0.8398438,0.5283203,1.2246094,1.0078125
			c0.4316406,0.5761719,0.8271484,1.2128906,1.1875,1.9082031c0.359375,0.6953125,1.2832031,2.6875,2.7714844,5.9755859
			s3.0839844,6.7802734,4.7890625,10.4755859c1.703125,3.6972656,3.3105469,7.1894531,4.8232422,10.4765625
			c1.5126953,3.2880859,2.3642578,5.1240234,2.5556641,5.5078125l14.4003906-31.5361328
			c0.3837891-0.9111328,0.7207031-1.6318359,1.0078125-2.1601563c0.8642578-1.2958984,1.9199219-1.9443359,3.1679688-1.9443359
			S77.8828125,32.5253906,79.4667969,33.3417969z"/>
	</g>
	<g>
		<rect x="4" y="30.6699219" fill-rule="evenodd" clip-rule="evenodd" fill="none" width="113.2128906" height="87.3300781"/>
		<path fill="none" stroke="#000000" stroke-width="4" stroke-miterlimit="10" d="M83.4667969,34.3417969
			c2.8320313,1.3925781,4.2480469,2.9277344,4.2480469,4.6074219c0,0.7695313-0.359375,1.9208984-1.0800781,3.4570313
			L66.7636719,82.7255859c-0.5292969,1.0566406-1.3320313,1.9082031-2.4121094,2.5556641
			c-1.0800781,0.6484375-2.1972656,0.9726563-3.3486328,0.9726563h-0.7197266c-1.2011719,0-2.3398438-0.3242188-3.4199219-0.9726563
			c-1.0800781-0.6474609-1.8847656-1.4990234-2.4121094-2.5556641L34.5791016,42.40625
			c-0.7197266-1.5361328-1.0800781-2.6875-1.0800781-3.4570313c0-1.6796875,1.4150391-3.2148438,4.2480469-4.6074219
			c1.5839844-0.8164063,2.7958984-1.2246094,3.6357422-1.2246094s1.4765625,0.0976563,1.9082031,0.2890625
			s0.8398438,0.5283203,1.2246094,1.0078125c0.4316406,0.5761719,0.8271484,1.2128906,1.1875,1.9082031
			c0.359375,0.6953125,1.2832031,2.6875,2.7714844,5.9755859s3.0839844,6.7802734,4.7890625,10.4755859
			c1.703125,3.6972656,3.3105469,7.1894531,4.8232422,10.4765625c1.5126953,3.2880859,2.3642578,5.1240234,2.5556641,5.5078125
			l14.4003906-31.5361328c0.3837891-0.9111328,0.7207031-1.6318359,1.0078125-2.1601563
			c0.8642578-1.2958984,1.9199219-1.9443359,3.1679688-1.9443359S81.8828125,33.5253906,83.4667969,34.3417969z"/>
	</g>
</g>
<g id="Layer_1_copy_19">
</g>
<g id="Layer_1_copy_18">
</g>
</svg>
