<?xml version="1.0" encoding="utf-8"?>
<!-- Generator: Adobe Illustrator 16.0.0, SVG Export Plug-In . SVG Version: 6.00 Build 0)  -->
<!DOCTYPE svg PUBLIC "-//W3C//DTD SVG 1.1//EN" "http://www.w3.org/Graphics/SVG/1.1/DTD/svg11.dtd">
<svg version="1.1" xmlns="http://www.w3.org/2000/svg" xmlns:xlink="http://www.w3.org/1999/xlink" x="0px" y="0px" width="120px"
	 height="119.9995117px" viewBox="0 0 120 119.9995117" enable-background="new 0 0 120 119.9995117" xml:space="preserve">
<g id="Layer_1">
</g>
<g id="Layer_1_copy">
</g>
<g id="Layer_1_copy_2">
</g>
<g id="Layer_1_copy_3">
</g>
<g id="Layer_1_copy_4">
	<rect x="-1" y="-1" fill="#D4AAFF" width="122" height="121.9995117"/>
	<g>
		<rect y="29.6694336" fill-rule="evenodd" clip-rule="evenodd" fill="none" width="113.2128906" height="83.3300781"/>
		<path fill="#3D597C" d="M49.2636719,72.581543h22.1757813c1.1035156,0,1.9316406,0.0351563,2.484375,0.1074219
			c0.5507813,0.0722656,1.1875,0.3007813,1.9072266,0.6835938c1.2958984,0.6738281,1.9443359,2.5449219,1.9443359,5.6171875
			c0,3.359375-0.8886719,5.328125-2.6640625,5.9033203c-0.8164063,0.2880859-2.0644531,0.4326172-3.7441406,0.4326172H42.8554688
			c-3.3613281,0-5.328125-0.9121094-5.9042969-2.7363281c-0.2880859-0.7675781-0.4316406-1.9912109-0.4316406-3.671875V38.8852539
			c0-2.4482422,0.4550781-4.1152344,1.3671875-5.0039063c0.9121094-0.8876953,2.6396484-1.3320313,5.1845703-1.3320313h28.3681641
			c1.1035156,0,1.9316406,0.0356445,2.484375,0.1079102c0.5507813,0.0717773,1.1875,0.300293,1.9072266,0.684082
			c1.2958984,0.6728516,1.9443359,2.5444336,1.9443359,5.6157227c0,3.3603516-0.8886719,5.328125-2.6640625,5.9042969
			c-0.8164063,0.2880859-2.0644531,0.4316406-3.7441406,0.4316406H49.2636719v7.2724609h14.2558594
			c1.1035156,0,1.9316406,0.0356445,2.4833984,0.1079102c0.5517578,0.0717773,1.1884766,0.300293,1.9082031,0.684082
			c1.2958984,0.6723633,1.9443359,2.5444336,1.9443359,5.6157227c0,3.3603516-0.9121094,5.328125-2.7363281,5.9033203
			C66.3027344,65.1655273,65.0546875,65.309082,63.375,65.309082H49.2636719V72.581543z"/>
	</g>
	<g>
		<rect x="4" y="30.6694336" fill-rule="evenodd" clip-rule="evenodd" fill="none" width="113.2128906" height="87.3300781"/>
		<path fill="none" stroke="#000000" stroke-width="4" stroke-miterlimit="10" d="M53.2636719,73.581543h22.1757813
			c1.1035156,0,1.9316406,0.0351563,2.484375,0.1074219c0.5507813,0.0722656,1.1875,0.3007813,1.9072266,0.6835938
			c1.2958984,0.6738281,1.9443359,2.5449219,1.9443359,5.6171875c0,3.359375-0.8886719,5.328125-2.6640625,5.9033203
			c-0.8164063,0.2880859-2.0644531,0.4326172-3.7441406,0.4326172H46.8554688c-3.3613281,0-5.328125-0.9121094-5.9042969-2.7363281
			c-0.2880859-0.7675781-0.4316406-1.9912109-0.4316406-3.671875V39.8852539c0-2.4482422,0.4550781-4.1152344,1.3671875-5.0039063
			c0.9121094-0.8876953,2.6396484-1.3320313,5.1845703-1.3320313h28.3681641c1.1035156,0,1.9316406,0.0356445,2.484375,0.1079102
			c0.5507813,0.0717773,1.1875,0.300293,1.9072266,0.684082c1.2958984,0.6728516,1.9443359,2.5444336,1.9443359,5.6157227
			c0,3.3603516-0.8886719,5.328125-2.6640625,5.9042969c-0.8164063,0.2880859-2.0644531,0.4316406-3.7441406,0.4316406H53.2636719
			v7.2724609h14.2558594c1.1035156,0,1.9316406,0.0356445,2.4833984,0.1079102
			c0.5517578,0.0717773,1.1884766,0.300293,1.9082031,0.684082c1.2958984,0.6723633,1.9443359,2.5444336,1.9443359,5.6157227
			c0,3.3603516-0.9121094,5.328125-2.7363281,5.9033203C70.3027344,66.1655273,69.0546875,66.309082,67.375,66.309082H53.2636719
			V73.581543z"/>
	</g>
</g>
<g id="Layer_1_copy_5">
</g>
<g id="Layer_1_copy_11">
</g>
<g id="Layer_1_copy_10">
</g>
<g id="Layer_1_copy_9">
</g>
<g id="Layer_1_copy_8">
</g>
<g id="Layer_1_copy_7">
</g>
<g id="Layer_1_copy_6">
</g>
<g id="Layer_1_copy_17">
</g>
<g id="Layer_1_copy_16">
</g>
<g id="Layer_1_copy_15">
</g>
<g id="Layer_1_copy_14">
</g>
<g id="Layer_1_copy_13">
</g>
<g id="Layer_1_copy_12">
</g>
<g id="Layer_1_copy_23">
</g>
<g id="Layer_1_copy_22">
</g>
<g id="Layer_1_copy_25">
</g>
<g id="Layer_1_copy_24">
</g>
<g id="Layer_1_copy_21">
</g>
<g id="Layer_1_copy_20">
</g>
<g id="Layer_1_copy_19">
</g>
<g id="Layer_1_copy_18">
</g>
</svg>
