<?xml version="1.0" encoding="utf-8"?>
<!-- Generator: Adobe Illustrator 16.0.0, SVG Export Plug-In . SVG Version: 6.00 Build 0)  -->
<!DOCTYPE svg PUBLIC "-//W3C//DTD SVG 1.1//EN" "http://www.w3.org/Graphics/SVG/1.1/DTD/svg11.dtd">
<svg version="1.1" xmlns="http://www.w3.org/2000/svg" xmlns:xlink="http://www.w3.org/1999/xlink" x="0px" y="0px" width="120px"
	 height="119.9995117px" viewBox="0 0 120 119.9995117" enable-background="new 0 0 120 119.9995117" xml:space="preserve">
<g id="Layer_1">
</g>
<g id="Layer_1_copy">
</g>
<g id="Layer_1_copy_2">
</g>
<g id="Layer_1_copy_3">
	<rect x="-1" y="-1" fill="#F75237" width="122" height="121.9995117"/>
	<g>
		<rect y="29.6694336" fill-rule="evenodd" clip-rule="evenodd" fill="none" width="113.2128906" height="83.3300781"/>
		<path fill="#2F65B2" d="M40.5507813,32.4770508l13.3203125,0.0722656c6.9589844,0,13.078125,2.5087891,18.359375,7.5239258
			c5.2792969,5.0161133,7.9199219,11.1845703,7.9199219,18.5039063c0,7.3208008-2.5800781,13.5961914-7.7402344,18.8286133
			S60.9980469,85.253418,53.6542969,85.253418H40.4785156c-2.9277344,0-4.7519531-0.5996094-5.4716797-1.8007813
			c-0.5761719-1.0078125-0.8642578-2.5429688-0.8642578-4.6074219V38.8129883c0-1.1518555,0.0361328-1.9912109,0.1074219-2.5200195
			c0.0722656-0.5273438,0.2998047-1.1518555,0.6845703-1.871582C35.6064453,33.125,37.4785156,32.4770508,40.5507813,32.4770508z
			 M63.2304688,68.6577148c2.7832031-2.5683594,4.1757813-5.796875,4.1757813-9.6845703
			c0-3.8881836-1.3564453-7.1391602-4.0673828-9.7558594c-2.7119141-2.6157227-5.8935547-3.9243164-9.5400391-3.9243164h-6.9121094
			v27.2163086h6.984375C57.3261719,72.5092773,60.4462891,71.2260742,63.2304688,68.6577148z"/>
	</g>
	<g>
		<rect x="4" y="30.6694336" fill-rule="evenodd" clip-rule="evenodd" fill="none" width="113.2128906" height="87.3300781"/>
		<path fill="none" stroke="#000000" stroke-width="4" stroke-miterlimit="10" d="M44.5507813,33.4770508l13.3203125,0.0722656
			c6.9589844,0,13.078125,2.5087891,18.359375,7.5239258c5.2792969,5.0161133,7.9199219,11.1845703,7.9199219,18.5039063
			c0,7.3208008-2.5800781,13.5961914-7.7402344,18.8286133S64.9980469,86.253418,57.6542969,86.253418H44.4785156
			c-2.9277344,0-4.7519531-0.5996094-5.4716797-1.8007813c-0.5761719-1.0078125-0.8642578-2.5429688-0.8642578-4.6074219V39.8129883
			c0-1.1518555,0.0361328-1.9912109,0.1074219-2.5200195c0.0722656-0.5273438,0.2998047-1.1518555,0.6845703-1.871582
			C39.6064453,34.125,41.4785156,33.4770508,44.5507813,33.4770508z M67.2304688,69.6577148
			c2.7832031-2.5683594,4.1757813-5.796875,4.1757813-9.6845703c0-3.8881836-1.3564453-7.1391602-4.0673828-9.7558594
			c-2.7119141-2.6157227-5.8935547-3.9243164-9.5400391-3.9243164h-6.9121094v27.2163086h6.984375
			C61.3261719,73.5092773,64.4462891,72.2260742,67.2304688,69.6577148z"/>
	</g>
</g>
<g id="Layer_1_copy_4">
</g>
<g id="Layer_1_copy_5">
</g>
<g id="Layer_1_copy_11">
</g>
<g id="Layer_1_copy_10">
</g>
<g id="Layer_1_copy_9">
</g>
<g id="Layer_1_copy_8">
</g>
<g id="Layer_1_copy_7">
</g>
<g id="Layer_1_copy_6">
</g>
<g id="Layer_1_copy_17">
</g>
<g id="Layer_1_copy_16">
</g>
<g id="Layer_1_copy_15">
</g>
<g id="Layer_1_copy_14">
</g>
<g id="Layer_1_copy_13">
</g>
<g id="Layer_1_copy_12">
</g>
<g id="Layer_1_copy_23">
</g>
<g id="Layer_1_copy_22">
</g>
<g id="Layer_1_copy_25">
</g>
<g id="Layer_1_copy_24">
</g>
<g id="Layer_1_copy_21">
</g>
<g id="Layer_1_copy_20">
</g>
<g id="Layer_1_copy_19">
</g>
<g id="Layer_1_copy_18">
</g>
</svg>
