<?xml version="1.0" encoding="utf-8"?>
<!-- Generator: Adobe Illustrator 16.0.0, SVG Export Plug-In . SVG Version: 6.00 Build 0)  -->
<!DOCTYPE svg PUBLIC "-//W3C//DTD SVG 1.1//EN" "http://www.w3.org/Graphics/SVG/1.1/DTD/svg11.dtd">
<svg version="1.1" xmlns="http://www.w3.org/2000/svg" xmlns:xlink="http://www.w3.org/1999/xlink" x="0px" y="0px" width="120px"
	 height="120px" viewBox="0 0 120 120" enable-background="new 0 0 120 120" xml:space="preserve">
<g id="Layer_1">
</g>
<g id="Layer_1_copy">
</g>
<g id="Layer_1_copy_2">
</g>
<g id="Layer_1_copy_3">
</g>
<g id="Layer_1_copy_4">
</g>
<g id="Layer_1_copy_5">
</g>
<g id="Layer_1_copy_11">
</g>
<g id="Layer_1_copy_10">
</g>
<g id="Layer_1_copy_9">
</g>
<g id="Layer_1_copy_8">
</g>
<g id="Layer_1_copy_7">
</g>
<g id="Layer_1_copy_6">
</g>
<g id="Layer_1_copy_17">
</g>
<g id="Layer_1_copy_16">
</g>
<g id="Layer_1_copy_15">
</g>
<g id="Layer_1_copy_14">
</g>
<g id="Layer_1_copy_13">
</g>
<g id="Layer_1_copy_12">
</g>
<g id="Layer_1_copy_23">
</g>
<g id="Layer_1_copy_22">
</g>
<g id="Layer_1_copy_25">
</g>
<g id="Layer_1_copy_24">
</g>
<g id="Layer_1_copy_21">
</g>
<g id="Layer_1_copy_20">
</g>
<g id="Layer_1_copy_19">
</g>
<g id="Layer_1_copy_18">
	<rect x="-1" y="-1" fill="#4A80BC" width="122" height="122"/>
	<g>
		<rect y="29.6699219" fill-rule="evenodd" clip-rule="evenodd" fill="none" width="113.2128906" height="83.3300781"/>
		<path fill="#FF009E" d="M65.2832031,58.6132813l14.4716797,15.9121094
			c1.6308594,1.8251953,2.4482422,3.3613281,2.4482422,4.6083984c0,1.2490234-0.9257813,2.7119141-2.7724609,4.3916016
			c-1.8486328,1.6816406-3.4091797,2.5205078-4.6806641,2.5205078s-2.7480469-0.9599609-4.4277344-2.8798828L56.6425781,67.4697266
			L42.9628906,83.1660156c-1.7285156,1.9199219-3.2041016,2.8798828-4.4277344,2.8798828
			c-1.2246094,0-2.7851563-0.8525391-4.6806641-2.5556641c-1.8964844-1.703125-2.84375-3.15625-2.84375-4.3564453
			c0-1.1992188,0.8388672-2.7363281,2.5205078-4.6083984l14.4707031-15.9121094L33.53125,42.7011719
			c-1.6816406-1.7753906-2.5205078-3.2871094-2.5205078-4.5351563s0.9365234-2.7246094,2.8076172-4.4277344
			c1.8720703-1.703125,3.4433594-2.5566406,4.7167969-2.5566406c1.2714844,0,2.7460938,0.9609375,4.4277344,2.8798828
			l13.6796875,15.6962891l13.6796875-15.6962891c1.7285156-1.9189453,3.2050781-2.8798828,4.4277344-2.8798828
			c1.2246094,0,2.7724609,0.8398438,4.6445313,2.5195313c1.8720703,1.6816406,2.8085938,3.1679688,2.8085938,4.4648438
			c0,1.2958984-0.8173828,2.8076172-2.4482422,4.5351563L65.2832031,58.6132813z"/>
	</g>
	<g>
		<rect x="4" y="30.6699219" fill-rule="evenodd" clip-rule="evenodd" fill="none" width="113.2128906" height="87.3300781"/>
		<path fill="none" stroke="#000000" stroke-width="4" stroke-miterlimit="10" d="M69.2832031,59.6132813l14.4716797,15.9121094
			c1.6308594,1.8251953,2.4482422,3.3613281,2.4482422,4.6083984c0,1.2490234-0.9257813,2.7119141-2.7724609,4.3916016
			c-1.8486328,1.6816406-3.4091797,2.5205078-4.6806641,2.5205078s-2.7480469-0.9599609-4.4277344-2.8798828L60.6425781,68.4697266
			L46.9628906,84.1660156c-1.7285156,1.9199219-3.2041016,2.8798828-4.4277344,2.8798828
			c-1.2246094,0-2.7851563-0.8525391-4.6806641-2.5556641c-1.8964844-1.703125-2.84375-3.15625-2.84375-4.3564453
			c0-1.1992188,0.8388672-2.7363281,2.5205078-4.6083984l14.4707031-15.9121094L37.53125,43.7011719
			c-1.6816406-1.7753906-2.5205078-3.2871094-2.5205078-4.5351563s0.9365234-2.7246094,2.8076172-4.4277344
			c1.8720703-1.703125,3.4433594-2.5566406,4.7167969-2.5566406c1.2714844,0,2.7460938,0.9609375,4.4277344,2.8798828
			l13.6796875,15.6962891l13.6796875-15.6962891c1.7285156-1.9189453,3.2050781-2.8798828,4.4277344-2.8798828
			c1.2246094,0,2.7724609,0.8398438,4.6445313,2.5195313c1.8720703,1.6816406,2.8085938,3.1679688,2.8085938,4.4648438
			c0,1.2958984-0.8173828,2.8076172-2.4482422,4.5351563L69.2832031,59.6132813z"/>
	</g>
</g>
</svg>
