<?xml version="1.0" encoding="utf-8"?>
<!-- Generator: Adobe Illustrator 16.0.0, SVG Export Plug-In . SVG Version: 6.00 Build 0)  -->
<!DOCTYPE svg PUBLIC "-//W3C//DTD SVG 1.1//EN" "http://www.w3.org/Graphics/SVG/1.1/DTD/svg11.dtd">
<svg version="1.1" xmlns="http://www.w3.org/2000/svg" xmlns:xlink="http://www.w3.org/1999/xlink" x="0px" y="0px" width="120px"
	 height="120px" viewBox="0 0 120 120" enable-background="new 0 0 120 120" xml:space="preserve">
<g id="Layer_1">
</g>
<g id="Layer_1_copy">
</g>
<g id="Layer_1_copy_2">
</g>
<g id="Layer_1_copy_3">
</g>
<g id="Layer_1_copy_4">
</g>
<g id="Layer_1_copy_5">
</g>
<g id="Layer_1_copy_11">
</g>
<g id="Layer_1_copy_10">
	<rect x="-1" y="-1" fill="#00B7FF" width="122" height="122"/>
	<g>
		<rect y="29.6699219" fill-rule="evenodd" clip-rule="evenodd" fill="none" width="113.2128906" height="83.3300781"/>
		<path fill="#F98C6E" d="M66.9394531,34.4941406c0.3828125-0.7207031,1.03125-1.2246094,1.9433594-1.5126953
			c0.9111328-0.2880859,2.0634766-0.4316406,3.4560547-0.4316406c1.3916016,0,2.4951172,0.1201172,3.3115234,0.3603516
			s1.4404297,0.5283203,1.8730469,0.8632813c0.4316406,0.3359375,0.7666016,0.8164063,1.0078125,1.4404297
			c0.2392578,0.8164063,0.359375,2.0634766,0.359375,3.7431641v39.9609375c0,1.1044922-0.0351563,1.9326172-0.1074219,2.484375
			s-0.3007813,1.1875-0.6845703,1.9072266c-0.6728516,1.2958984-2.5439453,1.9443359-5.6162109,1.9443359
			c-3.359375,0-5.328125-0.8876953-5.9033203-2.6640625c-0.2880859-0.8164063-0.4326172-2.0634766-0.4326172-3.7441406V64.2294922
			H47.0664063v14.6884766c0,1.1044922-0.0351563,1.9326172-0.1074219,2.484375s-0.3007813,1.1875-0.6835938,1.9072266
			c-0.6738281,1.2958984-2.5449219,1.9443359-5.6171875,1.9443359c-3.359375,0-5.3271484-0.8876953-5.9033203-2.6640625
			c-0.2880859-0.8164063-0.4326172-2.0634766-0.4326172-3.7441406V38.8857422c0-1.1035156,0.0371094-1.9316406,0.1083984-2.4833984
			c0.0722656-0.5517578,0.2998047-1.1884766,0.6845703-1.9082031c0.671875-1.296875,2.5429688-1.9443359,5.6152344-1.9443359
			c3.359375,0,5.3515625,0.8886719,5.9765625,2.6640625c0.2392578,0.8164063,0.359375,2.0634766,0.359375,3.7431641v14.6884766
			h19.0800781V38.8857422c0-1.1035156,0.0371094-1.9316406,0.1083984-2.4833984S66.5546875,35.2138672,66.9394531,34.4941406z"/>
	</g>
	<g>
		<rect x="4" y="30.6699219" fill-rule="evenodd" clip-rule="evenodd" fill="none" width="113.2128906" height="87.3300781"/>
		<path fill="none" stroke="#000000" stroke-width="4" stroke-miterlimit="10" d="M70.9394531,35.4941406
			c0.3828125-0.7207031,1.03125-1.2246094,1.9433594-1.5126953c0.9111328-0.2880859,2.0634766-0.4316406,3.4560547-0.4316406
			c1.3916016,0,2.4951172,0.1201172,3.3115234,0.3603516s1.4404297,0.5283203,1.8730469,0.8632813
			c0.4316406,0.3359375,0.7666016,0.8164063,1.0078125,1.4404297c0.2392578,0.8164063,0.359375,2.0634766,0.359375,3.7431641
			v39.9609375c0,1.1044922-0.0351563,1.9326172-0.1074219,2.484375s-0.3007813,1.1875-0.6845703,1.9072266
			c-0.6728516,1.2958984-2.5439453,1.9443359-5.6162109,1.9443359c-3.359375,0-5.328125-0.8876953-5.9033203-2.6640625
			c-0.2880859-0.8164063-0.4326172-2.0634766-0.4326172-3.7441406V65.2294922H51.0664063v14.6884766
			c0,1.1044922-0.0351563,1.9326172-0.1074219,2.484375s-0.3007813,1.1875-0.6835938,1.9072266
			c-0.6738281,1.2958984-2.5449219,1.9443359-5.6171875,1.9443359c-3.359375,0-5.3271484-0.8876953-5.9033203-2.6640625
			c-0.2880859-0.8164063-0.4326172-2.0634766-0.4326172-3.7441406V39.8857422c0-1.1035156,0.0371094-1.9316406,0.1083984-2.4833984
			c0.0722656-0.5517578,0.2998047-1.1884766,0.6845703-1.9082031c0.671875-1.296875,2.5429688-1.9443359,5.6152344-1.9443359
			c3.359375,0,5.3515625,0.8886719,5.9765625,2.6640625c0.2392578,0.8164063,0.359375,2.0634766,0.359375,3.7431641v14.6884766
			h19.0800781V39.8857422c0-1.1035156,0.0371094-1.9316406,0.1083984-2.4833984S70.5546875,36.2138672,70.9394531,35.4941406z"/>
	</g>
</g>
<g id="Layer_1_copy_9">
</g>
<g id="Layer_1_copy_8">
</g>
<g id="Layer_1_copy_7">
</g>
<g id="Layer_1_copy_6">
</g>
<g id="Layer_1_copy_17">
</g>
<g id="Layer_1_copy_16">
</g>
<g id="Layer_1_copy_15">
</g>
<g id="Layer_1_copy_14">
</g>
<g id="Layer_1_copy_13">
</g>
<g id="Layer_1_copy_12">
</g>
<g id="Layer_1_copy_23">
</g>
<g id="Layer_1_copy_22">
</g>
<g id="Layer_1_copy_25">
</g>
<g id="Layer_1_copy_24">
</g>
<g id="Layer_1_copy_21">
</g>
<g id="Layer_1_copy_20">
</g>
<g id="Layer_1_copy_19">
</g>
<g id="Layer_1_copy_18">
</g>
</svg>
