<?xml version="1.0" encoding="utf-8"?>
<!-- Generator: Adobe Illustrator 16.0.0, SVG Export Plug-In . SVG Version: 6.00 Build 0)  -->
<!DOCTYPE svg PUBLIC "-//W3C//DTD SVG 1.1//EN" "http://www.w3.org/Graphics/SVG/1.1/DTD/svg11.dtd">
<svg version="1.1" xmlns="http://www.w3.org/2000/svg" xmlns:xlink="http://www.w3.org/1999/xlink" x="0px" y="0px" width="120px"
	 height="120px" viewBox="0 0 120 120" enable-background="new 0 0 120 120" xml:space="preserve">
<g id="Layer_1">
</g>
<g id="Layer_1_copy">
</g>
<g id="Layer_1_copy_2">
</g>
<g id="Layer_1_copy_3">
</g>
<g id="Layer_1_copy_4">
</g>
<g id="Layer_1_copy_5">
</g>
<g id="Layer_1_copy_11">
</g>
<g id="Layer_1_copy_10">
</g>
<g id="Layer_1_copy_9">
</g>
<g id="Layer_1_copy_8">
</g>
<g id="Layer_1_copy_7">
</g>
<g id="Layer_1_copy_6">
</g>
<g id="Layer_1_copy_17">
</g>
<g id="Layer_1_copy_16">
	<rect x="-1" y="-1" fill="#EFCEFF" width="122" height="122"/>
	<g>
		<rect y="29.6699219" fill-rule="evenodd" clip-rule="evenodd" fill="none" width="113.2128906" height="83.3300781"/>
		<path fill="#FF00E7" d="M67.6591797,34.7460938c0.4560547-0.8398438,1.1396484-1.4042969,2.0517578-1.6923828
			c0.9111328-0.2880859,2.0527344-0.4326172,3.4199219-0.4326172c1.3681641,0,2.4716797,0.1210938,3.3125,0.3603516
			c0.8388672,0.2412109,1.4628906,0.5283203,1.8710938,0.8642578s0.7080078,0.8398438,0.9003906,1.5117188
			c0.2880859,0.7685547,0.4316406,1.9921875,0.4316406,3.671875v39.9609375c0,1.1513672-0.0351563,1.9921875-0.1074219,2.5195313
			c-0.0722656,0.5292969-0.3007813,1.1523438-0.6835938,1.8720703c-0.6738281,1.2958984-2.5449219,1.9443359-5.6171875,1.9443359
			c-1.8710938,0-3.1679688-0.1445313-3.8867188-0.4326172c-0.7207031-0.2880859-1.3212891-0.7431641-1.8007813-1.3681641
			C56.7509766,69.125,49.6464844,59.71875,46.2382813,55.3017578v23.6884766c0,1.1513672-0.0351563,1.9921875-0.1074219,2.5195313
			c-0.0722656,0.5292969-0.3007813,1.1523438-0.6835938,1.8720703c-0.6728516,1.2958984-2.5449219,1.9443359-5.6162109,1.9443359
			c-2.9765625,0-4.7998047-0.6484375-5.4716797-1.9443359c-0.3847656-0.7197266-0.6123047-1.3681641-0.6845703-1.9443359
			c-0.0712891-0.5761719-0.1083984-1.4150391-0.1083984-2.5195313V38.7421875c0-1.8242188,0.2285156-3.15625,0.6845703-3.9960938
			s1.1396484-1.4042969,2.0517578-1.6923828s2.0878906-0.4326172,3.5283203-0.4326172s2.5791016,0.1328125,3.4199219,0.3964844
			c0.8388672,0.2646484,1.4277344,0.5644531,1.7646484,0.9003906c0.1904297,0.1435547,0.7431641,0.7675781,1.6552734,1.8710938
			C56.7988281,49.5664063,63.5664063,58.6621094,66.9746094,63.078125V38.7421875
			C66.9746094,36.9179688,67.2021484,35.5859375,67.6591797,34.7460938z"/>
	</g>
	<g>
		<rect x="4" y="30.6699219" fill-rule="evenodd" clip-rule="evenodd" fill="none" width="113.2128906" height="87.3300781"/>
		<path fill="none" stroke="#000000" stroke-width="4" stroke-miterlimit="10" d="M71.6591797,35.7460938
			c0.4560547-0.8398438,1.1396484-1.4042969,2.0517578-1.6923828c0.9111328-0.2880859,2.0527344-0.4326172,3.4199219-0.4326172
			c1.3681641,0,2.4716797,0.1210938,3.3125,0.3603516c0.8388672,0.2412109,1.4628906,0.5283203,1.8710938,0.8642578
			s0.7080078,0.8398438,0.9003906,1.5117188c0.2880859,0.7685547,0.4316406,1.9921875,0.4316406,3.671875v39.9609375
			c0,1.1513672-0.0351563,1.9921875-0.1074219,2.5195313c-0.0722656,0.5292969-0.3007813,1.1523438-0.6835938,1.8720703
			c-0.6738281,1.2958984-2.5449219,1.9443359-5.6171875,1.9443359c-1.8710938,0-3.1679688-0.1445313-3.8867188-0.4326172
			c-0.7207031-0.2880859-1.3212891-0.7431641-1.8007813-1.3681641C60.7509766,70.125,53.6464844,60.71875,50.2382813,56.3017578
			v23.6884766c0,1.1513672-0.0351563,1.9921875-0.1074219,2.5195313c-0.0722656,0.5292969-0.3007813,1.1523438-0.6835938,1.8720703
			c-0.6728516,1.2958984-2.5449219,1.9443359-5.6162109,1.9443359c-2.9765625,0-4.7998047-0.6484375-5.4716797-1.9443359
			c-0.3847656-0.7197266-0.6123047-1.3681641-0.6845703-1.9443359c-0.0712891-0.5761719-0.1083984-1.4150391-0.1083984-2.5195313
			V39.7421875c0-1.8242188,0.2285156-3.15625,0.6845703-3.9960938s1.1396484-1.4042969,2.0517578-1.6923828
			s2.0878906-0.4326172,3.5283203-0.4326172s2.5791016,0.1328125,3.4199219,0.3964844
			c0.8388672,0.2646484,1.4277344,0.5644531,1.7646484,0.9003906c0.1904297,0.1435547,0.7431641,0.7675781,1.6552734,1.8710938
			C60.7988281,50.5664063,67.5664063,59.6621094,70.9746094,64.078125V39.7421875
			C70.9746094,37.9179688,71.2021484,36.5859375,71.6591797,35.7460938z"/>
	</g>
</g>
<g id="Layer_1_copy_15">
</g>
<g id="Layer_1_copy_14">
</g>
<g id="Layer_1_copy_13">
</g>
<g id="Layer_1_copy_12">
</g>
<g id="Layer_1_copy_23">
</g>
<g id="Layer_1_copy_22">
</g>
<g id="Layer_1_copy_25">
</g>
<g id="Layer_1_copy_24">
</g>
<g id="Layer_1_copy_21">
</g>
<g id="Layer_1_copy_20">
</g>
<g id="Layer_1_copy_19">
</g>
<g id="Layer_1_copy_18">
</g>
</svg>
