<?xml version="1.0" encoding="utf-8"?>
<!-- Generator: Adobe Illustrator 16.0.0, SVG Export Plug-In . SVG Version: 6.00 Build 0)  -->
<!DOCTYPE svg PUBLIC "-//W3C//DTD SVG 1.1//EN" "http://www.w3.org/Graphics/SVG/1.1/DTD/svg11.dtd">
<svg version="1.1" xmlns="http://www.w3.org/2000/svg" xmlns:xlink="http://www.w3.org/1999/xlink" x="0px" y="0px" width="120px"
	 height="120px" viewBox="0 0 120 120" enable-background="new 0 0 120 120" xml:space="preserve">
<g id="Layer_1">
</g>
<g id="Layer_1_copy">
</g>
<g id="Layer_1_copy_2">
</g>
<g id="Layer_1_copy_3">
</g>
<g id="Layer_1_copy_4">
</g>
<g id="Layer_1_copy_5">
</g>
<g id="Layer_1_copy_11">
</g>
<g id="Layer_1_copy_10">
</g>
<g id="Layer_1_copy_9">
</g>
<g id="Layer_1_copy_8">
</g>
<g id="Layer_1_copy_7">
</g>
<g id="Layer_1_copy_6">
	<rect x="-1" y="-1" fill="#F75237" width="122" height="122"/>
	<g>
		<rect y="29.6699219" fill-rule="evenodd" clip-rule="evenodd" fill="none" width="113.2128906" height="83.3300781"/>
		<path fill="#2F65B2" d="M51.0986328,74.6699219h19.5839844c1.5839844,0,2.7353516,0.1796875,3.4560547,0.5390625
			c0.7197266,0.3613281,1.1992188,0.9257813,1.4394531,1.6933594s0.3603516,1.7880859,0.3603516,3.0595703
			c0,1.2724609-0.1201172,2.2919922-0.3603516,3.0595703c-0.2402344,0.7685547-0.6474609,1.296875-1.2236328,1.5839844
			c-0.9121094,0.4804688-2.1591797,0.7207031-3.7431641,0.7207031H44.6904297c-3.3603516,0-5.3271484-0.9121094-5.9033203-2.7363281
			c-0.2890625-0.7675781-0.4326172-1.9912109-0.4326172-3.671875V38.8857422c0-1.1035156,0.0361328-1.9316406,0.1083984-2.4833984
			s0.2988281-1.1884766,0.6835938-1.9082031c0.671875-1.296875,2.5439453-1.9443359,5.6162109-1.9443359
			c3.359375,0,5.3515625,0.8886719,5.9755859,2.6640625c0.2402344,0.8164063,0.3603516,2.0634766,0.3603516,3.7431641V74.6699219z"
			/>
	</g>
	<g>
		<rect x="4" y="30.6699219" fill-rule="evenodd" clip-rule="evenodd" fill="none" width="113.2128906" height="87.3300781"/>
		<path fill="none" stroke="#000000" stroke-width="4" stroke-miterlimit="10" d="M55.0986328,75.6699219h19.5839844
			c1.5839844,0,2.7353516,0.1796875,3.4560547,0.5390625c0.7197266,0.3613281,1.1992188,0.9257813,1.4394531,1.6933594
			s0.3603516,1.7880859,0.3603516,3.0595703c0,1.2724609-0.1201172,2.2919922-0.3603516,3.0595703
			c-0.2402344,0.7685547-0.6474609,1.296875-1.2236328,1.5839844c-0.9121094,0.4804688-2.1591797,0.7207031-3.7431641,0.7207031
			H48.6904297c-3.3603516,0-5.3271484-0.9121094-5.9033203-2.7363281c-0.2890625-0.7675781-0.4326172-1.9912109-0.4326172-3.671875
			V39.8857422c0-1.1035156,0.0361328-1.9316406,0.1083984-2.4833984s0.2988281-1.1884766,0.6835938-1.9082031
			c0.671875-1.296875,2.5439453-1.9443359,5.6162109-1.9443359c3.359375,0,5.3515625,0.8886719,5.9755859,2.6640625
			c0.2402344,0.8164063,0.3603516,2.0634766,0.3603516,3.7431641V75.6699219z"/>
	</g>
</g>
<g id="Layer_1_copy_17">
</g>
<g id="Layer_1_copy_16">
</g>
<g id="Layer_1_copy_15">
</g>
<g id="Layer_1_copy_14">
</g>
<g id="Layer_1_copy_13">
</g>
<g id="Layer_1_copy_12">
</g>
<g id="Layer_1_copy_23">
</g>
<g id="Layer_1_copy_22">
</g>
<g id="Layer_1_copy_25">
</g>
<g id="Layer_1_copy_24">
</g>
<g id="Layer_1_copy_21">
</g>
<g id="Layer_1_copy_20">
</g>
<g id="Layer_1_copy_19">
</g>
<g id="Layer_1_copy_18">
</g>
</svg>
