<?xml version="1.0" encoding="utf-8"?>
<!-- Generator: Adobe Illustrator 16.0.0, SVG Export Plug-In . SVG Version: 6.00 Build 0)  -->
<!DOCTYPE svg PUBLIC "-//W3C//DTD SVG 1.1//EN" "http://www.w3.org/Graphics/SVG/1.1/DTD/svg11.dtd">
<svg version="1.1" xmlns="http://www.w3.org/2000/svg" xmlns:xlink="http://www.w3.org/1999/xlink" x="0px" y="0px" width="120px"
	 height="120px" viewBox="0 0 120 120" enable-background="new 0 0 120 120" xml:space="preserve">
<g id="Layer_1">
</g>
<g id="Layer_1_copy">
</g>
<g id="Layer_1_copy_2">
</g>
<g id="Layer_1_copy_3">
</g>
<g id="Layer_1_copy_4">
</g>
<g id="Layer_1_copy_5">
</g>
<g id="Layer_1_copy_11">
</g>
<g id="Layer_1_copy_10">
</g>
<g id="Layer_1_copy_9">
</g>
<g id="Layer_1_copy_8">
</g>
<g id="Layer_1_copy_7">
</g>
<g id="Layer_1_copy_6">
</g>
<g id="Layer_1_copy_17">
</g>
<g id="Layer_1_copy_16">
</g>
<g id="Layer_1_copy_15">
</g>
<g id="Layer_1_copy_14">
</g>
<g id="Layer_1_copy_13">
</g>
<g id="Layer_1_copy_12">
	<rect x="-1" y="-1" fill="#53F2D7" width="122" height="122"/>
	<g>
		<rect y="29.6699219" fill-rule="evenodd" clip-rule="evenodd" fill="none" width="113.2128906" height="83.3300781"/>
		<path fill="#DD4CE5" d="M77.1621094,76.3974609C77.8828125,78.125,78.2421875,79.375,78.2421875,80.1416016
			c0,1.8251953-1.4882813,3.3603516-4.4628906,4.6083984c-1.5371094,0.671875-2.7724609,1.0078125-3.7089844,1.0078125
			c-0.9355469,0-1.7041016-0.2285156-2.3037109-0.6835938c-0.6005859-0.4560547-1.0439453-0.9238281-1.3320313-1.4042969
			c-0.4804688-0.9121094-2.3525391-5.2558594-5.6162109-13.0322266L58.5859375,70.78125h-9.0712891v8.1367188
			c0,1.1044922-0.0361328,1.9326172-0.1083984,2.484375s-0.2998047,1.1875-0.6835938,1.9072266
			c-0.6728516,1.2958984-2.5449219,1.9443359-5.6162109,1.9443359c-3.3603516,0-5.3271484-0.8876953-5.9033203-2.6640625
			c-0.2890625-0.8164063-0.4326172-2.0634766-0.4326172-3.7441406V38.8857422c0-1.1035156,0.0361328-1.9316406,0.1083984-2.4833984
			s0.2988281-1.1884766,0.6835938-1.9082031c0.671875-1.296875,2.5439453-1.9443359,5.6162109-1.9443359h15.5517578
			c4.2236328,0,8.328125,1.5361328,12.3125,4.6083984c1.9189453,1.4882813,3.5029297,3.5039063,4.7519531,6.046875
			c1.2480469,2.5449219,1.8710938,5.3769531,1.8710938,8.4960938c0,5.4257813-1.7988281,9.8886719-5.3994141,13.3925781
			C73.3222656,67.6386719,74.9541016,71.40625,77.1621094,76.3974609z M49.5146484,58.0371094h9.2158203
			c1.3916016,0,2.7832031-0.5273438,4.1757813-1.5839844c1.3925781-1.0546875,2.0878906-2.6386719,2.0878906-4.7519531
			c0-2.1113281-0.6953125-3.7070313-2.0878906-4.7871094s-2.8320313-1.6210938-4.3203125-1.6210938h-9.0712891V58.0371094z"/>
	</g>
	<g>
		<rect x="4" y="30.6699219" fill-rule="evenodd" clip-rule="evenodd" fill="none" width="113.2128906" height="87.3300781"/>
		<path fill="none" stroke="#000000" stroke-width="4" stroke-miterlimit="10" d="M81.1621094,77.3974609
			C81.8828125,79.125,82.2421875,80.375,82.2421875,81.1416016c0,1.8251953-1.4882813,3.3603516-4.4628906,4.6083984
			c-1.5371094,0.671875-2.7724609,1.0078125-3.7089844,1.0078125c-0.9355469,0-1.7041016-0.2285156-2.3037109-0.6835938
			c-0.6005859-0.4560547-1.0439453-0.9238281-1.3320313-1.4042969c-0.4804688-0.9121094-2.3525391-5.2558594-5.6162109-13.0322266
			L62.5859375,71.78125h-9.0712891v8.1367188c0,1.1044922-0.0361328,1.9326172-0.1083984,2.484375
			s-0.2998047,1.1875-0.6835938,1.9072266c-0.6728516,1.2958984-2.5449219,1.9443359-5.6162109,1.9443359
			c-3.3603516,0-5.3271484-0.8876953-5.9033203-2.6640625c-0.2890625-0.8164063-0.4326172-2.0634766-0.4326172-3.7441406V39.8857422
			c0-1.1035156,0.0361328-1.9316406,0.1083984-2.4833984s0.2988281-1.1884766,0.6835938-1.9082031
			c0.671875-1.296875,2.5439453-1.9443359,5.6162109-1.9443359h15.5517578c4.2236328,0,8.328125,1.5361328,12.3125,4.6083984
			c1.9189453,1.4882813,3.5029297,3.5039063,4.7519531,6.046875c1.2480469,2.5449219,1.8710938,5.3769531,1.8710938,8.4960938
			c0,5.4257813-1.7988281,9.8886719-5.3994141,13.3925781C77.3222656,68.6386719,78.9541016,72.40625,81.1621094,77.3974609z
			 M53.5146484,59.0371094h9.2158203c1.3916016,0,2.7832031-0.5273438,4.1757813-1.5839844
			c1.3925781-1.0546875,2.0878906-2.6386719,2.0878906-4.7519531c0-2.1113281-0.6953125-3.7070313-2.0878906-4.7871094
			s-2.8320313-1.6210938-4.3203125-1.6210938h-9.0712891V59.0371094z"/>
	</g>
</g>
<g id="Layer_1_copy_23">
</g>
<g id="Layer_1_copy_22">
</g>
<g id="Layer_1_copy_25">
</g>
<g id="Layer_1_copy_24">
</g>
<g id="Layer_1_copy_21">
</g>
<g id="Layer_1_copy_20">
</g>
<g id="Layer_1_copy_19">
</g>
<g id="Layer_1_copy_18">
</g>
</svg>
