<?xml version="1.0" encoding="utf-8"?>
<!-- Generator: Adobe Illustrator 16.0.0, SVG Export Plug-In . SVG Version: 6.00 Build 0)  -->
<!DOCTYPE svg PUBLIC "-//W3C//DTD SVG 1.1//EN" "http://www.w3.org/Graphics/SVG/1.1/DTD/svg11.dtd">
<svg version="1.1" xmlns="http://www.w3.org/2000/svg" xmlns:xlink="http://www.w3.org/1999/xlink" x="0px" y="0px" width="120px"
	 height="120px" viewBox="0 0 120 120" enable-background="new 0 0 120 120" xml:space="preserve">
<g id="Layer_1">
</g>
<g id="Layer_1_copy">
</g>
<g id="Layer_1_copy_2">
</g>
<g id="Layer_1_copy_3">
</g>
<g id="Layer_1_copy_4">
</g>
<g id="Layer_1_copy_5">
</g>
<g id="Layer_1_copy_11">
</g>
<g id="Layer_1_copy_10">
</g>
<g id="Layer_1_copy_9">
</g>
<g id="Layer_1_copy_8">
</g>
<g id="Layer_1_copy_7">
</g>
<g id="Layer_1_copy_6">
</g>
<g id="Layer_1_copy_17">
</g>
<g id="Layer_1_copy_16">
</g>
<g id="Layer_1_copy_15">
</g>
<g id="Layer_1_copy_14">
</g>
<g id="Layer_1_copy_13">
</g>
<g id="Layer_1_copy_12">
</g>
<g id="Layer_1_copy_23">
	<rect x="-0.9995117" y="-1" fill="#D4AAFF" width="121.9995117" height="122"/>
	<g>
		<rect y="29.6699219" fill-rule="evenodd" clip-rule="evenodd" fill="none" width="113.2128906" height="83.3300781"/>
		<path fill="#3D597C" d="M39.2905273,77.9101563c-1.2485352-1.5361328-1.8720703-2.9160156-1.8720703-4.140625
			c0-1.2236328,1.0317383-2.84375,3.0961914-4.859375c1.1992188-1.1523438,2.4716797-1.7285156,3.815918-1.7285156
			c1.3432617,0,3.215332,1.2001953,5.6162109,3.5996094c0.6713867,0.8173828,1.6313477,1.5966797,2.8798828,2.3398438
			c1.2475586,0.7451172,2.3994141,1.1171875,3.4560547,1.1171875c4.4638672,0,6.6958008-1.8242188,6.6958008-5.4726563
			c0-1.1035156-0.6113281-2.0273438-1.8359375-2.7714844C59.918457,65.25,58.394043,64.7099609,56.5708008,64.3730469
			c-1.824707-0.3339844-3.7924805-0.875-5.9042969-1.6191406c-2.112793-0.7441406-4.0800781-1.6201172-5.9038086-2.6289063
			c-1.824707-1.0078125-3.3481445-2.6025391-4.5722656-4.7871094c-1.2236328-2.1835938-1.8359375-4.8125-1.8359375-7.8847656
			c0-4.2226563,1.5717773-7.9072266,4.7163086-11.0507813c3.1430664-3.1445313,7.4272461-4.7167969,12.8520508-4.7167969
			c2.8798828,0,5.5078125,0.3730469,7.8837891,1.1162109c2.3759766,0.7451172,4.0195313,1.5009766,4.9316406,2.2685547
			L70.5390625,36.4375c1.4863281,1.3925781,2.2314453,2.5683594,2.2314453,3.5283203s-0.5751953,2.2802734-1.7275391,3.9599609
			c-1.6328125,2.4003906-3.3125,3.5996094-5.0410156,3.5996094c-1.0078125,0-2.2558594-0.4785156-3.7431641-1.4394531
			c-0.1435547-0.0957031-0.4208984-0.3359375-0.828125-0.7207031c-0.4082031-0.3828125-0.7807617-0.6953125-1.1162109-0.9355469
			c-1.0078125-0.6230469-2.2924805-0.9355469-3.8515625-0.9355469c-1.5605469,0-2.8564453,0.3720703-3.8881836,1.1152344
			c-1.0327148,0.7451172-1.5478516,1.7773438-1.5478516,3.0957031c0,1.3212891,0.6118164,2.3886719,1.8359375,3.2050781
			c1.2236328,0.8164063,2.7470703,1.3671875,4.5717773,1.65625c1.8237305,0.2871094,3.8154297,0.7314453,5.9755859,1.3310547
			c2.1601563,0.6005859,4.1523438,1.3320313,5.9765625,2.1962891c1.8242188,0.8632813,3.3476563,2.3652344,4.5722656,4.5
			c1.2236328,2.1367188,1.8359375,4.7636719,1.8359375,7.8837891c0,3.1210938-0.625,5.8681641-1.8720703,8.2441406
			c-1.2490234,2.3759766-2.8798828,4.2119141-4.8955078,5.5078125c-3.8886719,2.5449219-8.0410156,3.8164063-12.456543,3.8164063
			c-2.2568359,0-4.3920898-0.2763672-6.4082031-0.828125s-3.6484375-1.2353516-4.8959961-2.0517578
			c-2.5449219-1.5361328-4.3198242-3.0244141-5.328125-4.4648438L39.2905273,77.9101563z"/>
	</g>
	<g>
		<rect x="4" y="30.6699219" fill-rule="evenodd" clip-rule="evenodd" fill="none" width="113.2128906" height="87.3300781"/>
		<path fill="none" stroke="#000000" stroke-width="4" stroke-miterlimit="10" d="M43.2905273,78.9101563
			c-1.2485352-1.5361328-1.8720703-2.9160156-1.8720703-4.140625c0-1.2236328,1.0317383-2.84375,3.0961914-4.859375
			c1.1992188-1.1523438,2.4716797-1.7285156,3.815918-1.7285156c1.3432617,0,3.215332,1.2001953,5.6162109,3.5996094
			c0.6713867,0.8173828,1.6313477,1.5966797,2.8798828,2.3398438c1.2475586,0.7451172,2.3994141,1.1171875,3.4560547,1.1171875
			c4.4633789,0,6.6958008-1.8242188,6.6958008-5.4726563c0-1.1035156-0.6113281-2.0273438-1.8359375-2.7714844
			s-2.7480469-1.2841797-4.5717773-1.6210938c-1.824707-0.3339844-3.7924805-0.875-5.9042969-1.6191406
			c-2.112793-0.7441406-4.0800781-1.6201172-5.9038086-2.6289063c-1.824707-1.0078125-3.3481445-2.6025391-4.5722656-4.7871094
			c-1.2236328-2.1835938-1.8359375-4.8125-1.8359375-7.8847656c0-4.2226563,1.5717773-7.9072266,4.7163086-11.0507813
			c3.1430664-3.1445313,7.4272461-4.7167969,12.8520508-4.7167969c2.8798828,0,5.5078125,0.3730469,7.8837891,1.1162109
			c2.3759766,0.7451172,4.0195313,1.5009766,4.9316406,2.2685547L74.5390625,37.4375
			c1.4863281,1.3925781,2.2314453,2.5683594,2.2314453,3.5283203s-0.5751953,2.2802734-1.7275391,3.9599609
			c-1.6328125,2.4003906-3.3125,3.5996094-5.0410156,3.5996094c-1.0078125,0-2.2558594-0.4785156-3.7431641-1.4394531
			c-0.1435547-0.0957031-0.4208984-0.3359375-0.828125-0.7207031c-0.4082031-0.3828125-0.7802734-0.6953125-1.1162109-0.9355469
			c-1.0078125-0.6230469-2.2929688-0.9355469-3.8515625-0.9355469c-1.5605469,0-2.8564453,0.3720703-3.8881836,1.1152344
			c-1.0327148,0.7451172-1.5478516,1.7773438-1.5478516,3.0957031c0,1.3212891,0.6118164,2.3886719,1.8359375,3.2050781
			c1.2236328,0.8164063,2.7470703,1.3671875,4.5717773,1.65625c1.8232422,0.2871094,3.8154297,0.7314453,5.9755859,1.3310547
			c2.1601563,0.6005859,4.1523438,1.3320313,5.9765625,2.1962891c1.8242188,0.8632813,3.3476563,2.3652344,4.5722656,4.5
			c1.2236328,2.1367188,1.8359375,4.7636719,1.8359375,7.8837891c0,3.1210938-0.625,5.8681641-1.8720703,8.2441406
			c-1.2490234,2.3759766-2.8798828,4.2119141-4.8955078,5.5078125c-3.8886719,2.5449219-8.0410156,3.8164063-12.456543,3.8164063
			c-2.2568359,0-4.3920898-0.2763672-6.4082031-0.828125s-3.6484375-1.2353516-4.8959961-2.0517578
			c-2.5449219-1.5361328-4.3198242-3.0244141-5.328125-4.4648438L43.2905273,78.9101563z"/>
	</g>
</g>
<g id="Layer_1_copy_22">
</g>
<g id="Layer_1_copy_25">
</g>
<g id="Layer_1_copy_24">
</g>
<g id="Layer_1_copy_21">
</g>
<g id="Layer_1_copy_20">
</g>
<g id="Layer_1_copy_19">
</g>
<g id="Layer_1_copy_18">
</g>
</svg>
