<?xml version="1.0" encoding="utf-8"?>
<!-- Generator: Adobe Illustrator 16.0.0, SVG Export Plug-In . SVG Version: 6.00 Build 0)  -->
<!DOCTYPE svg PUBLIC "-//W3C//DTD SVG 1.1//EN" "http://www.w3.org/Graphics/SVG/1.1/DTD/svg11.dtd">
<svg version="1.1" xmlns="http://www.w3.org/2000/svg" xmlns:xlink="http://www.w3.org/1999/xlink" x="0px" y="0px" width="120px"
	 height="120px" viewBox="0 0 120 120" enable-background="new 0 0 120 120" xml:space="preserve">
<g id="Layer_1">
</g>
<g id="Layer_1_copy">
</g>
<g id="Layer_1_copy_2">
</g>
<g id="Layer_1_copy_3">
</g>
<g id="Layer_1_copy_4">
</g>
<g id="Layer_1_copy_5">
</g>
<g id="Layer_1_copy_11">
</g>
<g id="Layer_1_copy_10">
</g>
<g id="Layer_1_copy_9">
</g>
<g id="Layer_1_copy_8">
</g>
<g id="Layer_1_copy_7">
</g>
<g id="Layer_1_copy_6">
</g>
<g id="Layer_1_copy_17">
</g>
<g id="Layer_1_copy_16">
</g>
<g id="Layer_1_copy_15">
</g>
<g id="Layer_1_copy_14">
</g>
<g id="Layer_1_copy_13">
	<rect x="-1" y="-1" fill="#56E2FF" width="122" height="122"/>
	<g>
		<rect y="29.6699219" fill-rule="evenodd" clip-rule="evenodd" fill="none" width="113.2128906" height="83.3300781"/>
		<path fill="#FF56E6" d="M78.0625,70.9980469c2.2080078,1.4882813,3.7919922,2.5683594,4.7519531,3.2402344
			c1.7285156,1.2949219,2.5927734,2.53125,2.5927734,3.7070313c0,1.1777344-0.7197266,2.8203125-2.1601563,4.9316406
			c-1.4404297,2.1132813-2.9052734,3.1689453-4.3916016,3.1689453c-0.9121094,0-2.3046875-0.6484375-4.1757813-1.9443359
			c-0.2412109-0.1445313-0.9130859-0.5996094-2.0166016-1.3671875c-1.1044922-0.7675781-1.96875-1.34375-2.5917969-1.7285156
			c-4.4638672,3.4560547-9.4804688,5.1835938-15.0478516,5.1835938c-7.4414063,0-13.7167969-2.6386719-18.828125-7.9199219
			c-5.1123047-5.2792969-7.6679688-11.5664063-7.6679688-18.8632813c0-3.984375,0.7197266-7.7158203,2.1601563-11.1972656
			c1.4394531-3.4785156,3.359375-6.3945313,5.7597656-8.7470703c2.3994141-2.3515625,5.1591797-4.2001953,8.2792969-5.5439453
			S51.0625,31.9023438,54.375,31.9023438c7.1035156,0,13.2714844,2.5683594,18.5039063,7.703125
			c5.2314453,5.1367188,7.8476563,11.640625,7.8476563,19.5117188C80.7265625,63.1025391,79.8378906,67.0625,78.0625,70.9980469z
			 M41.2714844,59.0458984c0,4.2724609,1.3789063,7.7392578,4.1396484,10.4033203
			c2.7597656,2.6640625,5.8427734,3.9960938,9.2519531,3.9960938c3.4072266,0,6.4794922-1.2949219,9.2158203-3.8876953
			c2.7363281-2.5917969,4.1035156-6.0712891,4.1035156-10.4404297c0-4.3671875-1.3798828-7.8710938-4.1386719-10.5117188
			c-2.7617188-2.6386719-5.8457031-3.9599609-9.2529297-3.9599609c-3.4091797,0-6.4794922,1.3320313-9.2158203,3.9960938
			S41.2714844,54.7734375,41.2714844,59.0458984z"/>
	</g>
	<g>
		<rect x="4" y="30.6699219" fill-rule="evenodd" clip-rule="evenodd" fill="none" width="113.2128906" height="87.3300781"/>
		<path fill="none" stroke="#000000" stroke-width="4" stroke-miterlimit="10" d="M82.0625,71.9980469
			c2.2080078,1.4882813,3.7919922,2.5683594,4.7519531,3.2402344c1.7285156,1.2949219,2.5927734,2.53125,2.5927734,3.7070313
			c0,1.1777344-0.7197266,2.8203125-2.1601563,4.9316406c-1.4404297,2.1132813-2.9052734,3.1689453-4.3916016,3.1689453
			c-0.9121094,0-2.3046875-0.6484375-4.1757813-1.9443359c-0.2412109-0.1445313-0.9130859-0.5996094-2.0166016-1.3671875
			c-1.1044922-0.7675781-1.96875-1.34375-2.5917969-1.7285156c-4.4638672,3.4560547-9.4804688,5.1835938-15.0478516,5.1835938
			c-7.4414063,0-13.7167969-2.6386719-18.828125-7.9199219c-5.1123047-5.2792969-7.6679688-11.5664063-7.6679688-18.8632813
			c0-3.984375,0.7197266-7.7158203,2.1601563-11.1972656c1.4394531-3.4785156,3.359375-6.3945313,5.7597656-8.7470703
			c2.3994141-2.3515625,5.1591797-4.2001953,8.2792969-5.5439453S55.0625,32.9023438,58.375,32.9023438
			c7.1035156,0,13.2714844,2.5683594,18.5039063,7.703125c5.2314453,5.1367188,7.8476563,11.640625,7.8476563,19.5117188
			C84.7265625,64.1025391,83.8378906,68.0625,82.0625,71.9980469z M45.2714844,60.0458984
			c0,4.2724609,1.3789063,7.7392578,4.1396484,10.4033203c2.7597656,2.6640625,5.8427734,3.9960938,9.2519531,3.9960938
			c3.4072266,0,6.4794922-1.2949219,9.2158203-3.8876953c2.7363281-2.5917969,4.1035156-6.0712891,4.1035156-10.4404297
			c0-4.3671875-1.3798828-7.8710938-4.1386719-10.5117188c-2.7617188-2.6386719-5.8457031-3.9599609-9.2529297-3.9599609
			c-3.4091797,0-6.4794922,1.3320313-9.2158203,3.9960938S45.2714844,55.7734375,45.2714844,60.0458984z"/>
	</g>
</g>
<g id="Layer_1_copy_12">
</g>
<g id="Layer_1_copy_23">
</g>
<g id="Layer_1_copy_22">
</g>
<g id="Layer_1_copy_25">
</g>
<g id="Layer_1_copy_24">
</g>
<g id="Layer_1_copy_21">
</g>
<g id="Layer_1_copy_20">
</g>
<g id="Layer_1_copy_19">
</g>
<g id="Layer_1_copy_18">
</g>
</svg>
