<?xml version="1.0" encoding="utf-8"?>
<!-- Generator: Adobe Illustrator 16.0.0, SVG Export Plug-In . SVG Version: 6.00 Build 0)  -->
<!DOCTYPE svg PUBLIC "-//W3C//DTD SVG 1.1//EN" "http://www.w3.org/Graphics/SVG/1.1/DTD/svg11.dtd">
<svg version="1.1" xmlns="http://www.w3.org/2000/svg" xmlns:xlink="http://www.w3.org/1999/xlink" x="0px" y="0px" width="120px"
	 height="120px" viewBox="0 0 120 120" enable-background="new 0 0 120 120" xml:space="preserve">
<g id="Layer_1">
</g>
<g id="Layer_1_copy">
</g>
<g id="Layer_1_copy_2">
</g>
<g id="Layer_1_copy_3">
</g>
<g id="Layer_1_copy_4">
</g>
<g id="Layer_1_copy_5">
</g>
<g id="Layer_1_copy_11">
</g>
<g id="Layer_1_copy_10">
</g>
<g id="Layer_1_copy_9">
</g>
<g id="Layer_1_copy_8">
</g>
<g id="Layer_1_copy_7">
	<rect x="-1" y="-1" fill="#CBEFF7" width="122" height="122"/>
	<g>
		<rect y="29.6699219" fill-rule="evenodd" clip-rule="evenodd" fill="none" width="113.2128906" height="83.3300781"/>
		<path fill="#008CB2" d="M59.0898438,58.8300781c7.3447266,7.0556641,12.5527344,12.359375,15.625,15.9121094
			c1.5839844,1.7753906,2.375,3.2753906,2.375,4.5c0,1.2236328-0.9599609,2.6640625-2.8789063,4.3193359
			c-1.9208984,1.65625-3.4921875,2.484375-4.7167969,2.484375c-1.2236328,0-2.6992188-1.0087891-4.4277344-3.0244141
			L49.2265625,64.9492188v14.0410156c0,1.1513672-0.0361328,1.9921875-0.1074219,2.5195313
			c-0.0722656,0.5292969-0.3007813,1.1523438-0.6845703,1.8720703c-0.6728516,1.2958984-2.5449219,1.9443359-5.6162109,1.9443359
			c-3.3603516,0-5.328125-0.9121094-5.9042969-2.7363281c-0.2871094-0.7675781-0.4316406-1.9912109-0.4316406-3.671875V38.8857422
			c0-1.1035156,0.0361328-1.9316406,0.1074219-2.4833984c0.0722656-0.5517578,0.2998047-1.1884766,0.6845703-1.9082031
			c0.671875-1.296875,2.5439453-1.9443359,5.6162109-1.9443359c3.359375,0,5.3515625,0.8886719,5.9765625,2.6640625
			c0.2382813,0.8164063,0.359375,2.0634766,0.359375,3.7431641v13.7519531
			c6.5273438-7.34375,11.8085938-13.3671875,15.8398438-18.0712891c1.6796875-1.9677734,3.1435547-2.9521484,4.3925781-2.9521484
			c1.2470703,0,2.8310547,0.828125,4.7519531,2.484375c1.9189453,1.65625,2.8789063,3.0957031,2.8789063,4.3203125
			c0,1.2236328-0.71875,2.6757813-2.1591797,4.3554688C72.1464844,46.0625,67.8261719,50.4775391,61.9707031,56.09375
			L59.0898438,58.8300781z"/>
	</g>
	<g>
		<rect x="4" y="30.6699219" fill-rule="evenodd" clip-rule="evenodd" fill="none" width="113.2128906" height="87.3300781"/>
		<path fill="none" stroke="#000000" stroke-width="4" stroke-miterlimit="10" d="M63.0898438,59.8300781
			c7.3447266,7.0556641,12.5527344,12.359375,15.625,15.9121094c1.5839844,1.7753906,2.375,3.2753906,2.375,4.5
			c0,1.2236328-0.9599609,2.6640625-2.8789063,4.3193359c-1.9208984,1.65625-3.4921875,2.484375-4.7167969,2.484375
			c-1.2236328,0-2.6992188-1.0087891-4.4277344-3.0244141L53.2265625,65.9492188v14.0410156
			c0,1.1513672-0.0361328,1.9921875-0.1074219,2.5195313c-0.0722656,0.5292969-0.3007813,1.1523438-0.6845703,1.8720703
			c-0.6728516,1.2958984-2.5449219,1.9443359-5.6162109,1.9443359c-3.3603516,0-5.328125-0.9121094-5.9042969-2.7363281
			c-0.2871094-0.7675781-0.4316406-1.9912109-0.4316406-3.671875V39.8857422c0-1.1035156,0.0361328-1.9316406,0.1074219-2.4833984
			c0.0722656-0.5517578,0.2998047-1.1884766,0.6845703-1.9082031c0.671875-1.296875,2.5439453-1.9443359,5.6162109-1.9443359
			c3.359375,0,5.3515625,0.8886719,5.9765625,2.6640625c0.2382813,0.8164063,0.359375,2.0634766,0.359375,3.7431641v13.7519531
			c6.5273438-7.34375,11.8085938-13.3671875,15.8398438-18.0712891c1.6796875-1.9677734,3.1435547-2.9521484,4.3925781-2.9521484
			c1.2470703,0,2.8310547,0.828125,4.7519531,2.484375c1.9189453,1.65625,2.8789063,3.0957031,2.8789063,4.3203125
			c0,1.2236328-0.71875,2.6757813-2.1591797,4.3554688C76.1464844,47.0625,71.8261719,51.4775391,65.9707031,57.09375
			L63.0898438,59.8300781z"/>
	</g>
</g>
<g id="Layer_1_copy_6">
</g>
<g id="Layer_1_copy_17">
</g>
<g id="Layer_1_copy_16">
</g>
<g id="Layer_1_copy_15">
</g>
<g id="Layer_1_copy_14">
</g>
<g id="Layer_1_copy_13">
</g>
<g id="Layer_1_copy_12">
</g>
<g id="Layer_1_copy_23">
</g>
<g id="Layer_1_copy_22">
</g>
<g id="Layer_1_copy_25">
</g>
<g id="Layer_1_copy_24">
</g>
<g id="Layer_1_copy_21">
</g>
<g id="Layer_1_copy_20">
</g>
<g id="Layer_1_copy_19">
</g>
<g id="Layer_1_copy_18">
</g>
</svg>
