<?xml version="1.0" encoding="utf-8"?>
<!-- Generator: Adobe Illustrator 16.0.0, SVG Export Plug-In . SVG Version: 6.00 Build 0)  -->
<!DOCTYPE svg PUBLIC "-//W3C//DTD SVG 1.1//EN" "http://www.w3.org/Graphics/SVG/1.1/DTD/svg11.dtd">
<svg version="1.1" xmlns="http://www.w3.org/2000/svg" xmlns:xlink="http://www.w3.org/1999/xlink" x="0px" y="0px" width="120px"
	 height="120px" viewBox="0 0 120 120" enable-background="new 0 0 120 120" xml:space="preserve">
<g id="Layer_1">
</g>
<g id="Layer_1_copy">
</g>
<g id="Layer_1_copy_2">
</g>
<g id="Layer_1_copy_3">
</g>
<g id="Layer_1_copy_4">
</g>
<g id="Layer_1_copy_5">
</g>
<g id="Layer_1_copy_11">
</g>
<g id="Layer_1_copy_10">
</g>
<g id="Layer_1_copy_9">
</g>
<g id="Layer_1_copy_8">
</g>
<g id="Layer_1_copy_7">
</g>
<g id="Layer_1_copy_6">
</g>
<g id="Layer_1_copy_17">
	<rect x="-0.9995117" y="-1" fill="#125BFF" width="121.9995117" height="122"/>
	<g>
		<rect y="29.6699219" fill-rule="evenodd" clip-rule="evenodd" fill="none" width="113.2128906" height="83.3300781"/>
		<path fill="#FF94F0" d="M84.2539063,34.5664063c0.3847656,0.71875,0.6132813,1.3671875,0.6845703,1.9433594
			c0.0722656,0.5761719,0.1083984,1.4160156,0.1083984,2.5195313v39.9609375c0,3.3115234-0.9121094,5.2558594-2.7363281,5.8320313
			c-0.9121094,0.2871094-2.0644531,0.4316406-3.4560547,0.4316406c-1.3925781,0-2.4960938-0.1191406-3.3115234-0.3603516
			c-0.8164063-0.2392578-1.4404297-0.5273438-1.8730469-0.8642578c-0.4316406-0.3349609-0.7675781-0.8154297-1.0078125-1.4394531
			c-0.2402344-0.8164063-0.359375-2.0634766-0.359375-3.7441406V54.7255859
			c-1.2011719,1.4882813-2.9521484,3.8525391-5.2558594,7.0927734c-2.3046875,3.2392578-3.7695313,5.2675781-4.3925781,6.0839844
			c-0.6240234,0.8164063-1.0566406,1.3798828-1.2958984,1.6914063c-0.2412109,0.3125-0.8276367,0.7441406-1.7636719,1.2958984
			s-1.9443359,0.828125-3.0239258,0.828125c-1.0800781,0-2.0644531-0.2519531-2.9521484-0.7558594
			c-0.8886719-0.5048828-1.5244141-0.9960938-1.9082031-1.4755859l-0.5756836-0.7929688
			c-0.9609375-1.1992188-2.8564453-3.7548828-5.6879883-7.6679688c-2.8330078-3.9111328-4.3686523-6.0117188-4.6083984-6.2998047
			v24.2646484c0,1.1035156-0.0356445,1.9316406-0.1079102,2.4833984c-0.0717773,0.5517578-0.300293,1.1650391-0.684082,1.8359375
			c-0.7197266,1.2958984-2.5917969,1.9443359-5.6157227,1.9443359c-2.9282227,0-4.7519531-0.6484375-5.472168-1.9443359
			c-0.3847656-0.6708984-0.6118164-1.2958984-0.684082-1.8720703c-0.0717773-0.5761719-0.1079102-1.4394531-0.1079102-2.5917969
			V38.8857422c0-1.1035156,0.0361328-1.9316406,0.1079102-2.4833984c0.0722656-0.5517578,0.2993164-1.1884766,0.684082-1.9082031
			c0.7202148-1.2480469,2.5922852-1.8730469,5.6162109-1.8730469c1.2958984,0,2.4121094,0.15625,3.3481445,0.46875
			c0.9355469,0.3125,1.5478516,0.6367188,1.8359375,0.9716797l0.4316406,0.4326172L56.534668,55.9492188
			c8.159668-10.7988281,13.6079102-17.9277344,16.3442383-21.3828125c0.8154297-1.296875,2.7470703-1.9453125,5.7958984-1.9453125
			C81.7226563,32.6210938,83.5820313,33.2695313,84.2539063,34.5664063z"/>
	</g>
	<g>
		<rect x="4" y="30.6699219" fill-rule="evenodd" clip-rule="evenodd" fill="none" width="113.2128906" height="87.3300781"/>
		<path fill="none" stroke="#000000" stroke-width="4" stroke-miterlimit="10" d="M88.2539063,35.5664063
			c0.3847656,0.71875,0.6132813,1.3671875,0.6845703,1.9433594c0.0722656,0.5761719,0.1083984,1.4160156,0.1083984,2.5195313
			v39.9609375c0,3.3115234-0.9121094,5.2558594-2.7363281,5.8320313c-0.9121094,0.2871094-2.0644531,0.4316406-3.4560547,0.4316406
			c-1.3925781,0-2.4960938-0.1191406-3.3115234-0.3603516c-0.8164063-0.2392578-1.4404297-0.5273438-1.8730469-0.8642578
			c-0.4316406-0.3349609-0.7675781-0.8154297-1.0078125-1.4394531c-0.2402344-0.8164063-0.359375-2.0634766-0.359375-3.7441406
			V55.7255859c-1.2011719,1.4882813-2.9521484,3.8525391-5.2558594,7.0927734
			c-2.3046875,3.2392578-3.7695313,5.2675781-4.3925781,6.0839844c-0.6240234,0.8164063-1.0566406,1.3798828-1.2958984,1.6914063
			c-0.2412109,0.3125-0.8271484,0.7441406-1.7636719,1.2958984s-1.9443359,0.828125-3.0239258,0.828125
			c-1.0800781,0-2.0644531-0.2519531-2.9521484-0.7558594c-0.8886719-0.5048828-1.5244141-0.9960938-1.9082031-1.4755859
			l-0.5756836-0.7929688c-0.9609375-1.1992188-2.8564453-3.7548828-5.6879883-7.6679688
			c-2.8330078-3.9111328-4.3686523-6.0117188-4.6083984-6.2998047v24.2646484c0,1.1035156-0.0356445,1.9316406-0.1079102,2.4833984
			c-0.0717773,0.5517578-0.300293,1.1650391-0.684082,1.8359375c-0.7197266,1.2958984-2.5917969,1.9443359-5.6157227,1.9443359
			c-2.9282227,0-4.7519531-0.6484375-5.472168-1.9443359c-0.3847656-0.6708984-0.6118164-1.2958984-0.684082-1.8720703
			c-0.0717773-0.5761719-0.1079102-1.4394531-0.1079102-2.5917969V39.8857422c0-1.1035156,0.0361328-1.9316406,0.1079102-2.4833984
			c0.0722656-0.5517578,0.2993164-1.1884766,0.684082-1.9082031c0.7202148-1.2480469,2.5922852-1.8730469,5.6162109-1.8730469
			c1.2958984,0,2.4121094,0.15625,3.3481445,0.46875c0.9355469,0.3125,1.5478516,0.6367188,1.8359375,0.9716797l0.4316406,0.4326172
			L60.534668,56.9492188c8.159668-10.7988281,13.6079102-17.9277344,16.3442383-21.3828125
			c0.8154297-1.296875,2.7470703-1.9453125,5.7958984-1.9453125C85.7226563,33.6210938,87.5820313,34.2695313,88.2539063,35.5664063
			z"/>
	</g>
</g>
<g id="Layer_1_copy_16">
</g>
<g id="Layer_1_copy_15">
</g>
<g id="Layer_1_copy_14">
</g>
<g id="Layer_1_copy_13">
</g>
<g id="Layer_1_copy_12">
</g>
<g id="Layer_1_copy_23">
</g>
<g id="Layer_1_copy_22">
</g>
<g id="Layer_1_copy_25">
</g>
<g id="Layer_1_copy_24">
</g>
<g id="Layer_1_copy_21">
</g>
<g id="Layer_1_copy_20">
</g>
<g id="Layer_1_copy_19">
</g>
<g id="Layer_1_copy_18">
</g>
</svg>
