<?xml version="1.0" encoding="utf-8"?>
<!-- Generator: Adobe Illustrator 16.0.0, SVG Export Plug-In . SVG Version: 6.00 Build 0)  -->
<!DOCTYPE svg PUBLIC "-//W3C//DTD SVG 1.1//EN" "http://www.w3.org/Graphics/SVG/1.1/DTD/svg11.dtd">
<svg version="1.1" xmlns="http://www.w3.org/2000/svg" xmlns:xlink="http://www.w3.org/1999/xlink" x="0px" y="0px" width="120px"
	 height="120px" viewBox="0 0 120 120" enable-background="new 0 0 120 120" xml:space="preserve">
<g id="Layer_1">
</g>
<g id="Layer_1_copy">
</g>
<g id="Layer_1_copy_2">
</g>
<g id="Layer_1_copy_3">
</g>
<g id="Layer_1_copy_4">
</g>
<g id="Layer_1_copy_5">
</g>
<g id="Layer_1_copy_11">
</g>
<g id="Layer_1_copy_10">
</g>
<g id="Layer_1_copy_9">
</g>
<g id="Layer_1_copy_8">
</g>
<g id="Layer_1_copy_7">
</g>
<g id="Layer_1_copy_6">
</g>
<g id="Layer_1_copy_17">
</g>
<g id="Layer_1_copy_16">
</g>
<g id="Layer_1_copy_15">
</g>
<g id="Layer_1_copy_14">
</g>
<g id="Layer_1_copy_13">
</g>
<g id="Layer_1_copy_12">
</g>
<g id="Layer_1_copy_23">
</g>
<g id="Layer_1_copy_22">
	<rect x="-1" y="-1" fill="#4A80BC" width="122" height="122"/>
	<g>
		<rect y="29.6699219" fill-rule="evenodd" clip-rule="evenodd" fill="none" width="113.2128906" height="83.3300781"/>
		<path fill="#FF009E" d="M36.6269531,32.4775391h40.0322266c1.5361328,0,2.6640625,0.1806641,3.3837891,0.5400391
			c0.7207031,0.359375,1.1992188,0.9248047,1.4394531,1.6914063c0.2402344,0.7695313,0.3603516,1.7773438,0.3603516,3.0253906
			s-0.1201172,2.2441406-0.3603516,2.9873047c-0.2402344,0.7451172-0.6474609,1.2597656-1.2236328,1.5478516
			c-0.8642578,0.4316406-2.0878906,0.6484375-3.671875,0.6484375H62.8349609v36.2158203
			c0,1.1044922-0.0361328,1.9208984-0.1083984,2.4482422c-0.0722656,0.5283203-0.2871094,1.140625-0.6474609,1.8359375
			c-0.3603516,0.6962891-0.9970703,1.1875-1.9082031,1.4755859c-0.9121094,0.2880859-2.1123047,0.4326172-3.6005859,0.4326172
			s-2.6757813-0.1445313-3.5634766-0.4326172c-0.8886719-0.2880859-1.5117188-0.7792969-1.8720703-1.4755859
			c-0.359375-0.6953125-0.5761719-1.3203125-0.6484375-1.8720703c-0.0712891-0.5517578-0.1074219-1.3798828-0.1074219-2.484375
			V42.9179688H36.5546875c-1.5371094,0-2.6640625-0.1796875-3.3837891-0.5410156
			c-0.7197266-0.359375-1.2001953-0.9228516-1.4404297-1.6914063c-0.2402344-0.7675781-0.359375-1.7753906-0.359375-3.0234375
			s0.1191406-2.2441406,0.359375-2.9882813s0.6484375-1.2597656,1.2246094-1.5488281
			C33.8183594,32.6933594,35.0429688,32.4775391,36.6269531,32.4775391z"/>
	</g>
	<g>
		<rect x="4" y="30.6699219" fill-rule="evenodd" clip-rule="evenodd" fill="none" width="113.2128906" height="87.3300781"/>
		<path fill="none" stroke="#000000" stroke-width="4" stroke-miterlimit="10" d="M40.6269531,33.4775391h40.0322266
			c1.5361328,0,2.6640625,0.1806641,3.3837891,0.5400391c0.7207031,0.359375,1.1992188,0.9248047,1.4394531,1.6914063
			c0.2402344,0.7695313,0.3603516,1.7773438,0.3603516,3.0253906s-0.1201172,2.2441406-0.3603516,2.9873047
			c-0.2402344,0.7451172-0.6474609,1.2597656-1.2236328,1.5478516c-0.8642578,0.4316406-2.0878906,0.6484375-3.671875,0.6484375
			H66.8349609v36.2158203c0,1.1044922-0.0361328,1.9208984-0.1083984,2.4482422
			c-0.0722656,0.5283203-0.2871094,1.140625-0.6474609,1.8359375c-0.3603516,0.6962891-0.9970703,1.1875-1.9082031,1.4755859
			c-0.9121094,0.2880859-2.1123047,0.4326172-3.6005859,0.4326172s-2.6757813-0.1445313-3.5634766-0.4326172
			c-0.8886719-0.2880859-1.5117188-0.7792969-1.8720703-1.4755859c-0.359375-0.6953125-0.5761719-1.3203125-0.6484375-1.8720703
			c-0.0712891-0.5517578-0.1074219-1.3798828-0.1074219-2.484375V43.9179688H40.5546875
			c-1.5371094,0-2.6640625-0.1796875-3.3837891-0.5410156c-0.7197266-0.359375-1.2001953-0.9228516-1.4404297-1.6914063
			c-0.2402344-0.7675781-0.359375-1.7753906-0.359375-3.0234375s0.1191406-2.2441406,0.359375-2.9882813
			s0.6484375-1.2597656,1.2246094-1.5488281C37.8183594,33.6933594,39.0429688,33.4775391,40.6269531,33.4775391z"/>
	</g>
</g>
<g id="Layer_1_copy_25">
</g>
<g id="Layer_1_copy_24">
</g>
<g id="Layer_1_copy_21">
</g>
<g id="Layer_1_copy_20">
</g>
<g id="Layer_1_copy_19">
</g>
<g id="Layer_1_copy_18">
</g>
</svg>
