<?xml version="1.0" encoding="utf-8"?>
<!-- Generator: Adobe Illustrator 16.0.0, SVG Export Plug-In . SVG Version: 6.00 Build 0)  -->
<!DOCTYPE svg PUBLIC "-//W3C//DTD SVG 1.1//EN" "http://www.w3.org/Graphics/SVG/1.1/DTD/svg11.dtd">
<svg version="1.1" xmlns="http://www.w3.org/2000/svg" xmlns:xlink="http://www.w3.org/1999/xlink" x="0px" y="0px" width="120px"
	 height="120px" viewBox="0 0 120 120" enable-background="new 0 0 120 120" xml:space="preserve">
<g id="Layer_1">
</g>
<g id="Layer_1_copy">
</g>
<g id="Layer_1_copy_2">
</g>
<g id="Layer_1_copy_3">
</g>
<g id="Layer_1_copy_4">
</g>
<g id="Layer_1_copy_5">
</g>
<g id="Layer_1_copy_11">
</g>
<g id="Layer_1_copy_10">
</g>
<g id="Layer_1_copy_9">
	<rect x="-1" y="-1" fill="#56E2FF" width="122" height="122"/>
	<g>
		<rect y="29.6699219" fill-rule="evenodd" clip-rule="evenodd" fill="none" width="113.2128906" height="83.3300781"/>
		<path fill="#FF56E6" d="M50.234375,38.8857422c0-1.1035156,0.0371094-1.9316406,0.1083984-2.4833984
			c0.0722656-0.5517578,0.2998047-1.1884766,0.6845703-1.9082031c0.671875-1.296875,2.5429688-1.9443359,5.6152344-1.9443359
			c3.359375,0,5.3515625,0.8886719,5.9765625,2.6640625c0.2392578,0.8164063,0.359375,2.0634766,0.359375,3.7431641v40.0332031
			c0,1.1513672-0.0351563,1.9921875-0.1074219,2.5195313c-0.0722656,0.5292969-0.3007813,1.1523438-0.6835938,1.8720703
			c-0.6738281,1.2958984-2.5449219,1.9443359-5.6171875,1.9443359c-3.359375,0-5.3271484-0.9121094-5.9033203-2.7363281
			c-0.2880859-0.7675781-0.4326172-1.9912109-0.4326172-3.671875V38.8857422z"/>
	</g>
	<g>
		<rect x="4" y="30.6699219" fill-rule="evenodd" clip-rule="evenodd" fill="none" width="113.2128906" height="87.3300781"/>
		<path fill="none" stroke="#000000" stroke-width="4" stroke-miterlimit="10" d="M54.234375,39.8857422
			c0-1.1035156,0.0371094-1.9316406,0.1083984-2.4833984c0.0722656-0.5517578,0.2998047-1.1884766,0.6845703-1.9082031
			c0.671875-1.296875,2.5429688-1.9443359,5.6152344-1.9443359c3.359375,0,5.3515625,0.8886719,5.9765625,2.6640625
			c0.2392578,0.8164063,0.359375,2.0634766,0.359375,3.7431641v40.0332031c0,1.1513672-0.0351563,1.9921875-0.1074219,2.5195313
			c-0.0722656,0.5292969-0.3007813,1.1523438-0.6835938,1.8720703c-0.6738281,1.2958984-2.5449219,1.9443359-5.6171875,1.9443359
			c-3.359375,0-5.3271484-0.9121094-5.9033203-2.7363281c-0.2880859-0.7675781-0.4326172-1.9912109-0.4326172-3.671875V39.8857422z"
			/>
	</g>
</g>
<g id="Layer_1_copy_8">
</g>
<g id="Layer_1_copy_7">
</g>
<g id="Layer_1_copy_6">
</g>
<g id="Layer_1_copy_17">
</g>
<g id="Layer_1_copy_16">
</g>
<g id="Layer_1_copy_15">
</g>
<g id="Layer_1_copy_14">
</g>
<g id="Layer_1_copy_13">
</g>
<g id="Layer_1_copy_12">
</g>
<g id="Layer_1_copy_23">
</g>
<g id="Layer_1_copy_22">
</g>
<g id="Layer_1_copy_25">
</g>
<g id="Layer_1_copy_24">
</g>
<g id="Layer_1_copy_21">
</g>
<g id="Layer_1_copy_20">
</g>
<g id="Layer_1_copy_19">
</g>
<g id="Layer_1_copy_18">
</g>
</svg>
