<?xml version="1.0" encoding="utf-8"?>
<!-- Generator: Adobe Illustrator 16.0.0, SVG Export Plug-In . SVG Version: 6.00 Build 0)  -->
<!DOCTYPE svg PUBLIC "-//W3C//DTD SVG 1.1//EN" "http://www.w3.org/Graphics/SVG/1.1/DTD/svg11.dtd">
<svg version="1.1" xmlns="http://www.w3.org/2000/svg" xmlns:xlink="http://www.w3.org/1999/xlink" x="0px" y="0px" width="120px"
	 height="120px" viewBox="0 0 120 120" enable-background="new 0 0 120 120" xml:space="preserve">
<g id="Layer_1">
	<rect x="-0.9995117" y="-0.9995117" fill="#22EFD6" width="121.9995117" height="121.9995117"/>
	<g>
		<rect y="29.6699219" fill-rule="evenodd" clip-rule="evenodd" fill="none" width="113.2128906" height="83.3300781"/>
		<path fill="#5097FF" d="M62.4023438,36.293457l19.4394531,40.1762695c0.8164063,1.6318359,1.2246094,2.8564453,1.2246094,3.671875
			c0,1.7275391-1.3925781,3.2880859-4.1757813,4.6806641c-1.6328125,0.8144531-2.9160156,1.2236328-3.8515625,1.2236328
			c-0.9365234,0-1.7050781-0.2158203-2.3046875-0.6484375c-0.6005859-0.4316406-1.0332031-0.8876953-1.2958984-1.3681641
			c-0.2646484-0.4785156-0.6367188-1.1992188-1.1162109-2.1601563L66.578125,74.09375H46.6342773l-3.7436523,7.7753906
			c-0.4804688,0.9609375-0.8530273,1.65625-1.1162109,2.0878906c-0.2641602,0.4326172-0.6962891,0.8769531-1.2958984,1.3320313
			c-0.6010742,0.4560547-1.3681641,0.6845703-2.3041992,0.6845703S35.9536133,85.5654297,34.3222656,84.75
			c-2.7841797-1.34375-4.1757813-2.8808594-4.1757813-4.6083984c0-0.8154297,0.4072266-2.0400391,1.2241211-3.671875
			l19.4399414-40.2480469c0.5273438-1.1035156,1.3320313-1.9912109,2.4116211-2.6640625
			c1.0800781-0.6713867,2.2197266-1.0078125,3.4204102-1.0078125C59.234375,32.5498047,61.1542969,33.7983398,62.4023438,36.293457z
			 M56.5703125,53.5737305L51.8183594,63.4375h9.5761719L56.5703125,53.5737305z"/>
	</g>
	<g>
		<rect x="4" y="30.6699219" fill-rule="evenodd" clip-rule="evenodd" fill="none" width="113.2128906" height="87.3300781"/>
		<path fill="none" stroke="#000000" stroke-width="4" stroke-miterlimit="10" d="M66.4023438,37.293457l19.4394531,40.1762695
			c0.8164063,1.6318359,1.2246094,2.8564453,1.2246094,3.671875c0,1.7275391-1.3925781,3.2880859-4.1757813,4.6806641
			c-1.6328125,0.8144531-2.9160156,1.2236328-3.8515625,1.2236328c-0.9365234,0-1.7050781-0.2158203-2.3046875-0.6484375
			c-0.6005859-0.4316406-1.0332031-0.8876953-1.2958984-1.3681641c-0.2646484-0.4785156-0.6367188-1.1992188-1.1162109-2.1601563
			L70.578125,75.09375H50.6342773l-3.7436523,7.7753906c-0.4804688,0.9609375-0.8530273,1.65625-1.1162109,2.0878906
			c-0.2641602,0.4326172-0.6962891,0.8769531-1.2958984,1.3320313c-0.6010742,0.4560547-1.3681641,0.6845703-2.3041992,0.6845703
			S39.9536133,86.5654297,38.3222656,85.75c-2.7841797-1.34375-4.1757813-2.8808594-4.1757813-4.6083984
			c0-0.8154297,0.4072266-2.0400391,1.2241211-3.671875l19.4399414-40.2480469
			c0.5273438-1.1035156,1.3320313-1.9912109,2.4116211-2.6640625c1.0800781-0.6713867,2.2197266-1.0078125,3.4204102-1.0078125
			C63.234375,33.5498047,65.1542969,34.7983398,66.4023438,37.293457z M60.5703125,54.5737305L55.8183594,64.4375h9.5761719
			L60.5703125,54.5737305z"/>
	</g>
</g>
<g id="Layer_1_copy">
</g>
<g id="Layer_1_copy_2">
</g>
<g id="Layer_1_copy_3">
</g>
<g id="Layer_1_copy_4">
</g>
<g id="Layer_1_copy_5">
</g>
<g id="Layer_1_copy_11">
</g>
<g id="Layer_1_copy_10">
</g>
<g id="Layer_1_copy_9">
</g>
<g id="Layer_1_copy_8">
</g>
<g id="Layer_1_copy_7">
</g>
<g id="Layer_1_copy_6">
</g>
<g id="Layer_1_copy_17">
</g>
<g id="Layer_1_copy_16">
</g>
<g id="Layer_1_copy_15">
</g>
<g id="Layer_1_copy_14">
</g>
<g id="Layer_1_copy_13">
</g>
<g id="Layer_1_copy_12">
</g>
<g id="Layer_1_copy_23">
</g>
<g id="Layer_1_copy_22">
</g>
<g id="Layer_1_copy_25">
</g>
<g id="Layer_1_copy_24">
</g>
<g id="Layer_1_copy_21">
</g>
<g id="Layer_1_copy_20">
</g>
<g id="Layer_1_copy_19">
</g>
<g id="Layer_1_copy_18">
</g>
</svg>
