<?xml version="1.0" encoding="utf-8"?>
<!-- Generator: Adobe Illustrator 16.0.0, SVG Export Plug-In . SVG Version: 6.00 Build 0)  -->
<!DOCTYPE svg PUBLIC "-//W3C//DTD SVG 1.1//EN" "http://www.w3.org/Graphics/SVG/1.1/DTD/svg11.dtd">
<svg version="1.1" xmlns="http://www.w3.org/2000/svg" xmlns:xlink="http://www.w3.org/1999/xlink" x="0px" y="0px" width="120px"
	 height="120px" viewBox="0 0 120 120" enable-background="new 0 0 120 120" xml:space="preserve">
<g id="Layer_1">
</g>
<g id="Layer_1_copy">
</g>
<g id="Layer_1_copy_2">
</g>
<g id="Layer_1_copy_3">
</g>
<g id="Layer_1_copy_4">
</g>
<g id="Layer_1_copy_5">
</g>
<g id="Layer_1_copy_11">
</g>
<g id="Layer_1_copy_10">
</g>
<g id="Layer_1_copy_9">
</g>
<g id="Layer_1_copy_8">
</g>
<g id="Layer_1_copy_7">
</g>
<g id="Layer_1_copy_6">
</g>
<g id="Layer_1_copy_17">
</g>
<g id="Layer_1_copy_16">
</g>
<g id="Layer_1_copy_15">
</g>
<g id="Layer_1_copy_14">
</g>
<g id="Layer_1_copy_13">
</g>
<g id="Layer_1_copy_12">
</g>
<g id="Layer_1_copy_23">
</g>
<g id="Layer_1_copy_22">
</g>
<g id="Layer_1_copy_25">
</g>
<g id="Layer_1_copy_24">
</g>
<g id="Layer_1_copy_21">
	<rect x="-1" y="-1" fill="#B9CBED" width="122" height="122"/>
	<g>
		<rect y="29.6699219" fill-rule="evenodd" clip-rule="evenodd" fill="none" width="113.2128906" height="83.3300781"/>
		<path fill="#6678E2" d="M67.8388672,34.4941406c0.4794922-0.7675781,1.1748047-1.296875,2.0878906-1.5839844
			c0.9111328-0.2890625,2.0517578-0.4326172,3.4199219-0.4326172s2.4599609,0.1201172,3.2763672,0.3603516
			c0.8154297,0.2402344,1.4394531,0.5283203,1.8710938,0.8632813c0.4326172,0.3369141,0.7441406,0.8408203,0.9365234,1.5126953
			c0.2880859,0.8164063,0.4326172,2.0634766,0.4326172,3.7431641v21.7441406c0,6.3359375-1.96875,12.0966797-5.9042969,17.2802734
			c-1.9208984,2.4482422-4.3925781,4.4287109-7.4160156,5.9404297c-3.0244141,1.5117188-6.3720703,2.2675781-10.0449219,2.2675781
			c-3.671875,0-7.0078125-0.7675781-10.0078125-2.3037109s-5.4355469-3.5517578-7.3076172-6.0478516
			C35.2949219,72.75,33.3505859,66.9902344,33.3505859,60.5576172v-21.671875c0-1.1513672,0.0361328-2.0039063,0.1083984-2.5556641
			s0.2988281-1.1884766,0.6835938-1.9082031c0.3837891-0.7207031,1.03125-1.2246094,1.9443359-1.5117188
			c0.9111328-0.2890625,2.1357422-0.4326172,3.671875-0.4326172s2.7597656,0.1435547,3.671875,0.4326172
			c0.9111328,0.2871094,1.5361328,0.7910156,1.8720703,1.5117188c0.5761719,1.1044922,0.8632813,2.6171875,0.8632813,4.5351563
			v21.6005859c0,2.9287109,0.7207031,5.7128906,2.1601563,8.3525391c0.7207031,1.34375,1.8007813,2.4238281,3.2402344,3.2402344
			c1.4404297,0.8164063,3.1435547,1.2226563,5.1123047,1.2226563c3.5029297,0,6.1201172-1.2949219,7.8486328-3.8867188
			c1.7275391-2.5927734,2.5917969-5.5917969,2.5917969-9V38.453125
			C67.1191406,36.5820313,67.3583984,35.2617188,67.8388672,34.4941406z"/>
	</g>
	<g>
		<rect x="4" y="30.6699219" fill-rule="evenodd" clip-rule="evenodd" fill="none" width="113.2128906" height="87.3300781"/>
		<path fill="none" stroke="#000000" stroke-width="4" stroke-miterlimit="10" d="M71.8388672,35.4941406
			c0.4794922-0.7675781,1.1748047-1.296875,2.0878906-1.5839844c0.9111328-0.2890625,2.0517578-0.4326172,3.4199219-0.4326172
			s2.4599609,0.1201172,3.2763672,0.3603516c0.8154297,0.2402344,1.4394531,0.5283203,1.8710938,0.8632813
			c0.4326172,0.3369141,0.7441406,0.8408203,0.9365234,1.5126953c0.2880859,0.8164063,0.4326172,2.0634766,0.4326172,3.7431641
			v21.7441406c0,6.3359375-1.96875,12.0966797-5.9042969,17.2802734c-1.9208984,2.4482422-4.3925781,4.4287109-7.4160156,5.9404297
			c-3.0244141,1.5117188-6.3720703,2.2675781-10.0449219,2.2675781c-3.671875,0-7.0078125-0.7675781-10.0078125-2.3037109
			s-5.4355469-3.5517578-7.3076172-6.0478516C39.2949219,73.75,37.3505859,67.9902344,37.3505859,61.5576172v-21.671875
			c0-1.1513672,0.0361328-2.0039063,0.1083984-2.5556641s0.2988281-1.1884766,0.6835938-1.9082031
			c0.3837891-0.7207031,1.03125-1.2246094,1.9443359-1.5117188c0.9111328-0.2890625,2.1357422-0.4326172,3.671875-0.4326172
			s2.7597656,0.1435547,3.671875,0.4326172c0.9111328,0.2871094,1.5361328,0.7910156,1.8720703,1.5117188
			c0.5761719,1.1044922,0.8632813,2.6171875,0.8632813,4.5351563v21.6005859c0,2.9287109,0.7207031,5.7128906,2.1601563,8.3525391
			c0.7207031,1.34375,1.8007813,2.4238281,3.2402344,3.2402344c1.4404297,0.8164063,3.1435547,1.2226563,5.1123047,1.2226563
			c3.5029297,0,6.1201172-1.2949219,7.8486328-3.8867188c1.7275391-2.5927734,2.5917969-5.5917969,2.5917969-9V39.453125
			C71.1191406,37.5820313,71.3583984,36.2617188,71.8388672,35.4941406z"/>
	</g>
</g>
<g id="Layer_1_copy_20">
</g>
<g id="Layer_1_copy_19">
</g>
<g id="Layer_1_copy_18">
</g>
</svg>
