<?xml version="1.0" encoding="utf-8"?>
<!-- Generator: Adobe Illustrator 16.0.0, SVG Export Plug-In . SVG Version: 6.00 Build 0)  -->
<!DOCTYPE svg PUBLIC "-//W3C//DTD SVG 1.1//EN" "http://www.w3.org/Graphics/SVG/1.1/DTD/svg11.dtd">
<svg version="1.1" id="Layer_1" xmlns="http://www.w3.org/2000/svg" xmlns:xlink="http://www.w3.org/1999/xlink" x="0px" y="0px"
	 width="66px" height="66px" viewBox="0 0 66 66" enable-background="new 0 0 66 66" xml:space="preserve">
<g>
	<rect x="8.8671875" y="18.2949219" fill="none" width="48.2333984" height="28.7978516"/>
	<path fill="#FFFFFF" d="M35.8818359,21.6064453l9.7197266,20.0878906c0.4082031,0.8164063,0.6123047,1.4287109,0.6123047,1.8369141
		c0,0.8632813-0.6962891,1.6435547-2.0878906,2.3398438c-0.8164063,0.4072266-1.4580078,0.6113281-1.9267578,0.6113281
		c-0.4667969,0-0.8515625-0.1074219-1.1513672-0.3242188c-0.2998047-0.2158203-0.5166016-0.4433594-0.6474609-0.6835938
		c-0.1328125-0.2402344-0.3183594-0.5996094-0.5585938-1.0800781l-1.8720703-3.8886719h-9.9716797l-1.8720703,3.8886719
		c-0.2402344,0.4804688-0.4262695,0.828125-0.5581055,1.0439453c-0.1323242,0.2158203-0.3481445,0.4384766-0.6479492,0.6660156
		c-0.300293,0.2275391-0.684082,0.3427734-1.1518555,0.3427734c-0.4682617,0-1.1103516-0.2050781-1.9262695-0.6132813
		c-1.3920898-0.6708984-2.0878906-1.4394531-2.0878906-2.3027344c0-0.4082031,0.2036133-1.0205078,0.6118164-1.8369141
		l9.7202148-20.1235352c0.2636719-0.5522461,0.6660156-0.9960938,1.2060547-1.3320313s1.1098633-0.5043945,1.7099609-0.5043945
		C34.2978516,19.734375,35.2578125,20.3588867,35.8818359,21.6064453z M32.9658203,30.246582l-2.3759766,4.9321289h4.7880859
		L32.9658203,30.246582z"/>
</g>
</svg>
