<?xml version="1.0" encoding="utf-8"?>
<!-- Generator: Adobe Illustrator 16.0.0, SVG Export Plug-In . SVG Version: 6.00 Build 0)  -->
<!DOCTYPE svg PUBLIC "-//W3C//DTD SVG 1.1//EN" "http://www.w3.org/Graphics/SVG/1.1/DTD/svg11.dtd">
<svg version="1.1" id="Layer_1" xmlns="http://www.w3.org/2000/svg" xmlns:xlink="http://www.w3.org/1999/xlink" x="0px" y="0px"
	 width="66px" height="66px" viewBox="0 0 66 66" enable-background="new 0 0 66 66" xml:space="preserve">
<g>
	<rect x="8.8671875" y="18.2949219" fill="none" width="48.2333984" height="28.7978516"/>
	<path fill="#FFFFFF" d="M41.5878906,31.9746094c1.4160156,1.6801758,2.1240234,3.5644531,2.1240234,5.6523438
		c-0.0478516,2.4003906-0.8701172,4.4101563-2.4658203,6.0292969c-1.5966797,1.6201172-3.5341797,2.4296875-5.8144531,2.4296875
		h-9.4677734c-1.6801758,0-2.6640625-0.4550781-2.9521484-1.3671875c-0.1435547-0.4082031-0.2158203-1.03125-0.2158203-1.8720703
		V22.8666992c0-0.5761719,0.0180664-0.9956055,0.0541992-1.2602539c0.0356445-0.2636719,0.1494141-0.5756836,0.3417969-0.9360352
		C23.527832,20.0224609,24.4638672,19.6987305,26,19.6987305h9.0722656c2.2070313,0,4.0546875,0.7680664,5.5429688,2.3037109
		c1.5605469,1.5605469,2.3408203,3.4326172,2.3408203,5.6162109C42.9560547,29.2026367,42.5,30.6547852,41.5878906,31.9746094z
		 M37.3398438,37.2666016c0-0.5761719-0.0664063-1.0322266-0.1972656-1.3681641
		c-0.1328125-0.3359375-0.3554688-0.5761719-0.6660156-0.7197266c-0.4804688-0.1923828-1.1523438-0.2880859-2.0166016-0.2880859
		c-0.8637695,0-1.512207-0.1679688-1.9438477-0.5039063c-0.4321289-0.3359375-0.6479492-1.0263672-0.6479492-2.0703125
		s0.2211914-1.7333984,0.6660156-2.0698242c0.4433594-0.3359375,1.1816406-0.5039063,2.2138672-0.5039063
		c0.9589844,0,1.5351563-0.2519531,1.7285156-0.7563477c0.0712891-0.2636719,0.1074219-0.6958008,0.1074219-1.2958984
		c0-0.5996094-0.1982422-1.0195313-0.59375-1.2597656C35.59375,26.190918,35,26.0708008,34.2080078,26.0708008h-5.0400391v13.644043
		h5.9042969C36.5839844,39.7148438,37.3398438,38.8984375,37.3398438,37.2666016z"/>
</g>
</svg>
