<?xml version="1.0" encoding="utf-8"?>
<!-- Generator: Adobe Illustrator 16.0.0, SVG Export Plug-In . SVG Version: 6.00 Build 0)  -->
<!DOCTYPE svg PUBLIC "-//W3C//DTD SVG 1.1//EN" "http://www.w3.org/Graphics/SVG/1.1/DTD/svg11.dtd">
<svg version="1.1" id="Layer_1" xmlns="http://www.w3.org/2000/svg" xmlns:xlink="http://www.w3.org/1999/xlink" x="0px" y="0px"
	 width="66px" height="66px" viewBox="0 0 66 66" enable-background="new 0 0 66 66" xml:space="preserve">
<g>
	<rect x="8.8671875" y="18.2949219" fill="none" width="48.2333984" height="28.7978516"/>
	<path fill="#FFFFFF" d="M38.6904297,39.2109375l0.6474609-0.46875c0.8164063-0.4794922,1.3925781-0.7197266,1.7285156-0.7197266
		c0.7441406,0,1.5478516,0.6728516,2.4121094,2.0166016c0.5273438,0.8398438,0.7910156,1.5117188,0.7910156,2.015625
		s-0.1611328,0.9238281-0.4853516,1.2597656c-0.3232422,0.3359375-0.7021484,0.6367188-1.1337891,0.9003906
		s-0.8457031,0.515625-1.2421875,0.7558594s-1.2060547,0.5527344-2.4296875,0.9355469
		c-1.2246094,0.3837891-2.40625,0.5761719-3.546875,0.5761719c-1.1396484,0-2.2915039-0.1503906-3.4555664-0.4492188
		c-1.1640625-0.3007813-2.3642578-0.8046875-3.6000977-1.5126953c-1.2363281-0.7080078-2.3461914-1.5712891-3.3295898-2.5917969
		c-0.984375-1.0205078-1.7944336-2.3271484-2.4301758-3.9248047c-0.6362305-1.5957031-0.9541016-3.3300781-0.9541016-5.2011719
		c0-1.8720703,0.3115234-3.5698242,0.9360352-5.0942383c0.6240234-1.5239258,1.421875-2.7836914,2.394043-3.7797852
		c0.972168-0.9956055,2.0820313-1.8300781,3.3300781-2.5019531c2.3515625-1.2963867,4.7158203-1.9443359,7.0917969-1.9443359
		c1.1279297,0,2.2734375,0.1743164,3.4375,0.5219727c1.1640625,0.3481445,2.046875,0.7021484,2.6464844,1.0620117
		l0.8642578,0.5043945c0.4326172,0.2641602,0.7675781,0.4799805,1.0078125,0.6479492
		c0.6240234,0.5039063,0.9365234,1.0742188,0.9365234,1.7099609c0,0.6362305-0.2519531,1.3022461-0.7558594,1.9980469
		c-0.9365234,1.2958984-1.7773438,1.9438477-2.5205078,1.9438477c-0.4326172,0-1.0439453-0.2636719-1.8359375-0.7919922
		c-1.0087891-0.815918-2.3525391-1.2241211-4.0322266-1.2241211c-1.5600586,0-3.0957031,0.5400391-4.6079102,1.6201172
		c-0.7202148,0.5283203-1.3203125,1.2724609-1.7998047,2.2319336c-0.4804688,0.9599609-0.7202148,2.0463867-0.7202148,3.2578125
		c0,1.2124023,0.2397461,2.2983398,0.7202148,3.2583008c0.4794922,0.9599609,1.0917969,1.7167969,1.8359375,2.2675781
		c1.4633789,1.0566406,2.987793,1.5839844,4.5717773,1.5839844c0.7441406,0,1.4453125-0.0957031,2.1054688-0.2871094
		C37.9277344,39.5947266,38.4023438,39.4023438,38.6904297,39.2109375z"/>
</g>
</svg>
