<?xml version="1.0" encoding="utf-8"?>
<!-- Generator: Adobe Illustrator 16.0.0, SVG Export Plug-In . SVG Version: 6.00 Build 0)  -->
<!DOCTYPE svg PUBLIC "-//W3C//DTD SVG 1.1//EN" "http://www.w3.org/Graphics/SVG/1.1/DTD/svg11.dtd">
<svg version="1.1" id="Layer_1" xmlns="http://www.w3.org/2000/svg" xmlns:xlink="http://www.w3.org/1999/xlink" x="0px" y="0px"
	 width="66px" height="66px" viewBox="0 0 66 66" enable-background="new 0 0 66 66" xml:space="preserve">
<g>
	<rect x="8.8671875" y="18.2949219" fill="none" width="48.2333984" height="28.7978516"/>
	<path fill="#FFFFFF" d="M24.9560547,19.6987305l6.6601563,0.0356445c3.4794922,0,6.5400391,1.2543945,9.1796875,3.762207
		c2.6396484,2.5083008,3.9599609,5.5922852,3.9599609,9.2519531s-1.2900391,6.7983398-3.8691406,9.4135742
		c-2.5810547,2.6171875-5.7070313,3.9238281-9.3789063,3.9238281h-6.5878906c-1.4638672,0-2.3759766-0.2988281-2.7358398-0.8994141
		c-0.2880859-0.5039063-0.4321289-1.2724609-0.4321289-2.3037109V22.8666992c0-0.5761719,0.0180664-0.9956055,0.0541992-1.2602539
		c0.0356445-0.2636719,0.1494141-0.5756836,0.3417969-0.9360352C22.4838867,20.0224609,23.4199219,19.6987305,24.9560547,19.6987305
		z M36.2958984,37.7890625c1.3916016-1.2841797,2.0878906-2.8984375,2.0878906-4.8422852
		c0-1.9443359-0.6787109-3.5698242-2.0341797-4.878418c-1.3554688-1.3076172-2.9458008-1.9619141-4.7695313-1.9619141h-3.4560547
		v13.6083984h3.4921875C33.3442383,39.7148438,34.9042969,39.0722656,36.2958984,37.7890625z"/>
</g>
</svg>
