<?xml version="1.0" encoding="utf-8"?>
<!-- Generator: Adobe Illustrator 16.0.0, SVG Export Plug-In . SVG Version: 6.00 Build 0)  -->
<!DOCTYPE svg PUBLIC "-//W3C//DTD SVG 1.1//EN" "http://www.w3.org/Graphics/SVG/1.1/DTD/svg11.dtd">
<svg version="1.1" id="Layer_1" xmlns="http://www.w3.org/2000/svg" xmlns:xlink="http://www.w3.org/1999/xlink" x="0px" y="0px"
	 width="66px" height="66px" viewBox="0 0 66 66" enable-background="new 0 0 66 66" xml:space="preserve">
<g>
	<rect x="8.8671875" y="18.2949219" fill="none" width="48.2333984" height="28.7978516"/>
	<path fill="#FFFFFF" d="M29.3120117,39.75h11.0883789c0.5507813,0,0.9648438,0.0185547,1.2421875,0.0546875
		c0.2753906,0.0351563,0.59375,0.1503906,0.953125,0.3417969c0.6484375,0.3359375,0.9726563,1.2724609,0.9726563,2.8085938
		c0,1.6796875-0.4453125,2.6640625-1.3320313,2.9511719c-0.4082031,0.1445313-1.0332031,0.2167969-1.8730469,0.2167969H26.1079102
		c-1.6801758,0-2.6640625-0.4560547-2.9521484-1.3691406c-0.1435547-0.3828125-0.2158203-0.9951172-0.2158203-1.8359375v-20.015625
		c0-1.2236328,0.2280273-2.0576172,0.684082-2.5019531c0.4555664-0.4438477,1.3198242-0.6660156,2.5917969-0.6660156h14.1845703
		c0.5507813,0,0.9648438,0.0180664,1.2421875,0.0541992c0.2753906,0.0361328,0.59375,0.1503906,0.953125,0.3417969
		c0.6484375,0.3364258,0.9726563,1.2724609,0.9726563,2.8081055c0,1.6801758-0.4453125,2.6640625-1.3320313,2.9521484
		c-0.4082031,0.144043-1.0332031,0.2158203-1.8730469,0.2158203H29.3120117v3.6362305h7.1274414
		c0.5527344,0,0.9667969,0.0180664,1.2421875,0.0537109c0.2753906,0.0361328,0.59375,0.1503906,0.9550781,0.3422852
		c0.6474609,0.3364258,0.9707031,1.2724609,0.9707031,2.8081055c0,1.6801758-0.4550781,2.6635742-1.3671875,2.9516602
		c-0.4082031,0.1445313-1.0322266,0.2167969-1.8720703,0.2167969h-7.0561523V39.75z"/>
</g>
</svg>
