<?xml version="1.0" encoding="utf-8"?>
<!-- Generator: Adobe Illustrator 16.0.0, SVG Export Plug-In . SVG Version: 6.00 Build 0)  -->
<!DOCTYPE svg PUBLIC "-//W3C//DTD SVG 1.1//EN" "http://www.w3.org/Graphics/SVG/1.1/DTD/svg11.dtd">
<svg version="1.1" id="Layer_1" xmlns="http://www.w3.org/2000/svg" xmlns:xlink="http://www.w3.org/1999/xlink" x="0px" y="0px"
	 width="66px" height="66px" viewBox="0 0 66 66" enable-background="new 0 0 66 66" xml:space="preserve">
<g>
	<rect x="8.8671875" y="18.2949219" fill="none" width="48.2333984" height="28.7978516"/>
	<path fill="#FFFFFF" d="M40.4179688,19.734375c0.5517578,0,0.9658203,0.0180664,1.2421875,0.0541992
		c0.2753906,0.0361328,0.5878906,0.1503906,0.9355469,0.3417969c0.3476563,0.1923828,0.59375,0.5166016,0.7382813,0.972168
		c0.1445313,0.4560547,0.2167969,1.0683594,0.2167969,1.8359375c0,0.7685547-0.0722656,1.3803711-0.2167969,1.8359375
		c-0.1445313,0.456543-0.3964844,0.7739258-0.7558594,0.9541016s-0.6777344,0.2880859-0.9541016,0.3242188
		c-0.2763672,0.0356445-0.7021484,0.0537109-1.2783203,0.0537109h-11.015625v3.6362305h7.0917969
		c0.5761719,0,1.0019531,0.0180664,1.2783203,0.0537109c0.2753906,0.0361328,0.59375,0.1503906,0.9541016,0.3422852
		c0.6230469,0.3598633,0.9355469,1.3081055,0.9355469,2.84375c0,1.6796875-0.4560547,2.6757813-1.3671875,2.9882813
		c-0.3847656,0.1201172-0.9960938,0.1796875-1.8359375,0.1796875h-7.0566406v6.8046875
		c0,0.5761719-0.0180664,0.9960938-0.0541992,1.2597656c-0.0356445,0.2636719-0.1499023,0.5761719-0.3417969,0.9355469
		c-0.3364258,0.6484375-1.2724609,0.9726563-2.8081055,0.9726563c-1.6801758,0-2.6640625-0.4560547-2.9521484-1.3691406
		c-0.1435547-0.3828125-0.2158203-0.9951172-0.2158203-1.8359375v-20.015625c0-1.2236328,0.2280273-2.0576172,0.684082-2.5019531
		c0.4555664-0.4438477,1.3198242-0.6660156,2.5917969-0.6660156H40.4179688z"/>
</g>
</svg>
