<?xml version="1.0" encoding="utf-8"?>
<!-- Generator: Adobe Illustrator 16.0.0, SVG Export Plug-In . SVG Version: 6.00 Build 0)  -->
<!DOCTYPE svg PUBLIC "-//W3C//DTD SVG 1.1//EN" "http://www.w3.org/Graphics/SVG/1.1/DTD/svg11.dtd">
<svg version="1.1" id="Layer_1" xmlns="http://www.w3.org/2000/svg" xmlns:xlink="http://www.w3.org/1999/xlink" x="0px" y="0px"
	 width="66px" height="66px" viewBox="0 0 66 66" enable-background="new 0 0 66 66" xml:space="preserve">
<g>
	<rect x="8.8671875" y="18.4277344" fill="none" width="48.2333984" height="28.7978516"/>
	<path fill="#FFFFFF" d="M35.3242188,30.3432617h6.3359375c1.2958984,0.0483398,2.0878906,0.3842773,2.375,1.0083008
		c0.2402344,0.4560547,0.3613281,1.128418,0.3613281,2.015625v7.9199219c0,0.7685547-0.3369141,1.5-1.0087891,2.1962891
		c-2.015625,2.0878906-5.0400391,3.1318359-9.0712891,3.1318359c-3.5771484,0-6.6845703-1.3496094-9.324707-4.0498047
		s-3.9599609-5.9580078-3.9599609-9.7739258s1.34375-7.0019531,4.0322266-9.5581055
		c2.6875-2.5561523,5.8554688-3.8339844,9.5043945-3.8339844c2.8310547,0,5.5078125,0.9360352,8.0273438,2.8081055
		c0.6484375,0.4804688,0.9726563,1.0141602,0.9726563,1.6020508c0,0.5883789-0.2773438,1.2661133-0.828125,2.0336914
		c-0.9365234,1.2724609-1.7890625,1.9082031-2.5566406,1.9082031c-0.4560547,0-1.1875-0.3295898-2.1953125-0.9902344
		c-1.0078125-0.659668-2.2089844-0.9897461-3.6005859-0.9897461c-1.8242188,0-3.4438477,0.6420898-4.8598633,1.9257813
		c-1.4165039,1.2841797-2.1240234,2.9643555-2.1240234,5.0400391c0,2.0761719,0.7202148,3.8408203,2.1601563,5.2919922
		c1.4399414,1.453125,3.0717773,2.1777344,4.8959961,2.1777344c1.3193359,0,2.5068359-0.2158203,3.5634766-0.6474609v-3.9248047
		h-2.84375c-0.7441406,0-1.2724609-0.0957031-1.5839844-0.2871094c-0.3120117-0.1914063-0.5161133-0.4746094-0.6118164-0.8457031
		c-0.0961914-0.3730469-0.144043-0.8764648-0.144043-1.5126953c0-0.6357422,0.0541992-1.1455078,0.1621094-1.5297852
		c0.1079102-0.3837891,0.3056641-0.6479492,0.59375-0.7919922C34.0273438,30.4511719,34.6035156,30.3432617,35.3242188,30.3432617z"
		/>
</g>
</svg>
