<?xml version="1.0" encoding="utf-8"?>
<!-- Generator: Adobe Illustrator 16.0.0, SVG Export Plug-In . SVG Version: 6.00 Build 0)  -->
<!DOCTYPE svg PUBLIC "-//W3C//DTD SVG 1.1//EN" "http://www.w3.org/Graphics/SVG/1.1/DTD/svg11.dtd">
<svg version="1.1" id="Layer_1" xmlns="http://www.w3.org/2000/svg" xmlns:xlink="http://www.w3.org/1999/xlink" x="0px" y="0px"
	 width="66px" height="66px" viewBox="0 0 66 66" enable-background="new 0 0 66 66" xml:space="preserve">
<g>
	<rect x="8.8671875" y="18.4946289" fill="none" width="48.2333984" height="28.7983398"/>
	<path fill="#FFFFFF" d="M38.1503906,20.90625c0.1914063-0.3598633,0.515625-0.6118164,0.9716797-0.7558594
		s1.03125-0.2163086,1.7275391-0.2163086s1.2480469,0.0605469,1.65625,0.1801758
		c0.4082031,0.1206055,0.7207031,0.2641602,0.9355469,0.4321289c0.2167969,0.1679688,0.3847656,0.4082031,0.5039063,0.7197266
		c0.1201172,0.4086914,0.1806641,1.0322266,0.1806641,1.8720703v19.9799805c0,0.5517578-0.0185547,0.9658203-0.0537109,1.2421875
		c-0.0371094,0.2763672-0.1503906,0.59375-0.3417969,0.9541016c-0.3369141,0.6484375-1.2734375,0.9716797-2.8085938,0.9716797
		c-1.6796875,0-2.6640625-0.4443359-2.9521484-1.3320313c-0.1435547-0.4072266-0.2158203-1.03125-0.2158203-1.8720703v-7.3076172
		h-9.5400391v7.34375c0,0.5517578-0.0180664,0.9658203-0.0541992,1.2421875
		c-0.0356445,0.2763672-0.1499023,0.59375-0.3417969,0.9541016c-0.3364258,0.6484375-1.2724609,0.9716797-2.8081055,0.9716797
		c-1.6801758,0-2.6640625-0.4443359-2.9521484-1.3320313c-0.1435547-0.4072266-0.2158203-1.03125-0.2158203-1.8720703V23.1020508
		c0-0.5517578,0.0180664-0.9658203,0.0541992-1.2416992c0.0356445-0.2758789,0.1494141-0.5942383,0.3417969-0.9541016
		c0.3359375-0.6479492,1.2719727-0.972168,2.8081055-0.972168c1.6796875,0,2.6757813,0.4443359,2.987793,1.3320313
		c0.1201172,0.4086914,0.1801758,1.0322266,0.1801758,1.8720703v7.3442383h9.5400391v-7.3803711
		c0-0.5517578,0.0175781-0.9658203,0.0537109-1.2416992S37.9570313,21.2661133,38.1503906,20.90625z"/>
</g>
</svg>
