<?xml version="1.0" encoding="utf-8"?>
<!-- Generator: Adobe Illustrator 16.0.0, SVG Export Plug-In . SVG Version: 6.00 Build 0)  -->
<!DOCTYPE svg PUBLIC "-//W3C//DTD SVG 1.1//EN" "http://www.w3.org/Graphics/SVG/1.1/DTD/svg11.dtd">
<svg version="1.1" id="Layer_1" xmlns="http://www.w3.org/2000/svg" xmlns:xlink="http://www.w3.org/1999/xlink" x="0px" y="0px"
	 width="66px" height="66px" viewBox="0 0 66 66" enable-background="new 0 0 66 66" xml:space="preserve">
<g>
	<rect x="8.8671875" y="18.4277344" fill="none" width="48.2333984" height="28.7978516"/>
	<path fill="#FFFFFF" d="M29.7978516,23.0351563c0-0.5517578,0.0180664-0.9658203,0.0541992-1.2416992
		c0.0356445-0.2758789,0.1494141-0.5942383,0.3417969-0.9541016c0.3359375-0.6479492,1.2719727-0.972168,2.8081055-0.972168
		c1.6796875,0,2.6757813,0.4443359,2.9882813,1.3320313c0.1191406,0.4086914,0.1796875,1.0322266,0.1796875,1.8720703v20.0166016
		c0,0.5761719-0.0175781,0.9960938-0.0546875,1.2597656c-0.0351563,0.2636719-0.1494141,0.5761719-0.3417969,0.9355469
		c-0.3359375,0.6484375-1.2714844,0.9726563-2.8076172,0.9726563c-1.6801758,0-2.6640625-0.4560547-2.9521484-1.3691406
		c-0.1435547-0.3828125-0.2158203-0.9951172-0.2158203-1.8359375V23.0351563z"/>
</g>
</svg>
