<?xml version="1.0" encoding="utf-8"?>
<!-- Generator: Adobe Illustrator 16.0.0, SVG Export Plug-In . SVG Version: 6.00 Build 0)  -->
<!DOCTYPE svg PUBLIC "-//W3C//DTD SVG 1.1//EN" "http://www.w3.org/Graphics/SVG/1.1/DTD/svg11.dtd">
<svg version="1.1" id="Layer_1" xmlns="http://www.w3.org/2000/svg" xmlns:xlink="http://www.w3.org/1999/xlink" x="0px" y="0px"
	 width="66px" height="66px" viewBox="0 0 66 66" enable-background="new 0 0 66 66" xml:space="preserve">
<g>
	<rect x="8.8671875" y="18.2285156" fill="none" width="48.2333984" height="28.7978516"/>
	<path fill="#FFFFFF" d="M38.0058594,19.6679688c0.9355469,0,1.6259766,0.0786133,2.0703125,0.234375
		c0.4433594,0.15625,0.7617188,0.4135742,0.9541016,0.7739258c0.2636719,0.5522461,0.3955078,1.2958984,0.3955078,2.2319336
		v13.9316406c0,2.5205078-0.9121094,4.7460938-2.7363281,6.6777344c-1.8242188,1.9326172-4.1523438,2.8984375-6.9833984,2.8984375
		c-1.5839844,0-2.987793-0.3476563-4.2119141-1.0439453c-1.1044922-0.5996094-1.8720703-1.1396484-2.3041992-1.6201172
		l-0.2880859-0.2871094c-0.840332-0.8886719-1.2597656-1.6503906-1.2597656-2.2871094
		c0-0.6347656,0.4194336-1.3857422,1.2597656-2.25c0.8398438-0.8632813,1.5839844-1.2949219,2.2324219-1.2949219
		c0.6479492,0,1.3676758,0.3955078,2.159668,1.1875s1.6499023,1.1875,2.5742188,1.1875
		c0.9233398,0,1.6855469-0.3115234,2.2861328-0.9355469c0.5996094-0.6240234,0.9003906-1.4521484,0.9003906-2.484375V23.1240234
		c0-1.4399414,0.2382813-2.3632813,0.71875-2.7719727C36.3261719,19.8964844,37.0703125,19.6679688,38.0058594,19.6679688z"/>
</g>
</svg>
