<?xml version="1.0" encoding="utf-8"?>
<!-- Generator: Adobe Illustrator 16.0.0, SVG Export Plug-In . SVG Version: 6.00 Build 0)  -->
<!DOCTYPE svg PUBLIC "-//W3C//DTD SVG 1.1//EN" "http://www.w3.org/Graphics/SVG/1.1/DTD/svg11.dtd">
<svg version="1.1" id="Layer_1" xmlns="http://www.w3.org/2000/svg" xmlns:xlink="http://www.w3.org/1999/xlink" x="0px" y="0px"
	 width="66px" height="66px" viewBox="0 0 66 66" enable-background="new 0 0 66 66" xml:space="preserve">
<g>
	<rect x="8.9335938" y="18.3613281" fill="none" width="48.2333984" height="28.7978516"/>
	<path fill="#FFFFFF" d="M34.2929688,32.940918c3.671875,3.527832,6.2753906,6.1801758,7.8115234,7.9555664
		c0.7919922,0.8886719,1.1884766,1.6386719,1.1884766,2.25c0,0.6123047-0.4804688,1.3320313-1.4404297,2.1601563
		s-1.7460938,1.2421875-2.3583984,1.2421875c-0.6113281,0-1.3496094-0.5039063-2.2138672-1.5117188l-7.9199219-9.0361328v7.0205078
		c0,0.5761719-0.0180664,0.9960938-0.0541992,1.2597656c-0.0356445,0.2636719-0.1499023,0.5761719-0.3417969,0.9355469
		c-0.3364258,0.6484375-1.2724609,0.9726563-2.8081055,0.9726563c-1.6801758,0-2.6640625-0.4560547-2.9521484-1.3691406
		c-0.1435547-0.3828125-0.2158203-0.9951172-0.2158203-1.8359375V22.96875c0-0.5517578,0.0180664-0.9658203,0.0541992-1.2416992
		c0.0356445-0.2758789,0.1494141-0.5942383,0.3417969-0.9541016c0.3359375-0.6479492,1.2719727-0.972168,2.8081055-0.972168
		c1.6796875,0,2.6757813,0.4443359,2.987793,1.3320313c0.1201172,0.4086914,0.1801758,1.0322266,0.1801758,1.8720703v6.8759766
		c3.2636719-3.671875,5.9033203-6.6835938,7.9199219-9.0361328c0.8398438-0.9833984,1.5712891-1.4755859,2.1962891-1.4755859
		c0.6230469,0,1.4160156,0.4140625,2.3759766,1.2416992c0.9599609,0.828125,1.4404297,1.5483398,1.4404297,2.1601563
		s-0.3613281,1.3383789-1.0800781,2.1777344c-1.3925781,1.6083984-3.5527344,3.8164063-6.4804688,6.6240234L34.2929688,32.940918z"
		/>
</g>
</svg>
