<?xml version="1.0" encoding="utf-8"?>
<!-- Generator: Adobe Illustrator 16.0.0, SVG Export Plug-In . SVG Version: 6.00 Build 0)  -->
<!DOCTYPE svg PUBLIC "-//W3C//DTD SVG 1.1//EN" "http://www.w3.org/Graphics/SVG/1.1/DTD/svg11.dtd">
<svg version="1.1" id="Layer_1" xmlns="http://www.w3.org/2000/svg" xmlns:xlink="http://www.w3.org/1999/xlink" x="0px" y="0px"
	 width="66px" height="66px" viewBox="0 0 66 66" enable-background="new 0 0 66 66" xml:space="preserve">
<g>
	<rect x="8.9335938" y="18.3613281" fill="none" width="48.2333984" height="28.7978516"/>
	<path fill="#FFFFFF" d="M30.2963867,40.8613281h9.7915039c0.7929688,0,1.3691406,0.0898438,1.7285156,0.2695313
		s0.5996094,0.4628906,0.7197266,0.8457031c0.1201172,0.3847656,0.1806641,0.8945313,0.1806641,1.5302734
		s-0.0605469,1.1464844-0.1806641,1.5302734c-0.1201172,0.3847656-0.3232422,0.6484375-0.6123047,0.7919922
		c-0.4550781,0.2402344-1.0800781,0.3603516-1.8710938,0.3603516H27.0922852c-1.6801758,0-2.6640625-0.4560547-2.9521484-1.3691406
		c-0.1435547-0.3828125-0.2158203-0.9951172-0.2158203-1.8359375V22.96875c0-0.5517578,0.0180664-0.9658203,0.0541992-1.2416992
		c0.0356445-0.2758789,0.1494141-0.5942383,0.3417969-0.9541016c0.3359375-0.6479492,1.2719727-0.972168,2.8081055-0.972168
		c1.6796875,0,2.6757813,0.4443359,2.987793,1.3320313c0.1201172,0.4086914,0.1801758,1.0322266,0.1801758,1.8720703V40.8613281z"/>
</g>
</svg>
