<?xml version="1.0" encoding="utf-8"?>
<!-- Generator: Adobe Illustrator 16.0.0, SVG Export Plug-In . SVG Version: 6.00 Build 0)  -->
<!DOCTYPE svg PUBLIC "-//W3C//DTD SVG 1.1//EN" "http://www.w3.org/Graphics/SVG/1.1/DTD/svg11.dtd">
<svg version="1.1" id="Layer_1" xmlns="http://www.w3.org/2000/svg" xmlns:xlink="http://www.w3.org/1999/xlink" x="0px" y="0px"
	 width="66px" height="66px" viewBox="0 0 66 66" enable-background="new 0 0 66 66" xml:space="preserve">
<g>
	<rect x="8.9335938" y="18.3613281" fill="none" width="48.2333984" height="28.7978516"/>
	<path fill="#FFFFFF" d="M46.875,20.809082c0.1914063,0.3598633,0.3056641,0.684082,0.3417969,0.9716797
		c0.0351563,0.2880859,0.0537109,0.7084961,0.0537109,1.2602539v19.9804688c0,1.6552734-0.4560547,2.6269531-1.3681641,2.9160156
		c-0.4560547,0.1435547-1.03125,0.2148438-1.7275391,0.2148438s-1.2490234-0.0585938-1.65625-0.1796875
		c-0.4082031-0.1191406-0.7197266-0.2636719-0.9365234-0.4316406c-0.2148438-0.1679688-0.3837891-0.4082031-0.5039063-0.7207031
		c-0.1201172-0.4072266-0.1796875-1.03125-0.1796875-1.8710938V30.8891602
		c-0.5996094,0.7441406-1.4755859,1.9257813-2.6279297,3.5463867c-1.1513672,1.6191406-1.8837891,2.6337891-2.1962891,3.0410156
		c-0.3125,0.4082031-0.5273438,0.6904297-0.6474609,0.8457031c-0.1201172,0.1572266-0.4140625,0.3730469-0.8818359,0.6484375
		c-0.46875,0.2763672-0.972168,0.4140625-1.512207,0.4140625s-1.0322266-0.1259766-1.4760742-0.3779297
		c-0.4443359-0.2519531-0.762207-0.4970703-0.9541016-0.7373047l-0.2880859-0.3964844
		c-0.4799805-0.5996094-1.4282227-1.8779297-2.84375-3.8339844c-1.4165039-1.9560547-2.184082-3.0058594-2.3041992-3.1499023
		v12.1323242c0,0.5517578-0.0180664,0.9658203-0.0537109,1.2421875c-0.0361328,0.2753906-0.1503906,0.5820313-0.3422852,0.9179688
		c-0.3598633,0.6474609-1.2958984,0.9707031-2.8081055,0.9707031c-1.4638672,0-2.3759766-0.3232422-2.7358398-0.9707031
		c-0.1923828-0.3359375-0.3061523-0.6484375-0.3417969-0.9365234c-0.0361328-0.2880859-0.0541992-0.7197266-0.0541992-1.2958984
		V22.96875c0-0.5517578,0.0180664-0.9658203,0.0541992-1.2416992c0.0356445-0.2758789,0.1494141-0.5942383,0.3417969-0.9541016
		c0.3598633-0.6240234,1.2958984-0.9360352,2.8081055-0.9360352c0.6479492,0,1.2060547,0.078125,1.6738281,0.2338867
		c0.4682617,0.1567383,0.7739258,0.3183594,0.9179688,0.4863281l0.2163086,0.2158203l8.171875,10.7280273
		c4.0791016-5.3999023,6.8037109-8.9638672,8.171875-10.6918945c0.4072266-0.6479492,1.3740234-0.972168,2.8974609-0.972168
		C45.6083984,19.8369141,46.5380859,20.1611328,46.875,20.809082z"/>
</g>
</svg>
