<?xml version="1.0" encoding="utf-8"?>
<!-- Generator: Adobe Illustrator 16.0.0, SVG Export Plug-In . SVG Version: 6.00 Build 0)  -->
<!DOCTYPE svg PUBLIC "-//W3C//DTD SVG 1.1//EN" "http://www.w3.org/Graphics/SVG/1.1/DTD/svg11.dtd">
<svg version="1.1" id="Layer_1" xmlns="http://www.w3.org/2000/svg" xmlns:xlink="http://www.w3.org/1999/xlink" x="0px" y="0px"
	 width="66px" height="66px" viewBox="0 0 66 66" enable-background="new 0 0 66 66" xml:space="preserve">
<g>
	<rect x="8.9335938" y="18.3613281" fill="none" width="48.2333984" height="28.7978516"/>
	<path fill="#FFFFFF" d="M38.5761719,20.8989258c0.2285156-0.4194336,0.5703125-0.7021484,1.0263672-0.8461914
		c0.4560547-0.1435547,1.0263672-0.2158203,1.7099609-0.2158203s1.2363281,0.0600586,1.65625,0.1801758
		s0.7314453,0.2641602,0.9355469,0.4316406c0.203125,0.168457,0.3535156,0.4204102,0.4501953,0.7563477
		c0.1435547,0.3842773,0.2158203,0.9960938,0.2158203,1.8359375v19.9804688c0,0.5761719-0.0175781,0.9960938-0.0546875,1.2597656
		c-0.0351563,0.2636719-0.1494141,0.5761719-0.3417969,0.9355469c-0.3359375,0.6484375-1.2714844,0.9726563-2.8076172,0.9726563
		c-0.9365234,0-1.5839844-0.0722656-1.9443359-0.2167969c-0.359375-0.1435547-0.6601563-0.3710938-0.8994141-0.6835938
		c-5.3999023-7.2001953-8.9521484-11.9038086-10.65625-14.1123047v11.8447266c0,0.5761719-0.0180664,0.9960938-0.0537109,1.2597656
		c-0.0361328,0.2636719-0.1503906,0.5761719-0.3422852,0.9355469c-0.3364258,0.6484375-1.2724609,0.9726563-2.8081055,0.9726563
		c-1.4882813,0-2.3999023-0.3242188-2.7358398-0.9726563c-0.1923828-0.359375-0.3061523-0.6835938-0.3417969-0.9716797
		c-0.0361328-0.2880859-0.0541992-0.7080078-0.0541992-1.2607422V22.8969727c0-0.9116211,0.1137695-1.5776367,0.3422852-1.9980469
		c0.2275391-0.4194336,0.5698242-0.7021484,1.0258789-0.8461914c0.4555664-0.1435547,1.0439453-0.2158203,1.7636719-0.2158203
		c0.7202148,0,1.2900391,0.0664063,1.7104492,0.1982422c0.4194336,0.1318359,0.7133789,0.2822266,0.8818359,0.449707
		c0.0957031,0.0722656,0.371582,0.3842773,0.828125,0.9360352c5.0634766,6.8886719,8.4467773,11.4360352,10.1518555,13.6435547
		V22.8969727C38.234375,21.9853516,38.3476563,21.3193359,38.5761719,20.8989258z"/>
</g>
</svg>
