<?xml version="1.0" encoding="utf-8"?>
<!-- Generator: Adobe Illustrator 16.0.0, SVG Export Plug-In . SVG Version: 6.00 Build 0)  -->
<!DOCTYPE svg PUBLIC "-//W3C//DTD SVG 1.1//EN" "http://www.w3.org/Graphics/SVG/1.1/DTD/svg11.dtd">
<svg version="1.1" id="Layer_1" xmlns="http://www.w3.org/2000/svg" xmlns:xlink="http://www.w3.org/1999/xlink" x="0px" y="0px"
	 width="66px" height="66px" viewBox="0 0 66 66" enable-background="new 0 0 66 66" xml:space="preserve">
<g>
	<rect x="8.9335938" y="18.3613281" fill="none" width="48.2333984" height="28.7978516"/>
	<path fill="#FFFFFF" d="M32.9248047,19.4770508c3.5517578,0,6.6357422,1.2841797,9.2519531,3.8520508
		c2.6152344,2.5683594,3.9238281,5.7543945,3.9238281,9.5581055c0,3.8041992-1.2480469,7.0444336-3.7441406,9.7202148
		s-5.5673828,4.0136719-9.2158203,4.0136719s-6.75-1.3203125-9.3061523-3.9599609
		c-2.5556641-2.6396484-3.8339844-5.7841797-3.8339844-9.4321289c0-1.9916992,0.3598633-3.8574219,1.0800781-5.5981445
		c0.7202148-1.7397461,1.6796875-3.1977539,2.8798828-4.3740234c1.199707-1.175293,2.5795898-2.0996094,4.1401367-2.7719727
		C29.6601563,19.8134766,31.2685547,19.4770508,32.9248047,19.4770508z M26.3725586,33.0488281
		c0,2.1367188,0.6894531,3.8701172,2.0698242,5.2021484c1.3798828,1.3320313,2.921875,1.9980469,4.6259766,1.9980469
		s3.2402344-0.6474609,4.6083984-1.9443359c1.3681641-1.2958984,2.0517578-3.0351563,2.0517578-5.2197266
		c0-2.1835938-0.6894531-3.9360352-2.0703125-5.2558594c-1.3798828-1.3198242-2.921875-1.9799805-4.6254883-1.9799805
		c-1.7045898,0-3.2402344,0.6660156-4.6079102,1.9980469C27.0566406,29.1791992,26.3725586,30.9130859,26.3725586,33.0488281z"/>
</g>
</svg>
