<?xml version="1.0" encoding="utf-8"?>
<!-- Generator: Adobe Illustrator 16.0.0, SVG Export Plug-In . SVG Version: 6.00 Build 0)  -->
<!DOCTYPE svg PUBLIC "-//W3C//DTD SVG 1.1//EN" "http://www.w3.org/Graphics/SVG/1.1/DTD/svg11.dtd">
<svg version="1.1" id="Layer_1" xmlns="http://www.w3.org/2000/svg" xmlns:xlink="http://www.w3.org/1999/xlink" x="0px" y="0px"
	 width="66px" height="66px" viewBox="0 0 66 66" enable-background="new 0 0 66 66" xml:space="preserve">
<g>
	<rect x="8.9335938" y="18.4941406" fill="none" width="48.2333984" height="28.7978516"/>
	<path fill="#FFFFFF" d="M42.5898438,25.2617188c0.625,1.2724609,0.9365234,2.6884766,0.9365234,4.2480469
		c0,1.5605469-0.3115234,2.9702148-0.9365234,4.2299805C41.9658203,35,41.1621094,36.0019531,40.1777344,36.7460938
		c-1.9921875,1.5351563-4.0556641,2.3037109-6.1914063,2.3037109h-4.5v4.0673828
		c0,0.5527344-0.0180664,0.9667969-0.0541992,1.2421875c-0.0356445,0.2763672-0.1499023,0.59375-0.3417969,0.9550781
		c-0.3364258,0.6474609-1.2724609,0.9707031-2.8081055,0.9707031c-1.6801758,0-2.6640625-0.4433594-2.9521484-1.3320313
		c-0.1435547-0.4072266-0.2158203-1.03125-0.2158203-1.8710938V23.1015625c0-0.5517578,0.0180664-0.9658203,0.0541992-1.2416992
		c0.0356445-0.2758789,0.1494141-0.5942383,0.3417969-0.9541016c0.3359375-0.6479492,1.2719727-0.972168,2.8081055-0.972168
		h7.7041016c2.1113281,0,4.1630859,0.7685547,6.1552734,2.3041992
		C41.1621094,22.9819336,41.9658203,23.9897461,42.5898438,25.2617188z M36.1464844,31.8857422
		c0.6953125-0.527832,1.0439453-1.3198242,1.0439453-2.3759766c0-1.0556641-0.3486328-1.8540039-1.0439453-2.394043
		c-0.6972656-0.5400391-1.4160156-0.8100586-2.1601563-0.8100586h-4.5v6.3720703h4.5361328
		C34.7421875,32.6777344,35.4492188,32.4140625,36.1464844,31.8857422z"/>
</g>
</svg>
