<?xml version="1.0" encoding="utf-8"?>
<!-- Generator: Adobe Illustrator 16.0.0, SVG Export Plug-In . SVG Version: 6.00 Build 0)  -->
<!DOCTYPE svg PUBLIC "-//W3C//DTD SVG 1.1//EN" "http://www.w3.org/Graphics/SVG/1.1/DTD/svg11.dtd">
<svg version="1.1" id="Layer_1" xmlns="http://www.w3.org/2000/svg" xmlns:xlink="http://www.w3.org/1999/xlink" x="0px" y="0px"
	 width="66px" height="66px" viewBox="0 0 66 66" enable-background="new 0 0 66 66" xml:space="preserve">
<g>
	<rect x="8.9335938" y="18.3613281" fill="none" width="48.2333984" height="28.7978516"/>
	<path fill="#FFFFFF" d="M43.7783203,39.0253906c1.1035156,0.7441406,1.8955078,1.2832031,2.3759766,1.6191406
		c0.8642578,0.6484375,1.2958984,1.2666016,1.2958984,1.8544922c0,0.5888672-0.3603516,1.4101563-1.0800781,2.4658203
		c-0.7197266,1.0566406-1.4521484,1.5839844-2.1962891,1.5839844c-0.4550781,0-1.1513672-0.3242188-2.0878906-0.9716797
		c-0.1201172-0.0722656-0.4550781-0.2998047-1.0078125-0.6845703c-0.5527344-0.3828125-0.984375-0.671875-1.2958984-0.8632813
		c-2.2314453,1.7275391-4.7402344,2.5917969-7.5239258,2.5917969c-3.7202148,0-6.8579102-1.3203125-9.4140625-3.9599609
		c-2.5556641-2.6396484-3.8339844-5.7841797-3.8339844-9.4321289c0-1.9916992,0.3598633-3.8574219,1.0800781-5.5981445
		c0.7202148-1.7397461,1.6796875-3.1977539,2.8798828-4.3740234c1.199707-1.175293,2.5795898-2.0996094,4.1401367-2.7719727
		c1.5595703-0.6713867,3.1679688-1.0078125,4.8242188-1.0078125c3.5517578,0,6.6357422,1.2841797,9.2519531,3.8520508
		c2.6152344,2.5683594,3.9238281,5.8198242,3.9238281,9.7558594C45.1103516,35.0771484,44.6660156,37.0566406,43.7783203,39.0253906
		z M25.3823242,33.0488281c0,2.1367188,0.6894531,3.8701172,2.0698242,5.2021484
		c1.3798828,1.3320313,2.921875,1.9980469,4.6259766,1.9980469s3.2402344-0.6474609,4.6083984-1.9443359
		c1.3681641-1.2958984,2.0517578-3.0351563,2.0517578-5.2197266c0-2.1835938-0.6894531-3.9360352-2.0703125-5.2558594
		c-1.3798828-1.3198242-2.921875-1.9799805-4.6254883-1.9799805c-1.7045898,0-3.2402344,0.6660156-4.6079102,1.9980469
		C26.0664063,29.1791992,25.3823242,30.9130859,25.3823242,33.0488281z"/>
</g>
</svg>
