<?xml version="1.0" encoding="utf-8"?>
<!-- Generator: Adobe Illustrator 16.0.0, SVG Export Plug-In . SVG Version: 6.00 Build 0)  -->
<!DOCTYPE svg PUBLIC "-//W3C//DTD SVG 1.1//EN" "http://www.w3.org/Graphics/SVG/1.1/DTD/svg11.dtd">
<svg version="1.1" id="Layer_1" xmlns="http://www.w3.org/2000/svg" xmlns:xlink="http://www.w3.org/1999/xlink" x="0px" y="0px"
	 width="66px" height="66px" viewBox="0 0 66 66" enable-background="new 0 0 66 66" xml:space="preserve">
<g>
	<rect x="8.9335938" y="18.4277344" fill="none" width="48.2333984" height="28.7978516"/>
	<path fill="#FFFFFF" d="M43.328125,41.7910156c0.3603516,0.8642578,0.5400391,1.4882813,0.5400391,1.8730469
		c0,0.9121094-0.7441406,1.6796875-2.2314453,2.3027344c-0.7685547,0.3359375-1.3867188,0.5039063-1.8544922,0.5039063
		s-0.8525391-0.1132813-1.1513672-0.3417969c-0.3007813-0.2275391-0.5224609-0.4609375-0.6660156-0.7011719
		c-0.2402344-0.4560547-1.1767578-2.6289063-2.8085938-6.5166016l-1.1152344,0.0722656h-4.5366211v4.0673828
		c0,0.5527344-0.0180664,0.9667969-0.0541992,1.2421875c-0.0356445,0.2763672-0.1499023,0.59375-0.3417969,0.9550781
		c-0.3364258,0.6474609-1.2724609,0.9707031-2.8081055,0.9707031c-1.6801758,0-2.6640625-0.4433594-2.9521484-1.3320313
		c-0.1435547-0.4072266-0.2158203-1.03125-0.2158203-1.8710938V23.0351563c0-0.5517578,0.0180664-0.9658203,0.0541992-1.2416992
		c0.0356445-0.2758789,0.1494141-0.5942383,0.3417969-0.9541016c0.3359375-0.6479492,1.2719727-0.972168,2.8081055-0.972168
		h7.7758789c2.1123047,0,4.1630859,0.7685547,6.15625,2.3041992c0.9599609,0.7441406,1.7509766,1.7519531,2.3759766,3.0239258
		c0.6230469,1.2724609,0.9355469,2.6884766,0.9355469,4.2480469c0,2.7124023-0.9003906,4.9443359-2.6992188,6.6953125
		C41.4082031,37.4121094,42.2246094,39.2949219,43.328125,41.7910156z M29.5043945,32.6113281h4.6079102
		c0.6962891,0,1.3916016-0.2636719,2.0878906-0.7919922c0.6962891-0.527832,1.0439453-1.3198242,1.0439453-2.3759766
		c0-1.0556641-0.3476563-1.8540039-1.0439453-2.394043s-1.4160156-0.8100586-2.1591797-0.8100586h-4.5366211V32.6113281z"/>
</g>
</svg>
