<?xml version="1.0" encoding="utf-8"?>
<!-- Generator: Adobe Illustrator 16.0.0, SVG Export Plug-In . SVG Version: 6.00 Build 0)  -->
<!DOCTYPE svg PUBLIC "-//W3C//DTD SVG 1.1//EN" "http://www.w3.org/Graphics/SVG/1.1/DTD/svg11.dtd">
<svg version="1.1" id="Layer_1" xmlns="http://www.w3.org/2000/svg" xmlns:xlink="http://www.w3.org/1999/xlink" x="0px" y="0px"
	 width="66px" height="66px" viewBox="0 0 66 66" enable-background="new 0 0 66 66" xml:space="preserve">
<g>
	<rect x="8.9335938" y="18.4277344" fill="none" width="48.2333984" height="28.7978516"/>
	<path fill="#FFFFFF" d="M24.3925781,42.546875c-0.6245117-0.7675781-0.9360352-1.4570313-0.9360352-2.0693359
		s0.5161133-1.4228516,1.5483398-2.4306641c0.5996094-0.5761719,1.2353516-0.8632813,1.9077148-0.8632813
		c0.671875,0,1.6079102,0.5996094,2.8081055,1.7998047c0.3359375,0.4082031,0.8154297,0.7978516,1.4399414,1.1699219
		c0.6240234,0.3720703,1.199707,0.5576172,1.7280273,0.5576172c2.2324219,0,3.3476563-0.9121094,3.3476563-2.7353516
		c0-0.5517578-0.3056641-1.0136719-0.9179688-1.3857422c-0.6113281-0.3720703-1.3740234-0.6425781-2.2856445-0.8105469
		c-0.9125977-0.1679688-1.8964844-0.4375-2.9521484-0.8105469c-1.0561523-0.3710938-2.0400391-0.8095703-2.9521484-1.3134766
		s-1.6738281-1.3017578-2.2856445-2.394043c-0.6123047-1.0917969-0.9179688-2.4057617-0.9179688-3.9418945
		c0-2.1118164,0.7856445-3.9536133,2.3579102-5.5258789c1.5717773-1.5717773,3.7133789-2.3579102,6.4257813-2.3579102
		c1.4399414,0,2.7543945,0.1860352,3.9418945,0.5576172c1.1884766,0.3725586,2.0097656,0.7504883,2.4667969,1.1342773
		l0.8994141,0.684082c0.7431641,0.6962891,1.1162109,1.2841797,1.1162109,1.7636719
		c0,0.4804688-0.2880859,1.1401367-0.8642578,1.9799805c-0.8154297,1.2006836-1.6552734,1.800293-2.5205078,1.800293
		c-0.5039063,0-1.1279297-0.2397461-1.8710938-0.7202148c-0.0722656-0.0478516-0.2109375-0.1674805-0.4140625-0.3598633
		c-0.2050781-0.1918945-0.390625-0.3476563-0.5585938-0.4682617c-0.5039063-0.3115234-1.1459961-0.4677734-1.9257813-0.4677734
		c-0.7802734,0-1.4282227,0.1860352-1.9438477,0.5581055c-0.5166016,0.3720703-0.7739258,0.8881836-0.7739258,1.5478516
		c0,0.6606445,0.3056641,1.1943359,0.9179688,1.6020508c0.6118164,0.4082031,1.3735352,0.684082,2.2861328,0.828125
		c0.9121094,0.144043,1.9082031,0.3662109,2.9882813,0.6660156c1.0800781,0.300293,2.0751953,0.6660156,2.9873047,1.0976563
		c0.9121094,0.4321289,1.6748047,1.1826172,2.2861328,2.25c0.6123047,1.0678711,0.9179688,2.3823242,0.9179688,3.9428711
		c0,1.5595703-0.3125,2.9335938-0.9355469,4.1210938c-0.625,1.1884766-1.4404297,2.1064453-2.4482422,2.7539063
		c-1.9443359,1.2734375-4.0205078,1.9082031-6.2280273,1.9082031c-1.128418,0-2.1962891-0.1386719-3.2041016-0.4140625
		s-1.8242188-0.6171875-2.4477539-1.0253906c-1.2724609-0.7675781-2.1601563-1.5117188-2.6640625-2.2324219L24.3925781,42.546875z"
		/>
</g>
</svg>
