<?xml version="1.0" encoding="utf-8"?>
<!-- Generator: Adobe Illustrator 16.0.0, SVG Export Plug-In . SVG Version: 6.00 Build 0)  -->
<!DOCTYPE svg PUBLIC "-//W3C//DTD SVG 1.1//EN" "http://www.w3.org/Graphics/SVG/1.1/DTD/svg11.dtd">
<svg version="1.1" id="Layer_1" xmlns="http://www.w3.org/2000/svg" xmlns:xlink="http://www.w3.org/1999/xlink" x="0px" y="0px"
	 width="66px" height="66px" viewBox="0 0 66 66" enable-background="new 0 0 66 66" xml:space="preserve">
<g>
	<rect x="8.9335938" y="18.4277344" fill="none" width="48.2333984" height="28.7978516"/>
	<path fill="#FFFFFF" d="M23.0605469,19.831543h20.015625c0.7675781,0,1.3320313,0.0898438,1.6923828,0.2700195
		c0.3603516,0.1796875,0.5996094,0.4624023,0.7197266,0.8457031c0.1201172,0.3842773,0.1796875,0.8881836,0.1796875,1.512207
		c0,0.6245117-0.0595703,1.1220703-0.1796875,1.4941406s-0.3242188,0.6298828-0.6113281,0.7739258
		c-0.4326172,0.2158203-1.0449219,0.3237305-1.8359375,0.3237305h-6.8769531v18.1079102
		c0,0.5527344-0.0175781,0.9599609-0.0537109,1.2236328c-0.0361328,0.265625-0.1435547,0.5703125-0.3232422,0.9179688
		c-0.1806641,0.3486328-0.4990234,0.5947266-0.9550781,0.7382813c-0.4550781,0.1445313-1.0556641,0.2167969-1.7993164,0.2167969
		c-0.7441406,0-1.3383789-0.0722656-1.7822266-0.2167969c-0.4443359-0.1435547-0.7558594-0.3896484-0.9360352-0.7382813
		c-0.1796875-0.3476563-0.2880859-0.6591797-0.3237305-0.9355469c-0.0361328-0.2753906-0.0541992-0.6894531-0.0541992-1.2421875
		V25.0512695h-6.9121094c-0.7680664,0-1.3320313-0.0898438-1.6918945-0.2700195
		c-0.3598633-0.1796875-0.6000977-0.4619141-0.7197266-0.8457031c-0.1206055-0.3837891-0.1801758-0.8876953-0.1801758-1.512207
		c0-0.6240234,0.0595703-1.121582,0.1801758-1.4941406c0.1196289-0.371582,0.3237305-0.6298828,0.6118164-0.7739258
		C21.6567383,19.9394531,22.2685547,19.831543,23.0605469,19.831543z"/>
</g>
</svg>
