<?xml version="1.0" encoding="utf-8"?>
<!-- Generator: Adobe Illustrator 16.0.0, SVG Export Plug-In . SVG Version: 6.00 Build 0)  -->
<!DOCTYPE svg PUBLIC "-//W3C//DTD SVG 1.1//EN" "http://www.w3.org/Graphics/SVG/1.1/DTD/svg11.dtd">
<svg version="1.1" id="Layer_1" xmlns="http://www.w3.org/2000/svg" xmlns:xlink="http://www.w3.org/1999/xlink" x="0px" y="0px"
	 width="66px" height="66px" viewBox="0 0 66 66" enable-background="new 0 0 66 66" xml:space="preserve">
<g>
	<rect x="8.9335938" y="18.2949219" fill="none" width="48.2333984" height="28.7978516"/>
	<path fill="#FFFFFF" d="M38.6660156,20.706543c0.2402344-0.3837891,0.5878906-0.6479492,1.0449219-0.7919922
		c0.4550781-0.144043,1.0253906-0.2158203,1.7089844-0.2158203c0.6845703,0,1.2304688,0.0600586,1.6386719,0.1796875
		c0.4082031,0.1206055,0.7197266,0.2646484,0.9355469,0.4321289c0.2167969,0.1679688,0.3720703,0.4204102,0.46875,0.7558594
		c0.1435547,0.4086914,0.2148438,1.0322266,0.2148438,1.8720703v10.8720703c0,3.1679688-0.984375,6.0478516-2.9511719,8.640625
		c-0.9609375,1.2226563-2.1962891,2.2128906-3.7080078,2.96875c-1.5126953,0.7568359-3.1865234,1.1347656-5.0219727,1.1347656
		c-1.8359375,0-3.5043945-0.3847656-5.0043945-1.1523438s-2.7177734-1.7753906-3.6538086-3.0234375
		c-1.9438477-2.5439453-2.9160156-5.4238281-2.9160156-8.6401367V22.9023438c0-0.5756836,0.0180664-1.0014648,0.0541992-1.277832
		c0.0356445-0.2753906,0.1494141-0.59375,0.3417969-0.9541016c0.1918945-0.3598633,0.5161133-0.6118164,0.972168-0.7558594
		c0.4555664-0.144043,1.0673828-0.2158203,1.8359375-0.2158203c0.7675781,0,1.3798828,0.0717773,1.8359375,0.2158203
		c0.4555664,0.144043,0.7680664,0.3959961,0.9360352,0.7558594c0.2880859,0.5527344,0.4321289,1.3085938,0.4321289,2.2680664
		v10.800293c0,1.4643555,0.3598633,2.855957,1.0800781,4.175293c0.3598633,0.6728516,0.8999023,1.2128906,1.6196289,1.6210938
		c0.7202148,0.4082031,1.5717773,0.6113281,2.5561523,0.6113281c1.7514648,0,3.0600586-0.6484375,3.9233398-1.9433594
		c0.8652344-1.296875,1.296875-2.796875,1.296875-4.5004883V22.6865234
		C38.3066406,21.7504883,38.4257813,21.0908203,38.6660156,20.706543z"/>
</g>
</svg>
