<?xml version="1.0" encoding="utf-8"?>
<!-- Generator: Adobe Illustrator 16.0.0, SVG Export Plug-In . SVG Version: 6.00 Build 0)  -->
<!DOCTYPE svg PUBLIC "-//W3C//DTD SVG 1.1//EN" "http://www.w3.org/Graphics/SVG/1.1/DTD/svg11.dtd">
<svg version="1.1" id="Layer_1" xmlns="http://www.w3.org/2000/svg" xmlns:xlink="http://www.w3.org/1999/xlink" x="0px" y="0px"
	 width="66px" height="66px" viewBox="0 0 66 66" enable-background="new 0 0 66 66" xml:space="preserve">
<g>
	<rect x="8.9335938" y="18.6269531" fill="none" width="48.2333984" height="28.7978516"/>
	<path fill="#FFFFFF" d="M44.4804688,20.4624023c1.4160156,0.6967773,2.1240234,1.4643555,2.1240234,2.3041992
		c0,0.3842773-0.1806641,0.9599609-0.5400391,1.7280273l-9.9355469,20.159668
		c-0.2646484,0.5283203-0.6660156,0.9541016-1.2070313,1.2783203c-0.5390625,0.3232422-1.097168,0.4853516-1.6733398,0.4853516
		h-0.3598633c-0.6000977,0-1.1699219-0.1621094-1.7099609-0.4853516c-0.5400391-0.3242188-0.9423828-0.75-1.2060547-1.2783203
		l-9.9360352-20.159668c-0.3598633-0.7680664-0.5400391-1.34375-0.5400391-1.7280273
		c0-0.8398438,0.7075195-1.6074219,2.1240234-2.3041992c0.7919922-0.4077148,1.3979492-0.6118164,1.8178711-0.6118164
		s0.7382813,0.0483398,0.9541016,0.144043c0.2158203,0.0961914,0.4194336,0.2641602,0.6118164,0.5039063
		c0.2163086,0.2880859,0.4140625,0.6064453,0.5942383,0.9541016c0.1796875,0.3481445,0.6416016,1.3442383,1.3857422,2.987793
		c0.7436523,1.6445313,1.5419922,3.3901367,2.394043,5.2382813c0.8515625,1.8481445,1.65625,3.5942383,2.4121094,5.2373047
		c0.7558594,1.6445313,1.1816406,2.5625,1.277832,2.7539063l7.2001953-15.7670898
		c0.1923828-0.4560547,0.3603516-0.815918,0.5039063-1.0800781c0.4326172-0.6479492,0.9599609-0.972168,1.5839844-0.972168
		S43.6884766,20.0546875,44.4804688,20.4624023z"/>
</g>
</svg>
