<?xml version="1.0" encoding="utf-8"?>
<!-- Generator: Adobe Illustrator 16.0.0, SVG Export Plug-In . SVG Version: 6.00 Build 0)  -->
<!DOCTYPE svg PUBLIC "-//W3C//DTD SVG 1.1//EN" "http://www.w3.org/Graphics/SVG/1.1/DTD/svg11.dtd">
<svg version="1.1" id="Layer_1" xmlns="http://www.w3.org/2000/svg" xmlns:xlink="http://www.w3.org/1999/xlink" x="0px" y="0px"
	 width="66px" height="66px" viewBox="0 0 66 66" enable-background="new 0 0 66 66" xml:space="preserve">
<g>
	<rect x="8.9335938" y="18.4936523" fill="none" width="48.2333984" height="28.7973633"/>
	<path fill="#FFFFFF" d="M48.0800781,20.0771484c1.6074219,0.5761719,2.4121094,1.3447266,2.4121094,2.3041992
		c0,0.3120117-0.1445313,0.8999023-0.4316406,1.7641602L43.1484375,44.125
		c-0.0488281,0.1679688-0.1328125,0.3730469-0.2519531,0.6123047c-0.1210938,0.2402344-0.4384766,0.5576172-0.9541016,0.9541016
		c-0.5166016,0.3964844-1.1279297,0.59375-1.8359375,0.59375s-1.3203125-0.1972656-1.8359375-0.59375
		c-0.5166016-0.3964844-0.8583984-0.7861328-1.0263672-1.1699219l-4.2119141-12.4204102
		C30.3681641,39.9736328,29.012207,43.9814453,28.9643555,44.125c-0.0483398,0.1445313-0.15625,0.3486328-0.3242188,0.6123047
		c-0.1679688,0.2646484-0.3598633,0.5039063-0.5756836,0.7197266c-0.5522461,0.5527344-1.2124023,0.828125-1.9799805,0.828125
		c-0.7685547,0-1.3984375-0.1796875-1.8901367-0.5400391c-0.4921875-0.3603516-0.8222656-0.7197266-0.9897461-1.0791016
		L22.9521484,44.125l-6.9477539-19.9794922c-0.2646484-0.7919922-0.3959961-1.3798828-0.3959961-1.7641602
		c0-0.9594727,0.8037109-1.7158203,2.4121094-2.2680664c0.6958008-0.2397461,1.3256836-0.3598633,1.8896484-0.3598633
		s0.9956055,0.1923828,1.2963867,0.5756836c0.2998047,0.3842773,0.5698242,0.972168,0.8100586,1.7641602l3.9599609,12.0239258
		l3.9238281-11.84375c0.3359375-1.0083008,0.9477539-1.7041016,1.8359375-2.0883789
		c0.3837891-0.1674805,0.8818359-0.2519531,1.4941406-0.2519531c0.6118164,0,1.1816406,0.1982422,1.7099609,0.5942383
		c0.5273438,0.3959961,0.8642578,0.7861328,1.0078125,1.1699219l4.1396484,12.4921875l3.9609375-12.0961914
		c0.1914063-0.5517578,0.3476563-0.9594727,0.4677734-1.2241211c0.1201172-0.2636719,0.3417969-0.5219727,0.6650391-0.7739258
		c0.3242188-0.2519531,0.7265625-0.3779297,1.2070313-0.3779297C46.8681641,19.7172852,47.4316406,19.8378906,48.0800781,20.0771484
		z"/>
</g>
</svg>
