<?xml version="1.0" encoding="utf-8"?>
<!-- Generator: Adobe Illustrator 16.0.0, SVG Export Plug-In . SVG Version: 6.00 Build 0)  -->
<!DOCTYPE svg PUBLIC "-//W3C//DTD SVG 1.1//EN" "http://www.w3.org/Graphics/SVG/1.1/DTD/svg11.dtd">
<svg version="1.1" id="Layer_1" xmlns="http://www.w3.org/2000/svg" xmlns:xlink="http://www.w3.org/1999/xlink" x="0px" y="0px"
	 width="66px" height="66px" viewBox="0 0 66 66" enable-background="new 0 0 66 66" xml:space="preserve">
<g>
	<rect x="8.9335938" y="18.4936523" fill="none" width="48.2333984" height="28.7973633"/>
	<path fill="#FFFFFF" d="M37.3886719,32.965332L44.625,40.921875c0.8144531,0.9121094,1.2236328,1.6796875,1.2236328,2.3027344
		c0,0.625-0.4619141,1.3574219-1.3857422,2.1972656c-0.9248047,0.8398438-1.7050781,1.2597656-2.3398438,1.2597656
		c-0.6367188,0-1.375-0.4804688-2.2148438-1.4404297l-6.8398438-7.8486328l-6.8398438,7.8486328
		c-0.8642578,0.9599609-1.6020508,1.4404297-2.2143555,1.4404297c-0.6118164,0-1.3920898-0.4257813-2.3398438-1.2783203
		c-0.9482422-0.8515625-1.421875-1.5771484-1.421875-2.1787109c0-0.5996094,0.4194336-1.3671875,1.2597656-2.3027344
		l7.2363281-7.956543l-7.2363281-7.9560547c-0.840332-0.8876953-1.2597656-1.6435547-1.2597656-2.2680664
		c0-0.6235352,0.4677734-1.3618164,1.4038086-2.2138672c0.9360352-0.8515625,1.722168-1.277832,2.3579102-1.277832
		s1.3740234,0.4799805,2.2143555,1.4399414l6.8398438,7.8476563l6.8398438-7.8476563
		c0.8642578-0.9599609,1.6015625-1.4399414,2.2148438-1.4399414c0.6113281,0,1.3847656,0.4199219,2.3212891,1.2597656
		c0.9365234,0.840332,1.4042969,1.5839844,1.4042969,2.2319336S45.4394531,24.1455078,44.625,25.0092773L37.3886719,32.965332z"/>
</g>
</svg>
