<?xml version="1.0" encoding="utf-8"?>
<!-- Generator: Adobe Illustrator 16.0.0, SVG Export Plug-In . SVG Version: 6.00 Build 0)  -->
<!DOCTYPE svg PUBLIC "-//W3C//DTD SVG 1.1//EN" "http://www.w3.org/Graphics/SVG/1.1/DTD/svg11.dtd">
<svg version="1.1" id="Layer_1" xmlns="http://www.w3.org/2000/svg" xmlns:xlink="http://www.w3.org/1999/xlink" x="0px" y="0px"
	 width="66px" height="66px" viewBox="0 0 66 66" enable-background="new 0 0 66 66" xml:space="preserve">
<g>
	<rect x="8.9335938" y="18.4936523" fill="none" width="48.2333984" height="28.7973633"/>
	<path fill="#FFFFFF" d="M43.0947266,20.4375c1.1748047,0.815918,1.7636719,1.6079102,1.7636719,2.3759766
		c0,0.4560547-0.2763672,1.0922852-0.8271484,1.9077148l-7.7773438,11.628418v6.875
		c0,0.5527344-0.0175781,0.9667969-0.0527344,1.2421875c-0.0371094,0.2773438-0.1503906,0.5947266-0.3427734,0.9550781
		c-0.1923828,0.359375-0.5166016,0.6113281-0.9716797,0.7558594c-0.4560547,0.1435547-1.0683594,0.2148438-1.8359375,0.2148438
		c-0.7685547,0-1.3803711-0.0712891-1.8359375-0.2148438c-0.456543-0.1445313-0.7802734-0.4023438-0.972168-0.7744141
		c-0.1923828-0.3720703-0.3061523-0.6962891-0.3417969-0.9716797c-0.0361328-0.2753906-0.0541992-0.7021484-0.0541992-1.2783203
		v-6.8037109l-7.7758789-11.628418c-0.5527344-0.8154297-0.828125-1.4516602-0.828125-1.9077148
		c0-0.7680664,0.5273438-1.5058594,1.5839844-2.2143555c1.0556641-0.7075195,1.8120117-1.0620117,2.2680664-1.0620117
		c0.4555664,0,0.8154297,0.0961914,1.0800781,0.2880859c0.4077148,0.2646484,0.8398438,0.7558594,1.2958984,1.4760742
		l5.5800781,8.9282227l5.5800781-8.9282227c0.4550781-0.7202148,0.8515625-1.1938477,1.1875-1.421875
		s0.7265625-0.3422852,1.1699219-0.3422852C41.4326172,19.5371094,42.1347656,19.8378906,43.0947266,20.4375z"/>
</g>
</svg>
