<?xml version="1.0" encoding="utf-8"?>
<!-- Generator: Adobe Illustrator 16.0.0, SVG Export Plug-In . SVG Version: 6.00 Build 0)  -->
<!DOCTYPE svg PUBLIC "-//W3C//DTD SVG 1.1//EN" "http://www.w3.org/Graphics/SVG/1.1/DTD/svg11.dtd">
<svg version="1.1" id="Layer_1" xmlns="http://www.w3.org/2000/svg" xmlns:xlink="http://www.w3.org/1999/xlink" x="0px" y="0px"
	 width="66px" height="66px" viewBox="0 0 66 66" enable-background="new 0 0 66 66" xml:space="preserve">
<g>
	<rect x="8.9335938" y="18.4272461" fill="none" width="48.2333984" height="28.7973633"/>
	<path fill="#FFFFFF" d="M40.5927734,40.0996094c0.9355469,0,1.6142578,0.1132813,2.0341797,0.3417969
		s0.7070313,0.5576172,0.8632813,0.9892578c0.15625,0.4326172,0.234375,0.984375,0.234375,1.65625
		c0,0.6728516-0.0605469,1.2119141-0.1796875,1.6201172c-0.1210938,0.4082031-0.2646484,0.7197266-0.4316406,0.9355469
		c-0.1689453,0.2167969-0.4208984,0.3730469-0.7568359,0.46875c-0.3837891,0.1435547-0.9960938,0.2148438-1.8359375,0.2148438
		H25.5444336c-0.5522461,0-1.0800781-0.1425781-1.5839844-0.4316406c-1.0561523-0.5996094-1.5839844-1.5478516-1.5839844-2.84375
		c0-0.6230469,0.144043-1.1279297,0.4321289-1.5117188L33.96875,26.0947266h-8.2802734
		c-0.5756836,0-1.0024414-0.0180664-1.277832-0.0537109c-0.2763672-0.0361328-0.6064453-0.1381836-0.9902344-0.3061523
		c-0.6962891-0.3359375-1.0439453-1.2358398-1.0439453-2.7001953c0-1.5356445,0.3242188-2.4711914,0.972168-2.8076172
		c0.3598633-0.1918945,0.6777344-0.3061523,0.9541016-0.3422852c0.2753906-0.0356445,0.7016602-0.0537109,1.277832-0.0537109
		h14.472168c0.5517578,0,1.0800781,0.144043,1.5839844,0.4316406c0.5039063,0.2880859,0.8935547,0.6723633,1.1699219,1.1523438
		c0.2753906,0.4799805,0.4140625,1.0439453,0.4140625,1.6918945s-0.1445313,1.1645508-0.4316406,1.5478516L31.628418,40.0996094
		H40.5927734z"/>
</g>
</svg>
