<?xml version="1.0" encoding="utf-8"?>
<!-- Generator: Adobe Illustrator 16.0.0, SVG Export Plug-In . SVG Version: 6.00 Build 0)  -->
<!DOCTYPE svg PUBLIC "-//W3C//DTD SVG 1.1//EN" "http://www.w3.org/Graphics/SVG/1.1/DTD/svg11.dtd">
<svg version="1.1" id="Layer_1" xmlns="http://www.w3.org/2000/svg" xmlns:xlink="http://www.w3.org/1999/xlink" x="0px" y="0px"
	 width="22px" height="22px" viewBox="0 0 22 22" enable-background="new 0 0 22 22" xml:space="preserve">
<g id="Eyeball_Icon_10_">
	<path id="Icon_Component_5_8_" fill="#E9EFF4" d="M10.9179688,11.0683594c-1.4863281,0-2.6953125,1.2099609-2.6953125,2.6962891
		s1.2089844,2.6953125,2.6953125,2.6953125s2.6953125-1.2089844,2.6953125-2.6953125
		C13.6152344,12.2783203,12.4042969,11.0683594,10.9179688,11.0683594z"/>
	<path fill="#E9EFF4" d="M10.9472656,21.4726563c-4.2700195,0-7.7441406-3.4726563-7.7441406-7.7421875
		s3.4741211-7.7431641,7.7441406-7.7431641c4.2695313,0,7.7421875,3.4736328,7.7421875,7.7431641
		S15.2167969,21.4726563,10.9472656,21.4726563z M10.9472656,8.9873047c-2.6157227,0-4.7441406,2.1279297-4.7441406,4.7431641
		s2.128418,4.7421875,4.7441406,4.7421875c2.6152344,0,4.7421875-2.1269531,4.7421875-4.7421875
		S13.5625,8.9873047,10.9472656,8.9873047z"/>
	<path fill="#E9EFF4" d="M10.9287109,5.8974609c-0.8286133,0-1.5-0.6713867-1.5-1.5V1.9003906c0-0.8286133,0.6713867-1.5,1.5-1.5
		s1.5,0.6713867,1.5,1.5v2.4970703C12.4287109,5.2260742,11.7573242,5.8974609,10.9287109,5.8974609z"/>
	<path fill="#E9EFF4" d="M15.1230469,7.1289063c-0.7285156-0.3876953-1.0039063-1.2939453-0.6152344-2.0253906l1.1728516-2.2050781
		c0.3886719-0.7314453,1.2939453-1.0107422,2.0224609-0.6230469c0.7285156,0.3867188,1.0039063,1.2939453,0.6152344,2.0253906
		l-1.171875,2.2050781C16.7568359,7.2373047,15.8505859,7.515625,15.1230469,7.1289063z"/>
	<path fill="#E9EFF4" d="M6.7133789,7.1303711C5.9829102,7.519043,5.074707,7.2416992,4.6860352,6.5102539L3.5131836,4.3051758
		C3.1245117,3.5737305,3.4018555,2.6655273,4.1333008,2.2768555c0.7314453-0.3891602,1.640625-0.1123047,2.0292969,0.6191406
		l1.1728516,2.2050781C7.7241211,5.8325195,7.4458008,6.7412109,6.7133789,7.1303711z"/>
</g>
</svg>
