<?xml version="1.0" encoding="utf-8"?>
<!-- Generator: Adobe Illustrator 16.0.0, SVG Export Plug-In . SVG Version: 6.00 Build 0)  -->
<!DOCTYPE svg PUBLIC "-//W3C//DTD SVG 1.1//EN" "http://www.w3.org/Graphics/SVG/1.1/DTD/svg11.dtd">
<svg version="1.1" id="Layer_1" xmlns="http://www.w3.org/2000/svg" xmlns:xlink="http://www.w3.org/1999/xlink" x="0px" y="0px"
	 width="36px" height="36px" viewBox="0 0 36 36" enable-background="new 0 0 36 36" xml:space="preserve">
<rect x="6" y="6" display="none" fill="#FF5EF4" width="24" height="24"/>
<path id="Icon_111_" fill="#D1DAE8" d="M19.1201172,7.8271484l2.5947266,5.2568359
	c0.1796875,0.3657227,0.5292969,0.6181641,0.9326172,0.6787109l5.8017578,0.8417969
	c1.0166016,0.1503906,1.4208984,1.3959961,0.6855469,2.112793l-4.1962891,4.0922852
	c-0.2919922,0.2851563-0.4267578,0.6953125-0.3574219,1.0957031l0.9921875,5.7773438
	c0.1738281,1.0117188-0.8896484,1.7851563-1.7998047,1.3085938l-5.1855469-2.7304688
	c-0.3623047-0.1894531-0.7939453-0.1894531-1.1542969,0l-5.1875,2.7304688
	c-0.9101563,0.4785156-1.9716797-0.296875-1.7978516-1.3085938l0.9902344-5.7773438
	c0.0693359-0.4003906-0.0654297-0.8105469-0.3554688-1.0957031l-4.1982422-4.0922852
	c-0.7353516-0.7167969-0.3310547-1.9648438,0.6855469-2.112793l5.8017578-0.8417969
	c0.4042969-0.0605469,0.7529297-0.3129883,0.9326172-0.6787109l2.5947266-5.2568359
	C17.3535156,6.90625,18.6660156,6.90625,19.1201172,7.8271484z"/>
</svg>
