<?xml version="1.0" encoding="utf-8"?>
<!-- Generator: Adobe Illustrator 16.0.0, SVG Export Plug-In . SVG Version: 6.00 Build 0)  -->
<!DOCTYPE svg PUBLIC "-//W3C//DTD SVG 1.1//EN" "http://www.w3.org/Graphics/SVG/1.1/DTD/svg11.dtd">
<svg version="1.1" id="Layer_1" xmlns="http://www.w3.org/2000/svg" xmlns:xlink="http://www.w3.org/1999/xlink" x="0px" y="0px"
	 width="36px" height="36px" viewBox="0 0 36 36" enable-background="new 0 0 36 36" xml:space="preserve">
<rect x="6" y="6" display="none" fill="#FF5EF4" width="24" height="24"/>
<g id="Icon_191_">
	<g>
		<path fill="#D1DAE8" d="M22.0019531,10.0366211h-8.0004883c-4.4101563,0-8,3.5888672-8,8
			c0,4.4106445,3.5898438,8.0004883,8,8.0004883h8.0004883c4.4121094,0,8-3.5898438,8-8.0004883
			C30.0019531,13.6254883,26.4140625,10.0366211,22.0019531,10.0366211z M22.0019531,24.1191406
			c-3.309082,0-6.0004883-2.6914063-6.0004883-6.0009766c0-3.3085938,2.6914063-6,6.0004883-6c3.3085938,0,6,2.6914063,6,6
			C28.0019531,21.4277344,25.3105469,24.1191406,22.0019531,24.1191406z"/>
	</g>
</g>
</svg>
