<?xml version="1.0" encoding="utf-8"?>
<!-- Generator: Adobe Illustrator 16.0.0, SVG Export Plug-In . SVG Version: 6.00 Build 0)  -->
<!DOCTYPE svg PUBLIC "-//W3C//DTD SVG 1.1//EN" "http://www.w3.org/Graphics/SVG/1.1/DTD/svg11.dtd">
<svg version="1.1" id="Layer_1" xmlns="http://www.w3.org/2000/svg" xmlns:xlink="http://www.w3.org/1999/xlink" x="0px" y="0px"
	 width="48px" height="48px" viewBox="0 0 48 48" enable-background="new 0 0 48 48" xml:space="preserve">
<g>
	<g>
		<g>
			<path fill="#388DFF" d="M34.4980469,10.4077148H17.0053711c-0.9663086,0-1.7495117,0.7836914-1.7495117,1.75
				c0,0.9658203,0.7832031,1.7495117,1.7495117,1.7495117h17.4926758c0.9667969,0,1.75-0.7836914,1.75-1.7495117
				C36.2480469,11.1914063,35.4648438,10.4077148,34.4980469,10.4077148z"/>
		</g>
	</g>
	<g>
		<g>
			<path fill="#388DFF" d="M13.5063477,12.1577148c-0.0014648-0.4633789-0.1870117-0.9072266-0.5161133-1.2333984
				c-0.6816406-0.6787109-1.7841797-0.6787109-2.4667969,0c-0.3276367,0.3261719-0.5136719,0.7700195-0.5161133,1.2333984
				c-0.0126953,0.1132813-0.0126953,0.2280273,0,0.3413086c0.0205078,0.1137695,0.0522461,0.2255859,0.0966797,0.3325195
				c0.046875,0.1030273,0.1025391,0.2026367,0.1669922,0.2973633c0.0620117,0.097168,0.1347656,0.1889648,0.2182617,0.2705078
				c0.0795898,0.0800781,0.1674805,0.1499023,0.2626953,0.2109375c0.0913086,0.0664063,0.190918,0.1225586,0.296875,0.1650391
				c0.1152344,0.0615234,0.2392578,0.1049805,0.3681641,0.1318359c0.1123047,0.0131836,0.2265625,0.0131836,0.340332,0
				c0.4619141,0,0.9042969-0.1816406,1.2329102-0.5078125c0.0834961-0.081543,0.15625-0.1733398,0.2182617-0.2705078
				c0.0649414-0.0947266,0.1201172-0.1943359,0.1674805-0.2973633c0.0551758-0.1064453,0.0991211-0.2167969,0.1303711-0.3325195
				C13.5195313,12.3857422,13.5195313,12.2709961,13.5063477,12.1577148z"/>
		</g>
	</g>
	<g>
		<g>
			<path fill="#388DFF" d="M13.5063477,20.0297852c0.0131836-0.1132813,0.0131836-0.2270508,0-0.3413086
				c-0.0292969-0.1123047-0.0742188-0.2211914-0.1303711-0.3237305c-0.0449219-0.1069336-0.1010742-0.2094727-0.1674805-0.3056641
				c-0.0600586-0.0976563-0.1333008-0.1855469-0.2182617-0.262207c-0.6816406-0.6782227-1.7841797-0.6782227-2.4667969,0
				c-0.3276367,0.3261719-0.5136719,0.7700195-0.5161133,1.2329102c0.003418,0.2304688,0.0473633,0.4584961,0.1313477,0.6728516
				c0.043457,0.1044922,0.0961914,0.2041016,0.1577148,0.2978516c0.065918,0.0957031,0.1425781,0.1826172,0.2270508,0.2631836
				c0.0776367,0.0834961,0.1665039,0.1567383,0.2631836,0.2182617c0.0913086,0.0673828,0.190918,0.1220703,0.2978516,0.1665039
				c0.1054688,0.0444336,0.2172852,0.0766602,0.3325195,0.0952148c0.1118164,0.0258789,0.2255859,0.0380859,0.340332,0.0361328
				c0.1132813,0.012207,0.2270508,0.012207,0.3408203,0c0.1113281-0.0185547,0.2197266-0.0527344,0.3237305-0.097168
				c0.1079102-0.0415039,0.2114258-0.0991211,0.3061523-0.1665039c0.0966797-0.0595703,0.1855469-0.1347656,0.262207-0.2182617
				c0.0849609-0.0766602,0.1582031-0.1655273,0.2182617-0.2612305c0.0678711-0.0927734,0.1235352-0.1923828,0.1674805-0.2983398
				c0.0585938-0.1152344,0.1030273-0.2392578,0.1303711-0.3681641
				C13.5205078,20.2578125,13.5205078,20.1435547,13.5063477,20.0297852z"/>
		</g>
	</g>
	<g>
		<g>
			<path fill="#388DFF" d="M36.2480469,18.2807617H17.0053711c-0.9663086,0-1.7495117,0.7832031-1.7495117,1.7490234
				s0.7832031,1.75,1.7495117,1.75h19.2426758c0.9667969,0,1.75-0.7841797,1.75-1.75S37.2148438,18.2807617,36.2480469,18.2807617z"
				/>
		</g>
	</g>
	<g>
		<g>
			<path fill="#388DFF" d="M13.5063477,27.9042969c0.0131836-0.1152344,0.0131836-0.2304688,0-0.3417969
				c-0.0292969-0.1171875-0.0742188-0.2285156-0.1303711-0.3320313c-0.0473633-0.1054688-0.1025391-0.2050781-0.1674805-0.2988281
				c-0.0600586-0.0976563-0.1333008-0.1855469-0.2182617-0.2617188c-0.6816406-0.6796875-1.7841797-0.6796875-2.4667969,0
				c-0.0839844,0.0761719-0.1567383,0.1640625-0.2177734,0.2617188c-0.0644531,0.09375-0.1191406,0.1933594-0.1669922,0.2988281
				c-0.0449219,0.1054688-0.0776367,0.2167969-0.0961914,0.3320313c-0.0239258,0.1113281-0.0356445,0.2246094-0.0351563,0.3417969
				c0.0024414,0.4609375,0.1884766,0.9042969,0.5161133,1.2304688c0.0776367,0.0839844,0.1665039,0.1582031,0.2631836,0.2207031
				c0.0913086,0.0644531,0.190918,0.1210938,0.2978516,0.1640625c0.1054688,0.0449219,0.2172852,0.078125,0.3325195,0.0957031
				c0.1118164,0.0273438,0.2255859,0.0371094,0.340332,0.0351563c0.1132813,0.015625,0.2270508,0.015625,0.3408203,0
				c0.1113281-0.0175781,0.2197266-0.0507813,0.3237305-0.0957031c0.1079102-0.0410156,0.2114258-0.0976563,0.3061523-0.1640625
				c0.0966797-0.0625,0.1855469-0.1347656,0.262207-0.21875c0.0849609-0.0800781,0.1582031-0.1660156,0.2182617-0.2636719
				c0.0678711-0.09375,0.1235352-0.1914063,0.1674805-0.296875c0.0585938-0.1171875,0.1030273-0.2402344,0.1303711-0.3691406
				C13.5205078,28.1308594,13.5205078,28.015625,13.5063477,27.9042969z"/>
		</g>
	</g>
	<g>
		<g>
			<path fill="#388DFF" d="M28.3769531,26.1523438h-11.371582c-0.9663086,0-1.7495117,0.7832031-1.7495117,1.7519531
				c0,0.9648438,0.7832031,1.7460938,1.7495117,1.7460938h11.371582c0.9667969,0,1.75-0.78125,1.75-1.7460938
				C30.1269531,26.9355469,29.34375,26.1523438,28.3769531,26.1523438z"/>
		</g>
	</g>
	<g>
		<g>
			<path fill="#388DFF" d="M13.5063477,35.7792969c0.0131836-0.1152344,0.0131836-0.2285156,0-0.3417969
				c-0.0292969-0.1171875-0.0742188-0.2285156-0.1303711-0.3320313c-0.0473633-0.1035156-0.1025391-0.2050781-0.1674805-0.296875
				c-0.0600586-0.0996094-0.1333008-0.1875-0.2182617-0.2636719c-0.6816406-0.6777344-1.7841797-0.6777344-2.4667969,0
				c-0.0839844,0.0761719-0.1567383,0.1640625-0.2177734,0.2636719c-0.0644531,0.0917969-0.1191406,0.1933594-0.1669922,0.296875
				c-0.0449219,0.1054688-0.0776367,0.2167969-0.0961914,0.3320313c-0.0239258,0.1132813-0.0356445,0.2246094-0.0351563,0.3417969
				c0.0024414,0.4609375,0.1884766,0.9042969,0.5161133,1.2324219c0.0776367,0.0820313,0.1665039,0.1582031,0.2631836,0.21875
				c0.0913086,0.0664063,0.190918,0.1230469,0.2978516,0.1660156c0.1054688,0.0429688,0.2172852,0.078125,0.3325195,0.0957031
				c0.1118164,0.0253906,0.2255859,0.0371094,0.340332,0.0351563c0.1132813,0.0136719,0.2270508,0.0136719,0.3408203,0
				c0.1113281-0.0195313,0.2197266-0.0507813,0.3237305-0.0957031c0.1079102-0.0429688,0.2114258-0.0996094,0.3061523-0.1660156
				c0.0966797-0.0625,0.1855469-0.1347656,0.262207-0.21875c0.0849609-0.078125,0.1582031-0.1660156,0.2182617-0.2636719
				c0.0678711-0.0917969,0.1235352-0.1914063,0.1674805-0.296875c0.0585938-0.1152344,0.1030273-0.2402344,0.1303711-0.3671875
				C13.5205078,36.0058594,13.5205078,35.8925781,13.5063477,35.7792969z"/>
		</g>
	</g>
	<g>
		<g>
			<path fill="#388DFF" d="M31.5585938,34.0292969H17.0053711c-0.9663086,0-1.7495117,0.78125-1.7495117,1.75
				c0,0.9648438,0.7832031,1.7480469,1.7495117,1.7480469h14.5532227c0.9667969,0,1.75-0.7832031,1.75-1.7480469
				C33.3085938,34.8105469,32.5253906,34.0292969,31.5585938,34.0292969z"/>
		</g>
	</g>
</g>
</svg>
