<?xml version="1.0" encoding="utf-8"?>
<!-- Generator: Adobe Illustrator 16.0.0, SVG Export Plug-In . SVG Version: 6.00 Build 0)  -->
<!DOCTYPE svg PUBLIC "-//W3C//DTD SVG 1.1//EN" "http://www.w3.org/Graphics/SVG/1.1/DTD/svg11.dtd">
<svg version="1.1" id="Layer_1" xmlns="http://www.w3.org/2000/svg" xmlns:xlink="http://www.w3.org/1999/xlink" x="0px" y="0px"
	 width="206px" height="114px" viewBox="0 0 206 114" enable-background="new 0 0 206 114" xml:space="preserve">
<g>
	<rect fill="#E7EDF2" width="50" height="114"/>
	<g>
		<path fill="#9974FF" d="M89,33c0,1.6499023-1.3500977,3-3,3H56c-1.6499023,0-3-1.3500977-3-3V3c0-1.6499023,1.3500977-3,3-3h30
			c1.6499023,0,3,1.3500977,3,3V33z"/>
	</g>
	<g>
		<path fill="#FFFFFF" d="M87,32c0,1.1044922-0.8955078,2-2,2H57c-1.1044922,0-2-0.8955078-2-2V21c0-1.1044922,0.8955078-2,2-2h28
			c1.1044922,0,2,0.8955078,2,2V32z"/>
	</g>
	<g>
		<path fill="#9974FF" d="M85,31c0,0.5522461-0.4477539,1-1,1H72c-0.5522461,0-1-0.4477539-1-1v-2c0-0.5522461,0.4477539-1,1-1h12
			c0.5522461,0,1,0.4477539,1,1V31z"/>
	</g>
	<g>
		<path fill="#E7EDF2" d="M89,72c0,1.6503906-1.3500977,3-3,3H56c-1.6499023,0-3-1.3496094-3-3V42c0-1.6499023,1.3500977-3,3-3h30
			c1.6499023,0,3,1.3500977,3,3V72z"/>
	</g>
	<g>
		<path fill="#E7EDF2" d="M89,111c0,1.6503906-1.3500977,3-3,3H56c-1.6499023,0-3-1.3496094-3-3V81c0-1.6503906,1.3500977-3,3-3h30
			c1.6499023,0,3,1.3496094,3,3V111z"/>
	</g>
	<g>
		<path fill="#E7EDF2" d="M128,33c0,1.6499023-1.3496094,3-3,3H95c-1.6499023,0-3-1.3500977-3-3V3c0-1.6499023,1.3500977-3,3-3h30
			c1.6503906,0,3,1.3500977,3,3V33z"/>
	</g>
	<g>
		<path fill="#E7EDF2" d="M128,72c0,1.6503906-1.3496094,3-3,3H95c-1.6499023,0-3-1.3496094-3-3V42c0-1.6499023,1.3500977-3,3-3h30
			c1.6503906,0,3,1.3500977,3,3V72z"/>
	</g>
	<g>
		<path fill="#E7EDF2" d="M128,111c0,1.6503906-1.3496094,3-3,3H95c-1.6499023,0-3-1.3496094-3-3V81c0-1.6503906,1.3500977-3,3-3h30
			c1.6503906,0,3,1.3496094,3,3V111z"/>
	</g>
	<g>
		<path fill="#E7EDF2" d="M167,33c0,1.6499023-1.3496094,3-3,3h-30c-1.6503906,0-3-1.3500977-3-3V3c0-1.6499023,1.3496094-3,3-3h30
			c1.6503906,0,3,1.3500977,3,3V33z"/>
	</g>
	<g>
		<path fill="#E7EDF2" d="M167,72c0,1.6503906-1.3496094,3-3,3h-30c-1.6503906,0-3-1.3496094-3-3V42c0-1.6499023,1.3496094-3,3-3h30
			c1.6503906,0,3,1.3500977,3,3V72z"/>
	</g>
	<g>
		<path fill="#E7EDF2" d="M167,111c0,1.6503906-1.3496094,3-3,3h-30c-1.6503906,0-3-1.3496094-3-3V81c0-1.6503906,1.3496094-3,3-3
			h30c1.6503906,0,3,1.3496094,3,3V111z"/>
	</g>
	<g>
		<path fill="#E7EDF2" d="M206,33c0,1.6499023-1.3496094,3-3,3h-30c-1.6503906,0-3-1.3500977-3-3V3c0-1.6499023,1.3496094-3,3-3h30
			c1.6503906,0,3,1.3500977,3,3V33z"/>
	</g>
	<g>
		<path fill="#E7EDF2" d="M206,72c0,1.6503906-1.3496094,3-3,3h-30c-1.6503906,0-3-1.3496094-3-3V42c0-1.6499023,1.3496094-3,3-3h30
			c1.6503906,0,3,1.3500977,3,3V72z"/>
	</g>
	<g>
		<path fill="#E7EDF2" d="M206,111c0,1.6503906-1.3496094,3-3,3h-30c-1.6503906,0-3-1.3496094-3-3V81c0-1.6503906,1.3496094-3,3-3
			h30c1.6503906,0,3,1.3496094,3,3V111z"/>
	</g>
</g>
</svg>
