<?xml version="1.0" encoding="utf-8"?>
<!-- Generator: Adobe Illustrator 16.0.0, SVG Export Plug-In . SVG Version: 6.00 Build 0)  -->
<!DOCTYPE svg PUBLIC "-//W3C//DTD SVG 1.1//EN" "http://www.w3.org/Graphics/SVG/1.1/DTD/svg11.dtd">
<svg version="1.1" id="Layer_1" xmlns="http://www.w3.org/2000/svg" xmlns:xlink="http://www.w3.org/1999/xlink" x="0px" y="0px"
	 width="36px" height="36px" viewBox="0 0 36 36" enable-background="new 0 0 36 36" xml:space="preserve">
<rect x="6" y="6" display="none" fill="#FF5EF4" width="24" height="24"/>
<g id="Misc._Settings_27_">
	<g id="Icon_171_">
		<circle fill="#4B80FF" cx="13.4633789" cy="19.5605469" r="1.5"/>
		<path fill="#4B80FF" d="M7.2426758,21.7949219c0.8417969,3.5878906,3.8417969,7.6757813,8.4853516,8.25
			c0.0800781,0.0097656,0.1601563,0.0136719,0.2402344,0.0136719c0.4794922,0,0.9482422-0.1757813,1.3134766-0.5
			c0.4335938-0.3847656,0.6816406-0.9355469,0.6816406-1.5136719V8.0737305c0-0.5629883-0.2373047-1.1040039-0.6513672-1.4838867
			c-0.4130859-0.3798828-0.9707031-0.5688477-1.5263672-0.5209961c-4.0664063,0.3569336-8.8154297,2.7016602-8.8154297,8.1352539
			l-0.0029297,2.4785156c-0.0009766,0.3530273-0.0009766,0.6689453-0.0019531,0.9628906
			c-0.6035156,0.4580078-1.0009766,1.1733398-1.0009766,1.9833984C5.9643555,20.5585938,6.4829102,21.3613281,7.2426758,21.7949219
			L7.2426758,21.7949219z M9.5766602,21.4765625l1.5859375-4.3110352c0.734375-0.2758789,2.3330078-1.0258789,3.1054688-2.5317383
			c0.3974609,0.375,0.9482422,0.7651367,1.6982422,1.1259766l0.0039063,7.6464844
			c-0.1533203-0.1035156-0.3007813-0.21875-0.4365234-0.3535156c-0.2929688-0.2949219-0.7685547-0.2949219-1.0615234,0
			c-0.2929688,0.2929688-0.2929688,0.7695313,0,1.0644531c0.4306641,0.4316406,0.9462891,0.7460938,1.4990234,0.9570313
			l0.0009766,2.9785156c-3.4931641-0.4316406-5.8330078-3.4355469-6.6572266-6.2324219
			C9.4301758,21.734375,9.5239258,21.6210938,9.5766602,21.4765625L9.5766602,21.4765625z"/>
		<path fill="#4B80FF" d="M29.7324219,13.5009766l-1.6503906-2.8696289c-0.4003906-0.699707-1.25-1.0297852-2.0292969-0.7900391
			l-1.8203125,0.5800781c-0.609375-0.4697266-1.2695313-0.8500977-1.9492188-1.1396484l-0.4296875-1.8701172
			c-0.171875-0.7797852-0.8808594-1.3496094-1.6816406-1.3496094h-0.2089844v7.2089844
			c2.0488281,0.6201172,3.5488281,2.5297852,3.5488281,4.7895508s-1.5,4.1699219-3.5488281,4.7890625v7.2089844h0.2089844
			c0.8007813,0,1.5097656-0.5683594,1.6816406-1.3496094l0.4296875-1.8691406
			c0.6796875-0.2910156,1.3398438-0.6699219,1.9492188-1.140625l1.8203125,0.5800781
			c0.7792969,0.2402344,1.6289063-0.0898438,2.0195313-0.7792969l1.6699219-2.890625
			c0.3886719-0.6992188,0.2597656-1.5683594-0.3300781-2.1191406v-0.0097656l-1.4101563-1.2890625
			c0.0390625-0.3813477,0.0605469-0.7607422,0.0605469-1.1308594s-0.0214844-0.75-0.0605469-1.1298828l1.4101563-1.2998047
			C30.0019531,15.0810547,30.1308594,14.2109375,29.7324219,13.5009766L29.7324219,13.5009766z"/>
	</g>
</g>
</svg>
