<?xml version="1.0" encoding="utf-8"?>
<!-- Generator: Adobe Illustrator 16.0.0, SVG Export Plug-In . SVG Version: 6.00 Build 0)  -->
<!DOCTYPE svg PUBLIC "-//W3C//DTD SVG 1.1//EN" "http://www.w3.org/Graphics/SVG/1.1/DTD/svg11.dtd">
<svg version="1.1" id="Layer_1" xmlns="http://www.w3.org/2000/svg" xmlns:xlink="http://www.w3.org/1999/xlink" x="0px" y="0px"
	 width="66px" height="66px" viewBox="0 0 66 66" enable-background="new 0 0 66 66" xml:space="preserve">
<g id="Upload_Button_3_">
	<g>
		<g id="Arrow_Icon_8_">
			<path id="Icon_Component_3_8_" display="none" fill="#FFFFFF" d="M46.53125,25.1933594l-13.0668945-7.4980469
				c-0.2875977-0.1660156-0.6411133-0.1660156-0.9287109,0L19.46875,25.1933594C19.1787109,25.3583984,19,25.6679688,19,26.0019531
				v14.9960938c0,0.3339844,0.1787109,0.6435547,0.46875,0.8085938l13.0668945,7.4980469
				C32.6791992,49.3876953,32.8398438,49.4287109,33,49.4287109s0.3208008-0.0410156,0.4643555-0.1240234L46.53125,41.8066406
				C46.8212891,41.6416016,47,41.3320313,47,40.9980469V26.0019531C47,25.6679688,46.8212891,25.3583984,46.53125,25.1933594z"/>
			<g id="Icon_Component_1_9_">
				<path fill="#2C78FF" d="M32.996582,47.2226563c-1.9301758,0-3.4990234-1.5507813-3.4990234-3.4560547V24.6806641
					c0-1.9091797,1.5688477-3.4580078,3.4990234-3.4580078c1.934082,0,3.5014648,1.5488281,3.5014648,3.4580078v19.0859375
					C36.4980469,45.671875,34.9306641,47.2226563,32.996582,47.2226563z"/>
			</g>
			<g id="Icon_Component_2_9_">
				<path fill="#2C78FF" d="M43.4960938,36.2236328c-0.8945313,0-1.7910156-0.3417969-2.4726563-1.0273438l-8.0268555-8.0273438
					l-8.0253906,8.0273438c-1.3671875,1.3652344-3.5820313,1.3652344-4.9501953,0
					c-1.3671875-1.3671875-1.3671875-3.5839844,0-4.9492188l10.4990234-10.5c1.3671875-1.3710938,3.5834961-1.3710938,4.9506836,0
					l10.4980469,10.5c1.3691406,1.3652344,1.3691406,3.5820313,0,4.9492188
					C45.2890625,35.8818359,44.3925781,36.2236328,43.4960938,36.2236328z"/>
			</g>
		</g>
	</g>
</g>
</svg>
