<?xml version="1.0" encoding="utf-8"?>
<!-- Generator: Adobe Illustrator 16.0.0, SVG Export Plug-In . SVG Version: 6.00 Build 0)  -->
<!DOCTYPE svg PUBLIC "-//W3C//DTD SVG 1.1//EN" "http://www.w3.org/Graphics/SVG/1.1/DTD/svg11.dtd">
<svg version="1.1" id="Layer_1" xmlns="http://www.w3.org/2000/svg" xmlns:xlink="http://www.w3.org/1999/xlink" x="0px" y="0px"
	 width="48px" height="48px" viewBox="0 0 48 48" enable-background="new 0 0 48 48" xml:space="preserve">
<g id="Graph_Icon_7_">
	<g>
		<g>
			<path fill="#388DFF" d="M12.1762695,25.0361328c0.21875,0.2353516,0.5888672,0.2470703,0.8237305,0.0283203l7.8598633-7.3510742
				L27.2441406,19.3125c0.3984375,0.1000977,0.8183594-0.0166016,1.1074219-0.3066406l5.0097656-5.0195313v0.1010742
				c0,0.3232422,0.2597656,0.5844727,0.5820313,0.5844727h1.1679688c0.3222656,0,0.5839844-0.2617188,0.5839844-0.5844727
				v-3.5068359c0-0.3232422-0.2617188-0.5844727-0.5839844-0.5844727h-3.5c-0.3222656,0-0.5839844,0.2612305-0.5839844,0.5844727
				v1.1689453c0,0.3227539,0.2617188,0.5839844,0.5839844,0.5839844h0.0996094l-4.5410156,4.5507813l-6.3598633-1.5932617
				c-0.3837891-0.0961914-0.7900391,0.0092773-1.0786133,0.2788086l-8.3232422,7.784668
				c-0.2358398,0.2202148-0.2485352,0.590332-0.0283203,0.8266602L12.1762695,25.0361328z"/>
			<path fill="#388DFF" d="M37.4453125,35.6582031h-0.5839844v-15.78125c0-0.3232422-0.2617188-0.5844727-0.5839844-0.5844727h-3.5
				c-0.3222656,0-0.5839844,0.2612305-0.5839844,0.5844727v15.78125h-2.3320313V24.5527344
				c0-0.3232422-0.2617188-0.5844727-0.5839844-0.5844727h-3.5c-0.3222656,0-0.5820313,0.2612305-0.5820313,0.5844727v11.1054688
				h-2.3344727V23.3837891c0-0.3232422-0.2607422-0.5849609-0.5834961-0.5849609h-3.5
				c-0.3227539,0-0.5834961,0.2617188-0.5834961,0.5849609v12.2744141h-2.3330078v-4.0917969
				c0-0.3222656-0.2612305-0.5839844-0.5830078-0.5839844h-3.5c-0.3227539,0-0.5834961,0.2617188-0.5834961,0.5839844v4.0917969
				h-0.5830078c-0.3227539,0-0.5834961,0.2617188-0.5834961,0.5839844v1.1699219
				c0,0.3222656,0.2607422,0.5839844,0.5834961,0.5839844h26.8339844c0.3222656,0,0.5820313-0.2617188,0.5820313-0.5839844
				v-1.1699219C38.0273438,35.9199219,37.7675781,35.6582031,37.4453125,35.6582031z"/>
		</g>
	</g>
</g>
</svg>
