<?xml version="1.0" encoding="utf-8"?>
<!-- Generator: Adobe Illustrator 16.0.0, SVG Export Plug-In . SVG Version: 6.00 Build 0)  -->
<!DOCTYPE svg PUBLIC "-//W3C//DTD SVG 1.1//EN" "http://www.w3.org/Graphics/SVG/1.1/DTD/svg11.dtd">
<svg version="1.1" id="Layer_1" xmlns="http://www.w3.org/2000/svg" xmlns:xlink="http://www.w3.org/1999/xlink" x="0px" y="0px"
	 width="14px" height="14px" viewBox="0 0 14 14" enable-background="new 0 0 14 14" xml:space="preserve">
<g display="none">
	<g display="inline">
		<path fill="#E4EBEF" stroke="#E4EBEF" stroke-miterlimit="10" d="M10.7265625,2.965332L10.7265625,2.965332
			c0,0.4238281-0.1699219,0.8178711-0.4902344,1.1386719L7.2929688,7.0454102l2.8261719,2.8237305
			c0.8378906,0.8378906,0.4628906,2.2988281-0.6015625,2.7402344c-0.6152344,0.2539063-1.2734375,0.1171875-1.7578125-0.3671875
			L3.75,8.2304688c-0.6254883-0.6206055-0.6303711-1.746582-0.0048828-2.3652344L7.8632813,1.746582
			c0.4863281-0.4882813,1.1484375-0.6240234,1.7695313-0.3666992C10.2861328,1.6499023,10.7265625,2.2880859,10.7265625,2.965332z
			 M5.4306641,7.043457l3.8740234-3.871582c0.1035156-0.1040039,0.1035156-0.1816406,0.1035156-0.206543
			c0-0.1386719-0.125-0.3041992-0.2792969-0.3681641C9.0019531,2.5449219,8.9023438,2.5688477,8.7939453,2.6782227
			L4.6738281,6.7978516C4.4384766,7.0336914,4.5761719,7.1967773,4.6816406,7.2983398L8.6914063,11.3125
			c0.1054688,0.1035156,0.203125,0.1289063,0.3212891,0.078125c0.1552734-0.0644531,0.2822266-0.2324219,0.2822266-0.375
			c0-0.0273438,0-0.1074219-0.1074219-0.2148438L5.4306641,7.043457z"/>
	</g>
</g>
<g>
	<g>
		<path fill="#CCDBE5" stroke="#CCDBE5" stroke-miterlimit="10" d="M10.6738281,6.8686523L10.6738281,6.8686523
			c0.0068359,0.4477539-0.1601563,0.8686523-0.4677734,1.184082L6.152832,12.234375
			c-0.4799805,0.4951172-1.1396484,0.6416016-1.765625,0.3935547c-1.0683594-0.4248047-1.4672852-1.8652344-0.6450195-2.7138672
			L6.640625,6.9267578L3.7714844,4.1469727C2.9189453,3.3227539,3.2719727,1.8549805,4.3310547,1.3984375
			c0.6113281-0.2661133,1.2700195-0.1386719,1.762207,0.3369141l4.0698242,3.9506836
			C10.4814453,5.9912109,10.6660156,6.421875,10.6738281,6.8686523z M4.5883789,11.0380859
			c0.0019531,0.1416016,0.1298828,0.3037109,0.2861328,0.3652344c0.1259766,0.0517578,0.2265625,0.0253906,0.3325195-0.0849609
			l4.0537109-4.1860352C9.4990234,6.8920898,9.3535156,6.7329102,9.25,6.6333008L5.175293,2.6811523
			c-0.1049805-0.1030273-0.2021484-0.125-0.3203125-0.0732422C4.699707,2.6743164,4.574707,2.8442383,4.5771484,2.9873047
			c0,0.0273438,0.0019531,0.1083984,0.1123047,0.2138672l3.8134766,3.6967773l-3.8149414,3.934082
			C4.5864258,10.9375,4.5874023,11.0136719,4.5883789,11.0380859z"/>
	</g>
</g>
</svg>
