<?xml version="1.0" encoding="utf-8"?>
<!-- Generator: Adobe Illustrator 16.0.0, SVG Export Plug-In . SVG Version: 6.00 Build 0)  -->
<!DOCTYPE svg PUBLIC "-//W3C//DTD SVG 1.1//EN" "http://www.w3.org/Graphics/SVG/1.1/DTD/svg11.dtd">
<svg version="1.1" id="Layer_1" xmlns="http://www.w3.org/2000/svg" xmlns:xlink="http://www.w3.org/1999/xlink" x="0px" y="0px"
	 width="24px" height="18px" viewBox="0 0 24 18" enable-background="new 0 0 24 18" xml:space="preserve">
<path d="M21,0H3C1.2998047,0,0,1.2988281,0,2.9990234v12C0,16.6992188,1.2998047,18,3,18h18c1.7011719,0,3-1.3007813,3-3.0009766
	v-12C24,1.2988281,22.7011719,0,21,0z"/>
<path fill="#FFFFFF" d="M21,1.9990234H3c-0.5996094,0-1,0.3994141-1,1v12c0,0.6005859,0.4003906,1,1,1h18
	c0.5996094,0,1-0.3994141,1-1v-12C22,2.4003906,21.5996094,1.9990234,21,1.9990234z"/>
<g>
	<path d="M10.9609375,11.0722656c0.1289063,0.1289063,0.3061523,0.2021484,0.4892578,0.2021484
		c0.184082,0,0.3598633-0.0732422,0.4902344-0.2021484l2.4726563-2.4736328c0.2705078-0.2705078,0.2705078-0.7099609,0-0.9804688
		c-0.2695313-0.2705078-0.7089844-0.2705078-0.9785156,0l-1.984375,1.984375l-0.9047852-0.9052734
		c-0.2700195-0.2695313-0.7089844-0.2695313-0.9790039,0c-0.2705078,0.2714844-0.2705078,0.7099609,0,0.9804688
		L10.9609375,11.0722656z"/>
	<path d="M11.9897461,14.8457031c3.0327148,0,5.4995117-2.46875,5.4995117-5.5c0-3.0332031-2.4667969-5.5-5.4995117-5.5
		c-3.0322266,0-5.5,2.4667969-5.5,5.5C6.4897461,12.3769531,8.9575195,14.8457031,11.9897461,14.8457031z M11.9897461,5.2304688
		c2.269043,0,4.1147461,1.8457031,4.1147461,4.1152344c0,2.2685547-1.8457031,4.1132813-4.1147461,4.1132813
		s-4.1142578-1.8447266-4.1142578-4.1132813C7.8754883,7.0761719,9.7207031,5.2304688,11.9897461,5.2304688z"/>
</g>
<g>
	<path d="M5.5546875,0.9589844v0.6269531v0.8300781v0.8300781v0.484375c0,0.53125,0.4589844,0.9609375,1.0273438,0.9609375
		c0.5673828,0,1.0268555-0.4296875,1.0268555-0.9609375v-0.484375V2.4160156V1.5859375V0.9589844
		C7.6088867,0.4296875,7.1494141,0,6.5820313,0C6.0136719,0,5.5546875,0.4296875,5.5546875,0.9589844z"/>
	<path d="M17.9970703,0C17.4287109,0,16.96875,0.4296875,16.96875,0.9609375v0.625v0.8300781v0.8300781v0.4863281
		c0,0.5292969,0.4599609,0.9589844,1.0283203,0.9589844s1.0283203-0.4296875,1.0283203-0.9589844V3.2460938V2.4160156V1.5859375
		V0.9589844C19.0224609,0.4296875,18.5644531,0,17.9970703,0z"/>
</g>
</svg>
