<?xml version="1.0" encoding="utf-8"?>
<!-- Generator: Adobe Illustrator 16.0.0, SVG Export Plug-In . SVG Version: 6.00 Build 0)  -->
<!DOCTYPE svg PUBLIC "-//W3C//DTD SVG 1.1//EN" "http://www.w3.org/Graphics/SVG/1.1/DTD/svg11.dtd">
<svg version="1.1" id="Layer_1" xmlns="http://www.w3.org/2000/svg" xmlns:xlink="http://www.w3.org/1999/xlink" x="0px" y="0px"
	 width="14px" height="14px" viewBox="0 0 14 14" enable-background="new 0 0 14 14" xml:space="preserve">
<g>
	<g>
		<path fill="#59B5FF" stroke="#59B5FF" stroke-miterlimit="10" d="M3.8056641,5.6860352l4.0698242-3.9506836
			c0.4916992-0.4755859,1.1508789-0.6030273,1.762207-0.3369141c1.0595703,0.456543,1.4121094,1.9243164,0.5595703,2.7485352
			L7.328125,6.9267578l2.8984375,2.9873047c0.8222656,0.8486328,0.4238281,2.2890625-0.6445313,2.7138672
			c-0.6269531,0.2480469-1.2861328,0.1015625-1.7661133-0.3935547L3.7626953,8.0527344
			c-0.3076172-0.3154297-0.4746094-0.7363281-0.4677734-1.184082l0,0C3.3027344,6.421875,3.4873047,5.9912109,3.8056641,5.6860352z
			 M9.28125,10.8320313l-3.8154297-3.934082l3.8134766-3.6967773c0.1103516-0.1054688,0.1123047-0.1865234,0.1123047-0.2138672
			c0.0029297-0.1430664-0.1220703-0.3129883-0.2783203-0.3793945C8.9960938,2.5561523,8.8984375,2.578125,8.7929688,2.6811523
			L4.71875,6.6333008C4.6152344,6.7329102,4.4697266,6.8920898,4.7080078,7.1323242l4.0537109,4.1860352
			C8.8671875,11.4287109,8.96875,11.4550781,9.09375,11.4033203c0.15625-0.0615234,0.2851563-0.2236328,0.2871094-0.3652344
			C9.3808594,11.0136719,9.3828125,10.9375,9.28125,10.8320313z"/>
	</g>
</g>
</svg>
