<?xml version="1.0" encoding="utf-8"?>
<!-- Generator: Adobe Illustrator 16.0.0, SVG Export Plug-In . SVG Version: 6.00 Build 0)  -->
<!DOCTYPE svg PUBLIC "-//W3C//DTD SVG 1.1//EN" "http://www.w3.org/Graphics/SVG/1.1/DTD/svg11.dtd">
<svg version="1.1" id="Layer_1" xmlns="http://www.w3.org/2000/svg" xmlns:xlink="http://www.w3.org/1999/xlink" x="0px" y="0px"
	 width="48px" height="48px" viewBox="0 0 48 48" enable-background="new 0 0 48 48" xml:space="preserve">
<g id="Calendar_Icon_8_">
	<g>
		<path fill="#FFFFFF" d="M35.7568359,12.8325195h-0.2197266V11.815918c0-1.0356445-0.8232422-1.875-1.8369141-1.875
			c-1.015625,0-1.8378906,0.8393555-1.8378906,1.875v1.0166016h-2.7382813V11.815918c0-1.0356445-0.8222656-1.875-1.8359375-1.875
			c-1.015625,0-1.8378906,0.8393555-1.8378906,1.875v1.0166016h-2.7553711V11.815918c0-1.0356445-0.8232422-1.875-1.8369141-1.875
			c-1.015625,0-1.8388672,0.8393555-1.8388672,1.875v1.0166016h-2.7553711V11.815918c0-1.0356445-0.8217773-1.875-1.8378906-1.875
			c-1.0141602,0-1.8364258,0.8393555-1.8364258,1.875v1.0166016h-0.2202148c-1.2734375,0-2.3061523,1.0532227-2.3061523,2.3535156
			l0.0180664,18.5229492c0,2.3339844,1.8588867,4.2324219,4.1445313,4.2324219h19.6748047
			c2.2861328,0,4.1416016-1.8984375,4.1416016-4.2324219l0.0214844-18.5229492
			C38.0634766,13.8857422,37.0302734,12.8325195,35.7568359,12.8325195z M36.2060547,33.7089844
			c0,1.3007813-1.0322266,2.3554688-2.3056641,2.3554688H14.2255859c-1.2734375,0-2.3066406-1.0546875-2.3066406-2.3554688
			V17.8134766h24.2871094V33.7089844z"/>
	</g>
	<g>
		<g>
			<path fill="#FFFFFF" d="M15.0795898,26.2753906h3.9082031c0.5166016,0,0.9365234-0.4277344,0.9365234-0.9560547v-3.9916992
				c0-0.5283203-0.4199219-0.9545898-0.9365234-0.9545898h-3.9082031c-0.5170898,0-0.9360352,0.4262695-0.9360352,0.9545898
				v3.9916992C14.1435547,25.8476563,14.5625,26.2753906,15.0795898,26.2753906z"/>
		</g>
		<g>
			<path fill="#FFFFFF" d="M15.0795898,33.5195313h3.9082031c0.5166016,0,0.9365234-0.4277344,0.9365234-0.9560547v-3.9912109
				c0-0.5273438-0.4199219-0.9560547-0.9365234-0.9560547h-3.9082031c-0.5170898,0-0.9360352,0.4287109-0.9360352,0.9560547
				v3.9912109C14.1435547,33.0917969,14.5625,33.5195313,15.0795898,33.5195313z"/>
		</g>
		<g>
			<path fill="#FFFFFF" d="M22.1738281,33.5195313h3.9091797c0.5175781,0,0.9375-0.4277344,0.9375-0.9560547v-3.9912109
				c0-0.5273438-0.4199219-0.9560547-0.9375-0.9560547h-3.9091797c-0.5170898,0-0.9350586,0.4287109-0.9350586,0.9560547v3.9912109
				C21.2387695,33.0917969,21.6567383,33.5195313,22.1738281,33.5195313z"/>
		</g>
		<g>
			<path fill="#FFFFFF" d="M29.2451172,26.2753906h3.9082031c0.5175781,0,0.9355469-0.4277344,0.9355469-0.9560547v-3.9916992
				c0-0.5283203-0.4179688-0.9545898-0.9355469-0.9545898h-3.9082031c-0.5175781,0-0.9355469,0.4262695-0.9355469,0.9545898
				v3.9916992C28.3095703,25.8476563,28.7275391,26.2753906,29.2451172,26.2753906z M29.4501953,21.6625977
				c0-0.0683594,0.0546875-0.125,0.1230469-0.125h3.2519531c0.0673828,0,0.1230469,0.0566406,0.1230469,0.125v3.3217773
				c0,0.0703125-0.0556641,0.125-0.1230469,0.125h-3.2519531c-0.0683594,0-0.1230469-0.0546875-0.1230469-0.125V21.6625977z"/>
		</g>
		<g>
			<path fill="#FFFFFF" d="M29.2451172,33.5195313h3.9082031c0.5175781,0,0.9355469-0.4277344,0.9355469-0.9560547v-3.9912109
				c0-0.5273438-0.4179688-0.9560547-0.9355469-0.9560547h-3.9082031c-0.5175781,0-0.9355469,0.4287109-0.9355469,0.9560547
				v3.9912109C28.3095703,33.0917969,28.7275391,33.5195313,29.2451172,33.5195313z"/>
		</g>
		<g>
			<path fill="#FFFFFF" d="M22.1503906,26.2753906h3.9072266c0.5175781,0,0.9375-0.4277344,0.9375-0.9560547v-3.9916992
				c0-0.5283203-0.4199219-0.9545898-0.9375-0.9545898h-3.9072266c-0.5180664,0-0.9370117,0.4262695-0.9370117,0.9545898v3.9916992
				C21.2133789,25.8476563,21.6323242,26.2753906,22.1503906,26.2753906z"/>
		</g>
	</g>
</g>
</svg>
