<?xml version="1.0" encoding="utf-8"?>
<!-- Generator: Adobe Illustrator 16.0.0, SVG Export Plug-In . SVG Version: 6.00 Build 0)  -->
<!DOCTYPE svg PUBLIC "-//W3C//DTD SVG 1.1//EN" "http://www.w3.org/Graphics/SVG/1.1/DTD/svg11.dtd">
<svg version="1.1" id="Layer_1" xmlns="http://www.w3.org/2000/svg" xmlns:xlink="http://www.w3.org/1999/xlink" x="0px" y="0px"
	 width="14px" height="14px" viewBox="0 0 14 14" enable-background="new 0 0 14 14" xml:space="preserve">
<g>
	<g>
		<path fill="#59B5FF" stroke="#59B5FF" stroke-miterlimit="10" d="M10.6748047,6.8686523L10.6748047,6.8686523
			c0.0068359,0.4477539-0.1601563,0.8686523-0.4677734,1.184082L6.1538086,12.234375
			c-0.4799805,0.4951172-1.1391602,0.6416016-1.7661133,0.3935547c-1.0683594-0.4248047-1.4667969-1.8652344-0.6445313-2.7138672
			l2.8984375-2.9873047L3.7724609,4.1469727c-0.8525391-0.8242188-0.5-2.2919922,0.5595703-2.7485352
			c0.6113281-0.2661133,1.2705078-0.1386719,1.762207,0.3369141l4.0698242,3.9506836
			C10.4824219,5.9912109,10.6669922,6.421875,10.6748047,6.8686523z M4.5888672,11.0380859
			c0.0019531,0.1416016,0.1308594,0.3037109,0.2871094,0.3652344c0.125,0.0517578,0.2265625,0.0253906,0.3320313-0.0849609
			l4.0537109-4.1860352C9.5,6.8920898,9.3544922,6.7329102,9.2509766,6.6333008L5.1767578,2.6811523
			c-0.1054688-0.1030273-0.203125-0.125-0.3203125-0.0732422c-0.15625,0.0664063-0.28125,0.2363281-0.2783203,0.3793945
			c0,0.0273438,0.0019531,0.1083984,0.1123047,0.2138672l3.8134766,3.6967773l-3.8154297,3.934082
			C4.5869141,10.9375,4.5888672,11.0136719,4.5888672,11.0380859z"/>
	</g>
</g>
</svg>
