<?xml version="1.0" encoding="utf-8"?>
<!-- Generator: Adobe Illustrator 16.0.0, SVG Export Plug-In . SVG Version: 6.00 Build 0)  -->
<!DOCTYPE svg PUBLIC "-//W3C//DTD SVG 1.1//EN" "http://www.w3.org/Graphics/SVG/1.1/DTD/svg11.dtd">
<svg version="1.1" id="Layer_1" xmlns="http://www.w3.org/2000/svg" xmlns:xlink="http://www.w3.org/1999/xlink" x="0px" y="0px"
	 width="14px" height="14px" viewBox="0 0 14 14" enable-background="new 0 0 14 14" xml:space="preserve">
<g display="none">
	<g display="inline">
		<path fill="#E4EBEF" stroke="#E4EBEF" stroke-miterlimit="10" d="M10.7265625,2.965332L10.7265625,2.965332
			c0,0.4238281-0.1699219,0.8178711-0.4902344,1.1386719L7.2929688,7.0454102l2.8261719,2.8237305
			c0.8378906,0.8378906,0.4628906,2.2988281-0.6015625,2.7402344c-0.6152344,0.2539063-1.2734375,0.1171875-1.7578125-0.3671875
			L3.75,8.2304688c-0.6254883-0.6206055-0.6303711-1.746582-0.0048828-2.3652344L7.8632813,1.746582
			c0.4863281-0.4882813,1.1484375-0.6240234,1.7695313-0.3666992C10.2861328,1.6499023,10.7265625,2.2880859,10.7265625,2.965332z
			 M5.4306641,7.043457l3.8740234-3.871582c0.1035156-0.1040039,0.1035156-0.1816406,0.1035156-0.206543
			c0-0.1386719-0.125-0.3041992-0.2792969-0.3681641C9.0019531,2.5449219,8.9023438,2.5688477,8.7939453,2.6782227
			L4.6738281,6.7978516C4.4384766,7.0336914,4.5761719,7.1967773,4.6816406,7.2983398L8.6914063,11.3125
			c0.1054688,0.1035156,0.203125,0.1289063,0.3212891,0.078125c0.1552734-0.0644531,0.2822266-0.2324219,0.2822266-0.375
			c0-0.0273438,0-0.1074219-0.1074219-0.2148438L5.4306641,7.043457z"/>
	</g>
</g>
<g>
	<g>
		<path fill="#CCDBE5" stroke="#CCDBE5" stroke-miterlimit="10" d="M3.8056641,5.6860352l4.0698242-3.9506836
			c0.4916992-0.4755859,1.1508789-0.6030273,1.762207-0.3369141c1.0595703,0.456543,1.4121094,1.9243164,0.5595703,2.7485352
			L7.328125,6.9267578l2.8984375,2.9873047c0.8222656,0.8486328,0.4238281,2.2890625-0.6445313,2.7138672
			c-0.6269531,0.2480469-1.2861328,0.1015625-1.7661133-0.3935547L3.7626953,8.0527344
			c-0.3076172-0.3154297-0.4746094-0.7363281-0.4677734-1.184082l0,0C3.3027344,6.421875,3.4873047,5.9912109,3.8056641,5.6860352z
			 M9.28125,10.8320313l-3.8154297-3.934082l3.8134766-3.6967773c0.1103516-0.1054688,0.1123047-0.1865234,0.1123047-0.2138672
			c0.0029297-0.1430664-0.1220703-0.3129883-0.2783203-0.3793945C8.9960938,2.5561523,8.8984375,2.578125,8.7929688,2.6811523
			L4.71875,6.6333008C4.6152344,6.7329102,4.4697266,6.8920898,4.7080078,7.1323242l4.0537109,4.1860352
			C8.8671875,11.4287109,8.96875,11.4550781,9.09375,11.4033203c0.15625-0.0615234,0.2851563-0.2236328,0.2871094-0.3652344
			C9.3808594,11.0136719,9.3828125,10.9375,9.28125,10.8320313z"/>
	</g>
</g>
</svg>
