<?xml version="1.0" encoding="utf-8"?>
<!-- Generator: Adobe Illustrator 16.0.0, SVG Export Plug-In . SVG Version: 6.00 Build 0)  -->
<!DOCTYPE svg PUBLIC "-//W3C//DTD SVG 1.1//EN" "http://www.w3.org/Graphics/SVG/1.1/DTD/svg11.dtd">
<svg version="1.1" id="Layer_1" xmlns="http://www.w3.org/2000/svg" xmlns:xlink="http://www.w3.org/1999/xlink" x="0px" y="0px"
	 width="24px" height="18px" viewBox="0 0 24 18" enable-background="new 0 0 24 18" xml:space="preserve">
<g>
	<g>
		<g>
			<path d="M21,0H3C1.2998047,0,0,1.2988281,0,2.9990234v12C0,16.6992188,1.2998047,18,3,18h18c1.7011719,0,3-1.3007813,3-3.0009766
				v-12C24,1.2988281,22.7011719,0,21,0z M22,14.9990234c0,0.6005859-0.4003906,1-1,1H3c-0.5996094,0-1-0.3994141-1-1V8h20
				V14.9990234L22,14.9990234z M22,4H2V2.9990234c0-0.6005859,0.4003906-1,1-1h18c0.5996094,0,1,0.4013672,1,1V4z"/>
		</g>
	</g>
	<g>
		<g>
			<path d="M9,11.9990234H5c-0.6000977,0-1,0.3994141-1,1.0009766c0,0.5996094,0.3999023,1,1,1h4c0.6000977,0,1-0.4003906,1-1
				C10,12.3984375,9.6000977,11.9990234,9,11.9990234z"/>
		</g>
	</g>
</g>
</svg>
