<?xml version="1.0" encoding="utf-8"?>
<!-- Generator: Adobe Illustrator 16.0.0, SVG Export Plug-In . SVG Version: 6.00 Build 0)  -->
<!DOCTYPE svg PUBLIC "-//W3C//DTD SVG 1.1//EN" "http://www.w3.org/Graphics/SVG/1.1/DTD/svg11.dtd">
<svg version="1.1" id="Layer_1" xmlns="http://www.w3.org/2000/svg" xmlns:xlink="http://www.w3.org/1999/xlink" x="0px" y="0px"
	 width="66px" height="66px" viewBox="0 0 66 66" enable-background="new 0 0 66 66" xml:space="preserve">
<g id="Login_Button_6_">
	<g>
		<path id="Checkmark_Icon_8_" fill="#778BA1" d="M33,19c-7.7197266,0-14,6.2802734-14,14
			c0,7.71875,6.2802734,13.9990234,14,13.9990234S47,40.71875,47,33C47,25.2802734,40.7197266,19,33,19z M40.7792969,30.3662109
			l-8.4628906,8.4619141c-0.3779297,0.375-0.8818359,0.5830078-1.421875,0.5830078s-1.0410156-0.2080078-1.421875-0.5810547
			l-3.8505859-3.8535156c-0.3808594-0.3828125-0.5878906-0.8886719-0.5878906-1.4228516
			c0-0.5380859,0.2070313-1.0410156,0.5878906-1.421875C26,31.7519531,26.5078125,31.5419922,27.0439453,31.5419922
			c0.5351563,0,1.0410156,0.2099609,1.4189453,0.5878906l2.4316406,2.4296875l7.0410156-7.0371094
			c0.3779297-0.3779297,0.8818359-0.5859375,1.421875-0.5859375c0.5332031,0,1.0507813,0.2119141,1.4199219,0.5859375
			C41.5634766,28.3066406,41.5634766,29.5820313,40.7792969,30.3662109z"/>
	</g>
</g>
</svg>
