<?xml version="1.0" encoding="utf-8"?>
<!-- Generator: Adobe Illustrator 16.0.0, SVG Export Plug-In . SVG Version: 6.00 Build 0)  -->
<!DOCTYPE svg PUBLIC "-//W3C//DTD SVG 1.1//EN" "http://www.w3.org/Graphics/SVG/1.1/DTD/svg11.dtd">
<svg version="1.1" id="Layer_1" xmlns="http://www.w3.org/2000/svg" xmlns:xlink="http://www.w3.org/1999/xlink" x="0px" y="0px"
	 width="26px" height="26px" viewBox="0 0 26 26" enable-background="new 0 0 26 26" xml:space="preserve">
<rect x="8" y="7.9995117" display="none" fill="#2BDAFF" width="10" height="9.9995117"/>
<g>
	<path fill="#FFFFFF" d="M0.7607422,20.28125h19.9072266c0.1777344,0,0.3505859-0.0625,0.4882813-0.1757813
		c0.1904297-0.1601563,4.5527344-3.9121094,4.8183594-12.0117188H4.5947266
		c-0.2651367,7.3515625-4.2817383,10.8085938-4.3237305,10.8417969c-0.2446289,0.2070313-0.3344727,0.5449219-0.2246094,0.8457031
		C0.1557617,20.0820313,0.4404297,20.28125,0.7607422,20.28125z"/>
	<path fill="#FFFFFF" d="M25.2382813,1.5234375h-3.8085938V0.7617188C21.4296875,0.3349609,21.09375,0,20.6679688,0
		C20.2412109,0,19.90625,0.3349609,19.90625,0.7617188v0.7617188h-3.859375V0.7617188
		C16.046875,0.3349609,15.7109375,0,15.2851563,0c-0.4277344,0-0.7617188,0.3349609-0.7617188,0.7617188v0.7617188h-3.8095703
		V0.7617188C10.7138672,0.3349609,10.3789063,0,9.9521484,0C9.5258789,0,9.1904297,0.3349609,9.1904297,0.7617188v0.7617188
		H5.3818359c-0.4267578,0-0.7617188,0.3349609-0.7617188,0.7617188v3.2851563H26V2.2851563
		C26,1.8583984,25.6650391,1.5234375,25.2382813,1.5234375z"/>
	<path fill="#FFFFFF" d="M22.1337891,22.2734375c-0.4130859,0.34375-0.9326172,0.53125-1.4658203,0.53125H4.6201172v2.2871094
		c0,0.4199219,0.3408203,0.7617188,0.7617188,0.7617188h19.8564453C25.6591797,25.8535156,26,25.5117188,26,25.0917969v-8.5390625
		C24.53125,20.1542969,22.4824219,21.9824219,22.1337891,22.2734375z"/>
</g>
</svg>
