<?xml version="1.0" encoding="utf-8"?>
<!-- Generator: Adobe Illustrator 16.0.0, SVG Export Plug-In . SVG Version: 6.00 Build 0)  -->
<!DOCTYPE svg PUBLIC "-//W3C//DTD SVG 1.1//EN" "http://www.w3.org/Graphics/SVG/1.1/DTD/svg11.dtd">
<svg version="1.1" id="Layer_1" xmlns="http://www.w3.org/2000/svg" xmlns:xlink="http://www.w3.org/1999/xlink" x="0px" y="0px"
	 width="24px" height="18px" viewBox="0 0 24 18" enable-background="new 0 0 24 18" xml:space="preserve">
<path d="M21,0H3C1.2998047,0,0,1.2988281,0,2.9990234v12C0,16.6992188,1.2998047,18,3,18h18c1.7011719,0,3-1.3007813,3-3.0009766
	v-12C24,1.2988281,22.7011719,0,21,0z"/>
<path fill="#FFFFFF" d="M21,1.9990234H3c-0.5996094,0-1,0.3994141-1,1v12c0,0.6005859,0.4003906,1,1,1h18
	c0.5996094,0,1-0.3994141,1-1v-12C22,2.4003906,21.5996094,1.9990234,21,1.9990234z"/>
<g>
	<rect x="1.9907227" y="6.0751953" fill="none" width="20.0092773" height="7.7773438"/>
	<path d="M9.4155273,10.7304688c0.1118164,0.0966797,0.1679688,0.2402344,0.1679688,0.4326172
		c0,0.3945313-0.2319336,0.5917969-0.6958008,0.5917969H6.1113281c-0.4638672,0-0.6958008-0.1972656-0.6958008-0.5917969
		c0-0.1923828,0.0561523-0.3359375,0.1679688-0.4326172c0.1118164-0.0957031,0.2880859-0.1435547,0.527832-0.1435547h0.6479492
		V7.6992188L6.1196289,8.0751953c-0.0908203,0.0527344-0.184082,0.0800781-0.2802734,0.0800781
		c-0.1494141,0-0.2773438-0.0654297-0.3837891-0.1962891C5.3486328,7.828125,5.2954102,7.6826172,5.2954102,7.5224609
		c0-0.2177734,0.0932617-0.3837891,0.2802734-0.4951172l1.2797852-0.7441406
		C7.090332,6.1494141,7.3115234,6.0830078,7.5195313,6.0830078c0.2133789,0,0.3852539,0.0634766,0.5161133,0.1914063
		c0.1303711,0.1289063,0.1958008,0.3017578,0.1958008,0.5205078v3.7919922h0.65625
		C9.1274414,10.5869141,9.3037109,10.6347656,9.4155273,10.7304688z"/>
	<path d="M14.0039063,10.7265625c0.1142578,0.09375,0.171875,0.2392578,0.171875,0.4365234
		c0,0.2021484-0.0576172,0.3515625-0.171875,0.4482422c-0.1152344,0.0957031-0.2900391,0.1435547-0.5244141,0.1435547H10.559082
		c-0.1918945,0-0.34375-0.0576172-0.4555664-0.171875c-0.1123047-0.1152344-0.1679688-0.2597656-0.1679688-0.4365234
		c0-0.2285156,0.090332-0.4365234,0.2719727-0.6240234l1.6958008-1.7675781
		c0.3520508-0.3681641,0.527832-0.7070313,0.527832-1.015625c0-0.1816406-0.0517578-0.3203125-0.1557617-0.4160156
		c-0.1040039-0.0966797-0.2519531-0.1445313-0.4438477-0.1445313c-0.1547852,0-0.2978516,0.0224609-0.4282227,0.0683594
		c-0.1308594,0.0449219-0.28125,0.1103516-0.4521484,0.1962891l-0.159668,0.0791016
		c-0.0214844,0.0107422-0.0629883,0.0341797-0.1240234,0.0683594c-0.0615234,0.0351563-0.1162109,0.0605469-0.1640625,0.0761719
		c-0.0483398,0.015625-0.0986328,0.0234375-0.1523438,0.0234375c-0.1333008,0-0.2451172-0.0595703-0.3359375-0.1796875
		S9.8793945,7.2480469,9.8793945,7.0830078c0-0.1171875,0.0170898-0.2128906,0.0517578-0.2880859
		c0.034668-0.0742188,0.1000977-0.1435547,0.1962891-0.2080078c0.2504883-0.1708984,0.5317383-0.3037109,0.84375-0.4003906
		c0.3120117-0.0957031,0.6201172-0.1435547,0.9243164-0.1435547c0.3945313,0,0.7412109,0.0654297,1.0400391,0.1962891
		s0.5292969,0.3173828,0.6914063,0.5595703c0.1630859,0.2431641,0.2441406,0.5214844,0.2441406,0.8359375
		c0,0.3251953-0.0644531,0.6230469-0.1953125,0.8925781c-0.1308594,0.2685547-0.3535156,0.5693359-0.6679688,0.8994141
		l-1.1367188,1.1601563h1.6083984C13.7138672,10.5869141,13.8886719,10.6337891,14.0039063,10.7265625z"/>
	<path d="M18.5546875,9.3466797c0.1796875,0.2402344,0.2685547,0.53125,0.2685547,0.8720703
		c0,0.3251953-0.0878906,0.6083984-0.2636719,0.8476563c-0.1767578,0.2402344-0.4248047,0.4257813-0.7480469,0.5566406
		s-0.7001953,0.1962891-1.1318359,0.1962891c-0.3476563,0-0.6796875-0.046875-1-0.140625
		c-0.3203125-0.0927734-0.5976563-0.2275391-0.8320313-0.4042969c-0.0908203-0.0683594-0.1542969-0.1425781-0.1923828-0.2197266
		c-0.0371094-0.0771484-0.0556641-0.1689453-0.0556641-0.2753906c0-0.1660156,0.0449219-0.3056641,0.1357422-0.4208984
		c0.0908203-0.1142578,0.2021484-0.171875,0.3359375-0.171875c0.0751953,0,0.1416016,0.0126953,0.2001953,0.0361328
		c0.0585938,0.0244141,0.1386719,0.0625,0.2402344,0.1162109c0.0214844,0.0107422,0.046875,0.0224609,0.0761719,0.0361328
		s0.0625,0.0283203,0.0996094,0.0439453c0.1699219,0.0849609,0.3242188,0.1503906,0.4599609,0.1962891
		c0.1357422,0.0449219,0.2890625,0.0673828,0.4599609,0.0673828c0.2988281,0,0.5136719-0.0478516,0.6445313-0.1435547
		c0.1298828-0.0957031,0.1953125-0.2558594,0.1953125-0.4804688c0-0.2080078-0.0664063-0.3574219-0.1992188-0.4472656
		c-0.1337891-0.0908203-0.3525391-0.1367188-0.65625-0.1367188h-0.4960938c-0.1601563,0-0.2851563-0.0556641-0.3769531-0.1679688
		c-0.0898438-0.1113281-0.1347656-0.2451172-0.1347656-0.3994141c0-0.1552734,0.0449219-0.2880859,0.1347656-0.4003906
		c0.0917969-0.1123047,0.2167969-0.1679688,0.3769531-0.1679688h0.3515625c0.2929688,0,0.5068359-0.0429688,0.640625-0.1279297
		c0.1328125-0.0849609,0.1992188-0.2216797,0.1992188-0.4082031c0-0.1972656-0.0585938-0.3505859-0.1757813-0.4599609
		s-0.2792969-0.1640625-0.4882813-0.1640625c-0.1484375,0-0.2890625,0.0244141-0.4199219,0.0722656
		s-0.2753906,0.1123047-0.4355469,0.1923828l-0.1679688,0.0791016c-0.1015625,0.0537109-0.1816406,0.0927734-0.2402344,0.1162109
		c-0.0585938,0.0244141-0.125,0.0361328-0.2001953,0.0361328c-0.1337891,0-0.2451172-0.0576172-0.3359375-0.171875
		S14.6875,7.2480469,14.6875,7.0830078c0-0.1123047,0.0185547-0.2050781,0.0566406-0.2802734
		C14.78125,6.7285156,14.8447266,6.65625,14.9355469,6.5869141c0.2285156-0.1708984,0.5-0.3037109,0.8125-0.4003906
		C16.0595703,6.0908203,16.375,6.0429688,16.6953125,6.0429688c0.3945313,0,0.7421875,0.0634766,1.0439453,0.1923828
		c0.3017578,0.1279297,0.5332031,0.3085938,0.6962891,0.5439453c0.1621094,0.234375,0.2441406,0.5058594,0.2441406,0.8154297
		c0,0.2939453-0.0761719,0.5507813-0.2285156,0.7724609C18.2988281,8.5878906,18.0878906,8.75,17.8154297,8.8505859
		C18.1298828,8.9414063,18.3769531,9.1064453,18.5546875,9.3466797z"/>
</g>
</svg>
