<?xml version="1.0" encoding="utf-8"?>
<!-- Generator: Adobe Illustrator 16.0.0, SVG Export Plug-In . SVG Version: 6.00 Build 0)  -->
<!DOCTYPE svg PUBLIC "-//W3C//DTD SVG 1.1//EN" "http://www.w3.org/Graphics/SVG/1.1/DTD/svg11.dtd">
<svg version="1.1" id="Layer_1" xmlns="http://www.w3.org/2000/svg" xmlns:xlink="http://www.w3.org/1999/xlink" x="0px" y="0px"
	 width="36px" height="36px" viewBox="0 0 36 36" enable-background="new 0 0 36 36" xml:space="preserve">
<rect x="6" y="6" display="none" fill="#FF5EF4" width="24" height="24"/>
<g id="Daily_Accounting_27_">
	<g id="Icon_166_">
		<g>
			<path fill="#4B80FF" d="M19.8232422,27.0664063l-1.0048828,1.0039063v-4.1679688
				c0-0.4941406-0.4003906-0.8945313-0.8945313-0.8945313s-0.8945313,0.4003906-0.8945313,0.8945313v4.1679688l-1.0048828-1.0039063
				c-0.3496094-0.3496094-0.9169922-0.3496094-1.2666016,0s-0.3496094,0.9179688,0,1.2675781l2.5332031,2.53125
				c0.3486328,0.3496094,0.9160156,0.3496094,1.265625,0l2.5322266-2.53125c0.3505859-0.3496094,0.3505859-0.9179688,0-1.2675781
				S20.1728516,26.7167969,19.8232422,27.0664063L19.8232422,27.0664063z"/>
			<path fill="#4B80FF" d="M29.2597656,23.1816406c-0.4775391-0.1289063-0.96875,0.1542969-1.0976563,0.6328125
				l-0.3662109,1.3710938l-2.0849609-3.609375C25.4638672,21.1464844,24.9160156,21,24.4882813,21.2480469
				c-0.4287109,0.2460938-0.5751953,0.7949219-0.328125,1.2226563l2.0849609,3.6113281l-1.3720703-0.3691406
				c-0.4765625-0.1269531-0.96875,0.15625-1.0966797,0.6347656c-0.1279297,0.4765625,0.15625,0.9667969,0.6337891,1.0957031
				l3.4589844,0.9277344c0.4775391,0.1269531,0.96875-0.15625,1.0976563-0.6347656l0.9257813-3.4589844
				C30.0214844,23.8007813,29.7373047,23.3085938,29.2597656,23.1816406L29.2597656,23.1816406z"/>
			<path fill="#4B80FF" d="M10.9736328,25.7128906l-1.3710938,0.3691406l2.0839844-3.6113281
				c0.2470703-0.4277344,0.1005859-0.9765625-0.3271484-1.2226563C10.9296875,21,10.3828125,21.1464844,10.1357422,21.5761719
				l-2.0839844,3.609375l-0.3671875-1.3710938c-0.1279297-0.4785156-0.6191406-0.7617188-1.0966797-0.6328125
				c-0.4775391,0.1269531-0.7617188,0.6191406-0.6337891,1.0957031l0.9277344,3.4589844
				c0.1269531,0.4765625,0.6171875,0.7617188,1.0966797,0.6347656L11.4375,27.4433594
				c0.4765625-0.1289063,0.7607422-0.6191406,0.6328125-1.0976563
				C11.9423828,25.8691406,11.4511719,25.5859375,10.9736328,25.7128906L10.9736328,25.7128906z"/>
		</g>
		<path fill="#4B80FF" d="M17.984375,5.2792969c-4.5009766,0-8.1494141,3.6484375-8.1494141,8.1489258
			c0,4.5009766,3.6484375,8.1499023,8.1494141,8.1499023c4.5,0,8.1484375-3.6489258,8.1484375-8.1499023
			C26.1328125,8.9277344,22.484375,5.2792969,17.984375,5.2792969z M19,17.7939453v0.0961914
			c0,0.6186523-0.5009766,1.1196289-1.1210938,1.1196289c-0.6171875,0-1.1181641-0.5009766-1.1181641-1.1196289v-0.0092773
			c-0.4931641-0.1186523-0.9521484-0.3129883-1.3154297-0.5507813c-0.5175781-0.3383789-0.6630859-1.0332031-0.3242188-1.550293
			c0.3388672-0.5175781,1.0332031-0.6621094,1.5498047-0.3237305c0.4423828,0.2890625,1.1982422,0.4038086,1.5556641,0.2358398
			c0.234375-0.1108398,0.4140625-0.3457031,0.4394531-0.5717773c0.0546875-0.4814453-0.7148438-0.7548828-1.1630859-0.9316406
			c-0.6962891-0.2749023-1.5625-0.6171875-2.0654297-1.5263672c-0.7167969-1.293457-0.0927734-3.0004883,1.3232422-3.5878906
			V9.0268555c0-0.6186523,0.5009766-1.1196289,1.1201172-1.1196289c0.609375,0,1.1035156,0.4873047,1.1181641,1.0932617
			c0.3974609,0.125,0.7626953,0.3237305,1.0556641,0.5942383c0.4550781,0.4189453,0.4833984,1.1279297,0.0644531,1.5825195
			c-0.4199219,0.4545898-1.1279297,0.4838867-1.5839844,0.0639648c-0.1738281-0.1616211-0.7363281-0.2294922-0.9707031-0.0708008
			c-0.1542969,0.1035156-0.2226563,0.3100586-0.1679688,0.4067383c0.2304688,0.4160156,1.4570313,0.5644531,2.3808594,1.2851563
			C21.6738281,14.3388672,21.0283203,17.0097656,19,17.7939453z"/>
	</g>
</g>
</svg>
