<?xml version="1.0" encoding="utf-8"?>
<!-- Generator: Adobe Illustrator 16.0.0, SVG Export Plug-In . SVG Version: 6.00 Build 0)  -->
<!DOCTYPE svg PUBLIC "-//W3C//DTD SVG 1.1//EN" "http://www.w3.org/Graphics/SVG/1.1/DTD/svg11.dtd">
<svg version="1.1" id="Layer_1" xmlns="http://www.w3.org/2000/svg" xmlns:xlink="http://www.w3.org/1999/xlink" x="0px" y="0px"
	 width="26px" height="26px" viewBox="0 0 26 26" enable-background="new 0 0 26 26" xml:space="preserve">
<rect x="8" y="7.9995117" display="none" fill="#2BDAFF" width="10" height="9.9995117"/>
<g>
	<path fill="#FFFFFF" d="M9.2548828,8.0048828c-0.3183594,0-0.6347656,0.1210938-0.8779297,0.3632813
		c-0.4853516,0.484375-0.4853516,1.2685547,0,1.7539063l5.4013672,5.4033203h-2.3847656
		c-0.6855469,0-1.2402344,0.5546875-1.2402344,1.2402344c0,0.6835938,0.5546875,1.2402344,1.2402344,1.2402344h5.3789063
		c0.0009766,0,0.0019531,0,0.0019531,0c0.2050781,0,0.4082031-0.0527344,0.5878906-0.1503906h0.0019531
		c0.2226563-0.1230469,0.40625-0.3125,0.5195313-0.5390625c0.0859375-0.1699219,0.1289063-0.3613281,0.1289063-0.5507813v-5.3798828
		c0-0.6855469-0.5546875-1.2402344-1.2402344-1.2402344s-1.2402344,0.5546875-1.2402344,1.2402344v2.3842773l-5.4013672-5.4018555
		C9.8886719,8.1259766,9.5712891,8.0048828,9.2548828,8.0048828z"/>
</g>
</svg>
