<?xml version="1.0" encoding="utf-8"?>
<!-- Generator: Adobe Illustrator 16.0.0, SVG Export Plug-In . SVG Version: 6.00 Build 0)  -->
<!DOCTYPE svg PUBLIC "-//W3C//DTD SVG 1.1//EN" "http://www.w3.org/Graphics/SVG/1.1/DTD/svg11.dtd">
<svg version="1.1" id="Layer_1" xmlns="http://www.w3.org/2000/svg" xmlns:xlink="http://www.w3.org/1999/xlink" x="0px" y="0px"
	 width="26px" height="26px" viewBox="0 0 26 26" enable-background="new 0 0 26 26" xml:space="preserve">
<rect x="8" y="7.9995117" display="none" fill="#2BDAFF" width="10" height="9.9995117"/>
<g>
	<path fill="#FFFFFF" d="M16.7705078,18.0058594c0.3183594,0,0.6347656-0.1210938,0.8779297-0.3632813
		c0.4853516-0.484375,0.4853516-1.2685547,0-1.7539063l-5.4013672-5.4033203h2.3847656
		c0.6855469,0,1.2402344-0.5546875,1.2402344-1.2402344c0-0.6835938-0.5546875-1.2402344-1.2402344-1.2402344H9.2529297
		c-0.0009766,0-0.0019531,0-0.0019531,0c-0.2050781,0-0.4082031,0.0527344-0.5878906,0.1503906H8.6611328
		c-0.2226563,0.1230469-0.40625,0.3125-0.5195313,0.5390625C8.0556641,8.8642578,8.0126953,9.0556641,8.0126953,9.2451172V14.625
		c0,0.6855469,0.5546875,1.2402344,1.2402344,1.2402344s1.2402344-0.5546875,1.2402344-1.2402344v-2.3842773l5.4013672,5.4018555
		C16.1367188,17.8847656,16.4541016,18.0058594,16.7705078,18.0058594z"/>
</g>
</svg>
