<?xml version="1.0" encoding="utf-8"?>
<!-- Generator: Adobe Illustrator 16.0.0, SVG Export Plug-In . SVG Version: 6.00 Build 0)  -->
<!DOCTYPE svg PUBLIC "-//W3C//DTD SVG 1.1//EN" "http://www.w3.org/Graphics/SVG/1.1/DTD/svg11.dtd">
<svg version="1.1" id="Layer_1" xmlns="http://www.w3.org/2000/svg" xmlns:xlink="http://www.w3.org/1999/xlink" x="0px" y="0px"
	 width="16px" height="16px" viewBox="0 0 16 16" enable-background="new 0 0 16 16" xml:space="preserve">
<g>
	<g>
		<path fill="#FFFFFF" d="M7.3081055,11.6621094L1.2880859,5.6416016c-0.3828125-0.3828125-0.3828125-1.0029297,0-1.3857422
			s1.0039063-0.3828125,1.3867188,0l5.3261719,5.3261719l5.3271484-5.3261719c0.3828125-0.3828125,1.0029297-0.3828125,1.3857422,0
			s0.3828125,1.0029297,0,1.3857422l-6.0200195,6.0205078c-0.1914063,0.1914063-0.4418945,0.2871094-0.6928711,0.2871094
			S7.4995117,11.8535156,7.3081055,11.6621094z"/>
		<path fill="#FFFFFF" d="M1.9814453,2.96875c0.5292969,0,1.0263672,0.2060547,1.4003906,0.5800781l4.6191406,4.6191406
			l4.6201172-4.6191406c0.7480469-0.7480469,2.0527344-0.7470703,2.7998047,0c0.7724609,0.7714844,0.7724609,2.0283203,0,2.7998047
			l-6.0205078,6.0205078c-0.7470703,0.7480469-2.0517578,0.7480469-2.7998047,0L0.5810547,6.3486328
			c-0.7724609-0.7714844-0.7724609-2.0283203,0-2.7998047C0.9550781,3.1748047,1.4521484,2.96875,1.9814453,2.96875z"/>
	</g>
</g>
</svg>
