<?xml version="1.0" encoding="utf-8"?>
<!-- Generator: Adobe Illustrator 16.0.0, SVG Export Plug-In . SVG Version: 6.00 Build 0)  -->
<!DOCTYPE svg PUBLIC "-//W3C//DTD SVG 1.1//EN" "http://www.w3.org/Graphics/SVG/1.1/DTD/svg11.dtd">
<svg version="1.1" id="Layer_1" xmlns="http://www.w3.org/2000/svg" xmlns:xlink="http://www.w3.org/1999/xlink" x="0px" y="0px"
	 width="16px" height="12px" viewBox="0 0 16 12" enable-background="new 0 0 16 12" xml:space="preserve">
<path id="Checkmark_29_" fill="#FFFFFF" d="M15.4365234,3.3007813L7.2939453,11.4375
	C6.9296875,11.8007813,6.4482422,12,5.9277344,12s-1.0019531-0.1992188-1.3662109-0.5585938L0.8544922,7.734375
	C0.4902344,7.3671875,0.2910156,6.8808594,0.2910156,6.3662109c0-0.5166016,0.1992188-1.0009766,0.5634766-1.3681641
	c0.3623047-0.3652344,0.8544922-0.5664063,1.3691406-0.5664063c0.5136719,0,1,0.2011719,1.3662109,0.5644531l2.3378906,2.3369141
	l6.7724609-6.7685547C13.0634766,0.2011719,13.5478516,0,14.0664063,0c0.5146484,0,1.0107422,0.203125,1.3652344,0.5644531
	C16.1884766,1.3183594,16.1884766,2.5458984,15.4365234,3.3007813z"/>
</svg>
