<?xml version="1.0" encoding="utf-8"?>
<!-- Generator: Adobe Illustrator 16.0.0, SVG Export Plug-In . SVG Version: 6.00 Build 0)  -->
<!DOCTYPE svg PUBLIC "-//W3C//DTD SVG 1.1//EN" "http://www.w3.org/Graphics/SVG/1.1/DTD/svg11.dtd">
<svg version="1.1" id="Layer_1" xmlns="http://www.w3.org/2000/svg" xmlns:xlink="http://www.w3.org/1999/xlink" x="0px" y="0px"
	 width="26px" height="26px" viewBox="0 0 26 26" enable-background="new 0 0 26 26" xml:space="preserve">
<rect x="8" y="7.9995117" display="none" fill="#2BDAFF" width="10" height="9.9995117"/>
<g>
	<path fill="#FFFFFF" d="M25.0703125,15.046875L15.0332031,25.0673828c-1.1811523,1.1787109-2.9492188,1.1787109-4.125,0
		L0.8925781,15.046875c-1.1757813-1.1733398-1.2265625-3.0180664-0.0585938-4.1835938
		c1.1416016-1.1416016,3.0664063-1.0195313,4.1733398,0.090332l4.8945313,4.8950195c0,0,0.0161133-12.8540039,0.0161133-12.859375
		c0-0.8178711,0.3183594-1.605957,0.9130859-2.1660156c1.4335938-1.3432617,3.9423828-0.9848633,4.8955078,0.7353516
		c0.2412109,0.4350586,0.3681641,0.9316406,0.3652344,1.4306641l-0.0097656,12.859375c0,0,4.8886719-4.8925781,4.8925781-4.8950195
		c1.1113281-1.1123047,3.0283203-1.2236328,4.1640625-0.090332C26.3066406,12.0288086,26.2460938,13.8735352,25.0703125,15.046875z"
		/>
</g>
</svg>
