<?xml version="1.0" encoding="utf-8"?>
<!-- Generator: Adobe Illustrator 16.0.0, SVG Export Plug-In . SVG Version: 6.00 Build 0)  -->
<!DOCTYPE svg PUBLIC "-//W3C//DTD SVG 1.1//EN" "http://www.w3.org/Graphics/SVG/1.1/DTD/svg11.dtd">
<svg version="1.1" id="Layer_1" xmlns="http://www.w3.org/2000/svg" xmlns:xlink="http://www.w3.org/1999/xlink" x="0px" y="0px"
	 width="666px" height="458px" viewBox="0 0 666 458" enable-background="new 0 0 666 458" xml:space="preserve">
<g>
	<rect x="-3" y="-36" fill-rule="evenodd" clip-rule="evenodd" fill="#D6E1EB" width="712" height="551"/>
	<g>
		<g opacity="0.2">
			<ellipse cx="332.7338867" cy="407.7832031" rx="122.0493164" ry="16.2294922"/>
		</g>
		<g>
			<g>
				<g>
					<g>
						<path fill="#E67E22" d="M408.3515625,380.5625c-1.2333984,0-2.4804688-0.1259766-3.703125-0.3759766
							c-0.1748047-0.03125-0.3613281-0.0712891-0.546875-0.1210938L207.53125,333.8144531
							c-4.4443359-1.0419922-8.3808594-3.625-11.1074219-7.2861328l-0.1230469-0.15625
							c-2.4472656-3.3457031-3.7412109-7.3105469-3.7412109-11.4648438V145.3359375
							c0-3.4775391,1.0185547-6.8413086,2.9462891-9.7280273l0.6679688,0.3618164
							c-1.3310547,3.1040039-1.3701172,6.0576172-0.1132813,8.5405273c1.4970703,2.9594727,4.7480469,5.1547852,9.1513672,6.1801758
							l207.2929688,47.5717773c8.3271484,1.956543,14.1435547,9.2963867,14.1435547,17.8481445v146.109375
							C426.6484375,372.3349609,418.4394531,380.5625,408.3515625,380.5625z"/>
					</g>
					<g>
						<path fill="#2C2E30" d="M195.8232422,135.8188477c-3.2568359,7.5947266,1.28125,13.3745117,9.3017578,15.2426758
							c0.0234375,0.0073242,0.0458984,0.0073242,0.0693359,0.0151367l207.2246094,47.5576172
							c8.1132813,1.9057617,13.8476563,9.1420898,13.8476563,17.4760742v146.109375
							c0,10.1386719-8.2851563,17.9619141-17.9150391,17.9619141c-1.1933594,0-2.40625-0.1201172-3.625-0.3701172
							c-0.1757813-0.0302734-0.3525391-0.0683594-0.5273438-0.1142578l-196.5800781-46.2539063
							c-4.5517578-1.0664063-8.3955078-3.7207031-11.0029297-7.296875h-0.0078125
							c-2.3251953-3.1787109-3.6669922-7.0761719-3.6669922-11.2392578V145.3359375
							C192.9414063,141.8125,194,138.5488281,195.8232422,135.8188477 M195.1894531,135.3950195
							c-1.9707031,2.9506836-3.0117188,6.3881836-3.0117188,9.940918v169.5712891
							c0,4.2353516,1.3203125,8.2783203,3.8144531,11.6904297l0.2285156,0.3125h0.0117188
							c2.7753906,3.6503906,6.7421875,6.2285156,11.2128906,7.2763672l196.5791016,46.2539063
							c0.171875,0.0449219,0.3710938,0.0878906,0.5693359,0.1220703c1.2265625,0.2519531,2.4980469,0.3818359,3.7578125,0.3818359
							c10.2988281,0,18.6767578-8.4003906,18.6767578-18.7246094v-146.109375
							c0-8.7299805-5.9345703-16.2216797-14.4355469-18.2192383l-207.1962891-47.5498047l-0.0234375-0.0073242l-0.0644531-0.012207
							l-0.0097656-0.0019531c-4.2929688-1.0004883-7.453125-3.1240234-8.8984375-5.980957
							c-1.2041016-2.3798828-1.1611328-5.2216797,0.1230469-8.2182617L195.1894531,135.3950195L195.1894531,135.3950195z"/>
					</g>
				</g>
				<g>
					<g>
						<path fill="#FFFFFF" d="M196.8144531,162.1230469c-0.2558594,0-0.5175781-0.0649414-0.7558594-0.2016602
							c-1.6357422-0.9375-3.0224609-2.0327148-4.2373047-3.3481445c-0.5722656-0.6191406-0.5341797-1.5844727,0.0849609-2.1552734
							c0.6191406-0.5717773,1.5830078-0.5341797,2.1552734,0.0849609c1.0009766,1.0849609,2.1513672,1.9921875,3.5126953,2.7724609
							c0.7314453,0.4179688,0.984375,1.3500977,0.5664063,2.0805664
							C197.8583984,161.8476563,197.34375,162.1230469,196.8144531,162.1230469z"/>
					</g>
					<g>
						<path fill="#FFFFFF" d="M405.0478516,368.8896484c-0.1152344,0-0.2324219-0.0126953-0.3505859-0.0400391l-9.6064453-2.2617188
							c-0.8193359-0.1923828-1.328125-1.0126953-1.1357422-1.8330078c0.1933594-0.8203125,1.0166016-1.328125,1.8339844-1.1347656
							l9.6064453,2.2587891c0.8193359,0.1953125,1.3271484,1.015625,1.1357422,1.8349609
							C406.3652344,368.4160156,405.7402344,368.8896484,405.0478516,368.8896484z M413.5429688,366.1835938
							c-0.2158203,0-0.4316406-0.0439453-0.6396484-0.140625c-0.7646484-0.3525391-1.0986328-1.2587891-0.7431641-2.0244141
							c0.2519531-0.5488281,0.3808594-1.1533203,0.3808594-1.7988281v-7.3535156
							c0-0.8417969,0.6835938-1.5244141,1.5253906-1.5244141s1.5253906,0.6826172,1.5253906,1.5244141v7.3535156
							c0,1.0898438-0.2236328,2.1259766-0.6640625,3.078125
							C414.6699219,365.8554688,414.1181641,366.1835938,413.5429688,366.1835938z M385.8349609,364.3691406
							c-0.1162109,0-0.2333984-0.0126953-0.3505859-0.0400391l-9.6064453-2.2607422
							c-0.8203125-0.1933594-1.328125-1.0136719-1.1357422-1.8349609c0.1933594-0.8193359,1.015625-1.3271484,1.8339844-1.1347656
							l9.6074219,2.2607422c0.8183594,0.1933594,1.3261719,1.0146484,1.1347656,1.8330078
							C387.1523438,363.8955078,386.5263672,364.3691406,385.8349609,364.3691406z M366.6210938,359.8486328
							c-0.1152344,0-0.2324219-0.0136719-0.3505859-0.0410156l-9.6064453-2.2607422
							c-0.8193359-0.1933594-1.328125-1.0136719-1.1347656-1.8339844c0.1933594-0.8193359,1.0175781-1.3291016,1.8339844-1.1347656
							l9.6064453,2.2607422c0.8193359,0.1933594,1.3271484,1.0136719,1.1347656,1.8339844
							C367.9394531,359.375,367.3125,359.8486328,366.6210938,359.8486328z M347.4082031,355.328125
							c-0.1152344,0-0.2333984-0.0126953-0.3496094-0.0410156l-9.6074219-2.2607422
							c-0.8203125-0.1933594-1.328125-1.0136719-1.1357422-1.8330078c0.1933594-0.8203125,1.0136719-1.328125,1.8349609-1.1367188
							l9.6054688,2.2617188c0.8203125,0.1923828,1.3291016,1.0136719,1.1357422,1.8339844
							C348.7265625,354.8544922,348.0996094,355.328125,347.4082031,355.328125z M328.1953125,350.8066406
							c-0.1152344,0-0.2333984-0.0126953-0.3515625-0.0400391l-9.6054688-2.2597656
							c-0.8203125-0.1943359-1.328125-1.0146484-1.1347656-1.8349609c0.1923828-0.8183594,1.0126953-1.3271484,1.8330078-1.1357422
							l9.6064453,2.2617188c0.8203125,0.1923828,1.328125,1.0136719,1.1347656,1.8330078
							C329.5136719,350.3330078,328.8867188,350.8066406,328.1953125,350.8066406z M414.0664063,346.5224609
							c-0.8417969,0-1.5253906-0.6826172-1.5253906-1.5244141v-9.8691406c0-0.8417969,0.6835938-1.5253906,1.5253906-1.5253906
							s1.5253906,0.6835938,1.5253906,1.5253906v9.8691406
							C415.5917969,345.8398438,414.9082031,346.5224609,414.0664063,346.5224609z M308.9824219,346.2861328
							c-0.1162109,0-0.234375-0.0126953-0.3505859-0.0400391l-9.6064453-2.2597656
							c-0.8203125-0.1943359-1.328125-1.015625-1.1347656-1.8349609c0.1914063-0.8193359,1.0117188-1.3291016,1.8330078-1.1357422
							l9.6064453,2.2617188c0.8193359,0.1933594,1.3271484,1.0136719,1.1347656,1.8339844
							C310.2998047,345.8125,309.6738281,346.2861328,308.9824219,346.2861328z M289.7695313,341.765625
							c-0.1171875,0-0.2333984-0.0126953-0.3515625-0.0400391l-9.6054688-2.2607422
							c-0.8203125-0.1933594-1.3291016-1.0136719-1.1357422-1.8339844c0.1923828-0.8193359,1.0117188-1.3300781,1.8330078-1.1357422
							l9.6074219,2.2607422c0.8203125,0.1933594,1.328125,1.0136719,1.1347656,1.8339844
							C291.0869141,341.2929688,290.4599609,341.765625,289.7695313,341.765625z M270.5566406,337.2451172
							c-0.1171875,0-0.234375-0.0126953-0.3515625-0.0400391l-9.6064453-2.2617188
							c-0.8193359-0.1933594-1.328125-1.0136719-1.1357422-1.8339844c0.1933594-0.8193359,1.015625-1.3261719,1.8339844-1.1347656
							l9.6064453,2.2607422c0.8203125,0.1933594,1.3291016,1.0146484,1.1357422,1.8339844
							C271.8730469,336.7714844,271.2470703,337.2451172,270.5566406,337.2451172z M251.3427734,332.7246094
							c-0.1152344,0-0.2333984-0.0126953-0.3505859-0.0400391l-9.6074219-2.2617188
							c-0.8193359-0.1923828-1.3271484-1.0136719-1.1347656-1.8330078c0.1933594-0.8203125,1.015625-1.328125,1.8339844-1.1357422
							l9.6064453,2.2607422c0.8203125,0.1933594,1.328125,1.0136719,1.1357422,1.8339844
							C252.6601563,332.2509766,252.0351563,332.7246094,251.3427734,332.7246094z M232.1298828,328.203125
							c-0.1162109,0-0.2333984-0.0117188-0.3505859-0.0390625l-9.6064453-2.2607422
							c-0.8203125-0.1943359-1.328125-1.0146484-1.1357422-1.8349609c0.1933594-0.8193359,1.0166016-1.3271484,1.8339844-1.1347656
							l9.6074219,2.2607422c0.8183594,0.1933594,1.3261719,1.0136719,1.1347656,1.8330078
							C233.4472656,327.7304688,232.8212891,328.203125,232.1298828,328.203125z M414.0664063,326.7851563
							c-0.8417969,0-1.5253906-0.6835938-1.5253906-1.5253906v-9.8691406c0-0.8417969,0.6835938-1.5244141,1.5253906-1.5244141
							s1.5253906,0.6826172,1.5253906,1.5244141v9.8691406
							C415.5917969,326.1015625,414.9082031,326.7851563,414.0664063,326.7851563z M212.9160156,323.6835938
							c-0.1152344,0-0.2324219-0.0136719-0.3505859-0.0410156l-2.5019531-0.5898438
							c-2.7314453-0.5097656-5.1162109-1.1337891-7.2216797-1.8916016
							c-0.7929688-0.2851563-1.2041016-1.1582031-0.9179688-1.9511719c0.2841797-0.7919922,1.1591797-1.2021484,1.9511719-0.9189453
							c1.9501953,0.703125,4.1796875,1.2851563,6.8193359,1.7792969l2.5703125,0.6035156
							c0.8193359,0.1933594,1.3271484,1.0136719,1.1347656,1.8339844
							C214.234375,323.2089844,213.6074219,323.6835938,212.9160156,323.6835938z M414.0664063,307.046875
							c-0.8417969,0-1.5253906-0.6835938-1.5253906-1.5253906v-9.8691406c0-0.8417969,0.6835938-1.5244141,1.5253906-1.5244141
							s1.5253906,0.6826172,1.5253906,1.5244141v9.8691406C415.5917969,306.3632813,414.9082031,307.046875,414.0664063,307.046875z
							 M414.0664063,287.3085938c-0.8417969,0-1.5253906-0.6826172-1.5253906-1.5253906v-9.8681641
							c0-0.8427734,0.6835938-1.5244141,1.5253906-1.5244141s1.5253906,0.6816406,1.5253906,1.5244141v9.8681641
							C415.5917969,286.6259766,414.9082031,287.3085938,414.0664063,287.3085938z M414.0664063,267.5703125
							c-0.8417969,0-1.5253906-0.6826172-1.5253906-1.5253906v-9.8671875c0-0.8427734,0.6835938-1.5253906,1.5253906-1.5253906
							s1.5253906,0.6826172,1.5253906,1.5253906v9.8671875
							C415.5917969,266.8876953,414.9082031,267.5703125,414.0664063,267.5703125z M414.0664063,247.8339844
							c-0.8417969,0-1.5253906-0.6826172-1.5253906-1.5253906v-9.8691406c0-0.8417969,0.6835938-1.5253906,1.5253906-1.5253906
							s1.5253906,0.6835938,1.5253906,1.5253906v9.8691406
							C415.5917969,247.1513672,414.9082031,247.8339844,414.0664063,247.8339844z M414.0664063,228.0957031
							c-0.8417969,0-1.5253906-0.6826172-1.5253906-1.5249023v-9.8691406c0-0.8422852,0.6835938-1.5249023,1.5253906-1.5249023
							s1.5253906,0.6826172,1.5253906,1.5249023v9.8691406
							C415.5917969,227.4130859,414.9082031,228.0957031,414.0664063,228.0957031z M408.1113281,211.6875
							c-0.1132813,0-0.2275391-0.0117188-0.3417969-0.0375977l-9.6191406-2.2080078
							c-0.8212891-0.1884766-1.3339844-1.0068359-1.1445313-1.8266602c0.1875-0.8217773,1.0078125-1.331543,1.8271484-1.1459961
							l9.6181641,2.2080078c0.8212891,0.1879883,1.3330078,1.0063477,1.1445313,1.8266602
							C409.4335938,211.2099609,408.8066406,211.6875,408.1113281,211.6875z M388.8740234,207.2729492
							c-0.1132813,0-0.2275391-0.012207-0.3427734-0.0390625l-9.6191406-2.2075195
							c-0.8203125-0.1879883-1.3330078-1.0068359-1.1445313-1.8276367c0.1884766-0.8198242,1.0097656-1.3305664,1.8261719-1.1445313
							l9.6191406,2.2075195c0.8222656,0.1884766,1.3339844,1.0063477,1.1464844,1.8276367
							C390.1972656,206.7949219,389.5683594,207.2729492,388.8740234,207.2729492z M369.6367188,202.8579102
							c-0.1132813,0-0.2285156-0.0117188-0.34375-0.0385742l-9.6181641-2.2075195
							c-0.8212891-0.1889648-1.3339844-1.0068359-1.1455078-1.8276367c0.1884766-0.8203125,1.0097656-1.3310547,1.8271484-1.1450195
							l9.6201172,2.2080078c0.8203125,0.1879883,1.3320313,1.0063477,1.1445313,1.8266602
							C370.9589844,202.3808594,370.3310547,202.8579102,369.6367188,202.8579102z M350.3984375,198.4433594
							c-0.1132813,0-0.2275391-0.012207-0.3427734-0.0390625l-9.6181641-2.2070313
							c-0.8212891-0.1894531-1.3339844-1.0068359-1.1455078-1.828125s1.0087891-1.3305664,1.8271484-1.1445313l9.6191406,2.2075195
							c0.8203125,0.1884766,1.3339844,1.0063477,1.1445313,1.8271484
							C351.7207031,197.9648438,351.09375,198.4433594,350.3984375,198.4433594z M331.1611328,194.0273438
							c-0.1132813,0-0.2285156-0.0117188-0.3427734-0.0385742l-9.6191406-2.2070313
							c-0.8203125-0.1879883-1.3339844-1.0068359-1.1455078-1.8271484c0.1884766-0.8208008,1.0107422-1.3300781,1.8271484-1.1455078
							L331.5,191.0161133c0.8222656,0.1889648,1.3339844,1.0068359,1.1455078,1.8276367
							C332.484375,193.5498047,331.8554688,194.0273438,331.1611328,194.0273438z M311.9228516,189.612793
							c-0.1132813,0-0.2275391-0.0117188-0.3427734-0.0385742l-9.6181641-2.2070313
							c-0.8212891-0.1884766-1.3339844-1.0068359-1.1455078-1.8276367c0.1894531-0.8208008,1.0087891-1.3291016,1.8271484-1.1450195
							l9.6181641,2.2070313c0.8212891,0.1879883,1.3339844,1.0068359,1.1464844,1.8276367
							C313.2460938,189.1342773,312.6181641,189.612793,311.9228516,189.612793z M292.6855469,185.1982422
							c-0.1132813,0-0.2275391-0.012207-0.3427734-0.0390625l-9.6191406-2.2070313
							c-0.8212891-0.1879883-1.3330078-1.0068359-1.1455078-1.8276367c0.1894531-0.8203125,1.0087891-1.3310547,1.828125-1.1450195
							l9.6191406,2.2070313c0.8203125,0.1884766,1.3339844,1.0068359,1.1445313,1.8271484
							C294.0078125,184.7197266,293.3808594,185.1982422,292.6855469,185.1982422z M273.4472656,180.7827148
							c-0.1132813,0-0.2265625-0.0117188-0.3417969-0.0380859l-9.6191406-2.2084961
							c-0.8203125-0.1884766-1.3339844-1.0068359-1.1445313-1.8266602c0.1875-0.8212891,1.0097656-1.3305664,1.8261719-1.1459961
							l9.6191406,2.2084961c0.8212891,0.1879883,1.3339844,1.0068359,1.1455078,1.8271484
							C274.7714844,180.3046875,274.1425781,180.7827148,273.4472656,180.7827148z M254.2099609,176.3681641
							c-0.1132813,0-0.2275391-0.012207-0.3427734-0.0390625l-9.6181641-2.2080078
							c-0.8212891-0.1879883-1.3339844-1.0068359-1.1455078-1.8271484s1.0087891-1.3295898,1.828125-1.1450195l9.6171875,2.2075195
							c0.8212891,0.1884766,1.3339844,1.0068359,1.1464844,1.828125
							C255.5332031,175.8901367,254.9042969,176.3681641,254.2099609,176.3681641z M234.9726563,171.953125
							c-0.1132813,0-0.2285156-0.0126953-0.3427734-0.0385742l-9.6191406-2.2080078
							c-0.8212891-0.1884766-1.3330078-1.0063477-1.1445313-1.8271484s1.0097656-1.3320313,1.8271484-1.1455078l9.6191406,2.2080078
							c0.8203125,0.1879883,1.3339844,1.0068359,1.1445313,1.8266602
							C236.2949219,171.4755859,235.6669922,171.953125,234.9726563,171.953125z M215.734375,167.5385742
							c-0.1132813,0-0.2275391-0.0131836-0.3417969-0.0390625l-9.6191406-2.2075195
							c-0.8212891-0.1889648-1.3339844-1.0068359-1.1455078-1.8276367s1.0087891-1.331543,1.8271484-1.1445313l9.6191406,2.2070313
							c0.8203125,0.1884766,1.3339844,1.0068359,1.1445313,1.8271484
							C217.0566406,167.0600586,216.4296875,167.5385742,215.734375,167.5385742z"/>
					</g>
					<g>
						<path fill="#FFFFFF" d="M195.1337891,315.9609375c-0.4423828,0-0.8818359-0.1914063-1.1826172-0.5605469
							c-1.2080078-1.484375-2.046875-3.1679688-2.4921875-5.0029297c-0.1992188-0.8183594,0.3046875-1.6435547,1.1230469-1.8408203
							c0.8183594-0.2021484,1.6425781,0.3046875,1.8417969,1.1220703c0.3359375,1.3896484,0.9726563,2.6669922,1.8916016,3.7939453
							c0.5322266,0.6533203,0.4345703,1.6132813-0.2177734,2.1464844
							C195.8144531,315.8486328,195.4726563,315.9609375,195.1337891,315.9609375z"/>
					</g>
				</g>
				<g opacity="0.55">
					<g>
						<path fill="#FFFFFF" d="M195.1054688,143.09375c-1.3789063,2.4702148-2.1640625,5.3139648-2.1640625,8.3413086v-6.0996094
							c0-3.5234375,1.0585938-6.7866211,2.8818359-9.5166016C194.671875,138.503418,194.4960938,140.9589844,195.1054688,143.09375z
							"/>
					</g>
					<g>
						<path fill="none" stroke="#2C2E30" stroke-width="0" stroke-miterlimit="10" d="M195.1054688,143.09375
							c-1.3789063,2.4702148-2.1640625,5.3139648-2.1640625,8.3413086v-6.0996094
							c0-3.5234375,1.0585938-6.7866211,2.8818359-9.5166016C194.671875,138.503418,194.4960938,140.9589844,195.1054688,143.09375z
							"/>
					</g>
				</g>
				<g opacity="0.55">
					<path fill="#FFFFFF" d="M426.2666016,216.1103516v6.0996094c0-8.3334961-5.734375-15.5698242-13.8476563-17.4755859
						l-207.2246094-47.5576172c-0.0234375-0.0078125-0.0458984-0.0078125-0.0693359-0.0151367
						c-7.4414063-1.730957-11.8867188-6.8320313-9.8808594-13.6259766c1.25,3.6904297,4.8876953,6.3671875,9.8808594,7.5258789
						c0.0234375,0.0073242,0.0458984,0.0073242,0.0693359,0.0151367l207.2246094,47.5576172
						C420.5322266,200.5400391,426.2666016,207.7763672,426.2666016,216.1103516z"/>
				</g>
				<g opacity="0.55">
					<g>
						<path fill="#FFFFFF" d="M195.8232422,141.9189453c-0.2363281,0.5493164-0.4267578,1.0908203-0.5791016,1.6166992
							c-0.0537109-0.1445313-0.0996094-0.2895508-0.1386719-0.4418945
							C195.328125,142.6972656,195.5644531,142.300293,195.8232422,141.9189453z"/>
					</g>
					<g>
						<path fill="none" stroke="#2C2E30" stroke-width="0" stroke-miterlimit="10" d="M195.8232422,141.9189453
							c-0.2363281,0.5493164-0.4267578,1.0908203-0.5791016,1.6166992
							c-0.0537109-0.1445313-0.0996094-0.2895508-0.1386719-0.4418945
							C195.328125,142.6972656,195.5644531,142.300293,195.8232422,141.9189453z"/>
					</g>
				</g>
				<g>
					<path fill="#2C2E30" d="M408.3457031,382.46875c-1.3574219,0-2.7226563-0.1376953-4.0800781-0.4169922
						c-0.171875-0.0273438-0.4101563-0.0800781-0.6484375-0.1425781l-196.5214844-46.2392578
						c-9.6806641-2.2734375-16.4423828-10.8105469-16.4423828-20.7626953V145.3359375
						c0-3.8554688,1.1298828-7.5849609,3.2675781-10.7871094c0.65625-0.9829102,1.9541016-1.3037109,2.9921875-0.7412109
						c1.0400391,0.5639648,1.4785156,1.8261719,1.0126953,2.9125977c-1.1171875,2.6064453-1.171875,4.9379883-0.1640625,6.9296875
						c1.2373047,2.4448242,4.0341797,4.2856445,7.875,5.1826172c0.0234375,0.0043945,0.046875,0.0097656,0.0693359,0.0141602
						l207.2246094,47.5576172c9.2021484,2.1621094,15.6230469,10.2651367,15.6230469,19.7060547v146.109375
						c0,6.1074219-2.7138672,11.8232422-7.4462891,15.6835938C417.4511719,380.8857422,412.9550781,382.46875,408.3457031,382.46875
						z M195.2285156,148.0356445v166.871582c0,7.8173828,5.3105469,14.5234375,12.9140625,16.3095703l196.5800781,46.2539063
						c0.1699219,0.0439453,0.2832031,0.0673828,0.3945313,0.0878906c4.6855469,0.9589844,9.4355469-0.2099609,13.0996094-3.2001953
						c3.6621094-2.9873047,5.7617188-7.4111328,5.7617188-12.1386719v-146.109375
						c0-7.3071289-4.96875-13.5786133-12.0830078-15.2490234l-207.2128906-47.5546875
						c-0.0234375-0.0048828-0.0498047-0.0112305-0.0751953-0.0175781l-0.0009766,0.0004883
						C200.5839844,152.3535156,197.3476563,150.5244141,195.2285156,148.0356445z"/>
				</g>
				<g>
					<g>
						<path fill="#E67E22" d="M439.6103516,204.2231445c0-4.7612305-1.8769531-9.222168-5.2851563-12.5605469
							c-2.2851563-2.2382813-5.140625-3.8100586-8.2617188-4.5454102l-217.0439453-47.9208984h230.8037109
							c5.5986328,0,10.8173828,2.512207,14.3193359,6.8916016c2.6289063,3.2695313,4.0195313,7.2280273,4.0195313,11.4477539
							v147.0932617c0,2.0410156-0.3359375,4.0449219-0.9980469,5.9570313
							c-1.7646484,5.1425781-5.6884766,9.2060547-10.7607422,11.1513672
							c-2.046875,0.7822266-4.2021484,1.1914063-6.4082031,1.2148438l-0.3847656,0.0029297V204.2231445z"/>
					</g>
					<g>
						<g>
							<path fill="#2C2E30" d="M439.8232422,139.5776367c5.6806641,0,10.7353516,2.6381836,14.0214844,6.7490234
								c2.4716797,3.0727539,3.9355469,6.96875,3.9355469,11.2089844v147.0932617
								c0,2.0429688-0.34375,4.0029297-0.9755859,5.8339844c-1.7236328,5.0166016-5.6044922,9.0273438-10.5380859,10.9179688
								c-1.953125,0.7480469-4.0644531,1.1660156-6.2753906,1.1894531v-118.347168
								c0-4.9633789-2.0351563-9.5385742-5.3994141-12.8330078c-2.2792969-2.2338867-5.1699219-3.8735352-8.4404297-4.6435547
								l-213.6367188-47.1689453H439.8232422 M439.8232422,138.8154297H212.5146484h-6.9912109l6.8261719,1.5068359
								l213.6367188,47.1689453c3.0429688,0.715332,5.8369141,2.2529297,8.0712891,4.4428711
								c3.3349609,3.2670898,5.171875,7.6303711,5.171875,12.2890625v118.347168v0.7714844l0.7695313-0.0087891
								c2.2509766-0.0244141,4.4521484-0.4404297,6.5400391-1.2392578
								c5.1777344-1.9863281,9.1835938-6.1347656,10.9863281-11.3837891
								c0.6738281-1.9521484,1.0166016-3.9970703,1.0166016-6.0810547V157.5356445
								c0-4.3076172-1.4179688-8.3491211-4.1025391-11.6870117
								C450.8662109,141.3789063,445.5390625,138.8154297,439.8232422,138.8154297L439.8232422,138.8154297z"/>
						</g>
					</g>
				</g>
				<g opacity="0.3">
					<path fill="#2C2E30" d="M457.7802734,157.5351563v147.09375c0,2.0429688-0.34375,4.0039063-0.9755859,5.8339844
						c-1.7236328,5.0166016-5.6044922,9.0273438-10.5380859,10.9179688
						c-1.953125,0.7480469-4.0644531,1.1679688-6.2753906,1.1894531v-118.347168
						c0-4.9643555-2.0351563-9.5390625-5.3994141-12.8330078v-32.2006836l4.0654297-2.2871094
						c9.6972656-0.2744141,17.15625-2.1201172,15.1875-10.5756836
						C456.3164063,149.3994141,457.7802734,153.2954102,457.7802734,157.5351563z"/>
				</g>
				<g>
					<path fill="#2C2E30" d="M439.9912109,324.8574219c-0.6025391,0-1.1806641-0.2363281-1.609375-0.6601563
						c-0.4335938-0.4296875-0.6787109-1.015625-0.6787109-1.6269531v-118.347168
						c0-7.3066406-4.9648438-13.5776367-12.0751953-15.2504883l-213.6064453-47.1611328
						c-1.1396484-0.2509766-1.9082031-1.3208008-1.78125-2.4814453s1.1074219-2.0395508,2.2744141-2.0395508h227.3085938
						c11.1630859,0,20.2451172,9.081543,20.2451172,20.2451172v147.0932617c0,2.2539063-0.3710938,4.4677734-1.1025391,6.5810547
						c-1.9472656,5.6728516-6.2783203,10.1591797-11.8808594,12.3076172
						c-2.2587891,0.8632813-4.6367188,1.3164063-7.0703125,1.3398438
						C440.0068359,324.8574219,439.9990234,324.8574219,439.9912109,324.8574219z M233.4853516,141.8652344l193.1591797,42.6474609
						c9.2167969,2.1674805,15.6347656,10.2700195,15.6347656,19.7104492v115.8686523
						c1.0810547-0.171875,2.1416016-0.453125,3.1679688-0.8466797c4.3339844-1.6611328,7.6845703-5.1337891,9.1933594-9.5263672
						c0.5644531-1.6357422,0.8515625-3.3457031,0.8515625-5.0898438V157.5356445
						c0-8.6411133-7.0292969-15.6704102-15.6689453-15.6704102H233.4853516z"/>
				</g>
				<g opacity="0.3">
					<polygon fill="#2C2E30" points="216.3232422,140.4194336 261.5273438,140.4194336 263.3886719,149.6582031 					"/>
				</g>
				<g opacity="0.3">
					<path fill="#2C2E30" d="M290.9755859,156.9023438H293.1875h11.7568359h97.9892578h11.765625h21.4804688
						c17.1552734,0.3354492,20.5107422-5.5356445,16.3398438-12.0629883
						c-5.3574219-6.8896484-18.5839844-6.3334961-34.0693359-3.640625L290.9755859,156.9023438z"/>
				</g>
				<g>
					<g>
						<path fill="#D3623B" d="M413.4384766,381.2138672c-2.8359375,0-5.7958984-0.3457031-8.7978516-1.0302734l0.1611328-0.7460938
							c1.1728516,0.2402344,2.3671875,0.3632813,3.5498047,0.3632813c9.6679688,0,17.5341797-7.8867188,17.5341797-17.5810547
							v-146.109375c0-2.7216797-0.6445313-5.4418945-1.859375-7.8657227
							c-2.3408203-4.675293-6.6044922-8.043457-11.6953125-9.2397461l-207.3242188-47.5810547
							c-4.5947266-1.0683594-8.0253906-3.4047852-9.6259766-6.5693359
							c-1.3623047-2.6914063-1.3310547-5.8676758,0.0917969-9.1855469
							c3.2958984-4.9506836,8.7509766-7.8706055,14.6240234-7.8706055h241.6748047
							c10.1123047,0,18.3388672,8.2265625,18.3388672,18.3378906v147.0942383
							c0.2568359,19.3251953-7.7988281,24.7675781-23.7568359,28.5214844l-0.2246094-0.7265625
							c4.8623047-1.8632813,8.6210938-5.7587891,10.3144531-10.6875c0.6337891-1.8320313,0.9560547-3.7529297,0.9560547-5.7089844
							V157.5356445c0-1.6040039-0.2128906-3.1748047-0.6347656-4.6699219l-0.0136719-0.0512695v-0.015625
							c-2.1064453-7.5625-9.0615234-12.8398438-16.9277344-12.8398438H216.0097656l210.2236328,46.4155273
							c5.8095703,1.3686523,10.6005859,5.4926758,12.8222656,11.0356445
							c0.8730469,2.1582031,1.3173828,4.4506836,1.3173828,6.8129883v145.4008789
							c0.6328125,9.8193359-1.8417969,18.0175781-7.1582031,23.6875
							C428.3681641,378.4814453,421.5292969,381.2138672,413.4384766,381.2138672z"/>
					</g>
					<g>
						<g>
							<path fill="#2C2E30" d="M451.7714844,128.1796875c9.9199219,0,17.9570313,8.043457,17.9570313,17.956543v147.0942383
								c0.2587891,19.4130859-8.1972656,24.5595703-23.4619141,28.1503906
								c4.9335938-1.890625,8.8144531-5.9013672,10.5380859-10.9179688
								c0.6318359-1.8310547,0.9755859-3.7910156,0.9755859-5.8339844V157.5356445
								c0-1.6552734-0.2216797-3.2568359-0.6474609-4.7739258v-0.0146484
								c-2.0898438-7.5878906-9.0517578-13.1694336-17.3095703-13.1694336H212.5146484l213.6367188,47.1689453
								c5.8251953,1.3730469,10.4228516,5.4975586,12.5507813,10.8046875
								c0.8388672,2.0732422,1.2890625,4.3305664,1.2890625,6.671875v145.4008789
								c1.2861328,19.9814453-10.4384766,31.2089844-26.5527344,31.2089844c-2.7880859,0-5.7060547-0.3359375-8.7119141-1.0214844
								c1.21875,0.25,2.4326172,0.3701172,3.625,0.3701172c9.6308594,0,17.9150391-7.8232422,17.9150391-17.9619141v-146.109375
								c0-2.8666992-0.6787109-5.6040039-1.8984375-8.0366211c-2.3271484-4.6435547-6.6259766-8.1889648-11.9492188-9.4394531
								l-207.2246094-47.5576172c-0.0234375-0.0078125-0.0458984-0.0078125-0.0693359-0.0151367
								c-8.0205078-1.8681641-12.5585938-7.6479492-9.3017578-15.2426758
								c3.0732422-4.6054688,8.3183594-7.6391602,14.2734375-7.6391602H451.7714844 M451.7714844,127.4169922H210.0966797
								c-6.0009766,0-11.5732422,2.9829102-14.9082031,7.9790039l-0.0380859,0.0585938l-0.0283203,0.0649414
								c-1.4677734,3.4243164-1.4970703,6.7124023-0.0830078,9.5073242
								c1.6503906,3.2592773,5.1582031,5.6630859,9.8808594,6.7700195l0.0234375,0.0083008l0.0693359,0.012207l0.0107422,0.0019531
								l207.2246094,47.5576172c4.9765625,1.1699219,9.1464844,4.4643555,11.4384766,9.0385742
								c1.1884766,2.371582,1.8173828,5.0317383,1.8173828,7.6948242v146.109375
								c0,9.484375-7.6953125,17.1992188-17.1523438,17.1992188c-1.15625,0-2.3251953-0.1191406-3.4746094-0.3544922
								l-0.3203125,1.4912109c3.0292969,0.6894531,6.0166016,1.0390625,8.8818359,1.0390625
								c8.1992188,0,15.1337891-2.7734375,20.0537109-8.0214844c5.3867188-5.7441406,7.8964844-14.0322266,7.2607422-23.9726563
								V204.2231445c0-2.4111328-0.4521484-4.7519531-1.3447266-6.9580078
								c-2.265625-5.6547852-7.1552734-9.8647461-13.0820313-11.2607422L219.5039063,140.340332h220.3193359
								c7.6796875,0,14.4707031,5.1391602,16.5458984,12.5112305v0.0004883l0.0273438,0.1157227
								c0.4130859,1.4619141,0.6220703,2.9990234,0.6220703,4.5678711v147.0932617
								c0,1.9121094-0.3144531,3.7929688-0.9355469,5.5839844c-1.65625,4.8222656-5.3330078,8.6328125-10.0888672,10.4570313
								l0.4472656,1.4541016c6.6503906-1.5654297,13.4267578-3.6611328,17.9277344-8.3574219
								c4.3037109-4.4892578,6.2490234-11.0185547,6.1220703-20.546875V146.1362305
								C470.4912109,135.8139648,462.0927734,127.4169922,451.7714844,127.4169922L451.7714844,127.4169922z"/>
						</g>
					</g>
				</g>
				<g opacity="0.55">
					<g>
						<path fill="#FFFFFF" d="M426.2666016,362.2197266v4.765625c0,5.2011719-2.1816406,9.7988281-5.6123047,13.0322266
							c-4.7890625,1.1347656-10.203125,1.0976563-15.9296875-0.2060547
							C415.8046875,382.0839844,426.2666016,373.6123047,426.2666016,362.2197266z"/>
					</g>
					<g>
						<path fill="none" stroke="#2C2E30" stroke-width="0" stroke-miterlimit="10" d="M426.2666016,362.2197266v4.765625
							c0,5.2011719-2.1816406,9.7988281-5.6123047,13.0322266c-4.7890625,1.1347656-10.203125,1.0976563-15.9296875-0.2060547
							C415.8046875,382.0839844,426.2666016,373.6123047,426.2666016,362.2197266z"/>
					</g>
				</g>
				<g opacity="0.55">
					<g>
						<path fill="#FFFFFF" d="M439.9912109,349.6240234c0.1210938,1.8535156,0.1289063,3.6367188,0.0292969,5.3378906
							c-0.0068359-0.1904297-0.0146484-0.3818359-0.0292969-0.5722656V349.6240234z"/>
					</g>
					<g>
						<path fill="none" stroke="#2C2E30" stroke-width="0" stroke-miterlimit="10" d="M439.9912109,349.6240234
							c0.1210938,1.8535156,0.1289063,3.6367188,0.0292969,5.3378906c-0.0068359-0.1904297-0.0146484-0.3818359-0.0292969-0.5722656
							V349.6240234z"/>
					</g>
				</g>
				<g opacity="0.55">
					<g>
						<path fill="#FFFFFF" d="M456.8046875,310.4628906c0.6318359-1.8300781,0.9755859-3.7910156,0.9755859-5.8339844v4.765625
							c0,2.0429688-0.34375,4.0039063-0.9755859,5.8339844c-0.4199219,1.2265625-0.9765625,2.3935547-1.6396484,3.484375
							c-2.6386719,1.0517578-5.6132813,1.8984375-8.8984375,2.6679688
							C451.2001953,319.4902344,455.0810547,315.4794922,456.8046875,310.4628906z"/>
					</g>
					<g>
						<path fill="none" stroke="#2C2E30" stroke-width="0" stroke-miterlimit="10" d="M456.8046875,310.4628906
							c0.6318359-1.8300781,0.9755859-3.7910156,0.9755859-5.8339844v4.765625c0,2.0429688-0.34375,4.0039063-0.9755859,5.8339844
							c-0.4199219,1.2265625-0.9765625,2.3935547-1.6396484,3.484375c-2.6386719,1.0517578-5.6132813,1.8984375-8.8984375,2.6679688
							C451.2001953,319.4902344,455.0810547,315.4794922,456.8046875,310.4628906z"/>
					</g>
				</g>
				<g opacity="0.55">
					<path fill="#FFFFFF" d="M469.7285156,146.1362305v4.765625c0-9.9130859-8.0371094-17.9570313-17.9570313-17.9570313
						H210.0966797c-5.9550781,0-11.2001953,3.0341797-14.2734375,7.6396484
						c-0.3427734,0.8007813-0.5947266,1.5786133-0.7705078,2.3334961c-0.5488281-2.097168-0.3505859-4.4907227,0.7705078-7.0991211
						c3.0732422-4.6054688,8.3183594-7.6396484,14.2734375-7.6396484h241.6748047
						C461.6914063,128.1791992,469.7285156,136.2231445,469.7285156,146.1362305z"/>
				</g>
				<g opacity="0.3">
					<path fill="#2C2E30" d="M439.9912109,349.6240234c1.5097656,23.4394531-14.8847656,34.8310547-35.2666016,30.1875
						c11.0800781,2.2724609,21.5419922-6.1992188,21.5419922-17.5917969v-146.109375
						c0-2.8666992-0.6787109-5.6044922-1.8984375-8.0366211c-1.6630859-11.5219727,6.9375-16.378418,14.3339844-10.5224609
						c0.8388672,2.0737305,1.2890625,4.3310547,1.2890625,6.671875V349.6240234z"/>
				</g>
				<g>
					<path fill="#2C2E30" d="M413.4980469,383.1298828c-2.9746094,0-6.0820313-0.3583984-9.28125-1.0869141
						c-1.2226563-0.2802734-1.9921875-1.4892578-1.7275391-2.7148438s1.4697266-2.0087891,2.6953125-1.7568359
						c4.6201172,0.9482422,9.3681641-0.2226563,13.0322266-3.2128906c3.6621094-2.9873047,5.7617188-7.4111328,5.7617188-12.1386719
						v-146.109375c0-7.3071289-4.96875-13.5786133-12.0830078-15.2490234l-207.2128906-47.5546875
						c-0.0224609-0.0048828-0.0488281-0.0112305-0.0751953-0.0175781l-0.0009766,0.0004883
						c-5.1865234-1.2080078-9.0673828-3.8979492-10.9267578-7.5742188c-1.625-3.2109375-1.6113281-6.9443359,0.0410156-10.7973633
						c0.0546875-0.128418,0.1220703-0.2524414,0.1992188-0.3686523c3.6171875-5.4208984,9.6650391-8.6572266,16.1767578-8.6572266
						h241.6748047c11.1621094,0,20.2451172,9.0810547,20.2451172,20.2441406v147.0942383
						c0.2714844,20.375-9.0439453,26.5703125-25.2265625,30.3769531c-1.1708984,0.2792969-2.3564453-0.4023438-2.7089844-1.5527344
						c-0.3544922-1.1503906,0.2431641-2.3789063,1.3662109-2.8085938c4.3339844-1.6621094,7.6845703-5.1347656,9.1933594-9.5273438
						c0.5644531-1.6357422,0.8515625-3.3457031,0.8515625-5.0898438V157.5356445
						c0-8.6411133-7.0292969-15.6704102-15.6689453-15.6704102H233.4853516l193.1591797,42.6474609
						c9.2167969,2.1674805,15.6347656,10.2700195,15.6347656,19.7104492v145.3286133
						c0.7197266,11.4707031-2.734375,21.0664063-9.7324219,27.0273438
						C427.4707031,380.9023438,420.8964844,383.1298828,413.4980469,383.1298828z M205.7060547,148.8466797l207.2246094,47.5576172
						c9.2021484,2.1621094,15.6230469,10.2651367,15.6230469,19.7060547v146.109375
						c0,5.8271484-2.4697266,11.296875-6.8056641,15.1396484c2.9326172-0.9101563,5.5712891-2.3359375,7.8320313-4.2626953
						c5.9726563-5.0869141,8.7841797-13.1533203,8.1289063-23.3251953
						c-0.0039063-0.0488281-0.0058594-0.0976563-0.0058594-0.1474609V204.2231445
						c0-7.3071289-4.9648438-13.5776367-12.0751953-15.2504883l-213.6064453-47.1611328
						c-1.1396484-0.2509766-1.9082031-1.3208008-1.78125-2.4814453s1.1074219-2.0395508,2.2744141-2.0395508h227.3085938
						c11.1630859,0,20.2451172,9.081543,20.2451172,20.2451172v147.0932617c0,2.2539063-0.3710938,4.4677734-1.1025391,6.5810547
						c-0.5078125,1.4765625-1.1767578,2.8730469-1.9882813,4.1689453
						c7.2060547-3.7109375,10.6279297-9.7480469,10.4638672-22.1171875V146.1362305
						c0-8.6396484-7.0302734-15.6694336-15.6699219-15.6694336H210.0966797c-4.9091797,0-9.4736328,2.4057617-12.2519531,6.4467773
						c-1.0380859,2.5288086-1.0664063,4.7929688-0.0830078,6.7363281c1.2373047,2.4458008,4.0341797,4.2856445,7.8759766,5.1826172
						C205.6601563,148.8369141,205.6835938,148.8422852,205.7060547,148.8466797L205.7060547,148.8466797z"/>
				</g>
				<g>
					<path fill="#2C2E30" d="M437.5449219,159.2041016c-0.4628906,0-0.9326172-0.0048828-1.4111328-0.0146484
						l-145.1582031,0.0009766c-1.2626953,0-2.2880859-1.0244141-2.2880859-2.2880859
						c0-1.2631836,1.0253906-2.2871094,2.2880859-2.2871094h145.2041016
						c11.8203125,0.2197266,14.6591797-2.5283203,15.3300781-3.7231445
						c0.8359375-1.4897461-0.0371094-3.4438477-0.9179688-4.8208008c-0.6806641-1.0639648-0.3691406-2.4790039,0.6962891-3.159668
						c1.0634766-0.6806641,2.4785156-0.3691406,3.1572266,0.6967773c2.8144531,4.402832,2.1279297,7.6069336,1.0566406,9.5200195
						C453.2392578,157.1625977,447.2021484,159.2041016,437.5449219,159.2041016z"/>
				</g>
				<g>
					<g>
						<g>
							<path fill="#1EBC61" d="M386.0517578,156.9023438l-81.8466797,0.5795898l-0.1298828-0.0307617l-18.4150391-4.0639648
								l-9.9726563-2.2041016l-12.2675781-2.706543l-1.8925781-8.8984375l-2.4238281-11.3989258l-11.0419922-51.8500977
								c-0.2285156-1.0673828,0.4501953-2.1201172,1.5185547-2.3491211l57.9941406-12.3447266l8.8154297-1.8754883
								l24.5068359-5.2158203l11.2929688-2.4013672h0.0078125l9.1113281-1.9448242
								c1.0673828-0.2285156,2.1191406,0.449707,2.3476563,1.5175781l0.7099609,3.3320313l1.1435547,5.3759766
								l14.4257813,67.7558594l2.4257813,11.3989258L386.0517578,156.9023438z"/>
						</g>
						<g>
							<path fill="#2C2E30" d="M304.1621094,157.8637695l-0.1738281-0.0410156l-40.8916016-9.0268555l-4.3662109-20.5371094
								l-11.0410156-51.8500977c-0.2734375-1.2724609,0.5390625-2.5288086,1.8105469-2.8007813l102.6894531-21.847168
								l9.0390625-1.9355469c1.2724609-0.2695313,2.5292969,0.5400391,2.8007813,1.8105469l22.4921875,105.6450195
								l-0.4667969,0.003418L304.1621094,157.8637695z M263.7402344,148.1572266l40.5078125,8.9433594l81.3330078-0.5761719
								l-22.296875-104.7294922c-0.0898438-0.4160156-0.3349609-0.7724609-0.6943359-1.0043945
								c-0.3574219-0.230957-0.7851563-0.3120117-1.2011719-0.2192383L249.6582031,74.3540039
								c-0.8583984,0.184082-1.4082031,1.034668-1.2236328,1.8955078L263.7402344,148.1572266z"/>
						</g>
					</g>
					<g opacity="0.55">
						<path fill="#FFFFFF" d="M364.0683594,53.6367188l-6.8242188,1.4570313h-0.0078125l-35.7910156,7.6166992
							l-66.8105469,14.2207031c-1.0673828,0.2290039-1.7539063,1.28125-1.5253906,2.3481445l11.0488281,51.8505859
							l2.4248047,11.3989258l1.4716797,6.9702148l-4.6347656-1.0224609l-1.8925781-8.8984375l-2.4238281-11.3989258
							l-11.0419922-51.8500977c-0.2285156-1.0673828,0.4501953-2.1201172,1.5185547-2.3491211l66.8095703-14.2202148
							l35.7998047-7.6171875h0.0078125l9.1113281-1.9448242c1.0673828-0.2285156,2.1191406,0.449707,2.3476563,1.5175781
							L364.0683594,53.6367188z"/>
					</g>
					<g>
						<g>
							<path fill="#4EEC91" d="M374.3544922,156.9023438l-70.2792969,0.5488281L275.6875,151.1831055l-2.4707031-11.6049805
								l-2.4248047-11.3989258l-7.4033203-34.7856445c5.6269531-1.1967773,9.21875-6.7329102,8.0214844-12.3671875
								l42.0361328-8.9448242l30.7978516-6.5571289c1.1972656,5.6274414,6.7324219,9.2182617,12.3671875,8.0219727
								l11.6289063,54.6328125l2.4238281,11.3989258L374.3544922,156.9023438z"/>
						</g>
						<g>
							<path fill="#2C2E30" d="M304.0351563,157.8325195l-0.0429688-0.0087891l-28.6269531-6.3203125l-4.9462891-23.2446289
								l-7.4833984-35.1582031l0.3730469-0.0795898c5.4121094-1.1513672,8.8798828-6.4970703,7.7285156-11.9160156
								l-0.0791016-0.3725586l0.3720703-0.0800781l73.2070313-15.5800781l0.0800781,0.3720703
								c1.1503906,5.4130859,6.5,8.878418,11.9150391,7.7285156l0.3730469-0.0791016l0.0791016,0.3725586l17.8398438,83.8139648
								L304.0351563,157.8325195z M276.0097656,150.8647461l28.1054688,6.2055664l69.7695313-0.5454102l-17.5683594-82.5336914
								c-5.5732422,0.9907227-10.9902344-2.5288086-12.359375-8.0161133l-72.1015625,15.3452148
								c0.9833984,5.5751953-2.5292969,10.9916992-8.0166016,12.3608398L276.0097656,150.8647461z"/>
						</g>
					</g>
					<g opacity="0.3">
						<polygon fill="#2C2E30" points="386.0517578,156.9023438 304.2050781,157.4819336 304.0751953,157.4511719 
							285.6601563,153.387207 307.5742188,61.6352539 316.3896484,59.7597656 340.8964844,54.5439453 365.5097656,60.4233398 
							379.9355469,128.1791992 382.3613281,139.578125 						"/>
					</g>
					<g>
						<path fill="#2C2E30" d="M386.0488281,159.190918c-1.0566406,0-2.0058594-0.7363281-2.234375-1.8120117L361.484375,52.4995117
							l-8.8105469,1.8793945c-0.0283203,0.0068359-0.0566406,0.012207-0.0859375,0.0175781L250.3632813,76.152832
							l15.8183594,74.3027344c0.2636719,1.2363281-0.5253906,2.4506836-1.7607422,2.7143555
							c-1.2363281,0.262207-2.4501953-0.5258789-2.7138672-1.7617188l-15.8828125-74.6020508
							c-0.4912109-2.2983398,0.9775391-4.5703125,3.2753906-5.0620117l102.6132813-21.8393555
							c0.0273438-0.0058594,0.0546875-0.0112305,0.0830078-0.0161133l9.0351563-1.9277344
							c1.1113281-0.2368164,2.2509766-0.0288086,3.2070313,0.5874023c0.9580078,0.6191406,1.6162109,1.5742188,1.8564453,2.6884766
							l22.3945313,105.1894531c0.2636719,1.2353516-0.5253906,2.4506836-1.7607422,2.7138672
							C386.3671875,159.1748047,386.2070313,159.190918,386.0488281,159.190918z"/>
					</g>
					<g>
						<path fill="#2C2E30" d="M374.3535156,158.8095703c-0.8808594,0-1.671875-0.6142578-1.8632813-1.5097656
							l-17.3769531-81.6367188c-5.3300781,0.2978516-10.2910156-2.921875-12.1933594-7.9072266l-69.3925781,14.7680664
							c0.2929688,5.3334961-2.9238281,10.2910156-7.9091797,12.1938477l12.4599609,58.5239258
							c0.21875,1.0297852-0.4375,2.0424805-1.4667969,2.2617188c-1.0292969,0.2167969-2.0429688-0.4375-2.2626953-1.4663086
							l-12.8251953-60.2460938c-0.1054688-0.4941406-0.0097656-1.0107422,0.265625-1.4350586
							c0.2753906-0.4233398,0.7080078-0.7211914,1.2021484-0.8261719c4.5908203-0.9770508,7.5302734-5.5117188,6.5537109-10.1079102
							c-0.21875-1.0297852,0.4375-2.0415039,1.46875-2.2607422l72.8330078-15.5009766
							c0.4941406-0.1025391,1.0107422-0.0107422,1.4345703,0.265625c0.4238281,0.2753906,0.7207031,0.7075195,0.8271484,1.2026367
							c0.9765625,4.5893555,5.5087891,7.5307617,10.1064453,6.5532227c1.03125-0.2192383,2.0429688,0.4389648,2.2617188,1.4677734
							l17.7431641,83.3564453c0.2197266,1.0288086-0.4384766,2.0415039-1.4677734,2.2617188
							C374.6181641,158.7954102,374.484375,158.8095703,374.3535156,158.8095703z"/>
					</g>
				</g>
				<g>
					<path fill="#1EBC61" d="M434.5390625,73.8510742l-11.8798828,49.7226563l-7.9599609,33.3286133H293.1875
						l26.3964844-110.5170898c0.2519531-1.0595703,1.3203125-1.7158203,2.3867188-1.4633789l111.1044922,26.5419922
						C434.1347656,71.7163086,434.7910156,72.7832031,434.5390625,73.8510742z"/>
				</g>
				<g opacity="0.55">
					<path fill="#FFFFFF" d="M434.5390625,73.8510742l-0.5566406,2.3256836L325.2734375,50.2060547
						c-1.0683594-0.2519531-2.1357422,0.4038086-2.3867188,1.4638672l-25.1328125,105.2324219H293.1875l26.3964844-110.5170898
						c0.2519531-1.0595703,1.3203125-1.7158203,2.3867188-1.4633789l111.1044922,26.5419922
						C434.1347656,71.7163086,434.7910156,72.7832031,434.5390625,73.8510742z"/>
				</g>
				<g>
					<path fill="#2C2E30" d="M414.6992188,159.1904297H293.1875c-0.7011719,0-1.3632813-0.3212891-1.796875-0.8706055
						c-0.4335938-0.5498047-0.5917969-1.2675781-0.4287109-1.9492188L317.359375,45.8540039
						c0.5410156-2.2802734,2.84375-3.6992188,5.1367188-3.1586914l111.1103516,26.5439453
						c2.2802734,0.5415039,3.6982422,2.8457031,3.1591797,5.1367188c0,0.0019531-0.0009766,0.0043945-0.0009766,0.0068359
						l-19.8408203,83.0517578C416.6777344,158.4638672,415.7578125,159.1904297,414.6992188,159.1904297z M296.0849609,154.6152344
						h116.8076172l19.3496094-80.9980469L321.7382813,47.2182617L296.0849609,154.6152344z M434.5390625,73.8515625h0.0078125
						H434.5390625z"/>
				</g>
				<g opacity="0.3">
					<path fill="#2C2E30" d="M469.7285156,148.0947266v145.1357422
						c0.2587891,19.4121094-8.1972656,24.5585938-23.4619141,28.1503906
						c4.9335938-1.890625,8.8144531-5.9013672,10.5380859-10.9179688c0.6318359-1.8300781,0.9755859-3.7910156,0.9755859-5.8339844
						v-147.09375c0-1.6547852-0.2216797-3.2563477-0.6474609-4.7734375v-0.0151367
						C457.7802734,140.2871094,466.0917969,131.8085938,469.7285156,148.0947266z"/>
				</g>
				<g>
					<path fill="#4EEC91" d="M418.7929688,90.5263672l-15.859375,66.3759766h-97.9892578l21.1445313-88.5185547
						c5.6035156,1.3339844,11.2236328-2.1201172,12.5576172-7.7163086l72.4316406,17.3007813
						C409.7421875,83.5654297,413.1962891,89.1918945,418.7929688,90.5263672z"/>
				</g>
				<g>
					<path fill="#1EBC61" d="M363.1308594,121.6801758c-14.6054688-2.7895508-28.7089844,6.7895508-31.4990234,21.3955078
						c-0.9150391,4.7915039-0.4921875,9.5253906,0.9951172,13.8266602h50.90625
						c0.4121094-1.1992188,0.7480469-2.4399414,0.9931641-3.722168
						C387.3164063,138.5732422,377.7382813,124.4707031,363.1308594,121.6801758z"/>
				</g>
				<g>
					<path fill="#4EEC91" d="M350.8183594,156.6303711c-3.5029297-0.6689453-6.2207031-3.2949219-6.7324219-7.8012695
						l-4.2539063-0.8125l1.0351563-5.4194336l3.5878906,0.6845703c0.6464844-2.9882813,1.9794922-5.7255859,3.0878906-7.0512695
						l4.9433594,2.2661133c-1.1835938,1.5263672-2.5458984,3.9545898-3.0576172,6.6333008
						c-0.5517578,2.887207,0.3544922,4.6357422,2.1669922,4.9819336c1.7275391,0.3295898,2.96875-0.7993164,4.8027344-3.9101563
						c2.4853516-4.3066406,5.6171875-6.8276367,9.6582031-6.0556641c3.8203125,0.7294922,6.421875,3.8964844,6.6318359,8.5297852
						l4.2666016,0.8144531l-1.0351563,5.4194336l-3.9667969-0.7573242
						c-0.6132813,2.1474609-1.4667969,3.7358398-2.2939453,4.9194336l-4.8056641-2.3666992
						c0.75-1.0078125,1.9101563-2.8422852,2.4296875-5.5581055c0.5195313-2.7216797-0.4619141-4.2758789-1.9082031-4.5517578
						c-1.7695313-0.3383789-2.8505859,1.0805664-4.8955078,4.4033203
						C357.7285156,155.5595703,354.7304688,157.3779297,350.8183594,156.6303711z"/>
				</g>
				<g>
					<circle fill="#1EBC61" cx="368.5712891" cy="93.2028809" r="7.6666751"/>
				</g>
				<g opacity="0.3">
					<path fill="#2C2E30" d="M429.5214844,123.2333984L421.5605469,156.5625h-49.8515625
						c-2.1660156-4.4301758-3.3847656-9.4091797-3.3847656-14.6782227c0-18.4682617,14.9667969-33.4433594,33.4355469-33.4433594
						C413.3183594,108.440918,423.5126953,114.3120117,429.5214844,123.2333984z"/>
				</g>
				<g>
					<path fill="#2C2E30" d="M402.9335938,158.809082h-97.9892578c-0.5830078,0-1.1347656-0.2675781-1.4970703-0.7250977
						c-0.3603516-0.4580078-0.4921875-1.0566406-0.3574219-1.6245117l21.1445313-88.519043
						c0.2441406-1.0224609,1.2714844-1.6577148,2.2958984-1.4111328c4.5673828,1.0854492,9.1748047-1.7402344,10.2626953-6.3037109
						c0.1171875-0.4916992,0.4257813-0.9169922,0.8554688-1.1816406c0.4316406-0.265625,0.9501953-0.3481445,1.4414063-0.2304688
						l72.4296875,17.300293c1.0234375,0.2446289,1.65625,1.2724609,1.4111328,2.296875
						c-1.0888672,4.5693359,1.7392578,9.1728516,6.3037109,10.262207c0.4931641,0.1166992,0.9179688,0.4248047,1.1826172,0.855957
						c0.2646484,0.4306641,0.3466797,0.9487305,0.2304688,1.440918l-15.859375,66.3759766
						C404.5820313,158.2036133,403.8164063,158.809082,402.9335938,158.809082z M307.359375,154.9960938h94.0703125
						l15.1005859-63.2006836c-4.9384766-2.0244141-8.0322266-7.0585938-7.6064453-12.3818359l-69.0078125-16.4833984
						c-2.0234375,4.9365234-7.0615234,8.0336914-12.3808594,7.6054688L307.359375,154.9960938z"/>
				</g>
				<g opacity="0.3">
					<path fill="#2C2E30" d="M420.1660156,227.7460938v134.4736328c0,6.5429688-5.3007813,11.8652344-11.8105469,11.8652344
						c-0.8007813,0-1.6103516-0.0839844-2.4023438-0.2509766l-0.1835938-0.0302734l-196.7548828-46.2998047
						c-0.8544922-0.1972656-1.6767578-0.4882813-2.4638672-0.8535156
						C290.8613281,329.5097656,374.9726563,295.1972656,420.1660156,227.7460938z"/>
				</g>
			</g>
			<g>
				<g>
					<g>
						<path fill="#F7C714" d="M450.3886719,146.5556641c-4.2431641,19.3671875-23.3847656,31.6289063-42.7519531,27.3857422
							c-5.6933594-1.2470703-10.7724609-3.7832031-15-7.2329102c-3.1396484-2.5620117-5.8066406-5.6293945-7.9082031-9.0473633
							c-1.0195313-1.6523438-1.8984375-3.390625-2.6347656-5.1914063c-2.5820313-6.2817383-3.40625-13.3481445-2.0078125-20.4794922
							c0.0546875-0.269043,0.1054688-0.5332031,0.1640625-0.8012695
							c4.2441406-19.3735352,23.3867188-31.6352539,42.7548828-27.3916016
							c2.0332031,0.4458008,3.984375,1.0541992,5.8496094,1.8144531C435.4912109,108.3017578,441,112.8520508,444.8886719,118.5
							c1.0986328,1.6054688,2.0703125,3.293457,2.9033203,5.0512695c1.7089844,3.6132813,2.8212891,7.5166016,3.2392578,11.5727539
							C451.4277344,138.847168,451.2324219,142.6992188,450.3886719,146.5556641z"/>
					</g>
					<g>
						<path fill="none" stroke="#2C2E30" stroke-width="0" stroke-miterlimit="10" d="M450.3886719,146.5556641
							c-4.2431641,19.3671875-23.3847656,31.6289063-42.7519531,27.3857422c-5.6933594-1.2470703-10.7724609-3.7832031-15-7.2329102
							c-3.1396484-2.5620117-5.8066406-5.6293945-7.9082031-9.0473633c-1.0195313-1.6523438-1.8984375-3.390625-2.6347656-5.1914063
							c-2.5820313-6.2817383-3.40625-13.3481445-2.0078125-20.4794922c0.0546875-0.269043,0.1054688-0.5332031,0.1640625-0.8012695
							c4.2441406-19.3735352,23.3867188-31.6352539,42.7548828-27.3916016
							c2.0332031,0.4458008,3.984375,1.0541992,5.8496094,1.8144531C435.4912109,108.3017578,441,112.8520508,444.8886719,118.5
							c1.0986328,1.6054688,2.0703125,3.293457,2.9033203,5.0512695c1.7089844,3.6132813,2.8212891,7.5166016,3.2392578,11.5727539
							C451.4277344,138.847168,451.2324219,142.6992188,450.3886719,146.5556641z"/>
					</g>
				</g>
				<g opacity="0.55">
					<path fill="#FFFFFF" d="M450.3886719,146.5556641c-0.1914063,0.8769531-0.4169922,1.7407227-0.6660156,2.5878906
						c2.6445313-18.4404297-9.3710938-36.0761719-27.8613281-40.1274414
						c-18.4912109-4.0512695-36.78125,6.9453125-42.0878906,24.8027344
						c0.1269531-0.8735352,0.2841797-1.7529297,0.4765625-2.6298828
						c4.2441406-19.3735352,23.3867188-31.6352539,42.7548828-27.3916016
						C442.3720703,108.0400391,454.6337891,127.1821289,450.3886719,146.5556641z"/>
				</g>
				<g>
					<path fill="#F89E1D" d="M450.3886719,146.5556641c-4.2431641,19.3671875-23.3847656,31.6289063-42.7519531,27.3857422
						c-19.3681641-4.2431641-31.6289063-23.3847656-27.3867188-42.7524414
						c0.3671875-1.6757813,0.8457031-3.2983398,1.4296875-4.8637695
						c-1.3349609,17.5571289,10.4296875,33.8666992,28.1210938,37.7426758
						c17.6894531,3.8754883,35.1943359-6.0224609,41.3222656-22.5283203
						C451,143.2045898,450.7558594,144.8789063,450.3886719,146.5556641z"/>
				</g>
				<g>
					<g>
						<path fill="#F9DD6A" d="M409.9628906,163.3242188c-13.484375-2.9541016-22.0507813-16.3276367-19.0966797-29.8115234
							s16.3271484-22.0507813,29.8115234-19.0966797s22.0507813,16.3276367,19.0966797,29.8120117
							C436.8203125,157.7119141,423.4472656,166.2783203,409.9628906,163.3242188z"/>
					</g>
					<g>
						<path fill="none" stroke="#2C2E30" stroke-width="0" stroke-miterlimit="10" d="M409.9628906,163.3242188
							c-13.484375-2.9541016-22.0507813-16.3276367-19.0966797-29.8115234s16.3271484-22.0507813,29.8115234-19.0966797
							s22.0507813,16.3276367,19.0966797,29.8120117C436.8203125,157.7119141,423.4472656,166.2783203,409.9628906,163.3242188z"/>
					</g>
				</g>
				<g opacity="0.55">
					<path fill="#FFFFFF" d="M439.7724609,144.2294922c-0.1455078,0.6591797-0.3164063,1.3061523-0.5087891,1.9379883
						c1.7568359-12.7915039-6.6181641-25.0327148-19.4423828-27.8422852
						c-12.8251953-2.809082-25.5498047,4.8085938-29.3046875,17.1625977
						c0.0908203-0.6538086,0.2060547-1.3139648,0.3505859-1.9731445
						c2.953125-13.4829102,16.328125-22.0546875,29.8105469-19.1005859S442.7255859,130.7460938,439.7724609,144.2294922z"/>
				</g>
				<g>
					<path fill="#2C2E30" d="M422.8789063,146.1445313c-0.7021484,3.2080078-3.1875,5.6445313-7.3476563,6.0039063
						l-0.8515625,3.8945313l-4.9628906-1.0869141l0.7197266-3.2856445c-2.7353516-0.6689453-5.2207031-1.9638672-6.4130859-3.015625
						l2.2089844-4.4936523c1.375,1.1269531,3.5751953,2.4404297,6.0283203,2.9785156
						c2.6435547,0.5791016,4.2744141-0.2114258,4.6386719-1.8710938c0.3457031-1.581543-0.6630859-2.7514648-3.4794922-4.5161133
						c-3.9023438-2.3950195-6.1445313-5.3398438-5.3339844-9.0395508c0.7675781-3.4970703,3.7460938-5.8134766,8.0136719-5.8916016
						l0.8564453-3.90625l4.9619141,1.0874023l-0.7949219,3.6323242c1.9599609,0.6171875,3.4023438,1.4418945,4.46875,2.2324219
						l-2.2958984,4.362793c-0.9091797-0.7143555-2.5683594-1.8276367-5.0556641-2.3720703
						c-2.4921875-0.5463867-3.9462891,0.3178711-4.2353516,1.6420898c-0.3564453,1.6210938,0.9228516,2.6508789,3.9306641,4.6152344
						C422.0644531,139.7597656,423.6640625,142.5634766,422.8789063,146.1445313z"/>
				</g>
				<g opacity="0.27">
					<path fill="#FCE5E5" d="M444.8886719,118.5L382.09375,152.4697266
						c-2.5820313-6.2817383-3.40625-13.3481445-2.0078125-20.4794922l48.7685547-26.378418
						C435.4912109,108.3017578,441,112.8520508,444.8886719,118.5z"/>
				</g>
				<g opacity="0.27">
					<path fill="#FCE5E5" d="M450.4199219,131.2836914l-59.0527344,33.9731445
						c-3.1386719-2.5620117-4.5371094-4.1777344-6.6386719-7.5957031l63.0634766-34.1098633
						C449.5009766,127.1645508,450.0009766,127.2275391,450.4199219,131.2836914z"/>
				</g>
				<g>
					<path fill="#2C2E30" d="M415.3242188,165.8139648c-1.9042969,0-3.8359375-0.2036133-5.7695313-0.6274414
						c-7.0195313-1.5375977-13.0244141-5.7250977-16.9101563-11.7905273
						c-3.8857422-6.0664063-5.1787109-13.2729492-3.640625-20.2919922s5.7246094-13.0239258,11.7910156-16.9091797
						c6.0654297-3.8857422,13.2705078-5.1767578,20.2910156-3.640625
						c7.0185547,1.5375977,13.0234375,5.7255859,16.9101563,11.7905273
						c3.8847656,6.0664063,5.1777344,13.2719727,3.6396484,20.2905273
						C438.8808594,157.2119141,427.7021484,165.8139648,415.3242188,165.8139648z M415.2910156,115.7363281
						c-4.3710938,0-8.6621094,1.2485352-12.4394531,3.6694336c-5.2080078,3.3354492-8.8037109,8.4902344-10.1230469,14.5146484
						c-1.3203125,6.0244141-0.2099609,12.2099609,3.1269531,17.418457
						c3.3359375,5.2089844,8.4902344,8.8041992,14.515625,10.1230469C412.0292969,161.8261719,413.6894531,162,415.3242188,162
						c10.6269531,0.0014648,20.2226563-7.3823242,22.5878906-18.1811523
						c1.3193359-6.0234375,0.2089844-12.2089844-3.1269531-17.4174805
						c-3.3369141-5.2080078-8.4912109-8.8032227-14.515625-10.1225586
						C418.6142578,115.9160156,416.9472656,115.7363281,415.2910156,115.7363281z"/>
				</g>
				<g>
					<path fill="#2C2E30" d="M415.3261719,177.0644531c-2.6992188,0-5.4355469-0.2871094-8.1796875-0.8881836
						c-5.9199219-1.2973633-11.2890625-3.8867188-15.9560547-7.6962891
						c-3.3193359-2.7080078-6.1494141-5.9448242-8.4111328-9.6201172c-1.0703125-1.7338867-2.0136719-3.5932617-2.8027344-5.5249023
						c-2.8378906-6.9008789-3.5761719-14.4365234-2.1347656-21.7851563c0.0625-0.3129883,0.1142578-0.5805664,0.1738281-0.8505859
						c4.5078125-20.5712891,24.9042969-33.6445313,45.4775391-29.1367188
						c2.1318359,0.4667969,4.2255859,1.1162109,6.2246094,1.9316406c6.9101563,2.800293,12.8085938,7.5410156,17.0537109,13.7084961
						c1.1679688,1.7036133,2.2060547,3.5087891,3.0869141,5.3686523c1.8496094,3.9086914,3.0097656,8.0527344,3.4482422,12.3193359
						c0.4287109,4.03125,0.1992188,8.1240234-0.6845703,12.1538086
						C448.7167969,164.871582,432.8720703,177.0644531,415.3261719,177.0644531z M415.3164063,105.2490234
						c-15.4453125,0-29.3925781,10.734375-32.8320313,26.4291992c-0.0527344,0.2402344-0.0986328,0.4760742-0.1464844,0.7163086
						c-1.2744141,6.5029297-0.625,13.1323242,1.8720703,19.2055664c0.6962891,1.7026367,1.5244141,3.3369141,2.4648438,4.859375
						c1.9931641,3.2407227,4.4853516,6.0922852,7.4082031,8.4765625c4.1064453,3.3510742,8.8300781,5.6289063,14.0439453,6.7705078
						c2.4121094,0.5288086,4.8242188,0.7827148,7.1992188,0.7827148c15.4443359,0.0009766,29.390625-10.730957,32.828125-26.4228516
						l0,0c0.7783203-3.5498047,0.9794922-7.1499023,0.6025391-10.7001953
						c-0.3876953-3.7563477-1.4072266-7.3999023-3.0322266-10.8364258
						c-0.7773438-1.6416016-1.6953125-3.2348633-2.7236328-4.7363281
						c-3.7333984-5.4248047-8.9238281-9.597168-15.0058594-12.0620117
						c-1.7607422-0.7172852-3.6035156-1.2880859-5.4804688-1.6992188
						C420.1015625,105.5029297,417.6914063,105.2490234,415.3164063,105.2490234z"/>
				</g>
			</g>
			<g>
				<g>
					<g>
						<path fill="#F7C714" d="M500.4667969,282.6914063l-6.6621094-5.5976563
							c-1.5830078-1.3300781-1.8349609-3.6533203-0.609375-5.2890625c0.0400391-0.0556641,0.0908203-0.1152344,0.1347656-0.1679688
							l32.1171875-38.2294922c1.375-1.6357422,3.8183594-1.8505859,5.4580078-0.4736328l6.6621094,5.5976563
							c1.6396484,1.3769531,1.8496094,3.8203125,0.4746094,5.4570313l-32.1181641,38.2285156
							C504.5498047,283.8535156,502.1064453,284.0683594,500.4667969,282.6914063z"/>
					</g>
					<g>
						<path fill="#2C2E30" d="M502.9550781,283.9785156c-0.9648438,0-1.9375-0.3261719-2.7333984-0.9951172l-6.6621094-5.5986328
							c-1.7275391-1.4511719-2.0214844-4.0019531-0.6699219-5.8085938c0.0429688-0.0595703,0.0996094-0.1289063,0.1503906-0.1875
							l32.1162109-38.2265625c1.5097656-1.796875,4.1982422-2.0292969,5.9941406-0.5214844l6.6621094,5.5986328
							c1.796875,1.5087891,2.0302734,4.1982422,0.5205078,5.9941406l-32.1171875,38.2285156
							C505.3759766,283.4628906,504.1699219,283.9785156,502.9550781,283.9785156z M500.7128906,282.3994141
							c1.4736328,1.2392578,3.6806641,1.0458984,4.9189453-0.4267578L537.75,243.7441406
							c1.2373047-1.4746094,1.046875-3.6835938-0.4277344-4.9208984l-6.6630859-5.5986328
							c-1.4736328-1.2382813-3.6806641-1.0449219-4.9199219,0.4277344l-32.1162109,38.2285156
							c-0.0410156,0.0488281-0.0849609,0.0996094-0.1210938,0.1494141
							c-1.1123047,1.4853516-0.8701172,3.5800781,0.5488281,4.7714844L500.7128906,282.3994141z"/>
					</g>
				</g>
				<g>
					
						<rect x="499.6658936" y="256.2953796" transform="matrix(0.7656604 0.643245 -0.643245 0.7656604 290.8256226 -264.1074219)" fill="#F89E1D" width="16.4494934" height="21.5967655"/>
				</g>
				<g opacity="0.55">
					
						<rect x="518.4720459" y="239.4636841" transform="matrix(0.7656604 0.643245 -0.643245 0.7656604 280.8337402 -281.4500732)" fill="#FCE5E5" width="16.4494934" height="10.4906054"/>
				</g>
				<g>
					<path fill="#2C2E30" d="M502.9501953,285.8867188c-1.4462891,0-2.8330078-0.5039063-3.953125-1.4453125l-6.6621094-5.5957031
						c-1.2607422-1.0585938-2.0332031-2.5449219-2.1748047-4.1845703s0.3623047-3.2373047,1.421875-4.4970703L523.6972656,231.9375
						c2.1845703-2.6005859,6.0791016-2.9399414,8.6806641-0.7539063l6.6611328,5.5976563
						c1.2607422,1.0585938,2.0322266,2.5449219,2.1748047,4.1835938c0.1416016,1.640625-0.3613281,3.2373047-1.4199219,4.4980469
						l-32.1162109,38.2255859c-1.0585938,1.2607422-2.5449219,2.0322266-4.1845703,2.1748047
						C503.3125,285.8789063,503.1298828,285.8867188,502.9501953,285.8867188z M528.4150391,234.3164063
						c-0.4521484,0-0.9023438,0.1914063-1.2158203,0.5644531l-32.1142578,38.2265625l0,0
						c-0.2734375,0.3242188-0.4033203,0.7353516-0.3671875,1.1582031c0.0361328,0.421875,0.2353516,0.8046875,0.5595703,1.0771484
						l6.6621094,5.5966797c0.3251953,0.2734375,0.7402344,0.3984375,1.1582031,0.3662109
						c0.421875-0.0361328,0.8056641-0.2353516,1.0771484-0.5595703l32.1152344-38.2265625
						c0.2724609-0.3242188,0.4033203-0.7363281,0.3662109-1.1582031s-0.2353516-0.8046875-0.5605469-1.078125l-6.6601563-5.5966797
						C529.1386719,234.4375,528.7763672,234.3164063,528.4150391,234.3164063z M493.3330078,271.6357422h0.0078125H493.3330078z"/>
				</g>
			</g>
			<g>
				<g>
					<g>
						<path fill="#F7C714" d="M200.8242188,227.7832031c-12.6503906-13.7602539-27.3828125-21.2070313-34.659668-17.9746094l0,0
							c0,0-10.1508789,2.190918-13.7651367,13.5166016c-4.2631836,7.3837891,1.7949219,22.4365234,14.7338867,36.5087891
							c9.9057617,10.7724609,21.0854492,17.6757813,28.9663086,18.6152344l0.0019531,0.0019531
							c0,0,12.1513672,3.3515625,19.5273438-14.2773438C219.8691406,257.3632813,213.6904297,241.7753906,200.8242188,227.7832031z"
							/>
					</g>
					<g>
						<path fill="#2C2E30" d="M198.4316406,279.0664063c-1.4755859,0-2.3984375-0.2382813-2.4316406-0.2480469
							c-8.2402344-0.9804688-19.4311523-8.1601563-29.1484375-18.7265625
							c-13.0415039-14.1855469-19.1230469-29.3574219-14.8027344-36.9213867
							c3.5327148-11.0024414,13.2753906-13.5507813,13.9936523-13.7246094
							c7.6157227-3.3388672,22.3500977,4.2539063,35.0629883,18.0791016l0,0
							c12.8457031,13.9711914,19.2285156,29.8129883,14.8466797,36.8500977
							C210.5478516,277.3027344,202.4453125,279.0644531,198.4316406,279.0664063z M170.0986328,209.4360352
							c-1.4111328,0-2.6826172,0.2338867-3.7788086,0.7216797l-0.074707,0.0244141
							c-0.0996094,0.0209961-9.9814453,2.2871094-13.4829102,13.2587891l-0.0327148,0.074707
							c-4.1948242,7.265625,1.8432617,22.09375,14.684082,36.0595703
							c9.453125,10.2822266,20.730957,17.5410156,28.730957,18.4960938
							c0.1767578,0.0419922,11.9775391,3.0556641,19.1328125-14.0458984
							c4.234375-6.8095703-2.1113281-22.2568359-14.7333984-35.9838867
							C190.1064453,216.6899414,177.9453125,209.4360352,170.0986328,209.4360352z"/>
					</g>
				</g>
				<g>
					<path fill="#F89E1D" d="M182.8310547,254.0058594l-10.4375,11.7304688l18.9453125,13.421875
						c0,0,10.4785156-8.6523438,11.3310547-10.7675781C202.6699219,268.390625,182.2822266,259.0595703,182.8310547,254.0058594z"/>
				</g>
				<g opacity="0.55">
					<polygon fill="#FCE5E5" points="164.7236328,226.7827148 154.668457,242.2617188 162.5063477,254.7460938 
						172.0048828,242.8085938 					"/>
				</g>
				<g opacity="0.55">
					<path fill="#FFFFFF" d="M162.7475586,217.6875c0,0-6.0444336,2.390625-6.9711914,10.5927734
						c0,0-2.6967773,7.9248047,1.96875,15.1904297c0,0-6.2548828-12.8027344-6.6743164-13.8554688
						c-0.4194336-1.0507813,4.2304688-14.4760742,4.2304688-14.4760742l4.4677734-2.2861328L162.7475586,217.6875z"/>
				</g>
				<g opacity="0.55">
					<path fill="#FFFFFF" d="M183.7294922,216.7036133c0,0-6.8710938-2.7016602-12.5224609-2.7431641
						c-3.1245117-0.0234375-5.6274414,2.4736328-5.5234375,5.5966797
						c0.1376953,4.0952148,1.5327148,11.1616211,7.2524414,21.9467773l-10.0673828-17.1323242
						c0,0-1.0444336-11.4736328,1.9360352-14.2719727C164.8046875,210.0996094,177.1064453,208.0405273,183.7294922,216.7036133z"/>
				</g>
				<g>
					<g>
						
							<ellipse transform="matrix(0.734558 -0.6785458 0.6785458 0.734558 -110.9432983 190.6734009)" fill="#F9DD6A" cx="188.2363281" cy="237.1381836" rx="8.011301" ry="22.918478"/>
					</g>
					<g>
						<path fill="#2C2E30" d="M201.2226563,255.2128906c-4.53125,0-12.0898438-4.7382813-19.1503906-12.3808594
							c-8.8657227-9.5966797-13.1025391-19.6152344-9.6459961-22.8085938
							c3.4584961-3.1928711,13.1098633,1.8237305,21.9741211,11.4199219
							c8.8652344,9.5966797,13.1015625,19.6152344,9.6464844,22.8085938
							C203.3417969,254.9023438,202.3808594,255.2128906,201.2226563,255.2128906z M175.2358398,219.8227539
							c-0.9521484,0-1.7324219,0.2446289-2.2919922,0.7607422c-3.0375977,2.8061523,1.3989258,12.7583008,9.6879883,21.730957
							c8.2900391,8.9726563,17.8603516,14.1816406,20.8974609,11.3779297
							c3.0371094-2.8056641-1.3984375-12.7587891-9.6884766-21.7314453
							C187.0771484,224.6381836,179.4609375,219.8227539,175.2358398,219.8227539z"/>
					</g>
				</g>
				<g>
					<path fill="#2C2E30" d="M201.2294922,256.0195313c-5.2597656,0-13.4130859-5.7988281-19.7402344-12.6484375
						c-7.9243164-8.5800781-13.9829102-19.8828125-9.6005859-23.9296875
						c4.3833008-4.0488281,15.1699219,2.8847656,23.0947266,11.4628906
						c7.9248047,8.5800781,13.9833984,19.8828125,9.6005859,23.9296875
						C203.7011719,255.6503906,202.5566406,256.0195313,201.2294922,256.0195313z M175.2358398,220.6098633
						c-0.7529297,0-1.3491211,0.1816406-1.7539063,0.5556641c-2.3754883,2.1943359,1.0371094,11.1987305,9.7319336,20.6108398
						c8.4453125,9.1416016,17.4052734,13.5224609,19.7773438,11.3339844
						c2.3759766-2.1943359-1.0371094-11.1982422-9.7333984-20.6103516
						C186.2548828,224.9169922,178.8964844,220.6098633,175.2358398,220.6098633z"/>
				</g>
				<g>
					<path fill="#2C2E30" d="M193.6191406,235.4492188c1.5019531,1.5820313,2.1669922,3.6757813,1.2988281,5.7578125
						l1.8984375,2.0292969l-1.8867188,1.9980469l-1.6298828-1.7617188
						c-1.1289063,1.0810547-2.5654297,1.7880859-3.5097656,1.9433594l-1.8632813-3.0693359
						c1.0361328-0.1972656,2.4013672-0.7158203,3.3876953-1.6699219c1.0400391-1.0068359,1.0546875-2.0869141,0.265625-2.9296875
						c-0.7480469-0.8007813-1.6503906-0.8222656-3.3974609-0.265625c-2.4599609,0.8134766-4.7695313,0.6279297-6.5302734-1.3076172
						c-1.6455078-1.8085938-1.9101563-4.0791016-0.5830078-5.9257813l-1.7626953-1.9067383l2.1083984-1.5561523l1.6162109,1.7270508
						c0.8984375-0.5429688,1.7363281-0.7929688,2.4433594-0.9086914l1.5742188,2.5996094
						c-0.625,0.0917969-1.6777344,0.3369141-2.6933594,1.15625c-1.0390625,0.8369141-1.0292969,1.8134766-0.4150391,2.4785156
						c0.7548828,0.8173828,1.6884766,0.671875,3.6064453,0.1513672
						C190.0791016,233.2734375,191.9589844,233.6992188,193.6191406,235.4492188z"/>
				</g>
				<g>
					<defs>
						
							<ellipse id="SVGID_1_" transform="matrix(0.7361351 -0.6768346 0.6768346 0.7361351 -111.3223572 191.0595856)" cx="189.3803711" cy="238.3051758" rx="15.5458536" ry="37.0666046"/>
					</defs>
					<clipPath id="SVGID_2_">
						<use xlink:href="#SVGID_1_"  overflow="visible"/>
					</clipPath>
					<g opacity="0.27" clip-path="url(#SVGID_2_)">
						<path fill="#FCE5E5" d="M216.4042969,243.4658203l-61.1987305-5.6826172
							c1.1518555-5.7324219,3.9399414-11.1860352,8.3481445-15.6240234l47.5283203,4.4165039
							C214.5507813,231.6728516,216.3203125,237.5644531,216.4042969,243.4658203z"/>
					</g>
					<g opacity="0.27" clip-path="url(#SVGID_2_)">
						<path fill="#FCE5E5" d="M214.2558594,255.2636719l-58.5209961-3.8925781
							c-1.0239258-3.3339844-1.2519531-5.1582031-1.1245117-8.6113281l61.4599609,5.7119141
							C215.5673828,251.875,215.8964844,252.1601563,214.2558594,255.2636719z"/>
					</g>
				</g>
				<g>
					<path fill="#2C2E30" d="M208.6845703,269.4648438c-3.0126953,0-6.546875-0.8964844-10.4521484-2.6894531
						c-7.1259766-3.2695313-14.8330078-9.1835938-21.7021484-16.6542969
						c-14.7919922-16.0898438-20.7358398-33.8823242-13.5297852-40.5073242
						c7.2055664-6.6269531,24.4379883,0.7871094,39.2299805,16.8764648
						c6.8691406,7.4707031,12.1181641,15.6455078,14.7792969,23.0205078
						c2.8554688,7.9111328,2.4121094,14.1210938-1.2480469,17.4863281
						C213.9726563,268.6425781,211.5683594,269.4648438,208.6845703,269.4648438z M170.0170898,211.0078125
						c-1.8857422,0-3.4008789,0.4702148-4.4311523,1.4174805c-4.7480469,4.3657227-0.265625,19.8579102,13.7568359,35.1098633
						c6.5341797,7.1054688,13.8076172,12.7060547,20.4824219,15.7685547
						c6.0664063,2.7822266,10.9326172,3.1044922,13.3505859,0.8818359
						c2.4189453-2.2246094,2.5058594-7.1005859,0.2402344-13.3789063c-2.4921875-6.9082031-7.4638672-14.625-13.9980469-21.730957
						l0,0C188.4384766,217.1342773,176.8203125,211.0078125,170.0170898,211.0078125z"/>
				</g>
				<g>
					<path fill="#2C2E30" d="M198.3662109,281.3291016c-1.2890625,0-2.2373047-0.1513672-2.6865234-0.2421875
						c-8.8027344-1.0986328-20.4819336-8.5400391-30.5112305-19.4472656
						c-7.9169922-8.6103516-13.1713867-16.8349609-15.6196289-24.4443359
						c-3.8476563-11.9638672,2.2138672-24.8208008,13.8007813-29.2685547
						c0.9072266-0.347168,1.5942383-0.5527344,1.9438477-0.6479492c8.652832-3.609375,24.0170898,4.0385742,37.4956055,18.6977539
						c13.6269531,14.8212891,19.9882813,31.3300781,15.2236328,39.4121094
						C212.0976563,279.3535156,203.0195313,281.3291016,198.3662109,281.3291016z M196.7890625,275.8710938
						c0.4785156,0.1210938,10.0957031,2.2890625,16.3769531-12.7285156
						c0.0556641-0.1308594,0.1210938-0.2578125,0.1972656-0.3808594c3.1064453-4.9882813-1.5546875-19.0898438-14.5029297-33.171875
						c-12.6552734-13.765625-26.2617188-19.7167969-31.612793-17.3422852
						c-0.1479492,0.0668945-0.3027344,0.1186523-0.4609375,0.1567383l0,0c0,0-0.5942383,0.1489258-1.5244141,0.5058594
						c-8.9428711,3.4326172-13.6132813,13.3823242-10.6318359,22.6523438
						c2.2094727,6.8681641,7.0771484,14.4267578,14.4672852,22.4648438
						c9.1054688,9.9023438,19.828125,16.8789063,27.3183594,17.7724609
						C196.5429688,275.8144531,196.6669922,275.8388672,196.7890625,275.8710938z"/>
				</g>
			</g>
		</g>
	</g>
</g>
</svg>
