<?xml version="1.0" encoding="utf-8"?>
<!-- Generator: Adobe Illustrator 16.0.0, SVG Export Plug-In . SVG Version: 6.00 Build 0)  -->
<!DOCTYPE svg PUBLIC "-//W3C//DTD SVG 1.1//EN" "http://www.w3.org/Graphics/SVG/1.1/DTD/svg11.dtd">
<svg version="1.1" id="Layer_1" xmlns="http://www.w3.org/2000/svg" xmlns:xlink="http://www.w3.org/1999/xlink" x="0px" y="0px"
	 width="36px" height="36px" viewBox="0 0 36 36" enable-background="new 0 0 36 36" xml:space="preserve">
<rect x="6" y="6" display="none" fill="#FF5EF4" width="24" height="24"/>
<g>
	<g>
		<path fill="#D1DAE8" d="M29.4863281,23.9980469L21.0078125,8.4135742c-1.3613281-2.293457-4.6821289-2.2958984-6.0473633,0
			L6.4829102,23.9980469c-1.390625,2.34375,0.2949219,5.3105469,3.0234375,5.3105469h16.956543
			C29.1894531,29.3085938,30.8789063,26.34375,29.4863281,23.9980469z M17.9848633,26.4960938
			c-0.7744141,0-1.40625-0.6308594-1.40625-1.40625s0.6318359-1.40625,1.40625-1.40625s1.4057617,0.6308594,1.4057617,1.40625
			S18.7592773,26.4960938,17.9848633,26.4960938z M19.390625,20.8710938c0,0.7753906-0.6313477,1.40625-1.4057617,1.40625
			s-1.40625-0.6308594-1.40625-1.40625v-7.03125c0-0.7749023,0.6318359-1.40625,1.40625-1.40625
			s1.4057617,0.6313477,1.4057617,1.40625V20.8710938z"/>
	</g>
</g>
</svg>
