<?xml version="1.0" encoding="utf-8"?>
<!-- Generator: Adobe Illustrator 16.0.0, SVG Export Plug-In . SVG Version: 6.00 Build 0)  -->
<!DOCTYPE svg PUBLIC "-//W3C//DTD SVG 1.1//EN" "http://www.w3.org/Graphics/SVG/1.1/DTD/svg11.dtd">
<svg version="1.1" id="Layer_1" xmlns="http://www.w3.org/2000/svg" xmlns:xlink="http://www.w3.org/1999/xlink" x="0px" y="0px"
	 width="24px" height="24px" viewBox="0 0 24 24" enable-background="new 0 0 24 24" xml:space="preserve">
<path id="Heart_Icon__x28_White_x29_" fill="#FFFFFF" fill-opacity="0.7" d="M22.9863281,8.7285156
	c-0.0087891,0.0957031-0.0166016,0.1875-0.0283203,0.2792969c-0.0673828,0.5976563-0.2236328,1.171875-0.4804688,1.7695313
	c-0.0566406,0.1210938-0.109375,0.2402344-0.1699219,0.359375c-0.0058594,0.015625-0.0185547,0.03125-0.0244141,0.046875
	c-0.1279297,0.2519531-0.2705078,0.5117188-0.4345703,0.7714844c-0.1884766,0.3046875-0.4482422,0.6582031-0.7617188,1.0429688
	c-0.0097656,0.0097656-0.0136719,0.0195313-0.0214844,0.0253906c-0.0488281,0.0605469-0.1074219,0.1210938-0.1582031,0.1875
	c-0.0332031,0.0410156-0.0605469,0.0722656-0.0986328,0.1132813c-0.0214844,0.0253906-0.0449219,0.0488281-0.0664063,0.078125
	c-2.2548828,2.6015625-6.546875,6.3632813-8.3896484,7.4238281C12.2314453,20.8945313,12.1132813,20.9550781,12.0166016,21
	c-0.0615234-0.0253906-0.1269531-0.0566406-0.1943359-0.0957031c-0.0087891-0.0058594-0.0205078-0.0097656-0.0302734-0.0175781
	c-0.09375-0.0488281-0.1875-0.1054688-0.2910156-0.1699219c-0.7246094-0.4472656-1.7519531-1.2285156-2.8720703-2.1621094
	c-0.2177734-0.1855469-0.4384766-0.375-0.6621094-0.5683594c-0.1435547-0.125-0.2900391-0.2539063-0.4384766-0.3847656
	c-2.0742188-1.828125-4.2177734-3.9628906-5.1826172-5.34375c-0.0722656-0.1074219-0.140625-0.2089844-0.2001953-0.3027344
	C1.2783203,10.5566406,0.9375,9.3574219,1.0087891,7.9589844C1.1464844,5.2246094,3.265625,3,5.7412109,3
	c2.1210938,0,4.0742188,2.3417969,4.6445313,3.2363281c0.3505859,0.5664063,0.9472656,0.9140625,1.5898438,0.921875
	c0.0048828,0,0.0175781,0,0.0234375,0c0.6054688,0,1.1679688-0.3007813,1.5390625-0.8085938
	c0.0136719-0.0195313,0.0292969-0.0410156,0.0449219-0.0644531C13.7724609,6,14.1044922,5.5761719,14.5263672,5.1230469
	c0.0214844-0.0214844,0.0439453-0.0449219,0.0634766-0.0703125c0.0175781-0.0117188,0.0341797-0.0332031,0.0507813-0.0507813
	C15.5712891,4.0449219,16.921875,3,18.2568359,3c2.4765625,0,4.59375,2.2246094,4.734375,4.9589844
	C23.0029297,8.21875,23.0029297,8.4785156,22.9863281,8.7285156z"/>
</svg>
