<?xml version="1.0" encoding="utf-8"?>
<!-- Generator: Adobe Illustrator 16.0.0, SVG Export Plug-In . SVG Version: 6.00 Build 0)  -->
<!DOCTYPE svg PUBLIC "-//W3C//DTD SVG 1.1//EN" "http://www.w3.org/Graphics/SVG/1.1/DTD/svg11.dtd">
<svg version="1.1" id="Layer_1" xmlns="http://www.w3.org/2000/svg" xmlns:xlink="http://www.w3.org/1999/xlink" x="0px" y="0px"
	 width="36px" height="36px" viewBox="0 0 36 36" enable-background="new 0 0 36 36" xml:space="preserve">
<path id="Heart_Icon_10_" fill="#FF577F" d="M26.9892578,15.3212891c-0.0068359,0.078125-0.0126953,0.1533203-0.0224609,0.2285156
	c-0.0566406,0.4892578-0.1835938,0.9589844-0.3935547,1.4482422c-0.0458984,0.0986328-0.0888672,0.1962891-0.1386719,0.2939453
	c-0.0048828,0.0126953-0.0166016,0.0253906-0.0205078,0.0380859c-0.1044922,0.2060547-0.2207031,0.4189453-0.3554688,0.6308594
	c-0.1542969,0.25-0.3671875,0.5390625-0.6230469,0.8535156c-0.0078125,0.0078125-0.0107422,0.0166016-0.0175781,0.0214844
	c-0.0400391,0.0488281-0.0878906,0.0986328-0.1289063,0.1533203c-0.0273438,0.0332031-0.0498047,0.0585938-0.0820313,0.0927734
	c-0.0175781,0.0205078-0.0371094,0.0390625-0.0546875,0.0634766c-1.84375,2.1289063-5.3564453,5.2060547-6.8632813,6.0742188
	c-0.0986328,0.0556641-0.1962891,0.1054688-0.2744141,0.1416016c-0.0517578-0.0205078-0.1044922-0.0458984-0.1601563-0.078125
	c-0.0068359-0.0048828-0.015625-0.0078125-0.0244141-0.0136719c-0.0761719-0.0400391-0.1523438-0.0869141-0.2373047-0.1396484
	C17,24.7636719,16.1591797,24.125,15.2421875,23.3613281c-0.1777344-0.1523438-0.3583984-0.3066406-0.5419922-0.4648438
	c-0.1171875-0.1025391-0.2363281-0.2080078-0.3583984-0.3154297c-1.6972656-1.4951172-3.4511719-3.2421875-4.2412109-4.3720703
	c-0.0585938-0.0878906-0.1142578-0.1708984-0.1630859-0.2480469c-0.7089844-1.1435547-0.9882813-2.125-0.9296875-3.2695313
	c0.1113281-2.2373047,1.8457031-4.0566406,3.8720703-4.0566406c1.7353516,0,3.3330078,1.9160156,3.7998047,2.6474609
	c0.2861328,0.4638672,0.7753906,0.7480469,1.3007813,0.7539063c0.0039063,0,0.0146484,0,0.0195313,0
	c0.4951172,0,0.9550781-0.2460938,1.2597656-0.6611328c0.0107422-0.015625,0.0234375-0.0332031,0.0361328-0.0527344
	c0.1552734-0.2333984,0.4267578-0.5800781,0.7724609-0.9511719c0.0175781-0.0175781,0.0351563-0.0361328,0.0507813-0.0576172
	c0.0136719-0.0087891,0.0283203-0.0263672,0.0410156-0.0410156c0.7626953-0.7832031,1.8671875-1.6376953,2.9599609-1.6376953
	c2.0263672,0,3.7587891,1.8193359,3.8740234,4.0566406C27.0029297,14.9042969,27.0029297,15.1171875,26.9892578,15.3212891z"/>
</svg>
