<?xml version="1.0" encoding="utf-8"?>
<!-- Generator: Adobe Illustrator 16.0.0, SVG Export Plug-In . SVG Version: 6.00 Build 0)  -->
<!DOCTYPE svg PUBLIC "-//W3C//DTD SVG 1.1//EN" "http://www.w3.org/Graphics/SVG/1.1/DTD/svg11.dtd">
<svg version="1.1" id="Layer_1" xmlns="http://www.w3.org/2000/svg" xmlns:xlink="http://www.w3.org/1999/xlink" x="0px" y="0px"
	 width="66px" height="66px" viewBox="0 0 66 66" enable-background="new 0 0 66 66" xml:space="preserve">
<g id="Portfolio_Button">
	<g>
		<g id="File_Folder_Icon_9_">
			<g>
				<path id="Icon_Component_2_10_" fill="#FFFFFF" d="M49.09375,32.1689453C48.6484375,31.359375,47.8642578,31,46.9902344,31
					H27.5917969c-0.9604492,0-1.8344727,0.4863281-2.2275391,1.4335938l-5.1303711,12.0761719
					C20.4267578,45.3964844,21.1621094,46,22.0390625,46h20.640625c0.8808594,0,1.6884766-0.5625,2.0810547-1.4541016
					l4.4365234-9.9677734C49.546875,33.7832031,49.5078125,32.9248047,49.09375,32.1689453z"/>
				<path id="Icon_Component_1_10_" fill="#FFFFFF" d="M24.2275391,29.3554688C24.6201172,28.4091797,25.5869141,28,26.5483398,28
					H45v-1.753418C45,25.1582031,44.0019531,24,43.0039063,24H32.3544922c-0.015625,0-0.0273438,0.1347656-0.03125,0.1308594
					l-1.9067383-3.1425781C30.0786133,20.4541016,29.5209961,20,28.9243164,20H21.996582C20.9960938,20,20,21.2915039,20,22.3798828
					v16.5537109L24.2275391,29.3554688z"/>
			</g>
		</g>
	</g>
</g>
</svg>
