<?xml version="1.0" encoding="utf-8"?>
<!-- Generator: Adobe Illustrator 16.0.0, SVG Export Plug-In . SVG Version: 6.00 Build 0)  -->
<!DOCTYPE svg PUBLIC "-//W3C//DTD SVG 1.1//EN" "http://www.w3.org/Graphics/SVG/1.1/DTD/svg11.dtd">
<svg version="1.1" id="Layer_1" xmlns="http://www.w3.org/2000/svg" xmlns:xlink="http://www.w3.org/1999/xlink" x="0px" y="0px"
	 width="66px" height="66px" viewBox="0 0 66 66" enable-background="new 0 0 66 66" xml:space="preserve">
<g id="Following_Button">
	<path id="Ghost_Icon" fill="#FFFFFF" d="M46.4335938,28.5761719C45.8222656,27.934082,44.875,27.7700195,44.078125,28.1660156
		l-1.4365234,0.7133789l-0.2099609-1.6064453C41.8105469,22.5581055,37.7539063,19,32.9990234,19
		c-4.7539063,0-8.8085938,3.5581055-9.4291992,8.2729492l-0.2119141,1.6064453l-1.4345703-0.7133789
		c-0.7954102-0.4003906-1.7441406-0.2338867-2.3588867,0.4101563c-0.6240234,0.6538086-0.7407227,1.5859375-0.2998047,2.3730469
		l3.0888672,5.5605469l-0.9960938,7.5683594c-0.1015625,0.7539063,0.222168,1.4892578,0.847168,1.9238281
		c0.6230469,0.4335938,1.4262695,0.4814453,2.0947266,0.1240234l2.3696289-1.2578125
		c0.3984375-0.2119141,0.8803711-0.21875,1.2856445-0.0166016l3.6328125,1.8164063
		C32.0292969,46.8886719,32.5161133,47,32.9990234,47c0.4838867,0,0.9697266-0.1113281,1.4111328-0.3320313l3.6328125-1.8164063
		c0.40625-0.2021484,0.8867188-0.1953125,1.2880859,0.0166016l2.3662109,1.2578125
		c0.6689453,0.3554688,1.4746094,0.3095703,2.0957031-0.1240234c0.6240234-0.4345703,0.9492188-1.1699219,0.8466797-1.9208984
		l-0.9970703-7.5712891l3.0917969-5.5585938C47.1767578,30.1621094,47.0585938,29.2299805,46.4335938,28.5761719z
		 M36.4990234,27.762207c0.9658203,0,1.7509766,0.7866211,1.7509766,1.7504883c0,0.9628906-0.7851563,1.7504883-1.7509766,1.7504883
		c-0.9638672,0-1.75-0.7875977-1.75-1.7504883C34.7490234,28.5488281,35.5351563,27.762207,36.4990234,27.762207z
		 M29.4990234,27.762207c0.9663086,0,1.7504883,0.7866211,1.7504883,1.7504883c0,0.9628906-0.7841797,1.7504883-1.7504883,1.7504883
		c-0.9643555,0-1.7480469-0.7875977-1.7480469-1.7504883C27.7509766,28.5488281,28.534668,27.762207,29.4990234,27.762207z
		 M39,35.9179688c0,1.6074219-1.3945313,2.9589844-3,2.9589844C34.390625,38.8769531,32.9990234,38,32.9990234,36h-4.9575195
		c-0.4819336,0-0.8754883-0.5175781-0.8754883-1c0-0.4833984,0.3935547-1,0.8754883-1h5.8325195h4.0830078
		C38.4414063,34,39,34.5595703,39,35.0429688V35.9179688z"/>
</g>
</svg>
