<?xml version="1.0" encoding="utf-8"?>
<!-- Generator: Adobe Illustrator 16.0.0, SVG Export Plug-In . SVG Version: 6.00 Build 0)  -->
<!DOCTYPE svg PUBLIC "-//W3C//DTD SVG 1.1//EN" "http://www.w3.org/Graphics/SVG/1.1/DTD/svg11.dtd">
<svg version="1.1" id="Layer_1" xmlns="http://www.w3.org/2000/svg" xmlns:xlink="http://www.w3.org/1999/xlink" x="0px" y="0px"
	 width="26px" height="26px" viewBox="0 0 26 26" enable-background="new 0 0 26 26" xml:space="preserve">
<path id="Icon_2_" opacity="0.5" d="M25.4746094,8.8920898c-0.5673828-0.5961914-1.4472656-0.7485352-2.1875-0.3808594
	L21.953125,9.1738281l-0.1953125-1.4916992C21.1816406,3.3037109,17.4140625,0,12.9990234,0
	C8.5849609,0,4.8198242,3.3037109,4.2431641,7.6821289L4.0463867,9.1738281L2.7143555,8.5112305
	c-0.7382813-0.371582-1.6196289-0.2172852-2.1904297,0.3808594c-0.5791016,0.6069336-0.6875,1.4726563-0.2783203,2.2036133
	l2.8681641,5.1630859l-0.9248047,7.0283203c-0.0942383,0.7001953,0.2060547,1.3828125,0.7866211,1.7861328
	c0.5786133,0.4023438,1.3242188,0.4472656,1.9453125,0.1152344l2.2001953-1.1679688
	c0.3701172-0.1962891,0.8173828-0.203125,1.1938477-0.015625l3.3735352,1.6865234
	C12.0986328,25.8964844,12.5507813,26,12.9990234,26c0.4492188,0,0.9003906-0.1035156,1.3105469-0.3085938l3.3720703-1.6865234
	c0.3789063-0.1875,0.8251953-0.1806641,1.1972656,0.015625l2.1972656,1.1679688
	c0.6210938,0.3300781,1.3691406,0.2871094,1.9462891-0.1152344c0.5791016-0.4033203,0.8798828-1.0859375,0.7861328-1.7832031
	l-0.9248047-7.03125l2.8701172-5.1611328C26.1640625,10.3647461,26.0556641,9.4990234,25.4746094,8.8920898z M16.2490234,8.1362305
	c0.8974609,0,1.6259766,0.7304688,1.6259766,1.6254883c0,0.894043-0.7285156,1.6254883-1.6259766,1.6254883
	c-0.8945313,0-1.625-0.7314453-1.625-1.6254883C14.6240234,8.8666992,15.3544922,8.1362305,16.2490234,8.1362305z
	 M9.7490234,8.1362305c0.8974609,0,1.6254883,0.7304688,1.6254883,1.6254883c0,0.894043-0.7280273,1.6254883-1.6254883,1.6254883
	c-0.8955078,0-1.6230469-0.7314453-1.6230469-1.6254883C8.1259766,8.8666992,8.8535156,8.1362305,9.7490234,8.1362305z
	 M18.4160156,15.7099609c0,1.4921875-1.2167969,2.7089844-2.7080078,2.7089844
	c-1.4941406,0-2.7089844-1.2167969-2.7089844-2.7089844H8.3955078c-0.4472656,0-0.8129883-0.3652344-0.8129883-0.8125
	c0-0.4492188,0.3657227-0.8125,0.8129883-0.8125h5.4160156h3.7919922c0.4492188,0,0.8125,0.3632813,0.8125,0.8125V15.7099609z"/>
</svg>
