<?xml version="1.0" encoding="utf-8"?>
<!-- Generator: Adobe Illustrator 16.0.0, SVG Export Plug-In . SVG Version: 6.00 Build 0)  -->
<!DOCTYPE svg PUBLIC "-//W3C//DTD SVG 1.1//EN" "http://www.w3.org/Graphics/SVG/1.1/DTD/svg11.dtd">
<svg version="1.1" id="Layer_1" xmlns="http://www.w3.org/2000/svg" xmlns:xlink="http://www.w3.org/1999/xlink" x="0px" y="0px"
	 width="66px" height="66px" viewBox="0 0 66 66" enable-background="new 0 0 66 66" xml:space="preserve">
<g id="Favorites_Button">
	<g id="Heart_Icon_3_">
		<g>
			<path id="Icon_Component_3_9_" fill="#FFFFFF" d="M39.3769531,44H23.6767578
				c-0.8549805,0-1.5454102,0.6601563-1.5454102,1.5019531C22.1313477,46.3369141,22.8217773,47,23.6767578,47h15.7001953
				c0.8554688,0,1.5478516-0.6630859,1.5478516-1.4980469C40.9248047,44.6601563,40.2324219,44,39.3769531,44z"/>
			<path id="Icon_Component_2_9_" fill="#FFFFFF" d="M44.828125,44.9863281
				c-0.0195313-0.0957031-0.0488281-0.1894531-0.0878906-0.2792969c-0.0390625-0.09375-0.0878906-0.1787109-0.140625-0.2636719
				c-0.0556641-0.0820313-0.1210938-0.1601563-0.1914063-0.2324219c-0.0742188-0.0703125-0.1542969-0.1308594-0.2363281-0.1855469
				c-0.0839844-0.0566406-0.1738281-0.1025391-0.2666016-0.1416016c-0.0947266-0.0400391-0.1904297-0.0673828-0.2900391-0.0869141
				c-0.5019531-0.0976563-1.0371094,0.0605469-1.3945313,0.4140625c-0.2900391,0.2832031-0.4550781,0.6748047-0.4550781,1.0761719
				c0,0.3984375,0.1650391,0.7910156,0.4550781,1.0742188c0.2832031,0.2792969,0.6855469,0.4414063,1.0927734,0.4414063
				c0.1005859,0,0.2021484-0.0097656,0.3017578-0.0263672c0.0996094-0.0224609,0.1953125-0.0517578,0.2900391-0.0878906
				c0.0927734-0.0380859,0.1826172-0.0869141,0.2666016-0.140625c0.0820313-0.0517578,0.1621094-0.1181641,0.2363281-0.1865234
				c0.0703125-0.0732422,0.1357422-0.1494141,0.1914063-0.2324219c0.0527344-0.0820313,0.1015625-0.1708984,0.140625-0.2636719
				c0.0390625-0.0917969,0.0683594-0.1875,0.0878906-0.2851563c0.0214844-0.0976563,0.0292969-0.1953125,0.0292969-0.2929688
				C44.8574219,45.1845703,44.8496094,45.0878906,44.828125,44.9863281z"/>
			<path id="Icon_Component_1_9_" fill="#FFFFFF" d="M46.0771484,27.2114258
				c-0.0107422,0.1113281-0.0185547,0.2177734-0.0332031,0.324707c-0.0791016,0.6923828-0.2646484,1.3583984-0.5673828,2.0517578
				c-0.0664063,0.1396484-0.1298828,0.2788086-0.2011719,0.4165039c-0.0058594,0.0180664-0.0214844,0.0361328-0.0292969,0.0541992
				c-0.1503906,0.2919922-0.3203125,0.5932617-0.5136719,0.8950195c-0.2226563,0.3530273-0.5292969,0.7631836-0.8994141,1.2089844
				c-0.0126953,0.0117188-0.0166016,0.0229492-0.0253906,0.0302734C43.75,32.2631836,43.6796875,32.3330078,43.6210938,32.409668
				c-0.0390625,0.0473633-0.0722656,0.0839844-0.1171875,0.1313477c-0.0253906,0.0297852-0.0527344,0.0576172-0.078125,0.0908203
				c-2.6660156,3.015625-7.7382813,7.3789063-9.9155273,8.6083984c-0.1435547,0.0800781-0.2827148,0.1494141-0.3974609,0.2021484
				c-0.0722656-0.0302734-0.1499023-0.0654297-0.2294922-0.1113281c-0.0102539-0.0068359-0.0239258-0.0107422-0.0356445-0.0205078
				c-0.1113281-0.0566406-0.222168-0.1230469-0.3442383-0.1972656c-0.8564453-0.5175781-2.0703125-1.4238281-3.394043-2.5078125
				c-0.2578125-0.2148438-0.5185547-0.4335938-0.7827148-0.6582031c-0.1694336-0.1445313-0.3427734-0.2949219-0.5180664-0.4462891
				c-2.4516602-2.1201172-4.9848633-4.5947266-6.125-6.1962891c-0.0854492-0.125-0.1660156-0.2416992-0.2363281-0.3510742
				c-1.0258789-1.6220703-1.4282227-3.0131836-1.3432617-4.6342773c0.1625977-3.1708984,2.6669922-5.7519531,5.5927734-5.7519531
				c2.5063477,0,4.8154297,3.0209961,5.4887695,4.0585938C31.5996094,25.2827148,32.3051758,26,33.0644531,26
				c0.0053711,0,0.0205078,0,0.027832,0c0.715332,0,1.3803711-0.6538086,1.8188477-1.2431641
				c0.0166016-0.0224609,0.0341797-0.2001953,0.0537109-0.2265625c0.2236328-0.3310547,0.6152344-0.8989258,1.1142578-1.4243164
				c0.0253906-0.0244141,0.0517578-0.090332,0.0751953-0.1196289c0.0214844-0.0136719,0.0410156-0.0571289,0.0605469-0.0776367
				c1.0996094-1.1103516,2.6953125-2.331543,4.2734375-2.331543c2.9277344,0,5.4287109,2.5756836,5.5957031,5.746582
				C46.0976563,26.625,46.0976563,26.9213867,46.0771484,27.2114258z"/>
		</g>
	</g>
</g>
</svg>
