<?xml version="1.0" encoding="utf-8"?>
<!-- Generator: Adobe Illustrator 16.0.0, SVG Export Plug-In . SVG Version: 6.00 Build 0)  -->
<!DOCTYPE svg PUBLIC "-//W3C//DTD SVG 1.1//EN" "http://www.w3.org/Graphics/SVG/1.1/DTD/svg11.dtd">
<svg version="1.1" id="Layer_1" xmlns="http://www.w3.org/2000/svg" xmlns:xlink="http://www.w3.org/1999/xlink" x="0px" y="0px"
	 width="26px" height="26px" viewBox="0 0 26 26" enable-background="new 0 0 26 26" xml:space="preserve">
<g id="Heart_Icon_1_" opacity="0.5">
	<path id="Icon_Component_3_1_" d="M19.7089844,22.8457031H3.3808594c-0.8891602,0-1.6074219,0.7050781-1.6074219,1.578125
		C1.7734375,25.2929688,2.4916992,26,3.3808594,26h16.328125c0.890625,0,1.609375-0.7070313,1.609375-1.5761719
		C21.3183594,23.5507813,20.5996094,22.8457031,19.7089844,22.8457031z"/>
	<path id="Icon_Component_2_1_" d="M25.3789063,24.1113281c-0.0214844-0.0996094-0.0507813-0.1972656-0.0917969-0.2910156
		c-0.0390625-0.0957031-0.0898438-0.1855469-0.1464844-0.2714844c-0.0585938-0.0878906-0.125-0.1699219-0.1972656-0.2441406
		c-0.0800781-0.0722656-0.1621094-0.1367188-0.2480469-0.1933594c-0.0859375-0.0585938-0.1796875-0.1054688-0.2773438-0.1464844
		s-0.1972656-0.0683594-0.3007813-0.0917969c-0.5214844-0.1015625-1.0800781,0.0664063-1.4511719,0.4316406
		c-0.3007813,0.2949219-0.4726563,0.703125-0.4726563,1.1191406c0,0.4140625,0.171875,0.8222656,0.4726563,1.1171875
		C22.9609375,25.8339844,23.3808594,26,23.8027344,26c0.1054688,0,0.2109375-0.0097656,0.3144531-0.0273438
		c0.1035156-0.0214844,0.203125-0.0527344,0.3007813-0.0898438c0.0976563-0.0410156,0.1914063-0.0917969,0.2773438-0.1464844
		s0.1679688-0.1230469,0.2480469-0.1953125c0.0722656-0.0761719,0.1386719-0.1542969,0.1972656-0.2402344
		c0.0566406-0.0859375,0.1074219-0.1777344,0.1464844-0.2734375c0.0410156-0.0957031,0.0703125-0.1953125,0.0917969-0.296875
		c0.0214844-0.1035156,0.03125-0.2050781,0.03125-0.3066406C25.4101563,24.3183594,25.4003906,24.21875,25.3789063,24.1113281z"/>
	<path id="Icon_Component_1_1_" d="M25.984375,6.6435547c-0.0097656,0.1113281-0.0195313,0.2177734-0.0332031,0.324707
		C25.8710938,7.6606445,25.6875,8.3266602,25.3828125,9.0200195c-0.0664063,0.1396484-0.1289063,0.2788086-0.2011719,0.4165039
		c-0.0058594,0.0180664-0.0214844,0.0361328-0.0273438,0.0541992c-0.1523438,0.2919922-0.3203125,0.5932617-0.5136719,0.8950195
		c-0.2226563,0.3530273-0.5292969,0.7631836-0.9003906,1.2089844c-0.0117188,0.0117188-0.015625,0.0229492-0.0253906,0.0302734
		c-0.0585938,0.0703125-0.1269531,0.1401367-0.1875,0.2167969c-0.0390625,0.0473633-0.0722656,0.0839844-0.1171875,0.1313477
		c-0.0253906,0.0297852-0.0527344,0.0576172-0.078125,0.0908203c-2.6640625,3.0161133-7.7382813,7.3793945-9.9145508,8.6079102
		c-0.1435547,0.0800781-0.2827148,0.1503906-0.3974609,0.203125c-0.0722656-0.03125-0.1499023-0.0664063-0.2290039-0.1113281
		c-0.0107422-0.0058594-0.0244141-0.0117188-0.0361328-0.0214844c-0.1113281-0.0566406-0.222168-0.1210938-0.3442383-0.1972656
		c-0.8564453-0.5175781-2.0703125-1.4238281-3.394043-2.5058594c-0.2578125-0.2148438-0.5185547-0.4355469-0.7827148-0.6601563
		c-0.1694336-0.1445313-0.3427734-0.2949219-0.5180664-0.4453125c-2.4516602-2.1210938-4.9848633-4.5952148-6.125-6.1967773
		c-0.0854492-0.125-0.1660156-0.2416992-0.2363281-0.3510742c-1.0258789-1.6220703-1.4282227-3.0126953-1.34375-4.6342773
		C0.1738281,2.5805664,2.6782227,0,5.6040039,0c2.5063477,0,4.8154297,2.7158203,5.4887695,3.753418
		c0.4140625,0.6567383,1.1196289,1.0595703,1.8789063,1.0693359c0.0053711,0,0.0205078,0,0.027832,0
		c0.7158203,0,1.3793945-0.3491211,1.8188477-0.9384766c0.015625-0.0224609,0.0351563-0.0473633,0.0527344-0.0742188
		c0.2246094-0.3305664,0.6171875-0.8227539,1.1152344-1.3481445C16.0117188,2.4375,16.0390625,2.409668,16.0625,2.3803711
		c0.0195313-0.0136719,0.0390625-0.0380859,0.0585938-0.0581055C17.2207031,1.2114258,18.8183594,0,20.3945313,0
		c2.9277344,0,5.4296875,2.5805664,5.5957031,5.7514648C26.0039063,6.0527344,26.0039063,6.3535156,25.984375,6.6435547z"/>
</g>
</svg>
