<?xml version="1.0" encoding="utf-8"?>
<!-- Generator: Adobe Illustrator 16.0.0, SVG Export Plug-In . SVG Version: 6.00 Build 0)  -->
<!DOCTYPE svg PUBLIC "-//W3C//DTD SVG 1.1//EN" "http://www.w3.org/Graphics/SVG/1.1/DTD/svg11.dtd">
<svg version="1.1" id="Layer_1" xmlns="http://www.w3.org/2000/svg" xmlns:xlink="http://www.w3.org/1999/xlink" x="0px" y="0px"
	 width="24px" height="18px" viewBox="0 0 24 18" enable-background="new 0 0 24 18" xml:space="preserve">
<path d="M21,0H3C1.2998047,0,0,1.2988281,0,2.9990234v12C0,16.6992188,1.2998047,18,3,18h18c1.7011719,0,3-1.3007813,3-3.0009766
	v-12C24,1.2988281,22.7011719,0,21,0z"/>
<path fill="#FFFFFF" d="M21,1.9990234H3c-0.5996094,0-1,0.3994141-1,1v12c0,0.6005859,0.4003906,1,1,1h18
	c0.5996094,0,1-0.3994141,1-1v-12C22,2.4003906,21.5996094,1.9990234,21,1.9990234z"/>
<g>
	<g>
		<g>
			<path d="M11.9956055,3.5356445c-1.5693359,0-2.8476563,1.2773438-2.8476563,2.8476563s1.2783203,2.8476563,2.8476563,2.8476563
				c1.5708008,0,2.8481445-1.2773438,2.8481445-2.8476563S13.5664063,3.5356445,11.9956055,3.5356445z"/>
		</g>
	</g>
	<g>
		<g>
			<path d="M15.5390625,11.0917969c-0.7792969-0.7929688-1.8125-1.2280273-2.9106445-1.2280273h-1.265625
				c-1.0966797,0-2.1298828,0.4350586-2.9101563,1.2280273c-0.7753906,0.7871094-1.203125,1.8261719-1.203125,2.9277344
				c0,0.1738281,0.1425781,0.3164063,0.3164063,0.3164063h8.8598633c0.1738281,0,0.3164063-0.1425781,0.3164063-0.3164063
				C16.7421875,12.9179688,16.3144531,11.8789063,15.5390625,11.0917969z"/>
		</g>
	</g>
</g>
</svg>
