<?xml version="1.0" encoding="utf-8"?>
<!-- Generator: Adobe Illustrator 16.0.0, SVG Export Plug-In . SVG Version: 6.00 Build 0)  -->
<!DOCTYPE svg PUBLIC "-//W3C//DTD SVG 1.1//EN" "http://www.w3.org/Graphics/SVG/1.1/DTD/svg11.dtd">
<svg version="1.1" id="Layer_1" xmlns="http://www.w3.org/2000/svg" xmlns:xlink="http://www.w3.org/1999/xlink" x="0px" y="0px"
	 width="24px" height="24px" viewBox="0 0 24 24" enable-background="new 0 0 24 24" xml:space="preserve">
<circle fill="#FF2B63" cx="12" cy="12" r="12"/>
<g>
	<rect x="0.1289063" y="4.8364258" fill="none" width="24.0859375" height="23.4506836"/>
	<path fill="#FFFFFF" d="M16.2597656,15.0429688c0,0.3310547-0.1279297,0.6240234-0.3837891,0.8798828
		c-0.2568359,0.2568359-0.5556641,0.3847656-0.8955078,0.3847656c-0.3525391,0-0.6679688-0.1445313-0.9453125-0.4326172
		l-1.871582-1.9521484L10.3076172,15.875c-0.2773438,0.2880859-0.5917969,0.4326172-0.9438477,0.4326172
		c-0.3413086,0-0.6401367-0.1279297-0.8959961-0.3847656c-0.2558594-0.2558594-0.3837891-0.5488281-0.3837891-0.8798828
		c0-0.3408203,0.1328125-0.6445313,0.3999023-0.9121094l1.9838867-1.9833984l-1.8242188-1.7919922
		c-0.2666016-0.2666016-0.3999023-0.5703125-0.3999023-0.9121094c0-0.3408203,0.1254883-0.6396484,0.3759766-0.8964844
		c0.2504883-0.2558594,0.546875-0.3837891,0.8881836-0.3837891c0.3623047,0,0.6772461,0.1494141,0.9438477,0.4482422
		l1.7119141,1.7441406l1.7280273-1.7441406c0.2773438-0.2880859,0.5927734-0.4316406,0.9443359-0.4316406
		c0.3417969,0,0.6367188,0.125,0.8876953,0.3759766c0.2509766,0.25,0.3759766,0.5410156,0.3759766,0.8720703
		c0,0.3408203-0.1328125,0.6503906-0.4003906,0.9277344l-1.8232422,1.7919922l1.9833984,1.9833984
		C16.1269531,14.3984375,16.2597656,14.7021484,16.2597656,15.0429688z"/>
</g>
</svg>
