<?xml version="1.0" encoding="utf-8"?>
<!-- Generator: Adobe Illustrator 16.0.0, SVG Export Plug-In . SVG Version: 6.00 Build 0)  -->
<!DOCTYPE svg PUBLIC "-//W3C//DTD SVG 1.1//EN" "http://www.w3.org/Graphics/SVG/1.1/DTD/svg11.dtd">
<svg version="1.1" id="Layer_1" xmlns="http://www.w3.org/2000/svg" xmlns:xlink="http://www.w3.org/1999/xlink" x="0px" y="0px"
	 width="26px" height="26px" viewBox="0 0 26 26" enable-background="new 0 0 26 26" xml:space="preserve">
<rect x="8" y="7.9995117" display="none" fill="#2BDAFF" width="10" height="9.9995117"/>
<g id="Icon_58_">
	<path fill="#4B80FF" d="M13.0170898-0.0078125c-4.2167969,0-6.7084961,1.2260742-8.6669922,2.8706055V1.074707
		c0-0.5986328-0.484375-1.0825195-1.0830078-1.0825195S2.1845703,0.4760742,2.1845703,1.074707v4.3330078
		c0,0.5981445,0.4838867,1.0839844,1.0825195,1.0839844h4.3330078c0.5981445,0,1.0839844-0.4858398,1.0839844-1.0839844
		c0-0.5966797-0.4858398-1.0830078-1.0839844-1.0830078H5.9858398c1.6362305-1.3022461,3.6376953-2.1669922,7.03125-2.1669922
		c5.9741211,0,10.8325195,4.8603516,10.8325195,10.8334961c0,5.9716797-4.8583984,10.8320313-10.8325195,10.8320313
		c-0.496582,0-0.9921875-0.0322266-1.4760742-0.0986328c-0.5859375-0.0839844-1.1391602,0.3330078-1.2192383,0.9257813
		c-0.081543,0.59375,0.3344727,1.1396484,0.9267578,1.2207031c0.5805664,0.0800781,1.1757813,0.1201172,1.7685547,0.1201172
		c7.168457,0,13.0004883-5.8330078,13.0004883-13C26.0175781,5.8227539,20.1855469-0.0078125,13.0170898-0.0078125z"/>
	<path fill="#4B80FF" d="M8.5488281,22.8623047c-0.7094727-0.3203125-1.3876953-0.7216797-2.0131836-1.1884766
		c-0.4790039-0.3583984-1.1572266-0.2617188-1.5170898,0.21875c-0.3588867,0.4785156-0.2602539,1.1572266,0.2202148,1.515625
		c0.7504883,0.5605469,1.5629883,1.0410156,2.4155273,1.4277344c0.1455078,0.0644531,0.2954102,0.0976563,0.4458008,0.0976563
		c0.4121094,0,0.8076172-0.2373047,0.9868164-0.6367188C9.3359375,23.7519531,9.0927734,23.109375,8.5488281,22.8623047z"/>
	<path fill="#4B80FF" d="M3.1459961,17.4560547c-0.2490234-0.5439453-0.890625-0.7851563-1.4350586-0.5400391
		c-0.5454102,0.2460938-0.7871094,0.890625-0.5405273,1.4345703c0.3847656,0.8505859,0.8652344,1.6650391,1.4277344,2.4150391
		c0.2138672,0.2851563,0.5380859,0.4355469,0.8706055,0.4355469c0.2250977,0,0.4511719-0.0703125,0.6474609-0.2158203
		c0.4790039-0.3574219,0.5766602-1.0380859,0.2172852-1.515625C3.8657227,18.8417969,3.4648438,18.1660156,3.1459961,17.4560547z"/>
	<path fill="#4B80FF" d="M1.3554688,15.6855469c0.5932617-0.0810547,1.0083008-0.6269531,0.9272461-1.2197266
		c-0.0654297-0.4824219-0.0981445-0.9794922-0.0981445-1.4746094c0-0.5976563-0.4863281-1.0820313-1.0844727-1.0820313
		c-0.5986328,0-1.0830078,0.484375-1.0830078,1.0820313c0,0.5932617,0.0400391,1.1875,0.1201172,1.7685547
		c0.0722656,0.5439453,0.5380859,0.9355469,1.0712891,0.9355469C1.2573242,15.6953125,1.3061523,15.6933594,1.3554688,15.6855469z"
		/>
	<path fill="#4B80FF" d="M13.0170898,5.4077148c-4.1821289,0-7.5830078,3.4023438-7.5830078,7.5834961
		c0,4.1806641,3.4008789,7.5830078,7.5830078,7.5830078s7.5825195-3.4023438,7.5825195-7.5830078
		C20.5996094,8.8100586,17.1992188,5.4077148,13.0170898,5.4077148z M15.0292969,14.2148438
		c0,0.7128906-0.3740234,1.0888672-1.0888672,1.0888672H10.75c-0.7143555,0-1.293457-0.3759766-1.293457-1.0888672
		c0-0.7163086,0.5791016-1.0898438,1.293457-1.0898438h2.1020508v-3.0112305c0-0.7133789,0.3740234-1.2929688,1.0883789-1.2929688
		c0.7148438,0,1.0888672,0.5795898,1.0888672,1.2929688V14.2148438z"/>
</g>
<g>
</g>
<g>
</g>
<g>
</g>
<g>
</g>
<g>
</g>
<g>
</g>
<g>
</g>
<g>
</g>
<g>
</g>
<g>
</g>
<g>
</g>
<g>
</g>
<g>
</g>
<g>
</g>
<g>
</g>
</svg>
