<?xml version="1.0" encoding="utf-8"?>
<!-- Generator: Adobe Illustrator 16.0.0, SVG Export Plug-In . SVG Version: 6.00 Build 0)  -->
<!DOCTYPE svg PUBLIC "-//W3C//DTD SVG 1.1//EN" "http://www.w3.org/Graphics/SVG/1.1/DTD/svg11.dtd">
<svg version="1.1" id="Layer_1" xmlns="http://www.w3.org/2000/svg" xmlns:xlink="http://www.w3.org/1999/xlink" x="0px" y="0px"
	 width="740px" height="740px" viewBox="0 0 740 740" enable-background="new 0 0 740 740" xml:space="preserve">
<g id="Logo_1_">
	<g>
		<rect x="-288.8544922" y="612.7734375" fill="none" width="1316.7978516" height="144.1914063"/>
		<path fill="#1D262D" d="M60.1606445,622.8164063c0-1.7900391,0.0581055-3.1328125,0.175293-4.0292969
			c0.1166992-0.8935547,0.4467773-1.9267578,0.9926758-3.0947266c1.0893555-2.1025391,4.1259766-3.1533203,9.1098633-3.1533203
			c4.7485352,0,7.7084961,1.0507813,8.8764648,3.1533203c0.6220703,1.1679688,0.9926758,2.21875,1.109375,3.1533203
			s0.175293,2.2978516,0.175293,4.0878906v54.0761719c0,2.8027344,0.2333984,4.5751953,0.7006836,5.3134766
			c0.4672852,0.7412109,1.4985352,1.1103516,3.0952148,1.1103516c1.5947266,0,2.6660156,0.0576172,3.2119141,0.1748047
			c0.543457,0.1171875,1.2060547,0.4492188,1.9853516,0.9931641c1.5566406,1.0126953,2.3359375,3.7773438,2.3359375,8.2919922
			c0,4.9052734-0.7792969,7.9033203-2.3359375,8.9931641c-2.0253906,1.4013672-6.8525391,1.6347656-14.4824219,0.7011719
			c-5.996582-0.7773438-9.8891602-2.7636719-11.6796875-5.9570313c-2.1806641-3.8134766-3.2700195-9.8876953-3.2700195-18.2197266
			V622.8164063z"/>
		<path fill="#1D262D" d="M156.5161133,664.9208984c0,4.7890625-1.1879883,8.3330078-3.5620117,10.6289063
			c-2.3759766,2.296875-5.0039063,3.4453125-7.8837891,3.4453125h-27.6801758c0,2.1806641,1.284668,4.0107422,3.8540039,5.4892578
			c2.5693359,1.4794922,5.1391602,2.21875,7.7084961,2.21875c4.5146484,0,8.0585938-0.4667969,10.628418-1.4013672
			l1.284668-0.4667969c1.8686523-0.8564453,3.425293-1.2851563,4.671875-1.2851563
			c2.4907227,0,4.6313477,1.7519531,6.4233398,5.2558594c1.0112305,2.1025391,1.5185547,3.8945313,1.5185547,5.3730469
			c0,6.9306641-8.2924805,10.3945313-24.8774414,10.3945313c-5.7626953,0-10.8818359-0.9931641-15.3583984-2.9785156
			c-4.4780273-1.9853516-7.9619141-4.6132813-10.453125-7.8837891c-4.9052734-6.3066406-7.3579102-13.3525391-7.3579102-21.1396484
			c0-9.8105469,3.171875-17.6542969,9.5185547-23.5341797c6.3452148-5.8779297,14.2675781-8.8183594,23.7680664-8.8183594
			c10.8217773,0,18.7636719,3.8164063,23.8256836,11.4462891
			C155.1914063,655.7148438,156.5161133,660.1328125,156.5161133,664.9208984z M131.8725586,668.3662109
			c2.9580078,0,4.4379883-1.2441406,4.4379883-3.7373047c0-1.7900391-0.6826172-3.2294922-2.0439453-4.3212891
			c-1.3632813-1.0888672-3.3100586-1.6347656-5.8393555-1.6347656c-2.53125,0-5.0424805,1.0332031-7.5336914,3.0947266
			c-2.4926758,2.0644531-3.7373047,4.2636719-3.7373047,6.5986328H131.8725586z"/>
		<path fill="#1D262D" d="M204.0517578,648.0439453c0.4667969-4.359375,3.5419922-6.5400391,9.2265625-6.5400391
			c3.0366211,0,5.2939453,0.2333984,6.7739258,0.7011719c1.4785156,0.4667969,2.5112305,1.2841797,3.0952148,2.4521484
			s0.9345703,2.2011719,1.0512695,3.0947266c0.1166992,0.8964844,0.175293,2.2392578,0.175293,4.0302734v40.8779297
			c0,1.7919922-0.0585938,3.1347656-0.175293,4.0292969c-0.1166992,0.8955078-0.4492188,1.9267578-0.9926758,3.0947266
			c-1.0913086,2.0263672-3.7578125,3.0371094-8.0004883,3.0371094c-4.2446289,0-7.0864258-0.5253906-8.5258789-1.5771484
			c-1.4418945-1.0507813-2.277832-2.5878906-2.5112305-4.6132813c-2.8818359,4.1279297-7.6904297,6.1904297-14.4243164,6.1904297
			c-6.7358398,0-12.984375-3.0751953-18.7456055-9.2265625c-5.7626953-6.1503906-8.6425781-13.2949219-8.6425781-21.4326172
			c0-8.1347656,2.8999023-15.2597656,8.7011719-21.3730469c5.7993164-6.1113281,12.1650391-9.1679688,19.0957031-9.1679688
			c2.6464844,0,5.0605469,0.4667969,7.2416992,1.4013672c2.1787109,0.9345703,3.6972656,1.8105469,4.5546875,2.6279297
			C202.8051758,646.4677734,203.5058594,647.2666016,204.0517578,648.0439453z M182.7949219,672.3378906
			c0,2.5693359,1.0112305,4.8867188,3.0366211,6.9492188c2.0239258,2.0634766,4.4765625,3.0947266,7.3579102,3.0947266
			c2.8798828,0,5.2744141-1.0507813,7.1831055-3.1533203c1.9072266-2.1025391,2.8613281-4.4179688,2.8613281-6.9492188
			c0-2.5292969-0.9160156-4.8857422-2.7446289-7.0664063c-1.8300781-2.1787109-4.2832031-3.2695313-7.3579102-3.2695313
			c-3.0766602,0-5.5678711,1.0908203-7.4750977,3.2695313C183.7475586,667.3935547,182.7949219,669.7685547,182.7949219,672.3378906
			z"/>
		<path fill="#1D262D" d="M275.5292969,642.2050781c1.4780273,0.4667969,2.7045898,1.265625,3.6787109,2.3935547
			c0.9726563,1.1298828,1.4599609,2.9404297,1.4599609,5.4316406c0,2.4921875-0.7407227,5.2167969-2.21875,8.1748047
			c-1.4799805,2.9609375-3.6206055,4.4384766-6.4238281,4.4384766c-1.4013672,0-2.7446289-0.3095703-4.0292969-0.9345703
			c-1.284668-0.6220703-2.9785156-0.9335938-5.0805664-0.9335938c-2.1025391,0-4.0698242,0.7402344-5.8984375,2.21875
			c-1.8300781,1.4804688-2.7446289,3.2705078-2.7446289,5.3720703v24.5273438c0,1.7919922-0.0581055,3.1347656-0.175293,4.0292969
			c-0.1166992,0.8964844-0.4868164,1.9267578-1.109375,3.0947266c-1.1679688,2.0263672-4.2045898,3.0371094-9.1098633,3.0371094
			c-3.7373047,0-6.4238281-0.6601563-8.059082-1.9853516c-1.2460938-1.0898438-1.9472656-2.7626953-2.1020508-5.0224609
			c0-0.7773438,0-1.9072266,0-3.3867188v-40.9951172c0-1.7900391,0.0581055-3.1337891,0.175293-4.0292969
			c0.1166992-0.8945313,0.4467773-1.8867188,0.9926758-2.9785156c1.0893555-2.1025391,4.1259766-3.1533203,9.1098633-3.1533203
			c4.671875,0,7.5917969,0.8964844,8.7597656,2.6865234c0.855957,1.2460938,1.284668,2.53125,1.284668,3.8535156
			c0.3886719-0.5429688,0.9526367-1.2060547,1.6933594-1.9853516c0.7392578-0.7773438,2.315918-1.828125,4.7304688-3.1533203
			c2.4121094-1.3232422,4.534668-1.9853516,6.3652344-1.9853516c1.8286133,0,3.3666992,0.0986328,4.6132813,0.2919922
			C272.6860352,641.4072266,274.0493164,641.7373047,275.5292969,642.2050781z"/>
		<path fill="#1D262D" d="M321.3110352,641.5039063c7.7851563,0,14.2670898,2.9785156,19.4462891,8.9345703
			c5.1772461,5.9570313,7.7670898,13.2177734,7.7670898,21.7822266v20.5556641c0,1.7919922-0.0585938,3.1357422-0.175293,4.0302734
			c-0.1166992,0.8955078-0.4492188,1.8886719-0.9926758,2.9775391c-1.0913086,2.1025391-4.1279297,3.1533203-9.1103516,3.1533203
			c-5.5292969,0-8.7211914-1.4394531-9.5771484-4.3212891c-0.4667969-1.3232422-0.7006836-3.3085938-0.7006836-5.9560547
			v-20.5556641c0-3.1923828-0.9160156-5.6835938-2.7446289-7.4755859c-1.8305664-1.7900391-4.2832031-2.6855469-7.3579102-2.6855469
			c-3.0766602,0-5.5678711,0.9335938-7.4750977,2.8027344c-1.9086914,1.8691406-2.8613281,4.3212891-2.8613281,7.3583984v20.671875
			c0,1.7919922-0.0585938,3.1357422-0.175293,4.0302734c-0.1166992,0.8955078-0.4873047,1.8886719-1.109375,2.9775391
			c-1.0126953,2.1025391-4.0112305,3.1533203-8.9931641,3.1533203c-4.9052734,0-7.9038086-1.0507813-8.9931641-3.1533203
			c-0.5458984-1.1679688-0.8759766-2.1992188-0.9926758-3.0947266c-0.1171875-0.8945313-0.175293-2.2373047-0.175293-4.0292969
			v-41.3457031c0-1.7119141,0.0581055-3.0166016,0.175293-3.9121094c0.1166992-0.8945313,0.4853516-1.8876953,1.109375-2.9785156
			c1.0893555-1.9453125,4.0878906-2.9199219,8.9931641-2.9199219c4.7485352,0,7.668457,0.8964844,8.7597656,2.6865234
			c0.7773438,1.3242188,1.1679688,2.9199219,1.1679688,4.7880859c0.3100586-0.5439453,1.0107422-1.3232422,2.1020508-2.3359375
			c1.0893555-1.0107422,2.140625-1.828125,3.1533203-2.4521484
			C315.1977539,642.4003906,318.1176758,641.5039063,321.3110352,641.5039063z"/>
		<path fill="#1D262D" d="M377.0791016,630.1162109c-0.5839844,1.1298828-1.6171875,1.9277344-3.0957031,2.3945313
			c-1.4794922,0.4667969-3.4453125,0.7011719-5.8974609,0.7011719c-2.453125,0-4.4199219-0.234375-5.8984375-0.7011719
			c-1.4799805-0.4667969-2.5112305-1.2851563-3.0952148-2.453125s-0.934082-2.1982422-1.0507813-3.0947266
			c-0.1171875-0.8945313-0.175293-2.2373047-0.175293-4.0292969c0-1.7900391,0.0581055-3.1337891,0.175293-4.0292969
			c0.1166992-0.8945313,0.4467773-1.8867188,0.9926758-2.9785156c1.0893555-2.1025391,4.1259766-3.1533203,9.1103516-3.1533203
			c4.9052734,0,7.8632813,1.0507813,8.8759766,3.1533203c0.6220703,1.1679688,0.9931641,2.2011719,1.109375,3.0947266
			c0.1171875,0.8964844,0.1757813,2.2392578,0.1757813,4.0302734c0,1.7919922-0.0585938,3.1347656-0.1757813,4.0292969
			C378.0136719,627.9755859,377.6630859,628.9882813,377.0791016,630.1162109z M357.8662109,651.7822266
			c0-1.7910156,0.0581055-3.1337891,0.175293-4.0302734c0.1166992-0.8935547,0.4467773-1.9267578,0.9926758-3.0947266
			c1.0893555-2.0234375,4.1259766-3.0361328,9.1103516-3.0361328c3.7373047,0,6.3828125,0.6621094,7.9414063,1.9853516
			c1.3232422,1.0908203,2.0244141,2.7646484,2.1025391,5.0214844c0.0761719,0.7792969,0.1171875,1.9091797,0.1171875,3.3876953
			v40.8779297c0,1.7919922-0.0585938,3.1347656-0.1757813,4.0292969c-0.1162109,0.8964844-0.4873047,1.9267578-1.109375,3.0947266
			c-1.0126953,2.0263672-4.0117188,3.0371094-8.9931641,3.0371094c-4.9052734,0-7.9038086-1.0507813-8.9931641-3.1533203
			c-0.5458984-1.1679688-0.8759766-2.1787109-0.9926758-3.0371094c-0.1171875-0.8554688-0.175293-2.21875-0.175293-4.0878906
			V651.7822266z"/>
		<path fill="#1D262D" d="M421.8691406,641.5039063c7.7851563,0,14.2675781,2.9785156,19.4462891,8.9345703
			c5.1777344,5.9570313,7.7666016,13.2177734,7.7666016,21.7822266v20.5556641c0,1.7919922-0.0576172,3.1357422-0.1748047,4.0302734
			c-0.1171875,0.8955078-0.4492188,1.8886719-0.9931641,2.9775391c-1.0908203,2.1025391-4.1279297,3.1533203-9.109375,3.1533203
			c-5.5292969,0-8.7216797-1.4394531-9.5771484-4.3212891c-0.4677734-1.3232422-0.7011719-3.3085938-0.7011719-5.9560547
			v-20.5556641c0-3.1923828-0.9160156-5.6835938-2.7441406-7.4755859c-1.8310547-1.7900391-4.2832031-2.6855469-7.3583984-2.6855469
			c-3.0771484,0-5.5683594,0.9335938-7.4746094,2.8027344c-1.9091797,1.8691406-2.8613281,4.3212891-2.8613281,7.3583984v20.671875
			c0,1.7919922-0.0585938,3.1357422-0.1757813,4.0302734c-0.1162109,0.8955078-0.4873047,1.8886719-1.109375,2.9775391
			c-1.0126953,2.1025391-4.0117188,3.1533203-8.9931641,3.1533203c-4.9052734,0-7.9033203-1.0507813-8.9931641-3.1533203
			c-0.5458984-1.1679688-0.8759766-2.1992188-0.9931641-3.0947266c-0.1162109-0.8945313-0.1748047-2.2373047-0.1748047-4.0292969
			v-41.3457031c0-1.7119141,0.0585938-3.0166016,0.1748047-3.9121094c0.1171875-0.8945313,0.4853516-1.8876953,1.109375-2.9785156
			c1.0898438-1.9453125,4.0878906-2.9199219,8.9941406-2.9199219c4.7480469,0,7.6679688,0.8964844,8.7587891,2.6865234
			c0.7773438,1.3242188,1.1679688,2.9199219,1.1679688,4.7880859c0.3105469-0.5439453,1.0117188-1.3232422,2.1025391-2.3359375
			c1.0898438-1.0107422,2.140625-1.828125,3.1533203-2.4521484
			C415.7558594,642.4003906,418.6757813,641.5039063,421.8691406,641.5039063z"/>
		<path fill="#1D262D" d="M497.4345703,695.3466797c-2.9609375,3.8935547-7.6708984,5.8388672-14.1328125,5.8388672
			c-6.4638672,0-12.5166016-2.9775391-18.1611328-8.9345703c-5.6464844-5.9560547-8.4677734-12.9052734-8.4677734-20.8476563
			s2.8417969-14.9091797,8.5263672-20.90625c5.6826172-5.9951172,11.9130859-8.9931641,18.6865234-8.9931641
			c2.6464844,0,5.0605469,0.4873047,7.2412109,1.4599609c2.1796875,0.9746094,3.6796875,1.8691406,4.4970703,2.6865234
			s1.4599609,1.5761719,1.9267578,2.2773438c0.2333984-2.1787109,1.03125-3.8339844,2.3945313-4.9638672
			c1.3613281-1.1279297,3.5625-1.6933594,6.5986328-1.6933594c3.0371094,0,5.2558594,0.2333984,6.6572266,0.7001953
			c1.4013672,0.4677734,2.3945313,1.2666016,2.9785156,2.3945313c0.5839844,1.1298828,0.9345703,2.1220703,1.0507813,2.9785156
			c0.1171875,0.8574219,0.1757813,2.1806641,0.1757813,3.9707031v48.3535156c0,8.953125-3.1152344,16.1757813-9.34375,21.6650391
			c-6.2304688,5.4892578-13.2382813,8.234375-21.0234375,8.234375c-5.9179688,0-11.5625-1.4423828-16.9345703-4.3212891
			c-5.3730469-2.8818359-8.0595703-5.4902344-8.0595703-7.8251953c0-3.0371094,1.1679688-5.7236328,3.5039063-8.0595703
			c1.4785156-1.6347656,2.6279297-2.7646484,3.4462891-3.3867188c0.8173828-0.6240234,1.7695313-0.9345703,2.8613281-0.9345703
			c1.0888672,0,2.21875,0.4677734,3.3867188,1.4013672c3.7373047,2.8798828,7.7851563,4.3212891,12.1464844,4.3212891
			c2.9580078,0,5.3730469-1.1679688,7.2412109-3.5029297c1.8691406-2.3359375,2.8037109-5.1396484,2.8037109-8.4101563V695.3466797z
			 M476.6445313,671.4619141c0,2.53125,0.9931641,4.8085938,2.9785156,6.8320313
			c1.9853516,2.0263672,4.3974609,3.0371094,7.2412109,3.0371094c2.8417969,0,5.1972656-1.03125,7.0664063-3.0957031
			c1.8681641-2.0615234,2.8027344-4.3212891,2.8027344-6.7734375c0-2.453125-0.8964844-4.7490234-2.6865234-6.890625
			c-1.7919922-2.140625-4.2041016-3.2119141-7.2412109-3.2119141c-3.0361328,0-5.4892578,1.0507813-7.3583984,3.1533203
			C477.5791016,666.6152344,476.6445313,668.9326172,476.6445313,671.4619141z"/>
		<path fill="#1D262D" d="M562.7216797,641.6210938c5.3720703,0,8.5263672,1.4794922,9.4599609,4.4375
			c0.4677734,1.4804688,0.7011719,3.4277344,0.7011719,5.8398438c0,2.4150391-0.2539063,4.3417969-0.7587891,5.78125
			c-0.5078125,1.4423828-1.3056641,2.4726563-2.3945313,3.0957031c-1.6357422,0.9335938-4.0117188,1.4013672-7.125,1.4013672
			l-7.4746094-0.4677734v31.3017578c0,2.9599609-0.3701172,5.1582031-1.109375,6.5986328
			c-0.7412109,1.4414063-1.8691406,2.3945313-3.3867188,2.8613281c-1.5185547,0.4667969-3.4863281,0.7011719-5.8984375,0.7011719
			c-2.4140625,0-4.3417969-0.2519531-5.78125-0.7597656c-1.4414063-0.5048828-2.4726563-1.3232422-3.0947266-2.4521484
			c-0.625-1.1279297-0.9931641-2.1611328-1.1103516-3.0957031c-0.1162109-0.9335938-0.1748047-2.2958984-0.1748047-4.0878906
			v-30.9501953h-4.2050781c-2.0253906-0.1552734-3.4648438-0.6220703-4.3212891-1.4013672
			c-1.4794922-1.4785156-2.21875-4.3212891-2.21875-8.5263672c0-6.3837891,2.2958984-9.5771484,6.890625-9.5771484h3.8544922
			v-6.1894531c0-5.9951172,2.140625-11.4267578,6.4238281-16.2929688c4.28125-4.8652344,10.4716797-7.2998047,18.5703125-7.2998047
			c1.7900391,0,3.1328125,0.0585938,4.0292969,0.1748047c0.8945313,0.1171875,1.9267578,0.4873047,3.0947266,1.109375
			c2.1025391,1.0126953,3.1533203,4.0117188,3.1533203,8.9931641c0,3.7382813-0.6621094,6.4238281-1.9853516,8.0595703
			c-1.0908203,1.2460938-2.8027344,1.9472656-5.1386719,2.1015625c-0.7011719,0-1.7919922,0-3.2705078,0
			c-2.8808594,0-4.3212891,0.9746094-4.3212891,2.9199219v6.4238281L562.7216797,641.6210938z"/>
		<path fill="#1D262D" d="M606.6367188,702.8212891c-7.8652344,0-14.3857422-2.9785156-19.5634766-8.9345703
			c-5.1787109-5.9570313-7.7666016-13.2167969-7.7666016-21.7822266v-20.4394531
			c0-1.8691406,0.0585938-3.2304688,0.1748047-4.0878906c0.1171875-0.8554688,0.4472656-1.8681641,0.9931641-3.0361328
			c1.0898438-2.1025391,4.1259766-3.1542969,9.1103516-3.1542969c5.4482422,0,8.6425781,1.4804688,9.5771484,4.4384766
			c0.4667969,1.2460938,0.7001953,3.2324219,0.7001953,5.9570313v20.4384766c0,3.1933594,0.9140625,5.6845703,2.7451172,7.4746094
			c1.828125,1.7929688,4.28125,2.6865234,7.3574219,2.6865234c3.0751953,0,5.5664063-0.9345703,7.4755859-2.8027344
			c1.90625-1.8691406,2.8613281-4.3212891,2.8613281-7.3583984v-20.6728516c0-1.7900391,0.0585938-3.1328125,0.1748047-4.0292969
			c0.1171875-0.8935547,0.4853516-1.9267578,1.109375-3.0947266c1.0117188-2.0234375,4.0097656-3.0371094,8.9931641-3.0371094
			c4.9052734,0,7.9023438,1.0517578,8.9931641,3.1542969c0.5439453,1.1679688,0.8759766,2.2001953,0.9931641,3.0947266
			c0.1171875,0.8955078,0.1748047,2.2392578,0.1748047,4.0292969v41.3457031c0,1.7128906-0.0576172,3.0175781-0.1748047,3.9121094
			c-0.1171875,0.8964844-0.4873047,1.8886719-1.109375,2.9785156c-1.1679688,2.0253906-4.1669922,3.0361328-8.9931641,3.0361328
			c-4.7509766,0-7.6699219-0.9335938-8.7597656-2.8027344c-0.7792969-1.3232422-1.1679688-2.9199219-1.1679688-4.7880859
			c-0.3125,0.5449219-1.0126953,1.3242188-2.1025391,2.3359375c-1.0908203,1.0126953-2.1425781,1.8681641-3.1533203,2.5693359
			C612.6308594,701.9648438,609.75,702.8212891,606.6367188,702.8212891z"/>
		<path fill="#1D262D" d="M650.0830078,622.8164063c0-1.7900391,0.0585938-3.1328125,0.1748047-4.0292969
			c0.1171875-0.8935547,0.4472656-1.9267578,0.9931641-3.0947266c1.0898438-2.1025391,4.1259766-3.1533203,9.1103516-3.1533203
			c4.7480469,0,7.7080078,1.0507813,8.8759766,3.1533203c0.6220703,1.1679688,0.9931641,2.21875,1.109375,3.1533203
			c0.1171875,0.9345703,0.1757813,2.2978516,0.1757813,4.0878906v54.0761719c0,2.8027344,0.2333984,4.5751953,0.7001953,5.3134766
			c0.4667969,0.7412109,1.4980469,1.1103516,3.0947266,1.1103516c1.5957031,0,2.6669922,0.0576172,3.2119141,0.1748047
			c0.5439453,0.1171875,1.2070313,0.4492188,1.9863281,0.9931641c1.5566406,1.0126953,2.3349609,3.7773438,2.3349609,8.2919922
			c0,4.9052734-0.7783203,7.9033203-2.3349609,8.9931641c-2.0263672,1.4013672-6.8525391,1.6347656-14.4833984,0.7011719
			c-5.9960938-0.7773438-9.8886719-2.7636719-11.6787109-5.9570313c-2.1806641-3.8134766-3.2705078-9.8876953-3.2705078-18.2197266
			V622.8164063z"/>
	</g>
	<g>
		<path fill="#C8937E" d="M232.0170898,436.6601563l-52.0126953,88.4541016
			c-3.8505859,6.5478516-2.7885742,14.8662109,2.5825195,20.2382813l9.2338867,9.2333984
			c5.3706055,5.3691406,13.690918,6.4335938,20.237793,2.5830078l88.4521484-52.0146484
			c9.4018555-5.5273438,11.0498047-18.4462891,3.3374023-26.15625l-45.6743164-45.6767578
			C250.4638672,425.6113281,237.546875,427.2617188,232.0170898,436.6601563z"/>
		<path fill="#605F5D" d="M185.6699219,592.65625l-26.9272461,5.3935547
			c-11.671875,2.3427734-21.9633789-7.9462891-19.6240234-19.6210938l5.3994141-26.9248047
			c2.6196289-13.0507813,18.7246094-17.9228516,28.1362305-8.5136719l21.5253906,21.5273438
			C203.590332,573.9306641,198.7197266,590.0361328,185.6699219,592.65625z"/>
		<path fill="#E1C3B4" d="M348.2431641,560.0351563l-117,23.4658203
			c-5.4667969,1.0947266-11.1230469-0.6123047-15.0673828-4.5595703l0,0
			c-7.7119141-7.7089844-6.0629883-20.6289063,3.3378906-26.15625l88.453125-52.0136719
			c6.5478516-3.8515625,14.8686523-2.7880859,20.2358398,2.5820313L356.753418,531.90625
			C366.1650391,541.3144531,361.293457,557.4150391,348.2431641,560.0351563z"/>
		<path fill="#B06851" d="M158.2290039,520.9941406L158.2290039,520.9941406
			c-3.9418945-3.9394531-5.6513672-9.5976563-4.5566406-15.0644531l23.4658203-116.9980469
			c2.6176758-13.0488281,18.7202148-17.9238281,28.1323242-8.5097656l28.5483398,28.5449219
			c5.3696289,5.3710938,6.4331055,13.6953125,2.5810547,20.2402344l-52.0117188,88.453125
			C178.8583984,527.0605469,165.9414063,528.7080078,158.2290039,520.9941406z"/>
		<g>
			<g>
				<path fill="#00D885" d="M214.9799805,377.4785156c-8.390625-8.394043-8.390625-21.9897461,0-30.3842773l75.3603516-75.3579102
					c8.3891602-8.3901367,21.9897461-8.3901367,30.3808594,0c8.3886719,8.3911133,8.3886719,21.9946289,0,30.3818359
					l-75.359375,75.3603516C236.9702148,385.8662109,223.3696289,385.8662109,214.9799805,377.4785156z"/>
			</g>
		</g>
		<g>
			<g>
				<path fill="#00D885" d="M351.0473633,241.4086914c-8.3925781-8.3867188-8.3891602-21.9907227,0-30.3774414
					l75.3588867-75.3613281c8.390625-8.390625,21.9902344-8.390625,30.3818359,0
					c8.3896484,8.3876953,8.3896484,21.9902344,0.0029297,30.3779297l-75.3613281,75.3608398
					C373.0390625,249.7998047,359.4360352,249.7998047,351.0473633,241.4086914z"/>
			</g>
		</g>
		<g>
			<g>
				<path fill="#FFC82C" d="M287.3378906,449.8369141c-8.390625-8.3955078-8.3916016-21.9931641-0.0009766-30.3857422
					l55.0561523-55.0585938c8.3916016-8.3862305,21.9946289-8.3862305,30.3852539,0
					c8.3935547,8.3945313,8.3857422,21.9902344-0.0039063,30.3847656l-55.0566406,55.0566406
					C309.3271484,458.2236328,295.7285156,458.2236328,287.3378906,449.8369141z"/>
			</g>
		</g>
		<g>
			<g>
				<path fill="#FFC82C" d="M380.1445313,357.0327148c-8.3925781-8.3950195-8.3925781-21.9980469,0-30.3847656l11.6640625-11.668457
					c8.3916016-8.3911133,21.9902344-8.3911133,30.3867188,0.0039063c8.3857422,8.387207,8.3857422,21.9863281-0.0058594,30.3779297
					l-11.6669922,11.6635742C402.1347656,365.4194336,388.5322266,365.4194336,380.1445313,357.0327148z"/>
			</g>
		</g>
		<g>
			<g>
				<path fill="#A22CFF" d="M251.159668,413.6582031c-8.3896484-8.390625-8.3911133-21.9902344,0-30.3847656
					l222.8764648-222.8759766c8.3916016-8.3901367,21.9941406-8.3901367,30.3847656,0
					c8.3886719,8.387207,8.3886719,21.9902344,0,30.3779297L281.5405273,413.6582031
					C273.1503906,422.0449219,259.5473633,422.0449219,251.159668,413.6582031z"/>
			</g>
		</g>
		<g>
			<g>
				<path fill="#A22CFF" d="M509.2304688,155.5844727c-8.390625-8.387207-8.390625-21.9902344,0-30.3808594L614.8447266,19.590332
					c8.3935547-8.3950195,21.9941406-8.3911133,30.3837891,0c8.3876953,8.387207,8.3876953,21.9897461,0,30.3779297
					L539.6103516,155.5844727C531.2207031,163.9755859,517.6201172,163.9716797,509.2304688,155.5844727z"/>
			</g>
		</g>
		<g>
			<g>
				<path fill="#2C78FF" d="M323.5180664,486.015625c-8.3896484-8.390625-8.3935547-21.9941406-0.003418-30.3837891
					l263.3085938-263.3051758c8.3867188-8.3916016,21.9912109-8.3876953,30.3808594,0
					c8.3916016,8.390625,8.3916016,21.9902344,0,30.3803711L353.8984375,486.015625
					C345.5078125,494.4033203,331.9082031,494.4033203,323.5180664,486.015625z"/>
			</g>
		</g>
		<g>
			<g>
				<path fill="#FF2B4C" d="M400.9560547,480.9375c-8.390625-8.3916016-8.3955078-21.9902344,0-30.3847656l176.4736328-176.4741211
					c8.390625-8.390625,21.9941406-8.390625,30.3808594-0.003418c8.390625,8.390625,8.390625,21.9936523,0,30.3842773
					L431.3330078,480.9375C422.9462891,489.3232422,409.3417969,489.3232422,400.9560547,480.9375z"/>
			</g>
		</g>
		<g>
			<g>
				<path fill="#FF2B4C" d="M359.6958008,522.1953125c-8.3876953-8.390625-8.390625-21.9902344,0-30.3857422l0,0
					c8.3901367-8.3876953,21.9926758-8.3876953,30.3842773,0c8.3896484,8.3876953,8.3867188,21.9951172-0.0039063,30.3857422l0,0
					C381.6884766,530.5820313,368.0859375,530.5820313,359.6958008,522.1953125z"/>
			</g>
		</g>
		<g>
			<g>
				<path fill="#00D885" d="M463.5664063,128.8950195c-8.3945313-8.3950195-8.3925781-21.9941406,0-30.3847656l0,0
					c8.3876953-8.387207,21.9902344-8.3911133,30.3808594,0c8.390625,8.3867188,8.390625,21.9897461,0,30.3808594l0,0
					C485.5566406,137.2822266,471.9541016,137.2822266,463.5664063,128.8950195z"/>
			</g>
		</g>
	</g>
</g>
</svg>
