<?xml version="1.0" encoding="utf-8"?>
<!-- Generator: Adobe Illustrator 16.0.0, SVG Export Plug-In . SVG Version: 6.00 Build 0)  -->
<!DOCTYPE svg PUBLIC "-//W3C//DTD SVG 1.1//EN" "http://www.w3.org/Graphics/SVG/1.1/DTD/svg11.dtd">
<svg version="1.1" id="Layer_1" xmlns="http://www.w3.org/2000/svg" xmlns:xlink="http://www.w3.org/1999/xlink" x="0px" y="0px"
	 width="14px" height="14px" viewBox="0 0 14 14" enable-background="new 0 0 14 14" xml:space="preserve">
<g>
	<g>
		<path fill="#CCDBE5" stroke="#CCDBE5" stroke-miterlimit="10" d="M10.6640625,2.9492188L10.6640625,2.9492188
			c0.0087891,0.4238281-0.1542969,0.8217773-0.4677734,1.1479492L7.3100586,7.0947266l2.8793945,2.7685547
			c0.8535156,0.8222656,0.5068359,2.2890625-0.5488281,2.7509766c-0.6103516,0.2666016-1.2714844,0.1435547-1.7646484-0.3320313
			L3.7905273,8.3476563C3.152832,7.7387695,3.1264648,6.6137695,3.7397461,5.9829102L7.777832,1.7861328
			c0.4770508-0.4975586,1.1362305-0.6464844,1.762207-0.4003906C10.1992188,1.6425781,10.6513672,2.2724609,10.6640625,2.9492188z
			 M5.4482422,7.1289063l3.7978516-3.9453125C9.3476563,3.0776367,9.3466797,3,9.3466797,2.9750977
			c-0.0039063-0.1386719-0.1318359-0.3017578-0.2871094-0.362793C8.9326172,2.5625,8.8330078,2.5878906,8.7255859,2.699707
			L4.6860352,6.8974609C4.4555664,7.1376953,4.5961914,7.2993164,4.7036133,7.3979492l4.0864258,3.9350586
			c0.1064453,0.1035156,0.2050781,0.1259766,0.3222656,0.0742188c0.1552734-0.0683594,0.2773438-0.2382813,0.2744141-0.3818359
			c0-0.0273438-0.0019531-0.1074219-0.1103516-0.2128906L5.4482422,7.1289063z"/>
	</g>
</g>
</svg>
