<?xml version="1.0" encoding="utf-8"?>
<!-- Generator: Adobe Illustrator 16.0.0, SVG Export Plug-In . SVG Version: 6.00 Build 0)  -->
<!DOCTYPE svg PUBLIC "-//W3C//DTD SVG 1.1//EN" "http://www.w3.org/Graphics/SVG/1.1/DTD/svg11.dtd">
<svg version="1.1" id="Layer_1" xmlns="http://www.w3.org/2000/svg" xmlns:xlink="http://www.w3.org/1999/xlink" x="0px" y="0px"
	 width="20px" height="20px" viewBox="0 0 20 20" enable-background="new 0 0 20 20" xml:space="preserve">
<g id="Checkmark_Icon_6_">
	<path id="Checkmark_11_" fill="#FFFFFF" d="M18.515625,3.9140625c-0.4091797-0.4111328-0.9804688-0.6469727-1.5664063-0.6469727
		c-0.59375,0-1.1494141,0.2290039-1.5664063,0.6469727l-7.7597656,7.7558594L4.9443359,8.9907227
		C4.5253906,8.5766602,3.9697266,8.3447266,3.3789063,8.3447266c-0.5917969,0-1.1494141,0.2319336-1.5664063,0.6489258
		c-0.4179688,0.4204102-0.6494141,0.9765625-0.6494141,1.5678711c0,0.5908203,0.2314453,1.1474609,0.6494141,1.5693359
		l4.2451172,4.2451172c0.4169922,0.4130859,0.9716797,0.6416016,1.5654297,0.6416016l0,0
		c0.5947266,0,1.1503906-0.2285156,1.5673828-0.6445313l9.3261719-9.324707
		C19.3789063,6.1831055,19.3789063,4.777832,18.515625,3.9140625z"/>
	
		<circle id="Icon_Border_6_" display="none" fill="none" stroke="#B2BBC1" stroke-width="3" stroke-miterlimit="10" cx="10" cy="10" r="10"/>
</g>
</svg>
