<?xml version="1.0" encoding="utf-8"?>
<!-- Generator: Adobe Illustrator 16.0.0, SVG Export Plug-In . SVG Version: 6.00 Build 0)  -->
<!DOCTYPE svg PUBLIC "-//W3C//DTD SVG 1.1//EN" "http://www.w3.org/Graphics/SVG/1.1/DTD/svg11.dtd">
<svg version="1.1" id="Layer_1" xmlns="http://www.w3.org/2000/svg" xmlns:xlink="http://www.w3.org/1999/xlink" x="0px" y="0px"
	 width="160px" height="200px" viewBox="0 0 160 200" enable-background="new 0 0 160 200" xml:space="preserve">
<g id="Logo_1_">
	<g>
		<rect x="-89.3339844" y="169.1298828" fill="none" width="338.2333984" height="37.0371094"/>
		<path d="M0.3139648,171.7109375c0-0.4609375,0.0146484-0.8056641,0.0449219-1.0351563
			c0.0297852-0.2304688,0.1147461-0.4960938,0.2548828-0.7949219c0.2797852-0.5410156,1.0600586-0.8105469,2.3398438-0.8105469
			c1.2197266,0,1.9799805,0.2695313,2.2802734,0.8105469c0.159668,0.2988281,0.2548828,0.5693359,0.284668,0.8095703
			c0.0302734,0.2392578,0.0454102,0.5898438,0.0454102,1.0498047v13.890625c0,0.71875,0.0595703,1.1748047,0.1796875,1.3642578
			c0.1201172,0.1904297,0.3847656,0.2851563,0.7949219,0.2851563c0.409668,0,0.6850586,0.0146484,0.8251953,0.0449219
			c0.1396484,0.0302734,0.3100586,0.1152344,0.5097656,0.2548828c0.3999023,0.2597656,0.6000977,0.9707031,0.6000977,2.1308594
			c0,1.2597656-0.2001953,2.0292969-0.6000977,2.3095703c-0.5200195,0.3603516-1.7597656,0.4199219-3.7197266,0.1796875
			c-1.5405273-0.2001953-2.5400391-0.7099609-3-1.5302734c-0.5600586-0.9794922-0.8398438-2.5390625-0.8398438-4.6796875
			V171.7109375z"/>
		<path d="M25.0639648,182.5253906c0,1.2304688-0.3051758,2.140625-0.9150391,2.7304688
			c-0.6103516,0.5898438-1.2851563,0.8847656-2.0249023,0.8847656h-7.1098633c0,0.5605469,0.3300781,1.0292969,0.9897461,1.4101563
			c0.6601563,0.3798828,1.3203125,0.5693359,1.9799805,0.5693359c1.159668,0,2.0703125-0.1201172,2.7299805-0.3603516
			l0.3300781-0.1191406c0.4799805-0.2207031,0.8798828-0.3300781,1.2001953-0.3300781
			c0.6396484,0,1.1894531,0.4492188,1.6499023,1.3496094c0.2597656,0.5400391,0.3901367,1,0.3901367,1.3808594
			c0,1.7792969-2.1303711,2.6699219-6.3901367,2.6699219c-1.4804688,0-2.7954102-0.2558594-3.9448242-0.765625
			c-1.1503906-0.5097656-2.0454102-1.1855469-2.6850586-2.0253906c-1.2602539-1.6191406-1.8901367-3.4296875-1.8901367-5.4296875
			c0-2.5195313,0.8144531-4.5351563,2.4448242-6.0449219c1.6298828-1.5097656,3.6650391-2.265625,6.1049805-2.265625
			c2.7797852,0,4.8198242,0.9804688,6.1201172,2.9404297C24.7236328,180.1601563,25.0639648,181.2949219,25.0639648,182.5253906z
			 M18.7338867,183.4101563c0.7597656,0,1.1401367-0.3193359,1.1401367-0.9599609
			c0-0.4599609-0.175293-0.8291016-0.5249023-1.1103516c-0.3500977-0.2792969-0.8505859-0.4199219-1.5-0.4199219
			c-0.6503906,0-1.2954102,0.265625-1.9350586,0.7949219c-0.6401367,0.53125-0.9599609,1.0957031-0.9599609,1.6953125H18.7338867z"
			/>
		<path d="M37.2739258,178.1904297c0.1201172-1.1201172,0.909668-1.6806641,2.3701172-1.6806641
			c0.7797852,0,1.3598633,0.0605469,1.7397461,0.1806641s0.6450195,0.3300781,0.7954102,0.6298828
			c0.1499023,0.2998047,0.2397461,0.5654297,0.2695313,0.7949219c0.0302734,0.2304688,0.0454102,0.5751953,0.0454102,1.0351563v10.5
			c0,0.4609375-0.0151367,0.8046875-0.0454102,1.0351563c-0.0297852,0.2304688-0.1152344,0.4941406-0.2548828,0.7949219
			c-0.2802734,0.5195313-0.9648438,0.7792969-2.0546875,0.7792969c-1.090332,0-1.8203125-0.1347656-2.1904297-0.4042969
			s-0.5849609-0.6650391-0.6445313-1.1855469c-0.7402344,1.0605469-1.9755859,1.5898438-3.7050781,1.5898438
			c-1.7304688,0-3.3354492-0.7890625-4.8149414-2.3691406c-1.4804688-1.5800781-2.2202148-3.4150391-2.2202148-5.5058594
			c0-2.0898438,0.7446289-3.9189453,2.2348633-5.4892578c1.4897461-1.5693359,3.125-2.3544922,4.9052734-2.3544922
			c0.6796875,0,1.2998047,0.1191406,1.8598633,0.359375c0.5595703,0.2402344,0.949707,0.4648438,1.1699219,0.6748047
			C36.9536133,177.7851563,37.1337891,177.9902344,37.2739258,178.1904297z M31.8139648,184.4296875
			c0,0.6601563,0.2597656,1.2558594,0.7797852,1.7851563c0.5200195,0.53125,1.1499023,0.7949219,1.8901367,0.7949219
			c0.7397461,0,1.3549805-0.2695313,1.8452148-0.8095703c0.4897461-0.5400391,0.7348633-1.1347656,0.7348633-1.7841797
			c0-0.6503906-0.2353516-1.2558594-0.7050781-1.8164063c-0.4702148-0.5585938-1.1000977-0.8398438-1.8901367-0.8398438
			s-1.4301758,0.28125-1.9199219,0.8398438C32.0585938,183.1601563,31.8139648,183.7705078,31.8139648,184.4296875z"/>
		<path d="M55.6337891,176.6904297c0.3798828,0.1201172,0.6948242,0.3251953,0.9448242,0.6142578
			c0.25,0.2910156,0.375,0.7558594,0.375,1.3955078c0,0.640625-0.1899414,1.3408203-0.5698242,2.1005859
			s-0.9301758,1.1396484-1.6499023,1.1396484c-0.3598633,0-0.7050781-0.0791016-1.0351563-0.2402344
			c-0.3300781-0.1591797-0.7646484-0.2392578-1.3046875-0.2392578s-1.0454102,0.1894531-1.5151367,0.5693359
			c-0.4702148,0.3798828-0.7050781,0.8398438-0.7050781,1.3798828v6.3007813c0,0.4589844-0.0151367,0.8046875-0.0449219,1.0341797
			c-0.0302734,0.2304688-0.125,0.4951172-0.2851563,0.7958984c-0.2998047,0.5195313-1.0800781,0.7792969-2.3398438,0.7792969
			c-0.9599609,0-1.6499023-0.1699219-2.0698242-0.5097656c-0.3203125-0.2802734-0.5004883-0.7099609-0.5400391-1.2900391
			c0-0.2001953,0-0.4902344,0-0.8701172v-10.5302734c0-0.4599609,0.0146484-0.8046875,0.0449219-1.0341797
			c0.0297852-0.2304688,0.1147461-0.4853516,0.2548828-0.765625c0.2797852-0.5400391,1.0600586-0.8105469,2.3398438-0.8105469
			c1.2001953,0,1.9501953,0.2304688,2.25,0.6904297c0.2202148,0.3203125,0.3300781,0.6503906,0.3300781,0.9902344
			c0.1000977-0.1396484,0.2446289-0.3095703,0.4350586-0.5107422c0.1899414-0.1992188,0.5947266-0.46875,1.2148438-0.8095703
			c0.6196289-0.3398438,1.1650391-0.5097656,1.6352539-0.5097656c0.4697266,0,0.8647461,0.0253906,1.1850586,0.0751953
			C54.9033203,176.4853516,55.2539063,176.5703125,55.6337891,176.6904297z"/>
		<path d="M67.3935547,176.5097656c1.9995117,0,3.6645508,0.765625,4.9946289,2.2949219
			c1.3300781,1.53125,1.9951172,3.3964844,1.9951172,5.5957031v5.2792969c0,0.4609375-0.0151367,0.8066406-0.0449219,1.0351563
			c-0.0302734,0.2304688-0.1152344,0.4863281-0.2548828,0.765625c-0.2802734,0.5400391-1.0605469,0.8105469-2.340332,0.8105469
			c-1.4199219,0-2.2402344-0.3710938-2.4599609-1.1113281c-0.1201172-0.3398438-0.1796875-0.8496094-0.1796875-1.5292969v-5.2802734
			c0-0.8193359-0.2353516-1.4599609-0.7050781-1.9199219c-0.4702148-0.4599609-1.1000977-0.6904297-1.8901367-0.6904297
			c-0.7905273,0-1.4301758,0.2402344-1.9199219,0.7207031c-0.4902344,0.4804688-0.7348633,1.109375-0.7348633,1.8896484v5.3095703
			c0,0.4609375-0.0151367,0.8066406-0.0454102,1.0351563c-0.0297852,0.2304688-0.125,0.4863281-0.284668,0.765625
			c-0.2602539,0.5400391-1.0302734,0.8105469-2.3100586,0.8105469c-1.2602539,0-2.0302734-0.2705078-2.3100586-0.8105469
			c-0.1401367-0.3007813-0.2250977-0.5644531-0.2548828-0.7949219c-0.0302734-0.2304688-0.0449219-0.5742188-0.0449219-1.0351563
			v-10.6201172c0-0.4394531,0.0146484-0.7744141,0.0449219-1.0048828c0.0297852-0.2304688,0.1245117-0.484375,0.284668-0.765625
			c0.2802734-0.4990234,1.050293-0.75,2.3100586-0.75c1.2197266,0,1.9697266,0.2304688,2.25,0.6904297
			c0.199707,0.3408203,0.300293,0.75,0.300293,1.2294922c0.0795898-0.1386719,0.2597656-0.3398438,0.5400391-0.5996094
			c0.2797852-0.2597656,0.5498047-0.46875,0.8100586-0.6298828
			C65.8232422,176.7402344,66.5732422,176.5097656,67.3935547,176.5097656z"/>
		<path d="M81.7177734,173.5859375c-0.1494141,0.2890625-0.4150391,0.4941406-0.7949219,0.6142578
			s-0.8847656,0.1806641-1.5146484,0.1806641c-0.6303711,0-1.1357422-0.0605469-1.5151367-0.1806641
			c-0.3803711-0.1201172-0.6450195-0.3300781-0.7949219-0.6298828s-0.2402344-0.5644531-0.2700195-0.7949219
			c-0.0302734-0.2304688-0.0449219-0.5742188-0.0449219-1.0351563c0-0.4599609,0.0146484-0.8046875,0.0449219-1.0351563
			c0.0297852-0.2294922,0.1147461-0.484375,0.2548828-0.7646484c0.2797852-0.5400391,1.0600586-0.8095703,2.3398438-0.8095703
			c1.2602539,0,2.0205078,0.2695313,2.2802734,0.8095703c0.1601563,0.2998047,0.2548828,0.5654297,0.2851563,0.7949219
			c0.0292969,0.2294922,0.0449219,0.5751953,0.0449219,1.0351563s-0.015625,0.8056641-0.0449219,1.0341797
			C81.9580078,173.0351563,81.8681641,173.2949219,81.7177734,173.5859375z M76.7832031,179.1503906
			c0-0.4599609,0.0146484-0.8046875,0.0449219-1.0351563c0.0297852-0.2294922,0.1147461-0.4951172,0.2548828-0.7949219
			c0.2797852-0.5195313,1.0600586-0.7792969,2.3398438-0.7792969c0.9599609,0,1.6396484,0.1699219,2.0400391,0.5097656
			c0.3398438,0.2792969,0.5195313,0.7089844,0.5400391,1.2890625c0.0195313,0.2011719,0.0302734,0.4902344,0.0302734,0.8710938v10.5
			c0,0.4589844-0.015625,0.8046875-0.0449219,1.0341797c-0.0302734,0.2304688-0.125,0.4951172-0.2851563,0.7958984
			c-0.2597656,0.5195313-1.0302734,0.7792969-2.3100586,0.7792969c-1.2602539,0-2.0302734-0.2695313-2.3100586-0.8105469
			c-0.1401367-0.2988281-0.2250977-0.5585938-0.2548828-0.7792969c-0.0302734-0.2207031-0.0449219-0.5703125-0.0449219-1.0507813
			V179.1503906z"/>
		<path d="M93.2226563,176.5097656c2,0,3.6650391,0.765625,4.9951172,2.2949219
			c1.3300781,1.53125,1.9951172,3.3964844,1.9951172,5.5957031v5.2792969c0,0.4609375-0.015625,0.8066406-0.0449219,1.0351563
			c-0.0302734,0.2304688-0.1152344,0.4863281-0.2548828,0.765625c-0.2802734,0.5400391-1.0605469,0.8105469-2.3408203,0.8105469
			c-1.4199219,0-2.2402344-0.3710938-2.4589844-1.1113281c-0.1210938-0.3398438-0.1796875-0.8496094-0.1796875-1.5292969v-5.2802734
			c0-0.8193359-0.2363281-1.4599609-0.7050781-1.9199219c-0.4707031-0.4599609-1.1005859-0.6904297-1.890625-0.6904297
			c-0.7910156,0-1.4296875,0.2402344-1.9199219,0.7207031s-0.734375,1.109375-0.734375,1.8896484v5.3095703
			c0,0.4609375-0.015625,0.8066406-0.0458984,1.0351563c-0.0302734,0.2304688-0.125,0.4863281-0.2841797,0.765625
			c-0.2607422,0.5400391-1.03125,0.8105469-2.3105469,0.8105469c-1.2597656,0-2.0302734-0.2705078-2.3105469-0.8105469
			c-0.1396484-0.3007813-0.2246094-0.5644531-0.2539063-0.7949219c-0.03125-0.2304688-0.0449219-0.5742188-0.0449219-1.0351563
			v-10.6201172c0-0.4394531,0.0136719-0.7744141,0.0449219-1.0048828c0.0292969-0.2304688,0.1240234-0.484375,0.2841797-0.765625
			c0.2802734-0.4990234,1.0498047-0.75,2.3095703-0.75c1.2207031,0,1.9707031,0.2304688,2.25,0.6904297
			c0.2001953,0.3408203,0.3007813,0.75,0.3007813,1.2294922c0.0800781-0.1386719,0.2597656-0.3398438,0.5400391-0.5996094
			s0.5498047-0.46875,0.8095703-0.6298828C91.6523438,176.7402344,92.4023438,176.5097656,93.2226563,176.5097656z"/>
		<path d="M112.6328125,190.3398438c-0.7607422,1.0009766-1.9707031,1.5-3.6308594,1.5s-3.2148438-0.7646484-4.6640625-2.2949219
			c-1.4511719-1.5292969-2.1757813-3.3144531-2.1757813-5.3544922s0.7304688-3.8291016,2.1904297-5.3701172
			c1.4599609-1.5400391,3.0595703-2.3105469,4.7998047-2.3105469c0.6796875,0,1.3007813,0.125,1.8603516,0.375
			c0.5595703,0.2509766,0.9443359,0.4804688,1.1552734,0.6904297c0.2089844,0.2099609,0.375,0.4052734,0.4941406,0.5849609
			c0.0605469-0.5595703,0.265625-0.984375,0.6152344-1.2753906c0.3496094-0.2890625,0.9150391-0.4345703,1.6953125-0.4345703
			c0.7792969,0,1.3496094,0.0595703,1.7099609,0.1806641c0.3603516,0.1191406,0.6142578,0.3242188,0.7646484,0.6142578
			s0.2402344,0.5458984,0.2705078,0.7646484c0.0302734,0.2207031,0.0449219,0.5605469,0.0449219,1.0205078v12.4199219
			c0,2.2998047-0.7998047,4.1552734-2.3994141,5.5654297c-1.6015625,1.4101563-3.4003906,2.1152344-5.4003906,2.1152344
			c-1.5205078,0-2.9707031-0.3710938-4.3496094-1.1103516c-1.3808594-0.7402344-2.0703125-1.4101563-2.0703125-2.0107422
			c0-0.7792969,0.2998047-1.46875,0.8994141-2.0693359c0.3798828-0.4199219,0.6748047-0.7099609,0.8857422-0.8701172
			c0.2089844-0.1601563,0.4541016-0.2402344,0.734375-0.2402344c0.2792969,0,0.5703125,0.1201172,0.8701172,0.3603516
			c0.9599609,0.7392578,1.9990234,1.1103516,3.1201172,1.1103516c0.7597656,0,1.3798828-0.3007813,1.859375-0.9003906
			c0.4804688-0.5996094,0.7207031-1.3203125,0.7207031-2.1601563V190.3398438z M107.2929688,184.2050781
			c0,0.6503906,0.2539063,1.2353516,0.7646484,1.7558594c0.5097656,0.5195313,1.1298828,0.7792969,1.8603516,0.7792969
			c0.7294922,0,1.3339844-0.2646484,1.8144531-0.7949219c0.4804688-0.5292969,0.7207031-1.109375,0.7207031-1.7402344
			c0-0.6298828-0.2304688-1.21875-0.6904297-1.7695313s-1.0800781-0.8251953-1.8603516-0.8251953
			c-0.7792969,0-1.4101563,0.2705078-1.8896484,0.8095703C107.5332031,182.9609375,107.2929688,183.5556641,107.2929688,184.2050781
			z"/>
		<path d="M129.4023438,176.5410156c1.3798828,0,2.1894531,0.3789063,2.4296875,1.1386719
			c0.1210938,0.3808594,0.1796875,0.8808594,0.1796875,1.5c0,0.6210938-0.0644531,1.1152344-0.1943359,1.4863281
			c-0.1298828,0.3691406-0.3349609,0.6347656-0.6142578,0.7949219c-0.4208984,0.2392578-1.03125,0.359375-1.8300781,0.359375
			l-1.9199219-0.1201172v8.0400391c0,0.7597656-0.0957031,1.3251953-0.2851563,1.6953125
			c-0.1914063,0.3701172-0.4804688,0.6152344-0.8710938,0.734375c-0.3896484,0.1210938-0.8945313,0.1796875-1.5146484,0.1796875
			s-1.1142578-0.0644531-1.4853516-0.1943359c-0.3691406-0.1298828-0.6347656-0.3398438-0.7949219-0.6298828
			c-0.1601563-0.2890625-0.2539063-0.5546875-0.2851563-0.7949219c-0.0292969-0.2402344-0.0449219-0.5898438-0.0449219-1.0507813
			v-7.9492188h-1.0800781c-0.5195313-0.0400391-0.8896484-0.1601563-1.109375-0.3603516
			c-0.3808594-0.3798828-0.5703125-1.1103516-0.5703125-2.1904297c0-1.6386719,0.5898438-2.4589844,1.7705078-2.4589844h0.9892578
			v-1.5898438c0-1.5410156,0.5507813-2.9355469,1.6503906-4.1855469s2.6894531-1.875,4.7695313-1.875
			c0.4609375,0,0.8056641,0.015625,1.0351563,0.0449219c0.2304688,0.0302734,0.4960938,0.125,0.7949219,0.2851563
			c0.5410156,0.2597656,0.8105469,1.0302734,0.8105469,2.3105469c0,0.9589844-0.1699219,1.6494141-0.5097656,2.0693359
			c-0.28125,0.3203125-0.7207031,0.5-1.3203125,0.5400391c-0.1796875,0-0.4609375,0-0.8398438,0
			c-0.7402344,0-1.109375,0.25-1.109375,0.75v1.6503906L129.4023438,176.5410156z"/>
		<path d="M140.6826172,192.2597656c-2.0205078,0-3.6953125-0.7646484-5.0253906-2.2949219
			c-1.3300781-1.5292969-1.9951172-3.3945313-1.9951172-5.5947266v-5.25c0-0.4794922,0.015625-0.8291016,0.0449219-1.0498047
			c0.0302734-0.2197266,0.1152344-0.4804688,0.2558594-0.7792969c0.2792969-0.5410156,1.0595703-0.8105469,2.3398438-0.8105469
			c1.3994141,0,2.2197266,0.3798828,2.4589844,1.1396484c0.1210938,0.3203125,0.1806641,0.8310547,0.1806641,1.5302734v5.25
			c0,0.8203125,0.2353516,1.4599609,0.7050781,1.9199219c0.4697266,0.4609375,1.0996094,0.6894531,1.8896484,0.6894531
			s1.4296875-0.2392578,1.9199219-0.71875c0.4902344-0.4804688,0.7353516-1.1113281,0.7353516-1.890625v-5.3105469
			c0-0.4589844,0.0146484-0.8046875,0.0449219-1.0351563c0.0302734-0.2285156,0.125-0.4941406,0.2851563-0.7949219
			c0.2597656-0.5195313,1.0302734-0.7792969,2.3095703-0.7792969c1.2597656,0,2.0302734,0.2695313,2.3105469,0.8105469
			c0.1396484,0.2988281,0.2246094,0.5644531,0.2548828,0.7949219c0.0302734,0.2294922,0.0449219,0.5742188,0.0449219,1.0341797
			v10.6201172c0,0.4404297-0.0146484,0.7753906-0.0449219,1.0048828c-0.0302734,0.2304688-0.125,0.4853516-0.2851563,0.7646484
			c-0.2998047,0.5214844-1.0693359,0.78125-2.3095703,0.78125c-1.2207031,0-1.9707031-0.2402344-2.25-0.7207031
			c-0.2011719-0.3398438-0.3007813-0.75-0.3007813-1.2304688c-0.0800781,0.140625-0.2597656,0.3408203-0.5390625,0.6005859
			c-0.28125,0.2607422-0.5507813,0.4794922-0.8105469,0.6591797
			C142.2226563,192.0410156,141.4824219,192.2597656,140.6826172,192.2597656z"/>
		<path d="M151.8417969,171.7109375c0-0.4609375,0.015625-0.8056641,0.0449219-1.0351563
			c0.0302734-0.2304688,0.1152344-0.4960938,0.2558594-0.7949219c0.2792969-0.5410156,1.0595703-0.8105469,2.3398438-0.8105469
			c1.21875,0,1.9794922,0.2695313,2.2792969,0.8105469c0.1601563,0.2988281,0.2558594,0.5693359,0.2851563,0.8095703
			c0.0302734,0.2392578,0.0449219,0.5898438,0.0449219,1.0498047v13.890625c0,0.71875,0.0605469,1.1748047,0.1796875,1.3642578
			c0.1210938,0.1904297,0.3847656,0.2851563,0.7949219,0.2851563s0.6855469,0.0146484,0.8261719,0.0449219
			c0.1386719,0.0302734,0.3095703,0.1152344,0.5097656,0.2548828c0.3994141,0.2597656,0.5996094,0.9707031,0.5996094,2.1308594
			c0,1.2597656-0.2001953,2.0292969-0.5996094,2.3095703c-0.5205078,0.3603516-1.7597656,0.4199219-3.7207031,0.1796875
			c-1.5400391-0.2001953-2.5390625-0.7099609-3-1.5302734c-0.5595703-0.9794922-0.8398438-2.5390625-0.8398438-4.6796875
			V171.7109375z"/>
	</g>
	<g>
		<path fill="#C8937E" d="M44.4570313,111.0498047l-13.359375,22.7207031
			c-0.9892578,1.6816406-0.7163086,3.8183594,0.6630859,5.1982422l2.3720703,2.3720703
			c1.3793945,1.3789063,3.5166016,1.6523438,5.1982422,0.6630859l22.7197266-13.3603516
			c2.4150391-1.4199219,2.8378906-4.7382813,0.8574219-6.71875l-11.7324219-11.7324219
			C49.1953125,108.2119141,45.8779297,108.6357422,44.4570313,111.0498047z"/>
		<path fill="#605F5D" d="M32.5527344,151.1191406l-6.9165039,1.3857422
			c-2.9980469,0.6015625-5.6416016-2.0410156-5.0405273-5.0400391l1.3867188-6.9160156
			c0.6728516-3.3525391,4.8095703-4.6035156,7.2270508-2.1865234l5.5292969,5.5292969
			C37.1557617,146.3095703,35.9047852,150.4462891,32.5527344,151.1191406z"/>
		<path fill="#E1C3B4" d="M74.3115234,142.7402344l-30.0527344,6.0273438
			c-1.4042969,0.28125-2.8564453-0.1572266-3.8701172-1.1708984l0,0c-1.980957-1.9804688-1.5576172-5.2988281,0.8574219-6.71875
			l22.7197266-13.3603516c1.6826172-0.9892578,3.8193359-0.7158203,5.1982422,0.6630859l7.3339844,7.3339844
			C78.9150391,137.9316406,77.6640625,142.0673828,74.3115234,142.7402344z"/>
		<path fill="#B06851" d="M25.5043945,132.7119141L25.5043945,132.7119141
			c-1.0126953-1.0117188-1.4516602-2.4648438-1.1704102-3.8691406l6.0273438-30.0527344
			c0.6723633-3.3515625,4.8085938-4.6035156,7.2260742-2.1855469l7.3325195,7.3320313
			c1.3798828,1.3798828,1.6523438,3.5175781,0.6640625,5.1992188l-13.3603516,22.7197266
			C30.8032227,134.2705078,27.4853516,134.6933594,25.5043945,132.7119141z"/>
		<g>
			<g>
				<path fill="#00D885" d="M40.081543,95.8486328c-2.1552734-2.15625-2.1552734-5.6484375,0-7.8046875L59.4384766,68.6875
					c2.1552734-2.1552734,5.6484375-2.1552734,7.8037109,0c2.1542969,2.1552734,2.1542969,5.6494141,0,7.8037109
					L47.8847656,95.8486328C45.7304688,98.0029297,42.2363281,98.0029297,40.081543,95.8486328z"/>
			</g>
		</g>
		<g>
			<g>
				<path fill="#00D885" d="M75.03125,60.8974609c-2.1542969-2.1542969-2.1542969-5.6484375,0-7.8027344l19.3574219-19.3574219
					c2.1552734-2.1552734,5.6484375-2.1552734,7.8037109,0c2.1552734,2.1542969,2.1552734,5.6484375,0.0009766,7.8027344
					L82.8359375,60.8974609C80.6806641,63.0527344,77.1865234,63.0527344,75.03125,60.8974609z"/>
			</g>
		</g>
		<g>
			<g>
				<path fill="#FFC82C" d="M58.6679688,114.4345703c-2.15625-2.15625-2.15625-5.6494141-0.0009766-7.8046875l14.1416016-14.1425781
					c2.15625-2.1542969,5.6503906-2.1542969,7.8046875,0c2.15625,2.15625,2.1542969,5.6484375,0,7.8046875l-14.1425781,14.1416016
					C64.3154297,116.5888672,60.8222656,116.5888672,58.6679688,114.4345703z"/>
			</g>
		</g>
		<g>
			<g>
				<path fill="#FFC82C" d="M82.5058594,90.5966797c-2.15625-2.15625-2.15625-5.6503906,0-7.8046875l2.9960938-2.9970703
					c2.1552734-2.1552734,5.6484375-2.1552734,7.8046875,0.0009766c2.1542969,2.1542969,2.1542969,5.6474609-0.0009766,7.8027344
					l-2.9970703,2.9960938C88.1542969,92.7509766,84.6601563,92.7509766,82.5058594,90.5966797z"/>
			</g>
		</g>
		<g>
			<g>
				<path fill="#A22CFF" d="M49.375,105.1416016c-2.1552734-2.1552734-2.15625-5.6484375,0-7.8046875l57.2480469-57.2480469
					c2.1552734-2.1552734,5.6494141-2.1552734,7.8046875,0c2.1542969,2.1542969,2.1542969,5.6484375,0,7.8027344l-57.25,57.25
					C55.0234375,107.2958984,51.5292969,107.2958984,49.375,105.1416016z"/>
			</g>
		</g>
		<g>
			<g>
				<path fill="#A22CFF" d="M115.6630859,38.8525391c-2.1552734-2.1542969-2.1552734-5.6484375,0-7.8037109l27.1279297-27.1279297
					c2.15625-2.15625,5.6494141-2.1552734,7.8046875,0c2.1542969,2.1542969,2.1542969,5.6484375,0,7.8027344l-27.1289063,27.1289063
					C121.3115234,41.0078125,117.8183594,41.0068359,115.6630859,38.8525391z"/>
			</g>
		</g>
		<g>
			<g>
				<path fill="#2C78FF" d="M67.9609375,123.7275391c-2.1552734-2.1552734-2.15625-5.6494141-0.0009766-7.8046875
					L135.59375,48.2900391c2.1542969-2.1552734,5.6484375-2.1542969,7.8037109,0
					c2.1552734,2.1552734,2.1552734,5.6484375,0,7.8037109l-67.6337891,67.6337891
					C73.609375,125.8818359,70.1152344,125.8818359,67.9609375,123.7275391z"/>
			</g>
		</g>
		<g>
			<g>
				<path fill="#FF2B4C" d="M87.8515625,122.4228516c-2.1552734-2.1552734-2.15625-5.6484375,0-7.8046875l45.3291016-45.3291016
					c2.1552734-2.1552734,5.6494141-2.1552734,7.8037109-0.0009766c2.1552734,2.1552734,2.1552734,5.6494141,0,7.8046875
					l-45.3300781,45.3300781C93.5,124.5771484,90.0058594,124.5771484,87.8515625,122.4228516z"/>
			</g>
		</g>
		<g>
			<g>
				<path fill="#FF2B4C" d="M77.2539063,133.0205078c-2.1552734-2.1552734-2.15625-5.6484375,0-7.8046875l0,0
					c2.1542969-2.1542969,5.6484375-2.1542969,7.8037109,0s2.1542969,5.6494141-0.0009766,7.8046875l0,0
					C82.9023438,135.1748047,79.4082031,135.1748047,77.2539063,133.0205078z"/>
			</g>
		</g>
		<g>
			<g>
				<path fill="#00D885" d="M103.9335938,31.9970703c-2.15625-2.15625-2.1552734-5.6494141,0-7.8046875l0,0
					c2.1542969-2.1542969,5.6484375-2.1552734,7.8037109,0c2.1552734,2.1542969,2.1552734,5.6484375,0,7.8037109l0,0
					C109.5820313,34.1513672,106.0878906,34.1513672,103.9335938,31.9970703z"/>
			</g>
		</g>
	</g>
</g>
</svg>
