<?xml version="1.0" encoding="utf-8"?>
<!-- Generator: Adobe Illustrator 16.0.0, SVG Export Plug-In . SVG Version: 6.00 Build 0)  -->
<!DOCTYPE svg PUBLIC "-//W3C//DTD SVG 1.1//EN" "http://www.w3.org/Graphics/SVG/1.1/DTD/svg11.dtd">
<svg version="1.1" id="Layer_1" xmlns="http://www.w3.org/2000/svg" xmlns:xlink="http://www.w3.org/1999/xlink" x="0px" y="0px"
	 width="214px" height="200px" viewBox="0 0 214 200" enable-background="new 0 0 214 200" xml:space="preserve">
<g id="Logo_1_">
	<g>
		<rect x="-62" y="168.9628906" fill="none" width="338.2333984" height="55.0371094"/>
		<path fill="#FFFFFF" d="M27.6479492,171.5429688c0-0.4589844,0.0146484-0.8046875,0.0449219-1.0351563
			c0.0297852-0.2285156,0.1147461-0.4941406,0.2548828-0.7949219c0.2797852-0.5390625,1.0600586-0.8095703,2.3398438-0.8095703
			c1.2197266,0,1.9799805,0.2705078,2.2802734,0.8095703c0.159668,0.3007813,0.2548828,0.5703125,0.284668,0.8105469
			c0.0302734,0.2402344,0.0454102,0.5898438,0.0454102,1.0498047v13.8896484c0,0.7207031,0.0595703,1.1757813,0.1796875,1.3652344
			c0.1201172,0.1904297,0.3847656,0.2851563,0.7949219,0.2851563c0.409668,0,0.6850586,0.015625,0.8251953,0.0449219
			c0.1396484,0.0302734,0.3100586,0.1152344,0.5097656,0.2548828c0.3999023,0.2607422,0.6000977,0.9707031,0.6000977,2.1298828
			c0,1.2597656-0.2001953,2.0302734-0.6000977,2.3105469c-0.5200195,0.359375-1.7597656,0.4199219-3.7197266,0.1796875
			c-1.5405273-0.1992188-2.5400391-0.7089844-3-1.5292969c-0.5600586-0.9804688-0.8398438-2.5400391-0.8398438-4.6806641
			V171.5429688z"/>
		<path fill="#FFFFFF" d="M52.3979492,182.3583984c0,1.2294922-0.3051758,2.1396484-0.9150391,2.7294922
			c-0.6103516,0.5908203-1.2851563,0.8847656-2.0249023,0.8847656h-7.1098633c0,0.5605469,0.3300781,1.03125,0.9897461,1.4101563
			c0.6601563,0.3808594,1.3203125,0.5703125,1.9799805,0.5703125c1.159668,0,2.0703125-0.1191406,2.7299805-0.359375
			l0.3300781-0.1210938c0.4799805-0.21875,0.8798828-0.3291016,1.2001953-0.3291016
			c0.6396484,0,1.1894531,0.4501953,1.6499023,1.3496094c0.2597656,0.5400391,0.3901367,1.0009766,0.3901367,1.3798828
			c0,1.78125-2.1303711,2.6699219-6.3901367,2.6699219c-1.4804688,0-2.7954102-0.2548828-3.9448242-0.7646484
			c-1.1503906-0.5097656-2.0454102-1.1845703-2.6850586-2.0244141c-1.2602539-1.6210938-1.8901367-3.4306641-1.8901367-5.4306641
			c0-2.5205078,0.8144531-4.5341797,2.4448242-6.0449219c1.6298828-1.5097656,3.6650391-2.2646484,6.1049805-2.2646484
			c2.7797852,0,4.8198242,0.9804688,6.1201172,2.9394531C52.0576172,179.9941406,52.3979492,181.1289063,52.3979492,182.3583984z
			 M46.0678711,183.2431641c0.7597656,0,1.1401367-0.3193359,1.1401367-0.9599609
			c0-0.4599609-0.175293-0.8300781-0.5249023-1.109375c-0.3500977-0.2802734-0.8505859-0.4199219-1.5-0.4199219
			c-0.6503906,0-1.2954102,0.2646484-1.9350586,0.7949219c-0.6401367,0.5292969-0.9599609,1.0947266-0.9599609,1.6943359H46.0678711
			z"/>
		<path fill="#FFFFFF" d="M64.6079102,178.0234375c0.1201172-1.1201172,0.909668-1.6796875,2.3701172-1.6796875
			c0.7797852,0,1.3598633,0.0595703,1.7397461,0.1796875s0.6450195,0.3300781,0.7954102,0.6298828
			c0.1499023,0.2998047,0.2397461,0.5654297,0.2695313,0.7949219c0.0302734,0.2304688,0.0454102,0.5751953,0.0454102,1.0351563v10.5
			c0,0.4599609-0.0151367,0.8056641-0.0454102,1.0351563c-0.0297852,0.2294922-0.1152344,0.4951172-0.2548828,0.7949219
			c-0.2802734,0.5205078-0.9648438,0.7802734-2.0546875,0.7802734c-1.090332,0-1.8203125-0.1347656-2.1904297-0.4052734
			s-0.5849609-0.6650391-0.6445313-1.1845703c-0.7402344,1.0595703-1.9755859,1.5898438-3.7050781,1.5898438
			c-1.7304688,0-3.3354492-0.7900391-4.8149414-2.3710938c-1.4804688-1.5791016-2.2202148-3.4140625-2.2202148-5.5039063
			s0.7446289-3.9199219,2.2348633-5.4902344c1.4897461-1.5703125,3.125-2.3554688,4.9052734-2.3554688
			c0.6796875,0,1.2998047,0.1201172,1.8598633,0.3603516c0.5595703,0.2392578,0.949707,0.4648438,1.1699219,0.6748047
			C64.2875977,177.6181641,64.4677734,177.8242188,64.6079102,178.0234375z M59.1479492,184.2636719
			c0,0.6601563,0.2597656,1.2548828,0.7797852,1.7851563c0.5200195,0.5292969,1.1499023,0.7949219,1.8901367,0.7949219
			c0.7397461,0,1.3549805-0.2705078,1.8452148-0.8105469c0.4897461-0.5400391,0.7348633-1.1347656,0.7348633-1.7851563
			c0-0.6494141-0.2353516-1.2539063-0.7050781-1.8144531c-0.4702148-0.5605469-1.1000977-0.8398438-1.8901367-0.8398438
			s-1.4301758,0.2792969-1.9199219,0.8398438C59.3925781,182.9941406,59.1479492,183.6035156,59.1479492,184.2636719z"/>
		<path fill="#FFFFFF" d="M82.9677734,176.5234375c0.3798828,0.1201172,0.6948242,0.3251953,0.9448242,0.6152344
			s0.375,0.7548828,0.375,1.3945313c0,0.640625-0.1899414,1.3398438-0.5698242,2.0996094
			c-0.3798828,0.7607422-0.9301758,1.140625-1.6499023,1.140625c-0.3598633,0-0.7050781-0.0800781-1.0351563-0.2402344
			s-0.7646484-0.2402344-1.3046875-0.2402344s-1.0454102,0.1904297-1.5151367,0.5703125
			c-0.4702148,0.3808594-0.7050781,0.8398438-0.7050781,1.3798828v6.2998047c0,0.4609375-0.0151367,0.8056641-0.0449219,1.0351563
			c-0.0302734,0.2304688-0.125,0.4951172-0.2851563,0.7949219c-0.2998047,0.5205078-1.0800781,0.7802734-2.3398438,0.7802734
			c-0.9599609,0-1.6499023-0.1699219-2.0698242-0.5097656c-0.3203125-0.2802734-0.5004883-0.7099609-0.5400391-1.2900391
			c0-0.1992188,0-0.4902344,0-0.8701172V178.953125c0-0.4589844,0.0146484-0.8046875,0.0449219-1.0351563
			c0.0297852-0.2294922,0.1147461-0.484375,0.2548828-0.7646484c0.2797852-0.5400391,1.0600586-0.8095703,2.3398438-0.8095703
			c1.2001953,0,1.9501953,0.2294922,2.25,0.6894531c0.2202148,0.3203125,0.3300781,0.6503906,0.3300781,0.9902344
			c0.1000977-0.1396484,0.2446289-0.3105469,0.4350586-0.5097656c0.1899414-0.2001953,0.5947266-0.4707031,1.2148438-0.8105469
			c0.6196289-0.3398438,1.1650391-0.5097656,1.6352539-0.5097656c0.4697266,0,0.8647461,0.0253906,1.1850586,0.0751953
			C82.2373047,176.3183594,82.5878906,176.4033203,82.9677734,176.5234375z"/>
		<path fill="#FFFFFF" d="M94.7275391,176.34375c1.9995117,0,3.6645508,0.7646484,4.9946289,2.2949219
			c1.3300781,1.5292969,1.9951172,3.3945313,1.9951172,5.5947266v5.2802734c0,0.4599609-0.0151367,0.8046875-0.0449219,1.0351563
			c-0.0302734,0.2294922-0.1152344,0.484375-0.2548828,0.7646484c-0.2802734,0.5400391-1.0605469,0.8095703-2.340332,0.8095703
			c-1.4199219,0-2.2402344-0.3691406-2.4599609-1.109375c-0.1201172-0.3398438-0.1796875-0.8496094-0.1796875-1.5302734v-5.2802734
			c0-0.8203125-0.2353516-1.4589844-0.7050781-1.9199219c-0.4702148-0.4599609-1.1000977-0.6894531-1.8901367-0.6894531
			c-0.7905273,0-1.4301758,0.2402344-1.9199219,0.7197266c-0.4902344,0.4794922-0.7348633,1.1103516-0.7348633,1.8896484v5.3105469
			c0,0.4599609-0.0151367,0.8046875-0.0454102,1.0351563c-0.0297852,0.2294922-0.125,0.484375-0.284668,0.7646484
			c-0.2602539,0.5400391-1.0302734,0.8095703-2.3100586,0.8095703c-1.2602539,0-2.0302734-0.2695313-2.3100586-0.8095703
			c-0.1401367-0.2998047-0.2250977-0.5654297-0.2548828-0.7949219c-0.0302734-0.2294922-0.0449219-0.5751953-0.0449219-1.0351563
			v-10.6201172c0-0.4394531,0.0146484-0.7753906,0.0449219-1.0048828c0.0297852-0.2294922,0.1245117-0.4853516,0.284668-0.7646484
			c0.2802734-0.5,1.050293-0.75,2.3100586-0.75c1.2197266,0,1.9697266,0.2294922,2.25,0.6894531
			c0.199707,0.3398438,0.300293,0.75,0.300293,1.2304688c0.0795898-0.140625,0.2597656-0.3398438,0.5400391-0.6005859
			c0.2797852-0.2587891,0.5498047-0.4697266,0.8100586-0.6298828C93.1572266,176.5732422,93.9072266,176.34375,94.7275391,176.34375
			z"/>
		<path fill="#FFFFFF" d="M109.0517578,173.4179688c-0.1494141,0.2910156-0.4150391,0.4951172-0.7949219,0.6152344
			s-0.8847656,0.1796875-1.5146484,0.1796875c-0.6303711,0-1.1357422-0.0595703-1.5151367-0.1796875
			c-0.3803711-0.1201172-0.6450195-0.3300781-0.7949219-0.6298828s-0.2402344-0.5654297-0.2700195-0.7949219
			c-0.0302734-0.2294922-0.0449219-0.5751953-0.0449219-1.0351563s0.0146484-0.8046875,0.0449219-1.0351563
			c0.0297852-0.2294922,0.1147461-0.484375,0.2548828-0.7646484c0.2797852-0.5400391,1.0600586-0.8105469,2.3398438-0.8105469
			c1.2607422,0,2.0205078,0.2705078,2.2802734,0.8105469c0.1601563,0.2998047,0.2548828,0.5654297,0.2851563,0.7949219
			c0.0292969,0.2304688,0.0449219,0.5751953,0.0449219,1.0351563s-0.015625,0.8046875-0.0449219,1.0351563
			C109.2919922,172.8691406,109.2021484,173.1289063,109.0517578,173.4179688z M104.1171875,178.9833984
			c0-0.4599609,0.0146484-0.8046875,0.0449219-1.0351563c0.0297852-0.2294922,0.1147461-0.4951172,0.2548828-0.7949219
			c0.2797852-0.5205078,1.0600586-0.7802734,2.3398438-0.7802734c0.9599609,0,1.6396484,0.1699219,2.0400391,0.5097656
			c0.3398438,0.28125,0.5195313,0.7109375,0.5400391,1.2910156c0.0195313,0.1992188,0.0302734,0.4902344,0.0302734,0.8691406v10.5
			c0,0.4609375-0.015625,0.8056641-0.0449219,1.0351563c-0.0302734,0.2304688-0.125,0.4951172-0.2851563,0.7949219
			c-0.2597656,0.5205078-1.0302734,0.7802734-2.3100586,0.7802734c-1.2602539,0-2.0302734-0.2705078-2.3100586-0.8095703
			c-0.1401367-0.3007813-0.2250977-0.5605469-0.2548828-0.7802734c-0.0302734-0.2197266-0.0449219-0.5703125-0.0449219-1.0498047
			V178.9833984z"/>
		<path fill="#FFFFFF" d="M120.5566406,176.34375c2,0,3.6650391,0.7646484,4.9951172,2.2949219
			c1.3300781,1.5292969,1.9951172,3.3945313,1.9951172,5.5947266v5.2802734c0,0.4599609-0.015625,0.8046875-0.0449219,1.0351563
			c-0.0302734,0.2294922-0.1152344,0.484375-0.2548828,0.7646484c-0.2802734,0.5400391-1.0605469,0.8095703-2.3408203,0.8095703
			c-1.4199219,0-2.2402344-0.3691406-2.4589844-1.109375c-0.1210938-0.3398438-0.1796875-0.8496094-0.1796875-1.5302734v-5.2802734
			c0-0.8203125-0.2363281-1.4589844-0.7050781-1.9199219c-0.4707031-0.4599609-1.1005859-0.6894531-1.890625-0.6894531
			c-0.7910156,0-1.4296875,0.2402344-1.9199219,0.7197266s-0.734375,1.1103516-0.734375,1.8896484v5.3105469
			c0,0.4599609-0.015625,0.8046875-0.0458984,1.0351563c-0.0302734,0.2294922-0.125,0.484375-0.2841797,0.7646484
			c-0.2607422,0.5400391-1.03125,0.8095703-2.3105469,0.8095703c-1.2597656,0-2.0302734-0.2695313-2.3105469-0.8095703
			c-0.1396484-0.2998047-0.2246094-0.5654297-0.2539063-0.7949219c-0.03125-0.2294922-0.0449219-0.5751953-0.0449219-1.0351563
			v-10.6201172c0-0.4394531,0.0136719-0.7753906,0.0449219-1.0048828c0.0292969-0.2294922,0.1240234-0.4853516,0.2841797-0.7646484
			c0.2802734-0.5,1.0498047-0.75,2.3095703-0.75c1.2207031,0,1.9707031,0.2294922,2.25,0.6894531
			c0.2001953,0.3398438,0.3007813,0.75,0.3007813,1.2304688c0.0800781-0.140625,0.2597656-0.3398438,0.5400391-0.6005859
			c0.2802734-0.2587891,0.5498047-0.4697266,0.8095703-0.6298828
			C118.9863281,176.5732422,119.7363281,176.34375,120.5566406,176.34375z"/>
		<path fill="#FFFFFF" d="M139.9667969,190.1738281c-0.7607422,1-1.9707031,1.5-3.6308594,1.5
			s-3.2148438-0.765625-4.6640625-2.2949219c-1.4511719-1.53125-2.1757813-3.3154297-2.1757813-5.3554688
			s0.7304688-3.8300781,2.1904297-5.3701172s3.0595703-2.3095703,4.7998047-2.3095703c0.6796875,0,1.3007813,0.125,1.8603516,0.375
			s0.9443359,0.4794922,1.1552734,0.6894531c0.2089844,0.2099609,0.375,0.4052734,0.4941406,0.5849609
			c0.0605469-0.5595703,0.265625-0.9853516,0.6152344-1.2744141c0.3496094-0.2900391,0.9150391-0.4355469,1.6953125-0.4355469
			c0.7792969,0,1.3496094,0.0605469,1.7099609,0.1796875c0.3603516,0.1210938,0.6142578,0.3261719,0.7646484,0.6152344
			c0.1503906,0.2910156,0.2402344,0.5449219,0.2705078,0.765625c0.0302734,0.2197266,0.0449219,0.5595703,0.0449219,1.0195313
			v12.4199219c0,2.2998047-0.7998047,4.1552734-2.3994141,5.5644531c-1.6015625,1.4101563-3.4003906,2.1152344-5.4003906,2.1152344
			c-1.5205078,0-2.9707031-0.3701172-4.3496094-1.109375c-1.3808594-0.7402344-2.0703125-1.4101563-2.0703125-2.0097656
			c0-0.7802734,0.2998047-1.4707031,0.8994141-2.0703125c0.3798828-0.4199219,0.6748047-0.7109375,0.8857422-0.8701172
			c0.2089844-0.1601563,0.4541016-0.2402344,0.734375-0.2402344c0.2792969,0,0.5703125,0.1201172,0.8701172,0.3603516
			c0.9599609,0.7402344,1.9990234,1.109375,3.1201172,1.109375c0.7597656,0,1.3798828-0.2988281,1.859375-0.8994141
			c0.4804688-0.6005859,0.7207031-1.3203125,0.7207031-2.1601563V190.1738281z M134.6269531,184.0380859
			c0,0.6503906,0.2539063,1.2353516,0.7646484,1.7548828c0.5097656,0.5205078,1.1298828,0.7802734,1.8603516,0.7802734
			c0.7294922,0,1.3339844-0.2646484,1.8144531-0.7949219s0.7207031-1.1103516,0.7207031-1.7402344
			s-0.2304688-1.2197266-0.6904297-1.7695313s-1.0800781-0.8251953-1.8603516-0.8251953
			c-0.7792969,0-1.4101563,0.2695313-1.8896484,0.8105469C134.8671875,182.7929688,134.6269531,183.3886719,134.6269531,184.0380859
			z"/>
		<path fill="#FFFFFF" d="M156.7363281,176.3730469c1.3798828,0,2.1894531,0.3808594,2.4296875,1.140625
			c0.1210938,0.3798828,0.1796875,0.8798828,0.1796875,1.5c0,0.6191406-0.0644531,1.1152344-0.1943359,1.484375
			c-0.1298828,0.3710938-0.3349609,0.6347656-0.6142578,0.7949219c-0.4208984,0.2402344-1.03125,0.3603516-1.8300781,0.3603516
			l-1.9199219-0.1201172v8.0400391c0,0.7607422-0.0957031,1.3251953-0.2851563,1.6953125
			c-0.1914063,0.3701172-0.4804688,0.6142578-0.8710938,0.7353516c-0.3896484,0.1191406-0.8945313,0.1796875-1.5146484,0.1796875
			s-1.1142578-0.0644531-1.4853516-0.1953125c-0.3691406-0.1298828-0.6347656-0.3398438-0.7949219-0.6298828
			s-0.2539063-0.5556641-0.2851563-0.7949219c-0.0292969-0.2402344-0.0449219-0.5898438-0.0449219-1.0498047v-7.9501953h-1.0800781
			c-0.5195313-0.0400391-0.8896484-0.1601563-1.109375-0.3603516c-0.3808594-0.3789063-0.5703125-1.109375-0.5703125-2.1894531
			c0-1.640625,0.5898438-2.4609375,1.7705078-2.4609375h0.9892578v-1.5898438c0-1.5390625,0.5507813-2.9345703,1.6503906-4.1845703
			c1.0996094-1.2490234,2.6894531-1.875,4.7695313-1.875c0.4609375,0,0.8056641,0.0146484,1.0351563,0.0449219
			c0.2304688,0.0302734,0.4960938,0.125,0.7949219,0.2851563c0.5410156,0.2607422,0.8105469,1.0302734,0.8105469,2.3095703
			c0,0.9609375-0.1699219,1.6503906-0.5097656,2.0703125c-0.28125,0.3203125-0.7207031,0.5-1.3203125,0.5400391
			c-0.1796875,0-0.4609375,0-0.8398438,0c-0.7402344,0-1.109375,0.2509766-1.109375,0.75v1.6494141L156.7363281,176.3730469z"/>
		<path fill="#FFFFFF" d="M168.0166016,192.09375c-2.0205078,0-3.6953125-0.765625-5.0253906-2.2949219
			c-1.3300781-1.5302734-1.9951172-3.3945313-1.9951172-5.5957031v-5.25c0-0.4804688,0.015625-0.8300781,0.0449219-1.0498047
			c0.0302734-0.2197266,0.1152344-0.4794922,0.2558594-0.7802734c0.2792969-0.5390625,1.0595703-0.8095703,2.3398438-0.8095703
			c1.3994141,0,2.2197266,0.3798828,2.4589844,1.1396484c0.1210938,0.3203125,0.1806641,0.8300781,0.1806641,1.5302734v5.25
			c0,0.8203125,0.2353516,1.4599609,0.7050781,1.9199219s1.0996094,0.6904297,1.8896484,0.6904297
			s1.4296875-0.2402344,1.9199219-0.7207031c0.4902344-0.4794922,0.7353516-1.109375,0.7353516-1.8896484v-5.3095703
			c0-0.4609375,0.0146484-0.8046875,0.0449219-1.0351563s0.125-0.4951172,0.2851563-0.7949219
			c0.2597656-0.5205078,1.0302734-0.7802734,2.3095703-0.7802734c1.2597656,0,2.0302734,0.2705078,2.3105469,0.8095703
			c0.1396484,0.3007813,0.2246094,0.5654297,0.2548828,0.7949219c0.0302734,0.2304688,0.0449219,0.5761719,0.0449219,1.0351563
			v10.6201172c0,0.4404297-0.0146484,0.7753906-0.0449219,1.0048828c-0.0302734,0.2304688-0.125,0.4853516-0.2851563,0.765625
			c-0.2998047,0.5195313-1.0693359,0.7792969-2.3095703,0.7792969c-1.2207031,0-1.9707031-0.2402344-2.25-0.7197266
			c-0.2011719-0.3398438-0.3007813-0.75-0.3007813-1.2294922c-0.0800781,0.1396484-0.2597656,0.3398438-0.5390625,0.5996094
			c-0.28125,0.2597656-0.5507813,0.4804688-0.8105469,0.6601563
			C169.5566406,191.8730469,168.8164063,192.09375,168.0166016,192.09375z"/>
		<path fill="#FFFFFF" d="M179.1757813,171.5429688c0-0.4589844,0.015625-0.8046875,0.0449219-1.0351563
			c0.0302734-0.2285156,0.1152344-0.4941406,0.2558594-0.7949219c0.2792969-0.5390625,1.0595703-0.8095703,2.3398438-0.8095703
			c1.21875,0,1.9794922,0.2705078,2.2792969,0.8095703c0.1601563,0.3007813,0.2558594,0.5703125,0.2851563,0.8105469
			c0.0302734,0.2402344,0.0449219,0.5898438,0.0449219,1.0498047v13.8896484c0,0.7207031,0.0605469,1.1757813,0.1796875,1.3652344
			c0.1210938,0.1904297,0.3847656,0.2851563,0.7949219,0.2851563s0.6855469,0.015625,0.8261719,0.0449219
			c0.1386719,0.0302734,0.3095703,0.1152344,0.5097656,0.2548828c0.3994141,0.2607422,0.5996094,0.9707031,0.5996094,2.1298828
			c0,1.2597656-0.2001953,2.0302734-0.5996094,2.3105469c-0.5205078,0.359375-1.7597656,0.4199219-3.7207031,0.1796875
			c-1.5400391-0.1992188-2.5390625-0.7089844-3-1.5292969c-0.5595703-0.9804688-0.8398438-2.5400391-0.8398438-4.6806641
			V171.5429688z"/>
	</g>
	<g>
		<path fill="#C8937E" d="M71.7915039,110.8828125l-13.3598633,22.7207031
			c-0.9892578,1.6816406-0.7163086,3.8183594,0.6630859,5.1982422l2.3720703,2.3720703
			c1.3793945,1.3789063,3.5166016,1.6523438,5.1982422,0.6630859l22.7197266-13.3603516
			c2.4150391-1.4199219,2.8383789-4.7382813,0.8574219-6.71875l-11.7319336-11.7324219
			C76.5297852,108.0449219,73.2119141,108.46875,71.7915039,110.8828125z"/>
		<path fill="#605F5D" d="M59.8867188,150.9521484l-6.9165039,1.3857422
			c-2.9980469,0.6015625-5.6416016-2.0410156-5.0405273-5.0400391l1.3867188-6.9160156
			c0.6728516-3.3525391,4.8095703-4.6035156,7.2270508-2.1865234l5.5292969,5.5292969
			C64.4897461,146.1425781,63.2387695,150.2792969,59.8867188,150.9521484z"/>
		<path fill="#E1C3B4" d="M101.6455078,142.5732422l-30.0527344,6.0273438
			c-1.4042969,0.28125-2.8569336-0.1572266-3.8701172-1.1708984l0,0c-1.980957-1.9804688-1.5576172-5.2988281,0.8574219-6.71875
			l22.7197266-13.3603516c1.6821289-0.9892578,3.8193359-0.7158203,5.1982422,0.6630859l7.3334961,7.3339844
			C106.2490234,137.7646484,104.9975586,141.9003906,101.6455078,142.5732422z"/>
		<path fill="#B06851" d="M52.8383789,132.5449219L52.8383789,132.5449219
			c-1.0126953-1.0117188-1.4516602-2.4648438-1.1704102-3.8691406l6.0273438-30.0527344
			c0.6723633-3.3515625,4.8085938-4.6035156,7.2260742-2.1855469l7.3330078,7.3320313
			c1.3793945,1.3798828,1.6523438,3.5175781,0.6630859,5.1992188l-13.3598633,22.7197266
			C58.137207,134.1035156,54.8193359,134.5263672,52.8383789,132.5449219z"/>
		<g>
			<g>
				<path fill="#00D885" d="M67.4155273,95.6816406c-2.1552734-2.15625-2.1552734-5.6484375,0-7.8046875l19.3569336-19.3564453
					c2.1547852-2.1552734,5.6484375-2.1552734,7.8037109,0c2.1547852,2.1552734,2.1547852,5.6494141,0,7.8037109
					L75.2192383,95.6816406C73.0639648,97.8359375,69.5703125,97.8359375,67.4155273,95.6816406z"/>
			</g>
		</g>
		<g>
			<g>
				<path fill="#00D885" d="M102.3657227,60.7304688c-2.1552734-2.1542969-2.1547852-5.6484375,0-7.8027344l19.3569336-19.3574219
					c2.1552734-2.1552734,5.6484375-2.1552734,7.8037109,0c2.1552734,2.1542969,2.1552734,5.6484375,0.0009766,7.8027344
					l-19.3574219,19.3574219C108.0146484,62.8857422,104.5205078,62.8857422,102.3657227,60.7304688z"/>
			</g>
		</g>
		<g>
			<g>
				<path fill="#FFC82C" d="M86.0014648,114.2675781c-2.1552734-2.15625-2.1557617-5.6494141-0.0004883-7.8046875
					l14.1420898-14.1425781c2.1552734-2.1542969,5.6494141-2.1542969,7.8046875,0
					c2.1557617,2.15625,2.1538086,5.6484375-0.0009766,7.8046875l-14.1420898,14.1416016
					C91.6494141,116.421875,88.1567383,116.421875,86.0014648,114.2675781z"/>
			</g>
		</g>
		<g>
			<g>
				<path fill="#FFC82C" d="M109.8398438,90.4296875c-2.1557617-2.15625-2.1557617-5.6503906,0-7.8046875l2.9960938-2.9970703
					c2.1552734-2.1552734,5.6484375-2.1552734,7.8046875,0.0009766c2.1542969,2.1542969,2.1542969,5.6474609-0.0009766,7.8027344
					l-2.9970703,2.9960938C115.4882813,92.5839844,111.9941406,92.5839844,109.8398438,90.4296875z"/>
			</g>
		</g>
		<g>
			<g>
				<path fill="#A22CFF" d="M76.7084961,104.9746094c-2.1547852-2.1552734-2.1552734-5.6484375,0-7.8046875l57.2485352-57.2480469
					c2.1552734-2.1552734,5.6494141-2.1552734,7.8046875,0c2.1542969,2.1542969,2.1542969,5.6484375,0,7.8027344l-57.2495117,57.25
					C82.3569336,107.1289063,78.8632813,107.1289063,76.7084961,104.9746094z"/>
			</g>
		</g>
		<g>
			<g>
				<path fill="#A22CFF" d="M142.9970703,38.6855469c-2.1552734-2.1542969-2.1552734-5.6484375,0-7.8037109L170.125,3.7539063
					c2.15625-2.15625,5.6494141-2.1552734,7.8046875,0c2.1542969,2.1542969,2.1542969,5.6484375,0,7.8027344l-27.1289063,27.1289063
					C148.6455078,40.8408203,145.1523438,40.8398438,142.9970703,38.6855469z"/>
			</g>
		</g>
		<g>
			<g>
				<path fill="#2C78FF" d="M95.2944336,123.5605469c-2.1547852-2.1552734-2.1557617-5.6494141-0.0004883-7.8046875
					l67.6337891-67.6328125c2.1542969-2.1552734,5.6484375-2.1542969,7.8037109,0
					c2.1552734,2.1552734,2.1552734,5.6484375,0,7.8037109l-67.6333008,67.6337891
					C100.9428711,125.7148438,97.449707,125.7148438,95.2944336,123.5605469z"/>
			</g>
		</g>
		<g>
			<g>
				<path fill="#FF2B4C" d="M115.1855469,122.2558594c-2.1552734-2.1552734-2.15625-5.6484375,0-7.8046875l45.3291016-45.3291016
					c2.1552734-2.1552734,5.6494141-2.1552734,7.8037109-0.0009766c2.1552734,2.1552734,2.1552734,5.6494141,0,7.8046875
					l-45.3300781,45.3300781C120.8339844,124.4101563,117.3398438,124.4101563,115.1855469,122.2558594z"/>
			</g>
		</g>
		<g>
			<g>
				<path fill="#FF2B4C" d="M104.5874023,132.8535156c-2.1547852-2.1552734-2.1552734-5.6484375,0-7.8046875l0,0
					c2.1547852-2.1542969,5.6489258-2.1542969,7.8041992,0s2.1542969,5.6494141-0.0009766,7.8046875l0,0
					C110.2363281,135.0078125,106.7421875,135.0078125,104.5874023,132.8535156z"/>
			</g>
		</g>
		<g>
			<g>
				<path fill="#00D885" d="M131.2675781,31.8300781c-2.15625-2.15625-2.1552734-5.6494141,0-7.8046875l0,0
					c2.1542969-2.1542969,5.6484375-2.1552734,7.8037109,0c2.1552734,2.1542969,2.1552734,5.6484375,0,7.8037109l0,0
					C136.9160156,33.984375,133.421875,33.984375,131.2675781,31.8300781z"/>
			</g>
		</g>
	</g>
</g>
</svg>
