<?xml version="1.0" encoding="utf-8"?>
<!-- Generator: Adobe Illustrator 16.0.0, SVG Export Plug-In . SVG Version: 6.00 Build 0)  -->
<!DOCTYPE svg PUBLIC "-//W3C//DTD SVG 1.1//EN" "http://www.w3.org/Graphics/SVG/1.1/DTD/svg11.dtd">
<svg version="1.1" id="Layer_1" xmlns="http://www.w3.org/2000/svg" xmlns:xlink="http://www.w3.org/1999/xlink" x="0px" y="0px"
	 width="30px" height="12px" viewBox="0 0 30 12" enable-background="new 0 0 30 12" xml:space="preserve">
<g id="Footer_1_">
	<g id="Terms_of_Service__x2F__Copyright_1_">
		<rect x="-0.7128906" y="0.2441406" fill="none" width="32.15625" height="12"/>
		<path fill="#FFC920" d="M2.9033203,10.9238281c-0.875-0.5068359-1.5629883-1.1943359-2.0644531-2.0644531
			C0.3374023,7.9902344,0.0869141,7.0224609,0.0869141,5.9560547s0.2504883-2.034668,0.7519531-2.9038086
			C1.340332,2.1826172,2.0283203,1.4975586,2.9033203,0.9960938C3.777832,0.4946289,4.7485352,0.2441406,5.8149414,0.2441406
			c1.0668945,0,2.034668,0.2504883,2.9042969,0.7519531c0.8691406,0.5014648,1.5541992,1.1865234,2.0556641,2.0561523
			c0.5014648,0.8691406,0.7524414,1.8374023,0.7524414,2.9038086s-0.2509766,2.0341797-0.7524414,2.9033203
			c-0.5014648,0.8701172-1.1894531,1.5576172-2.0639648,2.0644531s-1.8398438,0.7597656-2.8959961,0.7597656
			C4.7485352,11.6835938,3.777832,11.4306641,2.9033203,10.9238281z M8.1508789,9.9873047
			c0.6933594-0.4052734,1.2348633-0.9599609,1.6240234-1.6630859c0.3896484-0.7041016,0.5839844-1.4936523,0.5839844-2.3681641
			s-0.1943359-1.6640625-0.5839844-2.3681641C9.3857422,2.8837891,8.8442383,2.3320313,8.1508789,1.9321289
			S6.6791992,1.3320313,5.8149414,1.3320313c-0.8745117,0-1.6586914,0.2001953-2.3520508,0.6000977
			s-1.234375,0.9516602-1.6240234,1.6557617C1.449707,4.2919922,1.2548828,5.081543,1.2548828,5.9560547
			S1.449707,7.6201172,1.8388672,8.3242188c0.3896484,0.703125,0.9306641,1.2578125,1.6240234,1.6630859
			c0.6933594,0.40625,1.4775391,0.6083984,2.3520508,0.6083984C6.6791992,10.5957031,7.4575195,10.3935547,8.1508789,9.9873047z
			 M4.175293,8.9794922C3.6469727,8.6914063,3.2363281,8.2861328,2.9428711,7.7636719s-0.4399414-1.125-0.4399414-1.8076172
			s0.1464844-1.2827148,0.4399414-1.800293c0.293457-0.5170898,0.7041016-0.9199219,1.2324219-1.2075195
			c0.527832-0.2880859,1.1381836-0.4321289,1.8320313-0.4321289c0.4692383,0,0.8691406,0.0400391,1.199707,0.1201172
			C7.5375977,2.7158203,7.8203125,2.8466797,8.0551758,3.027832C8.215332,3.1557617,8.3217773,3.2788086,8.375,3.3959961
			c0.0532227,0.1176758,0.0800781,0.2666016,0.0800781,0.4482422c0,0.234375-0.074707,0.4584961-0.2241211,0.671875
			S7.8789063,4.8359375,7.6230469,4.8359375c-0.1176758,0-0.2348633-0.0185547-0.3520508-0.0561523
			C7.1538086,4.7426758,7.03125,4.6918945,6.9033203,4.6279297C6.8710938,4.6176758,6.777832,4.5878906,6.6230469,4.5400391
			S6.3217773,4.4677734,6.1831055,4.4677734c-0.3837891,0-0.6665039,0.1069336-0.8481445,0.3203125
			C5.1538086,5.0014648,5.0629883,5.390625,5.0629883,5.9560547s0.0908203,0.9575195,0.2719727,1.1757813
			c0.1816406,0.21875,0.4643555,0.328125,0.8481445,0.328125c0.1386719,0,0.2851563-0.0244141,0.4399414-0.0722656
			s0.2480469-0.0771484,0.2802734-0.0878906C7.03125,7.2353516,7.1538086,7.1855469,7.2709961,7.1474609
			c0.1171875-0.0371094,0.234375-0.0556641,0.3520508-0.0556641c0.2558594,0,0.4584961,0.1064453,0.6079102,0.3203125
			c0.1494141,0.2128906,0.2241211,0.4375,0.2241211,0.671875c0,0.2021484-0.0268555,0.3652344-0.0800781,0.4873047
			c-0.0532227,0.1230469-0.159668,0.2324219-0.3198242,0.328125C7.7133789,9.0703125,7.3911133,9.1982422,7.0869141,9.2841797
			C6.7832031,9.3691406,6.4233398,9.4121094,6.0073242,9.4121094C5.3134766,9.4121094,4.703125,9.2675781,4.175293,8.9794922z"/>
	</g>
	<g id="Mason_Education_Logo_1_">
		<path id="Letter_M_1_" fill="#FF0858" d="M24.5214844,1.3095703c0.0722656,0.1357422,0.1152344,0.2587891,0.1269531,0.3681641
			c0.0136719,0.109375,0.0214844,0.2685547,0.0214844,0.4785156v7.5839844c0,0.6269531-0.171875,0.9960938-0.5136719,1.1054688
			c-0.171875,0.0566406-0.3867188,0.0820313-0.6484375,0.0820313s-0.46875-0.0234375-0.6210938-0.0664063
			c-0.1542969-0.046875-0.2714844-0.1015625-0.3515625-0.1660156c-0.0820313-0.0625-0.1445313-0.1542969-0.1894531-0.2714844
			c-0.0449219-0.1542969-0.0683594-0.3925781-0.0683594-0.7109375v-4.578125
			c-0.2246094,0.28125-0.5527344,0.7314453-0.9863281,1.3457031c-0.4316406,0.6142578-0.7070313,1-0.8242188,1.15625
			c-0.1171875,0.1523438-0.1972656,0.2617188-0.2421875,0.3203125c-0.0449219,0.0605469-0.15625,0.1425781-0.3320313,0.2460938
			c-0.1738281,0.1054688-0.3632813,0.1582031-0.5664063,0.1582031s-0.3867188-0.046875-0.5527344-0.1445313
			c-0.1679688-0.0957031-0.2871094-0.1894531-0.359375-0.2792969l-0.109375-0.1503906
			C18.125,7.5585938,17.7695313,7.0722656,17.2382813,6.3310547c-0.53125-0.7421875-0.8183594-1.1416016-0.8652344-1.1962891
			v4.6054688c0,0.2089844-0.0058594,0.3671875-0.0195313,0.4707031c-0.0136719,0.1054688-0.0566406,0.2226563-0.1289063,0.3476563
			c-0.1347656,0.2480469-0.4863281,0.3691406-1.0537109,0.3691406c-0.5488281,0-0.890625-0.1210938-1.0268555-0.3691406
			c-0.0717773-0.125-0.1147461-0.2460938-0.1279297-0.3554688c-0.0141602-0.1074219-0.0205078-0.2714844-0.0205078-0.4902344
			V2.1279297c0-0.2080078,0.0063477-0.3652344,0.0205078-0.4707031c0.0131836-0.1035156,0.0561523-0.2255859,0.1279297-0.3623047
			c0.1362305-0.2353516,0.4863281-0.3535156,1.0541992-0.3535156c0.2431641,0,0.4521484,0.0292969,0.6279297,0.0878906
			c0.1757813,0.0595703,0.2910156,0.1210938,0.34375,0.1835938l0.0820313,0.0820313l3.0664063,4.0712891
			c1.5332031-2.0488281,2.5546875-3.4013672,3.0683594-4.0566406c0.1523438-0.2470703,0.515625-0.3681641,1.0859375-0.3681641
			C24.0449219,0.9414063,24.3945313,1.0625,24.5214844,1.3095703z"/>
		<path id="Letter_E_1_" fill="#00C3FF" d="M24.65625,8.5058594h4.1484375c0.2070313,0,0.3613281,0.0058594,0.4648438,0.0214844
			c0.1035156,0.0136719,0.2226563,0.0546875,0.3574219,0.1289063c0.2421875,0.125,0.3632813,0.4804688,0.3632813,1.0605469
			c0,0.6367188-0.1660156,1.0097656-0.4980469,1.1191406c-0.1523438,0.0546875-0.3867188,0.0800781-0.6992188,0.0800781h-5.3359375
			c-0.6289063,0-0.9980469-0.171875-1.1054688-0.5175781c-0.0546875-0.1445313-0.0820313-0.3769531-0.0820313-0.6953125V2.1279297
			c0-0.4638672,0.0859375-0.7792969,0.2578125-0.9472656c0.1699219-0.1689453,0.4921875-0.2529297,0.96875-0.2529297h5.3085938
			c0.2070313,0,0.3613281,0.0068359,0.4648438,0.0214844c0.1035156,0.0126953,0.2226563,0.0556641,0.3574219,0.1298828
			c0.2421875,0.1269531,0.3632813,0.4804688,0.3632813,1.0615234c0,0.6367188-0.1660156,1.0087891-0.4980469,1.1171875
			c-0.1523438,0.0556641-0.3867188,0.0820313-0.6992188,0.0820313H24.65625v1.3759766h2.6660156
			c0.2089844,0,0.3632813,0.0068359,0.4648438,0.0214844c0.1035156,0.0136719,0.2246094,0.0556641,0.3574219,0.1298828
			c0.2441406,0.1259766,0.3652344,0.4794922,0.3652344,1.0615234c0,0.6367188-0.171875,1.0087891-0.5117188,1.1171875
			C27.84375,7.1015625,27.6113281,7.1269531,27.296875,7.1269531H24.65625V8.5058594z"/>
	</g>
</g>
</svg>
