<?xml version="1.0" encoding="utf-8"?>
<!-- Generator: Adobe Illustrator 16.0.0, SVG Export Plug-In . SVG Version: 6.00 Build 0)  -->
<!DOCTYPE svg PUBLIC "-//W3C//DTD SVG 1.1//EN" "http://www.w3.org/Graphics/SVG/1.1/DTD/svg11.dtd">
<svg version="1.1" id="Layer_1" xmlns="http://www.w3.org/2000/svg" xmlns:xlink="http://www.w3.org/1999/xlink" x="0px" y="0px"
	 width="654px" height="458px" viewBox="0 0 654 458" enable-background="new 0 0 654 458" xml:space="preserve">
<g>
	
		<rect x="-568.3671875" y="-360.5234375" fill-rule="evenodd" clip-rule="evenodd" fill="#7E89FD" width="1587.9804688" height="1056.9609375"/>
	<g>
		<g>
			
				<rect x="501.1318359" y="-66.3208008" fill-rule="evenodd" clip-rule="evenodd" fill="#9CA4FF" width="173.5449219" height="574.1469727"/>
			
				<rect x="628.2470703" y="-59.4892578" fill-rule="evenodd" clip-rule="evenodd" fill="#7E89FD" width="40.6689453" height="574.1455078"/>
			
				<rect x="583.7949219" y="-59.4892578" fill-rule="evenodd" clip-rule="evenodd" fill="#7E89FD" width="40.6689453" height="574.1455078"/>
			
				<rect x="539.3427734" y="-59.4892578" fill-rule="evenodd" clip-rule="evenodd" fill="#7E89FD" width="40.6679688" height="574.1455078"/>
		</g>
		<path fill-rule="evenodd" clip-rule="evenodd" fill="#3B47BC" d="M203.8740234,371.9238281
			c144.5771484,0,262.4970703-117.9355469,262.4970703-262.5273438c0-144.6010742-117.9199219-262.5366211-262.4970703-262.5366211
			c-144.5859375,0-262.5058594,117.9355469-262.5058594,262.5366211
			C-58.6318359,253.9882813,59.2880859,371.9238281,203.8740234,371.9238281z"/>
		<path fill-rule="evenodd" clip-rule="evenodd" fill="#3B47BC" d="M203.8740234,338.9785156
			c126.4257813,0,229.5507813-103.140625,229.5507813-229.5820313c0-126.4570313-103.125-229.590332-229.5507813-229.590332
			c-126.4418945,0-229.5595703,103.1333008-229.5595703,229.590332
			C-25.6855469,235.8378906,77.4321289,338.9785156,203.8740234,338.9785156z"/>
		<path fill-rule="evenodd" clip-rule="evenodd" fill="#FFFFFF" d="M203.8662109-144.5795898
			c72.6835938,0,138.4902344,29.456543,186.1220703,77.0957031
			c47.6318359,47.6396484,77.0888672,113.4541016,77.0888672,186.1381836
			c0,72.6918945-29.4570313,138.5058594-77.0888672,186.1464844
			c-47.6318359,47.6308594-113.4384766,77.0957031-186.1220703,77.0957031
			c-72.6767578,0-138.4833984-29.4648438-186.1152344-77.0957031
			c-47.6313477-47.640625-77.0883789-113.4545898-77.0883789-186.1464844
			c0-72.684082,29.4570313-138.4985352,77.0883789-186.1381836
			C65.3828125-115.1230469,131.1894531-144.5795898,203.8662109-144.5795898L203.8662109-144.5795898z M388.9882813-66.4833984
			c-47.3759766-47.3833008-112.8251953-76.6928711-185.1220703-76.6928711
			c-72.2890625,0-137.7392578,29.3095703-185.1147461,76.6928711
			C-28.6245117-19.1000977-57.9335938,46.3579102-57.9335938,118.6542969
			c0,72.3041992,29.309082,137.7617188,76.6850586,185.1445313
			c47.3754883,47.3847656,112.8256836,76.6933594,185.1147461,76.6933594
			c72.296875,0,137.7460938-29.3085938,185.1220703-76.6933594c47.3759766-47.3828125,76.6767578-112.840332,76.6767578-185.1445313
			C465.6650391,46.3579102,436.3642578-19.1000977,388.9882813-66.4833984z"/>
		
			<rect x="-155.2285156" y="45.3886719" fill-rule="evenodd" clip-rule="evenodd" fill="#E9E8F0" width="718.1962891" height="476.4335938"/>
		
			<rect x="-80.7143555" y="45.3886719" fill-rule="evenodd" clip-rule="evenodd" fill="#FFFFFF" width="569.168457" height="476.4335938"/>
		
			<rect x="-24.9414063" y="109.4970703" fill-rule="evenodd" clip-rule="evenodd" fill="#7E89FD" width="459.1181641" height="343.3310547"/>
		<path fill-rule="evenodd" clip-rule="evenodd" fill="#B4B1C8" d="M504.3720703,469.7011719
			c-6.0546875,18.2910156-10.5449219,36.96875-10.5605469,52.1210938h53.6328125
			c16.3066406-43.9101563,17.8496094-118.0683594,11.8867188-126.8769531
			C537.3417969,362.5117188,507.5673828,460.0546875,504.3720703,469.7011719z"/>
		<path fill-rule="evenodd" clip-rule="evenodd" fill="#3B47BC" d="M161.2197266,452.828125H-24.9414063V207.8930664
			c10.6538086-2.0703125,21.6411133-3.171875,32.8994141-3.171875c94.6430664,0,171.359375,76.7319336,171.359375,171.3901367
			C179.3173828,403.6914063,172.7963867,429.7441406,161.2197266,452.828125z"/>
		<g>
			<path fill-rule="evenodd" clip-rule="evenodd" fill="#F8CA7A" d="M203.8740234,14.0400391
				c52.7871094,0,95.8447266-24.0834961,95.8447266-53.6254883c0-29.5341797-43.0576172-53.6254883-95.8447266-53.6254883
				c-52.7958984,0-95.8530273,24.0913086-95.8530273,53.6254883
				C108.0209961-10.043457,151.078125,14.0400391,203.8740234,14.0400391z"/>
			
				<rect x="-184.7783203" y="26.8027344" fill-rule="evenodd" clip-rule="evenodd" fill="#3B47BC" width="787.8955078" height="82.5859375"/>
			<path fill-rule="evenodd" clip-rule="evenodd" fill="#FF8685" d="M-4.9985352,25.5385742h69.605957V60.012207
				c0,18.9658203-15.5078125,34.4736328-34.4658203,34.4736328h-0.6743164
				c-18.9506836,0-34.4658203-15.5078125-34.4658203-34.4736328V25.5385742z"/>
			<path fill-rule="evenodd" clip-rule="evenodd" fill="#FFFFFF" d="M64.6074219,25.5385742h69.6137695V60.012207
				c0,18.9658203-15.5078125,34.4736328-34.4658203,34.4736328h-0.6743164
				c-18.9580078,0-34.4736328-15.5078125-34.4736328-34.4736328V25.5385742z"/>
			<path fill-rule="evenodd" clip-rule="evenodd" fill="#FFFFFF" d="M203.6074219,25.5385742h69.6142578V60.012207
				c0,18.9658203-15.5078125,34.4736328-34.4667969,34.4736328h-0.6738281
				c-18.9580078,0-34.4736328-15.5078125-34.4736328-34.4736328V25.5385742z"/>
			<path fill-rule="evenodd" clip-rule="evenodd" fill="#F8CA7A" d="M134.2211914,25.5385742h69.605957V60.012207
				c0,18.9658203-15.5078125,34.4736328-34.4658203,34.4736328h-0.6743164
				c-18.9584961,0-34.4658203-15.5078125-34.4658203-34.4736328V25.5385742z"/>
			<path fill-rule="evenodd" clip-rule="evenodd" fill="#FF8685" d="M273.4404297,25.5385742h69.6064453V60.012207
				c0,18.9658203-15.5078125,34.4736328-34.4658203,34.4736328H307.90625
				c-18.9580078,0-34.4658203-15.5078125-34.4658203-34.4736328V25.5385742z"/>
			<path fill-rule="evenodd" clip-rule="evenodd" fill="#FFFFFF" d="M343.046875,25.5385742h69.6142578V60.012207
				c0,18.9658203-15.515625,34.4736328-34.4746094,34.4736328h-0.6660156
				c-18.9589844,0-34.4736328-15.5078125-34.4736328-34.4736328V25.5385742z"/>
			<path fill-rule="evenodd" clip-rule="evenodd" fill="#F8CA7A" d="M412.6611328,25.5385742h69.6054688V60.012207
				c0,18.9658203-15.5078125,34.4736328-34.4658203,34.4736328h-0.6748047
				c-18.9580078,0-34.4648438-15.5078125-34.4648438-34.4736328V25.5385742z"/>
			<path fill-rule="evenodd" clip-rule="evenodd" fill="#FFFFFF" d="M482.2666016,25.5385742h69.6132813V60.012207
				c0,18.9658203-15.515625,34.4736328-34.4726563,34.4736328h-0.6679688
				c-18.9570313,0-34.4726563-15.5078125-34.4726563-34.4736328V25.5385742z"/>
			<path fill-rule="evenodd" clip-rule="evenodd" fill="#FF8685" d="M551.8798828,25.5385742h69.6064453V60.012207
				c0,18.9658203-15.5078125,34.4736328-34.4658203,34.4736328h-0.6748047
				c-18.9580078,0-34.4658203-15.5078125-34.4658203-34.4736328V25.5385742z"/>
			
				<rect x="-256.5556641" y="24.2749023" fill-rule="evenodd" clip-rule="evenodd" fill="#FFFFFF" width="895.4492188" height="2.527832"/>
		</g>
		<g>
			<path fill-rule="evenodd" clip-rule="evenodd" fill="#281616" d="M634.0322266,258.0683594
				c0,0-0.0390625-4.3574219-4.5830078-2.078125c-0.5810547,0.2949219-0.8759766-0.1328125-1.03125-1.0625h-0.0078125v-0.0078125
				v-0.0390625c-0.0224609-0.1308594-0.0458984-0.2714844-0.0615234-0.4179688
				c-6.5292969-43.5385742-56.0761719,22.8105469-73.1728516-8.1269531
				c1.03125,5.0703125,4.3037109,11.5136719,10.5292969,17.3144531
				c15.2519531,14.1738281,35.6523438,18.0585938,46.8017578,14.6699219
				C623.6572266,274.9238281,633.6591797,271.0859375,634.0322266,258.0683594z"/>
			<path fill-rule="evenodd" clip-rule="evenodd" fill="#FFFFFF" d="M631.7138672,272.4667969
				c1.6738281,3.5273438,3.5429688,6.6367188,5.3808594,7.9316406c5.3496094,3.7753906,7.2109375-10.28125,7.9550781-15.6386719
				c0.7441406-5.3515625,2.1484375-13.3300781-1.9453125-13.46875c-1.15625-0.046875-3.0097656,0.4179688-5.0800781,1.1015625
				c-0.8828125-5.7539063,2.5820313-28.8530273-23.0429688-24.3081055
				c-20.2773438,3.597168-33.0087891,16.1889648-42.7089844,8.5522461
				c-9.7070313-7.6381836-12.1816406,10.4277344,3.0625,24.6015625
				c15.2519531,14.1816406,35.6523438,18.0664063,46.8027344,14.671875
				C625.5107422,274.8847656,628.7822266,273.8164063,631.7138672,272.4667969z"/>
			<path fill-rule="evenodd" clip-rule="evenodd" fill="#281616" d="M574.3974609,258.6328125
				c0,0,5.7070313,19.2617188,11.0644531,23.0371094c5.3496094,3.7773438,7.2109375-10.28125,7.9550781-15.6308594
				c0.7441406-5.3574219,2.1484375-13.3300781-1.953125-13.4765625
				C587.3701172,252.4160156,574.3974609,258.6328125,574.3974609,258.6328125z"/>
			<polygon fill-rule="evenodd" clip-rule="evenodd" fill="#FFE1DA" points="623.3076172,281.1035156 636.6757813,288.640625 
				638.21875,352.0351563 593.2548828,356.71875 598.3486328,301.7441406 			"/>
			<polygon fill-rule="evenodd" clip-rule="evenodd" fill="#FF8685" points="600.9462891,355.9121094 593.2548828,356.71875 
				598.3486328,301.7441406 607.4443359,294.2246094 608.5917969,294.8984375 			"/>
			<path fill-rule="evenodd" clip-rule="evenodd" fill="#412F2F" d="M622.7958984,281.1035156l6.6767578,3.7617188
				c2.046875,21.625-12.4443359,47.9726563-34.6132813,49.0957031l2.9775391-32.2167969L622.7958984,281.1035156z"/>
			<path fill-rule="evenodd" clip-rule="evenodd" fill="#FFD3CA" d="M581.8876953,243.7304688
				c1.1474609,3.6289063-7.4589844,76.4453125,17.6630859,77.3359375
				c25.1142578,0.8925781,41.265625-30.3710938,36.4970703-53.4082031
				C631.2792969,244.6230469,581.8876953,243.7304688,581.8876953,243.7304688z"/>
			<path fill-rule="evenodd" clip-rule="evenodd" fill="#FFE1DA" d="M610.7548828,319.2285156
				c18.5-6.9628906,29.3095703-32.1777344,25.2929688-51.5703125c-1-4.8222656-3.9550781-8.6679688-8.0019531-11.7460938
				c-4.3574219,0.9003906-7.9316406,1.7285156-7.9316406,1.7285156s4.046875,29.9375-2.1953125,37.2734375
				C613.1816406,300.4804688,611.8408203,312.1191406,610.7548828,319.2285156z"/>
			<path fill-rule="evenodd" clip-rule="evenodd" fill="#FF8685" d="M581.8876953,243.7304688
				c0.4492188,1.4355469-0.6132813,13.6855469-0.5273438,28.03125c13.8095703,7.9785156,29.3945313,9.296875,38.6523438,6.0390625
				c6.3203125-2.2246094,12.2666016-4.5664063,16.3300781-8.4980469c-0.0859375-0.5507813-0.1865234-1.1015625-0.2949219-1.6445313
				C631.2792969,244.6230469,581.8876953,243.7304688,581.8876953,243.7304688z"/>
			<path fill-rule="evenodd" clip-rule="evenodd" fill="#FF8685" d="M581.8876953,243.7304688
				c1.1005859,3.4902344-6.8242188,71.0722656,14.9804688,76.9257813c-0.0078125-0.2949219-0.125-0.6054688-0.3574219-0.9160156
				c-3.6669922-4.8457031-0.9453125-8.4667969-0.2871094-11.2421875c0.6601563-2.7753906,0.2255859-4.3808594-0.6503906-6.3574219
				c-0.8769531-1.9765625,0.5810547-1.6210938,0.6582031-3.203125c0.078125-1.5820313-1.8222656-2.1308594-1.7519531-3.109375
				c0.0703125-0.96875,0.9765625-3.3105469,0.3496094-4.5507813c-0.6289063-1.2402344-5.8398438-1.0625-6.4589844-2.9082031
				c-0.6210938-1.8457031,5.0859375-34.5195313,5.3574219-36.2167969l-7.6757813-8.2128906
				C583.4619141,243.7617188,581.8876953,243.7304688,581.8876953,243.7304688z"/>
			<path fill-rule="evenodd" clip-rule="evenodd" fill="#412F2F" d="M641.6767578,256.5703125
				c0,0-0.03125-4.3574219-4.5820313-2.0761719c-4.0546875,2.03125,6.0322266-30.8452148-24.0917969-25.503418
				c-20.2832031,3.597168-33.0078125,16.190918-42.7148438,8.5522461
				c-9.7001953-7.6362305-12.1738281,10.4296875,3.0703125,24.6035156
				c15.2441406,14.1816406,35.6445313,18.0664063,46.7939453,14.6699219
				C631.3027344,273.4199219,641.3046875,269.5898438,641.6767578,256.5703125z"/>
			<path fill-rule="evenodd" clip-rule="evenodd" fill="#281616" d="M641.6767578,256.5703125
				c0,0-0.03125-4.3574219-4.5820313-2.0761719c-0.5820313,0.2851563-0.8691406-0.140625-1.03125-1.0703125v0.0078125v-0.015625
				l-0.0078125-0.03125c-0.0234375-0.1328125-0.0390625-0.2714844-0.0546875-0.4277344
				c-6.5361328-43.5366211-56.0751953,22.8203125-73.171875-8.125c1.0234375,5.0703125,4.2949219,11.5214844,10.5292969,17.3144531
				c15.2441406,14.1816406,35.6445313,18.0664063,46.7939453,14.6699219
				C631.3027344,273.4199219,641.3046875,269.5898438,641.6767578,256.5703125z"/>
			<path fill-rule="evenodd" clip-rule="evenodd" fill="#281616" d="M624.0527344,258.2695313
				c0,0,5.7060547,19.2597656,11.0566406,23.0371094c5.3583984,3.7753906,7.2197266-10.2832031,7.9638672-15.640625
				c0.7363281-5.3496094,2.1396484-13.328125-1.9550781-13.46875
				C637.0244141,252.0507813,624.0527344,258.2695313,624.0527344,258.2695313z"/>
			<path fill-rule="evenodd" clip-rule="evenodd" fill="#FFE1DA" d="M634.6054688,277.9179688
				c0,0,3.9619141-8.4824219,8.2275391-6.6523438c4.2558594,1.828125,0.4023438,20.6542969-4.8232422,22.0195313
				C632.7910156,294.6582031,629.8759766,289.0742188,634.6054688,277.9179688z"/>
			<path fill-rule="evenodd" clip-rule="evenodd" fill="#412F2F" d="M634.0634766,256.9199219
				c-0.0234375,0.078125-10.5839844,28.0078125-46.1513672,6.5058594l-0.4882813,0.7675781
				c36.5595703,22.0976563,47.5068359-6.8398438,47.5380859-6.9238281L634.0634766,256.9199219z"/>
			<path fill-rule="evenodd" clip-rule="evenodd" fill="#281616" d="M646.3369141,250.453125
				c-0.015625-0.0078125-7.15625-3.7128906-10.4521484,3.6289063l0.8759766,0.3886719
				c2.9003906-6.4511719,9.1347656-3.21875,9.1503906-3.2109375L646.3369141,250.453125z"/>
			<path fill-rule="evenodd" clip-rule="evenodd" fill="#281616" d="M642.0654297,246.8007813
				c-0.015625,0-7.9248047,1.0625-5.9248047,8.9726563l0.9306641-0.1953125
				c-1.7519531-6.9472656,5.1484375-7.8691406,5.171875-7.8691406L642.0654297,246.8007813z"/>
			<path fill-rule="evenodd" clip-rule="evenodd" fill="#FF8685" d="M606.9326172,296.953125
				c-0.0234375,0.0078125-8.8085938,2.171875-13.8408203-0.0859375l-0.3876953,0.8300781
				c5.3574219,2.4042969,14.4453125,0.1542969,14.4765625,0.1484375L606.9326172,296.953125z"/>
			<path fill-rule="evenodd" clip-rule="evenodd" fill="#FF8685" d="M605.8544922,296.6816406
				c0,0,1.0859375,0.7597656,0.7128906,1.6679688l0.9003906,0.3554688c0.6347656-1.5585938-1.1328125-2.8066406-1.1328125-2.8066406
				L605.8544922,296.6816406z"/>
			<path fill-rule="evenodd" clip-rule="evenodd" fill="#FFFFFF" d="M632.2646484,292.8125
				c0.0224609-0.1621094-0.1015625-0.3261719-0.2792969-0.3574219c-0.1787109-0.0234375-0.3417969,0.09375-0.3652344,0.2636719
				c-0.0078125,0.046875-1.9375,16.0976563-18.3222656,24.2773438c-0.1542969,0.078125-0.2089844,0.2714844-0.1240234,0.4257813
				c0.0849609,0.1484375,0.2871094,0.2109375,0.4423828,0.1328125
				C630.2861328,309.2265625,632.2568359,292.859375,632.2646484,292.8125z"/>
			<path fill-rule="evenodd" clip-rule="evenodd" fill="#FF8685" d="M641.7001953,274.9160156
				c-3.4814453,3.8847656-5.3261719,7.2109375-6.140625,9.6542969c-1.8769531,5.6601563,1.7910156,6.5742188,3.5195313-1.3339844
				l-0.8369141-0.1933594c-1.2412109,6.25-3.3261719,5.7460938-1.8525391,1.5898438
				c0.7753906-2.1953125,2.5507813-5.4042969,5.9619141-9.1738281L641.7001953,274.9160156z"/>
			<path fill-rule="evenodd" clip-rule="evenodd" fill="#FF8685" d="M619.3691406,287.9277344
				c-3.6201172-0.5976563-6.9628906,1.7207031-7.4824219,5.171875c-0.5117188,3.4511719,2.0087891,6.7304688,5.6220703,7.3261719
				c3.6210938,0.5976563,6.9707031-1.7207031,7.4824219-5.1699219
				C625.5029297,291.8046875,622.9824219,288.5253906,619.3691406,287.9277344z"/>
			<path fill-rule="evenodd" clip-rule="evenodd" fill="#281616" d="M606.6142578,280.1972656
				c-0.9228516-0.0078125-1.6513672,0.6894531-1.6357422,1.5742188c0.0068359,0.875,0.7675781,1.6054688,1.6826172,1.6132813
				c0.921875,0.0136719,1.6513672-0.6914063,1.6357422-1.5742188
				C608.2890625,280.9335938,607.5292969,280.2128906,606.6142578,280.1972656z"/>
			<polygon fill-rule="evenodd" clip-rule="evenodd" fill="#281616" points="612.6621094,279.5917969 603.5048828,279.5234375 
				603.5361328,281.0351563 612.6933594,281.1035156 			"/>
			<polygon fill-rule="evenodd" clip-rule="evenodd" fill="#281616" points="588.8427734,279.390625 580.9726563,278.6933594 
				580.8330078,280.1894531 588.703125,280.8867188 			"/>
			<path fill-rule="evenodd" clip-rule="evenodd" fill="#281616" d="M586.3925781,280.2207031
				c-0.9150391-0.09375-1.7138672,0.5351563-1.7841797,1.4101563c-0.0771484,0.8769531,0.6054688,1.6601563,1.5283203,1.7617188
				c0.9150391,0.0917969,1.7138672-0.5351563,1.7832031-1.4121094
				C587.9970703,281.1035156,587.3076172,280.3125,586.3925781,280.2207031z"/>
			<path fill-rule="evenodd" clip-rule="evenodd" fill="#F2F3F7" d="M516.2978516,519.3398438
				c0,0,19.1367188-117.4550781,24.9287109-127.2949219c5.7998047-9.8398438,52.4228516-39.5585938,52.4228516-39.5585938
				c9.8554688,8.0625,29.96875-3.125,44.9570313-4.6835938c0,0,51.6015625,39.5429688,57.84375,53.2285156
				c6.25,13.6953125,18.8261719,117.71875,18.8261719,117.71875L516.2978516,519.3398438z"/>
		</g>
		<polygon fill-rule="evenodd" clip-rule="evenodd" fill="#FFE1DA" points="199.7490234,214.987793 186.9238281,222.5239258 
			165.7714844,292.1230469 229.0039063,303.4355469 223.6845703,235.6289063 		"/>
		<polygon fill-rule="evenodd" clip-rule="evenodd" fill="#FF8685" points="211.3564453,309.265625 228.5693359,290.5957031 
			223.6845703,235.6289063 214.9619141,228.1069336 213.8681641,228.7817383 		"/>
		<path fill-rule="evenodd" clip-rule="evenodd" fill="#412F2F" d="M200.2373047,214.987793l-6.4047852,3.7607422
			c-1.9619141,21.6245117,11.940918,47.9643555,33.2094727,49.0893555l-2.8691406-32.2089844L200.2373047,214.987793z"/>
		<path fill-rule="evenodd" clip-rule="evenodd" fill="#FFD3CA" d="M239.9521484,199.1235352
			c0.3339844,22.7109375-1.3652344,55.2299805-17.4150391,55.8276367
			c-24.0908203,0.890625-39.5756836-30.3725586-35.0087891-53.4086914c0.1708984-0.8369141,0.3955078-1.6435547,0.6748047-2.4189453
			H239.9521484z"/>
		<path fill-rule="evenodd" clip-rule="evenodd" fill="#FFE1DA" d="M211.7900391,253.1132813
			c-17.7402344-6.9628906-28.1074219-32.1860352-24.2617188-51.5708008
			c0.1708984-0.8369141,0.3955078-1.6435547,0.6669922-2.4189453h13.8642578
			c-0.7216797,9.3818359-1.1943359,24.7109375,2.8613281,29.6738281
			C209.4638672,234.3652344,210.7431641,246.0019531,211.7900391,253.1132813z"/>
		<path fill-rule="evenodd" clip-rule="evenodd" fill="#FF8685" d="M239.9521484,199.1235352
			c0.3105469,21.4316406-1.1865234,51.5932617-14.8408203,55.4155273c0.0078125-0.2949219,0.1162109-0.6035156,0.3408203-0.9140625
			c3.5126953-4.8457031,0.9003906-8.4667969,0.2714844-11.2441406c-0.6279297-2.7753906-0.2089844-4.3808594,0.6289063-6.3574219
			c0.8369141-1.9765625-0.5664063-1.6210938-0.6367188-3.203125c-0.0693359-1.5800781,1.7529297-2.1386719,1.6826172-3.1079102
			c-0.0693359-0.9697266-4.7841797-4.2568359-3.0087891-5.1337891c1.7763672-0.875,9.2431641,0.8066406,8.4443359-3.3955078
			c-0.4189453-2.2021484-4.8691406-5.0244141-5.4736328-11.2587891c-0.3261719-3.3496094-0.3105469-7.1875-0.1552734-10.8007813
			H239.9521484z"/>
		<path fill-rule="evenodd" clip-rule="evenodd" fill="#FFFFFF" d="M191.1572266,226.6958008
			c-0.0229492-0.1699219,0.1010742-0.3261719,0.2714844-0.3564453c0.1708984-0.0234375,0.3256836,0.0927734,0.3491211,0.2636719
			c0.0073242,0.0458984,1.8608398,16.0961914,17.5698242,24.277832c0.1474609,0.0761719,0.2021484,0.2695313,0.1240234,0.4179688
			c-0.0849609,0.1542969-0.2792969,0.2167969-0.4257813,0.1386719
			C193.0571289,243.1113281,191.1650391,226.7426758,191.1572266,226.6958008z"/>
		<path fill-rule="evenodd" clip-rule="evenodd" fill="#FF8685" d="M203.5244141,221.8110352
			c3.4746094-0.5976563,6.6835938,1.7207031,7.1728516,5.171875c0.4960938,3.4506836-1.9150391,6.7299805-5.3896484,7.3276367
			c-3.4648438,0.5957031-6.6835938-1.7226563-7.171875-5.1723633
			C197.6474609,225.6879883,200.0585938,222.4008789,203.5244141,221.8110352z"/>
		<path fill-rule="evenodd" clip-rule="evenodd" fill="#FF8685" d="M219.9628906,299.9296875l6.8779297-13.1875
			c0,0,107.9013672,13.5605469,119.2685547,31.5253906c11.375,17.9667969-1.6669922,72.7304688-14.0419922,74.0175781
			S227.0498047,351.640625,219.9628906,299.9296875z"/>
		<path fill-rule="evenodd" clip-rule="evenodd" fill="#281616" d="M215.7607422,215.5229492
			c0.8828125-0.0078125,1.5888672,0.6904297,1.5732422,1.5732422c-0.0146484,0.8769531-0.7441406,1.6054688-1.6201172,1.6132813
			c-0.8847656,0.015625-1.5820313-0.6894531-1.5664063-1.5742188
			C214.1552734,216.2592773,214.8837891,215.5375977,215.7607422,215.5229492z"/>
		<path fill-rule="evenodd" clip-rule="evenodd" fill="#FFFFFF" d="M186.2412109,201.0083008
			c6.6298828,7.203125,36.1484375,0.2480469,36.1484375,0.2480469s1.7832031,6.0009766,17.578125,5.7832031
			c15.7949219-0.2246094,46.0800781-16.1738281,29.0527344-31.6660156
			c-16.7089844-15.2128906-51.6015625-12.5380859-42.2890625,4.1328125
			c3.4199219,6.1171875-5.3261719,4.6054688-14.9648438,3.1015625
			C197.8486328,180.4291992,188.652832,178.0717773,186.2412109,201.0083008z"/>
		<polygon fill-rule="evenodd" clip-rule="evenodd" fill="#281616" points="206.7275391,208.6918945 221.9941406,208.5053711 
			221.9560547,212.5532227 206.6806641,212.7387695 		"/>
		<polygon fill-rule="evenodd" clip-rule="evenodd" fill="#281616" points="232.8261719,214.6928711 243.9072266,213.6616211 
			244.1005859,215.871582 233.0205078,216.8950195 		"/>
		<path fill-rule="evenodd" clip-rule="evenodd" fill="#281616" d="M235.3388672,215.4760742
			c0.8759766-0.0927734,1.6435547,0.5351563,1.7128906,1.4111328c0.0703125,0.8769531-0.5888672,1.6679688-1.4648438,1.7597656
			c-0.8769531,0.09375-1.6445313-0.5351563-1.7138672-1.4101563
			C233.8037109,216.3598633,234.4619141,215.5766602,235.3388672,215.4760742z"/>
		<path fill-rule="evenodd" clip-rule="evenodd" fill="#F8CA7A" d="M302.3779297,453.2148438
			c-14.4609375-92.5800781,0.984375-116.8808594-74.1806641-166.8535156
			c-9.4521484,8.0722656-36.0551758,18.3457031-60.6660156-0.4023438
			c-86.7495117,33.5488281-69.1484375,147.0664063-61.6738281,166.7675781L302.3779297,453.2148438z"/>
		<path fill-rule="evenodd" clip-rule="evenodd" fill="#281616" d="M215.9541016,225.1762695
			c0,0-22.5014648,4.046875-20.5322266,19.034668c1.9619141,14.9960938,15.1826172,51.4550781,47.484375,33.5898438
			c32.2949219-17.8652344-5.7763672-51.3374023-5.7763672-51.3374023S226.5380859,223.253418,215.9541016,225.1762695z"/>
		<path fill-rule="evenodd" clip-rule="evenodd" fill="#FF8685" d="M211.5263672,234.1464844
			c0.03125,0.0078125,11.8164063,3.0332031,18.5625-0.1152344l0.5117188,1.1542969
			c-7.1796875,3.3574219-19.3613281,0.2167969-19.3994141,0.2109375L211.5263672,234.1464844z"/>
		<path fill-rule="evenodd" clip-rule="evenodd" fill="#FF8685" d="M212.9765625,233.7597656
			c0,0.0078125-1.4580078,1.0625-0.9619141,2.3417969l-1.1933594,0.4960938
			c-0.8613281-2.1796875,1.5039063-3.9238281,1.5117188-3.9316406L212.9765625,233.7597656z"/>
		<path fill-rule="evenodd" clip-rule="evenodd" fill="#FF8685" d="M207.5488281,200.8139648
			c0,0-2.3486328,10.7001953-19.5703125,17.1123047c0,0-4.2802734-9.3740234,0-18.8027344L207.5488281,200.8139648z"/>
		<path fill-rule="evenodd" clip-rule="evenodd" fill="#281616" d="M186.9472656,201.0083008
			c5.7919922,7.203125,36.109375,0.2480469,36.109375,0.2480469s1.0927734,6.0009766,16.9111328,5.7832031
			c15.8173828-0.2246094,47.9492188-16.1738281,32.7128906-31.6660156
			c-14.9492188-15.2128906-50.1513672-12.5380859-42.7617188,4.1328125
			c2.7128906,6.1171875-5.8623047,4.6054688-15.3222656,3.1015625
			C200.9267578,180.4291992,192.0024414,178.0717773,186.9472656,201.0083008z"/>
		<path fill-rule="evenodd" clip-rule="evenodd" fill="#FFE1DA" d="M191.5449219,216.3286133
			c0,0-4.8149414-8.4902344-10.8706055-6.6523438c-6.0556641,1.8300781-2.2177734,20.6557617,4.9082031,22.0209961
			C192.7158203,233.0625,197.2128906,227.4868164,191.5449219,216.3286133z"/>
		<path fill-rule="evenodd" clip-rule="evenodd" fill="#FF8685" d="M181.9536133,213.3208008
			c4.5126953,3.8925781,6.8081055,7.21875,7.7382813,9.6611328c2.1479492,5.6601563-3.0083008,6.5751953-4.7763672-1.3330078
			l1.1787109-0.1943359c1.2094727,6.2490234,4.1479492,5.7451172,2.4423828,1.5888672
			c-0.9072266-2.1933594-3.109375-5.4042969-7.5366211-9.171875L181.9536133,213.3208008z"/>
		<polygon fill-rule="evenodd" clip-rule="evenodd" fill="#3B47BC" points="154.605957,287.3925781 168.0742188,378.7714844 
			179.1313477,378.8320313 164.8251953,282.9726563 		"/>
		<polygon fill-rule="evenodd" clip-rule="evenodd" fill="#3B47BC" points="234.2685547,284.515625 256.5605469,378.390625 
			267.6259766,378.453125 244.7900391,286.9746094 		"/>
		<polygon fill-rule="evenodd" clip-rule="evenodd" fill="#3B47BC" points="130.6386719,379.0273438 130.4526367,452.7890625 
			295.7646484,456.4648438 273.0224609,372.7148438 		"/>
		<path fill-rule="evenodd" clip-rule="evenodd" fill="#FFFFFF" d="M179.4023438,395.3339844
			c2.5820313,0,69.0869141-2.5605469,69.2724609-2.5683594l1.09375-0.0449219l-0.2792969,1.0546875
			c-0.0703125,0.2636719-23.6181641,92.734375-70.7998047,2.7363281l-0.612793-1.1777344H179.4023438L179.4023438,395.3339844z
			 M247.6435547,394.4179688c-8.0253906,0.3105469-57.8896484,2.2246094-66.9072266,2.4960938
			C222.6845703,475.8261719,244.9228516,404.1035156,247.6435547,394.4179688z"/>
		<path fill-rule="evenodd" clip-rule="evenodd" fill="#3B47BC" d="M342.2480469,315.9101563
			c8.8007813,2.4121094,13.1425781,21.0917969,9.6845703,41.7089844S338.5341797,393,329.7333984,390.5800781
			c-8.8085938-2.4121094-18.0664063-19.1601563-14.6074219-39.7851563
			C318.5830078,330.1777344,333.4404297,313.4921875,342.2480469,315.9101563z"/>
		<path fill-rule="evenodd" clip-rule="evenodd" fill="#FF8685" d="M122.0556641,296.8671875
			C82.2705078,317.8339844,6.1049805,404.25,61.7231445,435.7070313
			C117.3486328,467.15625,197.3837891,259.2070313,122.0556641,296.8671875z"/>
		<path fill-rule="evenodd" clip-rule="evenodd" fill="#3B47BC" d="M86.7602539,374.6308594
			c23.4165039-2.5195313,42.3974609,11.1269531,42.3974609,30.4882813s-18.980957,37.09375-42.3974609,39.6132813
			c-23.4165039,2.5292969-42.4057617-11.1269531-42.4057617-30.4882813S63.34375,377.1503906,86.7602539,374.6308594z"/>
		
			<rect x="452.7861328" y="109.3964844" fill-rule="evenodd" clip-rule="evenodd" fill="#B4B1C8" width="12.4296875" height="339.9277344"/>
		<path fill-rule="evenodd" clip-rule="evenodd" fill="#FFFFFF" d="M462.9677734,139.0004883v11.265625
			c0,2.1875-1.7832031,3.9628906-3.9707031,3.9628906l0,0c-2.1787109,0-3.9619141-1.7753906-3.9619141-3.9628906v-11.265625
			c0-2.1865234,1.7832031-3.9702148,3.9619141-3.9702148l0,0
			C461.1845703,135.0302734,462.9677734,136.8139648,462.9677734,139.0004883z"/>
		<path fill-rule="evenodd" clip-rule="evenodd" fill="#FFE1DA" d="M318.28125,362.4414063
			c-1.7216797-10.4375,0.3408203-22.9042969,14.6005859-32.3496094
			c29.7900391-19.7246094,135.6523438,39.1660156,135.6523438,39.1660156l-6.1171875,14.9804688
			c0,0-51.6015625,11.4589844-97.5039063,7.2871094C336.7509766,388.9746094,322.4677734,387.7734375,318.28125,362.4414063z"/>
		<path fill-rule="evenodd" clip-rule="evenodd" fill="#FF8685" d="M467.2392578,372.4121094l-4.8222656,11.8261719
			c0,0-51.6015625,11.4589844-97.5039063,7.2871094c-27.5185547-2.4960938-41.7783203-3.6972656-46.3222656-27.3867188
			c31.4111328,10.6621094,88.6582031,25.6816406,130.6445313,11.4140625
			C457.8271484,372.6289063,463.6181641,371.7539063,467.2392578,372.4121094z"/>
		<path fill-rule="evenodd" clip-rule="evenodd" fill="#FFE1DA" d="M202.0830078,434.9082031
			c0,0,38.3261719-5.8457031,42.1796875-4.1328125c3.8466797,1.7148438,27.8056641,15.0351563,29.7285156,18.5488281
			c1.9228516,3.5039063-77.0029297,2.4335938-77.0029297,2.4335938
			c-23.4863281,2.7597656-117.2841797,12.0195313-135.2651367-13.484375
			c-9.8476563-13.9785156-7.2421875-26.3476563-1.8457031-35.4433594
			c13.1118164-22.0820313,26.8515625-18.0039063,54.0131836-10.1484375
			C158.1728516,405.4824219,202.0830078,434.9082031,202.0830078,434.9082031z"/>
		<path fill-rule="evenodd" clip-rule="evenodd" fill="#FF8685" d="M255.8320313,451.4785156
			c-22.7802734,0.7675781-58.84375,0.2792969-58.84375,0.2792969
			c-23.4863281,2.7597656-117.2841797,12.0195313-135.2651367-13.484375
			c-9.5375977-13.5449219-7.3896484-25.5722656-2.3417969-34.5742188c8.265625,15.59375,28.5263672,36.25,78.003418,37.4433594
			c79.9960938,1.9238281,98.3876953-0.6425781,105.6611328,2.7832031
			C247.3642578,445.9511719,252.4208984,449.1835938,255.8320313,451.4785156z"/>
		<path fill-rule="evenodd" clip-rule="evenodd" fill="#412F2F" d="M235.1835938,200.6743164
			c1.1630859,0.0625,2.4267578,0.0927734,3.8076172,0.0771484c15.8173828-0.2246094,47.9492188-16.1748047,32.7128906-31.6669922
			c-7.8779297-8.0166016-21.3769531-11.0644531-31.3105469-9.7070313c8.4912109,0.5742188,17.8027344,3.7910156,23.828125,9.9169922
			C278.3486328,183.6704102,251.7373047,198.4262695,235.1835938,200.6743164z"/>
		<path fill-rule="evenodd" clip-rule="evenodd" fill="#F8CA7A" d="M118.9150391,313.4609375
			c6.171875,5.0078125,5.3579102,15.5761719-1.8222656,23.6015625c-7.1796875,8.0332031-18.0039063,10.4765625-24.184082,5.4667969
			c-6.171875-5.0078125-5.3579102-15.5761719,1.8222656-23.6015625S112.7353516,308.4511719,118.9150391,313.4609375z"/>
		<path fill-rule="evenodd" clip-rule="evenodd" fill="#FFFFFF" d="M164.1123047,284.46875
			c0.0927734,0.109375,32.9765625,40.4824219,68.8222656-0.4804688l1.2177734,1.0625
			c-37.1025391,42.390625-71.1801758,0.5585938-71.2729492,0.4414063L164.1123047,284.46875z"/>
		
			<rect x="177.0723572" y="332.6024475" transform="matrix(0.0726388 0.9973583 -0.9973583 0.0726388 525.5029907 101.6543579)" fill-rule="evenodd" clip-rule="evenodd" fill="#FFFFFF" width="62.0310516" height="1.6173916"/>
		<path fill-rule="evenodd" clip-rule="evenodd" fill="#FFFFFF" d="M201.7802734,312.0410156
			c1.1240234,0,2.03125-0.9140625,2.03125-2.03125c0-1.1230469-0.9072266-2.03125-2.03125-2.03125
			c-1.1171875,0-2.03125,0.9082031-2.03125,2.03125C199.7490234,311.1269531,200.6630859,312.0410156,201.7802734,312.0410156z"/>
		<path fill-rule="evenodd" clip-rule="evenodd" fill="#FFFFFF" d="M203.0673828,330.8671875
			c1.1162109,0,2.03125-0.9140625,2.03125-2.03125c0-1.1230469-0.9150391-2.03125-2.03125-2.03125
			c-1.1171875,0-2.03125,0.9082031-2.03125,2.03125C201.0361328,329.953125,201.9501953,330.8671875,203.0673828,330.8671875z"/>
		<path fill-rule="evenodd" clip-rule="evenodd" fill="#FFFFFF" d="M203.4931641,349.2675781
			c1.1171875,0,2.0322266-0.9140625,2.0322266-2.0390625c0-1.1171875-0.9150391-2.03125-2.0322266-2.03125
			c-1.1162109,0-2.03125,0.9140625-2.03125,2.03125C201.4619141,348.3535156,202.3769531,349.2675781,203.4931641,349.2675781z"/>
		<path fill-rule="evenodd" clip-rule="evenodd" fill="#FF8685" d="M485.9804688,390.4785156
			c0,0-26.7900391,2.2949219-39.4902344-3.2871094c-11.5683594-5.09375-11.3671875-32.7597656,0.4580078-36.5585938
			c12.9638672-4.15625,46.8554688,9.1953125,46.8554688,9.1953125L485.9804688,390.4785156z"/>
		<g>
			<path fill-rule="evenodd" clip-rule="evenodd" fill="#FF8685" d="M474.0087891,328.2246094
				c-1.3730469-1.4746094-3.6757813-1.5898438-5.140625-0.2636719c-0.4189453,0.3710938-0.7207031,0.828125-0.9150391,1.3164063
				c-4.0712891,6.1738281-13.1201172,11.0195313-14.7636719,11.8652344l-0.0615234,0.0292969l-0.0546875,0.015625
				l-0.015625,0.015625l-0.0546875,0.0234375L452.9648438,341.25l0,0l-0.0234375,0.015625h-0.0078125
				c-0.3642578,0.1933594-0.7060547,0.4335938-1.015625,0.7128906c-2.078125,1.8769531-2.1865234,5.0957031-0.2402344,7.1796875
				c1.6904297,1.8222656,4.3886719,2.1875,6.4277344,1.0019531l0.0234375-0.015625
				c10.1416016-5.296875,16.8408203-17.9355469,16.5927734-18.0976563l0,0
				C475.2412109,330.7988281,475.0087891,329.3007813,474.0087891,328.2246094z"/>
			<path fill-rule="evenodd" clip-rule="evenodd" fill="#FF8685" d="M441.6748047,355.703125
				c-0.3017578,0.3730469-0.5654297,0.7675781-0.7988281,1.1796875l-0.0224609,0.0292969h0.0078125
				c-1.8222656,3.265625-1.4033203,7.4980469,1.3486328,10.4453125c3.4277344,3.6757813,9.1884766,3.9785156,12.8486328,0.6660156
				c1.4111328-1.2714844,2.3027344-2.890625,2.6826172-4.6132813v-0.0078125
				c0.046875-0.2324219,0.0927734-0.4726563,0.1240234-0.7128906l2.4736328-14.390625
				c0.6123047-1.8769531,0.1933594-4.0410156-1.2792969-5.6210938c-2.1796875-2.3339844-5.8232422-2.5292969-8.1494141-0.4277344
				c-0.1630859,0.1484375-0.3173828,0.3105469-0.4658203,0.4726563c-0.2939453,0.3496094-0.5498047,0.7226563-0.7519531,1.1171875
				L441.6748047,355.703125z"/>
		</g>
		<g>
			<path fill-rule="evenodd" clip-rule="evenodd" fill="#9E8A7A" d="M493.5869141,294.7988281
				c10.7539063,2.3652344,17.5625,13.0019531,15.1972656,23.765625
				c-2.3652344,10.7617188-13.0029297,17.5703125-23.765625,15.1972656
				c-10.7617188-2.3652344-17.5625-13.0039063-15.1972656-23.765625S482.8251953,292.4257813,493.5869141,294.7988281z"/>
			<g>
				<defs>
					<polygon id="SVGID_1_" points="467.0380859,315.9726563 467.4951172,411.5703125 508.9238281,325.5097656 					"/>
				</defs>
				<use xlink:href="#SVGID_1_"  overflow="visible" fill-rule="evenodd" clip-rule="evenodd" fill="#F8CA7A"/>
				<clipPath id="SVGID_2_">
					<use xlink:href="#SVGID_1_"  overflow="visible"/>
				</clipPath>
				<path opacity="0.2" clip-path="url(#SVGID_2_)" fill-rule="evenodd" clip-rule="evenodd" fill="#281616" d="
					M456.7119141,387.7636719l11.9414063,10.6230469L483.9443359,393.75l0.4648438,1.5429688l-14.3447266,4.3496094
					l11.5380859,10.265625l-1.0703125,1.2089844L468.25,400.1933594l-15.7246094,4.7675781l-0.4658203-1.5507813
					l14.7792969-4.4804688l-11.2041016-9.9648438L456.7119141,387.7636719L456.7119141,387.7636719z M495.3037109,373.2167969
					l-0.4736328-1.5507813l-21.7568359,6.5996094l-16.9960938-15.1210938l-1.0703125,1.2109375l16.2519531,14.4609375
					l-18.3066406,5.5429688l0.4648438,1.5507813l19.2597656-5.8378906l15.0273438,13.375l1.078125-1.2089844l-14.2988281-12.7167969
					L495.3037109,373.2167969z"/>
				<path opacity="0.2" clip-path="url(#SVGID_2_)" fill-rule="evenodd" clip-rule="evenodd" fill="#281616" d="
					M466.7119141,347.7636719l11.9414063,10.6230469L493.9443359,353.75l0.4648438,1.5429688l-14.3447266,4.3496094
					l11.5380859,10.265625l-1.0703125,1.2089844L478.25,360.1933594l-15.7246094,4.7675781l-0.4658203-1.5507813
					l14.7792969-4.4804688l-11.2041016-9.9648438L466.7119141,347.7636719L466.7119141,347.7636719z M505.3037109,333.2167969
					l-0.4736328-1.5507813l-21.7568359,6.5996094l-16.9960938-15.1210938l-1.0703125,1.2109375l16.2519531,14.4609375
					l-18.3066406,5.5429688l0.4648438,1.5507813l19.2597656-5.8378906l15.0273438,13.375l1.078125-1.2089844l-14.2988281-12.7167969
					L505.3037109,333.2167969z"/>
			</g>
		</g>
		<path fill-rule="evenodd" clip-rule="evenodd" fill="#FFD3CA" d="M480.5917969,351.0117188
			c-0.0693359,2.3496094,1.8144531,4.3125,4.2099609,4.3808594l20.8417969,1.4042969h0.015625l0.0703125,0.0078125
			l0.1933594,0.0078125c2.7841797,0.0761719,5.1181641-2.1171875,5.203125-4.9082031
			c0.078125-2.7910156-2.1171875-5.125-4.9082031-5.203125h-0.2011719h-0.0625h-0.015625l-20.8886719,0.1777344
			C482.6542969,346.8105469,480.6611328,348.6621094,480.5917969,351.0117188z"/>
		<path fill-rule="evenodd" clip-rule="evenodd" fill="#FFD3CA" d="M472.2568359,358.2773438
			c-0.6289063,2.2636719,0.7285156,4.6289063,3.03125,5.2734375l19.8886719,6.3808594l0.0234375,0.0078125l0.0537109,0.0234375
			l0.1865234,0.0546875c2.6904297,0.7519531,5.4824219-0.8222656,6.234375-3.5136719
			c0.7519531-2.6894531-0.8144531-5.4824219-3.5058594-6.234375l-0.1933594-0.0449219l-0.0625-0.015625h-0.015625
			l-20.3144531-4.8632813C475.2802734,354.703125,472.8916016,356.0136719,472.2568359,358.2773438z"/>
		<path fill-rule="evenodd" clip-rule="evenodd" fill="#FFD3CA" d="M471.5429688,364.4570313
			c-0.9697266,2.140625,0.015625,4.6835938,2.1943359,5.6757813l18.671875,9.3515625l0.0224609,0.0078125l0.0537109,0.03125
			l0.1796875,0.0839844c2.5429688,1.15625,5.5351563,0.0234375,6.6914063-2.5117188
			c1.1542969-2.5507813,0.0302734-5.5429688-2.5126953-6.6992188l-0.1787109-0.078125l-0.0615234-0.0214844l-0.015625-0.0078125
			l-19.3310547-7.9179688C475.0791016,361.3867188,472.5205078,362.3164063,471.5429688,364.4570313z"/>
		<path fill-rule="evenodd" clip-rule="evenodd" fill="#FFD3CA" d="M468.3564453,386.7421875
			c-0.1474609,2.2792969,1.3486328,4.2636719,3.3261719,4.4355469l17.2050781,2.2480469h0.015625l0.0546875,0.0078125
			l0.1552734,0.015625c2.3105469,0.2011719,4.3193359-1.8300781,4.4892578-4.5371094
			c0.1699219-2.7050781-1.5664063-5.0625-3.8769531-5.2636719l-0.1621094-0.0078125h-0.046875h-0.015625l-17.2988281-0.7128906
			C470.2177734,382.7558594,468.4951172,384.4628906,468.3564453,386.7421875z"/>
		<path fill-rule="evenodd" clip-rule="evenodd" fill="#FFFFFF" d="M359.8417969,109.7294922h-39.4208984v19.5239258
			c0,10.7392578,8.7773438,19.5244141,19.5166016,19.5244141h0.3798828c10.7392578,0,19.5244141-8.7851563,19.5244141-19.5244141
			V109.7294922z"/>
		<path fill-rule="evenodd" clip-rule="evenodd" fill="#FF8685" d="M320.4208984,109.7294922h-39.4277344v19.5239258
			c0,10.7392578,8.7851563,19.5244141,19.5234375,19.5244141h0.3808594c10.7382813,0,19.5234375-8.7851563,19.5234375-19.5244141
			V109.7294922z"/>
		<path fill-rule="evenodd" clip-rule="evenodd" fill="#FFFFFF" d="M280.9931641,109.7294922h-39.4199219v19.5239258
			c0,10.7392578,8.7851563,19.5244141,19.5234375,19.5244141h0.3798828c10.7392578,0,19.5166016-8.7851563,19.5166016-19.5244141
			V109.7294922z"/>
		<path fill-rule="evenodd" clip-rule="evenodd" fill="#FFFFFF" d="M437.9931641,109.7294922h-39.4199219v19.5239258
			c0,10.7392578,8.7851563,19.5244141,19.5234375,19.5244141h0.3798828c10.7392578,0,19.5166016-8.7851563,19.5166016-19.5244141
			V109.7294922z"/>
		<path fill-rule="evenodd" clip-rule="evenodd" fill="#F8CA7A" d="M241.5732422,109.7294922h-39.4130859v19.5239258
			c0,10.7392578,8.7773438,19.5244141,19.5166016,19.5244141h0.3789063c10.7402344,0,19.5175781-8.7851563,19.5175781-19.5244141
			V109.7294922z"/>
		<path fill-rule="evenodd" clip-rule="evenodd" fill="#F8CA7A" d="M399.5732422,109.7294922h-39.4130859v19.5239258
			c0,10.7392578,8.7773438,19.5244141,19.5166016,19.5244141h0.3789063c10.7402344,0,19.5175781-8.7851563,19.5175781-19.5244141
			V109.7294922z"/>
		<path fill-rule="evenodd" clip-rule="evenodd" fill="#FF8685" d="M162.7319336,109.7294922h-39.4204102v19.5239258
			c0,10.7392578,8.7851563,19.5244141,19.5239258,19.5244141h0.3803711c10.7387695,0,19.5161133-8.7851563,19.5161133-19.5244141
			V109.7294922z"/>
		<path fill-rule="evenodd" clip-rule="evenodd" fill="#FFFFFF" d="M123.3115234,109.7294922H83.8911133v19.5239258
			c0,10.7392578,8.7851563,19.5244141,19.5239258,19.5244141h0.3798828c10.7392578,0,19.5166016-8.7851563,19.5166016-19.5244141
			V109.7294922z"/>
		<path fill-rule="evenodd" clip-rule="evenodd" fill="#FFFFFF" d="M202.3115234,109.7294922h-39.4204102v19.5239258
			c0,10.7392578,8.7851563,19.5244141,19.5239258,19.5244141h0.3798828c10.7392578,0,19.5166016-8.7851563,19.5166016-19.5244141
			V109.7294922z"/>
		<path fill-rule="evenodd" clip-rule="evenodd" fill="#F8CA7A" d="M83.8911133,109.7294922H44.4707031v19.5239258
			c0,10.7392578,8.7851563,19.5244141,19.5244141,19.5244141H64.375c10.7387695,0,19.5161133-8.7851563,19.5161133-19.5244141
			V109.7294922z"/>
		<path fill-rule="evenodd" clip-rule="evenodd" fill="#FFFFFF" d="M44.4707031,109.7294922H5.050293v19.5239258
			c0,10.7392578,8.7851563,19.5244141,19.5239258,19.5244141h0.3803711c10.7387695,0,19.5161133-8.7851563,19.5161133-19.5244141
			V109.7294922z"/>
		<path fill-rule="evenodd" clip-rule="evenodd" fill="#FF8685" d="M5.050293,109.7294922h-39.4204102v19.5239258
			c0,10.7392578,8.7851563,19.5244141,19.5244141,19.5244141h0.3798828c10.7387695,0,19.5161133-8.7851563,19.5161133-19.5244141
			V109.7294922z"/>
		<g>
			<path fill-rule="evenodd" clip-rule="evenodd" fill="#FF8685" d="M588.0283203,437.6855469
				c0.9462891-1.3261719,2.7832031-1.6679688,4.1015625-0.7597656c0.3730469,0.2636719,0.6669922,0.5878906,0.8691406,0.9609375
				c3.9228516,4.5351563,11.7158203,7.4589844,13.1191406,7.9628906l0.0625,0.0234375l0.0380859,0.0078125l0.015625,0.0078125
				l0.0458984,0.015625l0.03125,0.015625h0.0078125l0.015625,0.0078125h0.0078125
				c0.3105469,0.1152344,0.6132813,0.2714844,0.8925781,0.4648438c1.8681641,1.2871094,2.2949219,3.8613281,0.953125,5.7460938
				c-1.1630859,1.6425781-3.2949219,2.2167969-5.0556641,1.4882813l-0.0224609-0.015625
				c-8.7158203-3.1796875-15.4306641-12.6152344-15.2519531-12.7792969l0,0
				C587.3076172,439.8867188,587.3310547,438.6542969,588.0283203,437.6855469z"/>
			<path fill-rule="evenodd" clip-rule="evenodd" fill="#FF8685" d="M616.9189453,456.3320313
				c0.2871094,0.2636719,0.5429688,0.5507813,0.7675781,0.8613281l0.0234375,0.0234375h-0.0078125
				c1.8144531,2.4335938,1.9238281,5.8769531,0.03125,8.5371094c-2.3652344,3.3183594-6.9628906,4.171875-10.2578125,1.8984375
				c-1.2646484-0.875-2.15625-2.0761719-2.6445313-3.4257813l0,0c-0.0625-0.1875-0.1240234-0.3730469-0.1708984-0.5585938
				l-3.5205078-11.296875c-0.6894531-1.4511719-0.5810547-3.234375,0.4345703-4.6601563
				c1.4970703-2.109375,4.4121094-2.6445313,6.4980469-1.2109375c0.1474609,0.109375,0.2861328,0.21875,0.4189453,0.3339844
				c0.2792969,0.2480469,0.5273438,0.5195313,0.7285156,0.8144531L616.9189453,456.3320313z"/>
		</g>
		<g>
			<polygon fill-rule="evenodd" clip-rule="evenodd" fill="#7E89FD" points="503.4736328,427.8691406 601.3037109,400.7539063 
				613.7861328,445.8027344 515.9570313,472.9179688 			"/>
			<path fill-rule="evenodd" clip-rule="evenodd" fill="#FFFFFF" d="M554.625,422.3867188
				c7.9785156-2.2109375,16.2441406,2.4648438,18.4541016,10.4433594
				c2.2099609,7.9804688-2.4658203,16.2441406-10.4443359,18.4550781
				c-7.9785156,2.2089844-16.2363281-2.4667969-18.4462891-10.4453125
				C541.9707031,432.8613281,546.6464844,424.6035156,554.625,422.3867188z"/>
			<path fill-rule="evenodd" clip-rule="evenodd" fill="#FFFFFF" d="M516.0732422,427.3808594l74.9863281-20.7890625
				l0.2255859,0.8144531c0.4033203,1.4257813,1.3486328,2.5742188,2.5507813,3.2558594
				c1.2099609,0.6835938,2.6748047,0.9082031,4.1025391,0.5117188l0.8134766-0.2246094L606.3505859,438.375l-0.8144531,0.2246094
				c-1.4257813,0.4042969-2.5664063,1.3496094-3.2480469,2.5507813c-0.6826172,1.203125-0.9082031,2.6757813-0.5117188,4.1015625
				l0.2246094,0.8144531l-75.8085938,21.0136719l-0.2255859-0.8144531
				c-0.3955078-1.4355469-1.3408203-2.5742188-2.5429688-3.2578125c-1.2099609-0.6738281-2.6748047-0.90625-4.1025391-0.5117188
				l-0.8134766,0.2265625l-7.5986328-27.4257813l0.8144531-0.2246094c1.4257813-0.3964844,2.5664063-1.3496094,3.2480469-2.5507813
				c0.6826172-1.2109375,0.9082031-2.6757813,0.5117188-4.1015625l-0.2246094-0.8144531L516.0732422,427.3808594
				L516.0732422,427.3808594z M589.9365234,408.6542969l-72.6542969,20.1367188
				c0.2480469,1.6054688-0.0771484,3.2109375-0.8447266,4.5585938c-0.7597656,1.3496094-1.9697266,2.4511719-3.4658203,3.0722656
				l6.7226563,24.2753906c1.6054688-0.2402344,3.2021484,0.0859375,4.5507813,0.8457031
				c1.3574219,0.7597656,2.4589844,1.9628906,3.078125,3.4746094l72.6464844-20.1367188
				c-0.2402344-1.6132813,0.0849609-3.2109375,0.8525391-4.5605469c0.7597656-1.3476563,1.9619141-2.4492188,3.4658203-3.0703125
				l-6.7226563-24.2773438c-1.6123047,0.2480469-3.2099609-0.0761719-4.5585938-0.84375
				C591.6572266,411.3613281,590.5556641,410.1582031,589.9365234,408.6542969z"/>
			<path fill-rule="evenodd" clip-rule="evenodd" fill="#7E89FD" d="M556.8974609,425.6035156l0.3173828,1.140625
				l3.9619141-1.1015625l0.6367188,2.2714844l-3.9707031,1.1015625l1.7519531,6.328125l0.2402344-0.0625
				c1.4970703-0.4179688,3.0244141-0.1855469,4.28125,0.5273438c1.2558594,0.7128906,2.2480469,1.90625,2.6591797,3.4042969
				c0.4189453,1.4960938,0.1865234,3.0234375-0.5273438,4.2792969s-1.8994141,2.2480469-3.3955078,2.6601563l-0.2412109,0.0703125
				l0.4736328,1.7050781l-2.2724609,0.6269531l-0.4726563-1.7050781l-4.2568359,1.1796875l-0.6367188-2.2734375l4.265625-1.1777344
				L557.9521484,438.25l-0.5273438,0.140625c-1.4970703,0.4179688-3.0244141,0.1855469-4.28125-0.5273438
				c-1.2558594-0.7128906-2.2480469-1.9003906-2.6591797-3.3964844c-0.4189453-1.5039063-0.1787109-3.03125,0.5273438-4.2871094
				c0.7138672-1.2558594,1.9072266-2.25,3.4033203-2.6601563l0.5273438-0.1464844l-0.3173828-1.140625L556.8974609,425.6035156
				L556.8974609,425.6035156z M560.2314453,437.6152344l1.7519531,6.3339844l0.2324219-0.0683594
				c0.8691406-0.2402344,1.5664063-0.8144531,1.9775391-1.5429688c0.4111328-0.7382813,0.5498047-1.6289063,0.3095703-2.4980469
				c-0.2402344-0.8671875-0.8134766-1.5664063-1.5429688-1.9765625c-0.7363281-0.4101563-1.6279297-0.5507813-2.4960938-0.3105469
				L560.2314453,437.6152344L560.2314453,437.6152344z M557.3232422,435.9785156l-1.7519531-6.3339844l-0.5273438,0.1464844
				c-0.8691406,0.2402344-1.5585938,0.8144531-1.9775391,1.5507813c-0.4111328,0.7285156-0.5498047,1.6210938-0.3095703,2.4902344
				c0.2402344,0.8671875,0.8134766,1.5644531,1.5507813,1.9765625c0.7285156,0.4179688,1.6201172,0.5507813,2.4882813,0.3183594
				L557.3232422,435.9785156z"/>
			<path fill-rule="evenodd" clip-rule="evenodd" fill="#9CA4FF" d="M583.1201172,421.890625
				c4.1875-1.15625,8.5136719,1.2949219,9.6767578,5.4746094c1.1552734,4.1855469-1.2949219,8.5214844-5.4736328,9.6757813
				c-4.1875,1.1640625-8.5214844-1.2871094-9.6777344-5.4746094
				C576.4833984,427.3808594,578.9404297,423.0527344,583.1201172,421.890625z"/>
			<path fill-rule="evenodd" clip-rule="evenodd" fill="#9CA4FF" d="M528.4951172,437.0332031
				c4.1865234-1.1621094,8.5136719,1.2871094,9.6757813,5.4746094c1.15625,4.1875-1.2949219,8.5136719-5.4736328,9.6757813
				c-4.1865234,1.15625-8.5136719-1.2949219-9.6767578-5.4726563
				C521.8574219,442.5234375,524.3154297,438.1894531,528.4951172,437.0332031z"/>
		</g>
		<path fill-rule="evenodd" clip-rule="evenodd" fill="#FFD3CA" d="M573.4746094,477.5546875
			c0,0,21.5478516,13.0644531,33.3330078,12.7714844c10.7402344-0.2792969,19.6015625-25.3945313,11.2597656-31.9082031
			c-9.1582031-7.15625-34.5048828-9.4355469-34.5048828-9.4355469L573.4746094,477.5546875z"/>
		<path fill-rule="evenodd" clip-rule="evenodd" fill="#FFD3CA" d="M591.4091797,449.9980469l0.2636719,0.078125
			c2.1787109,0.7285156,3.3105469,3.078125,2.5351563,5.2558594c-0.7832031,2.1796875-3.1787109,3.3574219-5.3574219,2.6367188
			l-0.2558594-0.09375l-36.4121094-13.4140625c-0.2792969-0.0996094-0.5429688-0.1933594-0.7910156-0.3320313
			c-1.2089844-0.6757813-1.7832031-2.1171875-1.3027344-3.4511719c0.5195313-1.4570313,2.109375-2.2636719,3.5976563-1.8769531
			c0.0703125,0.0234375,0.125,0.0390625,0.1943359,0.0546875L591.4091797,449.9980469z"/>
		<path fill-rule="evenodd" clip-rule="evenodd" fill="#FFD3CA" d="M561.3857422,453.9296875
			c-0.5419922,1.8300781,0.5273438,3.7597656,2.3886719,4.3105469l16.0351563,5.4199219h0.015625l0.046875,0.015625
			l0.1542969,0.0546875c2.171875,0.6425781,4.4511719-0.5976563,5.09375-2.7695313
			c0.6445313-2.1699219-0.5957031-4.4492188-2.7675781-5.09375l-0.1542969-0.046875l-0.046875-0.0078125h-0.015625
			l-16.3994141-4.1933594C563.8759766,451.0683594,561.9208984,452.0996094,561.3857422,453.9296875z"/>
		<path fill-rule="evenodd" clip-rule="evenodd" fill="#FFD3CA" d="M560.7275391,458.921875
			c-0.8144531,1.7304688-0.0546875,3.8007813,1.7050781,4.6289063l15.0117188,7.8085938l0.015625,0.0078125l0.046875,0.0234375
			l0.1386719,0.078125c2.0478516,0.9609375,4.4902344,0.0839844,5.4589844-1.9550781
			c0.9697266-2.046875,0.09375-4.4882813-1.953125-5.4589844l-0.140625-0.0683594l-0.0458984-0.0234375h-0.015625
			l-15.5693359-6.6523438C563.6279297,456.4804688,561.5419922,457.2089844,560.7275391,458.921875z"/>
		
			<rect x="-62.2836914" y="449.3242188" fill-rule="evenodd" clip-rule="evenodd" fill="#3B47BC" width="542.8979492" height="9.8457031"/>
	</g>
</g>
</svg>
