<?xml version="1.0" encoding="utf-8"?>
<!-- Generator: Adobe Illustrator 16.0.0, SVG Export Plug-In . SVG Version: 6.00 Build 0)  -->
<!DOCTYPE svg PUBLIC "-//W3C//DTD SVG 1.1//EN" "http://www.w3.org/Graphics/SVG/1.1/DTD/svg11.dtd">
<svg version="1.1" id="Layer_1" xmlns="http://www.w3.org/2000/svg" xmlns:xlink="http://www.w3.org/1999/xlink" x="0px" y="0px"
	 width="36px" height="36px" viewBox="0 0 36 36" enable-background="new 0 0 36 36" xml:space="preserve">
<rect x="6" y="6" display="none" fill="#FF5EF4" width="24" height="24"/>
<g id="Page-1_3_">
	<g id="_x30_12---Cross-Platform-Chat_3_">
		<g>
			<path id="Shape_20_" fill="#4B80FF" d="M24.3242188,29.0263672c-0.2216797,0-0.2158203,0.1347656-0.3837891-0.0273438
				l-6.1396484-5.796875h-7.1181641c-2.0263672,0-3.6660156-1.8046875-3.6660156-4.03125v-8.0620117
				c0-2.2270508,1.6396484-4.0317383,3.6660156-4.0317383h14.6669922c2.0263672,0,3.6669922,1.8046875,3.6669922,4.0317383
				v8.0620117c0,2.2265625-1.640625,4.03125-3.6669922,4.03125h-0.5644531l0.0058594,4.9121094
				c0.0322266,0.2890625-0.046875,0.5761719-0.2226563,0.7929688
				C24.3964844,29.1240234,24.5869141,29.0263672,24.3242188,29.0263672z"/>
			<path id="Shape_19_" fill="#FFFFFF" d="M13.4316406,14.1318359h-1.8320313c-0.5068359,0-0.9169922-0.4501953-0.9169922-1.0073242
				c0-0.5576172,0.4101563-1.0083008,0.9169922-1.0083008h1.8320313c0.5078125,0,0.9189453,0.4506836,0.9189453,1.0083008
				C14.3505859,13.6816406,13.9394531,14.1318359,13.4316406,14.1318359z"/>
			<path id="Shape_18_" fill="#FFFFFF" d="M24.4306641,14.1318359h-7.3320313c-0.5068359,0-0.9179688-0.4501953-0.9179688-1.0073242
				c0-0.5576172,0.4111328-1.0083008,0.9179688-1.0083008h7.3320313c0.5097656,0,0.9189453,0.4506836,0.9189453,1.0083008
				C25.3496094,13.6816406,24.9404297,14.1318359,24.4306641,14.1318359z"/>
			<path id="Shape_17_" fill="#FFFFFF" d="M24.4306641,18.7163086h-1.8300781c-0.5078125,0-0.9169922-0.4511719-0.9169922-1.0068359
				c0-0.5576172,0.4091797-1.0078125,0.9169922-1.0078125h1.8300781c0.5097656,0,0.9189453,0.4501953,0.9189453,1.0078125
				C25.3496094,18.2651367,24.9404297,18.7163086,24.4306641,18.7163086z"/>
			<path id="Shape_16_" fill="#FFFFFF" d="M18.9316406,18.7163086h-7.3320313c-0.5068359,0-0.9169922-0.4511719-0.9169922-1.0068359
				c0-0.5576172,0.4101563-1.0078125,0.9169922-1.0078125h7.3320313c0.5078125,0,0.9179688,0.4501953,0.9179688,1.0078125
				C19.8496094,18.2651367,19.4394531,18.7163086,18.9316406,18.7163086z"/>
		</g>
	</g>
</g>
</svg>
