<?xml version="1.0" encoding="utf-8"?>
<!-- Generator: Adobe Illustrator 16.0.0, SVG Export Plug-In . SVG Version: 6.00 Build 0)  -->
<!DOCTYPE svg PUBLIC "-//W3C//DTD SVG 1.1//EN" "http://www.w3.org/Graphics/SVG/1.1/DTD/svg11.dtd">
<svg version="1.1" id="Layer_2_copy_14" xmlns="http://www.w3.org/2000/svg" xmlns:xlink="http://www.w3.org/1999/xlink" x="0px"
	 y="0px" width="250px" height="250px" viewBox="0 0 250 250" enable-background="new 0 0 250 250" xml:space="preserve">
<g opacity="0.1">
	<g>
		<g>
			<polygon points="363.8544922,277.4179688 293.2363281,253.8779297 222.6181641,277.4179688 152,253.8779297 
				81.3818359,277.4179688 10.7617188,253.8779297 -59.8564453,277.4179688 -132.6201172,253.1640625 -128.3295898,240.2900391 
				-59.8564453,263.1132813 10.7617188,239.5742188 81.3818359,263.1132813 152,239.5742188 222.6181641,263.1132813 
				293.2363281,239.5742188 363.8544922,263.1132813 432.3271484,240.2900391 436.6201172,253.1640625 			"/>
		</g>
		<g>
			<polygon points="363.8544922,250.9365234 293.2363281,227.3964844 222.6181641,250.9365234 152,227.3964844 
				81.3818359,250.9365234 10.7617188,227.3964844 -59.8564453,250.9365234 -132.6201172,226.6796875 -128.3295898,213.8085938 
				-59.8564453,236.6308594 10.7617188,213.0917969 81.3818359,236.6308594 152,213.0917969 222.6181641,236.6308594 
				293.2363281,213.0917969 363.8544922,236.6308594 432.3271484,213.8085938 436.6201172,226.6796875 			"/>
		</g>
		<g>
			<polygon points="363.8544922,224.4550781 293.2363281,200.9140625 222.6181641,224.4550781 152,200.9140625 
				81.3818359,224.4550781 10.7617188,200.9140625 -59.8564453,224.4550781 -132.6201172,200.1982422 -128.3295898,187.3261719 
				-59.8564453,210.1494141 10.7617188,186.6113281 81.3818359,210.1494141 152,186.6113281 222.6181641,210.1494141 
				293.2363281,186.6113281 363.8544922,210.1494141 432.3271484,187.3261719 436.6201172,200.1982422 			"/>
		</g>
		<g>
			<polygon points="363.8544922,197.9707031 293.2363281,174.4326172 222.6181641,197.9707031 152,174.4326172 
				81.3818359,197.9707031 10.7617188,174.4326172 -59.8564453,197.9707031 -132.6201172,173.7167969 -128.3295898,160.8447266 
				-59.8564453,183.6679688 10.7617188,160.1289063 81.3818359,183.6679688 152,160.1289063 222.6181641,183.6679688 
				293.2363281,160.1289063 363.8544922,183.6679688 432.3271484,160.8447266 436.6201172,173.7167969 			"/>
		</g>
		<g>
			<polygon points="363.8544922,171.4912109 293.2363281,147.9511719 222.6181641,171.4912109 152,147.9511719 
				81.3818359,171.4912109 10.7617188,147.9511719 -59.8564453,171.4912109 -132.6201172,147.234375 -128.3295898,134.3632813 
				-59.8564453,157.1855469 10.7617188,133.6464844 81.3818359,157.1855469 152,133.6464844 222.6181641,157.1855469 
				293.2363281,133.6464844 363.8544922,157.1855469 432.3271484,134.3632813 436.6201172,147.234375 			"/>
		</g>
		<g>
			<polygon points="363.8544922,145.0078125 293.2363281,121.46875 222.6181641,145.0078125 152,121.46875 81.3818359,145.0078125 
				10.7617188,121.46875 -59.8564453,145.0078125 -132.6201172,120.7529297 -128.3295898,107.8798828 -59.8564453,130.7041016 
				10.7617188,107.1640625 81.3818359,130.7041016 152,107.1640625 222.6181641,130.7041016 293.2363281,107.1640625 
				363.8544922,130.7041016 432.3271484,107.8798828 436.6201172,120.7529297 			"/>
		</g>
		<g>
			<polygon points="363.8544922,118.5263672 293.2363281,94.9868164 222.6181641,118.5263672 152,94.9868164 
				81.3818359,118.5263672 10.7617188,94.9868164 -59.8564453,118.5263672 -132.6201172,94.2709961 -128.3295898,81.3979492 
				-59.8564453,104.222168 10.7617188,80.6826172 81.3818359,104.222168 152,80.6826172 222.6181641,104.222168 
				293.2363281,80.6826172 363.8544922,104.222168 432.3271484,81.3979492 436.6201172,94.2709961 			"/>
		</g>
		<g>
			<polygon points="363.8544922,92.0439453 293.2363281,68.5048828 222.6181641,92.0439453 152,68.5048828 81.3818359,92.0439453 
				10.7617188,68.5048828 -59.8564453,92.0439453 -132.6201172,67.7890625 -128.3295898,54.9160156 -59.8564453,77.7402344 
				10.7617188,54.2006836 81.3818359,77.7402344 152,54.2006836 222.6181641,77.7402344 293.2363281,54.2006836 
				363.8544922,77.7402344 432.3271484,54.9160156 436.6201172,67.7890625 			"/>
		</g>
		<g>
			<polygon points="363.8544922,65.5620117 293.2363281,42.0234375 222.6181641,65.5620117 152,42.0234375 81.3818359,65.5620117 
				10.7617188,42.0234375 -59.8564453,65.5620117 -132.6201172,41.3076172 -128.3295898,28.4335938 -59.8564453,51.2583008 
				10.7617188,27.71875 81.3818359,51.2583008 152,27.71875 222.6181641,51.2583008 293.2363281,27.71875 363.8544922,51.2583008 
				432.3271484,28.4335938 436.6201172,41.3076172 			"/>
		</g>
		<g>
			<polygon points="363.8544922,39.0800781 293.2363281,15.5405273 222.6181641,39.0800781 152,15.5405273 81.3818359,39.0800781 
				10.7617188,15.5405273 -59.8564453,39.0800781 -132.6201172,14.824707 -128.3295898,1.9516602 -59.8564453,24.7758789 
				10.7617188,1.2358398 81.3818359,24.7758789 152,1.2358398 222.6181641,24.7758789 293.2363281,1.2358398 
				363.8544922,24.7758789 432.3271484,1.9516602 436.6201172,14.824707 			"/>
		</g>
		<g>
			<polygon points="363.8544922,12.5981445 293.2363281,-10.9414063 222.6181641,12.5981445 152,-10.9414063 81.3818359,12.5981445 
				10.7617188,-10.9414063 -59.8564453,12.5981445 -132.6201172,-11.6572266 -128.3295898,-24.5302734 -59.8564453,-1.7060547 
				10.7617188,-25.2460938 81.3818359,-1.7060547 152,-25.2460938 222.6181641,-1.7060547 293.2363281,-25.2460938 
				363.8544922,-1.7060547 432.3271484,-24.5302734 436.6201172,-11.6572266 			"/>
		</g>
	</g>
</g>
</svg>
