<?xml version="1.0" encoding="utf-8"?>
<!-- Generator: Adobe Illustrator 16.0.0, SVG Export Plug-In . SVG Version: 6.00 Build 0)  -->
<!DOCTYPE svg PUBLIC "-//W3C//DTD SVG 1.1//EN" "http://www.w3.org/Graphics/SVG/1.1/DTD/svg11.dtd">
<svg version="1.1" id="Layer_2_copy_14" xmlns="http://www.w3.org/2000/svg" xmlns:xlink="http://www.w3.org/1999/xlink" x="0px"
	 y="0px" width="250px" height="250px" viewBox="0 0 250 250" enable-background="new 0 0 250 250" xml:space="preserve">
<g opacity="0.1">
	<g>
		<g>
			
				<rect x="247.5543823" y="225.1483154" transform="matrix(0.7071068 0.7071068 -0.7071068 0.7071068 253.0910797 -102.5501099)" width="5.5601797" height="58.1692009"/>
		</g>
		<g>
			
				<rect x="237.6901245" y="201.3347168" transform="matrix(0.7071068 0.7071068 -0.7071068 0.7071068 243.2271729 -98.4640503)" width="5.5601797" height="86.06884"/>
		</g>
		<g>
			
				<rect x="227.826355" y="177.5206299" transform="matrix(0.7071068 0.7071068 -0.7071068 0.7071068 233.3630524 -94.378479)" width="5.5601797" height="113.9684906"/>
		</g>
		<g>
			
				<rect x="217.9624481" y="153.7065582" transform="matrix(0.7070189 0.7071946 -0.7071946 0.7070189 223.5379181 -90.2922363)" width="5.5594888" height="141.8681335"/>
		</g>
		<g>
			
				<rect x="208.0983276" y="129.8929749" transform="matrix(0.7071068 0.7071068 -0.7071068 0.7071068 213.635025 -86.2068481)" width="5.5601797" height="169.7677765"/>
		</g>
		<g>
			
				<rect x="198.2340698" y="106.078537" transform="matrix(0.7071068 0.7071068 -0.7071068 0.7071068 203.7707672 -82.1209717)" width="5.5601797" height="197.6681213"/>
		</g>
		<g>
			
				<rect x="188.3703003" y="82.2652969" transform="matrix(0.7071068 0.7071068 -0.7071068 0.7071068 193.9069977 -78.0352783)" width="5.5601797" height="225.5670624"/>
		</g>
		<g>
			
				<rect x="178.5053101" y="58.4511871" transform="matrix(0.7071068 0.7071068 -0.7071068 0.7071068 184.0428619 -73.9486694)" width="5.5601797" height="253.4677429"/>
		</g>
		<g>
			
				<rect x="168.6415405" y="34.6371002" transform="matrix(0.7071068 0.7071068 -0.7071068 0.7071068 174.178772 -69.8631287)" width="5.5601797" height="281.3674011"/>
		</g>
		<g>
			
				<rect x="158.7774506" y="10.8228455" transform="matrix(0.7070628 0.7071507 -0.7071507 0.7070628 164.3288574 -65.7770386)" width="5.559834" height="309.267395"/>
		</g>
		<g>
			
				<rect x="148.9135132" y="-12.9905548" transform="matrix(0.7071068 0.7071068 -0.7071068 0.7071068 154.4507446 -61.6914978)" width="5.5601797" height="337.1666565"/>
		</g>
		<g>
			
				<rect x="139.0494995" y="-36.8039703" transform="matrix(0.7071068 0.7071068 -0.7071068 0.7071068 144.5868835 -57.6056213)" width="5.5601797" height="365.0659485"/>
		</g>
		<g>
			
				<rect x="129.1854095" y="-60.6182404" transform="matrix(0.7070628 0.7071507 -0.7071507 0.7070628 134.7344055 -53.5195313)" width="5.559834" height="392.9659729"/>
		</g>
		<g>
			
				<rect x="119.321228" y="-84.432251" transform="matrix(0.7071068 0.7071068 -0.7071068 0.7071068 124.8586197 -49.4338989)" width="5.5601797" height="420.8659668"/>
		</g>
		<g>
			
				<rect x="109.4574585" y="-80.3466797" transform="matrix(0.7071068 0.7071068 -0.7071068 0.7071068 114.9945068 -45.3483429)" width="5.5601797" height="392.9663086"/>
		</g>
		<g>
			
				<rect x="99.5932007" y="-76.2606201" transform="matrix(0.7071068 0.7071068 -0.7071068 0.7071068 105.1305923 -41.2622986)" width="5.5601797" height="365.0666504"/>
		</g>
		<g>
			
				<rect x="89.7297745" y="-72.1753998" transform="matrix(0.7071946 0.707019 -0.707019 0.7071946 95.2498856 -37.177063)" width="5.5594888" height="337.1676941"/>
		</g>
		<g>
			
				<rect x="79.8651733" y="-68.0890198" transform="matrix(0.7071068 0.7071068 -0.7071068 0.7071068 85.402565 -33.0906754)" width="5.5601797" height="309.267395"/>
		</g>
		<g>
			
				<rect x="70.0012589" y="-64.0034485" transform="matrix(0.7071946 0.707019 -0.707019 0.7071946 75.5251846 -29.0051117)" width="5.5594888" height="281.3677368"/>
		</g>
		<g>
			
				<rect x="60.137146" y="-59.9173889" transform="matrix(0.7071068 0.7071068 -0.7071068 0.7071068 65.6745377 -24.9190598)" width="5.5601797" height="253.4680786"/>
		</g>
		<g>
			
				<rect x="50.2728882" y="-55.8314819" transform="matrix(0.7071068 0.7071068 -0.7071068 0.7071068 55.8102798 -20.8331528)" width="5.5601797" height="225.567749"/>
		</g>
		<g>
			
				<rect x="40.4091187" y="-51.7457733" transform="matrix(0.7071068 0.7071068 -0.7071068 0.7071068 45.9465103 -16.7474442)" width="5.5601797" height="197.6687927"/>
		</g>
		<g>
			
				<rect x="30.5449619" y="-47.6600418" transform="matrix(0.7071946 0.707019 -0.707019 0.7071946 36.0759888 -12.661705)" width="5.5594888" height="169.7688141"/>
		</g>
		<g>
			
				<rect x="20.6803589" y="-43.5736389" transform="matrix(0.7071068 0.7071068 -0.7071068 0.7071068 26.2182693 -8.5753098)" width="5.5601797" height="141.8684692"/>
		</g>
		<g>
			
				<rect x="10.8161011" y="-39.4877357" transform="matrix(0.7071068 0.7071068 -0.7071068 0.7071068 16.3540115 -4.489399)" width="5.5601797" height="113.9681473"/>
		</g>
		<g>
			
				<rect x="0.952332" y="-35.4021683" transform="matrix(0.7071068 0.7071068 -0.7071068 0.7071068 6.4898968 -0.4038363)" width="5.5601797" height="86.0684967"/>
		</g>
		<g>
			
				<rect x="-8.9116821" y="-31.3162899" transform="matrix(0.7071068 0.7071068 -0.7071068 0.7071068 -3.3739445 3.6820431)" width="5.5601797" height="58.1692009"/>
		</g>
	</g>
</g>
</svg>
