<?xml version="1.0" encoding="utf-8"?>
<!-- Generator: Adobe Illustrator 16.0.0, SVG Export Plug-In . SVG Version: 6.00 Build 0)  -->
<!DOCTYPE svg PUBLIC "-//W3C//DTD SVG 1.1//EN" "http://www.w3.org/Graphics/SVG/1.1/DTD/svg11.dtd">
<svg version="1.1" id="Layer_2_copy_14" xmlns="http://www.w3.org/2000/svg" xmlns:xlink="http://www.w3.org/1999/xlink" x="0px"
	 y="0px" width="250px" height="250px" viewBox="0 0 250 250" enable-background="new 0 0 250 250" xml:space="preserve">
<g opacity="0.1">
	<g>
		<path d="M28.0014648,149.9931641c-3.1816406-7.6337891-10.2402344-4.2607422-10.2402344,1.6474609
			c0,5.90625,10.1630859,10.6953125,10.2402344,10.6953125c0.078125,0,10.2412109-4.7890625,10.2412109-10.6953125
			C38.2426758,145.7324219,31.1831055,142.359375,28.0014648,149.9931641z"/>
		<path d="M90.4165039,149.9931641c-3.1816406-7.6337891-10.2412109-4.2607422-10.2412109,1.6474609
			c0,5.90625,10.1640625,10.6953125,10.2412109,10.6953125s10.2412109-4.7890625,10.2412109-10.6953125
			C100.6577148,145.7324219,93.5991211,142.359375,90.4165039,149.9931641z"/>
		<path d="M28.0014648,213.515625c-3.1816406-7.6347656-10.2402344-4.2607422-10.2402344,1.6464844
			s10.1630859,10.6953125,10.2402344,10.6953125c0.078125,0,10.2412109-4.7880859,10.2412109-10.6953125
			S31.1831055,205.8808594,28.0014648,213.515625z"/>
		<path d="M90.4165039,213.515625c-3.1816406-7.6347656-10.2412109-4.2607422-10.2412109,1.6464844
			s10.1640625,10.6953125,10.2412109,10.6953125s10.2412109-4.7880859,10.2412109-10.6953125
			S93.5991211,205.8808594,90.4165039,213.515625z"/>
		<path d="M62.6743164,184.6660156C59.4926758,177.03125,52.4331055,180.40625,52.4331055,186.3125
			c0,5.9082031,10.1640625,10.6962891,10.2412109,10.6962891s10.2412109-4.7880859,10.2412109-10.6962891
			C72.9155273,180.40625,65.855957,177.03125,62.6743164,184.6660156z"/>
		<path d="M10.0405273,249.1875c0-5.90625-7.0595703-9.28125-10.2412109-1.6464844v3.9599609h9.7382813
			C9.8549805,250.7558594,10.0405273,249.9824219,10.0405273,249.1875z"/>
		<path d="M125.550293,247.5410156c-3.1816406-7.6347656-10.2412109-4.2597656-10.2412109,1.6464844
			c0,0.7949219,0.1845703,1.5683594,0.5029297,2.3134766h9.7382813V247.5410156z"/>
		<path d="M9.5375977,125.7495117h-9.7382813v8.3842773C-0.1342773,134.1337891,7.487793,130.5458984,9.5375977,125.7495117z"/>
		<path d="M10.0405273,186.3125c0-5.90625-7.0595703-9.28125-10.2412109-1.6464844v12.3427734
			C-0.1235352,197.0087891,10.0405273,192.2207031,10.0405273,186.3125z"/>
		<path d="M115.309082,186.3125c0,5.9082031,10.1630859,10.6962891,10.2412109,10.6962891v-12.3427734
			C122.3686523,177.03125,115.309082,180.40625,115.309082,186.3125z"/>
		<path d="M62.6743164,134.1337891c0.0673828,0,7.6894531-3.5878906,9.7382813-8.3842773H52.9370117
			C54.9858398,130.5458984,62.6079102,134.1337891,62.6743164,134.1337891z"/>
		<path d="M72.9155273,249.1875c0-5.90625-7.0595703-9.28125-10.2412109-1.6464844
			C59.4926758,239.90625,52.4331055,243.28125,52.4331055,249.1875c0,0.7949219,0.1855469,1.5683594,0.5039063,2.3134766h19.4755859
			C72.7299805,250.7558594,72.9155273,249.9824219,72.9155273,249.1875z"/>
		<path d="M125.550293,134.1337891v-8.3842773h-9.7382813C117.8608398,130.5458984,125.4829102,134.1337891,125.550293,134.1337891z
			"/>
	</g>
	<g>
		<path d="M28.0014648,23.7416992c-3.1816406-7.6347656-10.2402344-4.2607422-10.2402344,1.6464844
			s10.1630859,10.6962891,10.2402344,10.6962891c0.078125,0,10.2412109-4.7890625,10.2412109-10.6962891
			S31.1831055,16.1069336,28.0014648,23.7416992z"/>
		<path d="M90.4165039,23.7416992c-3.1816406-7.6347656-10.2412109-4.2607422-10.2412109,1.6464844
			s10.1640625,10.6962891,10.2412109,10.6962891s10.2412109-4.7890625,10.2412109-10.6962891
			S93.5991211,16.1069336,90.4165039,23.7416992z"/>
		<path d="M28.0014648,87.2631836c-3.1816406-7.6347656-10.2402344-4.2597656-10.2402344,1.6464844
			c0,5.9082031,10.1630859,10.6962891,10.2402344,10.6962891c0.078125,0,10.2412109-4.7880859,10.2412109-10.6962891
			C38.2426758,83.003418,31.1831055,79.628418,28.0014648,87.2631836z"/>
		<path d="M90.4165039,87.2631836C87.2348633,79.628418,80.175293,83.003418,80.175293,88.909668
			c0,5.9082031,10.1640625,10.6962891,10.2412109,10.6962891s10.2412109-4.7880859,10.2412109-10.6962891
			C100.6577148,83.003418,93.5991211,79.628418,90.4165039,87.2631836z"/>
		<path d="M62.6743164,58.4135742c-3.1816406-7.6347656-10.2412109-4.2597656-10.2412109,1.6474609
			S62.597168,70.7573242,62.6743164,70.7573242s10.2412109-4.7890625,10.2412109-10.6962891
			S65.855957,50.7788086,62.6743164,58.4135742z"/>
		<path d="M10.0405273,122.9360352c0-5.9072266-7.0595703-9.28125-10.2412109-1.6474609v3.9609375h9.7382813
			C9.8549805,124.503418,10.0405273,123.7299805,10.0405273,122.9360352z"/>
		<path d="M125.550293,121.2885742c-3.1816406-7.6337891-10.2412109-4.2597656-10.2412109,1.6474609
			c0,0.7939453,0.1845703,1.5673828,0.5029297,2.3134766h9.7382813V121.2885742z"/>
		<path d="M9.5375977-0.5004883h-9.7382813v8.3828125C-0.1342773,7.8823242,7.487793,4.2944336,9.5375977-0.5004883z"/>
		<path d="M10.0405273,60.0610352c0-5.9072266-7.0595703-9.2822266-10.2412109-1.6474609v12.34375
			C-0.1235352,70.7573242,10.0405273,65.9682617,10.0405273,60.0610352z"/>
		<path d="M115.309082,60.0610352c0,5.9072266,10.1630859,10.6962891,10.2412109,10.6962891v-12.34375
			C122.3686523,50.7788086,115.309082,54.1538086,115.309082,60.0610352z"/>
		<path d="M62.6743164,7.8823242c0.0673828,0,7.6894531-3.5878906,9.7382813-8.3828125H52.9370117
			C54.9858398,4.2944336,62.6079102,7.8823242,62.6743164,7.8823242z"/>
		<path d="M72.9155273,122.9360352c0-5.9072266-7.0595703-9.28125-10.2412109-1.6474609
			c-3.1816406-7.6337891-10.2412109-4.2597656-10.2412109,1.6474609c0,0.7939453,0.1855469,1.5673828,0.5039063,2.3134766
			h19.4755859C72.7299805,124.503418,72.9155273,123.7299805,72.9155273,122.9360352z"/>
		<path d="M125.550293,7.8823242v-8.3828125h-9.7382813C117.8608398,4.2944336,125.4829102,7.8823242,125.550293,7.8823242z"/>
	</g>
	<g>
		<path d="M154.2431641,149.9931641c-3.1816406-7.6337891-10.2412109-4.2607422-10.2412109,1.6474609
			c0,5.90625,10.1640625,10.6953125,10.2412109,10.6953125s10.2402344-4.7890625,10.2402344-10.6953125
			C164.4833984,145.7324219,157.4248047,142.359375,154.2431641,149.9931641z"/>
		<path d="M216.6582031,149.9931641c-3.1826172-7.6337891-10.2412109-4.2607422-10.2412109,1.6474609
			c0,5.90625,10.1640625,10.6953125,10.2412109,10.6953125s10.2412109-4.7890625,10.2412109-10.6953125
			C226.8994141,145.7324219,219.8398438,142.359375,216.6582031,149.9931641z"/>
		<path d="M154.2431641,213.515625c-3.1816406-7.6347656-10.2412109-4.2607422-10.2412109,1.6464844
			s10.1640625,10.6953125,10.2412109,10.6953125s10.2402344-4.7880859,10.2402344-10.6953125
			S157.4248047,205.8808594,154.2431641,213.515625z"/>
		<path d="M216.6582031,213.515625c-3.1826172-7.6347656-10.2412109-4.2607422-10.2412109,1.6464844
			s10.1640625,10.6953125,10.2412109,10.6953125s10.2412109-4.7880859,10.2412109-10.6953125
			S219.8398438,205.8808594,216.6582031,213.515625z"/>
		<path d="M188.9160156,184.6660156c-3.1816406-7.6347656-10.2412109-4.2597656-10.2412109,1.6464844
			c0,5.9082031,10.1630859,10.6962891,10.2412109,10.6962891c0.0771484,0,10.2412109-4.7880859,10.2412109-10.6962891
			C199.1572266,180.40625,192.0976563,177.03125,188.9160156,184.6660156z"/>
		<path d="M136.28125,249.1875c0-5.90625-7.0595703-9.28125-10.2333984-1.6464844v3.9599609h9.7304688
			C136.0966797,250.7558594,136.28125,249.9824219,136.28125,249.1875z"/>
		<path d="M251.7910156,247.5410156c-3.1816406-7.6347656-10.2412109-4.2597656-10.2412109,1.6464844
			c0,0.7949219,0.1855469,1.5683594,0.5039063,2.3134766h9.7373047V247.5410156z"/>
		<path d="M135.7783203,125.7495117h-9.7304688v8.3842773C126.1152344,134.1337891,133.7294922,130.5458984,135.7783203,125.7495117
			z"/>
		<path d="M136.28125,186.3125c0-5.90625-7.0595703-9.28125-10.2333984-1.6464844v12.3427734
			C126.1259766,197.0087891,136.28125,192.2207031,136.28125,186.3125z"/>
		<path d="M241.5498047,186.3125c0,5.9082031,10.1640625,10.6962891,10.2412109,10.6962891v-12.3427734
			C248.609375,177.03125,241.5498047,180.40625,241.5498047,186.3125z"/>
		<path d="M188.9160156,134.1337891c0.0664063,0,7.6884766-3.5878906,9.7373047-8.3842773h-19.4746094
			C181.2265625,130.5458984,188.8486328,134.1337891,188.9160156,134.1337891z"/>
		<path d="M199.1572266,249.1875c0-5.90625-7.0595703-9.28125-10.2412109-1.6464844
			c-3.1816406-7.6347656-10.2412109-4.2597656-10.2412109,1.6464844c0,0.7949219,0.1855469,1.5683594,0.5039063,2.3134766
			h19.4746094C198.9716797,250.7558594,199.1572266,249.9824219,199.1572266,249.1875z"/>
		<path d="M251.7910156,134.1337891v-8.3842773h-9.7373047
			C244.1025391,130.5458984,251.7246094,134.1337891,251.7910156,134.1337891z"/>
	</g>
	<g>
		<path d="M154.2431641,23.7416992c-3.1816406-7.6347656-10.2412109-4.2607422-10.2412109,1.6464844
			s10.1640625,10.6962891,10.2412109,10.6962891s10.2402344-4.7890625,10.2402344-10.6962891
			S157.4248047,16.1069336,154.2431641,23.7416992z"/>
		<path d="M216.6582031,23.7416992c-3.1826172-7.6347656-10.2412109-4.2607422-10.2412109,1.6464844
			s10.1640625,10.6962891,10.2412109,10.6962891s10.2412109-4.7890625,10.2412109-10.6962891
			S219.8398438,16.1069336,216.6582031,23.7416992z"/>
		<path d="M154.2431641,87.2631836c-3.1816406-7.6347656-10.2412109-4.2597656-10.2412109,1.6464844
			c0,5.9082031,10.1640625,10.6962891,10.2412109,10.6962891s10.2402344-4.7880859,10.2402344-10.6962891
			C164.4833984,83.003418,157.4248047,79.628418,154.2431641,87.2631836z"/>
		<path d="M216.6582031,87.2631836c-3.1826172-7.6347656-10.2412109-4.2597656-10.2412109,1.6464844
			c0,5.9082031,10.1640625,10.6962891,10.2412109,10.6962891s10.2412109-4.7880859,10.2412109-10.6962891
			C226.8994141,83.003418,219.8398438,79.628418,216.6582031,87.2631836z"/>
		<path d="M188.9160156,58.4135742c-3.1816406-7.6347656-10.2412109-4.2597656-10.2412109,1.6474609
			s10.1630859,10.6962891,10.2412109,10.6962891c0.0771484,0,10.2412109-4.7890625,10.2412109-10.6962891
			S192.0976563,50.7788086,188.9160156,58.4135742z"/>
		<path d="M136.28125,122.9360352c0-5.9072266-7.0595703-9.28125-10.2333984-1.6474609v3.9609375h9.7304688
			C136.0966797,124.503418,136.28125,123.7299805,136.28125,122.9360352z"/>
		<path d="M251.7910156,121.2885742c-3.1816406-7.6337891-10.2412109-4.2597656-10.2412109,1.6474609
			c0,0.7939453,0.1855469,1.5673828,0.5039063,2.3134766h9.7373047V121.2885742z"/>
		<path d="M135.7783203-0.5004883h-9.7304688v8.3828125C126.1152344,7.8823242,133.7294922,4.2944336,135.7783203-0.5004883z"/>
		<path d="M136.28125,60.0610352c0-5.9072266-7.0595703-9.2822266-10.2333984-1.6474609v12.34375
			C126.1259766,70.7573242,136.28125,65.9682617,136.28125,60.0610352z"/>
		<path d="M241.5498047,60.0610352c0,5.9072266,10.1640625,10.6962891,10.2412109,10.6962891v-12.34375
			C248.609375,50.7788086,241.5498047,54.1538086,241.5498047,60.0610352z"/>
		<path d="M188.9160156,7.8823242c0.0664063,0,7.6884766-3.5878906,9.7373047-8.3828125h-19.4746094
			C181.2265625,4.2944336,188.8486328,7.8823242,188.9160156,7.8823242z"/>
		<path d="M199.1572266,122.9360352c0-5.9072266-7.0595703-9.28125-10.2412109-1.6474609
			c-3.1816406-7.6337891-10.2412109-4.2597656-10.2412109,1.6474609c0,0.7939453,0.1855469,1.5673828,0.5039063,2.3134766
			h19.4746094C198.9716797,124.503418,199.1572266,123.7299805,199.1572266,122.9360352z"/>
		<path d="M251.7910156,7.8823242v-8.3828125h-9.7373047C244.1025391,4.2944336,251.7246094,7.8823242,251.7910156,7.8823242z"/>
	</g>
</g>
</svg>
