<?xml version="1.0" encoding="utf-8"?>
<!-- Generator: Adobe Illustrator 16.0.0, SVG Export Plug-In . SVG Version: 6.00 Build 0)  -->
<!DOCTYPE svg PUBLIC "-//W3C//DTD SVG 1.1//EN" "http://www.w3.org/Graphics/SVG/1.1/DTD/svg11.dtd">
<svg version="1.1" id="Layer_2_copy_14" xmlns="http://www.w3.org/2000/svg" xmlns:xlink="http://www.w3.org/1999/xlink" x="0px"
	 y="0px" width="250px" height="250px" viewBox="0 0 250 250" enable-background="new 0 0 250 250" xml:space="preserve">
<g opacity="0.1">
	<polygon fill="none" stroke="#272525" stroke-width="2" stroke-miterlimit="10" points="251.1708984,-0.8007813 
		239.7138672,10.6591797 251.1708984,22.1186523 257.90625,15.3828125 257.90625,5.9331055 	"/>
	
		<rect x="197.2297363" y="2.5563822" transform="matrix(0.7071369 -0.7070767 0.7070767 0.7071369 52.5979156 148.308136)" fill="none" stroke="#272525" stroke-width="2" stroke-miterlimit="10" width="16.2075214" height="16.2051067"/>
	
		<rect x="220.1480255" y="25.47612" transform="matrix(0.7071218 -0.7070917 0.7070917 0.7071218 43.1075439 171.2292175)" fill="none" stroke="#272525" stroke-width="2" stroke-miterlimit="10" width="16.2078686" height="16.2030354"/>
	<polygon fill="none" stroke="#272525" stroke-width="2" stroke-miterlimit="10" points="251.1708984,45.0366211 
		239.7138672,56.4970703 251.1708984,67.9536133 257.90625,61.2207031 257.90625,51.7724609 	"/>
	
		<rect x="151.3940887" y="2.5541382" transform="matrix(0.707152 -0.7070616 0.7070616 0.707152 39.1714478 115.8946609)" fill="none" stroke="#272525" stroke-width="2" stroke-miterlimit="10" width="16.2030354" height="16.2095947"/>
	
		<rect x="174.3112183" y="25.4765949" transform="matrix(0.706941 -0.7072725 0.7072725 0.706941 29.7097778 138.8557587)" fill="none" stroke="#272525" stroke-width="2" stroke-miterlimit="10" width="16.2037258" height="16.2006187"/>
	<polygon fill="none" stroke="#272525" stroke-width="2" stroke-miterlimit="10" points="205.3349609,45.0366211 
		193.8740234,56.4970703 205.3349609,67.9536133 216.7900391,56.4970703 	"/>
	
		<rect x="220.1494598" y="71.3109283" transform="matrix(0.7070767 -0.7071369 0.7071369 0.7070767 10.703598 184.6692657)" fill="none" stroke="#272525" stroke-width="2" stroke-miterlimit="10" width="16.2089043" height="16.2082138"/>
	<polygon fill="none" stroke="#272525" stroke-width="2" stroke-miterlimit="10" points="251.1708984,90.8764648 
		239.7138672,102.3339844 251.1708984,113.793457 257.90625,107.0595703 257.90625,97.6108398 	"/>
	<polygon fill="none" stroke="#272525" stroke-width="2" stroke-miterlimit="10" points="113.6577148,-0.8007813 
		102.2011719,10.6591797 113.6577148,22.1186523 125.1142578,10.6591797 	"/>
	
		<rect x="128.47258" y="25.4737015" transform="matrix(0.7070917 -0.7071218 0.7071218 0.7070917 16.2608032 106.4111633)" fill="none" stroke="#272525" stroke-width="2" stroke-miterlimit="10" width="16.2071781" height="16.2078686"/>
	
		<rect x="151.3912354" y="48.3936005" transform="matrix(0.7070314 -0.7071821 0.7071821 0.7070314 6.7744293 129.3426971)" fill="none" stroke="#272525" stroke-width="2" stroke-miterlimit="10" width="16.2057972" height="16.2030354"/>
	<polygon fill="none" stroke="#272525" stroke-width="2" stroke-miterlimit="10" points="182.4130859,67.9536133 
		170.9580078,79.4155273 182.4130859,90.8764648 193.8701172,79.4155273 	"/>
	<polygon fill="none" stroke="#272525" stroke-width="2" stroke-miterlimit="10" points="205.3349609,90.8764648 
		193.8740234,102.3339844 205.3349609,113.793457 216.7900391,102.3339844 	"/>
	
		<rect x="220.1500854" y="117.1489258" transform="matrix(0.7070616 -0.7071519 0.7071519 0.7070616 -21.7089081 198.1001282)" fill="none" stroke="#272525" stroke-width="2" stroke-miterlimit="10" width="16.2037258" height="16.2075214"/>
	<polygon fill="none" stroke="#272525" stroke-width="2" stroke-miterlimit="10" points="251.1708984,136.7119141 
		239.7138672,148.1699219 251.1708984,159.6318359 257.90625,152.8964844 257.90625,143.4453125 	"/>
	
		<rect x="59.7171402" y="2.5562105" transform="matrix(0.7071068 -0.7071068 0.7071068 0.7071068 12.3271751 51.0783043)" fill="none" stroke="#272525" stroke-width="2" stroke-miterlimit="10" width="16.2068329" height="16.2054501"/>
	
		<rect x="82.6353149" y="25.4764652" transform="matrix(0.7070164 -0.7071971 0.7071971 0.7070164 2.8387451 74.00737)" fill="none" stroke="#272525" stroke-width="2" stroke-miterlimit="10" width="16.2054501" height="16.202343"/>
	<polygon fill="none" stroke="#272525" stroke-width="2" stroke-miterlimit="10" points="113.6577148,45.0351563 
		102.1982422,56.4970703 113.6577148,67.9536133 125.1176758,56.4970703 	"/>
	<polygon fill="none" stroke="#272525" stroke-width="2" stroke-miterlimit="10" points="136.578125,67.9536133 
		125.1176758,79.4155273 136.5742188,90.8764648 148.0332031,79.4135742 	"/>
	
		<rect x="151.3927002" y="94.2324066" transform="matrix(0.7072122 -0.7070013 0.7070013 0.7072122 -25.6525879 142.7260284)" fill="none" stroke="#272525" stroke-width="2" stroke-miterlimit="10" width="16.2057972" height="16.2051067"/>
	<polygon fill="none" stroke="#272525" stroke-width="2" stroke-miterlimit="10" points="182.4130859,113.793457 
		170.9580078,125.2519531 182.4130859,136.7119141 193.8740234,125.2519531 	"/>
	<polygon fill="none" stroke="#272525" stroke-width="2" stroke-miterlimit="10" points="205.3349609,136.7119141 
		193.8740234,148.1699219 205.3349609,159.6318359 216.7900391,148.1699219 	"/>
	
		<rect x="220.14888" y="162.9884338" transform="matrix(0.7071972 -0.7070164 0.7070164 0.7071972 -54.1312256 211.4737396)" fill="none" stroke="#272525" stroke-width="2" stroke-miterlimit="10" width="16.2061424" height="16.2047615"/>
	<polygon fill="none" stroke="#272525" stroke-width="2" stroke-miterlimit="10" points="251.1708984,182.5498047 
		239.7138672,194.0097656 251.1708984,205.46875 257.90625,198.7333984 257.90625,189.2832031 	"/>
	
		<rect x="13.8811064" y="2.5551739" transform="matrix(0.7070917 -0.7071218 0.7071218 0.7070917 -1.0984764 18.6659966)" fill="none" stroke="#272525" stroke-width="2" stroke-miterlimit="10" width="16.2016544" height="16.2075233"/>
	
		<rect x="36.7989883" y="25.476078" transform="matrix(0.7069862 -0.7072273 0.7072273 0.7069862 -10.5897865 41.5939674)" fill="none" stroke="#272525" stroke-width="2" stroke-miterlimit="10" width="16.2047615" height="16.2016544"/>
	
		<rect x="59.717701" y="48.39291" transform="matrix(0.7070917 -0.7071218 0.7071218 0.7070917 -20.083519 64.5057983)" fill="none" stroke="#272525" stroke-width="2" stroke-miterlimit="10" width="16.2071781" height="16.2044144"/>
	<polygon fill="none" stroke="#272525" stroke-width="2" stroke-miterlimit="10" points="90.7373047,67.9536133 
		79.28125,79.4135742 90.7387695,90.8764648 102.1982422,79.4155273 	"/>
	
		<rect x="105.5563736" y="94.2327118" transform="matrix(0.7070766 -0.7071369 0.7071369 0.7070766 -39.0713043 110.3476563)" fill="none" stroke="#272525" stroke-width="2" stroke-miterlimit="10" width="16.2026882" height="16.2030354"/>
	<polygon fill="none" stroke="#272525" stroke-width="2" stroke-miterlimit="10" points="136.578125,113.793457 
		125.1176758,125.2519531 136.578125,136.7119141 148.0332031,125.2519531 	"/>
	
		<rect x="151.3939972" y="140.0674286" transform="matrix(0.7071972 -0.7070164 0.7070164 0.7071972 -58.0587616 156.1521912)" fill="none" stroke="#272525" stroke-width="2" stroke-miterlimit="10" width="16.2061424" height="16.2089043"/>
	<polygon fill="none" stroke="#272525" stroke-width="2" stroke-miterlimit="10" points="182.4130859,159.6318359 
		170.9580078,171.0898438 182.4130859,182.5498047 193.8740234,171.0898438 	"/>
	<polygon fill="none" stroke="#272525" stroke-width="2" stroke-miterlimit="10" points="205.3349609,182.5498047 
		193.8740234,194.0097656 205.3349609,205.46875 216.7900391,194.0097656 	"/>
	
		<rect x="220.1504822" y="208.8244629" transform="matrix(0.707167 -0.7070465 0.7070465 0.707167 -86.5380859 224.9098663)" fill="none" stroke="#272525" stroke-width="2" stroke-miterlimit="10" width="16.2068329" height="16.2075214"/>
	<polygon fill="none" stroke="#272525" stroke-width="2" stroke-miterlimit="10" points="251.1708984,228.3876953 
		239.7138672,239.8476563 251.1708984,251.3066406 257.90625,244.5722656 257.90625,235.1240234 	"/>
	<polygon fill="none" stroke="#272525" stroke-width="2" stroke-miterlimit="10" points="-0.9350586,22.1186523 
		-7.9394531,29.1235352 -7.9394531,38.0322266 -0.9350586,45.0366211 10.5249023,33.5791016 	"/>
	
		<rect x="13.8787489" y="48.3942909" transform="matrix(0.7069712 -0.7072424 0.7072424 0.7069712 -33.5146866 32.100563)" fill="none" stroke="#272525" stroke-width="2" stroke-miterlimit="10" width="16.2044163" height="16.2016544"/>
	<polygon fill="none" stroke="#272525" stroke-width="2" stroke-miterlimit="10" points="44.9013672,67.9536133 
		33.4448242,79.4155273 44.9013672,90.8764648 56.3579102,79.4155273 	"/>
	
		<rect x="59.7185211" y="94.23172" transform="matrix(0.7071369 -0.7070767 0.7070767 0.7071369 -52.4965286 77.924469)" fill="none" stroke="#272525" stroke-width="2" stroke-miterlimit="10" width="16.204071" height="16.2064857"/>
	
		<rect x="82.635788" y="117.15065" transform="matrix(0.7070314 -0.7071821 0.7071821 0.7070314 -61.9932861 100.8628998)" fill="none" stroke="#272525" stroke-width="2" stroke-miterlimit="10" width="16.2030354" height="16.204071"/>
	<polygon fill="none" stroke="#272525" stroke-width="2" stroke-miterlimit="10" points="113.6577148,136.7119141 
		102.2011719,148.1699219 113.6577148,159.6318359 125.1142578,148.1699219 	"/>
	<polygon fill="none" stroke="#272525" stroke-width="2" stroke-miterlimit="10" points="136.578125,159.6318359 
		125.1176758,171.0898438 136.578125,182.5498047 148.0332031,171.0898438 	"/>
	
		<rect x="151.3928833" y="185.9058533" transform="matrix(0.7070465 -0.707167 0.707167 0.7070465 -90.472168 169.6257324)" fill="none" stroke="#272525" stroke-width="2" stroke-miterlimit="10" width="16.2054501" height="16.2068329"/>
	<polygon fill="none" stroke="#272525" stroke-width="2" stroke-miterlimit="10" points="182.4130859,205.46875 
		170.9580078,216.9277344 182.4130859,228.3876953 193.8701172,216.9277344 	"/>
	<polygon fill="none" stroke="#272525" stroke-width="2" stroke-miterlimit="10" points="205.3349609,228.3876953 
		193.8740234,239.8476563 205.3349609,251.3066406 216.7900391,239.8476563 	"/>
	<polygon fill="none" stroke="#272525" stroke-width="2" stroke-miterlimit="10" points="-0.9350586,67.9536133 
		-7.9394531,74.9604492 -7.9394531,83.8706055 -0.9350586,90.8764648 10.5249023,79.4135742 	"/>
	
		<rect x="13.8800707" y="94.2331009" transform="matrix(0.7071218 -0.7070917 0.7070917 0.7071218 -65.9221725 45.5149155)" fill="none" stroke="#272525" stroke-width="2" stroke-miterlimit="10" width="16.2037258" height="16.2037258"/>
	
		<rect x="36.7979507" y="117.1485367" transform="matrix(0.7071068 -0.7071068 0.7071068 0.7071068 -75.4151993 68.4355087)" fill="none" stroke="#272525" stroke-width="2" stroke-miterlimit="10" width="16.2068329" height="16.2068329"/>
	
		<rect x="59.7178307" y="140.0682831" transform="matrix(0.707167 -0.7070465 0.7070465 0.707167 -84.9043121 91.3419037)" fill="none" stroke="#272525" stroke-width="2" stroke-miterlimit="10" width="16.2054501" height="16.2071781"/>
	
		<rect x="82.6361771" y="162.9887848" transform="matrix(0.7070917 -0.7071218 0.7071218 0.7070917 -94.4041443 114.2767639)" fill="none" stroke="#272525" stroke-width="2" stroke-miterlimit="10" width="16.2037258" height="16.204071"/>
	
		<rect x="105.5555115" y="185.9074097" transform="matrix(0.7070013 -0.7072123 0.7072123 0.7070013 -103.9041748 137.2245941)" fill="none" stroke="#272525" stroke-width="2" stroke-miterlimit="10" width="16.2044144" height="16.2037258"/>
	<polygon fill="none" stroke="#272525" stroke-width="2" stroke-miterlimit="10" points="136.578125,205.46875 
		125.1176758,216.9277344 136.578125,228.3876953 148.0332031,216.9277344 	"/>
	
		<rect x="151.3918457" y="231.7447815" transform="matrix(0.7071369 -0.7070767 0.7070767 0.7071369 -122.8799438 183.0179901)" fill="none" stroke="#272525" stroke-width="2" stroke-miterlimit="10" width="16.2075214" height="16.2047615"/>
	<polygon fill="none" stroke="#272525" stroke-width="2" stroke-miterlimit="10" points="-0.9350586,113.793457 
		-7.9394531,120.7983398 -7.9394531,129.7080078 -0.9350586,136.7119141 10.5249023,125.2519531 	"/>
	
		<rect x="13.879612" y="140.0691528" transform="matrix(0.7070465 -0.7071671 0.7071671 0.7070465 -98.3428726 58.951683)" fill="none" stroke="#272525" stroke-width="2" stroke-miterlimit="10" width="16.2026901" height="16.205452"/>
	
		<rect x="36.7979088" y="162.987915" transform="matrix(0.707167 -0.7070465 0.7070465 0.707167 -107.8207855 81.8478699)" fill="none" stroke="#272525" stroke-width="2" stroke-miterlimit="10" width="16.2054501" height="16.2057972"/>
	
		<rect x="59.7171402" y="185.906723" transform="matrix(0.7071068 -0.7071068 0.7071068 0.7071068 -117.3210907 104.7803802)" fill="none" stroke="#272525" stroke-width="2" stroke-miterlimit="10" width="16.2068329" height="16.2051067"/>
	
		<rect x="82.6347961" y="208.8272247" transform="matrix(0.7069712 -0.7072423 0.7072423 0.7069712 -126.8319702 127.7399902)" fill="none" stroke="#272525" stroke-width="2" stroke-miterlimit="10" width="16.2064857" height="16.2019978"/>
	
		<rect x="105.5544739" y="231.7444153" transform="matrix(0.7070917 -0.7071218 0.7071218 0.7070917 -136.3102417 150.6231995)" fill="none" stroke="#272525" stroke-width="2" stroke-miterlimit="10" width="16.2064857" height="16.2064857"/>
	<polygon fill="none" stroke="#272525" stroke-width="2" stroke-miterlimit="10" points="-0.9350586,159.6318359 
		-7.9394531,166.6367188 -7.9394531,175.5429688 -0.9350586,182.5498047 10.5249023,171.0898438 	"/>
	
		<rect x="13.8805885" y="185.9062042" transform="matrix(0.7070465 -0.7071671 0.7071671 0.7070465 -130.7572937 72.3805923)" fill="none" stroke="#272525" stroke-width="2" stroke-miterlimit="10" width="16.2026901" height="16.2061424"/>
	
		<rect x="36.8005409" y="208.8248291" transform="matrix(0.7071218 -0.7070917 0.7070917 0.7071218 -140.2371674 95.2827682)" fill="none" stroke="#272525" stroke-width="2" stroke-miterlimit="10" width="16.2016544" height="16.2057972"/>
	
		<rect x="59.7178726" y="231.7438049" transform="matrix(0.7071068 -0.7071068 0.7071068 0.7071068 -149.7324677 118.2062225)" fill="none" stroke="#272525" stroke-width="2" stroke-miterlimit="10" width="16.2068329" height="16.2047615"/>
	<polygon fill="none" stroke="#272525" stroke-width="2" stroke-miterlimit="10" points="-0.9350586,205.46875 
		-7.9394531,212.4746094 -7.9394531,221.3798828 -0.9350586,228.3867188 10.5249023,216.9277344 	"/>
	
		<rect x="13.8798981" y="231.7445068" transform="matrix(0.7069862 -0.7072273 0.7072273 0.7069862 -163.1847687 85.8244476)" fill="none" stroke="#272525" stroke-width="2" stroke-miterlimit="10" width="16.204071" height="16.2033787"/>
	<polygon fill="none" stroke="#272525" stroke-width="2" stroke-miterlimit="10" points="228.25,-0.8007813 228.25,-0.8007813 
		216.7929688,10.6557617 228.2539063,22.1186523 239.7109375,10.6591797 	"/>
	<polygon fill="none" stroke="#272525" stroke-width="2" stroke-miterlimit="10" points="251.1708984,22.1186523 
		251.1708984,22.1186523 239.7138672,33.5791016 251.1708984,45.0366211 257.90625,38.3027344 257.90625,28.8530273 	"/>
	<polygon fill="none" stroke="#272525" stroke-width="2" stroke-miterlimit="10" points="182.4130859,-0.8007813 
		182.4130859,-0.8007813 170.9580078,10.6591797 182.4130859,22.1186523 193.8701172,10.6591797 	"/>
	<polygon fill="none" stroke="#272525" stroke-width="2" stroke-miterlimit="10" points="205.3320313,22.1186523 
		205.3320313,22.1186523 193.8740234,33.5791016 205.3349609,45.0366211 216.7900391,33.5791016 	"/>
	<polygon fill="none" stroke="#272525" stroke-width="2" stroke-miterlimit="10" points="228.25,45.0366211 228.25,45.0366211 
		216.7929688,56.4970703 228.2539063,67.9536133 239.7109375,56.4970703 	"/>
	<polygon fill="none" stroke="#272525" stroke-width="2" stroke-miterlimit="10" points="251.1708984,67.9536133 
		251.1708984,67.9536133 239.7138672,79.4155273 251.1708984,90.8764648 257.90625,84.1391602 257.90625,74.690918 	"/>
	<polygon fill="none" stroke="#272525" stroke-width="2" stroke-miterlimit="10" points="136.578125,-0.8007813 
		136.578125,-0.8007813 125.1176758,10.6591797 136.5742188,22.1186523 148.0332031,10.6557617 	"/>
	<polygon fill="none" stroke="#272525" stroke-width="2" stroke-miterlimit="10" points="159.4970703,22.1186523 
		159.4970703,22.1186523 148.0361328,33.5791016 159.4941406,45.0366211 170.9550781,33.5791016 	"/>
	<polygon fill="none" stroke="#272525" stroke-width="2" stroke-miterlimit="10" points="182.4130859,45.0351563 
		182.4130859,45.0351563 170.9550781,56.4970703 182.4130859,67.9536133 193.8740234,56.4970703 	"/>
	<polygon fill="none" stroke="#272525" stroke-width="2" stroke-miterlimit="10" points="205.3349609,67.9536133 
		205.3349609,67.9536133 193.8740234,79.4155273 205.3349609,90.8764648 216.7900391,79.4155273 	"/>
	<polygon fill="none" stroke="#272525" stroke-width="2" stroke-miterlimit="10" points="228.2539063,90.8764648 
		228.2539063,90.8764648 216.7929688,102.3339844 228.25,113.793457 239.7109375,102.3339844 	"/>
	<polygon fill="none" stroke="#272525" stroke-width="2" stroke-miterlimit="10" points="251.1708984,113.793457 
		251.1708984,113.793457 239.7138672,125.2519531 251.1708984,136.7119141 257.90625,129.9775391 257.90625,120.527832 	"/>
	<polygon fill="none" stroke="#272525" stroke-width="2" stroke-miterlimit="10" points="90.7373047,-0.8007813 
		90.7373047,-0.8007813 79.28125,10.6557617 90.7387695,22.1186523 102.1982422,10.6591797 	"/>
	<polygon fill="none" stroke="#272525" stroke-width="2" stroke-miterlimit="10" points="113.6577148,22.1186523 
		113.6577148,22.1186523 102.2011719,33.5791016 113.6577148,45.0351563 125.1142578,33.5791016 	"/>
	<polygon fill="none" stroke="#272525" stroke-width="2" stroke-miterlimit="10" points="136.578125,45.0366211 
		136.578125,45.0366211 125.1176758,56.4970703 136.578125,67.9536133 148.0332031,56.4970703 	"/>
	<polygon fill="none" stroke="#272525" stroke-width="2" stroke-miterlimit="10" points="159.4941406,67.9536133 
		159.4941406,67.9536133 148.0361328,79.4135742 159.4970703,90.8764648 170.9550781,79.4155273 	"/>
	<polygon fill="none" stroke="#272525" stroke-width="2" stroke-miterlimit="10" points="182.4130859,90.8764648 
		182.4130859,90.8764648 170.9580078,102.3339844 182.4130859,113.793457 193.8740234,102.3339844 	"/>
	<polygon fill="none" stroke="#272525" stroke-width="2" stroke-miterlimit="10" points="205.3349609,113.793457 
		205.3349609,113.793457 193.8740234,125.2519531 205.3349609,136.7119141 216.7900391,125.2519531 	"/>
	<polygon fill="none" stroke="#272525" stroke-width="2" stroke-miterlimit="10" points="228.2539063,136.7119141 
		228.2539063,136.7119141 216.7929688,148.1699219 228.2539063,159.6318359 239.7109375,148.1699219 	"/>
	<polygon fill="none" stroke="#272525" stroke-width="2" stroke-miterlimit="10" points="251.1708984,159.6318359 
		251.1708984,159.6318359 239.7138672,171.0898438 251.1708984,182.5498047 257.90625,175.8164063 257.90625,166.3662109 	"/>
	<polygon fill="none" stroke="#272525" stroke-width="2" stroke-miterlimit="10" points="44.9013672,-0.8007813 
		44.9013672,-0.8007813 33.4448242,10.6591797 44.9013672,22.1186523 56.3579102,10.6591797 	"/>
	<polygon fill="none" stroke="#272525" stroke-width="2" stroke-miterlimit="10" points="67.8198242,22.1186523 
		67.8198242,22.1186523 56.3613281,33.5791016 67.8212891,45.0366211 79.2783203,33.5791016 	"/>
	<polygon fill="none" stroke="#272525" stroke-width="2" stroke-miterlimit="10" points="90.7373047,45.0366211 
		90.7373047,45.0366211 79.28125,56.4970703 90.7373047,67.9536133 102.1982422,56.4970703 	"/>
	<polygon fill="none" stroke="#272525" stroke-width="2" stroke-miterlimit="10" points="113.6577148,67.9536133 
		113.6577148,67.9536133 102.2011719,79.4155273 113.6577148,90.8764648 125.1142578,79.4155273 	"/>
	<polygon fill="none" stroke="#272525" stroke-width="2" stroke-miterlimit="10" points="136.5742188,90.8764648 
		136.5742188,90.8764648 125.1142578,102.3339844 136.578125,113.793457 148.0332031,102.3339844 	"/>
	<polygon fill="none" stroke="#272525" stroke-width="2" stroke-miterlimit="10" points="159.4941406,113.793457 
		159.4941406,113.793457 148.0361328,125.2519531 159.4970703,136.7119141 170.9550781,125.2519531 	"/>
	<polygon fill="none" stroke="#272525" stroke-width="2" stroke-miterlimit="10" points="182.4130859,136.7119141 
		182.4130859,136.7119141 170.9580078,148.1699219 182.4130859,159.6318359 193.8701172,148.1699219 	"/>
	<polygon fill="none" stroke="#272525" stroke-width="2" stroke-miterlimit="10" points="205.3349609,159.6318359 
		205.3349609,159.6318359 193.8740234,171.0898438 205.3349609,182.5498047 216.7900391,171.0898438 	"/>
	<polygon fill="none" stroke="#272525" stroke-width="2" stroke-miterlimit="10" points="228.25,182.5498047 228.25,182.5498047 
		216.7929688,194.0097656 228.2539063,205.46875 239.7109375,194.0097656 	"/>
	<polygon fill="none" stroke="#272525" stroke-width="2" stroke-miterlimit="10" points="251.1708984,205.46875 
		251.1708984,205.46875 239.7138672,216.9277344 251.1708984,228.3876953 257.90625,221.6523438 257.90625,212.203125 	"/>
	<polygon fill="none" stroke="#272525" stroke-width="2" stroke-miterlimit="10" points="-0.9350586,-0.8007813 
		-0.9350586,-0.8007813 -7.9394531,6.2041016 -7.9394531,15.1137695 -0.9350586,22.1186523 10.5249023,10.6557617 	"/>
	<polygon fill="none" stroke="#272525" stroke-width="2" stroke-miterlimit="10" points="21.9829102,22.1186523 
		21.9829102,22.1186523 10.5249023,33.5791016 21.980957,45.0366211 33.4414063,33.5791016 	"/>
	<polygon fill="none" stroke="#272525" stroke-width="2" stroke-miterlimit="10" points="44.9013672,45.0351563 
		44.9013672,45.0351563 33.4414063,56.4970703 44.9013672,67.9536133 56.3579102,56.4970703 	"/>
	<polygon fill="none" stroke="#272525" stroke-width="2" stroke-miterlimit="10" points="67.8212891,67.9536133 
		67.8212891,67.9536133 56.3613281,79.4155273 67.8198242,90.8764648 79.2783203,79.4135742 	"/>
	<polygon fill="none" stroke="#272525" stroke-width="2" stroke-miterlimit="10" points="90.7387695,90.8764648 
		90.7387695,90.8764648 79.28125,102.3339844 90.7373047,113.793457 102.1982422,102.3339844 	"/>
	<polygon fill="none" stroke="#272525" stroke-width="2" stroke-miterlimit="10" points="113.6577148,113.7919922 
		113.6577148,113.7919922 102.1982422,125.2519531 113.6577148,136.7119141 125.1176758,125.2519531 	"/>
	<polygon fill="none" stroke="#272525" stroke-width="2" stroke-miterlimit="10" points="136.578125,136.7119141 
		136.578125,136.7119141 125.1176758,148.1699219 136.578125,159.6318359 148.0332031,148.1699219 	"/>
	<polygon fill="none" stroke="#272525" stroke-width="2" stroke-miterlimit="10" points="159.4970703,159.6318359 
		159.4970703,159.6318359 148.0361328,171.0898438 159.4941406,182.5498047 170.9550781,171.0898438 	"/>
	<polygon fill="none" stroke="#272525" stroke-width="2" stroke-miterlimit="10" points="182.4130859,182.5498047 
		182.4130859,182.5498047 170.9580078,194.0097656 182.4130859,205.46875 193.8740234,194.0097656 	"/>
	<polygon fill="none" stroke="#272525" stroke-width="2" stroke-miterlimit="10" points="205.3349609,205.46875 
		205.3349609,205.46875 193.8740234,216.9277344 205.3349609,228.3876953 216.7900391,216.9277344 	"/>
	<polygon fill="none" stroke="#272525" stroke-width="2" stroke-miterlimit="10" points="228.2539063,228.3876953 
		228.2539063,228.3876953 216.7929688,239.8476563 228.25,251.3066406 239.7109375,239.8476563 	"/>
	<polygon fill="none" stroke="#272525" stroke-width="2" stroke-miterlimit="10" points="-0.9350586,45.0366211 
		-0.9350586,45.0366211 -7.9394531,52.0449219 -7.9394531,60.9511719 -0.9350586,67.9536133 10.5249023,56.4970703 	"/>
	<polygon fill="none" stroke="#272525" stroke-width="2" stroke-miterlimit="10" points="21.980957,67.9536133 
		21.980957,67.9536133 10.5249023,79.4135742 21.9829102,90.8764648 33.4414063,79.4155273 	"/>
	<polygon fill="none" stroke="#272525" stroke-width="2" stroke-miterlimit="10" points="44.9013672,90.8764648 
		44.9013672,90.8764648 33.4448242,102.3339844 44.9013672,113.7919922 56.3579102,102.3339844 	"/>
	<polygon fill="none" stroke="#272525" stroke-width="2" stroke-miterlimit="10" points="67.8212891,113.793457 
		67.8212891,113.793457 56.3613281,125.2519531 67.8212891,136.7119141 79.2783203,125.2519531 	"/>
	<polygon fill="none" stroke="#272525" stroke-width="2" stroke-miterlimit="10" points="90.7373047,136.7119141 
		90.7373047,136.7119141 79.28125,148.1689453 90.7387695,159.6318359 102.1982422,148.1699219 	"/>
	<polygon fill="none" stroke="#272525" stroke-width="2" stroke-miterlimit="10" points="113.6577148,159.6318359 
		113.6577148,159.6318359 102.2011719,171.0898438 113.6577148,182.5498047 125.1176758,171.0898438 	"/>
	<polygon fill="none" stroke="#272525" stroke-width="2" stroke-miterlimit="10" points="136.578125,182.5498047 
		136.578125,182.5498047 125.1176758,194.0097656 136.578125,205.46875 148.0332031,194.0097656 	"/>
	<polygon fill="none" stroke="#272525" stroke-width="2" stroke-miterlimit="10" points="159.4970703,205.46875 
		159.4970703,205.46875 148.0361328,216.9277344 159.4970703,228.3876953 170.9550781,216.9277344 	"/>
	<polygon fill="none" stroke="#272525" stroke-width="2" stroke-miterlimit="10" points="182.4130859,228.3876953 
		182.4130859,228.3876953 170.9580078,239.8476563 182.4130859,251.3066406 193.8740234,239.8476563 	"/>
	<polygon fill="none" stroke="#272525" stroke-width="2" stroke-miterlimit="10" points="-0.9350586,90.8764648 
		-0.9350586,90.8764648 -7.9394531,97.878418 -7.9394531,106.7885742 -0.9350586,113.793457 10.5249023,102.3339844 	"/>
	<polygon fill="none" stroke="#272525" stroke-width="2" stroke-miterlimit="10" points="21.980957,113.793457 
		21.980957,113.793457 10.5249023,125.2519531 21.980957,136.7119141 33.4414063,125.2519531 	"/>
	<polygon fill="none" stroke="#272525" stroke-width="2" stroke-miterlimit="10" points="44.9013672,136.7119141 
		44.9013672,136.7119141 33.4448242,148.1699219 44.9013672,159.6318359 56.3579102,148.1699219 	"/>
	<polygon fill="none" stroke="#272525" stroke-width="2" stroke-miterlimit="10" points="67.8198242,159.6318359 
		67.8198242,159.6318359 56.3613281,171.0898438 67.8212891,182.5498047 79.2783203,171.0898438 	"/>
	<polygon fill="none" stroke="#272525" stroke-width="2" stroke-miterlimit="10" points="90.7373047,182.5498047 
		90.7373047,182.5498047 79.28125,194.0097656 90.7387695,205.46875 102.1982422,194.0097656 	"/>
	<polygon fill="none" stroke="#272525" stroke-width="2" stroke-miterlimit="10" points="113.6577148,205.46875 
		113.6577148,205.46875 102.2011719,216.9277344 113.6577148,228.3876953 125.1142578,216.9277344 	"/>
	<polygon fill="none" stroke="#272525" stroke-width="2" stroke-miterlimit="10" points="136.578125,228.3876953 
		136.578125,228.3876953 125.1176758,239.8476563 136.578125,251.3066406 148.0332031,239.8476563 	"/>
	<polygon fill="none" stroke="#272525" stroke-width="2" stroke-miterlimit="10" points="-0.9350586,136.7119141 
		-0.9350586,136.7119141 -7.9394531,143.7158203 -7.9394531,152.6269531 -0.9350586,159.6318359 10.5249023,148.1699219 	"/>
	<polygon fill="none" stroke="#272525" stroke-width="2" stroke-miterlimit="10" points="21.980957,159.6318359 
		21.980957,159.6318359 10.5249023,171.0898438 21.980957,182.5498047 33.4414063,171.0898438 	"/>
	<polygon fill="none" stroke="#272525" stroke-width="2" stroke-miterlimit="10" points="44.8999023,182.5498047 
		44.8999023,182.5498047 33.4414063,194.0097656 44.9013672,205.46875 56.3579102,194.0097656 	"/>
	<polygon fill="none" stroke="#272525" stroke-width="2" stroke-miterlimit="10" points="67.8198242,205.46875 
		67.8198242,205.46875 56.3613281,216.9277344 67.8212891,228.3876953 79.2783203,216.9306641 	"/>
	<polygon fill="none" stroke="#272525" stroke-width="2" stroke-miterlimit="10" points="90.7373047,228.3876953 
		90.7373047,228.3876953 79.28125,239.8476563 90.7373047,251.3066406 102.1982422,239.8476563 	"/>
	<polygon fill="none" stroke="#272525" stroke-width="2" stroke-miterlimit="10" points="-0.9350586,182.5498047 
		-0.9350586,182.5498047 -7.9394531,189.5537109 -7.9394531,198.4648438 -0.9350586,205.46875 10.5249023,194.0078125 	"/>
	<polygon fill="none" stroke="#272525" stroke-width="2" stroke-miterlimit="10" points="21.9829102,205.46875 
		21.9829102,205.46875 10.5249023,216.9277344 21.980957,228.3876953 33.4414063,216.9248047 	"/>
	<polygon fill="none" stroke="#272525" stroke-width="2" stroke-miterlimit="10" points="44.9013672,228.3867188 
		44.9013672,228.3867188 33.4414063,239.8476563 44.9013672,251.3076172 56.3613281,239.8476563 	"/>
	<polygon fill="none" stroke="#272525" stroke-width="2" stroke-miterlimit="10" points="-0.9350586,228.3867188 
		-0.9350586,228.3867188 -7.9394531,235.3916016 -7.9394531,244.3027344 -0.9350586,251.3066406 10.5249023,239.8476563 	"/>
</g>
</svg>
