<?xml version="1.0" encoding="utf-8"?>
<!-- Generator: Adobe Illustrator 16.0.0, SVG Export Plug-In . SVG Version: 6.00 Build 0)  -->
<!DOCTYPE svg PUBLIC "-//W3C//DTD SVG 1.1//EN" "http://www.w3.org/Graphics/SVG/1.1/DTD/svg11.dtd">
<svg version="1.1" xmlns="http://www.w3.org/2000/svg" xmlns:xlink="http://www.w3.org/1999/xlink" x="0px" y="0px" width="250px"
	 height="250px" viewBox="0 0 250 250" enable-background="new 0 0 250 250" xml:space="preserve">
<g id="Layer_2_copy_10" opacity="0.1">
	<g>
		<polygon points="24.9433594,-6.4863281 27.9140625,-0.4667969 34.5566406,0.4980469 29.75,5.1835938 30.8847656,11.7988281 
			24.9433594,8.6748047 19.0024414,11.7988281 20.1376953,5.1835938 15.3305664,0.4980469 21.9726563,-0.4667969 		"/>
		<polygon points="74.9433594,-6.4863281 77.9140625,-0.4667969 84.5566406,0.4980469 79.75,5.1835938 80.8847656,11.7988281 
			74.9433594,8.6748047 69.0024414,11.7988281 70.1376953,5.1835938 65.3305664,0.4980469 71.9726563,-0.4667969 		"/>
		<polygon points="124.9433594,-6.4863281 127.9140625,-0.4667969 134.5566406,0.4980469 129.75,5.1835938 130.8847656,11.7988281 
			124.9433594,8.6748047 119.0019531,11.7988281 120.1376953,5.1835938 115.3300781,0.4980469 121.9726563,-0.4667969 		"/>
		<polygon points="174.9433594,-6.4863281 177.9140625,-0.4667969 184.5566406,0.4980469 179.75,5.1835938 180.8847656,11.7988281 
			174.9433594,8.6748047 169.0019531,11.7988281 170.1376953,5.1835938 165.3300781,0.4980469 171.9726563,-0.4667969 		"/>
		<polygon points="224.9433594,-6.4863281 227.9140625,-0.4667969 234.5566406,0.4980469 229.75,5.1835938 230.8847656,11.7988281 
			224.9433594,8.6748047 219.0019531,11.7988281 220.1376953,5.1835938 215.3300781,0.4980469 221.9726563,-0.4667969 		"/>
		<polygon points="-0.0566406,23.5136719 2.9140625,29.5332031 9.5566406,30.4980469 4.75,35.1835938 5.8847656,41.7988281 
			-0.0566406,38.6748047 -5.9975586,41.7988281 -4.8623047,35.1835938 -9.6694336,30.4980469 -3.0273438,29.5332031 		"/>
		<polygon points="49.9433594,23.5136719 52.9140625,29.5332031 59.5566406,30.4980469 54.75,35.1835938 55.8847656,41.7988281 
			49.9433594,38.6748047 44.0024414,41.7988281 45.1376953,35.1835938 40.3305664,30.4980469 46.9726563,29.5332031 		"/>
		<polygon points="99.9433594,23.5136719 102.9140625,29.5332031 109.5566406,30.4980469 104.75,35.1835938 105.8847656,41.7988281 
			99.9433594,38.6748047 94.0019531,41.7988281 95.1376953,35.1835938 90.3300781,30.4980469 96.9726563,29.5332031 		"/>
		<polygon points="149.9433594,23.5136719 152.9140625,29.5332031 159.5566406,30.4980469 154.75,35.1835938 
			155.8847656,41.7988281 149.9433594,38.6748047 144.0019531,41.7988281 145.1376953,35.1835938 140.3300781,30.4980469 
			146.9726563,29.5332031 		"/>
		<polygon points="199.9433594,23.5136719 202.9140625,29.5332031 209.5566406,30.4980469 204.75,35.1835938 
			205.8847656,41.7988281 199.9433594,38.6748047 194.0019531,41.7988281 195.1376953,35.1835938 190.3300781,30.4980469 
			196.9726563,29.5332031 		"/>
		<polygon points="250.3867188,23.5136719 253.3574219,29.5332031 260,30.4980469 255.1933594,35.1835938 256.328125,41.7988281 
			250.3867188,38.6748047 244.4453125,41.7988281 245.5810547,35.1835938 240.7734375,30.4980469 247.4160156,29.5332031 		"/>
	</g>
</g>
<g id="Layer_2_copy_11" opacity="0.1">
	<g>
		<polygon points="24.9433594,53.5136719 27.9140625,59.5332031 34.5566406,60.4980469 29.75,65.1835938 30.8847656,71.7988281 
			24.9433594,68.6748047 19.0024414,71.7988281 20.1376953,65.1835938 15.3305664,60.4980469 21.9726563,59.5332031 		"/>
		<polygon points="74.9433594,53.5136719 77.9140625,59.5332031 84.5566406,60.4980469 79.75,65.1835938 80.8847656,71.7988281 
			74.9433594,68.6748047 69.0024414,71.7988281 70.1376953,65.1835938 65.3305664,60.4980469 71.9726563,59.5332031 		"/>
		<polygon points="124.9433594,53.5136719 127.9140625,59.5332031 134.5566406,60.4980469 129.75,65.1835938 
			130.8847656,71.7988281 124.9433594,68.6748047 119.0019531,71.7988281 120.1376953,65.1835938 115.3300781,60.4980469 
			121.9726563,59.5332031 		"/>
		<polygon points="174.9433594,53.5136719 177.9140625,59.5332031 184.5566406,60.4980469 179.75,65.1835938 
			180.8847656,71.7988281 174.9433594,68.6748047 169.0019531,71.7988281 170.1376953,65.1835938 165.3300781,60.4980469 
			171.9726563,59.5332031 		"/>
		<polygon points="224.9433594,53.5136719 227.9140625,59.5332031 234.5566406,60.4980469 229.75,65.1835938 
			230.8847656,71.7988281 224.9433594,68.6748047 219.0019531,71.7988281 220.1376953,65.1835938 215.3300781,60.4980469 
			221.9726563,59.5332031 		"/>
		<polygon points="-0.0566406,83.5136719 2.9140625,89.5332031 9.5566406,90.4980469 4.75,95.1835938 5.8847656,101.7988281 
			-0.0566406,98.6748047 -5.9975586,101.7988281 -4.8623047,95.1835938 -9.6694336,90.4980469 -3.0273438,89.5332031 		"/>
		<polygon points="49.9433594,83.5136719 52.9140625,89.5332031 59.5566406,90.4980469 54.75,95.1835938 55.8847656,101.7988281 
			49.9433594,98.6748047 44.0024414,101.7988281 45.1376953,95.1835938 40.3305664,90.4980469 46.9726563,89.5332031 		"/>
		<polygon points="99.9433594,83.5136719 102.9140625,89.5332031 109.5566406,90.4980469 104.75,95.1835938 
			105.8847656,101.7988281 99.9433594,98.6748047 94.0019531,101.7988281 95.1376953,95.1835938 90.3300781,90.4980469 
			96.9726563,89.5332031 		"/>
		<polygon points="149.9433594,83.5136719 152.9140625,89.5332031 159.5566406,90.4980469 154.75,95.1835938 
			155.8847656,101.7988281 149.9433594,98.6748047 144.0019531,101.7988281 145.1376953,95.1835938 140.3300781,90.4980469 
			146.9726563,89.5332031 		"/>
		<polygon points="199.9433594,83.5136719 202.9140625,89.5332031 209.5566406,90.4980469 204.75,95.1835938 
			205.8847656,101.7988281 199.9433594,98.6748047 194.0019531,101.7988281 195.1376953,95.1835938 190.3300781,90.4980469 
			196.9726563,89.5332031 		"/>
		<polygon points="250.3867188,83.5136719 253.3574219,89.5332031 260,90.4980469 255.1933594,95.1835938 256.328125,101.7988281 
			250.3867188,98.6748047 244.4453125,101.7988281 245.5810547,95.1835938 240.7734375,90.4980469 247.4160156,89.5332031 		"/>
	</g>
</g>
<g id="Layer_2_copy_12" opacity="0.1">
	<g>
		<polygon points="24.9433594,113.5136719 27.9140625,119.5332031 34.5566406,120.4980469 29.75,125.1835938 
			30.8847656,131.7988281 24.9433594,128.6748047 19.0024414,131.7988281 20.1376953,125.1835938 15.3305664,120.4980469 
			21.9726563,119.5332031 		"/>
		<polygon points="74.9433594,113.5136719 77.9140625,119.5332031 84.5566406,120.4980469 79.75,125.1835938 
			80.8847656,131.7988281 74.9433594,128.6748047 69.0024414,131.7988281 70.1376953,125.1835938 65.3305664,120.4980469 
			71.9726563,119.5332031 		"/>
		<polygon points="124.9433594,113.5136719 127.9140625,119.5332031 134.5566406,120.4980469 129.75,125.1835938 
			130.8847656,131.7988281 124.9433594,128.6748047 119.0019531,131.7988281 120.1376953,125.1835938 115.3300781,120.4980469 
			121.9726563,119.5332031 		"/>
		<polygon points="174.9433594,113.5136719 177.9140625,119.5332031 184.5566406,120.4980469 179.75,125.1835938 
			180.8847656,131.7988281 174.9433594,128.6748047 169.0019531,131.7988281 170.1376953,125.1835938 165.3300781,120.4980469 
			171.9726563,119.5332031 		"/>
		<polygon points="224.9433594,113.5136719 227.9140625,119.5332031 234.5566406,120.4980469 229.75,125.1835938 
			230.8847656,131.7988281 224.9433594,128.6748047 219.0019531,131.7988281 220.1376953,125.1835938 215.3300781,120.4980469 
			221.9726563,119.5332031 		"/>
		<polygon points="-0.0566406,143.5136719 2.9140625,149.5332031 9.5566406,150.4980469 4.75,155.1835938 5.8847656,161.7988281 
			-0.0566406,158.6748047 -5.9975586,161.7988281 -4.8623047,155.1835938 -9.6694336,150.4980469 -3.0273438,149.5332031 		"/>
		<polygon points="49.9433594,143.5136719 52.9140625,149.5332031 59.5566406,150.4980469 54.75,155.1835938 
			55.8847656,161.7988281 49.9433594,158.6748047 44.0024414,161.7988281 45.1376953,155.1835938 40.3305664,150.4980469 
			46.9726563,149.5332031 		"/>
		<polygon points="99.9433594,143.5136719 102.9140625,149.5332031 109.5566406,150.4980469 104.75,155.1835938 
			105.8847656,161.7988281 99.9433594,158.6748047 94.0019531,161.7988281 95.1376953,155.1835938 90.3300781,150.4980469 
			96.9726563,149.5332031 		"/>
		<polygon points="149.9433594,143.5136719 152.9140625,149.5332031 159.5566406,150.4980469 154.75,155.1835938 
			155.8847656,161.7988281 149.9433594,158.6748047 144.0019531,161.7988281 145.1376953,155.1835938 140.3300781,150.4980469 
			146.9726563,149.5332031 		"/>
		<polygon points="199.9433594,143.5136719 202.9140625,149.5332031 209.5566406,150.4980469 204.75,155.1835938 
			205.8847656,161.7988281 199.9433594,158.6748047 194.0019531,161.7988281 195.1376953,155.1835938 190.3300781,150.4980469 
			196.9726563,149.5332031 		"/>
		<polygon points="250.3867188,143.5136719 253.3574219,149.5332031 260,150.4980469 255.1933594,155.1835938 
			256.328125,161.7988281 250.3867188,158.6748047 244.4453125,161.7988281 245.5810547,155.1835938 240.7734375,150.4980469 
			247.4160156,149.5332031 		"/>
	</g>
</g>
<g id="Layer_2_copy_13" opacity="0.1">
	<g>
		<polygon points="24.9433594,173.5136719 27.9140625,179.5332031 34.5566406,180.4980469 29.75,185.1835938 
			30.8847656,191.7988281 24.9433594,188.6748047 19.0024414,191.7988281 20.1376953,185.1835938 15.3305664,180.4980469 
			21.9726563,179.5332031 		"/>
		<polygon points="74.9433594,173.5136719 77.9140625,179.5332031 84.5566406,180.4980469 79.75,185.1835938 
			80.8847656,191.7988281 74.9433594,188.6748047 69.0024414,191.7988281 70.1376953,185.1835938 65.3305664,180.4980469 
			71.9726563,179.5332031 		"/>
		<polygon points="124.9433594,173.5136719 127.9140625,179.5332031 134.5566406,180.4980469 129.75,185.1835938 
			130.8847656,191.7988281 124.9433594,188.6748047 119.0019531,191.7988281 120.1376953,185.1835938 115.3300781,180.4980469 
			121.9726563,179.5332031 		"/>
		<polygon points="174.9433594,173.5136719 177.9140625,179.5332031 184.5566406,180.4980469 179.75,185.1835938 
			180.8847656,191.7988281 174.9433594,188.6748047 169.0019531,191.7988281 170.1376953,185.1835938 165.3300781,180.4980469 
			171.9726563,179.5332031 		"/>
		<polygon points="224.9433594,173.5136719 227.9140625,179.5332031 234.5566406,180.4980469 229.75,185.1835938 
			230.8847656,191.7988281 224.9433594,188.6748047 219.0019531,191.7988281 220.1376953,185.1835938 215.3300781,180.4980469 
			221.9726563,179.5332031 		"/>
		<polygon points="-0.0566406,203.5136719 2.9140625,209.5332031 9.5566406,210.4980469 4.75,215.1835938 5.8847656,221.7988281 
			-0.0566406,218.6748047 -5.9975586,221.7988281 -4.8623047,215.1835938 -9.6694336,210.4980469 -3.0273438,209.5332031 		"/>
		<polygon points="49.9433594,203.5136719 52.9140625,209.5332031 59.5566406,210.4980469 54.75,215.1835938 
			55.8847656,221.7988281 49.9433594,218.6748047 44.0024414,221.7988281 45.1376953,215.1835938 40.3305664,210.4980469 
			46.9726563,209.5332031 		"/>
		<polygon points="99.9433594,203.5136719 102.9140625,209.5332031 109.5566406,210.4980469 104.75,215.1835938 
			105.8847656,221.7988281 99.9433594,218.6748047 94.0019531,221.7988281 95.1376953,215.1835938 90.3300781,210.4980469 
			96.9726563,209.5332031 		"/>
		<polygon points="149.9433594,203.5136719 152.9140625,209.5332031 159.5566406,210.4980469 154.75,215.1835938 
			155.8847656,221.7988281 149.9433594,218.6748047 144.0019531,221.7988281 145.1376953,215.1835938 140.3300781,210.4980469 
			146.9726563,209.5332031 		"/>
		<polygon points="199.9433594,203.5136719 202.9140625,209.5332031 209.5566406,210.4980469 204.75,215.1835938 
			205.8847656,221.7988281 199.9433594,218.6748047 194.0019531,221.7988281 195.1376953,215.1835938 190.3300781,210.4980469 
			196.9726563,209.5332031 		"/>
		<polygon points="250.3867188,203.5136719 253.3574219,209.5332031 260,210.4980469 255.1933594,215.1835938 
			256.328125,221.7988281 250.3867188,218.6748047 244.4453125,221.7988281 245.5810547,215.1835938 240.7734375,210.4980469 
			247.4160156,209.5332031 		"/>
	</g>
</g>
<g id="Layer_2_copy_14" opacity="0.1">
	<g>
		<polygon points="24.9433594,233.5136719 27.9140625,239.5332031 34.5566406,240.4980469 29.75,245.1835938 
			30.8847656,251.7988281 24.9433594,248.6748047 19.0024414,251.7988281 20.1376953,245.1835938 15.3305664,240.4980469 
			21.9726563,239.5332031 		"/>
		<polygon points="74.9433594,233.5136719 77.9140625,239.5332031 84.5566406,240.4980469 79.75,245.1835938 
			80.8847656,251.7988281 74.9433594,248.6748047 69.0024414,251.7988281 70.1376953,245.1835938 65.3305664,240.4980469 
			71.9726563,239.5332031 		"/>
		<polygon points="124.9433594,233.5136719 127.9140625,239.5332031 134.5566406,240.4980469 129.75,245.1835938 
			130.8847656,251.7988281 124.9433594,248.6748047 119.0019531,251.7988281 120.1376953,245.1835938 115.3300781,240.4980469 
			121.9726563,239.5332031 		"/>
		<polygon points="174.9433594,233.5136719 177.9140625,239.5332031 184.5566406,240.4980469 179.75,245.1835938 
			180.8847656,251.7988281 174.9433594,248.6748047 169.0019531,251.7988281 170.1376953,245.1835938 165.3300781,240.4980469 
			171.9726563,239.5332031 		"/>
		<polygon points="224.9433594,233.5136719 227.9140625,239.5332031 234.5566406,240.4980469 229.75,245.1835938 
			230.8847656,251.7988281 224.9433594,248.6748047 219.0019531,251.7988281 220.1376953,245.1835938 215.3300781,240.4980469 
			221.9726563,239.5332031 		"/>
	</g>
</g>
</svg>
