<?xml version="1.0" encoding="utf-8"?>
<!-- Generator: Adobe Illustrator 16.0.0, SVG Export Plug-In . SVG Version: 6.00 Build 0)  -->
<!DOCTYPE svg PUBLIC "-//W3C//DTD SVG 1.1//EN" "http://www.w3.org/Graphics/SVG/1.1/DTD/svg11.dtd">
<svg version="1.1" id="Layer_2_copy_14" xmlns="http://www.w3.org/2000/svg" xmlns:xlink="http://www.w3.org/1999/xlink" x="0px"
	 y="0px" width="250px" height="250px" viewBox="0 0 250 250" enable-background="new 0 0 250 250" xml:space="preserve">
<g opacity="0.1">
	<g>
		<g>
			<path d="M267.8027344,4.53125c-5.0859375-1.5410156-10.9228516-3.5957031-15.8291016-8.5029297
				c-4.90625-4.9052734-6.9619141-10.7426758-8.5029297-15.8291016l4.4892578-1.3608398
				c1.4394531,4.75,3.1914063,9.7338867,7.3310547,13.8725586c4.1386719,4.1396484,9.1220703,5.8916016,13.8720703,7.3300781
				L267.8027344,4.53125z"/>
		</g>
		<g>
			<path d="M267.6298828,17.2675781C265.3378906,16.3720703,263,15.6875,260.5253906,14.9628906
				c-6.2841797-1.8398438-12.7822266-3.7441406-18.2617188-9.2246094
				c-5.4814453-5.4804688-7.3847656-11.9775391-9.2246094-18.2617188c-0.7255859-2.4750977-1.4101563-4.8125-2.3046875-7.1044922
				l4.3701172-1.706543c0.9697266,2.4829102,1.7148438,5.0297852,2.4365234,7.4926758
				c1.7519531,5.9814453,3.4072266,11.6308594,8.0390625,16.2636719c4.6328125,4.6318359,10.2822266,6.2871094,16.2636719,8.0390625
				c2.4628906,0.7207031,5.0097656,1.4667969,7.4921875,2.4365234L267.6298828,17.2675781z"/>
		</g>
		<g>
			<path d="M266.8476563,32.4853516c-4.5878906-4.4599609-10.1474609-6.0888672-16.0332031-7.8125
				c-6.2841797-1.8408203-12.7822266-3.7431641-18.2617188-9.2236328C227.0722656,9.96875,225.1689453,3.4707031,223.328125-2.8125
				c-1.7236328-5.8867188-3.3515625-11.4448242-7.8125-16.0341797l3.3642578-3.269043
				c5.2714844,5.4228516,7.1416016,11.809082,8.9501953,17.9838867C229.5820313,1.8496094,231.2373047,7.5,235.8691406,12.1318359
				c4.6328125,4.6318359,10.2832031,6.2871094,16.2636719,8.0390625c6.1757813,1.8095703,12.5615234,3.6787109,17.984375,8.9501953
				L266.8476563,32.4853516z"/>
		</g>
		<g>
			<path d="M266.2402344,61.4882813c-0.2851563-0.9316406-0.5595703-1.8671875-0.8339844-2.8017578
				C263.6552734,52.7050781,262,47.0546875,257.3681641,42.421875c-4.6328125-4.6308594-10.2822266-6.2861328-16.2636719-8.0371094
				c-6.2841797-1.8417969-12.7822266-3.7451172-18.2626953-9.2246094
				c-5.4804688-5.4804688-7.3828125-11.9785156-9.2246094-18.2626953c-1.7519531-5.9814453-3.40625-11.6318359-8.0380859-16.2646484
				c-4.6328125-4.6313477-10.2822266-6.2861328-16.2636719-8.0380859c-0.9355469-0.2739258-1.8701172-0.5478516-2.8017578-0.8330078
				l1.3740234-4.4853516c0.9130859,0.2792969,1.8291016,0.5478516,2.7460938,0.815918
				c6.2841797,1.8408203,12.7822266,3.7436523,18.2626953,9.2241211c5.4794922,5.4804688,7.3828125,11.9785156,9.2236328,18.2626953
				c1.7519531,5.9814453,3.40625,11.6308594,8.0390625,16.2636719c4.6318359,4.6318359,10.2822266,6.2861328,16.2636719,8.0380859
				c6.2841797,1.8417969,12.7822266,3.7441406,18.2626953,9.2246094s7.3828125,11.9785156,9.2236328,18.2626953
				c0.2685547,0.9169922,0.5361328,1.8330078,0.8164063,2.7451172L266.2402344,61.4882813z"/>
		</g>
		<g>
			<path d="M267.0039063,88.5390625c-0.7207031-0.5859375-1.4208984-1.2177734-2.0830078-1.8789063
				c-5.4804688-5.4804688-7.3837891-11.9785156-9.2246094-18.2636719c-1.7519531-5.9804688-3.40625-11.6308594-8.0380859-16.2636719
				c-4.6328125-4.6318359-10.2832031-6.2871094-16.2636719-8.0380859
				c-6.2851563-1.8408203-12.7832031-3.7441406-18.2636719-9.2246094
				c-5.4794922-5.4794922-7.3828125-11.9775391-9.2236328-18.2626953c-1.7519531-5.9804688-3.40625-11.6308594-8.0380859-16.2636719
				c-4.6328125-4.6318359-10.2832031-6.2871094-16.2646484-8.0390625
				c-6.2841797-1.8398438-12.7822266-3.7436523-18.2626953-9.2236328c-0.6621094-0.6625977-1.2929688-1.362793-1.8789063-2.0830078
				l3.640625-2.9584961c0.484375,0.5961914,1.0078125,1.1762695,1.5566406,1.7250977
				c4.6318359,4.6318359,10.28125,6.2861328,16.2626953,8.0380859c6.2841797,1.8408203,12.7822266,3.7441406,18.2626953,9.2246094
				c5.4804688,5.4794922,7.3837891,11.9785156,9.2246094,18.2617188c1.7519531,5.9814453,3.40625,11.6318359,8.0380859,16.2636719
				c4.6328125,4.6328125,10.2822266,6.2871094,16.2636719,8.0390625c6.2841797,1.8408203,12.7822266,3.7441406,18.2626953,9.2246094
				c5.4804688,5.4794922,7.3837891,11.9785156,9.2246094,18.2617188c1.7519531,5.9824219,3.40625,11.6318359,8.0380859,16.2636719
				c0.5488281,0.5478516,1.1289063,1.0722656,1.7246094,1.5556641L267.0039063,88.5390625z"/>
		</g>
		<g>
			<path d="M267.7070313,103.7949219c-3.6347656-1.2724609-8.3398438-3.2675781-12.4970703-7.4248047
				c-5.4794922-5.4804688-7.3837891-11.9785156-9.2236328-18.2626953c-1.7519531-5.9814453-3.40625-11.6308594-8.0390625-16.2636719
				s-10.2822266-6.2871094-16.2636719-8.0390625c-6.2841797-1.8398438-12.7822266-3.7441406-18.2626953-9.2246094
				c-5.4794922-5.4794922-7.3837891-11.9775391-9.2236328-18.2617188c-1.7519531-5.9814453-3.40625-11.6308594-8.0390625-16.2636719
				s-10.2822266-6.2871094-16.2636719-8.0390625c-6.2841797-1.8408203-12.7832031-3.7441406-18.2626953-9.2246094
				c-4.1572266-4.1567383-6.1523438-8.8623047-7.4257813-12.4970703l4.4277344-1.550293
				c1.1083984,3.1645508,2.828125,7.2436523,6.3154297,10.730957c4.6328125,4.6328125,10.2822266,6.2871094,16.2636719,8.0390625
				c6.2841797,1.8398438,12.7822266,3.7441406,18.2626953,9.2236328C194.9550781,12.2167969,196.8583984,18.7158203,198.6992188,25
				c1.7519531,5.9804688,3.40625,11.6308594,8.0390625,16.2636719s10.2822266,6.2871094,16.2636719,8.0390625
				c6.2841797,1.8398438,12.7822266,3.7441406,18.2626953,9.2236328c5.4794922,5.4804688,7.3828125,11.9785156,9.2236328,18.2626953
				c1.7519531,5.9814453,3.40625,11.6308594,8.0390625,16.2636719c3.4873047,3.4863281,7.5664063,5.2070313,10.7304688,6.3144531
				L267.7070313,103.7949219z"/>
		</g>
		<g>
			<path d="M267.7636719,116.5146484c-1.3261719-0.4267578-2.6640625-0.8193359-4.0019531-1.2109375
				c-6.2841797-1.8398438-12.7822266-3.7431641-18.2617188-9.2236328
				c-5.4804688-5.4804688-7.3837891-11.9775391-9.2236328-18.2617188
				c-1.7529297-5.9814453-3.4082031-11.6308594-8.0400391-16.2636719
				c-4.6328125-4.6328125-10.2822266-6.2871094-16.2636719-8.0400391
				c-6.2841797-1.8398438-12.7822266-3.7431641-18.2617188-9.2236328
				c-5.4804688-5.4804688-7.3837891-11.9775391-9.2246094-18.2617188c-1.7519531-5.9824219-3.40625-11.6318359-8.0390625-16.2646484
				c-4.6318359-4.6318359-10.2822266-6.2861328-16.2636719-8.0380859
				c-6.2841797-1.8408203-12.7822266-3.7441406-18.2617188-9.2246094
				c-5.4804688-5.4794922-7.3837891-11.9775391-9.2246094-18.2617188c-0.3916016-1.3378906-0.7832031-2.6757813-1.2109375-4.0019531
				l4.4658203-1.4384766c0.4404297,1.3662109,0.84375,2.7441406,1.2470703,4.1220703
				c1.7519531,5.980957,3.4072266,11.6308594,8.0390625,16.2636719c4.6328125,4.6318359,10.2822266,6.2861328,16.2636719,8.0380859
				c6.2841797,1.8408203,12.7822266,3.7441406,18.2617188,9.2236328c5.4814453,5.4804688,7.3847656,11.9785156,9.2255859,18.2636719
				c1.7509766,5.9804688,3.40625,11.6308594,8.0380859,16.2636719c4.6328125,4.6308594,10.2822266,6.2861328,16.2636719,8.0380859
				c6.2841797,1.8408203,12.7822266,3.7441406,18.2626953,9.2246094C237.0341797,73.7167969,238.9375,80.2158203,240.7783203,86.5
				c1.7519531,5.9804688,3.40625,11.6308594,8.0380859,16.2636719c4.6328125,4.6308594,10.2822266,6.2861328,16.2636719,8.0380859
				c1.3779297,0.4033203,2.7558594,0.8076172,4.1220703,1.2480469L267.7636719,116.5146484z"/>
		</g>
		<g>
			<path d="M267.1503906,130.4199219c-3.9492188-2.7255859-8.3935547-4.0273438-13.0996094-5.4052734
				c-6.2832031-1.8408203-12.78125-3.7441406-18.2617188-9.2236328c-5.4794922-5.4804688-7.3828125-11.9785156-9.2236328-18.2617188
				c-1.7519531-5.9824219-3.4072266-11.6318359-8.0390625-16.2646484
				c-4.6328125-4.6318359-10.2832031-6.2871094-16.2646484-8.0400391c-6.2832031-1.8398438-12.78125-3.7431641-18.2617188-9.2226563
				c-5.4804688-5.4804688-7.3828125-11.9785156-9.2236328-18.2617188
				c-1.7519531-5.9824219-3.4072266-11.6318359-8.0400391-16.2646484
				c-4.6318359-4.6318359-10.2822266-6.2871094-16.2636719-8.0400391c-6.2841797-1.8398438-12.78125-3.7431641-18.2617188-9.2226563
				c-5.4804688-5.4804688-7.3828125-11.9785156-9.2246094-18.2626953
				c-1.3779297-4.7050781-2.6796875-9.1494141-5.4042969-13.0991211l3.8613281-2.6645508
				c3.1542969,4.5712891,4.6240234,9.5908203,6.0458984,14.4453125c1.7509766,5.9814453,3.40625,11.6318359,8.0380859,16.2636719
				c4.6328125,4.6318359,10.2832031,6.2861328,16.2636719,8.0380859c6.2841797,1.8417969,12.7832031,3.7441406,18.2626953,9.2246094
				c5.4804688,5.4804688,7.3837891,11.9785156,9.2246094,18.2636719c1.7519531,5.9804688,3.40625,11.6308594,8.0390625,16.2626953
				c4.6318359,4.6318359,10.2822266,6.2861328,16.2626953,8.0380859c6.2841797,1.8417969,12.7832031,3.7441406,18.2626953,9.2246094
				c5.4804688,5.4804688,7.3837891,11.9785156,9.2246094,18.2636719c1.7519531,5.9804688,3.4072266,11.6308594,8.0390625,16.2626953
				s10.2822266,6.2871094,16.2636719,8.0390625c4.8544922,1.421875,9.8740234,2.8916016,14.4443359,6.0458984
				L267.1503906,130.4199219z"/>
		</g>
		<g>
			<path d="M266.2998047,151.8232422c-1.4873047-3.7822266-3.296875-6.6601563-5.6953125-9.0585938
				c-4.6318359-4.6328125-10.2822266-6.2871094-16.2626953-8.0390625
				c-6.2851563-1.8408203-12.7832031-3.7441406-18.2626953-9.2246094
				c-5.4804688-5.4794922-7.3837891-11.9775391-9.2236328-18.2607422
				c-1.7529297-5.9824219-3.4082031-11.6328125-8.0400391-16.265625
				c-4.6328125-4.6308594-10.2822266-6.2871094-16.2646484-8.0390625c-6.2832031-1.8398438-12.78125-3.7441406-18.2607422-9.2236328
				c-5.4804688-5.4794922-7.3837891-11.9775391-9.2246094-18.2617188
				c-1.7519531-5.9814453-3.4072266-11.6318359-8.0390625-16.2646484
				c-4.6318359-4.6318359-10.2822266-6.2871094-16.2646484-8.0390625c-6.2832031-1.8398438-12.78125-3.7441406-18.2617188-9.2236328
				s-7.3828125-11.9785156-9.2236328-18.2626953c-1.7519531-5.9804688-3.4072266-11.6308594-8.0390625-16.2636719
				c-2.3984375-2.3979492-5.2763672-4.2075195-9.0585938-5.6948242l1.7158203-4.3657227
				c4.4023438,1.7314453,7.7900391,3.8740234,10.6601563,6.7431641c5.4804688,5.4804688,7.3837891,11.9785156,9.2236328,18.2626953
				c1.7519531,5.9814453,3.4072266,11.6308594,8.0390625,16.2636719s10.2822266,6.2871094,16.2636719,8.0390625
				c6.2841797,1.8408203,12.7822266,3.7441406,18.2626953,9.2246094s7.3837891,11.9785156,9.2246094,18.2626953
				c1.7519531,5.9814453,3.40625,11.6308594,8.0380859,16.2626953c4.6318359,4.6328125,10.2822266,6.2871094,16.2636719,8.0390625
				c6.2841797,1.8408203,12.7822266,3.7441406,18.2626953,9.2246094s7.3837891,11.9785156,9.2246094,18.2626953
				c1.7519531,5.9814453,3.40625,11.6308594,8.0380859,16.2626953c4.6328125,4.6328125,10.2832031,6.2880859,16.2636719,8.0400391
				c6.2841797,1.8398438,12.7832031,3.7431641,18.2626953,9.2236328c2.8691406,2.8691406,5.0126953,6.2568359,6.7441406,10.6582031
				L266.2998047,151.8232422z"/>
		</g>
		<g>
			<path d="M266.6992188,185.4228516c-4.3828125-5.1347656-6.1025391-11.0058594-7.765625-16.6835938
				c-1.7519531-5.9814453-3.40625-11.6318359-8.0390625-16.2646484c-4.6328125-4.6318359-10.2822266-6.2871094-16.2636719-8.0390625
				c-6.2851563-1.8408203-12.7822266-3.7431641-18.2626953-9.2236328
				c-5.4794922-5.4804688-7.3837891-11.9775391-9.2236328-18.2617188
				c-1.7519531-5.9814453-3.4072266-11.6318359-8.0390625-16.2646484
				c-4.6328125-4.6318359-10.2832031-6.2871094-16.2646484-8.0390625c-6.2841797-1.8408203-12.78125-3.7441406-18.2617188-9.2246094
				c-5.4804688-5.4794922-7.3837891-11.9775391-9.2236328-18.2617188
				c-1.7519531-5.9814453-3.4072266-11.6308594-8.0390625-16.2636719
				c-4.6328125-4.6328125-10.2832031-6.2871094-16.2646484-8.0390625
				c-6.2841797-1.8408203-12.7822266-3.7441406-18.2617188-9.2246094
				c-5.4804688-5.4794922-7.3837891-11.9785156-9.2246094-18.2617188c-1.7519531-5.9824219-3.40625-11.6308594-8.0380859-16.2636719
				c-4.6328125-4.6328125-10.2832031-6.2871094-16.2646484-8.0390625
				c-5.6777344-1.6630859-11.5488281-3.3823242-16.6845703-7.765625l3.0458984-3.5678711
				c4.3720703,3.7304688,9.5136719,5.2363281,14.9570313,6.8310547c6.2841797,1.8408203,12.7822266,3.7441406,18.2626953,9.2241211
				c5.4804688,5.4794922,7.3837891,11.9775391,9.2236328,18.2617188c1.7529297,5.9814453,3.4072266,11.6318359,8.0400391,16.2646484
				c4.6318359,4.6328125,10.28125,6.2871094,16.2626953,8.0390625c6.2841797,1.8398438,12.7822266,3.7441406,18.2626953,9.2246094
				c5.4804688,5.4794922,7.3837891,11.9775391,9.2246094,18.2617188c1.7519531,5.9814453,3.40625,11.6308594,8.0390625,16.2636719
				c4.6318359,4.6328125,10.28125,6.2871094,16.2626953,8.0390625c6.2841797,1.8398438,12.7832031,3.7441406,18.2626953,9.2246094
				c5.4804688,5.4794922,7.3837891,11.9785156,9.2246094,18.2617188c1.7519531,5.9814453,3.40625,11.6318359,8.0390625,16.2636719
				c4.6318359,4.6328125,10.2822266,6.2871094,16.2636719,8.0390625c6.2841797,1.8408203,12.7822266,3.7441406,18.2617188,9.2246094
				c5.4804688,5.4794922,7.3847656,11.9775391,9.2246094,18.2617188c1.5947266,5.4443359,3.1005859,10.5859375,6.8320313,14.9570313
				L266.6992188,185.4228516z"/>
		</g>
		<g>
			<path d="M267.5361328,202.8017578c-3.6103516-1.5917969-6.5839844-3.5839844-9.0888672-6.0898438
				c-5.4804688-5.4804688-7.3837891-11.9785156-9.2246094-18.2626953c-1.7519531-5.9814453-3.40625-11.6308594-8.0390625-16.2636719
				c-4.6318359-4.6328125-10.2822266-6.2871094-16.2636719-8.0390625
				c-6.2832031-1.8408203-12.7822266-3.7441406-18.2617188-9.2246094
				c-5.4804688-5.4794922-7.3847656-11.9775391-9.2246094-18.2617188c-1.7519531-5.9824219-3.40625-11.6318359-8.0390625-16.2636719
				c-4.6318359-4.6328125-10.2822266-6.2871094-16.2636719-8.0390625
				c-6.2832031-1.8408203-12.7822266-3.7441406-18.2617188-9.2246094
				c-5.4804688-5.4804688-7.3847656-11.9785156-9.2246094-18.2626953c-1.7519531-5.9814453-3.40625-11.6308594-8.0390625-16.2626953
				c-4.6318359-4.6328125-10.2822266-6.2871094-16.2636719-8.0390625
				c-6.2841797-1.8408203-12.7822266-3.7441406-18.2617188-9.2246094
				c-5.4804688-5.4804688-7.3847656-11.9785156-9.2246094-18.2626953
				c-1.7519531-5.9814453-3.4072266-11.6308594-8.0390625-16.2626953C81.1835938,2.1855469,75.5341797,0.53125,69.5527344-1.2207031
				C63.2675781-3.0625,56.7695313-4.9648438,51.2900391-10.4453125c-2.5068359-2.5068359-4.4990234-5.4799805-6.0908203-9.0898438
				l4.2929688-1.8920898c1.3720703,3.1113281,2.9970703,5.546875,5.1152344,7.6650391
				c4.6328125,4.6323242,10.28125,6.2866211,16.2636719,8.0385742c6.2841797,1.8408203,12.7822266,3.7441406,18.2626953,9.2246094
				c5.4794922,5.4794922,7.3828125,11.9775391,9.2236328,18.2617188c1.7519531,5.9814453,3.4072266,11.6318359,8.0390625,16.2646484
				c4.6328125,4.6318359,10.2822266,6.2871094,16.2636719,8.0390625c6.2851563,1.8398438,12.7822266,3.7431641,18.2626953,9.2236328
				c5.4794922,5.4794922,7.3828125,11.9775391,9.2236328,18.2617188c1.7519531,5.9814453,3.4072266,11.6318359,8.0390625,16.2646484
				c4.6328125,4.6318359,10.2832031,6.2871094,16.2646484,8.0390625c6.2841797,1.8398438,12.78125,3.7441406,18.2617188,9.2236328
				s7.3837891,11.9775391,9.2236328,18.2626953c1.7519531,5.9814453,3.4072266,11.6308594,8.0390625,16.2636719
				c4.6328125,4.6318359,10.2832031,6.2871094,16.2646484,8.0390625c6.2841797,1.8398438,12.78125,3.7441406,18.2617188,9.2236328
				c5.4804688,5.4804688,7.3837891,11.9785156,9.2246094,18.2626953c1.7519531,5.9814453,3.40625,11.6308594,8.0380859,16.2636719
				c2.1171875,2.1171875,4.5527344,3.7421875,7.6660156,5.1152344L267.5361328,202.8017578z"/>
		</g>
		<g>
			<path d="M267.8212891,215.8867188l-0.8232422-0.2412109c-6.2841797-1.8408203-12.78125-3.7431641-18.2617188-9.2236328
				c-5.4794922-5.4794922-7.3828125-11.9775391-9.2236328-18.2617188
				c-1.7519531-5.9814453-3.4072266-11.6318359-8.0390625-16.2646484
				c-4.6318359-4.6318359-10.2822266-6.2861328-16.2636719-8.0380859
				c-6.2841797-1.8408203-12.7822266-3.7441406-18.2626953-9.2246094s-7.3828125-11.9785156-9.2236328-18.2626953
				c-1.7519531-5.9814453-3.4072266-11.6318359-8.0390625-16.2636719s-10.2822266-6.2861328-16.2636719-8.0380859
				c-6.2841797-1.8417969-12.7822266-3.7441406-18.2626953-9.2246094s-7.3837891-11.9785156-9.2246094-18.2636719
				c-1.7519531-5.9804688-3.40625-11.6308594-8.0390625-16.2626953c-4.6318359-4.6318359-10.28125-6.2871094-16.2636719-8.0390625
				c-6.2832031-1.8408203-12.78125-3.7431641-18.2617188-9.2236328s-7.3837891-11.9785156-9.2246094-18.2636719
				c-1.7519531-5.9804688-3.40625-11.6308594-8.0390625-16.2626953c-4.6318359-4.6318359-10.2822266-6.2871094-16.2636719-8.0390625
				C53.5576172,6.6484375,47.0595703,4.7451172,41.5800781-0.734375s-7.3828125-11.9765625-9.2236328-18.2597656
				l-0.2421875-0.824707l4.5-1.324707L36.8583984-20.3125c1.7519531,5.9799805,3.4072266,11.6289063,8.0380859,16.2607422
				c4.6328125,4.6318359,10.2822266,6.2861328,16.2636719,8.0380859c6.2841797,1.8408203,12.7832031,3.7441406,18.2626953,9.2246094
				c5.4804688,5.4804688,7.3837891,11.9785156,9.2246094,18.2617188c1.7509766,5.9824219,3.40625,11.6328125,8.0390625,16.2646484
				c4.6318359,4.6318359,10.2822266,6.2871094,16.2636719,8.0390625C119.234375,57.6171875,125.7324219,59.5195313,131.2119141,65
				c5.4804688,5.4804688,7.3837891,11.9785156,9.2236328,18.2617188c1.7529297,5.9824219,3.4072266,11.6318359,8.0400391,16.2646484
				c4.6318359,4.6318359,10.2822266,6.2871094,16.2646484,8.0400391c6.2832031,1.8398438,12.78125,3.7431641,18.2607422,9.2226563
				c5.4814453,5.4804688,7.3837891,11.9785156,9.2246094,18.2626953c1.7519531,5.9814453,3.4072266,11.6318359,8.0390625,16.2636719
				s10.2822266,6.2871094,16.2646484,8.0390625c6.2832031,1.8408203,12.78125,3.7441406,18.2617188,9.2246094
				c5.4804688,5.4794922,7.3828125,11.9775391,9.2246094,18.2617188c1.7509766,5.9824219,3.40625,11.6318359,8.0380859,16.2646484
				c4.6318359,4.6318359,10.28125,6.2861328,16.2626953,8.0380859l0.828125,0.2421875L267.8212891,215.8867188z"/>
		</g>
		<g>
			<path d="M267.421875,229.0058594c-3.1777344-1.6123047-6.5566406-2.6015625-10.1347656-3.6494141
				c-6.2832031-1.8408203-12.78125-3.7441406-18.2607422-9.2236328c-5.4804688-5.4804688-7.3837891-11.9785156-9.2246094-18.2626953
				c-1.7509766-5.9814453-3.40625-11.6318359-8.0390625-16.2636719c-4.6318359-4.6328125-10.2822266-6.2871094-16.2626953-8.0390625
				c-6.2851563-1.8408203-12.7832031-3.7441406-18.2626953-9.2246094
				c-5.4804688-5.4804688-7.3837891-11.9785156-9.2246094-18.2626953
				c-1.7519531-5.9814453-3.4072266-11.6308594-8.0390625-16.2626953
				c-4.6318359-4.6328125-10.2822266-6.2871094-16.2626953-8.0390625
				c-6.2851563-1.8408203-12.7832031-3.7441406-18.2626953-9.2246094
				c-5.4804688-5.4794922-7.3837891-11.9785156-9.2246094-18.2626953
				c-1.7519531-5.9804688-3.4072266-11.6308594-8.0390625-16.2636719
				c-4.6328125-4.6318359-10.2822266-6.2871094-16.2636719-8.0390625
				c-6.2841797-1.8398438-12.7822266-3.7431641-18.2626953-9.2236328
				c-5.4804688-5.4794922-7.3828125-11.9775391-9.2246094-18.2626953c-1.7509766-5.9814453-3.40625-11.6308594-8.0380859-16.2636719
				c-4.6328125-4.6318359-10.2822266-6.2871094-16.2646484-8.0390625c-6.2841797-1.8398438-12.78125-3.7441406-18.2617188-9.2236328
				c-5.4804688-5.4804688-7.3828125-11.9775391-9.2236328-18.2607422c-1.0478516-3.578125-2.0380859-6.9575195-3.6494141-10.1347656
				l4.1826172-2.1225586c1.8095703,3.5639648,2.9072266,7.3129883,3.96875,10.9379883
				c1.7519531,5.9814453,3.4072266,11.6308594,8.0380859,16.2626953c4.6328125,4.6328125,10.2832031,6.2871094,16.2646484,8.0390625
				c6.2841797,1.8408203,12.7822266,3.7441406,18.2626953,9.2246094c5.4794922,5.4804688,7.3828125,11.9775391,9.2236328,18.2617188
				c1.7519531,5.9824219,3.40625,11.6318359,8.0390625,16.2636719c4.6318359,4.6328125,10.2822266,6.2871094,16.2636719,8.0390625
				c6.2841797,1.8408203,12.7822266,3.7441406,18.2626953,9.2246094c5.4794922,5.4804688,7.3828125,11.9775391,9.2236328,18.2617188
				c1.7519531,5.9814453,3.4072266,11.6308594,8.0390625,16.2636719c4.6328125,4.6328125,10.2832031,6.2871094,16.2646484,8.0390625
				c6.2832031,1.8417969,12.78125,3.7441406,18.2617188,9.2246094s7.3828125,11.9775391,9.2236328,18.2617188
				c1.7519531,5.9814453,3.4072266,11.6318359,8.0390625,16.2646484c4.6328125,4.6318359,10.2822266,6.2871094,16.2646484,8.0390625
				c6.2832031,1.8398438,12.78125,3.7431641,18.2617188,9.2236328s7.3828125,11.9785156,9.2246094,18.2626953
				c1.7509766,5.9814453,3.40625,11.6308594,8.0380859,16.2636719c4.6328125,4.6318359,10.2822266,6.2871094,16.2626953,8.0390625
				c3.6259766,1.0615234,7.375,2.1591797,10.9394531,3.9677734L267.421875,229.0058594z"/>
		</g>
		<g>
			<path d="M266.5449219,246.3710938c-0.8115234-1.1894531-1.6953125-2.2578125-2.703125-3.2646484
				c-4.6328125-4.6328125-10.2832031-6.2871094-16.2646484-8.0400391c-6.2841797-1.8398438-12.78125-3.7431641-18.2607422-9.2236328
				c-5.4814453-5.4794922-7.3847656-11.9785156-9.2255859-18.2626953c-1.7519531-5.9814453-3.40625-11.6308594-8.0380859-16.2636719
				c-4.6328125-4.6318359-10.2822266-6.2871094-16.2636719-8.0380859
				c-6.2841797-1.8408203-12.7822266-3.7441406-18.2626953-9.2246094
				c-5.4804688-5.4794922-7.3837891-11.9785156-9.2246094-18.2626953c-1.7519531-5.9814453-3.40625-11.6308594-8.0380859-16.2636719
				c-4.6328125-4.6318359-10.2832031-6.2871094-16.2636719-8.0380859
				c-6.2851563-1.8408203-12.7832031-3.7441406-18.2626953-9.2246094
				c-5.4804688-5.4794922-7.3837891-11.9785156-9.2246094-18.2626953c-1.7519531-5.9804688-3.40625-11.6308594-8.0380859-16.2636719
				c-4.6328125-4.6328125-10.2822266-6.2871094-16.2636719-8.0390625
				c-6.2851563-1.8398438-12.7832031-3.7441406-18.2626953-9.2246094
				c-5.4804688-5.4794922-7.3837891-11.9775391-9.2246094-18.2617188c-1.7519531-5.9814453-3.40625-11.6318359-8.0380859-16.2636719
				c-4.6328125-4.6328125-10.2822266-6.2871094-16.2636719-8.0390625
				c-6.2851563-1.8398438-12.7832031-3.7441406-18.2636719-9.2246094
				c-5.4794922-5.4794922-7.3828125-11.9775391-9.2226563-18.2617188
				c-1.7529297-5.9814453-3.4082031-11.6313477-8.0400391-16.2636719c-1.0068359-1.0073242-2.0751953-1.8916016-3.265625-2.7036133
				l2.6435547-3.8754883c1.4150391,0.9648438,2.7402344,2.0625,3.9394531,3.262207
				c5.4804688,5.4799805,7.3837891,11.9780273,9.2246094,18.262207c1.7519531,5.9814453,3.40625,11.6308594,8.0380859,16.2636719
				c4.6328125,4.6318359,10.2822266,6.2871094,16.2646484,8.0390625c6.2841797,1.8398438,12.78125,3.7441406,18.2617188,9.2246094
				c5.4804688,5.4794922,7.3837891,11.9765625,9.2246094,18.2617188c1.7519531,5.9814453,3.40625,11.6308594,8.0380859,16.2636719
				c4.6328125,4.6318359,10.2822266,6.2871094,16.2646484,8.0390625c6.2841797,1.8408203,12.7822266,3.7441406,18.2617188,9.2246094
				c5.4804688,5.4794922,7.3837891,11.9775391,9.2246094,18.2617188c1.7519531,5.9814453,3.40625,11.6308594,8.0380859,16.2636719
				c4.6328125,4.6328125,10.2822266,6.2871094,16.2646484,8.0390625c6.2832031,1.8408203,12.7822266,3.7441406,18.2617188,9.2246094
				c5.4804688,5.4794922,7.3837891,11.9775391,9.2236328,18.2617188c1.7529297,5.9814453,3.4072266,11.6318359,8.0400391,16.2646484
				c4.6318359,4.6318359,10.2822266,6.2861328,16.2636719,8.0380859c6.2841797,1.8408203,12.7822266,3.7441406,18.2617188,9.2246094
				c5.4804688,5.4794922,7.3837891,11.9775391,9.2246094,18.2617188c1.7519531,5.9814453,3.40625,11.6318359,8.0390625,16.2646484
				c4.6318359,4.6318359,10.2822266,6.2861328,16.2636719,8.0380859c6.2841797,1.8408203,12.7822266,3.7441406,18.2617188,9.2246094
				c1.2001953,1.1982422,2.2978516,2.5244141,3.2617188,3.9384766L266.5449219,246.3710938z"/>
		</g>
		<g>
			<path d="M263.4179688,273.2021484c-0.4404297-1.3662109-0.8447266-2.7441406-1.2480469-4.1220703
				c-1.7519531-5.9814453-3.4072266-11.6308594-8.0390625-16.2636719
				c-4.6328125-4.6318359-10.2822266-6.2871094-16.2636719-8.0390625c-6.2841797-1.8408203-12.78125-3.7441406-18.2617188-9.2236328
				c-5.4804688-5.4804688-7.3837891-11.9785156-9.2246094-18.2626953c-1.7519531-5.9824219-3.40625-11.6308594-8.0390625-16.2636719
				c-4.6318359-4.6328125-10.28125-6.2871094-16.2636719-8.0390625c-6.2841797-1.8408203-12.78125-3.7441406-18.2617188-9.2236328
				c-5.4804688-5.4804688-7.3837891-11.9785156-9.2246094-18.2626953c-1.7519531-5.9824219-3.40625-11.6318359-8.0390625-16.2646484
				c-4.6328125-4.6318359-10.2822266-6.2861328-16.2636719-8.0380859
				c-6.2841797-1.8408203-12.7822266-3.7441406-18.2626953-9.2246094
				c-5.4794922-5.4794922-7.3828125-11.9785156-9.2236328-18.2617188c-1.7519531-5.9814453-3.40625-11.6308594-8.0390625-16.2636719
				S88.4814453,91.1621094,82.5,89.4101563c-6.2841797-1.8408203-12.7822266-3.7441406-18.2626953-9.2246094
				c-5.4794922-5.4804688-7.3837891-11.9785156-9.2236328-18.2617188c-1.7519531-5.9824219-3.40625-11.6328125-8.0390625-16.2636719
				c-4.6328125-4.6328125-10.2822266-6.2871094-16.2636719-8.0390625
				c-6.2841797-1.8408203-12.7822266-3.7441406-18.2626953-9.2246094C6.96875,22.9160156,5.0644531,16.4179688,3.2246094,10.1347656
				C1.4726563,4.1533203-0.1826172-1.4970703-4.8144531-6.1298828c-4.6328125-4.6318359-10.2822266-6.2866211-16.2636719-8.0380859
				c-1.3779297-0.4038086-2.7558594-0.8076172-4.1220703-1.2480469l1.4384766-4.4648438
				c1.3261719,0.4267578,2.6640625,0.8188477,4.0019531,1.2104492c6.2841797,1.840332,12.7822266,3.7436523,18.2617188,9.2241211
				C3.9824219-3.9667969,5.8857422,2.53125,7.7265625,8.8164063c1.7519531,5.9804688,3.40625,11.6308594,8.0390625,16.2626953
				s10.2822266,6.2880859,16.2636719,8.0400391c6.2841797,1.8398438,12.7822266,3.7431641,18.2626953,9.2236328
				c5.4794922,5.4794922,7.3828125,11.9775391,9.2236328,18.2617188c1.7519531,5.9814453,3.40625,11.6318359,8.0390625,16.2646484
				C72.1875,81.5009766,77.8369141,83.15625,83.8183594,84.9082031c6.2851563,1.8398438,12.7822266,3.7441406,18.2626953,9.2236328
				c5.4794922,5.4794922,7.3828125,11.9775391,9.2236328,18.2626953c1.7519531,5.9804688,3.40625,11.6308594,8.0390625,16.2636719
				c4.6328125,4.6318359,10.2822266,6.2871094,16.2636719,8.0380859c6.2841797,1.8408203,12.7822266,3.7441406,18.2626953,9.2246094
				c5.4794922,5.4804688,7.3837891,11.9775391,9.2236328,18.2617188c1.7519531,5.9824219,3.4072266,11.6318359,8.0390625,16.2646484
				c4.6328125,4.6318359,10.2822266,6.2871094,16.2636719,8.0390625c6.2851563,1.8398438,12.7822266,3.7441406,18.2626953,9.2236328
				c5.4794922,5.4804688,7.3837891,11.9775391,9.2236328,18.2617188c1.7519531,5.9824219,3.4072266,11.6318359,8.0390625,16.2646484
				c4.6328125,4.6318359,10.2822266,6.2871094,16.2636719,8.0390625c6.2841797,1.8398438,12.7822266,3.7441406,18.2626953,9.2246094
				c5.4794922,5.4794922,7.3837891,11.9775391,9.2236328,18.2607422c0.3916016,1.3388672,0.7841797,2.6757813,1.2109375,4.0029297
				L263.4179688,273.2021484z"/>
		</g>
		<g>
			<path d="M92.3701172,103.8417969c5.4804688,5.4804688,7.3837891,11.9785156,9.2246094,18.2626953
				c1.7519531,5.9814453,3.40625,11.6318359,8.0380859,16.2636719c4.6328125,4.6328125,10.2832031,6.2871094,16.2636719,8.0390625
				c6.2851563,1.8408203,12.7832031,3.7441406,18.2626953,9.2236328c5.4804688,5.4804688,7.3837891,11.9785156,9.2246094,18.2626953
				c1.7519531,5.9814453,3.40625,11.6318359,8.0380859,16.2636719c4.6328125,4.6328125,10.2832031,6.2871094,16.2636719,8.0390625
				c6.2851563,1.8408203,12.7832031,3.7441406,18.2626953,9.2246094c5.4804688,5.4794922,7.3837891,11.9775391,9.2236328,18.2617188
				c1.7529297,5.9814453,3.4082031,11.6318359,8.0400391,16.2646484c4.6318359,4.6318359,10.2822266,6.2861328,16.2636719,8.0380859
				c6.2841797,1.8408203,12.7822266,3.7441406,18.2626953,9.2246094c4.1591797,4.1591797,6.1533203,8.8632813,7.4248047,12.4970703
				l-4.4267578,1.5507813c-1.1083984-3.1630859-2.8271484-7.2421875-6.3154297-10.7304688
				c-4.6328125-4.6328125-10.2822266-6.2871094-16.2646484-8.0400391c-6.2832031-1.8398438-12.78125-3.7431641-18.2617188-9.2236328
				c-5.4804688-5.4794922-7.3837891-11.9785156-9.2246094-18.2626953c-1.7519531-5.9814453-3.40625-11.6308594-8.0380859-16.2636719
				c-4.6328125-4.6318359-10.2822266-6.2861328-16.2636719-8.0380859
				c-6.2841797-1.8408203-12.7832031-3.7441406-18.2626953-9.2246094
				c-5.4804688-5.4804688-7.3837891-11.9785156-9.2246094-18.2626953c-1.7519531-5.9814453-3.40625-11.6308594-8.0380859-16.2636719
				c-4.6328125-4.6318359-10.2832031-6.2871094-16.2646484-8.0380859
				c-6.2832031-1.8408203-12.7822266-3.7441406-18.2617188-9.2246094
				c-5.4804688-5.4804688-7.3837891-11.9785156-9.2246094-18.2626953c-1.7519531-5.9814453-3.40625-11.6308594-8.0380859-16.2636719
				c-4.6328125-4.6318359-10.2822266-6.2861328-16.2646484-8.0380859
				c-6.2832031-1.8417969-12.7822266-3.7441406-18.2617188-9.2246094
				c-5.4804688-5.4804688-7.3837891-11.9785156-9.2246094-18.2617188c-1.7519531-5.9824219-3.40625-11.6328125-8.0390625-16.2646484
				C32.6318359,50.7382813,26.9814453,49.0830078,21,47.3320313c-6.2832031-1.8417969-12.7822266-3.7441406-18.2617188-9.2255859
				c-5.4804688-5.4794922-7.3837891-11.9775391-9.2246094-18.2607422c-1.7519531-5.9824219-3.40625-11.6328125-8.0390625-16.2646484
				c-3.4882813-3.4882813-7.5673828-5.2080078-10.7314453-6.3154297l1.5507813-4.4277344
				c3.6337891,1.2724609,8.3388672,3.2666016,12.4970703,7.4257813c5.4814453,5.4804688,7.3847656,11.9785156,9.2255859,18.2626953
				c1.7509766,5.9814453,3.40625,11.6318359,8.0380859,16.2636719c4.6328125,4.6318359,10.2832031,6.2871094,16.2646484,8.0390625
				c6.2841797,1.8408203,12.78125,3.7441406,18.2617188,9.2236328c5.4804688,5.4804688,7.3837891,11.9785156,9.2246094,18.2626953
				c1.7519531,5.9814453,3.40625,11.6318359,8.0380859,16.2636719"/>
		</g>
		<g>
			<path d="M236.265625,273.9619141c-0.484375-0.5966797-1.0078125-1.1767578-1.5546875-1.7246094
				c-4.6328125-4.6318359-10.2832031-6.2871094-16.2646484-8.0390625
				c-6.2841797-1.8398438-12.7822266-3.7431641-18.2626953-9.2236328
				c-5.4794922-5.4804688-7.3828125-11.9785156-9.2236328-18.2626953c-1.7519531-5.9814453-3.40625-11.6318359-8.0380859-16.2636719
				c-4.6328125-4.6318359-10.2832031-6.2871094-16.2646484-8.0390625
				c-6.2841797-1.8408203-12.7822266-3.7441406-18.2626953-9.2236328
				c-5.4794922-5.4804688-7.3828125-11.9785156-9.2236328-18.2626953c-1.7519531-5.9814453-3.40625-11.6318359-8.0390625-16.2636719
				c-4.6318359-4.6318359-10.2822266-6.2871094-16.2636719-8.0390625
				c-6.2841797-1.8408203-12.7822266-3.7441406-18.2626953-9.2236328
				c-5.4794922-5.4804688-7.3828125-11.9785156-9.2236328-18.2626953
				c-1.7519531-5.9814453-3.4072266-11.6318359-8.0390625-16.2646484
				c-4.6328125-4.6318359-10.2822266-6.2861328-16.2646484-8.0380859c-6.2832031-1.8408203-12.78125-3.7441406-18.2617188-9.2236328
				c-5.4804688-5.4804688-7.3828125-11.9785156-9.2236328-18.2626953
				c-1.7519531-5.9814453-3.4072266-11.6318359-8.0390625-16.2646484
				c-4.6328125-4.6318359-10.2822266-6.2871094-16.2646484-8.0380859c-6.2832031-1.8408203-12.78125-3.7441406-18.2617188-9.2236328
				c-5.4804688-5.4804688-7.3837891-11.9785156-9.2246094-18.2636719c-1.7509766-5.9804688-3.40625-11.6308594-8.0390625-16.2636719
				c-0.546875-0.546875-1.1269531-1.0703125-1.7236328-1.5556641l2.9580078-3.640625
				c0.7216797,0.5869141,1.421875,1.2197266,2.0830078,1.8798828c5.4804688,5.4794922,7.3837891,11.9785156,9.2246094,18.2617188
				c1.7509766,5.9824219,3.40625,11.6318359,8.0390625,16.2646484c4.6318359,4.6318359,10.2822266,6.2861328,16.2636719,8.0380859
				c6.2841797,1.8408203,12.7822266,3.7441406,18.2617188,9.2246094c5.4804688,5.4804688,7.3837891,11.9785156,9.2246094,18.2617188
				c1.7519531,5.9824219,3.40625,11.6318359,8.0390625,16.2646484c4.6318359,4.6318359,10.2822266,6.2861328,16.2636719,8.0380859
				c6.2841797,1.8408203,12.7822266,3.7441406,18.2617188,9.2246094c5.4814453,5.4804688,7.3837891,11.9785156,9.2246094,18.2626953
				c1.7519531,5.9814453,3.4072266,11.6308594,8.0390625,16.2636719c4.6328125,4.6318359,10.2822266,6.2861328,16.2636719,8.0380859
				c6.2841797,1.8408203,12.7822266,3.7441406,18.2626953,9.2246094s7.3828125,11.9785156,9.2246094,18.2626953
				c1.7509766,5.9814453,3.40625,11.6318359,8.0380859,16.2636719c4.6328125,4.6318359,10.2822266,6.2871094,16.2636719,8.0380859
				c6.2841797,1.8408203,12.7822266,3.7441406,18.2626953,9.2246094s7.3828125,11.9785156,9.2246094,18.2626953
				c1.7509766,5.9814453,3.40625,11.6318359,8.0380859,16.2636719c4.6328125,4.6318359,10.2822266,6.2871094,16.2636719,8.0390625
				c6.2841797,1.8398438,12.7822266,3.7441406,18.2626953,9.2246094c0.6601563,0.6601563,1.2929688,1.3613281,1.8789063,2.0830078
				L236.265625,273.9619141z"/>
		</g>
		<g>
			<path d="M211.4814453,274.7255859c-0.9130859-0.2802734-1.8300781-0.5488281-2.7470703-0.8173828
				c-6.2832031-1.8398438-12.78125-3.7431641-18.2607422-9.2236328c-5.4804688-5.4794922-7.3837891-11.9775391-9.2236328-18.2617188
				c-1.7519531-5.9824219-3.4072266-11.6318359-8.0390625-16.2636719
				c-4.6328125-4.6328125-10.2832031-6.2880859-16.2646484-8.0390625
				c-6.2841797-1.8408203-12.7822266-3.7441406-18.2617188-9.2246094
				c-5.4804688-5.4804688-7.3837891-11.9775391-9.2246094-18.2617188c-1.7509766-5.9824219-3.40625-11.6318359-8.0380859-16.2646484
				c-4.6328125-4.6318359-10.2832031-6.2871094-16.2646484-8.0390625
				c-6.2841797-1.8398438-12.7822266-3.7431641-18.2617188-9.2236328
				c-5.4804688-5.4804688-7.3837891-11.9775391-9.2236328-18.2617188
				c-1.7519531-5.9824219-3.4072266-11.6318359-8.0400391-16.2646484C65,121.9472656,59.3496094,120.2929688,53.3681641,118.5410156
				c-6.2841797-1.8398438-12.7822266-3.7441406-18.2617188-9.2236328
				c-5.4804688-5.4804688-7.3837891-11.9775391-9.2246094-18.2626953
				c-1.7519531-5.9814453-3.4072266-11.6308594-8.0390625-16.2636719S7.5605469,68.5039063,1.5791016,66.7519531
				c-6.2841797-1.8398438-12.7822266-3.7441406-18.2617188-9.2236328
				c-5.4804688-5.4794922-7.3837891-11.9775391-9.2236328-18.2607422c-0.2695313-0.9169922-0.5380859-1.8339844-0.8173828-2.7470703
				l4.4853516-1.375c0.2851563,0.9326172,0.5595703,1.8681641,0.8339844,2.8037109
				c1.7519531,5.9804688,3.40625,11.6298828,8.0380859,16.2617188C-8.734375,58.84375-3.0839844,60.4980469,2.8974609,62.25
				c6.2841797,1.8398438,12.7822266,3.7441406,18.2626953,9.2236328c5.4804688,5.4804688,7.3837891,11.9785156,9.2246094,18.2626953
				C32.1367188,95.71875,33.7910156,101.3671875,38.4228516,106c4.6328125,4.6328125,10.2822266,6.2871094,16.2646484,8.0390625
				c6.2832031,1.8408203,12.78125,3.7441406,18.2617188,9.2246094c5.4804688,5.4794922,7.3837891,11.9775391,9.2246094,18.2617188
				c1.7519531,5.9814453,3.40625,11.6308594,8.0380859,16.2636719c4.6328125,4.6328125,10.2822266,6.2871094,16.2646484,8.0390625
				c6.2832031,1.8408203,12.7822266,3.7441406,18.2617188,9.2246094c5.4804688,5.4794922,7.3837891,11.9775391,9.2246094,18.2617188
				c1.7519531,5.9824219,3.40625,11.6318359,8.0390625,16.2636719c4.6318359,4.6328125,10.28125,6.2871094,16.2636719,8.0390625
				c6.2832031,1.8408203,12.7822266,3.7441406,18.2617188,9.2246094c5.4804688,5.4804688,7.3837891,11.9775391,9.2246094,18.2617188
				c1.7519531,5.9824219,3.40625,11.6318359,8.0390625,16.2636719c4.6318359,4.6318359,10.28125,6.2871094,16.2617188,8.0390625
				c0.9355469,0.2744141,1.8710938,0.5478516,2.8037109,0.8339844L211.4814453,274.7255859z"/>
		</g>
		<g>
			<path d="M180.4892578,274.1171875c-5.2705078-5.4228516-7.1416016-11.8085938-8.9501953-17.984375
				c-1.7519531-5.9814453-3.40625-11.6318359-8.0390625-16.2636719s-10.2822266-6.2871094-16.2636719-8.0390625
				c-6.2841797-1.8408203-12.7822266-3.7441406-18.2617188-9.2246094
				c-5.4804688-5.4794922-7.3837891-11.9775391-9.2246094-18.2607422
				c-1.7519531-5.9824219-3.4072266-11.6318359-8.0390625-16.2646484
				c-4.6328125-4.6318359-10.2832031-6.2871094-16.2636719-8.0400391
				c-6.2841797-1.8398438-12.7822266-3.7431641-18.2626953-9.2236328
				c-5.4794922-5.4794922-7.3828125-11.9775391-9.2236328-18.2617188
				c-1.7519531-5.9814453-3.4072266-11.6318359-8.0390625-16.2646484
				c-4.6328125-4.6318359-10.2822266-6.2861328-16.2636719-8.0380859
				c-6.2851563-1.8408203-12.7822266-3.7441406-18.2626953-9.2246094
				c-5.4804688-5.4794922-7.3837891-11.9785156-9.2236328-18.2617188
				c-1.7519531-5.9824219-3.4072266-11.6318359-8.0390625-16.2636719C3.5,79.8691406-2.1494141,78.2148438-8.1318359,76.4628906
				c-6.1748047-1.8085938-12.5615234-3.6796875-17.9833984-8.9501953l3.2685547-3.3642578
				c4.5888672,4.4599609,10.1484375,6.0878906,16.0341797,7.8115234c6.2841797,1.8408203,12.7822266,3.7441406,18.2617188,9.2246094
				c5.4804688,5.4794922,7.3837891,11.9775391,9.2246094,18.2626953c1.7519531,5.9804688,3.40625,11.6308594,8.0390625,16.2636719
				c4.6318359,4.6318359,10.2822266,6.2871094,16.2636719,8.0380859c6.2841797,1.8408203,12.7822266,3.7441406,18.2617188,9.2246094
				c5.4804688,5.4794922,7.3847656,11.9785156,9.2246094,18.2626953c1.7519531,5.9814453,3.40625,11.6308594,8.0390625,16.2636719
				c4.6328125,4.6318359,10.2822266,6.2861328,16.2636719,8.0380859c6.2832031,1.8408203,12.7822266,3.7441406,18.2617188,9.2246094
				c5.4804688,5.4804688,7.3847656,11.9785156,9.2246094,18.2626953c1.7519531,5.9814453,3.40625,11.6308594,8.0390625,16.2636719
				c4.6328125,4.6318359,10.2822266,6.2871094,16.2636719,8.0380859c6.2841797,1.8408203,12.7832031,3.7441406,18.2626953,9.2246094
				s7.3837891,11.9785156,9.2236328,18.2626953c1.7246094,5.8857422,3.3525391,11.4443359,7.8125,16.0341797
				L180.4892578,274.1171875z"/>
		</g>
		<g>
			<path d="M164.265625,273.3359375c-0.9697266-2.4824219-1.7148438-5.0292969-2.4375-7.4921875
				c-1.7519531-5.9824219-3.40625-11.6318359-8.0390625-16.2636719c-4.6318359-4.6328125-10.28125-6.2880859-16.2636719-8.0390625
				c-6.2841797-1.8408203-12.7822266-3.7441406-18.2617188-9.2246094
				c-5.4804688-5.4804688-7.3837891-11.9775391-9.2236328-18.2617188
				c-1.7529297-5.9814453-3.4072266-11.6318359-8.0400391-16.2646484
				c-4.6328125-4.6318359-10.2822266-6.2871094-16.2636719-8.0390625c-6.2841797-1.8408203-12.78125-3.7441406-18.2617188-9.2236328
				c-5.4804688-5.4804688-7.3837891-11.9775391-9.2236328-18.2617188
				c-1.7529297-5.9814453-3.4072266-11.6318359-8.0400391-16.2646484
				c-4.6328125-4.6318359-10.2822266-6.2871094-16.2636719-8.0390625
				c-6.2841797-1.8408203-12.7822266-3.7441406-18.2617188-9.2236328
				c-5.4804688-5.4804688-7.3837891-11.9785156-9.2246094-18.2626953c-1.7519531-5.9814453-3.40625-11.6318359-8.0390625-16.2636719
				c-4.6318359-4.6318359-10.2822266-6.2871094-16.2636719-8.0380859c-2.4628906-0.7226563-5.0097656-1.4677734-7.4921875-2.4375
				l1.7060547-4.3701172c2.2919922,0.8955078,4.6298828,1.5791016,7.1044922,2.3046875
				c6.2851563,1.8408203,12.7822266,3.7431641,18.2626953,9.2236328s7.3837891,11.9785156,9.2236328,18.2626953
				c1.7519531,5.9814453,3.4072266,11.6318359,8.0390625,16.2636719c4.6328125,4.6328125,10.2822266,6.2871094,16.2636719,8.0390625
				c6.2841797,1.8408203,12.7822266,3.7441406,18.2626953,9.2246094c5.4804688,5.4794922,7.3837891,11.9785156,9.2246094,18.2626953
				c1.7519531,5.9804688,3.40625,11.6308594,8.0380859,16.2626953c4.6328125,4.6328125,10.2822266,6.2871094,16.2636719,8.0390625
				c6.2841797,1.8408203,12.7822266,3.7441406,18.2626953,9.2246094c5.4804688,5.4794922,7.3837891,11.9785156,9.2246094,18.2626953
				c1.7519531,5.9804688,3.40625,11.6308594,8.0380859,16.2626953c4.6328125,4.6328125,10.2822266,6.2880859,16.2636719,8.0390625
				c6.2851563,1.8408203,12.7832031,3.7441406,18.2626953,9.2246094c5.4804688,5.4794922,7.3837891,11.9775391,9.2246094,18.2626953
				c0.7246094,2.4746094,1.4091797,4.8125,2.3037109,7.1044922L164.265625,273.3359375z"/>
		</g>
		<g>
			<path d="M151.4101563,273.1630859c-1.4394531-4.75-3.1923828-9.734375-7.3310547-13.8730469
				c-4.6318359-4.6318359-10.2822266-6.2871094-16.2636719-8.0380859
				c-6.2841797-1.8417969-12.7822266-3.7441406-18.2626953-9.2255859
				c-5.4794922-5.4794922-7.3828125-11.9775391-9.2236328-18.2607422
				c-1.7519531-5.9824219-3.4072266-11.6318359-8.0390625-16.2646484
				c-4.6318359-4.6318359-10.2822266-6.2871094-16.2636719-8.0390625
				c-6.2841797-1.8408203-12.7822266-3.7431641-18.2626953-9.2246094
				c-5.4804688-5.4794922-7.3828125-11.9775391-9.2236328-18.2617188
				c-1.7519531-5.9814453-3.4072266-11.6318359-8.0390625-16.2636719
				c-4.6328125-4.6318359-10.2832031-6.2871094-16.2646484-8.0390625c-6.2832031-1.8408203-12.78125-3.7441406-18.2617188-9.2246094
				C0.4941406,132.96875-1.4091797,126.4707031-3.25,120.1855469c-1.7519531-5.9804688-3.40625-11.6308594-8.0390625-16.2626953
				c-4.1386719-4.1396484-9.1220703-5.8916016-13.8730469-7.3310547l1.3613281-4.4892578
				c5.0869141,1.5419922,10.9238281,3.5966797,15.8291016,8.5029297c5.4804688,5.4804688,7.3837891,11.9785156,9.2246094,18.2617188
				c1.7509766,5.9824219,3.40625,11.6318359,8.0390625,16.2646484c4.6318359,4.6318359,10.2822266,6.2861328,16.2626953,8.0380859
				c6.2851563,1.8408203,12.7832031,3.7441406,18.2626953,9.2246094c5.4814453,5.4804688,7.3837891,11.9785156,9.2246094,18.2626953
				c1.7519531,5.9814453,3.4072266,11.6318359,8.0390625,16.2636719s10.2822266,6.2871094,16.2636719,8.0390625
				c6.2841797,1.8408203,12.7822266,3.7431641,18.2626953,9.2236328s7.3828125,11.9785156,9.2246094,18.2626953
				c1.7519531,5.9814453,3.40625,11.6318359,8.0380859,16.2636719c4.6328125,4.6318359,10.2822266,6.2871094,16.2646484,8.0390625
				c6.2832031,1.8408203,12.78125,3.7441406,18.2617188,9.2236328c4.9052734,4.90625,6.9609375,10.7431641,8.5029297,15.8300781
				L151.4101563,273.1630859z"/>
		</g>
		<g>
			<path d="M137.9609375,273.6699219c-1.0302734-1.7548828-2.2050781-3.2822266-3.5927734-4.6699219
				c-4.6318359-4.6318359-10.2822266-6.2861328-16.2626953-8.0380859
				c-6.2841797-1.8408203-12.7832031-3.7441406-18.2626953-9.2246094
				c-5.4804688-5.4804688-7.3837891-11.9775391-9.2236328-18.2617188
				c-1.7519531-5.9814453-3.4072266-11.6318359-8.0390625-16.2646484
				c-4.6328125-4.6318359-10.2832031-6.2871094-16.2646484-8.0390625
				c-6.2841797-1.8398438-12.7822266-3.7431641-18.2617188-9.2236328
				c-5.4804688-5.4804688-7.3837891-11.9775391-9.2246094-18.2626953c-1.7509766-5.9814453-3.40625-11.6308594-8.0390625-16.2636719
				c-4.6328125-4.6318359-10.2822266-6.2871094-16.2636719-8.0390625
				c-6.2841797-1.8408203-12.7822266-3.7441406-18.2617188-9.2236328
				c-5.4804688-5.4804688-7.3837891-11.9785156-9.2246094-18.2626953c-1.7519531-5.9814453-3.40625-11.6308594-8.0390625-16.2636719
				c-1.3857422-1.3867188-2.9130859-2.5605469-4.6699219-3.5917969l2.3759766-4.0458984
				c2.1035156,1.2353516,3.9394531,2.6494141,5.6113281,4.3212891c5.4804688,5.4794922,7.3828125,11.9775391,9.2236328,18.2617188
				c1.7519531,5.9814453,3.4072266,11.6308594,8.0400391,16.2636719c4.6318359,4.6328125,10.28125,6.2871094,16.2626953,8.0390625
				c6.2841797,1.8408203,12.7822266,3.7441406,18.2626953,9.2246094c5.4804688,5.4794922,7.3837891,11.9775391,9.2246094,18.2617188
				c1.7509766,5.9814453,3.40625,11.6318359,8.0390625,16.2636719c4.6318359,4.6328125,10.28125,6.2871094,16.2636719,8.0390625
				c6.2832031,1.8408203,12.78125,3.7441406,18.2617188,9.2246094c5.4804688,5.4794922,7.3837891,11.9785156,9.2246094,18.2626953
				c1.7519531,5.9814453,3.40625,11.6308594,8.0380859,16.2626953c4.6328125,4.6328125,10.2832031,6.2871094,16.2646484,8.0400391
				c6.2841797,1.8398438,12.78125,3.7431641,18.2617188,9.2236328c1.6728516,1.671875,3.0859375,3.5078125,4.3212891,5.6113281
				L137.9609375,273.6699219z"/>
		</g>
		<g>
			<path d="M118.9785156,274.5546875c-3.3007813-1.75-6.8388672-2.7851563-10.5839844-3.8828125
				c-6.2841797-1.8398438-12.7822266-3.7431641-18.2617188-9.2246094
				c-5.4814453-5.4794922-7.3847656-11.9775391-9.2246094-18.2617188
				c-1.7519531-5.9814453-3.4072266-11.6318359-8.0390625-16.2636719
				c-4.6328125-4.6328125-10.2822266-6.2871094-16.2636719-8.0390625
				c-6.2841797-1.8408203-12.7822266-3.7441406-18.2626953-9.2246094
				c-5.4804688-5.4794922-7.3837891-11.9785156-9.2246094-18.2626953c-1.7519531-5.9804688-3.40625-11.6308594-8.0380859-16.2626953
				C16.4472656,170.5,10.796875,168.8457031,4.8154297,167.0927734c-6.2841797-1.8398438-12.78125-3.7431641-18.2617188-9.2236328
				c-5.4804688-5.4794922-7.3837891-11.9785156-9.2236328-18.2626953
				c-1.0976563-3.7451172-2.1337891-7.2822266-3.8837891-10.5830078l4.1445313-2.1972656
				c1.9736328,3.7216797,3.1259766,7.6572266,4.2412109,11.4619141c1.7519531,5.9814453,3.40625,11.6318359,8.0390625,16.2646484
				c4.6318359,4.6318359,10.2822266,6.2861328,16.2636719,8.0380859c6.2832031,1.8408203,12.7822266,3.7441406,18.2617188,9.2246094
				c5.4804688,5.4804688,7.3837891,11.9785156,9.2246094,18.2617188c1.7519531,5.9814453,3.40625,11.6318359,8.0390625,16.2646484
				c4.6318359,4.6318359,10.2822266,6.2871094,16.2636719,8.0390625c6.2841797,1.8408203,12.7822266,3.7431641,18.2617188,9.2236328
				c5.4804688,5.4804688,7.3847656,11.9785156,9.2246094,18.2626953c1.7519531,5.9814453,3.4072266,11.6308594,8.0390625,16.2636719
				c4.6328125,4.6318359,10.2832031,6.2871094,16.2646484,8.0390625c3.8046875,1.1142578,7.7392578,2.2675781,11.4619141,4.2402344
				L118.9785156,274.5546875z"/>
		</g>
		<g>
			<path d="M84.3613281,274.4199219c-1.4150391-0.9648438-2.7402344-2.0615234-3.9394531-3.2617188
				c-5.4804688-5.4794922-7.3837891-11.9775391-9.2246094-18.2617188c-1.7519531-5.9824219-3.40625-11.6318359-8.0390625-16.2646484
				C58.5263672,232,52.8769531,230.3457031,46.8955078,228.59375c-6.2841797-1.8408203-12.7822266-3.7441406-18.2626953-9.2246094
				s-7.3837891-11.9785156-9.2246094-18.2626953c-1.7519531-5.9814453-3.40625-11.6308594-8.0390625-16.2636719
				c-4.6328125-4.6318359-10.28125-6.2861328-16.2636719-8.0380859c-6.2841797-1.8408203-12.7822266-3.7441406-18.2626953-9.2246094
				c-1.2001953-1.2011719-2.2978516-2.5263672-3.2617188-3.9394531l3.8759766-2.6435547
				c0.8105469,1.1894531,1.6953125,2.2578125,2.703125,3.265625c4.6328125,4.6328125,10.2822266,6.2871094,16.2636719,8.0400391
				c6.2851563,1.8398438,12.7832031,3.7431641,18.2626953,9.2236328c5.4794922,5.4794922,7.3837891,11.9775391,9.2236328,18.2617188
				c1.7519531,5.9814453,3.4072266,11.6308594,8.0390625,16.2636719c4.6328125,4.6328125,10.2832031,6.2871094,16.2646484,8.0400391
				c6.2841797,1.8398438,12.7822266,3.7431641,18.2617188,9.2236328c5.4794922,5.4794922,7.3837891,11.9775391,9.2236328,18.2617188
				c1.7519531,5.9814453,3.4072266,11.6318359,8.0390625,16.2646484c1.0078125,1.0068359,2.0761719,1.8916016,3.2666016,2.703125
				L84.3613281,274.4199219z"/>
		</g>
		<g>
			<path d="M65.4550781,273.5439453c-1.8085938-3.5644531-2.90625-7.3125-3.9677734-10.9365234
				c-1.7519531-5.9824219-3.4072266-11.6318359-8.0390625-16.2646484s-10.2822266-6.2871094-16.2636719-8.0390625
				c-6.2841797-1.8408203-12.7822266-3.7441406-18.2626953-9.2246094
				c-5.4804688-5.4794922-7.3837891-11.9775391-9.2246094-18.2626953c-1.7519531-5.9804688-3.40625-11.6308594-8.0380859-16.2626953
				c-4.6328125-4.6328125-10.2822266-6.2871094-16.2646484-8.0390625c-3.625-1.0625-7.3730469-2.1601563-10.9375-3.9677734
				l2.1230469-4.1835938c3.1777344,1.6113281,6.5566406,2.6015625,10.1328125,3.6494141
				c6.2851563,1.8398438,12.7832031,3.7431641,18.2636719,9.2236328c5.4794922,5.4804688,7.3828125,11.9785156,9.2226563,18.2617188
				c1.7529297,5.9814453,3.4082031,11.6318359,8.0400391,16.2646484c4.6328125,4.6318359,10.2822266,6.2871094,16.2646484,8.0390625
				c6.2832031,1.8408203,12.78125,3.7441406,18.2617188,9.2236328c5.4804688,5.4804688,7.3828125,11.9785156,9.2236328,18.2626953
				c1.0478516,3.5771484,2.0371094,6.9560547,3.6494141,10.1328125L65.4550781,273.5439453z"/>
		</g>
		<g>
			<path d="M52.0195313,273.1445313l-0.2421875-0.8261719c-1.7519531-5.9814453-3.4072266-11.6318359-8.0390625-16.265625
				c-4.6328125-4.6318359-10.2832031-6.2861328-16.2646484-8.0380859
				c-6.2841797-1.8408203-12.7822266-3.7441406-18.2626953-9.2246094
				c-5.4794922-5.4804688-7.3828125-11.9785156-9.2236328-18.2626953c-1.7519531-5.9814453-3.40625-11.6308594-8.0390625-16.2636719
				c-4.6328125-4.6318359-10.2832031-6.2871094-16.265625-8.0390625l-0.8251953-0.2421875l1.3232422-4.5009766l0.8212891,0.2412109
				c6.2841797,1.8408203,12.7822266,3.7441406,18.2636719,9.2246094c5.4804688,5.4794922,7.3828125,11.9775391,9.2246094,18.2617188
				c1.7509766,5.9814453,3.40625,11.6318359,8.0380859,16.2636719c4.6328125,4.6328125,10.2822266,6.2871094,16.2646484,8.0400391
				c6.2841797,1.8398438,12.78125,3.7431641,18.2617188,9.2236328S54.4384766,264.7158203,56.2792969,271l0.2412109,0.8212891
				L52.0195313,273.1445313z"/>
		</g>
		<g>
			<path d="M39.1425781,273.4287109c-1.3710938-3.1103516-2.9970703-5.5458984-5.1152344-7.6650391
				c-4.6328125-4.6328125-10.2832031-6.2871094-16.2636719-8.0390625
				c-6.2841797-1.8408203-12.7832031-3.7441406-18.2626953-9.2236328
				c-5.4804688-5.4804688-7.3837891-11.9785156-9.2246094-18.2626953c-1.7509766-5.9814453-3.40625-11.6308594-8.0380859-16.2636719
				c-2.1191406-2.1181641-4.5546875-3.7441406-7.6660156-5.1152344l1.8925781-4.2929688
				c3.609375,1.5917969,6.5820313,3.5839844,9.0898438,6.0908203c5.4804688,5.4804688,7.3837891,11.9785156,9.2246094,18.2626953
				c1.7519531,5.9814453,3.40625,11.6308594,8.0390625,16.2636719c4.6318359,4.6328125,10.2822266,6.2871094,16.2636719,8.0390625
				c6.2841797,1.8408203,12.7822266,3.7441406,18.2617188,9.2236328c2.5078125,2.5078125,4.5,5.4814453,6.0908203,9.0898438
				L39.1425781,273.4287109z"/>
		</g>
		<g>
			<path d="M23.0097656,274.2666016c-4.3710938-3.7304688-9.5136719-5.2373047-14.9570313-6.8320313
				c-6.2841797-1.8398438-12.7822266-3.7431641-18.2617188-9.2236328
				c-5.4804688-5.4794922-7.3837891-11.9775391-9.2246094-18.2617188
				c-1.5947266-5.4433594-3.1005859-10.5859375-6.8320313-14.9580078l3.5683594-3.0449219
				c4.3828125,5.1347656,6.1025391,11.0068359,7.765625,16.6845703c1.7519531,5.9814453,3.4072266,11.6308594,8.0390625,16.2636719
				c4.6328125,4.6318359,10.2822266,6.2861328,16.2636719,8.0380859c5.6777344,1.6640625,11.5488281,3.3828125,16.6845703,7.765625
				L23.0097656,274.2666016z"/>
		</g>
	</g>
</g>
</svg>
