<?xml version="1.0" encoding="utf-8"?>
<!-- Generator: Adobe Illustrator 16.0.0, SVG Export Plug-In . SVG Version: 6.00 Build 0)  -->
<!DOCTYPE svg PUBLIC "-//W3C//DTD SVG 1.1//EN" "http://www.w3.org/Graphics/SVG/1.1/DTD/svg11.dtd">
<svg version="1.1" id="Layer_2_copy_14" xmlns="http://www.w3.org/2000/svg" xmlns:xlink="http://www.w3.org/1999/xlink" x="0px"
	 y="0px" width="250px" height="250px" viewBox="0 0 250 250" enable-background="new 0 0 250 250" xml:space="preserve">
<g opacity="0.1">
	<g>
		<polygon points="25.2089844,6.5019531 27.5859375,10.0136719 29.9628906,6.5019531 27.5859375,2.9892578 		"/>
		<polygon points="33.9609375,-2.25 30.4482422,0.1269531 33.9609375,2.5039063 37.4736328,0.1269531 		"/>
		<polygon points="17.6982422,0.1269531 21.2109375,2.5039063 24.7226563,0.1269531 21.2109375,-2.25 		"/>
	</g>
	<g>
		<polygon points="63.8525391,6.5019531 66.2294922,10.0136719 68.6064453,6.5019531 66.2294922,2.9892578 		"/>
		<polygon points="72.6044922,-2.25 69.0917969,0.1269531 72.6044922,2.5039063 76.1171875,0.1269531 		"/>
		<polygon points="56.3417969,0.1269531 59.8544922,2.5039063 63.3671875,0.1269531 59.8544922,-2.25 		"/>
	</g>
	<g>
		<polygon points="102.4960938,6.5019531 104.8730469,10.0136719 107.25,6.5019531 104.8730469,2.9892578 		"/>
		<polygon points="111.2480469,-2.25 107.7363281,0.1269531 111.2480469,2.5039063 114.7607422,0.1269531 		"/>
		<polygon points="94.9853516,0.1269531 98.4980469,2.5039063 102.0107422,0.1269531 98.4980469,-2.25 		"/>
	</g>
	<g>
		<polygon points="141.1396484,6.5019531 143.5166016,10.0136719 145.8945313,6.5019531 143.5166016,2.9892578 		"/>
		<polygon points="149.8925781,-2.25 146.3789063,0.1269531 149.8925781,2.5039063 153.4042969,0.1269531 		"/>
		<polygon points="133.6289063,0.1269531 137.1416016,2.5039063 140.6542969,0.1269531 137.1416016,-2.25 		"/>
	</g>
	<g>
		<polygon points="179.7832031,6.5019531 182.1601563,10.0136719 184.5371094,6.5019531 182.1601563,2.9892578 		"/>
		<polygon points="188.5351563,-2.25 185.0234375,0.1269531 188.5351563,2.5039063 192.0478516,0.1269531 		"/>
		<polygon points="172.2734375,0.1269531 175.7851563,2.5039063 179.2978516,0.1269531 175.7851563,-2.25 		"/>
	</g>
	<g>
		<polygon points="218.4267578,6.5019531 220.8046875,10.0136719 223.1816406,6.5019531 220.8046875,2.9892578 		"/>
		<polygon points="227.1796875,-2.25 223.6669922,0.1269531 227.1796875,2.5039063 230.6914063,0.1269531 		"/>
		<polygon points="210.9160156,0.1269531 214.4287109,2.5039063 217.9414063,0.1269531 214.4287109,-2.25 		"/>
	</g>
	<g>
		<polygon points="249.5605469,0.1269531 253.0722656,2.5039063 256.5849609,0.1269531 253.0722656,-2.25 		"/>
	</g>
	<g>
		<polygon points="6.8300781,28.625 9.2070313,32.1376953 11.5839844,28.625 9.2070313,25.1123047 		"/>
		<polygon points="6.8300781,41.375 9.2070313,44.8876953 11.5839844,41.375 9.2070313,37.8632813 		"/>
		<polygon points="15.5820313,32.6230469 12.0693359,35 15.5820313,37.3769531 19.09375,35 		"/>
		<polygon points="-0.6806641,35 2.8320313,37.3769531 6.34375,35 2.8320313,32.6230469 		"/>
	</g>
	<g>
		<polygon points="45.4726563,28.625 47.8505859,32.1376953 50.2275391,28.625 47.8505859,25.1123047 		"/>
		<polygon points="45.4726563,41.375 47.8505859,44.8876953 50.2275391,41.375 47.8505859,37.8632813 		"/>
		<polygon points="54.2255859,32.6230469 50.7128906,35 54.2255859,37.3769531 57.7382813,35 		"/>
		<polygon points="37.9628906,35 41.4746094,37.3769531 44.9882813,35 41.4746094,32.6230469 		"/>
	</g>
	<g>
		<polygon points="84.1171875,28.625 86.4941406,32.1376953 88.8710938,28.625 86.4941406,25.1123047 		"/>
		<polygon points="84.1171875,41.375 86.4941406,44.8876953 88.8710938,41.375 86.4941406,37.8632813 		"/>
		<polygon points="92.8691406,32.6230469 89.3564453,35 92.8691406,37.3769531 96.3808594,35 		"/>
		<polygon points="76.6064453,35 80.1191406,37.3769531 83.6308594,35 80.1191406,32.6230469 		"/>
	</g>
	<g>
		<polygon points="122.7597656,28.625 125.1376953,32.1376953 127.5146484,28.625 125.1376953,25.1123047 		"/>
		<polygon points="122.7597656,41.375 125.1376953,44.8876953 127.5146484,41.375 125.1376953,37.8632813 		"/>
		<polygon points="131.5126953,32.6230469 128,35 131.5126953,37.3769531 135.0253906,35 		"/>
		<polygon points="115.25,35 118.7626953,37.3769531 122.2753906,35 118.7626953,32.6230469 		"/>
	</g>
	<g>
		<polygon points="161.4042969,28.625 163.78125,32.1376953 166.1582031,28.625 163.78125,25.1123047 		"/>
		<polygon points="161.4042969,41.375 163.78125,44.8876953 166.1582031,41.375 163.78125,37.8632813 		"/>
		<polygon points="170.15625,32.6230469 166.6435547,35 170.15625,37.3769531 173.6689453,35 		"/>
		<polygon points="153.8935547,35 157.40625,37.3769531 160.9179688,35 157.40625,32.6230469 		"/>
	</g>
	<g>
		<polygon points="200.0478516,28.625 202.4248047,32.1376953 204.8027344,28.625 202.4248047,25.1123047 		"/>
		<polygon points="200.0478516,41.375 202.4248047,44.8876953 204.8027344,41.375 202.4248047,37.8632813 		"/>
		<polygon points="208.7998047,32.6230469 205.2871094,35 208.7998047,37.3769531 212.3125,35 		"/>
		<polygon points="192.5371094,35 196.0498047,37.3769531 199.5625,35 196.0498047,32.6230469 		"/>
	</g>
	<g>
		<polygon points="238.6914063,28.625 241.0683594,32.1376953 243.4453125,28.625 241.0683594,25.1123047 		"/>
		<polygon points="238.6914063,41.375 241.0683594,44.8876953 243.4453125,41.375 241.0683594,37.8632813 		"/>
		<polygon points="247.4433594,32.6230469 243.9316406,35 247.4433594,37.3769531 250.9560547,35 		"/>
		<polygon points="231.1806641,35 234.6933594,37.3769531 238.2060547,35 234.6933594,32.6230469 		"/>
	</g>
	<g>
		<polygon points="25.2089844,65.9033203 27.5859375,69.4160156 29.9628906,65.9033203 27.5859375,62.390625 		"/>
		<polygon points="25.2089844,78.6533203 27.5859375,82.1660156 29.9628906,78.6533203 27.5859375,75.140625 		"/>
		<polygon points="33.9609375,69.9003906 30.4482422,72.2783203 33.9609375,74.6552734 37.4736328,72.2783203 		"/>
		<polygon points="17.6982422,72.2783203 21.2109375,74.6552734 24.7226563,72.2783203 21.2109375,69.9003906 		"/>
	</g>
	<g>
		<polygon points="63.8525391,65.9033203 66.2294922,69.4160156 68.6064453,65.9033203 66.2294922,62.390625 		"/>
		<polygon points="63.8525391,78.6533203 66.2294922,82.1660156 68.6064453,78.6533203 66.2294922,75.140625 		"/>
		<polygon points="72.6044922,69.9003906 69.0917969,72.2783203 72.6044922,74.6552734 76.1171875,72.2783203 		"/>
		<polygon points="56.3417969,72.2783203 59.8544922,74.6552734 63.3671875,72.2783203 59.8544922,69.9003906 		"/>
	</g>
	<g>
		<polygon points="102.4960938,65.9033203 104.8730469,69.4160156 107.25,65.9033203 104.8730469,62.390625 		"/>
		<polygon points="102.4960938,78.6533203 104.8730469,82.1660156 107.25,78.6533203 104.8730469,75.140625 		"/>
		<polygon points="111.2480469,69.9003906 107.7363281,72.2783203 111.2480469,74.6552734 114.7607422,72.2783203 		"/>
		<polygon points="94.9853516,72.2783203 98.4980469,74.6552734 102.0107422,72.2783203 98.4980469,69.9003906 		"/>
	</g>
	<g>
		<polygon points="141.1396484,65.9033203 143.5166016,69.4160156 145.8945313,65.9033203 143.5166016,62.390625 		"/>
		<polygon points="141.1396484,78.6533203 143.5166016,82.1660156 145.8945313,78.6533203 143.5166016,75.140625 		"/>
		<polygon points="149.8925781,69.9003906 146.3789063,72.2783203 149.8925781,74.6552734 153.4042969,72.2783203 		"/>
		<polygon points="133.6289063,72.2783203 137.1416016,74.6552734 140.6542969,72.2783203 137.1416016,69.9003906 		"/>
	</g>
	<g>
		<polygon points="179.7832031,65.9033203 182.1601563,69.4160156 184.5371094,65.9033203 182.1601563,62.390625 		"/>
		<polygon points="179.7832031,78.6533203 182.1601563,82.1660156 184.5371094,78.6533203 182.1601563,75.140625 		"/>
		<polygon points="188.5351563,69.9003906 185.0234375,72.2783203 188.5351563,74.6552734 192.0478516,72.2783203 		"/>
		<polygon points="172.2734375,72.2783203 175.7851563,74.6552734 179.2978516,72.2783203 175.7851563,69.9003906 		"/>
	</g>
	<g>
		<polygon points="218.4267578,65.9033203 220.8046875,69.4160156 223.1816406,65.9033203 220.8046875,62.390625 		"/>
		<polygon points="218.4267578,78.6533203 220.8046875,82.1660156 223.1816406,78.6533203 220.8046875,75.140625 		"/>
		<polygon points="227.1796875,69.9003906 223.6669922,72.2783203 227.1796875,74.6552734 230.6914063,72.2783203 		"/>
		<polygon points="210.9160156,72.2783203 214.4287109,74.6552734 217.9414063,72.2783203 214.4287109,69.9003906 		"/>
	</g>
	<g>
		<polygon points="249.5605469,72.2783203 253.0722656,74.6552734 256.5849609,72.2783203 253.0722656,69.9003906 		"/>
	</g>
	<g>
		<polygon points="6.8300781,100.7763672 9.2070313,104.2890625 11.5839844,100.7763672 9.2070313,97.2636719 		"/>
		<polygon points="6.8300781,113.5273438 9.2070313,117.0390625 11.5839844,113.5273438 9.2070313,110.0136719 		"/>
		<polygon points="15.5820313,104.7744141 12.0693359,107.1513672 15.5820313,109.5292969 19.09375,107.1513672 		"/>
		<polygon points="-0.6806641,107.1513672 2.8320313,109.5292969 6.34375,107.1513672 2.8320313,104.7744141 		"/>
	</g>
	<g>
		<polygon points="45.4726563,100.7763672 47.8505859,104.2890625 50.2275391,100.7763672 47.8505859,97.2636719 		"/>
		<polygon points="45.4726563,113.5273438 47.8505859,117.0390625 50.2275391,113.5273438 47.8505859,110.0136719 		"/>
		<polygon points="54.2255859,104.7744141 50.7128906,107.1513672 54.2255859,109.5292969 57.7382813,107.1513672 		"/>
		<polygon points="37.9628906,107.1513672 41.4746094,109.5292969 44.9882813,107.1513672 41.4746094,104.7744141 		"/>
	</g>
	<g>
		<polygon points="84.1171875,100.7763672 86.4941406,104.2890625 88.8710938,100.7763672 86.4941406,97.2636719 		"/>
		<polygon points="84.1171875,113.5273438 86.4941406,117.0390625 88.8710938,113.5273438 86.4941406,110.0136719 		"/>
		<polygon points="92.8691406,104.7744141 89.3564453,107.1513672 92.8691406,109.5292969 96.3808594,107.1513672 		"/>
		<polygon points="76.6064453,107.1513672 80.1191406,109.5292969 83.6308594,107.1513672 80.1191406,104.7744141 		"/>
	</g>
	<g>
		<polygon points="122.7597656,100.7763672 125.1376953,104.2890625 127.5146484,100.7763672 125.1376953,97.2636719 		"/>
		<polygon points="122.7597656,113.5273438 125.1376953,117.0390625 127.5146484,113.5273438 125.1376953,110.0136719 		"/>
		<polygon points="131.5126953,104.7744141 128,107.1513672 131.5126953,109.5292969 135.0253906,107.1513672 		"/>
		<polygon points="115.25,107.1513672 118.7626953,109.5292969 122.2753906,107.1513672 118.7626953,104.7744141 		"/>
	</g>
	<g>
		<polygon points="161.4042969,100.7763672 163.78125,104.2890625 166.1582031,100.7763672 163.78125,97.2636719 		"/>
		<polygon points="161.4042969,113.5273438 163.78125,117.0390625 166.1582031,113.5273438 163.78125,110.0136719 		"/>
		<polygon points="170.15625,104.7744141 166.6435547,107.1513672 170.15625,109.5292969 173.6689453,107.1513672 		"/>
		<polygon points="153.8935547,107.1513672 157.40625,109.5292969 160.9179688,107.1513672 157.40625,104.7744141 		"/>
	</g>
	<g>
		<polygon points="200.0478516,100.7763672 202.4248047,104.2890625 204.8027344,100.7763672 202.4248047,97.2636719 		"/>
		<polygon points="200.0478516,113.5273438 202.4248047,117.0390625 204.8027344,113.5273438 202.4248047,110.0136719 		"/>
		<polygon points="208.7998047,104.7744141 205.2871094,107.1513672 208.7998047,109.5292969 212.3125,107.1513672 		"/>
		<polygon points="192.5371094,107.1513672 196.0498047,109.5292969 199.5625,107.1513672 196.0498047,104.7744141 		"/>
	</g>
	<g>
		<polygon points="238.6914063,100.7763672 241.0683594,104.2890625 243.4453125,100.7763672 241.0683594,97.2636719 		"/>
		<polygon points="238.6914063,113.5273438 241.0683594,117.0390625 243.4453125,113.5273438 241.0683594,110.0136719 		"/>
		<polygon points="247.4433594,104.7744141 243.9316406,107.1513672 247.4433594,109.5292969 250.9560547,107.1513672 		"/>
		<polygon points="231.1806641,107.1513672 234.6933594,109.5292969 238.2060547,107.1513672 234.6933594,104.7744141 		"/>
	</g>
	<g>
		<polygon points="25.2089844,138.0546875 27.5859375,141.5673828 29.9628906,138.0546875 27.5859375,134.5419922 		"/>
		<polygon points="25.2089844,150.8046875 27.5859375,154.3173828 29.9628906,150.8046875 27.5859375,147.2919922 		"/>
		<polygon points="33.9609375,142.0527344 30.4482422,144.4296875 33.9609375,146.8066406 37.4736328,144.4296875 		"/>
		<polygon points="17.6982422,144.4296875 21.2109375,146.8066406 24.7226563,144.4296875 21.2109375,142.0527344 		"/>
	</g>
	<g>
		<polygon points="63.8525391,138.0546875 66.2294922,141.5673828 68.6064453,138.0546875 66.2294922,134.5419922 		"/>
		<polygon points="63.8525391,150.8046875 66.2294922,154.3173828 68.6064453,150.8046875 66.2294922,147.2919922 		"/>
		<polygon points="72.6044922,142.0527344 69.0917969,144.4296875 72.6044922,146.8066406 76.1171875,144.4296875 		"/>
		<polygon points="56.3417969,144.4296875 59.8544922,146.8066406 63.3671875,144.4296875 59.8544922,142.0527344 		"/>
	</g>
	<g>
		<polygon points="102.4960938,138.0546875 104.8730469,141.5673828 107.25,138.0546875 104.8730469,134.5419922 		"/>
		<polygon points="102.4960938,150.8046875 104.8730469,154.3173828 107.25,150.8046875 104.8730469,147.2919922 		"/>
		<polygon points="111.2480469,142.0527344 107.7363281,144.4296875 111.2480469,146.8066406 114.7607422,144.4296875 		"/>
		<polygon points="94.9853516,144.4296875 98.4980469,146.8066406 102.0107422,144.4296875 98.4980469,142.0527344 		"/>
	</g>
	<g>
		<polygon points="141.1396484,138.0546875 143.5166016,141.5673828 145.8945313,138.0546875 143.5166016,134.5419922 		"/>
		<polygon points="141.1396484,150.8046875 143.5166016,154.3173828 145.8945313,150.8046875 143.5166016,147.2919922 		"/>
		<polygon points="149.8925781,142.0527344 146.3789063,144.4296875 149.8925781,146.8066406 153.4042969,144.4296875 		"/>
		<polygon points="133.6289063,144.4296875 137.1416016,146.8066406 140.6542969,144.4296875 137.1416016,142.0527344 		"/>
	</g>
	<g>
		<polygon points="179.7832031,138.0546875 182.1601563,141.5673828 184.5371094,138.0546875 182.1601563,134.5419922 		"/>
		<polygon points="179.7832031,150.8046875 182.1601563,154.3173828 184.5371094,150.8046875 182.1601563,147.2919922 		"/>
		<polygon points="188.5351563,142.0527344 185.0234375,144.4296875 188.5351563,146.8066406 192.0478516,144.4296875 		"/>
		<polygon points="172.2734375,144.4296875 175.7851563,146.8066406 179.2978516,144.4296875 175.7851563,142.0527344 		"/>
	</g>
	<g>
		<polygon points="218.4267578,138.0546875 220.8046875,141.5673828 223.1816406,138.0546875 220.8046875,134.5419922 		"/>
		<polygon points="218.4267578,150.8046875 220.8046875,154.3173828 223.1816406,150.8046875 220.8046875,147.2919922 		"/>
		<polygon points="227.1796875,142.0527344 223.6669922,144.4296875 227.1796875,146.8066406 230.6914063,144.4296875 		"/>
		<polygon points="210.9160156,144.4296875 214.4287109,146.8066406 217.9414063,144.4296875 214.4287109,142.0527344 		"/>
	</g>
	<g>
		<polygon points="249.5605469,144.4296875 253.0722656,146.8066406 256.5849609,144.4296875 253.0722656,142.0527344 		"/>
	</g>
	<g>
		<polygon points="6.8300781,172.9277344 9.2070313,176.4404297 11.5839844,172.9277344 9.2070313,169.4160156 		"/>
		<polygon points="6.8300781,185.6787109 9.2070313,189.1914063 11.5839844,185.6787109 9.2070313,182.1660156 		"/>
		<polygon points="15.5820313,176.9257813 12.0693359,179.3027344 15.5820313,181.6806641 19.09375,179.3027344 		"/>
		<polygon points="-0.6806641,179.3027344 2.8320313,181.6806641 6.34375,179.3027344 2.8320313,176.9257813 		"/>
	</g>
	<g>
		<polygon points="45.4726563,172.9277344 47.8505859,176.4404297 50.2275391,172.9277344 47.8505859,169.4160156 		"/>
		<polygon points="45.4726563,185.6787109 47.8505859,189.1914063 50.2275391,185.6787109 47.8505859,182.1660156 		"/>
		<polygon points="54.2255859,176.9257813 50.7128906,179.3027344 54.2255859,181.6806641 57.7382813,179.3027344 		"/>
		<polygon points="37.9628906,179.3027344 41.4746094,181.6806641 44.9882813,179.3027344 41.4746094,176.9257813 		"/>
	</g>
	<g>
		<polygon points="84.1171875,172.9277344 86.4941406,176.4404297 88.8710938,172.9277344 86.4941406,169.4160156 		"/>
		<polygon points="84.1171875,185.6787109 86.4941406,189.1914063 88.8710938,185.6787109 86.4941406,182.1660156 		"/>
		<polygon points="92.8691406,176.9257813 89.3564453,179.3027344 92.8691406,181.6806641 96.3808594,179.3027344 		"/>
		<polygon points="76.6064453,179.3027344 80.1191406,181.6806641 83.6308594,179.3027344 80.1191406,176.9257813 		"/>
	</g>
	<g>
		<polygon points="122.7597656,172.9277344 125.1376953,176.4404297 127.5146484,172.9277344 125.1376953,169.4160156 		"/>
		<polygon points="122.7597656,185.6787109 125.1376953,189.1914063 127.5146484,185.6787109 125.1376953,182.1660156 		"/>
		<polygon points="131.5126953,176.9257813 128,179.3027344 131.5126953,181.6806641 135.0253906,179.3027344 		"/>
		<polygon points="115.25,179.3027344 118.7626953,181.6806641 122.2753906,179.3027344 118.7626953,176.9257813 		"/>
	</g>
	<g>
		<polygon points="161.4042969,172.9277344 163.78125,176.4404297 166.1582031,172.9277344 163.78125,169.4160156 		"/>
		<polygon points="161.4042969,185.6787109 163.78125,189.1914063 166.1582031,185.6787109 163.78125,182.1660156 		"/>
		<polygon points="170.15625,176.9257813 166.6435547,179.3027344 170.15625,181.6806641 173.6689453,179.3027344 		"/>
		<polygon points="153.8935547,179.3027344 157.40625,181.6806641 160.9179688,179.3027344 157.40625,176.9257813 		"/>
	</g>
	<g>
		<polygon points="200.0478516,172.9277344 202.4248047,176.4404297 204.8027344,172.9277344 202.4248047,169.4160156 		"/>
		<polygon points="200.0478516,185.6787109 202.4248047,189.1914063 204.8027344,185.6787109 202.4248047,182.1660156 		"/>
		<polygon points="208.7998047,176.9257813 205.2871094,179.3027344 208.7998047,181.6806641 212.3125,179.3027344 		"/>
		<polygon points="192.5371094,179.3027344 196.0498047,181.6806641 199.5625,179.3027344 196.0498047,176.9257813 		"/>
	</g>
	<g>
		<polygon points="238.6914063,172.9277344 241.0683594,176.4404297 243.4453125,172.9277344 241.0683594,169.4160156 		"/>
		<polygon points="238.6914063,185.6787109 241.0683594,189.1914063 243.4453125,185.6787109 241.0683594,182.1660156 		"/>
		<polygon points="247.4433594,176.9257813 243.9316406,179.3027344 247.4433594,181.6806641 250.9560547,179.3027344 		"/>
		<polygon points="231.1806641,179.3027344 234.6933594,181.6806641 238.2060547,179.3027344 234.6933594,176.9257813 		"/>
	</g>
	<g>
		<polygon points="25.2089844,210.2060547 27.5859375,213.71875 29.9628906,210.2060547 27.5859375,206.6933594 		"/>
		<polygon points="25.2089844,222.9560547 27.5859375,226.46875 29.9628906,222.9560547 27.5859375,219.4433594 		"/>
		<polygon points="33.9609375,214.2041016 30.4482422,216.5810547 33.9609375,218.9589844 37.4736328,216.5810547 		"/>
		<polygon points="17.6982422,216.5810547 21.2109375,218.9589844 24.7226563,216.5810547 21.2109375,214.2041016 		"/>
	</g>
	<g>
		<polygon points="63.8525391,210.2060547 66.2294922,213.71875 68.6064453,210.2060547 66.2294922,206.6933594 		"/>
		<polygon points="63.8525391,222.9560547 66.2294922,226.46875 68.6064453,222.9560547 66.2294922,219.4433594 		"/>
		<polygon points="72.6044922,214.2041016 69.0917969,216.5810547 72.6044922,218.9589844 76.1171875,216.5810547 		"/>
		<polygon points="56.3417969,216.5810547 59.8544922,218.9589844 63.3671875,216.5810547 59.8544922,214.2041016 		"/>
	</g>
	<g>
		<polygon points="102.4960938,210.2060547 104.8730469,213.71875 107.25,210.2060547 104.8730469,206.6933594 		"/>
		<polygon points="102.4960938,222.9560547 104.8730469,226.46875 107.25,222.9560547 104.8730469,219.4433594 		"/>
		<polygon points="111.2480469,214.2041016 107.7363281,216.5810547 111.2480469,218.9589844 114.7607422,216.5810547 		"/>
		<polygon points="94.9853516,216.5810547 98.4980469,218.9589844 102.0107422,216.5810547 98.4980469,214.2041016 		"/>
	</g>
	<g>
		<polygon points="141.1396484,210.2060547 143.5166016,213.71875 145.8945313,210.2060547 143.5166016,206.6933594 		"/>
		<polygon points="141.1396484,222.9560547 143.5166016,226.46875 145.8945313,222.9560547 143.5166016,219.4433594 		"/>
		<polygon points="149.8925781,214.2041016 146.3789063,216.5810547 149.8925781,218.9589844 153.4042969,216.5810547 		"/>
		<polygon points="133.6289063,216.5810547 137.1416016,218.9589844 140.6542969,216.5810547 137.1416016,214.2041016 		"/>
	</g>
	<g>
		<polygon points="179.7832031,210.2060547 182.1601563,213.71875 184.5371094,210.2060547 182.1601563,206.6933594 		"/>
		<polygon points="179.7832031,222.9560547 182.1601563,226.46875 184.5371094,222.9560547 182.1601563,219.4433594 		"/>
		<polygon points="188.5351563,214.2041016 185.0234375,216.5810547 188.5351563,218.9589844 192.0478516,216.5810547 		"/>
		<polygon points="172.2734375,216.5810547 175.7851563,218.9589844 179.2978516,216.5810547 175.7851563,214.2041016 		"/>
	</g>
	<g>
		<polygon points="218.4267578,210.2060547 220.8046875,213.71875 223.1816406,210.2060547 220.8046875,206.6933594 		"/>
		<polygon points="218.4267578,222.9560547 220.8046875,226.46875 223.1816406,222.9560547 220.8046875,219.4433594 		"/>
		<polygon points="227.1796875,214.2041016 223.6669922,216.5810547 227.1796875,218.9589844 230.6914063,216.5810547 		"/>
		<polygon points="210.9160156,216.5810547 214.4287109,218.9589844 217.9414063,216.5810547 214.4287109,214.2041016 		"/>
	</g>
	<g>
		<polygon points="249.5605469,216.5810547 253.0722656,218.9589844 256.5849609,216.5810547 253.0722656,214.2041016 		"/>
	</g>
	<g>
		<polygon points="6.8300781,245.0800781 9.2070313,248.5917969 11.5839844,245.0800781 9.2070313,241.5673828 		"/>
		<polygon points="15.5820313,249.078125 12.0693359,251.4550781 15.5820313,253.8320313 19.09375,251.4550781 		"/>
		<polygon points="-0.6806641,251.4550781 2.8320313,253.8320313 6.34375,251.4550781 2.8320313,249.078125 		"/>
	</g>
	<g>
		<polygon points="45.4726563,245.0800781 47.8505859,248.5917969 50.2275391,245.0800781 47.8505859,241.5673828 		"/>
		<polygon points="54.2255859,249.078125 50.7128906,251.4550781 54.2255859,253.8320313 57.7382813,251.4550781 		"/>
		<polygon points="37.9628906,251.4550781 41.4746094,253.8320313 44.9882813,251.4550781 41.4746094,249.078125 		"/>
	</g>
	<g>
		<polygon points="84.1171875,245.0800781 86.4941406,248.5917969 88.8710938,245.0800781 86.4941406,241.5673828 		"/>
		<polygon points="92.8691406,249.078125 89.3564453,251.4550781 92.8691406,253.8320313 96.3808594,251.4550781 		"/>
		<polygon points="76.6064453,251.4550781 80.1191406,253.8320313 83.6308594,251.4550781 80.1191406,249.078125 		"/>
	</g>
	<g>
		<polygon points="122.7597656,245.0800781 125.1376953,248.5917969 127.5146484,245.0800781 125.1376953,241.5673828 		"/>
		<polygon points="131.5126953,249.078125 128,251.4550781 131.5126953,253.8320313 135.0253906,251.4550781 		"/>
		<polygon points="115.25,251.4550781 118.7626953,253.8320313 122.2753906,251.4550781 118.7626953,249.078125 		"/>
	</g>
	<g>
		<polygon points="161.4042969,245.0800781 163.78125,248.5917969 166.1582031,245.0800781 163.78125,241.5673828 		"/>
		<polygon points="170.15625,249.078125 166.6435547,251.4550781 170.15625,253.8320313 173.6689453,251.4550781 		"/>
		<polygon points="153.8935547,251.4550781 157.40625,253.8320313 160.9179688,251.4550781 157.40625,249.078125 		"/>
	</g>
	<g>
		<polygon points="200.0478516,245.0800781 202.4248047,248.5917969 204.8027344,245.0800781 202.4248047,241.5673828 		"/>
		<polygon points="208.7998047,249.078125 205.2871094,251.4550781 208.7998047,253.8320313 212.3125,251.4550781 		"/>
		<polygon points="192.5371094,251.4550781 196.0498047,253.8320313 199.5625,251.4550781 196.0498047,249.078125 		"/>
	</g>
	<g>
		<polygon points="238.6914063,245.0800781 241.0683594,248.5917969 243.4453125,245.0800781 241.0683594,241.5673828 		"/>
		<polygon points="247.4433594,249.078125 243.9316406,251.4550781 247.4433594,253.8320313 250.9560547,251.4550781 		"/>
		<polygon points="231.1806641,251.4550781 234.6933594,253.8320313 238.2060547,251.4550781 234.6933594,249.078125 		"/>
	</g>
</g>
</svg>
