<?xml version="1.0" encoding="utf-8"?>
<!-- Generator: Adobe Illustrator 16.0.0, SVG Export Plug-In . SVG Version: 6.00 Build 0)  -->
<!DOCTYPE svg PUBLIC "-//W3C//DTD SVG 1.1//EN" "http://www.w3.org/Graphics/SVG/1.1/DTD/svg11.dtd">
<svg version="1.1" id="Layer_2_copy_14" xmlns="http://www.w3.org/2000/svg" xmlns:xlink="http://www.w3.org/1999/xlink" x="0px"
	 y="0px" width="250px" height="250px" viewBox="0 0 250 250" enable-background="new 0 0 250 250" xml:space="preserve">
<g opacity="0.1">
	<g>
		<path d="M226.0175781,273.6835938c-1.4521484,0-2.8857422-0.6611328-3.8232422-1.9140625
			c-1.578125-2.1103516-1.1474609-5.0996094,0.9628906-6.6777344l33.7841797-25.2705078
			c2.1074219-1.578125,5.0966797-1.1474609,6.6767578,0.9638672c1.578125,2.109375,1.1474609,5.0986328-0.9628906,6.6767578
			l-33.7841797,25.2705078C228.0136719,273.3740234,227.0117188,273.6835938,226.0175781,273.6835938z"/>
		<path d="M219.9785156,254.3222656c-0.5449219,0-1.0820313-0.2480469-1.4335938-0.7177734
			c-0.5917969-0.7919922-0.4296875-1.9130859,0.3613281-2.5048828l20.5595703-15.3779297
			c0.7919922-0.5908203,1.9130859-0.4287109,2.5048828,0.3613281c0.5908203,0.7919922,0.4296875,1.9121094-0.3613281,2.5039063
			l-20.5605469,15.3779297C220.7275391,254.2050781,220.3515625,254.3222656,219.9785156,254.3222656z"/>
		<path d="M184.5537109,261.6591797c-1.0888672,0-2.1650391-0.4960938-2.8671875-1.4345703
			c-1.1835938-1.5830078-0.8613281-3.8251953,0.7216797-5.0078125l41.4628906-31.0136719
			c1.5800781-1.1855469,3.8251953-0.8613281,5.0078125,0.7226563c1.1835938,1.5810547,0.8613281,3.8242188-0.7216797,5.0078125
			l-41.4628906,31.0126953C186.0517578,261.4277344,185.2988281,261.6591797,184.5537109,261.6591797z"/>
		<path d="M242.0371094,218.6640625c-1.0898438,0-2.1660156-0.4960938-2.8681641-1.4355469
			c-1.1826172-1.5820313-0.8603516-3.8242188,0.7226563-5.0078125l43.5498047-32.5742188
			c1.5800781-1.1835938,3.8232422-0.8603516,5.0078125,0.7226563c1.1835938,1.5820313,0.8603516,3.8242188-0.7216797,5.0078125
			l-43.5498047,32.5742188C243.5341797,218.4316406,242.7822266,218.6640625,242.0371094,218.6640625z"/>
		<path d="M184.5527344,238.9433594c-0.5449219,0-1.0820313-0.2470703-1.4335938-0.7167969
			c-0.5917969-0.7910156-0.4296875-1.9130859,0.3603516-2.5048828l10.4384766-7.8066406
			c0.7919922-0.5917969,1.9121094-0.4296875,2.5039063,0.3603516c0.5917969,0.7910156,0.4296875,1.9130859-0.3613281,2.5048828
			l-10.4375,7.8066406C185.3017578,238.828125,184.9248047,238.9433594,184.5527344,238.9433594z"/>
		<path d="M207.8662109,221.5058594c-0.5449219,0-1.0820313-0.2470703-1.4335938-0.7177734
			c-0.5917969-0.7900391-0.4296875-1.9121094,0.3603516-2.5039063l43.3544922-32.4267578
			c0.7919922-0.5908203,1.9121094-0.4296875,2.5039063,0.3613281s0.4296875,1.9121094-0.3603516,2.5039063l-43.3544922,32.4267578
			C208.6152344,221.390625,208.2382813,221.5058594,207.8662109,221.5058594z"/>
		<path d="M184.5537109,218.5898438c-0.7304688,0-1.4511719-0.3339844-1.9199219-0.9658203
			c-0.7832031-1.0595703-0.5605469-2.5517578,0.4990234-3.3359375l27.7734375-20.5566406
			c1.0566406-0.7861328,2.5498047-0.5615234,3.3349609,0.4970703c0.7841797,1.0585938,0.5615234,2.5527344-0.4980469,3.3369141
			l-27.7734375,20.5566406C185.5439453,218.4375,185.0458984,218.5898438,184.5537109,218.5898438z"/>
		<path d="M224.1191406,188.9970703c-0.7294922,0-1.4492188-0.3330078-1.9160156-0.9619141
			c-0.7861328-1.0576172-0.5673828-2.5517578,0.4902344-3.3378906l47.9072266-35.6220703
			c1.0576172-0.7871094,2.5527344-0.5654297,3.3369141,0.4912109c0.7861328,1.0566406,0.5673828,2.5507813-0.4902344,3.3369141
			l-47.9072266,35.6220703C225.1123047,188.84375,224.6132813,188.9970703,224.1191406,188.9970703z"/>
		<circle cx="201.0556641" cy="224.3847656" r="2.7412109"/>
		<circle cx="217.6743164" cy="191.3457031" r="2.7407227"/>
		<path d="M184.5527344,198.4277344c-0.5449219,0-1.0820313-0.2480469-1.4335938-0.7177734
			c-0.5917969-0.7900391-0.4296875-1.9121094,0.3603516-2.5039063l11.7294922-8.7734375
			c0.7939453-0.5908203,1.9130859-0.4287109,2.5048828,0.3603516c0.5908203,0.7910156,0.4296875,1.9130859-0.3613281,2.5039063
			l-11.7294922,8.7744141C185.3017578,198.3105469,184.9248047,198.4277344,184.5527344,198.4277344z"/>
		<path d="M212.4873047,177.5332031c-0.5449219,0-1.0820313-0.2480469-1.4335938-0.7177734
			c-0.5917969-0.7900391-0.4296875-1.9121094,0.3613281-2.5039063l31.8261719-23.8046875
			c0.7919922-0.5898438,1.9121094-0.4287109,2.5039063,0.3603516c0.5917969,0.7910156,0.4296875,1.9130859-0.3613281,2.5039063
			l-31.8261719,23.8056641C213.2363281,177.4160156,212.8603516,177.5332031,212.4873047,177.5332031z"/>
		<circle cx="204.1489258" cy="182.03125" r="2.7407227"/>
		<path d="M196.9501953,150.7167969c-1.0888672,0-2.1650391-0.4960938-2.8671875-1.4355469
			c-1.1835938-1.5820313-0.8603516-3.8242188,0.7226563-5.0078125l48.9570313-36.6191406
			c1.5820313-1.1831055,3.8251953-0.8618164,5.0078125,0.722168c1.1835938,1.5830078,0.8613281,3.824707-0.7216797,5.0083008
			l-48.9580078,36.6191406C198.4482422,150.484375,197.6962891,150.7167969,196.9501953,150.7167969z"/>
		<circle cx="183.8798828" cy="155.0273438" r="3.8291016"/>
		<circle cx="233.4057617" cy="220.5546875" r="3.8286133"/>
		<path d="M184.5546875,180.6621094c-1.4521484,0-2.8857422-0.6611328-3.8232422-1.9140625
			c-1.578125-2.109375-1.1474609-5.0996094,0.9628906-6.6777344l21.9794922-16.4404297
			c2.109375-1.5771484,5.0966797-1.1484375,6.6777344,0.9638672c1.578125,2.109375,1.1474609,5.0986328-0.9628906,6.6767578
			l-21.9804688,16.4404297C186.5507813,180.3515625,185.5498047,180.6621094,184.5546875,180.6621094z"/>
		<path d="M226.0175781,149.6494141c-1.4521484,0-2.8857422-0.6611328-3.8232422-1.9130859
			c-1.578125-2.1113281-1.1474609-5.1005859,0.9628906-6.6787109l33.7841797-25.2705078
			c2.1074219-1.578125,5.0966797-1.1469727,6.6767578,0.9633789c1.578125,2.109375,1.1474609,5.0991211-0.9628906,6.6772461
			l-33.7841797,25.2695313C228.0136719,149.3398438,227.0117188,149.6494141,226.0175781,149.6494141z"/>
		<circle cx="215.7602539" cy="152.0058594" r="3.8286133"/>
	</g>
	<g>
		<path d="M141,268.7431641c-0.5449219,0-1.0820313-0.2480469-1.4335938-0.7177734
			c-0.5917969-0.7910156-0.4296875-1.9121094,0.3613281-2.5039063l34.3095703-25.6621094
			c0.7919922-0.5908203,1.9121094-0.4296875,2.5039063,0.3603516c0.5917969,0.7910156,0.4296875,1.9130859-0.3613281,2.5048828
			l-34.3095703,25.6621094C141.7490234,268.6269531,141.3730469,268.7431641,141,268.7431641z"/>
		<path d="M77.6865234,277.6611328c-1.0888672,0-2.1650391-0.4951172-2.8671875-1.4355469
			c-1.1835938-1.5820313-0.8603516-3.8242188,0.7226563-5.0078125l48.9570313-36.6181641
			c1.5820313-1.1835938,3.8251953-0.8623047,5.0078125,0.7216797c1.1835938,1.5830078,0.8613281,3.8251953-0.7216797,5.0078125
			l-48.9580078,36.6191406C79.1845703,277.4287109,78.4326172,277.6611328,77.6865234,277.6611328z"/>
		<path d="M106.7539063,276.59375c-1.4521484,0-2.8857422-0.6611328-3.8232422-1.9130859
			c-1.578125-2.1103516-1.1474609-5.1005859,0.9628906-6.6787109l33.7841797-25.2695313
			c2.1074219-1.578125,5.0966797-1.1474609,6.6767578,0.9628906c1.578125,2.109375,1.1474609,5.0996094-0.9628906,6.6777344
			l-33.7841797,25.2695313C108.75,276.2841797,107.7480469,276.59375,106.7539063,276.59375z"/>
	</g>
	<g>
		<path d="M42.515625,250.4365234c-0.5439453,0-1.0820313-0.2470703-1.4335938-0.7177734
			c-0.5917969-0.7910156-0.4296875-1.9121094,0.3613281-2.5039063l16.2392578-12.1464844
			c0.7900391-0.5917969,1.9111328-0.4306641,2.5039063,0.3613281c0.5917969,0.7910156,0.4296875,1.9121094-0.3613281,2.5039063
			l-16.2392578,12.1464844C43.2646484,250.3212891,42.8886719,250.4365234,42.515625,250.4365234z"/>
		<path d="M-12.5107422,273.6835938c-1.4511719,0-2.8857422-0.6611328-3.8242188-1.9140625
			c-1.578125-2.1103516-1.1455078-5.0996094,0.9638672-6.6777344l33.7841797-25.2705078
			c2.1074219-1.578125,5.0966797-1.1474609,6.6767578,0.9638672c1.578125,2.109375,1.1474609,5.0986328-0.9619141,6.6767578
			l-33.7851563,25.2705078C-10.5136719,273.3740234-11.5166016,273.6835938-12.5107422,273.6835938z"/>
		<path d="M41.5654297,233.7285156c-1.453125,0-2.8876953-0.6601563-3.8251953-1.9130859
			c-1.5761719-2.109375-1.1464844-5.0986328,0.9638672-6.6767578l13.140625-9.8300781
			c2.109375-1.578125,5.0966797-1.1484375,6.6777344,0.9628906c1.5791016,2.109375,1.1464844,5.0996094-0.9638672,6.6777344
			l-13.140625,9.8300781C43.5605469,233.4199219,42.5585938,233.7285156,41.5654297,233.7285156z"/>
		<path d="M-18.5488281,254.3222656c-0.5458984,0-1.0830078-0.2480469-1.4345703-0.7177734
			c-0.5917969-0.7919922-0.4287109-1.9130859,0.3613281-2.5048828L0.9375,235.7216797
			c0.7929688-0.5908203,1.9130859-0.4287109,2.5039063,0.3613281c0.5917969,0.7919922,0.4316406,1.9121094-0.3603516,2.5039063
			l-20.5605469,15.3779297C-17.8007813,254.2050781-18.1757813,254.3222656-18.5488281,254.3222656z"/>
		<path d="M14.9697266,229.2509766c-0.5458984,0-1.0830078-0.2470703-1.4345703-0.7177734
			c-0.5917969-0.7910156-0.4287109-1.9121094,0.3613281-2.5039063l14.0732422-10.5263672
			c0.7949219-0.5917969,1.9130859-0.4296875,2.5039063,0.3603516c0.5917969,0.7910156,0.4306641,1.9130859-0.3603516,2.5048828
			l-14.0742188,10.5263672C15.7177734,229.1357422,15.3427734,229.2509766,14.9697266,229.2509766z"/>
		<path d="M43.6083984,207.8300781c-0.5449219,0-1.0820313-0.2480469-1.4335938-0.7177734
			c-0.5917969-0.7919922-0.4296875-1.9121094,0.3603516-2.5039063l12.4365234-9.3017578
			c0.7919922-0.59375,1.9140625-0.4296875,2.5058594,0.3603516c0.5898438,0.7910156,0.4287109,1.9130859-0.3623047,2.5048828
			l-12.4365234,9.3017578C44.3583984,207.7128906,43.9804688,207.8300781,43.6083984,207.8300781z"/>
		<path d="M3.5078125,218.6640625c-1.0888672,0-2.1650391-0.4960938-2.8671875-1.4355469
			c-1.1835938-1.5820313-0.8603516-3.8242188,0.7236328-5.0078125l43.5488281-32.5742188
			c1.5810547-1.1835938,3.8232422-0.8603516,5.0078125,0.7226563c1.1835938,1.5820313,0.8603516,3.8242188-0.7216797,5.0078125
			L5.6484375,217.9511719C5.0058594,218.4316406,4.2539063,218.6640625,3.5078125,218.6640625z"/>
		<path d="M-30.6621094,221.5058594c-0.5458984,0-1.0820313-0.2470703-1.4326172-0.7177734
			c-0.5917969-0.7900391-0.4316406-1.9121094,0.359375-2.5039063l43.3554688-32.4267578
			c0.7910156-0.5908203,1.9111328-0.4296875,2.5039063,0.3613281c0.5917969,0.7910156,0.4287109,1.9121094-0.3623047,2.5039063
			l-43.3535156,32.4267578C-29.9140625,221.390625-30.2900391,221.5058594-30.6621094,221.5058594z"/>
		<path d="M24.2421875,180.4394531c-0.546875,0-1.0830078-0.2460938-1.4355469-0.7167969
			c-0.5917969-0.7910156-0.4287109-1.9121094,0.3623047-2.5039063l31.8027344-23.7890625
			c0.7919922-0.5898438,1.9140625-0.4296875,2.5058594,0.3613281c0.5898438,0.7919922,0.4287109,1.9121094-0.3623047,2.5039063
			l-31.8037109,23.7890625C24.9892578,180.3242188,24.6142578,180.4394531,24.2421875,180.4394531z"/>
		<path d="M-14.4091797,188.9970703c-0.7294922,0-1.4492188-0.3330078-1.9160156-0.9619141
			c-0.7861328-1.0576172-0.5673828-2.5517578,0.4902344-3.3378906l47.9072266-35.6220703
			c1.0576172-0.7871094,2.5527344-0.5654297,3.3369141,0.4912109c0.7861328,1.0566406,0.5673828,2.5507813-0.4902344,3.3369141
			l-47.9072266,35.6220703C-13.4160156,188.84375-13.9150391,188.9970703-14.4091797,188.9970703z"/>
		<path d="M44.4921875,144.9404297c-0.7255859,0-1.4443359-0.3310547-1.9121094-0.9570313
			c-0.7890625-1.0537109-0.5722656-2.5498047,0.4804688-3.3388672l11.5537109-8.640625
			c1.0566406-0.7910156,2.5507813-0.5742188,3.3398438,0.4804688c0.7880859,1.0546875,0.5722656,2.5488281-0.4814453,3.3388672
			l-11.5537109,8.6416016C45.4912109,144.7851563,44.9892578,144.9404297,44.4921875,144.9404297z"/>
		<circle cx="8.2573242" cy="231.7519531" r="2.7416992"/>
		<circle cx="18.6005859" cy="182.8476563" r="2.7412109"/>
		<circle cx="39.0224609" cy="146.3046875" r="2.7412109"/>
		<circle cx="36.1479492" cy="210.9560547" r="2.7407227"/>
		<path d="M-26.0410156,177.5332031c-0.5449219,0-1.0820313-0.2480469-1.4326172-0.7177734
			c-0.5917969-0.7900391-0.4306641-1.9121094,0.3603516-2.5039063l31.8261719-23.8046875
			c0.7919922-0.5898438,1.9130859-0.4287109,2.5048828,0.3603516c0.5908203,0.7910156,0.4287109,1.9130859-0.3623047,2.5039063
			l-31.8261719,23.8056641C-25.2919922,177.4160156-25.6679688,177.5332031-26.0410156,177.5332031z"/>
		<path d="M21.7353516,141.7988281c-0.5439453,0-1.0810547-0.2480469-1.4335938-0.71875
			c-0.5917969-0.7900391-0.4296875-1.9121094,0.3623047-2.5039063l34.3076172-25.6621094
			c0.7919922-0.590332,1.9140625-0.4296875,2.5058594,0.3608398c0.5898438,0.7910156,0.4287109,1.9125977-0.3623047,2.5043945
			l-34.3095703,25.6621094C22.484375,141.6816406,22.1083984,141.7988281,21.7353516,141.7988281z"/>
		<circle cx="13.7802734" cy="145.8398438" r="2.7412109"/>
		<path d="M-41.578125,150.7167969c-1.0888672,0-2.1650391-0.4960938-2.8671875-1.4355469
			c-1.1835938-1.5820313-0.8603516-3.8242188,0.7216797-5.0078125L5.234375,107.6542969
			c1.5810547-1.1831055,3.8242188-0.8618164,5.0087891,0.722168c1.1826172,1.5830078,0.8603516,3.824707-0.7226563,5.0083008
			L-39.4375,150.0039063C-40.0800781,150.484375-40.8320313,150.7167969-41.578125,150.7167969z"/>
		<circle cx="31.1040039" cy="234.8066406" r="3.8286133"/>
		<path d="M-12.5107422,149.6494141c-1.4511719,0-2.8857422-0.6611328-3.8242188-1.9130859
			c-1.578125-2.1113281-1.1455078-5.1005859,0.9638672-6.6787109l33.7841797-25.2705078
			c2.1074219-1.578125,5.0966797-1.1469727,6.6767578,0.9633789c1.578125,2.109375,1.1474609,5.0991211-0.9619141,6.6772461
			l-33.7851563,25.2695313C-10.5136719,149.3398438-11.5166016,149.6494141-12.5107422,149.6494141z"/>
	</g>
	<g>
		<path d="M184.5527344,131.5273438c-0.5449219,0-1.0820313-0.2480469-1.4335938-0.7167969
			c-0.5917969-0.7910156-0.4296875-1.9121094,0.3603516-2.5039063l11.7294922-8.7749023
			c0.7939453-0.5893555,1.9130859-0.4272461,2.5048828,0.3623047c0.5908203,0.7895508,0.4296875,1.9125977-0.3613281,2.5039063
			l-11.7294922,8.7739258C185.3017578,131.4121094,184.9248047,131.5273438,184.5527344,131.5273438z"/>
		<path d="M212.4873047,110.6337891c-0.5449219,0-1.0820313-0.2480469-1.4335938-0.7177734
			c-0.5917969-0.7905273-0.4296875-1.9121094,0.3613281-2.5048828l31.8261719-23.8041992
			c0.7919922-0.590332,1.9121094-0.4282227,2.5039063,0.3613281c0.5917969,0.7905273,0.4296875,1.9111328-0.3613281,2.5039063
			l-31.8261719,23.8051758C213.2363281,110.5170898,212.8603516,110.6337891,212.4873047,110.6337891z"/>
		<path d="M197.6025391,102.6625977c-1.0888672,0-2.1650391-0.4951172-2.8671875-1.4350586
			c-1.1835938-1.5839844-0.8603516-3.824707,0.7216797-5.0078125l48.9580078-36.6201172
			c1.5810547-1.1835938,3.8251953-0.8618164,5.0078125,0.722168c1.1835938,1.5825195,0.8603516,3.824707-0.7216797,5.0078125
			l-48.9580078,36.6201172C199.1005859,102.4306641,198.3486328,102.6625977,197.6025391,102.6625977z"/>
		<path d="M184.5537109,90.2807617c-0.7265625,0-1.4443359-0.3320313-1.9121094-0.9560547
			c-0.7890625-1.0551758-0.5732422-2.5507813,0.4804688-3.3393555l27.9355469-20.8955078
			c1.0566406-0.7895508,2.5517578-0.5708008,3.3388672,0.480957c0.7880859,1.0551758,0.5732422,2.5507813-0.4814453,3.3393555
			l-27.9345703,20.894043C185.5517578,90.1259766,185.0498047,90.2807617,184.5537109,90.2807617z"/>
		<path d="M223.5693359,60.8793945c-0.7265625,0-1.4443359-0.3305664-1.9121094-0.9560547
			c-0.7890625-1.0551758-0.5732422-2.5507813,0.4804688-3.3393555l42.3320313-31.6630859
			c1.0566406-0.7885742,2.5517578-0.5717773,3.3388672,0.480957c0.7890625,1.0551758,0.5732422,2.5507813-0.4804688,3.3393555
			l-42.3320313,31.6630859C224.5673828,60.7246094,224.0654297,60.8793945,223.5693359,60.8793945z"/>
		<path d="M184.5527344,68.7573242c-0.5449219,0-1.0820313-0.2480469-1.4335938-0.7172852
			c-0.5917969-0.7910156-0.4296875-1.9125977,0.3603516-2.5039063l8.3779297-6.2661133
			c0.7919922-0.5908203,1.9121094-0.4296875,2.5039063,0.3608398C194.953125,60.421875,194.7910156,61.543457,194,62.1347656
			l-8.3769531,6.2661133C185.3017578,68.6411133,184.9248047,68.7573242,184.5527344,68.7573242z"/>
		<path d="M207.4667969,51.6191406c-0.5449219,0-1.0820313-0.2480469-1.4335938-0.7172852
			c-0.5917969-0.7910156-0.4306641-1.9125977,0.3603516-2.5043945l25.0253906-18.71875
			c0.7939453-0.590332,1.9130859-0.4287109,2.5048828,0.3613281c0.5917969,0.7905273,0.4296875,1.9121094-0.3613281,2.5039063
			l-25.0253906,18.71875C208.2158203,51.5024414,207.8388672,51.6191406,207.4667969,51.6191406z"/>
		<path d="M184.5546875,50.8051758c-1.4521484,0-2.8857422-0.6606445-3.8232422-1.9135742
			c-1.578125-2.109375-1.1474609-5.0991211,0.9628906-6.6772461l21.9794922-16.440918
			c2.109375-1.5766602,5.0966797-1.1484375,6.6777344,0.9633789c1.578125,2.109375,1.1474609,5.0991211-0.9628906,6.6772461
			l-21.9804688,16.4404297C186.5507813,50.4951172,185.5498047,50.8051758,184.5546875,50.8051758z"/>
		<path d="M226.0175781,19.7929688c-1.4521484,0-2.8857422-0.6616211-3.8232422-1.9135742
			c-1.578125-2.109375-1.1474609-5.0991211,0.9628906-6.6772461l33.7841797-25.2700195
			c2.1074219-1.5795898,5.0966797-1.1484375,6.6767578,0.9619141c1.578125,2.1103516,1.1474609,5.1000977-0.9628906,6.6782227
			l-33.7841797,25.269043C228.0136719,19.4829102,227.0117188,19.7929688,226.0175781,19.7929688z"/>
		<path d="M184.5527344,26.9287109c-0.5449219,0-1.0820313-0.2480469-1.4335938-0.7172852
			c-0.5917969-0.7905273-0.4296875-1.9121094,0.3603516-2.5039063l22.9140625-17.1381836
			c0.7919922-0.5908203,1.9130859-0.4301758,2.5039063,0.3608398c0.5917969,0.7919922,0.4296875,1.9125977-0.3603516,2.5039063
			l-22.9140625,17.1386719C185.3017578,26.8125,184.9248047,26.9287109,184.5527344,26.9287109z"/>
		<path d="M184.5537109,7.7685547c-1.0888672,0-2.1650391-0.4946289-2.8671875-1.4345703
			c-1.1835938-1.5820313-0.8613281-3.8251953,0.7216797-5.0083008L223.8710938-29.6875
			c1.5800781-1.1845703,3.8251953-0.8608398,5.0078125,0.722168c1.1835938,1.5825195,0.8613281,3.824707-0.7216797,5.0083008
			L186.6943359,7.0561523C186.0517578,7.5371094,185.2988281,7.7685547,184.5537109,7.7685547z"/>
		<circle cx="204.1489258" cy="115.1318359" r="2.7407227"/>
		<circle cx="217.7895508" cy="62.8642578" r="2.7407227"/>
		<circle cx="200.1240234" cy="55.2285156" r="2.7412109"/>
		<circle cx="238.5859375" cy="26.5517578" r="2.7412109"/>
		<circle cx="174.7114258" cy="50.6674805" r="2.7407227"/>
		<circle cx="213.6899414" cy="2.9750977" r="2.7407227"/>
		<circle cx="186.5908203" cy="106.4907227" r="3.828125"/>
		<circle cx="215.7602539" cy="22.1489258" r="3.8286133"/>
	</g>
	<g>
		<path d="M65.2890625,258.4726563c-0.5449219,0-1.0820313-0.2480469-1.4335938-0.7177734
			c-0.5917969-0.7900391-0.4296875-1.9121094,0.3603516-2.5029297l11.7294922-8.7744141
			c0.7939453-0.5908203,1.9130859-0.4287109,2.5048828,0.3613281c0.5908203,0.7900391,0.4296875,1.9121094-0.3613281,2.5039063
			l-11.7294922,8.7734375C66.0380859,258.3564453,65.6611328,258.4726563,65.2890625,258.4726563z"/>
		<path d="M93.2236328,237.578125c-0.5449219,0-1.0820313-0.2480469-1.4335938-0.7167969
			c-0.5917969-0.7910156-0.4296875-1.9130859,0.3613281-2.5039063l31.8261719-23.8056641
			c0.7919922-0.5888672,1.9121094-0.4287109,2.5039063,0.3613281s0.4296875,1.9121094-0.3613281,2.5039063l-31.8261719,23.8056641
			C93.9726563,237.4619141,93.5966797,237.578125,93.2236328,237.578125z"/>
		<path d="M141,201.84375c-0.5449219,0-1.0820313-0.2480469-1.4335938-0.7177734
			c-0.5917969-0.7900391-0.4296875-1.9121094,0.3613281-2.5039063l34.3095703-25.6630859
			c0.7919922-0.5898438,1.9121094-0.4296875,2.5039063,0.3613281s0.4296875,1.9121094-0.3613281,2.5039063l-34.3095703,25.6630859
			C141.7490234,201.7265625,141.3730469,201.84375,141,201.84375z"/>
		<path d="M78.3388672,229.6074219c-1.0888672,0-2.1650391-0.4951172-2.8671875-1.4355469
			c-1.1835938-1.5820313-0.8603516-3.8242188,0.7216797-5.0078125l48.9580078-36.6191406
			c1.5810547-1.1826172,3.8251953-0.8613281,5.0078125,0.7226563c1.1835938,1.5820313,0.8613281,3.8242188-0.7216797,5.0078125
			l-48.9580078,36.6191406C79.8369141,229.375,79.0849609,229.6074219,78.3388672,229.6074219z"/>
		<path d="M144.1894531,180.3535156c-1.0888672,0-2.1650391-0.4941406-2.8681641-1.4345703
			c-1.1826172-1.5830078-0.8603516-3.8251953,0.7226563-5.0078125l31.1210938-23.2783203
			c1.5820313-1.1855469,3.8251953-0.8623047,5.0087891,0.7216797c1.1826172,1.5830078,0.8603516,3.8251953-0.7226563,5.0087891
			l-31.1210938,23.2773438C145.6865234,180.1220703,144.9345703,180.3535156,144.1894531,180.3535156z"/>
		<path d="M65.2900391,217.2255859c-0.7265625,0-1.4443359-0.3310547-1.9121094-0.9560547
			c-0.7900391-1.0556641-0.5732422-2.5507813,0.4804688-3.3398438l27.9355469-20.8945313
			c1.0576172-0.7890625,2.5517578-0.5703125,3.3388672,0.4814453c0.7880859,1.0556641,0.5732422,2.5507813-0.4814453,3.3388672
			L66.7167969,216.75C66.2880859,217.0703125,65.7861328,217.2255859,65.2900391,217.2255859z"/>
		<path d="M104.3056641,187.8251953c-0.7265625,0-1.4443359-0.3310547-1.9121094-0.9560547
			c-0.7890625-1.0546875-0.5732422-2.5507813,0.4804688-3.3388672l42.3320313-31.6630859
			c1.0566406-0.7890625,2.5517578-0.5722656,3.3388672,0.4804688c0.7890625,1.0556641,0.5732422,2.5507813-0.4804688,3.3398438
			l-42.3320313,31.6621094C105.3037109,187.6699219,104.8017578,187.8251953,104.3056641,187.8251953z"/>
		<path d="M158.8759766,146.9169922c-0.7265625,0-1.4443359-0.3310547-1.9121094-0.9580078
			c-0.7890625-1.0527344-0.5732422-2.5488281,0.4804688-3.3378906l14.4228516-10.7871094
			c1.0556641-0.7890625,2.5498047-0.5722656,3.3388672,0.4814453c0.7880859,1.0556641,0.5732422,2.5498047-0.4814453,3.3388672
			l-14.421875,10.7871094C159.8740234,146.7617188,159.3720703,146.9169922,158.8759766,146.9169922z"/>
		<path d="M65.2890625,195.703125c-0.5449219,0-1.0820313-0.2480469-1.4335938-0.7167969
			c-0.5917969-0.7910156-0.4296875-1.9130859,0.3603516-2.5039063l8.3779297-6.2666016
			c0.7919922-0.5908203,1.9121094-0.4296875,2.5039063,0.3603516c0.5917969,0.7910156,0.4296875,1.9130859-0.3613281,2.5048828
			l-8.3769531,6.265625C66.0380859,195.5869141,65.6611328,195.703125,65.2890625,195.703125z"/>
		<path d="M88.203125,178.5644531c-0.5449219,0-1.0820313-0.2480469-1.4335938-0.7167969
			c-0.5917969-0.7910156-0.4306641-1.9121094,0.3603516-2.5039063l25.0253906-18.71875
			c0.7939453-0.5908203,1.9130859-0.4287109,2.5048828,0.3613281c0.5908203,0.7900391,0.4296875,1.9121094-0.3613281,2.5039063
			l-25.0253906,18.71875C88.9521484,178.4492188,88.5751953,178.5644531,88.203125,178.5644531z"/>
		<path d="M126.0019531,150.2910156c-0.5458984,0-1.0820313-0.2480469-1.4345703-0.7167969
			c-0.5908203-0.7910156-0.4296875-1.9130859,0.3613281-2.5048828l19.3642578-14.4824219
			c0.7919922-0.5927734,1.9121094-0.4296875,2.5039063,0.3603516c0.5917969,0.7910156,0.4296875,1.9130859-0.3613281,2.5039063
			l-19.3632813,14.4833984C126.75,150.1748047,126.3740234,150.2910156,126.0019531,150.2910156z"/>
		<path d="M161.7792969,123.4916992c-0.5439453,0-1.0820313-0.2470703-1.4335938-0.7172852
			c-0.5917969-0.7910156-0.4296875-1.9125977,0.3613281-2.5043945l16.2392578-12.1464844
			c0.7900391-0.5913086,1.9111328-0.4321289,2.5039063,0.3598633c0.5917969,0.7919922,0.4296875,1.9125977-0.3613281,2.5043945
			l-16.2392578,12.1474609C162.5283203,123.3754883,162.1523438,123.4916992,161.7792969,123.4916992z"/>
		<path d="M65.2910156,177.7509766c-1.4521484,0-2.8867188-0.6611328-3.8232422-1.9130859
			c-1.5791016-2.109375-1.1484375-5.0996094,0.9619141-6.6777344l21.9804688-16.4404297
			c2.109375-1.5771484,5.0966797-1.1484375,6.6777344,0.9628906c1.578125,2.109375,1.1474609,5.0986328-0.9628906,6.6767578
			l-21.9804688,16.4414063C67.2871094,177.4414063,66.2861328,177.7509766,65.2910156,177.7509766z"/>
		<path d="M106.7539063,146.7382813c-1.4521484,0-2.8857422-0.6611328-3.8232422-1.9130859
			c-1.578125-2.1103516-1.1474609-5.1005859,0.9628906-6.6787109l33.7841797-25.2695313
			c2.1074219-1.578125,5.0966797-1.1474609,6.6767578,0.9628906c1.578125,2.109375,1.1474609,5.0991211-0.9628906,6.6772461
			l-33.7841797,25.2700195C108.75,146.4296875,107.7480469,146.7382813,106.7539063,146.7382813z"/>
		<path d="M142.859375,229.6074219c-1.453125,0-2.8867188-0.6621094-3.8242188-1.9140625
			c-1.578125-2.109375-1.1464844-5.0996094,0.9638672-6.6777344l33.7832031-25.2705078
			c2.1083984-1.578125,5.0966797-1.1474609,6.6777344,0.9638672c1.578125,2.109375,1.1474609,5.0986328-0.9638672,6.6767578
			L145.7128906,228.65625C144.8554688,229.296875,143.8535156,229.6074219,142.859375,229.6074219z"/>
		<path d="M160.8291016,106.7841797c-1.4521484,0-2.8857422-0.6601563-3.8232422-1.9135742
			c-1.5791016-2.1088867-1.1474609-5.0986328,0.9628906-6.6767578l13.140625-9.8300781
			c2.1083984-1.578125,5.0966797-1.1484375,6.6777344,0.9633789c1.578125,2.1088867,1.1464844,5.0986328-0.9638672,6.6767578
			l-13.140625,9.8300781C162.8251953,106.4746094,161.8232422,106.7841797,160.8291016,106.7841797z"/>
		<path d="M65.2890625,153.875c-0.5449219,0-1.0820313-0.2480469-1.4335938-0.7177734
			c-0.5917969-0.7900391-0.4296875-1.9121094,0.3603516-2.5039063l22.9140625-17.1376953
			c0.7919922-0.5917969,1.9130859-0.4296875,2.5039063,0.3603516c0.5917969,0.7910156,0.4306641,1.9130859-0.3603516,2.5039063
			L66.359375,153.5185547C66.0380859,153.7578125,65.6611328,153.875,65.2890625,153.875z"/>
		<path d="M100.7148438,127.3769531c-0.5449219,0-1.0820313-0.2480469-1.4335938-0.7167969
			c-0.5917969-0.7929688-0.4296875-1.9130859,0.3613281-2.5039063l20.5595703-15.3789063
			c0.7919922-0.5917969,1.9130859-0.4287109,2.5048828,0.3608398c0.5908203,0.7919922,0.4296875,1.9125977-0.3613281,2.5039063
			l-20.5605469,15.378418C101.4638672,127.2607422,101.0878906,127.3769531,100.7148438,127.3769531z"/>
		<path d="M134.2333984,102.3061523c-0.5449219,0-1.0820313-0.2470703-1.4335938-0.7172852
			c-0.5917969-0.7910156-0.4296875-1.9125977,0.3613281-2.5043945l14.0732422-10.5263672
			c0.7939453-0.5913086,1.9121094-0.4296875,2.5048828,0.3613281c0.5908203,0.7905273,0.4296875,1.9121094-0.3613281,2.5039063
			l-14.0742188,10.5263672C134.9824219,102.190918,134.6064453,102.3061523,134.2333984,102.3061523z"/>
		<path d="M162.8730469,80.8852539c-0.5449219,0-1.0820313-0.2480469-1.4335938-0.7172852
			c-0.5917969-0.7919922-0.4296875-1.9125977,0.3613281-2.5043945l12.4365234-9.3032227
			c0.7919922-0.5917969,1.9121094-0.4296875,2.5039063,0.3608398c0.5917969,0.7919922,0.4296875,1.9135742-0.3613281,2.5053711
			l-12.4365234,9.3022461C163.6220703,80.7685547,163.2460938,80.8852539,162.8730469,80.8852539z"/>
		<path d="M65.2900391,134.7148438c-1.0888672,0-2.1650391-0.4960938-2.8681641-1.4355469
			c-1.1826172-1.5820313-0.8603516-3.8242188,0.7226563-5.0078125l41.4628906-31.0131836
			c1.5800781-1.1855469,3.8251953-0.8608398,5.0078125,0.722168c1.1835938,1.581543,0.8613281,3.824707-0.7216797,5.0083008
			l-41.4628906,31.0131836C66.7880859,134.4824219,66.0351563,134.7148438,65.2900391,134.7148438z"/>
		<path d="M122.7734375,91.7192383c-1.0898438,0-2.1660156-0.4960938-2.8681641-1.4350586
			c-1.1826172-1.5825195-0.8603516-3.824707,0.7226563-5.0078125l43.5498047-32.5751953
			c1.5800781-1.1845703,3.8232422-0.8608398,5.0078125,0.722168c1.1835938,1.5825195,0.8603516,3.824707-0.7216797,5.0078125
			l-43.5498047,32.5751953C124.2705078,91.4873047,123.5185547,91.7192383,122.7734375,91.7192383z"/>
		<path d="M65.2890625,111.9985352c-0.5449219,0-1.0820313-0.246582-1.4335938-0.7172852
			c-0.5917969-0.7910156-0.4296875-1.9125977,0.3603516-2.5039063l10.4384766-7.8071289
			c0.7919922-0.5917969,1.9121094-0.4296875,2.5039063,0.3608398c0.5917969,0.7910156,0.4296875,1.9125977-0.3613281,2.5043945
			l-10.4375,7.8066406C66.0380859,111.8833008,65.6611328,111.9985352,65.2890625,111.9985352z"/>
		<path d="M88.6025391,94.5610352c-0.5449219,0-1.0820313-0.2470703-1.4335938-0.7172852
			c-0.5917969-0.7910156-0.4296875-1.9125977,0.3603516-2.5043945l43.3544922-32.4272461
			c0.7919922-0.5913086,1.9121094-0.4296875,2.5039063,0.3613281s0.4296875,1.9121094-0.3603516,2.5039063L89.6728516,94.2045898
			C89.3515625,94.4458008,88.9746094,94.5610352,88.6025391,94.5610352z"/>
		<path d="M143.5058594,53.4956055c-0.5449219,0-1.0820313-0.2485352-1.4335938-0.7177734
			c-0.5917969-0.7919922-0.4306641-1.9121094,0.3603516-2.5039063l31.8046875-23.7885742
			c0.7919922-0.5917969,1.9121094-0.4296875,2.5039063,0.3608398c0.5917969,0.7910156,0.4296875,1.9125977-0.3613281,2.5043945
			l-31.8037109,23.7885742C144.2539063,53.3789063,143.8779297,53.4956055,143.5058594,53.4956055z"/>
		<path d="M65.2900391,91.6459961c-0.7304688,0-1.4511719-0.3344727-1.9189453-0.9667969
			c-0.7851563-1.0585938-0.5615234-2.5517578,0.4980469-3.3359375l27.7734375-20.5576172
			c1.0566406-0.7851563,2.5498047-0.5600586,3.3349609,0.4985352c0.7841797,1.0585938,0.5615234,2.5517578-0.4980469,3.3369141
			L66.7060547,91.1777344C66.2802734,91.4931641,65.7822266,91.6459961,65.2900391,91.6459961z"/>
		<path d="M149.5039063,242.9257813c-0.7304688,0-1.4511719-0.3339844-1.9199219-0.9658203
			c-0.7832031-1.0585938-0.5615234-2.5537109,0.4990234-3.3369141l27.7724609-20.5566406
			c1.0576172-0.7851563,2.5507813-0.5605469,3.3359375,0.4980469c0.7841797,1.0585938,0.5615234,2.5527344-0.4980469,3.3359375
			l-27.7734375,20.5566406C150.4931641,242.7734375,149.9960938,242.9257813,149.5039063,242.9257813z"/>
		<path d="M104.8554688,62.0512695c-0.7294922,0-1.4492188-0.3320313-1.9160156-0.9619141
			c-0.7861328-1.0566406-0.5673828-2.5507813,0.4902344-3.3369141l47.9072266-35.6220703
			c1.0576172-0.7885742,2.5527344-0.565918,3.3369141,0.4902344c0.7861328,1.0576172,0.5673828,2.5522461-0.4902344,3.3383789
			l-47.9072266,35.621582C105.8486328,61.8984375,105.3496094,62.0512695,104.8554688,62.0512695z"/>
		<path d="M163.7568359,17.9946289c-0.7265625,0-1.4443359-0.3295898-1.9121094-0.9560547
			c-0.7890625-1.0551758-0.5732422-2.5498047,0.4804688-3.3393555l11.5537109-8.6420898
			c1.0566406-0.7895508,2.5507813-0.5727539,3.3398438,0.4824219c0.7880859,1.0541992,0.5722656,2.5493164-0.4814453,3.3378906
			l-11.5537109,8.6420898C164.7548828,17.8398438,164.2529297,17.9946289,163.7568359,17.9946289z"/>
		<circle cx="84.8852539" cy="242.0761719" r="2.7407227"/>
		<circle cx="98.5263672" cy="189.8085938" r="2.7412109"/>
		<circle cx="80.8603516" cy="182.1738281" r="2.7412109"/>
		<circle cx="119.3222656" cy="153.4980469" r="2.7412109"/>
		<circle cx="55.4477539" cy="177.6123047" r="2.7407227"/>
		<circle cx="94.4262695" cy="129.9208984" r="2.7407227"/>
		<circle cx="127.5219727" cy="104.8066406" r="2.7407227"/>
		<circle cx="81.7919922" cy="97.4399414" r="2.7412109"/>
		<circle cx="137.8642578" cy="55.902832" r="2.7412109"/>
		<circle cx="98.4106445" cy="64.4003906" r="2.7407227"/>
		<circle cx="158.2861328" cy="19.3598633" r="2.7412109"/>
		<circle cx="155.4116211" cy="84.0102539" r="2.7416992"/>
		<circle cx="152.9633789" cy="127.4541016" r="2.7407227"/>
		<circle cx="152.2983398" cy="149.5253906" r="2.7407227"/>
		<circle cx="179.1591797" cy="130.0566406" r="2.7412109"/>
		<circle cx="133.0439453" cy="205.8847656" r="2.7412109"/>
		<circle cx="133.6132813" cy="231.3769531" r="2.7412109"/>
		<path d="M65.2890625,71.4814453c-0.5449219,0-1.0820313-0.2480469-1.4335938-0.7163086
			c-0.5917969-0.7919922-0.4296875-1.9135742,0.3603516-2.5048828l11.7294922-8.7739258
			c0.7939453-0.590332,1.9130859-0.4282227,2.5048828,0.3613281c0.5908203,0.7905273,0.4296875,1.9121094-0.3613281,2.5039063
			L66.359375,71.125C66.0380859,71.3662109,65.6611328,71.4814453,65.2890625,71.4814453z"/>
		<path d="M93.2236328,50.5874023c-0.5449219,0-1.0820313-0.2485352-1.4335938-0.7177734
			c-0.5917969-0.7905273-0.4296875-1.9121094,0.3613281-2.5039063l31.8261719-23.8051758
			c0.7919922-0.5893555,1.9121094-0.4287109,2.5039063,0.3613281c0.5917969,0.7905273,0.4296875,1.9121094-0.3613281,2.5039063
			L94.2939453,50.230957C93.9726563,50.4707031,93.5966797,50.5874023,93.2236328,50.5874023z"/>
		<path d="M141,14.8525391c-0.5449219,0-1.0820313-0.2480469-1.4335938-0.7177734
			c-0.5917969-0.7905273-0.4296875-1.9121094,0.3613281-2.5039063l34.3095703-25.6625977
			c0.7919922-0.590332,1.9121094-0.4296875,2.5039063,0.3608398c0.5917969,0.7910156,0.4296875,1.9125977-0.3613281,2.5043945
			l-34.3095703,25.6625977C141.7490234,14.7358398,141.3730469,14.8525391,141,14.8525391z"/>
		<circle cx="84.8852539" cy="55.0864258" r="2.7407227"/>
		<circle cx="133.0439453" cy="18.8935547" r="2.7412109"/>
		<circle cx="135.5615234" cy="183.0761719" r="3.8291016"/>
		<circle cx="67.3271484" cy="233.4355469" r="3.828125"/>
		<path d="M77.6865234,23.7714844c-1.0888672,0-2.1650391-0.4951172-2.8671875-1.4350586
			c-1.1835938-1.5825195-0.8603516-3.824707,0.7226563-5.0078125l48.9570313-36.6191406
			c1.5820313-1.1831055,3.8251953-0.8618164,5.0078125,0.7211914c1.1835938,1.5839844,0.8613281,3.8256836-0.7216797,5.0092773
			L79.8271484,23.0585938C79.1845703,23.5395508,78.4326172,23.7714844,77.6865234,23.7714844z"/>
		<circle cx="64.6162109" cy="28.0820313" r="3.8291016"/>
		<circle cx="150.3681641" cy="107.8618164" r="3.8291016"/>
		<circle cx="114.1420898" cy="93.6103516" r="3.8286133"/>
		<circle cx="96.496582" cy="149.0947266" r="3.8286133"/>
		<path d="M65.2910156,53.715332c-1.4521484,0-2.8867188-0.6601563-3.8232422-1.9135742
			c-1.5791016-2.1088867-1.1484375-5.0986328,0.9619141-6.6767578l21.9804688-16.440918
			c2.109375-1.5771484,5.0966797-1.1484375,6.6777344,0.9633789c1.578125,2.1088867,1.1474609,5.0986328-0.9628906,6.6767578
			l-21.9804688,16.440918C67.2871094,53.4057617,66.2861328,53.715332,65.2910156,53.715332z"/>
		<path d="M106.7539063,22.7036133c-1.4521484,0-2.8857422-0.6616211-3.8232422-1.9135742
			c-1.578125-2.109375-1.1474609-5.0991211,0.9628906-6.6772461l33.7841797-25.2700195
			c2.1074219-1.5795898,5.0966797-1.1484375,6.6767578,0.9619141c1.578125,2.1103516,1.1474609,5.1000977-0.9628906,6.6782227
			l-33.7841797,25.269043C108.75,22.3935547,107.7480469,22.7036133,106.7539063,22.7036133z"/>
		<circle cx="96.496582" cy="25.0605469" r="3.8286133"/>
	</g>
	<g>
		<path d="M-26.0410156,110.6337891c-0.5449219,0-1.0820313-0.2480469-1.4326172-0.7177734
			c-0.5917969-0.7905273-0.4306641-1.9121094,0.3603516-2.5048828L4.7128906,83.6069336
			c0.7919922-0.590332,1.9130859-0.4282227,2.5048828,0.3613281c0.5908203,0.7905273,0.4287109,1.9111328-0.3623047,2.5039063
			l-31.8261719,23.8051758C-25.2919922,110.5170898-25.6679688,110.6337891-26.0410156,110.6337891z"/>
		<path d="M21.7353516,74.8989258c-0.5439453,0-1.0810547-0.2480469-1.4335938-0.7177734
			c-0.5917969-0.7905273-0.4296875-1.9135742,0.3623047-2.5039063l34.3076172-25.6635742
			c0.7919922-0.5908203,1.9140625-0.4301758,2.5058594,0.3608398c0.5898438,0.7910156,0.4287109,1.9125977-0.3623047,2.5039063
			L22.8056641,74.5424805C22.484375,74.7822266,22.1083984,74.8989258,21.7353516,74.8989258z"/>
		<path d="M-40.9257813,102.6625977c-1.0888672,0-2.1650391-0.4951172-2.8671875-1.4350586
			c-1.1835938-1.5839844-0.8613281-3.824707,0.7216797-5.0078125L5.8867188,59.5996094
			c1.5810547-1.1835938,3.8261719-0.8618164,5.0078125,0.722168c1.1835938,1.5825195,0.8603516,3.824707-0.7207031,5.0078125
			l-48.9589844,36.6201172C-39.4277344,102.4306641-40.1806641,102.6625977-40.9257813,102.6625977z"/>
		<path d="M24.9248047,53.4082031c-1.0898438,0-2.1660156-0.4951172-2.8681641-1.4350586
			c-1.1826172-1.5830078-0.8603516-3.824707,0.7226563-5.0083008l31.1210938-23.2783203
			c1.5820313-1.1845703,3.8251953-0.8618164,5.0078125,0.722168c1.1835938,1.5825195,0.8613281,3.824707-0.7207031,5.0078125
			L27.0654297,52.6953125C26.4238281,53.1762695,25.6699219,53.4082031,24.9248047,53.4082031z"/>
		<path d="M-14.9589844,60.8793945c-0.7265625,0-1.4433594-0.3305664-1.9121094-0.9560547
			c-0.7880859-1.0551758-0.5732422-2.5507813,0.4804688-3.3393555l42.3320313-31.6630859
			c1.0556641-0.7885742,2.5517578-0.5717773,3.3398438,0.480957c0.7871094,1.0551758,0.5722656,2.5507813-0.4824219,3.3393555
			l-42.3310547,31.6630859C-13.9609375,60.7246094-14.4628906,60.8793945-14.9589844,60.8793945z"/>
		<path d="M39.6123047,19.9711914c-0.7275391,0-1.4453125-0.3310547-1.9140625-0.9560547
			c-0.7880859-1.0551758-0.5722656-2.5498047,0.4824219-3.3383789L52.6015625,4.8886719
			c1.0566406-0.7885742,2.5507813-0.5722656,3.3398438,0.4819336c0.7880859,1.0541992,0.5722656,2.5493164-0.4814453,3.3393555
			L41.0390625,19.4970703C40.609375,19.8164063,40.1074219,19.9711914,39.6123047,19.9711914z"/>
		<path d="M6.7363281,23.3452148c-0.5449219,0-1.0820313-0.2480469-1.4326172-0.7172852
			c-0.5908203-0.7910156-0.4306641-1.9125977,0.3603516-2.5043945L25.0283203,5.640625
			c0.7919922-0.5913086,1.9121094-0.4282227,2.5039063,0.3613281c0.5917969,0.7919922,0.4296875,1.9121094-0.3613281,2.5039063
			L7.8085938,22.9887695C7.4853516,23.2285156,7.109375,23.3452148,6.7363281,23.3452148z"/>
		<path d="M-12.5107422,19.7929688c-1.4511719,0-2.8857422-0.6616211-3.8242188-1.9135742
			c-1.578125-2.109375-1.1455078-5.0991211,0.9638672-6.6772461l33.7841797-25.2700195
			c2.1074219-1.5795898,5.0966797-1.1484375,6.6767578,0.9619141c1.578125,2.1103516,1.1474609,5.1000977-0.9619141,6.6782227
			l-33.7851563,25.269043C-10.5136719,19.4829102-11.5166016,19.7929688-12.5107422,19.7929688z"/>
		<path d="M23.5947266,102.6625977c-1.453125,0-2.8857422-0.6616211-3.8242188-1.9150391
			c-1.578125-2.1088867-1.1474609-5.0986328,0.9628906-6.6767578L54.5175781,68.800293
			c2.109375-1.5791016,5.0966797-1.1479492,6.6777344,0.9624023c1.5791016,2.1103516,1.1464844,5.1000977-0.9638672,6.6782227
			l-33.7822266,25.2700195C25.5908203,102.3525391,24.5898438,102.6625977,23.5947266,102.6625977z"/>
		<path d="M30.2402344,115.9804688c-0.7304688,0-1.4511719-0.3339844-1.9199219-0.9663086
			c-0.7832031-1.0576172-0.5615234-2.5517578,0.4990234-3.3359375L56.5917969,91.121582
			c1.0576172-0.784668,2.5507813-0.5600586,3.3359375,0.4975586c0.7841797,1.0595703,0.5615234,2.5527344-0.4980469,3.3369141
			L31.65625,115.5126953C31.2304688,115.8291016,30.7324219,115.9804688,30.2402344,115.9804688z"/>
		<circle cx="0.0581055" cy="26.5517578" r="2.7416992"/>
		<circle cx="33.034668" cy="22.5800781" r="2.7407227"/>
		<circle cx="59.8955078" cy="3.1123047" r="2.7412109"/>
		<circle cx="13.7802734" cy="78.9404297" r="2.7412109"/>
		<circle cx="14.3496094" cy="104.4326172" r="2.7412109"/>
		<circle cx="16.2973633" cy="56.1298828" r="3.8286133"/>
	</g>
</g>
</svg>
