<?xml version="1.0" encoding="utf-8"?>
<!-- Generator: Adobe Illustrator 16.0.0, SVG Export Plug-In . SVG Version: 6.00 Build 0)  -->
<!DOCTYPE svg PUBLIC "-//W3C//DTD SVG 1.1//EN" "http://www.w3.org/Graphics/SVG/1.1/DTD/svg11.dtd">
<svg version="1.1" id="Layer_2_copy_14" opacity="0.1"
	 xmlns="http://www.w3.org/2000/svg" xmlns:xlink="http://www.w3.org/1999/xlink" x="0px" y="0px" width="250px" height="250px"
	 viewBox="0 0 250 250" enable-background="new 0 0 250 250" xml:space="preserve">
<g>
	<g>
		<path fill="#FFFFFF" d="M134.7773438,113.09375c0-8.2568359-6.7167969-14.9736328-14.9746094-14.9736328
			c-8.2568359,0-14.9726563,6.7167969-14.9726563,14.9736328s6.7158203,14.9736328,14.9726563,14.9736328
			C128.0605469,128.0673828,134.7773438,121.3505859,134.7773438,113.09375z M119.8027344,125.1738281
			c-6.6601563,0-12.0791016-5.4199219-12.0791016-12.0800781c0-6.6611328,5.4189453-12.0800781,12.0791016-12.0800781
			c6.6611328,0,12.0800781,5.4189453,12.0800781,12.0800781
			C131.8828125,119.7539063,126.4638672,125.1738281,119.8027344,125.1738281z"/>
		<path fill="#FFFFFF" d="M127.2929688,113.8574219c0-5.1005859-4.1503906-9.25-9.2509766-9.25s-9.25,4.1494141-9.25,9.25
			c0,5.1015625,4.1494141,9.2509766,9.25,9.2509766S127.2929688,118.9589844,127.2929688,113.8574219z M118.0419922,121.3203125
			c-4.1152344,0-7.4628906-3.3476563-7.4628906-7.4628906c0-4.1142578,3.3476563-7.4619141,7.4628906-7.4619141
			s7.4619141,3.3476563,7.4619141,7.4619141C125.5039063,117.9726563,122.1572266,121.3203125,118.0419922,121.3203125z"/>
		<path fill="#FFFFFF" d="M121.8154297,114.5449219c0-2.7519531-2.2382813-4.9902344-4.9882813-4.9902344
			c-2.7519531,0-4.9902344,2.2382813-4.9902344,4.9902344c0,2.75,2.2382813,4.9882813,4.9902344,4.9882813
			C119.5771484,119.5332031,121.8154297,117.2949219,121.8154297,114.5449219z M116.8271484,118.5693359
			c-2.2197266,0-4.0263672-1.8056641-4.0263672-4.0244141c0-2.2197266,1.8066406-4.0253906,4.0263672-4.0253906
			c2.2177734,0,4.0244141,1.8056641,4.0244141,4.0253906C120.8515625,116.7636719,119.0449219,118.5693359,116.8271484,118.5693359z
			"/>
		<path fill="#FFFFFF" d="M128.5341797,134.9589844c3.0166016-0.5644531,5.9316406-1.7167969,8.5253906-3.4150391
			c2.5556641-1.6738281,4.7919922-3.8720703,6.5517578-6.4736328c0.8701172-1.2949219,1.6044922-2.6621094,2.1923828-4.078125
			c0.5996094-1.4335938,1.0449219-2.9189453,1.3417969-4.4277344c0.5986328-3.0400391,0.5693359-6.1699219-0.0419922-9.1767578
			c-0.6132813-2.9980469-1.8242188-5.8652344-3.546875-8.4082031c-1.6933594-2.4892578-3.8867188-4.6523438-6.4570313-6.3496094
			c-2.5957031-1.7158203-5.4726563-2.8632813-8.4306641-3.4228516c-2.9931641-0.5761719-6.0712891-0.5371094-9.0273438,0.0625
			c-2.9492188,0.5966797-5.7714844,1.7753906-8.2861328,3.453125c-2.46875,1.6513672-4.6337891,3.7890625-6.3447266,6.3193359
			c-1.7148438,2.5283203-2.8876953,5.3388672-3.4912109,8.2480469c-0.6201172,2.9609375-0.6552734,6.0244141-0.1054688,8.984375
			c0.5488281,2.9677734,1.6660156,5.8398438,3.3203125,8.4042969c1.6308594,2.5371094,3.7753906,4.7763672,6.3359375,6.5517578
			c2.5390625,1.7568359,5.3779297,2.9775391,8.3271484,3.6044922
			C122.4052734,135.4775391,125.5234375,135.5224609,128.5341797,134.9589844z M109.1679688,126.2099609
			c-2.0566406-2.0693359-3.6279297-4.5361328-4.6269531-7.2060547c-1.0175781-2.7167969-1.4619141-5.6357422-1.2832031-8.5292969
			c0.0908203-1.4472656,0.3300781-2.8886719,0.7246094-4.2929688c0.3925781-1.3964844,0.9335938-2.7568359,1.6162109-4.0576172
			c0.6777344-1.2744141,1.4902344-2.4912109,2.4345703-3.6201172c0.9462891-1.1318359,2.0039063-2.1455078,3.1455078-3.0351563
			c2.3222656-1.8056641,5.0019531-3.0722656,7.8105469-3.7548828c2.8144531-0.6826172,5.7617188-0.7558594,8.609375-0.2285156
			c2.7939453,0.515625,5.4882813,1.6259766,7.8818359,3.2783203c2.2734375,1.5576172,4.1816406,3.5263672,5.6386719,5.7626953
			c1.4765625,2.2597656,2.4804688,4.7929688,2.9814453,7.4160156c0.5039063,2.6152344,0.4902344,5.3242188-0.0419922,7.9423828
			c-0.515625,2.578125-1.5361328,5.0693359-3.0341797,7.3115234c-1.3359375,2.0488281-3.0195313,3.8300781-4.9511719,5.2597656
			c-1.9609375,1.4492188-4.1708984,2.5439453-6.5078125,3.2109375c-2.3496094,0.6708984-4.8193359,0.9345703-7.265625,0.7402344
			c-2.4453125-0.1904297-4.8652344-0.8232422-7.1123047-1.8798828
			C112.9638672,129.4794922,110.9111328,128.0224609,109.1679688,126.2099609z"/>
		<path fill="#FFFFFF" d="M113.6210938,139.609375c3.5634766,2.0429688,7.5556641,3.3925781,11.7138672,3.9277344
			c4.1386719,0.5292969,8.3564453,0.2402344,12.3525391-0.8623047c4.03125-1.1113281,7.8457031-3.0146484,11.1416016-5.6025391
			c3.2939453-2.59375,6.0986328-5.8320313,8.1552734-9.5214844c2.0449219-3.6621094,3.3457031-7.7529297,3.8203125-11.9785156
			c0.2275391-2.1054688,0.25-4.2236328,0.0644531-6.3173828c-0.1865234-2.1074219-0.5927734-4.1875-1.1904297-6.2021484
			c-1.2070313-4.046875-3.2363281-7.8164063-5.8886719-11.0595703c-2.6552734-3.2363281-5.9580078-5.921875-9.6464844-7.8837891
			c-3.6601563-1.9345703-7.7041016-3.1298828-11.8525391-3.5244141c-4.1679688-0.3964844-8.3535156,0.0478516-12.2724609,1.2607422
			c-3.9501953,1.2060547-7.6171875,3.2080078-10.7841797,5.7978516c-3.1660156,2.5869141-5.8056641,5.7949219-7.7548828,9.3857422
			c-1.9306641,3.5625-3.1738281,7.5068359-3.6269531,11.5869141c-0.4609375,4.0800781-0.1103516,8.2041016,0.9990234,12.1025391
			c1.1113281,3.9335938,2.9873047,7.6455078,5.5117188,10.8632813
			C106.8857422,134.8066406,110.0292969,137.5644531,113.6210938,139.609375z M100.8525391,122.1269531
			c-0.6904297-1.8779297-1.1982422-3.8261719-1.4921875-5.8125c-0.2929688-1.9814453-0.3857422-3.9951172-0.2744141-6.0068359
			c0.1210938-1.9960938,0.4394531-3.9863281,0.9609375-5.9345703c0.5214844-1.9511719,1.2509766-3.8310547,2.1523438-5.6162109
			c1.8232422-3.5957031,4.3955078-6.7636719,7.4638672-9.3085938c3.0751953-2.5458984,6.6728516-4.4267578,10.4892578-5.5332031
			c3.7841797-1.0966797,7.7900391-1.3994141,11.7236328-0.8994141c3.8349609,0.4794922,7.5166016,1.7089844,10.8095703,3.5800781
			c3.3164063,1.8710938,6.2236328,4.4003906,8.5595703,7.3632813c2.3408203,2.9550781,4.0830078,6.3681641,5.1201172,9.984375
			c1.0390625,3.5878906,1.3769531,7.3837891,0.9726563,11.140625c-0.359375,3.5957031-1.3886719,7.0966797-3.0185547,10.2910156
			c-1.6416016,3.2138672-3.8759766,6.1259766-6.5869141,8.5214844c-2.7138672,2.4003906-5.8710938,4.3193359-9.2958984,5.5703125
			c-3.4189453,1.2607422-7.0898438,1.8740234-10.7724609,1.7832031c-3.6650391-0.0957031-7.3330078-0.8808594-10.7490234-2.3535156
			c-3.6738281-1.5400391-7.0078125-3.8242188-9.7431641-6.6865234
			C104.4160156,129.3232422,102.2412109,125.8798828,100.8525391,122.1269531z"/>
		<path fill="#FFFFFF" d="M116.8476563,145.8427734c4.6914063,2.1767578,9.8164063,3.4775391,15.0273438,3.7148438
			c5.1982422,0.2548828,10.4707031-0.5214844,15.4355469-2.2949219c4.9521484-1.7744141,9.5654297-4.5185547,13.4628906-8.0771484
			c3.9072266-3.5703125,7.1298828-7.9179688,9.3603516-12.7480469c2.2265625-4.8310547,3.5273438-10.1113281,3.7158203-15.4599609
			c0.1972656-5.3339844-0.7089844-10.7128906-2.609375-15.7314453c-0.9589844-2.5009766-2.1601563-4.90625-3.5839844-7.1669922
			c-1.4277344-2.2666016-3.0878906-4.3808594-4.9326172-6.3125c-3.7001953-3.8642578-8.1787109-6.9443359-13.0527344-9.0693359
			C144.7910156,70.5820313,139.5,69.4746094,134.2109375,69.40625c-5.2744141-0.0585938-10.5371094,0.9570313-15.4140625,2.9189453
			c-4.8867188,1.9677734-9.3408203,4.8916016-13.0517578,8.5332031c-3.7373047,3.6376953-6.6992188,8.0126953-8.7607422,12.7548828
			c-2.0683594,4.7412109-3.1738281,9.8769531-3.2900391,15.0302734c-0.1162109,5.1367188,0.7724609,10.2949219,2.609375,15.1162109
			c1.8271484,4.8261719,4.5927734,9.2724609,8.0947266,13.0332031
			C107.9082031,140.5703125,112.1503906,143.6738281,116.8476563,145.8427734z M97.2265625,124.2539063
			c-0.9501953-2.3701172-1.6708984-4.8359375-2.1396484-7.3554688c-0.4697266-2.5205078-0.6679688-5.0810547-0.6201172-7.6328125
			c0.1035156-5.1201172,1.2851563-10.1826172,3.3652344-14.8193359c2.0898438-4.6396484,5.1396484-8.8154297,8.8544922-12.2421875
			c3.7060547-3.4150391,8.1015625-6.0449219,12.8320313-7.7382813c4.6845703-1.6796875,9.6542969-2.4179688,14.5556641-2.1826172
			c4.9140625,0.2158203,9.7480469,1.4345703,14.1767578,3.4824219c4.4326172,2.0390625,8.4384766,4.9570313,11.7490234,8.5117188
			c3.3085938,3.5390625,5.9189453,7.7226563,7.6533203,12.2675781c1.7236328,4.4609375,2.5849609,9.2333984,2.5273438,14.0039063
			c-0.0585938,4.7792969-1.0175781,9.5605469-2.8681641,13.9921875c-1.8476563,4.4345703-4.5175781,8.5488281-7.9111328,11.9970703
			c-3.3779297,3.4599609-7.4443359,6.2724609-11.9228516,8.2226563c-4.4716797,1.9423828-9.3388672,3.0361328-14.265625,3.1347656
			c-5.0566406,0.1191406-10.140625-0.7685547-14.8505859-2.6464844c-4.7197266-1.8886719-9.0800781-4.7109375-12.7041016-8.3085938
			c-1.8066406-1.7998047-3.4443359-3.7783203-4.8554688-5.9111328
			C99.3925781,128.8984375,98.1953125,126.625,97.2265625,124.2539063z"/>
		<path fill="#FFFFFF" d="M218.265625,71.390625c-2.7470703-3.6767578-5.7158203-7.1796875-8.8740234-10.5
			c-0.1542969-0.1630859-0.3115234-0.3242188-0.4667969-0.4882813c-0.1816406-0.1884766-0.3632813-0.3789063-0.5458984-0.5654297
			c-7.5830078-7.8417969-16.2851563-14.5654297-25.7695313-19.9316406
			c-5.9814453-3.4169922-12.2666016-6.3095703-18.7763672-8.6054688
			c-23.2597656-8.2021484-48.828125-8.7802734-72.4472656-1.6982422c-5.8320313,1.7490234-11.5058594,3.96875-16.9980469,6.5927734
			C53.0585938,46.5576172,35.1904297,63.2373047,23.4833984,83.8740234
			c-11.6884766,20.6074219-16.8105469,44.6289063-14.7578125,68.2167969
			c2.0585938,23.6669922,11.4208984,46.5869141,26.6015625,64.8691406
			c15.5664063,18.7441406,36.8740234,32.3037109,60.4580078,38.4296875
			c24.0322266,6.2431641,49.8261719,4.515625,72.8300781-4.8144531
			c21.4882813-8.7167969,40.1542969-23.9189453,53.0634766-43.1787109
			c13.6806641-20.4111328,20.6669922-44.9648438,19.8369141-69.5224609
			C240.7070313,113.9794922,232.5820313,90.5507813,218.265625,71.390625z M229.1455078,184.9443359
			c-9.1601563,19.9638672-24.2333984,37.0332031-42.9248047,48.5751953
			c-19.6210938,12.1142578-42.7861328,17.9921875-65.8095703,16.6123047
			c-23.0488281-1.3798828-45.3876953-10.0078125-63.3837891-24.4726563
			c-17.7158203-14.2402344-30.8525391-33.9023438-37.1933594-55.734375
			c-6.6054688-22.7431641-5.7324219-47.3134766,2.4921875-69.5263672C30.0664063,79.5,44.2050781,61.1611328,62.3554688,48.2470703
			c4.2255859-3.0068359,8.6582031-5.6992188,13.2539063-8.0996094
			c20.3945313-10.5634766,43.7265625-14.6992188,66.5058594-11.6669922
			c12.4492188,1.65625,24.5654297,5.453125,35.7441406,11.1083984c9.9228516,5.0957031,19.1171875,11.6103516,27.1972656,19.3544922
			c0.8759766,0.8408203,1.7363281,1.6972656,2.5839844,2.5644531c14.7744141,15.28125,25.1083984,34.6669922,29.3222656,55.5429688
			C241.5576172,139.8183594,238.8359375,163.8251953,229.1455078,184.9443359z"/>
		<path fill="#FFFFFF" d="M205.1728516,63.7333984c-10.7578125-12.1533203-24.4765625-21.59375-39.7177734-27.2470703
			c-0.2724609-0.1035156-0.5429688-0.2080078-0.8144531-0.3095703c-20.4277344-7.5429688-42.9824219-8.3574219-63.9111328-2.3613281
			c-5.0947266,1.4589844-10.0537109,3.3271484-14.8671875,5.5419922
			c-18.9580078,8.9003906-34.9111328,23.4023438-45.4638672,41.5078125
			c-10.5273438,18.0634766-15.2714844,39.2109375-13.6816406,60.0439453
			c1.625,21.2773438,9.9619141,41.9833984,23.6005859,58.4013672
			c13.6914063,16.4785156,32.4443359,28.3378906,53.1816406,33.7021484
			c21.1269531,5.4658203,43.7958984,3.9013672,63.9882813-4.3603516
			c18.8457031-7.7109375,35.2382813-21.0126953,46.5830078-37.9296875
			c23.9335938-35.6923828,23.0654297-84.0927734-2.2705078-118.8320313
			C209.7324219,69.0556641,207.5175781,66.3349609,205.1728516,63.7333984z M219.1796875,172.9833984
			c-17.6103516,35.6416016-56.3535156,57.6640625-95.9951172,54.5380859
			c-19.9541016-1.5751953-39.2177734-9.3681641-54.6523438-22.1123047
			c-15.2324219-12.5761719-26.4248047-29.7978516-31.8095703-48.7978516
			c-5.78125-20.4052734-4.6738281-42.4921875,3.1601563-62.2050781
			c7.1513672-17.9951172,19.6953125-33.6494141,35.6601563-44.6015625
			c3.6435547-2.5009766,7.4560547-4.7353516,11.3984375-6.7324219c18.0595703-9.1054688,38.6357422-12.4892578,58.65625-9.5195313
			c6.4316406,0.953125,12.7519531,2.5615234,18.8505859,4.7685547
			c13.3564453,4.9658203,25.6503906,12.7275391,35.8427734,22.7392578c1.2910156,1.2675781,2.5458984,2.5703125,3.7636719,3.9042969
			c12.2089844,13.6220703,20.5322266,30.6162109,23.6708984,48.6679688
			C231.21875,133.7197266,228.2128906,154.7011719,219.1796875,172.9833984z"/>
		<path fill="#FFFFFF" d="M154.40625,37.8369141c-14.4394531-3.6982422-29.8417969-3.8271484-44.6953125,0.1679688
			c-4.3808594,1.1777344-8.6513672,2.7001953-12.8076172,4.5166016
			c-33.6162109,15.0517578-54.9130859,50.0498047-52.6640625,86.8652344
			c1.1054688,18.1025391,7.7119141,35.8242188,18.8857422,50.1298828
			c11.5800781,14.8271484,27.8232422,25.6240234,45.9404297,30.6611328
			c35.8876953,9.9794922,75.2783203-4.6035156,96.3691406-35.2197266
			c20.8847656-30.3164063,20.8603516-71.6484375-0.0849609-101.9296875c-1.8515625-2.6767578-3.84375-5.2246094-5.9570313-7.6445313
			C187.6435547,51.5498047,171.6992188,42.0351563,154.40625,37.8369141z M210.1630859,158.1816406
			c-15.2773438,30.8769531-49.0966797,49.859375-83.4189453,46.7988281
			c-34.84375-3.1083984-64.6269531-28.3408203-73.6835938-62.0742188
			c-9.2119141-34.3066406,5.1318359-71.4980469,34.6308594-91.1269531c3.2460938-2.1601563,6.6396484-4.078125,10.1474609-5.7822266
			c17.6894531-8.5839844,37.6474609-10.4248047,56.1992188-6.0751953
			C169.25,43.6972656,183.4902344,51.4775391,194.9013672,62.9814453c1.0390625,1.046875,2.046875,2.1210938,3.0283203,3.2177734
			C219.7568359,91.2744141,225.0566406,128.078125,210.1630859,158.1816406z"/>
		<path fill="#FFFFFF" d="M150.9179688,42.4023438c-10.3701172-2.0546875-21.2207031-1.9384766-31.7958984,0.6513672
			c-3.6660156,0.8994141-7.2470703,2.0800781-10.7441406,3.4990234
			c-28.3730469,11.8769531-47.0107422,40.4716797-46.2236328,71.2773438
			c0.8125,31.8095703,21.8291016,60.6425781,52.3496094,70.1660156
			c29.9023438,9.3291016,63.3769531-1.7568359,82.0019531-26.9101563
			c18.6777344-25.2236328,19.5996094-60.4814453,2.3642578-86.6894531
			c-2.1640625-3.2919922-4.5771484-6.3710938-7.2011719-9.2236328
			C180.9882813,53.2021484,166.4785156,45.2441406,150.9179688,42.4023438z M200.4179688,146.5751953
			c-13.6015625,25.0654297-42.15625,39.9335938-70.5009766,36.6298828
			c-29.0507813-3.3876953-53.2900391-25.1054688-60.1757813-53.4677734
			c-6.9755859-28.7353516,5.7675781-59.3681641,30.6191406-75.1845703c2.8212891-1.7949219,5.7675781-3.3710938,8.8095703-4.7636719
			c13.1445313-6.0175781,27.6386719-7.6425781,41.4228516-5.2451172
			c14.7167969,2.7919922,28.5771484,9.9697266,39.3037109,21.1513672c0.578125,0.6035156,1.1425781,1.2177734,1.6972656,1.8378906
			C210.3808594,89.2207031,214.1933594,121.1894531,200.4179688,146.5751953z"/>
		<path fill="#FFFFFF" d="M180.7246094,63.4970703c-3.8847656-3.7597656-8.2578125-6.9208984-12.9599609-9.4287109
			c-2.3095703-1.25-4.703125-2.3515625-7.1699219-3.2910156c-13.6611328-5.1982422-28.7597656-5.1474609-42.4755859-0.1923828
			c-23.6835938,8.9121094-39.7197266,31.9277344-39.7460938,57.2773438
			c-0.0253906,25.4267578,15.8330078,49.0585938,39.8398438,57.8339844
			c24.0380859,8.7880859,51.7792969,1.0195313,67.8603516-18.875c15.96875-19.7548828,18.0341797-48.3359375,5.1083984-70.1962891
			C188.3125,71.7734375,184.7792969,67.3564453,180.7246094,63.4970703z M189.2646484,134.2958984
			c-11.8447266,19.7617188-35.5751953,30.7939453-58.3232422,26.9873047
			c-22.6103516-3.7851563-40.9736328-21.2607422-46.0009766-43.6054688
			c-5.9785156-26.5693359,8.9550781-53.7207031,33.8271484-64.0957031
			c9.6240234-3.9873047,20.0087891-5.1279297,29.984375-3.6689453c0.0791016,0.0136719,0.1601563,0.0244141,0.2392578,0.0371094
			c0.1894531,0.0292969,0.3759766,0.0644531,0.5634766,0.0947266c12.0791016,2.1445313,23.4570313,7.9248047,32.2792969,16.9443359
			c0.3300781,0.3476563,0.6630859,0.6933594,0.9833984,1.0507813
			C199.0732422,86.15625,201.7822266,113.4111328,189.2646484,134.2958984z"/>
		<path fill="#FFFFFF" d="M175.03125,72.7402344c-12.0849609-13.0087891-30.34375-18.5800781-47.640625-14.5410156
			c-16.75,3.9101563-30.6386719,16.3691406-35.9912109,32.7695313c-3.3359375,10.2226563-3.1484375,21.2529297,0.3535156,31.4033203
			c7.9042969,21.9882813,30.6386719,35.5908203,53.7763672,32.1181641
			c22.2158203-3.3359375,40.0214844-21.4794922,42.1679688-43.9873047
			C189.0117188,96.7001953,184.2558594,83.0136719,175.03125,72.7402344z M105.9853516,72.0888672
			c15.1269531-13.3300781,37.7832031-14.6240234,54.5761719-3.6396484
			c15.3701172,10.0537109,23.4501953,28.8320313,20.0898438,46.9091797
			c-3.5410156,19.0634766-19.2207031,34.5224609-38.5673828,37.0683594
			c-21.4287109,2.8212891-41.7373047-10.3535156-49.0751953-30.3916016
			C87.0117188,104.3515625,91.8886719,84.5107422,105.9853516,72.0888672z"/>
		<path fill="#FFFFFF" d="M218.6826172,63.5263672c-4.1132813-4.6494141-8.5605469-8.9853516-13.2841797-13.0097656
			c-0.0410156-0.0351563-0.0820313-0.0683594-0.1220703-0.1025391c-0.0029297-0.0029297-0.0048828-0.0058594-0.0078125-0.0078125
			c-0.1025391-0.0849609-0.2060547-0.1679688-0.3085938-0.2539063
			c-20.28125-16.9882813-45.3574219-27.6142578-71.7265625-30.1064453
			C105.8300781,17.4570313,77.859375,23.7207031,54.1875,37.7705078
			C31.6298828,51.1601563,13.3847656,71.4160156,2.3271484,95.1962891
			c-11.3359375,24.3759766-14.8916016,52.1533203-10.1621094,78.6123047
			c4.7363281,26.4912109,17.6044922,51.1640625,36.6962891,70.140625
			c19.4091797,19.2880859,44.7480469,32.1845703,71.7861328,36.4365234
			c27.0976563,4.2626953,55.3173828-0.2255859,79.7353516-12.7373047
			c23.046875-11.8085938,42.2890625-30.5673828,54.8125-53.2236328
			c13.2626953-23.9941406,18.6640625-52.0371094,15.4599609-79.2529297
			C247.5400391,108.7294922,236.328125,83.4726563,218.6826172,63.5263672z M240.1425781,194.3046875
			c-9.3662109,23.0976563-25.6845703,43.2089844-46.3740234,57.1103516
			c-21.4042969,14.3818359-47.0888672,21.9160156-72.8671875,21.40625
			c-25.9355469-0.5126953-51.3642578-9.1367188-72.2412109-24.5341797
			c-20.1679688-14.8740234-35.6503906-35.7724609-43.9130859-59.4394531
			c-8.8632813-25.3896484-9.2724609-53.4082031-1.0898438-79.0292969
			c7.7714844-24.3330078,23.0878906-46.0107422,43.3798828-61.5195313
			c19.7646484-15.1054688,43.9160156-24.0791016,68.7480469-25.5703125
			c25.859375-1.5546875,51.9296875,5.0019531,73.9394531,18.6738281c5.3203125,3.3046875,10.375,7.0068359,15.1748047,11.0283203
			c19.6552734,16.8955078,33.9443359,39.3408203,40.3935547,64.4912109
			C251.8369141,142.4394531,250.0458984,169.8828125,240.1425781,194.3046875z"/>
		<path fill="#FFFFFF" d="M264.1923828,166.453125c0.7490234-7.8271484,0.9785156-15.7021484,0.5097656-23.5625
			c-0.0048828-0.0683594-0.0107422-0.1347656-0.0146484-0.2021484c0-0.0039063,0.0009766-0.0087891,0.0009766-0.0126953
			c-0.0117188-0.1699219-0.0244141-0.3378906-0.0361328-0.5058594c-0.8759766-12.9658203-3.4951172-25.7822266-7.765625-38.0263672
			c-6.7402344-19.3242188-17.6826172-37.0732422-31.7851563-52.0068359
			c-20.3916016-21.59375-47.0566406-37.0820313-76.1162109-43.4511719
			C120.9052734,2.5419922,91.1894531,4.8603516,64.375,15.1962891c-0.8261719,0.3193359-1.6494141,0.6445313-2.46875,0.9785156
			C35.4443359,26.9375,12.3417969,45.4677734-3.9257813,68.9365234
			c-16.71875,24.1298828-25.6699219,52.9970703-26.3574219,82.3066406
			c-0.4511719,19.2060547,2.7617188,38.5126953,9.8974609,56.3320313
			c6.7050781,16.7441406,17.0654297,31.6992188,29.1728516,44.9111328
			c6.0107422,6.5576172,12.2470703,12.9257813,19.2246094,18.4541016
			c14.2333984,11.2695313,30.6494141,19.8046875,48.1748047,24.8886719
			c24.6591797,7.1533203,51.0712891,7.0097656,75.8828125,0.7099609c7.9882813-2.0283203,15.8535156-4.5146484,23.4267578-7.7451172
			c22-9.4111328,41.7167969-24.1181641,56.8046875-42.8291016
			C250.5410156,223.3447266,261.4287109,195.328125,264.1923828,166.453125z M172.4492188,285.8193359
			c-26.5810547,10.4169922-56.0175781,12.0146484-83.9287109,6.140625
			C66.3789063,287.2998047,45.8134766,276.65625,28.96875,261.6074219
			c-21.671875-19.3613281-38.2363281-44.1279297-45.5917969-72.2353516
			c-7.3544922-27.6582031-6.1191406-57.4355469,3.796875-84.3486328
			c10.3183594-28.0039063,29.7382813-52.2890625,54.640625-68.6347656
			c23.9482422-15.8193359,52.6201172-24.0078125,81.3017578-23.3144531
			c28.3144531,0.6044922,56.2128906,9.8164063,79.2285156,26.3955078
			c23.2890625,16.7763672,39.6152344,41.1806641,50.5195313,67.6835938
			c5.3222656,12.9355469,8.484375,26.8603516,8.5498047,40.9082031
			c0.1367188,29.1591797-6.5214844,58.1542969-22.2695313,82.7382813
			C223.3525391,255.5263672,199.7744141,275.0068359,172.4492188,285.8193359z"/>
		<path fill="#FFFFFF" d="M281.3574219,174.9833984c1.3193359-9.4511719,1.9658203-18.9951172,1.6738281-28.5419922
			c-0.0019531-0.0830078-0.0058594-0.1640625-0.0087891-0.2460938c0-0.0058594,0.0009766-0.0097656,0-0.015625
			c-0.0068359-0.2050781-0.015625-0.4101563-0.0244141-0.6152344c-0.5957031-15.7373047-3.4960938-31.3691406-8.5947266-46.2685547
			c-8.0458984-23.515625-21.671875-44.9628906-39.3037109-62.5390625
			c-22.5957031-22.5253906-51.4677734-38.6523438-82.7529297-45.2490234
			c-30.5908203-6.4355469-62.8417969-3.8935547-92.0683594,7.1777344c-0.8994141,0.3417969-1.7958984,0.6904297-2.6894531,1.046875
			C28.734375,11.2578125,3.4003906,31.0400391-14.7675781,56.2246094
			c-18.6015625,25.8056641-29.0830078,56.8046875-30.9404297,88.5058594
			c-1.4267578,24.3125,2.4238281,48.9599609,11.8818359,71.4052734
			c8.8886719,21.0976563,24.2451172,38.2333984,39.3808594,55.1992188
			c5.8525391,6.5605469,12.765625,12.1259766,19.8876953,17.3261719
			c14.5429688,10.6005859,30.9716797,18.6621094,48.3691406,23.6162109
			c24.4824219,6.9726563,50.5195313,7.2460938,75.3691406,2.1865234c9.3007813-1.8935547,18.5019531-4.2617188,27.3964844-7.5664063
			c25.8466797-9.6611328,49.2441406-25.7441406,67.2294922-46.8300781
			C264.2607422,236.0878906,277.0117188,206.125,281.3574219,174.9833984z M172.484375,304.1884766
			c-30.4511719,10.5615234-63.6328125,10.5957031-94.8916016,2.8808594
			c-18.9072266-4.6660156-36.4892578-13.7470703-51.5634766-25.9755859
			c-25.1015625-20.3642578-45.4921875-46.2529297-55.7675781-76.8945313
			c-10.28125-30.6611328-11.03125-64.3613281-1.5742188-95.3671875c9.6025391-31.4833984,29.375-59.5,55.5878906-79.2705078
			c25.4921875-19.3710938,56.796875-30.6035156,88.7685547-31.9746094
			c31.8984375-1.4726563,63.9804688,6.8369141,91.0292969,23.9208984
			c26.7392578,16.8886719,46.5888672,42.4570313,60.3525391,70.8642578
			c9.53125,19.6708984,14.5849609,41.46875,13.7109375,63.3681641
			c-1.2958984,32.4599609-10.5087891,64.4082031-29.3408203,90.9130859
			C230.0644531,273.1113281,203.125,293.4277344,172.484375,304.1884766z"/>
		<path fill="#FFFFFF" d="M300.6914063,184.3818359c1.9257813-11.0703125,2.9521484-22.2890625,2.8369141-33.5244141
			c-0.0009766-0.0957031-0.0029297-0.1914063-0.0039063-0.2871094c0-0.0068359,0-0.0126953,0-0.0185547
			c-0.0029297-0.2421875-0.0078125-0.4833984-0.0126953-0.7246094c-0.3164063-18.5078125-3.4980469-36.9580078-9.4238281-54.5126953
			c-9.3525391-27.7070313-25.6113281-52.9023438-46.8222656-73.0722656
			c-24.7363281-23.5214844-55.8789063-40.2216797-89.3916016-47.0458984
			c-33.1015625-6.7265625-67.8857422-3.9580078-99.5234375,7.8466797c-0.9736328,0.3642578-1.9433594,0.7353516-2.9101563,1.1152344
			C24.1933594-3.5546875-3.3730469,17.4804688-23.4384766,44.3808594
			c-20.4882813,27.4814453-32.6259766,60.6025391-35.5273438,94.7050781
			c-2.5029297,29.4121094,2.0869141,59.4052734,13.8662109,86.4785156
			c11.0742188,25.4501953,28.7099609,47.3994141,49.5888672,65.4863281
			c6.5888672,5.7070313,13.2841797,11.3261719,20.5537109,16.1982422
			c14.8515625,9.9316406,31.2929688,17.5185547,48.5615234,22.34375
			c24.3066406,6.7910156,50.0048828,7.6435547,74.8544922,3.6621094c10.625-1.7021484,21.1503906-4.0068359,31.3671875-7.3867188
			c29.6933594-9.9091797,56.7421875-27.3964844,77.6542969-50.8310547
			C280.1162109,249.6708984,294.8798828,217.8046875,300.6914063,184.3818359z M174.6875,323.4238281
			c-34.3222656,10.7050781-71.2919922,9.4179688-105.8544922-0.3779297
			c-15.7177734-4.4541016-30.4667969-11.9716797-43.5742188-21.5986328
			c-28.7646484-21.125-52.8925781-48.3300781-65.9443359-81.5537109
			c-13.3525391-33.6171875-15.9072266-71.2744141-6.9453125-106.3867188
			c8.9228516-34.9511719,29.0117188-66.7089844,56.5361328-89.9042969
			c27.0361328-22.9228516,60.9716797-37.2011719,96.2333984-40.6357422
			c35.4824219-3.5488281,71.7304688,3.8886719,102.8310547,21.4462891
			c30.1699219,17.0322266,53.8457031,43.5527344,70.1865234,74.046875
			c14.0566406,26.2285156,20.9296875,56.0947266,18.8701172,85.8261719
			c-2.4794922,35.7880859-14.4941406,70.6621094-36.4111328,99.0859375
			C238.9433594,291.5625,208.6435547,312.7148438,174.6875,323.4238281z"/>
		<path fill="#FFFFFF" d="M320.0253906,193.7792969c2.5585938-12.6816406,3.9394531-25.5810547,4-38.5039063
			c0-0.1103516,0-0.2216797,0-0.3320313c0-0.0068359,0.0009766-0.0136719,0.0009766-0.0214844
			c0.0009766-0.2783203,0-0.5556641-0.0009766-0.8330078c-0.0361328-21.2783203-3.4980469-42.5449219-10.2529297-62.7558594
			c-10.6582031-31.8984375-29.5126953-60.8867188-54.3408203-83.6044922
			C232.5888672-16.8291016,199.1416016-34.0625,163.4023438-41.1147461
			c-35.6113281-7.0175781-72.9306641-4.0244141-106.9785156,8.5151367c-1.0478516,0.3857422-2.0917969,0.7797852-3.1318359,1.184082
			C19.6503906-18.3671875-10.1464844,3.9199219-32.1103516,32.5361328
			c-22.3720703,29.1572266-36.2373047,64.3876953-40.1132813,100.9052734
			c-3.6621094,34.5,1.7509766,69.8525391,15.8525391,101.5507813
			c13.2578125,29.8037109,34.2519531,55.5986328,59.7949219,75.7744141c6.8046875,5.375,13.8027344,10.5263672,21.21875,15.0712891
			c15.1601563,9.2617188,31.6152344,16.375,48.7548828,21.0703125c24.1298828,6.6103516,49.4990234,8.1533203,74.3408203,5.1386719
			c11.9560547-1.4511719,23.7978516-3.7539063,35.3369141-7.2080078
			c33.5380859-10.1591797,64.1728516-29.1113281,88.0791016-54.8320313
			C295.9033203,263.1894531,312.8164063,229.5039063,320.0253906,193.7792969z M176.890625,342.6601563
			c-38.1933594,10.8496094-79.0742188,8.6425781-116.8173828-3.6367188
			c-12.5771484-4.0917969-24.5683594-10.0195313-35.5869141-17.2226563
			c-32.7509766-21.4121094-60.21875-50.4306641-76.1181641-86.2138672
			c-16.3525391-36.5966797-20.7011719-78.1708984-12.3164063-117.40625
			C-55.625,79.7792969-35.3007813,44.2636719-6.4658203,17.6416016
			C22.1142578-8.8330078,58.6816406-26.1542969,97.234375-31.6513672
			c39.0664063-5.6279297,79.4394531,1.0161133,114.6318359,18.9707031
			c33.5644531,17.2480469,61.1884766,44.5488281,80.0205078,77.2275391
			c18.8085938,32.6357422,27.4541016,70.7460938,24.0292969,108.2841797
			c-3.5722656,39.1455078-18.4814453,76.9179688-43.4814453,107.2617188
			C247.8232422,310.0136719,214.1621094,332.0019531,176.890625,342.6601563z"/>
		<path fill="#FFFFFF" d="M339.359375,203.1767578c8.6074219-38.2402344,6.4257813-78.6396484-5.9023438-115.8251953
			c-11.9638672-36.0888672-33.3828125-68.9091797-61.859375-94.1357422
			c-28.9267578-25.6264648-64.7021484-43.3613281-102.6669922-50.6411133
			c-39.2939453-7.5341797-80.4296875-3.8833008-117.7880859,10.4355469
			C15.109375-33.1796875-16.9199219-9.640625-40.7822266,20.6914063
			c-24.2568359,30.8339844-39.890625,68.1621094-44.6992188,107.1054688
			c-4.8867188,39.5751953,1.4140625,80.2978516,17.8369141,116.6230469
			c15.4423828,34.15625,39.6386719,64.0546875,70.0048828,86.0625c7.0087891,5.0810547,14.3203125,9.7275391,21.8808594,13.9423828
			c37.25,20.6933594,80.2919922,30.0566406,122.7753906,26.4130859c13.2880859-1.1386719,26.4462891-3.5,39.3076172-7.0283203
			c37.3847656-10.4082031,71.6796875-30.7587891,98.5048828-58.8330078
			C311.7705078,276.7802734,330.7958984,241.2197266,339.359375,203.1767578z M179.09375,361.8964844
			C137.0292969,372.8886719,91.9384766,370.5078125,51.3134766,355c-9.4912109-3.6240234-18.703125-7.9384766-27.5966797-12.8457031
			c-37.1728516-20.8701172-67.5478516-52.53125-86.2949219-90.8730469
			c-19.3515625-39.5771484-25.5859375-85.0917969-17.6875-128.4248047
			c7.6328125-41.8769531,28.2822266-81.1269531,58.4287109-111.1757813
			C8.2871094-18.34375,47.4863281-38.7099609,89.3300781-46.2705078
			c42.6503906-7.7060547,87.1972656-1.9384766,126.4326172,16.4951172
			c37.0039063,17.3847656,68.5615234,45.4804688,89.8544922,80.4082031
			c23.7285156,38.9228516,34.1152344,85.421875,29.1894531,130.7431641
			c-4.6240234,42.5273438-22.46875,83.1738281-50.5527344,115.4365234
			C256.703125,328.4658203,219.6816406,351.2900391,179.09375,361.8964844z"/>
	</g>
	<g>
		<path d="M134.7773438,113.09375c0-8.2568359-6.7167969-14.9736328-14.9746094-14.9736328
			c-8.2568359,0-14.9726563,6.7167969-14.9726563,14.9736328s6.7158203,14.9736328,14.9726563,14.9736328
			C128.0605469,128.0673828,134.7773438,121.3505859,134.7773438,113.09375z M119.8027344,125.1738281
			c-6.6601563,0-12.0791016-5.4199219-12.0791016-12.0800781c0-6.6611328,5.4189453-12.0800781,12.0791016-12.0800781
			c6.6611328,0,12.0800781,5.4189453,12.0800781,12.0800781
			C131.8828125,119.7539063,126.4638672,125.1738281,119.8027344,125.1738281z"/>
		<path d="M127.2929688,113.8574219c0-5.1005859-4.1503906-9.25-9.2509766-9.25s-9.25,4.1494141-9.25,9.25
			c0,5.1015625,4.1494141,9.2509766,9.25,9.2509766S127.2929688,118.9589844,127.2929688,113.8574219z M118.0419922,121.3203125
			c-4.1152344,0-7.4628906-3.3476563-7.4628906-7.4628906c0-4.1142578,3.3476563-7.4619141,7.4628906-7.4619141
			s7.4619141,3.3476563,7.4619141,7.4619141C125.5039063,117.9726563,122.1572266,121.3203125,118.0419922,121.3203125z"/>
		<path d="M121.8154297,114.5449219c0-2.7519531-2.2382813-4.9902344-4.9882813-4.9902344
			c-2.7519531,0-4.9902344,2.2382813-4.9902344,4.9902344c0,2.75,2.2382813,4.9882813,4.9902344,4.9882813
			C119.5771484,119.5332031,121.8154297,117.2949219,121.8154297,114.5449219z M116.8271484,118.5693359
			c-2.2197266,0-4.0263672-1.8056641-4.0263672-4.0244141c0-2.2197266,1.8066406-4.0253906,4.0263672-4.0253906
			c2.2177734,0,4.0244141,1.8056641,4.0244141,4.0253906C120.8515625,116.7636719,119.0449219,118.5693359,116.8271484,118.5693359z
			"/>
		<path d="M128.5341797,134.9589844c3.0166016-0.5644531,5.9316406-1.7167969,8.5253906-3.4150391
			c2.5556641-1.6738281,4.7919922-3.8720703,6.5517578-6.4736328c0.8701172-1.2949219,1.6044922-2.6621094,2.1923828-4.078125
			c0.5996094-1.4335938,1.0449219-2.9189453,1.3417969-4.4277344c0.5986328-3.0400391,0.5693359-6.1699219-0.0419922-9.1767578
			c-0.6132813-2.9980469-1.8242188-5.8652344-3.546875-8.4082031c-1.6933594-2.4892578-3.8867188-4.6523438-6.4570313-6.3496094
			c-2.5957031-1.7158203-5.4726563-2.8632813-8.4306641-3.4228516c-2.9931641-0.5761719-6.0712891-0.5371094-9.0273438,0.0625
			c-2.9492188,0.5966797-5.7714844,1.7753906-8.2861328,3.453125c-2.46875,1.6513672-4.6337891,3.7890625-6.3447266,6.3193359
			c-1.7148438,2.5283203-2.8876953,5.3388672-3.4912109,8.2480469c-0.6201172,2.9609375-0.6552734,6.0244141-0.1054688,8.984375
			c0.5488281,2.9677734,1.6660156,5.8398438,3.3203125,8.4042969c1.6308594,2.5371094,3.7753906,4.7763672,6.3359375,6.5517578
			c2.5390625,1.7568359,5.3779297,2.9775391,8.3271484,3.6044922
			C122.4052734,135.4775391,125.5234375,135.5224609,128.5341797,134.9589844z M109.1679688,126.2099609
			c-2.0566406-2.0693359-3.6279297-4.5361328-4.6269531-7.2060547c-1.0175781-2.7167969-1.4619141-5.6357422-1.2832031-8.5292969
			c0.0908203-1.4472656,0.3300781-2.8886719,0.7246094-4.2929688c0.3925781-1.3964844,0.9335938-2.7568359,1.6162109-4.0576172
			c0.6777344-1.2744141,1.4902344-2.4912109,2.4345703-3.6201172c0.9462891-1.1318359,2.0039063-2.1455078,3.1455078-3.0351563
			c2.3222656-1.8056641,5.0019531-3.0722656,7.8105469-3.7548828c2.8144531-0.6826172,5.7617188-0.7558594,8.609375-0.2285156
			c2.7939453,0.515625,5.4882813,1.6259766,7.8818359,3.2783203c2.2734375,1.5576172,4.1816406,3.5263672,5.6386719,5.7626953
			c1.4765625,2.2597656,2.4804688,4.7929688,2.9814453,7.4160156c0.5039063,2.6152344,0.4902344,5.3242188-0.0419922,7.9423828
			c-0.515625,2.578125-1.5361328,5.0693359-3.0341797,7.3115234c-1.3359375,2.0488281-3.0195313,3.8300781-4.9511719,5.2597656
			c-1.9609375,1.4492188-4.1708984,2.5439453-6.5078125,3.2109375c-2.3496094,0.6708984-4.8193359,0.9345703-7.265625,0.7402344
			c-2.4453125-0.1904297-4.8652344-0.8232422-7.1123047-1.8798828
			C112.9638672,129.4794922,110.9111328,128.0224609,109.1679688,126.2099609z"/>
		<path d="M113.6210938,139.609375c3.5634766,2.0429688,7.5556641,3.3925781,11.7138672,3.9277344
			c4.1386719,0.5292969,8.3564453,0.2402344,12.3525391-0.8623047c4.03125-1.1113281,7.8457031-3.0146484,11.1416016-5.6025391
			c3.2939453-2.59375,6.0986328-5.8320313,8.1552734-9.5214844c2.0449219-3.6621094,3.3457031-7.7529297,3.8203125-11.9785156
			c0.2275391-2.1054688,0.25-4.2236328,0.0644531-6.3173828c-0.1865234-2.1074219-0.5927734-4.1875-1.1904297-6.2021484
			c-1.2070313-4.046875-3.2363281-7.8164063-5.8886719-11.0595703c-2.6552734-3.2363281-5.9580078-5.921875-9.6464844-7.8837891
			c-3.6601563-1.9345703-7.7041016-3.1298828-11.8525391-3.5244141c-4.1679688-0.3964844-8.3535156,0.0478516-12.2724609,1.2607422
			c-3.9501953,1.2060547-7.6171875,3.2080078-10.7841797,5.7978516c-3.1660156,2.5869141-5.8056641,5.7949219-7.7548828,9.3857422
			c-1.9306641,3.5625-3.1738281,7.5068359-3.6269531,11.5869141c-0.4609375,4.0800781-0.1103516,8.2041016,0.9990234,12.1025391
			c1.1113281,3.9335938,2.9873047,7.6455078,5.5117188,10.8632813
			C106.8857422,134.8066406,110.0292969,137.5644531,113.6210938,139.609375z M100.8525391,122.1269531
			c-0.6904297-1.8779297-1.1982422-3.8261719-1.4921875-5.8125c-0.2929688-1.9814453-0.3857422-3.9951172-0.2744141-6.0068359
			c0.1210938-1.9960938,0.4394531-3.9863281,0.9609375-5.9345703c0.5214844-1.9511719,1.2509766-3.8310547,2.1523438-5.6162109
			c1.8232422-3.5957031,4.3955078-6.7636719,7.4638672-9.3085938c3.0751953-2.5458984,6.6728516-4.4267578,10.4892578-5.5332031
			c3.7841797-1.0966797,7.7900391-1.3994141,11.7236328-0.8994141c3.8349609,0.4794922,7.5166016,1.7089844,10.8095703,3.5800781
			c3.3164063,1.8710938,6.2236328,4.4003906,8.5595703,7.3632813c2.3408203,2.9550781,4.0830078,6.3681641,5.1201172,9.984375
			c1.0390625,3.5878906,1.3769531,7.3837891,0.9726563,11.140625c-0.359375,3.5957031-1.3886719,7.0966797-3.0185547,10.2910156
			c-1.6416016,3.2138672-3.8759766,6.1259766-6.5869141,8.5214844c-2.7138672,2.4003906-5.8710938,4.3193359-9.2958984,5.5703125
			c-3.4189453,1.2607422-7.0898438,1.8740234-10.7724609,1.7832031c-3.6650391-0.0957031-7.3330078-0.8808594-10.7490234-2.3535156
			c-3.6738281-1.5400391-7.0078125-3.8242188-9.7431641-6.6865234
			C104.4160156,129.3232422,102.2412109,125.8798828,100.8525391,122.1269531z"/>
		<path d="M116.8476563,145.8427734c4.6914063,2.1767578,9.8164063,3.4775391,15.0273438,3.7148438
			c5.1982422,0.2548828,10.4707031-0.5214844,15.4355469-2.2949219c4.9521484-1.7744141,9.5654297-4.5185547,13.4628906-8.0771484
			c3.9072266-3.5703125,7.1298828-7.9179688,9.3603516-12.7480469c2.2265625-4.8310547,3.5273438-10.1113281,3.7158203-15.4599609
			c0.1972656-5.3339844-0.7089844-10.7128906-2.609375-15.7314453c-0.9589844-2.5009766-2.1601563-4.90625-3.5839844-7.1669922
			c-1.4277344-2.2666016-3.0878906-4.3808594-4.9326172-6.3125c-3.7001953-3.8642578-8.1787109-6.9443359-13.0527344-9.0693359
			C144.7910156,70.5820313,139.5,69.4746094,134.2109375,69.40625c-5.2744141-0.0585938-10.5371094,0.9570313-15.4140625,2.9189453
			c-4.8867188,1.9677734-9.3408203,4.8916016-13.0517578,8.5332031c-3.7373047,3.6376953-6.6992188,8.0126953-8.7607422,12.7548828
			c-2.0683594,4.7412109-3.1738281,9.8769531-3.2900391,15.0302734c-0.1162109,5.1367188,0.7724609,10.2949219,2.609375,15.1162109
			c1.8271484,4.8261719,4.5927734,9.2724609,8.0947266,13.0332031
			C107.9082031,140.5703125,112.1503906,143.6738281,116.8476563,145.8427734z M97.2265625,124.2539063
			c-0.9501953-2.3701172-1.6708984-4.8359375-2.1396484-7.3554688c-0.4697266-2.5205078-0.6679688-5.0810547-0.6201172-7.6328125
			c0.1035156-5.1201172,1.2851563-10.1826172,3.3652344-14.8193359c2.0898438-4.6396484,5.1396484-8.8154297,8.8544922-12.2421875
			c3.7060547-3.4150391,8.1015625-6.0449219,12.8320313-7.7382813c4.6845703-1.6796875,9.6542969-2.4179688,14.5556641-2.1826172
			c4.9140625,0.2158203,9.7480469,1.4345703,14.1767578,3.4824219c4.4326172,2.0390625,8.4384766,4.9570313,11.7490234,8.5117188
			c3.3085938,3.5390625,5.9189453,7.7226563,7.6533203,12.2675781c1.7236328,4.4609375,2.5849609,9.2333984,2.5273438,14.0039063
			c-0.0585938,4.7792969-1.0175781,9.5605469-2.8681641,13.9921875c-1.8476563,4.4345703-4.5175781,8.5488281-7.9111328,11.9970703
			c-3.3779297,3.4599609-7.4443359,6.2724609-11.9228516,8.2226563c-4.4716797,1.9423828-9.3388672,3.0361328-14.265625,3.1347656
			c-5.0566406,0.1191406-10.140625-0.7685547-14.8505859-2.6464844c-4.7197266-1.8886719-9.0800781-4.7109375-12.7041016-8.3085938
			c-1.8066406-1.7998047-3.4443359-3.7783203-4.8554688-5.9111328
			C99.3925781,128.8984375,98.1953125,126.625,97.2265625,124.2539063z"/>
		<path d="M218.265625,71.390625c-2.7470703-3.6767578-5.7158203-7.1796875-8.8740234-10.5
			c-0.1542969-0.1630859-0.3115234-0.3242188-0.4667969-0.4882813c-0.1816406-0.1884766-0.3632813-0.3789063-0.5458984-0.5654297
			c-7.5830078-7.8417969-16.2851563-14.5654297-25.7695313-19.9316406
			c-5.9814453-3.4169922-12.2666016-6.3095703-18.7763672-8.6054688
			c-23.2597656-8.2021484-48.828125-8.7802734-72.4472656-1.6982422c-5.8320313,1.7490234-11.5058594,3.96875-16.9980469,6.5927734
			C53.0585938,46.5576172,35.1904297,63.2373047,23.4833984,83.8740234
			c-11.6884766,20.6074219-16.8105469,44.6289063-14.7578125,68.2167969
			c2.0585938,23.6669922,11.4208984,46.5869141,26.6015625,64.8691406
			c15.5664063,18.7441406,36.8740234,32.3037109,60.4580078,38.4296875
			c24.0322266,6.2431641,49.8261719,4.515625,72.8300781-4.8144531
			c21.4882813-8.7167969,40.1542969-23.9189453,53.0634766-43.1787109
			c13.6806641-20.4111328,20.6669922-44.9648438,19.8369141-69.5224609
			C240.7070313,113.9794922,232.5820313,90.5507813,218.265625,71.390625z M229.1455078,184.9443359
			c-9.1601563,19.9638672-24.2333984,37.0332031-42.9248047,48.5751953
			c-19.6210938,12.1142578-42.7861328,17.9921875-65.8095703,16.6123047
			c-23.0488281-1.3798828-45.3876953-10.0078125-63.3837891-24.4726563
			c-17.7158203-14.2402344-30.8525391-33.9023438-37.1933594-55.734375
			c-6.6054688-22.7431641-5.7324219-47.3134766,2.4921875-69.5263672C30.0664063,79.5,44.2050781,61.1611328,62.3554688,48.2470703
			c4.2255859-3.0068359,8.6582031-5.6992188,13.2539063-8.0996094
			c20.3945313-10.5634766,43.7265625-14.6992188,66.5058594-11.6669922
			c12.4492188,1.65625,24.5654297,5.453125,35.7441406,11.1083984c9.9228516,5.0957031,19.1171875,11.6103516,27.1972656,19.3544922
			c0.8759766,0.8408203,1.7363281,1.6972656,2.5839844,2.5644531c14.7744141,15.28125,25.1083984,34.6669922,29.3222656,55.5429688
			C241.5576172,139.8183594,238.8359375,163.8251953,229.1455078,184.9443359z"/>
		<path d="M205.1728516,63.7333984c-10.7578125-12.1533203-24.4765625-21.59375-39.7177734-27.2470703
			c-0.2724609-0.1035156-0.5429688-0.2080078-0.8144531-0.3095703c-20.4277344-7.5429688-42.9824219-8.3574219-63.9111328-2.3613281
			c-5.0947266,1.4589844-10.0537109,3.3271484-14.8671875,5.5419922
			c-18.9580078,8.9003906-34.9111328,23.4023438-45.4638672,41.5078125
			c-10.5273438,18.0634766-15.2714844,39.2109375-13.6816406,60.0439453
			c1.625,21.2773438,9.9619141,41.9833984,23.6005859,58.4013672
			c13.6914063,16.4785156,32.4443359,28.3378906,53.1816406,33.7021484
			c21.1269531,5.4658203,43.7958984,3.9013672,63.9882813-4.3603516
			c18.8457031-7.7109375,35.2382813-21.0126953,46.5830078-37.9296875
			c23.9335938-35.6923828,23.0654297-84.0927734-2.2705078-118.8320313
			C209.7324219,69.0556641,207.5175781,66.3349609,205.1728516,63.7333984z M219.1796875,172.9833984
			c-17.6103516,35.6416016-56.3535156,57.6640625-95.9951172,54.5380859
			c-19.9541016-1.5751953-39.2177734-9.3681641-54.6523438-22.1123047
			c-15.2324219-12.5761719-26.4248047-29.7978516-31.8095703-48.7978516
			c-5.78125-20.4052734-4.6738281-42.4921875,3.1601563-62.2050781
			c7.1513672-17.9951172,19.6953125-33.6494141,35.6601563-44.6015625
			c3.6435547-2.5009766,7.4560547-4.7353516,11.3984375-6.7324219c18.0595703-9.1054688,38.6357422-12.4892578,58.65625-9.5195313
			c6.4316406,0.953125,12.7519531,2.5615234,18.8505859,4.7685547
			c13.3564453,4.9658203,25.6503906,12.7275391,35.8427734,22.7392578c1.2910156,1.2675781,2.5458984,2.5703125,3.7636719,3.9042969
			c12.2089844,13.6220703,20.5322266,30.6162109,23.6708984,48.6679688
			C231.21875,133.7197266,228.2128906,154.7011719,219.1796875,172.9833984z"/>
		<path d="M154.40625,37.8369141c-14.4394531-3.6982422-29.8417969-3.8271484-44.6953125,0.1679688
			c-4.3808594,1.1777344-8.6513672,2.7001953-12.8076172,4.5166016
			c-33.6162109,15.0517578-54.9130859,50.0498047-52.6640625,86.8652344
			c1.1054688,18.1025391,7.7119141,35.8242188,18.8857422,50.1298828
			c11.5800781,14.8271484,27.8232422,25.6240234,45.9404297,30.6611328
			c35.8876953,9.9794922,75.2783203-4.6035156,96.3691406-35.2197266
			c20.8847656-30.3164063,20.8603516-71.6484375-0.0849609-101.9296875c-1.8515625-2.6767578-3.84375-5.2246094-5.9570313-7.6445313
			C187.6435547,51.5498047,171.6992188,42.0351563,154.40625,37.8369141z M210.1630859,158.1816406
			c-15.2773438,30.8769531-49.0966797,49.859375-83.4189453,46.7988281
			c-34.84375-3.1083984-64.6269531-28.3408203-73.6835938-62.0742188
			c-9.2119141-34.3066406,5.1318359-71.4980469,34.6308594-91.1269531c3.2460938-2.1601563,6.6396484-4.078125,10.1474609-5.7822266
			c17.6894531-8.5839844,37.6474609-10.4248047,56.1992188-6.0751953
			C169.25,43.6972656,183.4902344,51.4775391,194.9013672,62.9814453c1.0390625,1.046875,2.046875,2.1210938,3.0283203,3.2177734
			C219.7568359,91.2744141,225.0566406,128.078125,210.1630859,158.1816406z"/>
		<path d="M150.9179688,42.4023438c-10.3701172-2.0546875-21.2207031-1.9384766-31.7958984,0.6513672
			c-3.6660156,0.8994141-7.2470703,2.0800781-10.7441406,3.4990234
			c-28.3730469,11.8769531-47.0107422,40.4716797-46.2236328,71.2773438
			c0.8125,31.8095703,21.8291016,60.6425781,52.3496094,70.1660156
			c29.9023438,9.3291016,63.3769531-1.7568359,82.0019531-26.9101563
			c18.6777344-25.2236328,19.5996094-60.4814453,2.3642578-86.6894531
			c-2.1640625-3.2919922-4.5771484-6.3710938-7.2011719-9.2236328
			C180.9882813,53.2021484,166.4785156,45.2441406,150.9179688,42.4023438z M200.4179688,146.5751953
			c-13.6015625,25.0654297-42.15625,39.9335938-70.5009766,36.6298828
			c-29.0507813-3.3876953-53.2900391-25.1054688-60.1757813-53.4677734
			c-6.9755859-28.7353516,5.7675781-59.3681641,30.6191406-75.1845703c2.8212891-1.7949219,5.7675781-3.3710938,8.8095703-4.7636719
			c13.1445313-6.0175781,27.6386719-7.6425781,41.4228516-5.2451172
			c14.7167969,2.7919922,28.5771484,9.9697266,39.3037109,21.1513672c0.578125,0.6035156,1.1425781,1.2177734,1.6972656,1.8378906
			C210.3808594,89.2207031,214.1933594,121.1894531,200.4179688,146.5751953z"/>
		<path d="M180.7246094,63.4970703c-3.8847656-3.7597656-8.2578125-6.9208984-12.9599609-9.4287109
			c-2.3095703-1.25-4.703125-2.3515625-7.1699219-3.2910156c-13.6611328-5.1982422-28.7597656-5.1474609-42.4755859-0.1923828
			c-23.6835938,8.9121094-39.7197266,31.9277344-39.7460938,57.2773438
			c-0.0253906,25.4267578,15.8330078,49.0585938,39.8398438,57.8339844
			c24.0380859,8.7880859,51.7792969,1.0195313,67.8603516-18.875c15.96875-19.7548828,18.0341797-48.3359375,5.1083984-70.1962891
			C188.3125,71.7734375,184.7792969,67.3564453,180.7246094,63.4970703z M189.2646484,134.2958984
			c-11.8447266,19.7617188-35.5751953,30.7939453-58.3232422,26.9873047
			c-22.6103516-3.7851563-40.9736328-21.2607422-46.0009766-43.6054688
			c-5.9785156-26.5693359,8.9550781-53.7207031,33.8271484-64.0957031
			c9.6240234-3.9873047,20.0087891-5.1279297,29.984375-3.6689453c0.0791016,0.0136719,0.1601563,0.0244141,0.2392578,0.0371094
			c0.1894531,0.0292969,0.3759766,0.0644531,0.5634766,0.0947266c12.0791016,2.1445313,23.4570313,7.9248047,32.2792969,16.9443359
			c0.3300781,0.3476563,0.6630859,0.6933594,0.9833984,1.0507813
			C199.0732422,86.15625,201.7822266,113.4111328,189.2646484,134.2958984z"/>
		<path d="M175.03125,72.7402344c-12.0849609-13.0087891-30.34375-18.5800781-47.640625-14.5410156
			c-16.75,3.9101563-30.6386719,16.3691406-35.9912109,32.7695313c-3.3359375,10.2226563-3.1484375,21.2529297,0.3535156,31.4033203
			c7.9042969,21.9882813,30.6386719,35.5908203,53.7763672,32.1181641
			c22.2158203-3.3359375,40.0214844-21.4794922,42.1679688-43.9873047
			C189.0117188,96.7001953,184.2558594,83.0136719,175.03125,72.7402344z M105.9853516,72.0888672
			c15.1269531-13.3300781,37.7832031-14.6240234,54.5761719-3.6396484
			c15.3701172,10.0537109,23.4501953,28.8320313,20.0898438,46.9091797
			c-3.5410156,19.0634766-19.2207031,34.5224609-38.5673828,37.0683594
			c-21.4287109,2.8212891-41.7373047-10.3535156-49.0751953-30.3916016
			C87.0117188,104.3515625,91.8886719,84.5107422,105.9853516,72.0888672z"/>
		<path d="M218.6826172,63.5263672c-4.1132813-4.6494141-8.5605469-8.9853516-13.2841797-13.0097656
			c-0.0410156-0.0351563-0.0820313-0.0683594-0.1220703-0.1025391c-0.0029297-0.0029297-0.0048828-0.0058594-0.0078125-0.0078125
			c-0.1025391-0.0849609-0.2060547-0.1679688-0.3085938-0.2539063
			c-20.28125-16.9882813-45.3574219-27.6142578-71.7265625-30.1064453
			C105.8300781,17.4570313,77.859375,23.7207031,54.1875,37.7705078
			C31.6298828,51.1601563,13.3847656,71.4160156,2.3271484,95.1962891
			c-11.3359375,24.3759766-14.8916016,52.1533203-10.1621094,78.6123047
			c4.7363281,26.4912109,17.6044922,51.1640625,36.6962891,70.140625
			c19.4091797,19.2880859,44.7480469,32.1845703,71.7861328,36.4365234
			c27.0976563,4.2626953,55.3173828-0.2255859,79.7353516-12.7373047
			c23.046875-11.8085938,42.2890625-30.5673828,54.8125-53.2236328
			c13.2626953-23.9941406,18.6640625-52.0371094,15.4599609-79.2529297
			C247.5400391,108.7294922,236.328125,83.4726563,218.6826172,63.5263672z M240.1425781,194.3046875
			c-9.3662109,23.0976563-25.6845703,43.2089844-46.3740234,57.1103516
			c-21.4042969,14.3818359-47.0888672,21.9160156-72.8671875,21.40625
			c-25.9355469-0.5126953-51.3642578-9.1367188-72.2412109-24.5341797
			c-20.1679688-14.8740234-35.6503906-35.7724609-43.9130859-59.4394531
			c-8.8632813-25.3896484-9.2724609-53.4082031-1.0898438-79.0292969
			c7.7714844-24.3330078,23.0878906-46.0107422,43.3798828-61.5195313
			c19.7646484-15.1054688,43.9160156-24.0791016,68.7480469-25.5703125
			c25.859375-1.5546875,51.9296875,5.0019531,73.9394531,18.6738281c5.3203125,3.3046875,10.375,7.0068359,15.1748047,11.0283203
			c19.6552734,16.8955078,33.9443359,39.3408203,40.3935547,64.4912109
			C251.8369141,142.4394531,250.0458984,169.8828125,240.1425781,194.3046875z"/>
		<path d="M264.1923828,166.453125c0.7490234-7.8271484,0.9785156-15.7021484,0.5097656-23.5625
			c-0.0048828-0.0683594-0.0107422-0.1347656-0.0146484-0.2021484c0-0.0039063,0.0009766-0.0087891,0.0009766-0.0126953
			c-0.0117188-0.1699219-0.0244141-0.3378906-0.0361328-0.5058594c-0.8759766-12.9658203-3.4951172-25.7822266-7.765625-38.0263672
			c-6.7402344-19.3242188-17.6826172-37.0732422-31.7851563-52.0068359
			c-20.3916016-21.59375-47.0566406-37.0820313-76.1162109-43.4511719
			C120.9052734,2.5419922,91.1894531,4.8603516,64.375,15.1962891c-0.8261719,0.3193359-1.6494141,0.6445313-2.46875,0.9785156
			C35.4443359,26.9375,12.3417969,45.4677734-3.9257813,68.9365234
			c-16.71875,24.1298828-25.6699219,52.9970703-26.3574219,82.3066406
			c-0.4511719,19.2060547,2.7617188,38.5126953,9.8974609,56.3320313
			c6.7050781,16.7441406,17.0654297,31.6992188,29.1728516,44.9111328
			c6.0107422,6.5576172,12.2470703,12.9257813,19.2246094,18.4541016
			c14.2333984,11.2695313,30.6494141,19.8046875,48.1748047,24.8886719
			c24.6591797,7.1533203,51.0712891,7.0097656,75.8828125,0.7099609c7.9882813-2.0283203,15.8535156-4.5146484,23.4267578-7.7451172
			c22-9.4111328,41.7167969-24.1181641,56.8046875-42.8291016
			C250.5410156,223.3447266,261.4287109,195.328125,264.1923828,166.453125z M172.4492188,285.8193359
			c-26.5810547,10.4169922-56.0175781,12.0146484-83.9287109,6.140625
			C66.3789063,287.2998047,45.8134766,276.65625,28.96875,261.6074219
			c-21.671875-19.3613281-38.2363281-44.1279297-45.5917969-72.2353516
			c-7.3544922-27.6582031-6.1191406-57.4355469,3.796875-84.3486328
			c10.3183594-28.0039063,29.7382813-52.2890625,54.640625-68.6347656
			c23.9482422-15.8193359,52.6201172-24.0078125,81.3017578-23.3144531
			c28.3144531,0.6044922,56.2128906,9.8164063,79.2285156,26.3955078
			c23.2890625,16.7763672,39.6152344,41.1806641,50.5195313,67.6835938
			c5.3222656,12.9355469,8.484375,26.8603516,8.5498047,40.9082031
			c0.1367188,29.1591797-6.5214844,58.1542969-22.2695313,82.7382813
			C223.3525391,255.5263672,199.7744141,275.0068359,172.4492188,285.8193359z"/>
		<path d="M281.3574219,174.9833984c1.3193359-9.4511719,1.9658203-18.9951172,1.6738281-28.5419922
			c-0.0019531-0.0830078-0.0058594-0.1640625-0.0087891-0.2460938c0-0.0058594,0.0009766-0.0097656,0-0.015625
			c-0.0068359-0.2050781-0.015625-0.4101563-0.0244141-0.6152344c-0.5957031-15.7373047-3.4960938-31.3691406-8.5947266-46.2685547
			c-8.0458984-23.515625-21.671875-44.9628906-39.3037109-62.5390625
			c-22.5957031-22.5253906-51.4677734-38.6523438-82.7529297-45.2490234
			c-30.5908203-6.4355469-62.8417969-3.8935547-92.0683594,7.1777344c-0.8994141,0.3417969-1.7958984,0.6904297-2.6894531,1.046875
			C28.734375,11.2578125,3.4003906,31.0400391-14.7675781,56.2246094
			c-18.6015625,25.8056641-29.0830078,56.8046875-30.9404297,88.5058594
			c-1.4267578,24.3125,2.4238281,48.9599609,11.8818359,71.4052734
			c8.8886719,21.0976563,24.2451172,38.2333984,39.3808594,55.1992188
			c5.8525391,6.5605469,12.765625,12.1259766,19.8876953,17.3261719
			c14.5429688,10.6005859,30.9716797,18.6621094,48.3691406,23.6162109
			c24.4824219,6.9726563,50.5195313,7.2460938,75.3691406,2.1865234c9.3007813-1.8935547,18.5019531-4.2617188,27.3964844-7.5664063
			c25.8466797-9.6611328,49.2441406-25.7441406,67.2294922-46.8300781
			C264.2607422,236.0878906,277.0117188,206.125,281.3574219,174.9833984z M172.484375,304.1884766
			c-30.4511719,10.5615234-63.6328125,10.5957031-94.8916016,2.8808594
			c-18.9072266-4.6660156-36.4892578-13.7470703-51.5634766-25.9755859
			c-25.1015625-20.3642578-45.4921875-46.2529297-55.7675781-76.8945313
			c-10.28125-30.6611328-11.03125-64.3613281-1.5742188-95.3671875c9.6025391-31.4833984,29.375-59.5,55.5878906-79.2705078
			c25.4921875-19.3710938,56.796875-30.6035156,88.7685547-31.9746094
			c31.8984375-1.4726563,63.9804688,6.8369141,91.0292969,23.9208984
			c26.7392578,16.8886719,46.5888672,42.4570313,60.3525391,70.8642578
			c9.53125,19.6708984,14.5849609,41.46875,13.7109375,63.3681641
			c-1.2958984,32.4599609-10.5087891,64.4082031-29.3408203,90.9130859
			C230.0644531,273.1113281,203.125,293.4277344,172.484375,304.1884766z"/>
		<path d="M300.6914063,184.3818359c1.9257813-11.0703125,2.9521484-22.2890625,2.8369141-33.5244141
			c-0.0009766-0.0957031-0.0029297-0.1914063-0.0039063-0.2871094c0-0.0068359,0-0.0126953,0-0.0185547
			c-0.0029297-0.2421875-0.0078125-0.4833984-0.0126953-0.7246094c-0.3164063-18.5078125-3.4980469-36.9580078-9.4238281-54.5126953
			c-9.3525391-27.7070313-25.6113281-52.9023438-46.8222656-73.0722656
			c-24.7363281-23.5214844-55.8789063-40.2216797-89.3916016-47.0458984
			c-33.1015625-6.7265625-67.8857422-3.9580078-99.5234375,7.8466797c-0.9736328,0.3642578-1.9433594,0.7353516-2.9101563,1.1152344
			C24.1933594-3.5546875-3.3730469,17.4804688-23.4384766,44.3808594
			c-20.4882813,27.4814453-32.6259766,60.6025391-35.5273438,94.7050781
			c-2.5029297,29.4121094,2.0869141,59.4052734,13.8662109,86.4785156
			c11.0742188,25.4501953,28.7099609,47.3994141,49.5888672,65.4863281
			c6.5888672,5.7070313,13.2841797,11.3261719,20.5537109,16.1982422
			c14.8515625,9.9316406,31.2929688,17.5185547,48.5615234,22.34375
			c24.3066406,6.7910156,50.0048828,7.6435547,74.8544922,3.6621094c10.625-1.7021484,21.1503906-4.0068359,31.3671875-7.3867188
			c29.6933594-9.9091797,56.7421875-27.3964844,77.6542969-50.8310547
			C280.1162109,249.6708984,294.8798828,217.8046875,300.6914063,184.3818359z M174.6875,323.4238281
			c-34.3222656,10.7050781-71.2919922,9.4179688-105.8544922-0.3779297
			c-15.7177734-4.4541016-30.4667969-11.9716797-43.5742188-21.5986328
			c-28.7646484-21.125-52.8925781-48.3300781-65.9443359-81.5537109
			c-13.3525391-33.6171875-15.9072266-71.2744141-6.9453125-106.3867188
			c8.9228516-34.9511719,29.0117188-66.7089844,56.5361328-89.9042969
			c27.0361328-22.9228516,60.9716797-37.2011719,96.2333984-40.6357422
			c35.4824219-3.5488281,71.7304688,3.8886719,102.8310547,21.4462891
			c30.1699219,17.0322266,53.8457031,43.5527344,70.1865234,74.046875
			c14.0566406,26.2285156,20.9296875,56.0947266,18.8701172,85.8261719
			c-2.4794922,35.7880859-14.4941406,70.6621094-36.4111328,99.0859375
			C238.9433594,291.5625,208.6435547,312.7148438,174.6875,323.4238281z"/>
		<path d="M320.0253906,193.7792969c2.5585938-12.6816406,3.9394531-25.5810547,4-38.5039063c0-0.1103516,0-0.2216797,0-0.3320313
			c0-0.0068359,0.0009766-0.0136719,0.0009766-0.0214844c0.0009766-0.2783203,0-0.5556641-0.0009766-0.8330078
			c-0.0361328-21.2783203-3.4980469-42.5449219-10.2529297-62.7558594
			c-10.6582031-31.8984375-29.5126953-60.8867188-54.3408203-83.6044922
			C232.5888672-16.8291016,199.1416016-34.0625,163.4023438-41.1147461
			c-35.6113281-7.0175781-72.9306641-4.0244141-106.9785156,8.5151367c-1.0478516,0.3857422-2.0917969,0.7797852-3.1318359,1.184082
			C19.6503906-18.3671875-10.1464844,3.9199219-32.1103516,32.5361328
			c-22.3720703,29.1572266-36.2373047,64.3876953-40.1132813,100.9052734
			c-3.6621094,34.5,1.7509766,69.8525391,15.8525391,101.5507813
			c13.2578125,29.8037109,34.2519531,55.5986328,59.7949219,75.7744141c6.8046875,5.375,13.8027344,10.5263672,21.21875,15.0712891
			c15.1601563,9.2617188,31.6152344,16.375,48.7548828,21.0703125c24.1298828,6.6103516,49.4990234,8.1533203,74.3408203,5.1386719
			c11.9560547-1.4511719,23.7978516-3.7539063,35.3369141-7.2080078
			c33.5380859-10.1591797,64.1728516-29.1113281,88.0791016-54.8320313
			C295.9033203,263.1894531,312.8164063,229.5039063,320.0253906,193.7792969z M176.890625,342.6601563
			c-38.1933594,10.8496094-79.0742188,8.6425781-116.8173828-3.6367188
			c-12.5771484-4.0917969-24.5683594-10.0195313-35.5869141-17.2226563
			c-32.7509766-21.4121094-60.21875-50.4306641-76.1181641-86.2138672
			c-16.3525391-36.5966797-20.7011719-78.1708984-12.3164063-117.40625
			C-55.625,79.7792969-35.3007813,44.2636719-6.4658203,17.6416016
			C22.1142578-8.8330078,58.6816406-26.1542969,97.234375-31.6513672
			c39.0664063-5.6279297,79.4394531,1.0161133,114.6318359,18.9707031
			c33.5644531,17.2480469,61.1884766,44.5488281,80.0205078,77.2275391
			c18.8085938,32.6357422,27.4541016,70.7460938,24.0292969,108.2841797
			c-3.5722656,39.1455078-18.4814453,76.9179688-43.4814453,107.2617188
			C247.8232422,310.0136719,214.1621094,332.0019531,176.890625,342.6601563z"/>
		<path d="M339.359375,203.1767578c8.6074219-38.2402344,6.4257813-78.6396484-5.9023438-115.8251953
			c-11.9638672-36.0888672-33.3828125-68.9091797-61.859375-94.1357422
			c-28.9267578-25.6264648-64.7021484-43.3613281-102.6669922-50.6411133
			c-39.2939453-7.5341797-80.4296875-3.8833008-117.7880859,10.4355469
			C15.109375-33.1796875-16.9199219-9.640625-40.7822266,20.6914063
			c-24.2568359,30.8339844-39.890625,68.1621094-44.6992188,107.1054688
			c-4.8867188,39.5751953,1.4140625,80.2978516,17.8369141,116.6230469
			c15.4423828,34.15625,39.6386719,64.0546875,70.0048828,86.0625c7.0087891,5.0810547,14.3203125,9.7275391,21.8808594,13.9423828
			c37.25,20.6933594,80.2919922,30.0566406,122.7753906,26.4130859c13.2880859-1.1386719,26.4462891-3.5,39.3076172-7.0283203
			c37.3847656-10.4082031,71.6796875-30.7587891,98.5048828-58.8330078
			C311.7705078,276.7802734,330.7958984,241.2197266,339.359375,203.1767578z M179.09375,361.8964844
			C137.0292969,372.8886719,91.9384766,370.5078125,51.3134766,355c-9.4912109-3.6240234-18.703125-7.9384766-27.5966797-12.8457031
			c-37.1728516-20.8701172-67.5478516-52.53125-86.2949219-90.8730469
			c-19.3515625-39.5771484-25.5859375-85.0917969-17.6875-128.4248047
			c7.6328125-41.8769531,28.2822266-81.1269531,58.4287109-111.1757813
			C8.2871094-18.34375,47.4863281-38.7099609,89.3300781-46.2705078
			c42.6503906-7.7060547,87.1972656-1.9384766,126.4326172,16.4951172
			c37.0039063,17.3847656,68.5615234,45.4804688,89.8544922,80.4082031
			c23.7285156,38.9228516,34.1152344,85.421875,29.1894531,130.7431641
			c-4.6240234,42.5273438-22.46875,83.1738281-50.5527344,115.4365234
			C256.703125,328.4658203,219.6816406,351.2900391,179.09375,361.8964844z"/>
	</g>
</g>
</svg>
