<?xml version="1.0" encoding="utf-8"?>
<!-- Generator: Adobe Illustrator 16.0.0, SVG Export Plug-In . SVG Version: 6.00 Build 0)  -->
<!DOCTYPE svg PUBLIC "-//W3C//DTD SVG 1.1//EN" "http://www.w3.org/Graphics/SVG/1.1/DTD/svg11.dtd">
<svg version="1.1" id="Layer_2_copy_14" xmlns="http://www.w3.org/2000/svg" xmlns:xlink="http://www.w3.org/1999/xlink" x="0px"
	 y="0px" width="250px" height="250px" viewBox="0 0 250 250" enable-background="new 0 0 250 250" xml:space="preserve">
<circle opacity="0.1" cx="48.3334961" cy="47.668457" r="24.3334961"/>
<circle opacity="0.1" cx="80.3334961" cy="24.3349609" r="6.3334961"/>
<circle opacity="0.1" cx="111.6669922" cy="95.0014648" r="19"/>
<circle opacity="0.1" cx="93.3334961" cy="186.0019531" r="38.6665039"/>
<circle opacity="0.1" cx="140.3339844" cy="137.0019531" r="5"/>
<circle opacity="0.1" cx="44" cy="104.0014648" r="10"/>
<circle opacity="0.1" cx="78.666748" cy="130.0019531" r="12.666748"/>
<circle opacity="0.1" cx="22.666748" cy="154.6679688" r="7.333252"/>
<circle opacity="0.1" cx="167.3334961" cy="57.3349609" r="28.6665039"/>
<circle opacity="0.1" cx="229.3334961" cy="150.0019531" r="15.3334961"/>
<circle opacity="0.1" cx="250.6669922" cy="96.6679688" r="18"/>
<circle opacity="0.1" cx="200.6669922" cy="105.3349609" r="4"/>
<circle opacity="0.1" cx="221.0009766" cy="53.6679688" r="5.6669922"/>
<circle opacity="0.1" cx="199.0004883" cy="13.6665039" r="13.6665039"/>
<circle opacity="0.1" cx="177.6669922" cy="157.0019531" r="5.6669922"/>
<circle opacity="0.1" cx="191.6669922" cy="236.3349609" r="37"/>
<circle opacity="0.1" cx="120" cy="236.6679688" r="4.6665039"/>
<circle opacity="0.1" cx="157" cy="180.3349609" r="8.3330078"/>
<circle opacity="0.1" cx="30.666748" cy="214.0019531" r="16.666748"/>
<circle opacity="0.1" cx="61.0002441" cy="235.6689453" r="3.666748"/>
<circle opacity="0.1" cx="-8.6665039" cy="94.0014648" r="25.3334961"/>
<circle opacity="0.1" cx="110.3334961" cy="49.0014648" r="7.6665039"/>
<circle opacity="0.1" cx="30" cy="0.0014648" r="14"/>
<circle opacity="0.1" cx="125.6669922" cy="13.0014648" r="7"/>
<circle opacity="0.1" cx="144.6669922" cy="-6.6650391" r="14"/>
<circle opacity="0.1" cx="173.3334961" cy="122.668457" r="15.3334961"/>
<circle opacity="0.1" cx="233.6669922" cy="186.3349609" r="5"/>
<circle opacity="0.1" cx="252.6665039" cy="218.6679688" r="8.6665039"/>
<circle opacity="0.1" cx="7.3334961" cy="259.3339844" r="20.6665039"/>
<circle opacity="0.1" cx="248.6669922" cy="19.3349609" r="4.6669922"/>
<circle opacity="0.1" cx="224.3330078" cy="4.3349609" r="9.6669922"/>
</svg>
