<?xml version="1.0" encoding="utf-8"?>
<!-- Generator: Adobe Illustrator 16.0.0, SVG Export Plug-In . SVG Version: 6.00 Build 0)  -->
<!DOCTYPE svg PUBLIC "-//W3C//DTD SVG 1.1//EN" "http://www.w3.org/Graphics/SVG/1.1/DTD/svg11.dtd">
<svg version="1.1" id="Layer_1" xmlns="http://www.w3.org/2000/svg" xmlns:xlink="http://www.w3.org/1999/xlink" x="0px" y="0px"
	 width="58px" height="20px" viewBox="0 0 58 20" enable-background="new 0 0 58 20" xml:space="preserve">
<g>
	<path fill="#003087" d="M8.3549805,3.3398438H4.0668945c-0.2753906,0-0.5507813,0.2192383-0.6054688,0.4946289
		L1.7578125,14.8300781c-0.0551758,0.2207031,0.1098633,0.3847656,0.3295898,0.3847656H4.121582
		c0.2753906,0,0.5498047-0.21875,0.6044922-0.4941406l0.4404297-2.96875
		c0.0546875-0.2753906,0.2744141-0.4960938,0.6044922-0.4960938h1.3740234c2.8046875,0,4.4541016-1.3740234,4.8935547-4.0678711
		c0.1650391-1.1547852,0-2.0893555-0.5498047-2.7490234C10.8842773,3.7241211,9.784668,3.3398438,8.3549805,3.3398438z
		 M8.8500977,7.3530273C8.6293945,8.8920898,7.4204102,8.8920898,6.3208008,8.8920898H5.6606445l0.4404297-2.8588867
		c0-0.1650391,0.1650391-0.2749023,0.3291016-0.2749023h0.2753906c0.7695313,0,1.484375,0,1.8691406,0.4399414
		C8.8500977,6.418457,8.9594727,6.8027344,8.8500977,7.3530273z"/>
	<path fill="#003087" d="M21.1098633,7.2983398h-2.0341797c-0.1650391,0-0.3291016,0.109375-0.3291016,0.2744141
		l-0.1103516,0.5498047L18.4711914,7.902832c-0.4394531-0.6601563-1.4296875-0.8798828-2.4199219-0.8798828
		c-2.2529297,0-4.1777344,1.7045898-4.5625,4.1235352c-0.2197266,1.2089844,0.0546875,2.3632813,0.7695313,3.1337891
		c0.6054688,0.7158203,1.5400391,1.0439453,2.5839844,1.0439453c1.8144531,0,2.859375-1.1542969,2.859375-1.1542969
		l-0.109375,0.5507813c-0.0556641,0.2197266,0.109375,0.4394531,0.3291016,0.4394531h1.8691406
		c0.2753906,0,0.5498047-0.2197266,0.6044922-0.4951172l1.0996094-7.0371094
		C21.5493164,7.5175781,21.3305664,7.2983398,21.1098633,7.2983398z M18.3061523,11.2558594
		c-0.2197266,1.1542969-1.0996094,1.9794922-2.3095703,1.9794922c-0.6044922,0-1.0449219-0.1650391-1.3730469-0.5498047
		c-0.3300781-0.3847656-0.4414063-0.8789063-0.3300781-1.4296875c0.1640625-1.1538086,1.1542969-1.9785156,2.3085938-1.9785156
		c0.6044922,0,1.0449219,0.2197266,1.3740234,0.5493164C18.2514648,10.2119141,18.3618164,10.706543,18.3061523,11.2558594z"/>
	<path fill="#003087" d="M32.0517578,7.2983398h-2.0351563c-0.2207031,0-0.3842773,0.109375-0.4946289,0.2744141
		l-2.859375,4.1791992l-1.2089844-4.0146484c-0.0546875-0.2744141-0.3300781-0.4389648-0.5498047-0.4389648h-2.0341797
		c-0.2197266,0-0.4394531,0.2192383-0.3300781,0.4946289l2.2539063,6.6523438l-2.1435547,2.96875
		c-0.1650391,0.2197266,0,0.5507813,0.2744141,0.5507813h2.0351563c0.21875,0,0.3847656-0.1113281,0.4941406-0.2753906
		l6.8735352-9.8964844C32.4912109,7.6279297,32.3271484,7.2983398,32.0517578,7.2983398z"/>
	<path fill="#307AFF" d="M38.8681641,3.3398438h-4.2871094c-0.2753906,0-0.5488281,0.2192383-0.6054688,0.4946289
		l-1.7050781,10.940918c-0.0546875,0.2207031,0.1113281,0.3847656,0.3320313,0.3847656h2.1972656
		c0.2207031,0,0.3847656-0.1640625,0.3847656-0.3300781l0.4960938-3.1328125
		c0.0546875-0.2753906,0.2753906-0.4960938,0.6035156-0.4960938h1.375c2.8027344,0,4.453125-1.3745117,4.8925781-4.0683594
		c0.1640625-1.1542969,0-2.0888672-0.5488281-2.7490234C41.3427734,3.7241211,40.2978516,3.3398438,38.8681641,3.3398438z
		 M39.3642578,7.3530273c-0.2207031,1.5390625-1.4296875,1.5390625-2.5292969,1.5390625h-0.6601563l0.4394531-2.8588867
		c0-0.1650391,0.1660156-0.2749023,0.3300781-0.2749023h0.2734375c0.7714844,0,1.4863281,0,1.8710938,0.4399414
		C39.3642578,6.418457,39.4189453,6.8027344,39.3642578,7.3530273z"/>
	<path fill="#307AFF" d="M51.6240234,7.2983398h-2.0351563c-0.1640625,0-0.3300781,0.109375-0.3300781,0.2744141
		l-0.109375,0.5498047L48.9853516,7.902832c-0.4394531-0.6601563-1.4296875-0.8798828-2.4199219-0.8798828
		c-2.2539063,0-4.1777344,1.7045898-4.5625,4.1235352c-0.2207031,1.2089844,0.0546875,2.3632813,0.7695313,3.1337891
		c0.6054688,0.7158203,1.5390625,1.0439453,2.5839844,1.0439453c1.8144531,0,2.859375-1.1542969,2.859375-1.1542969
		l-0.109375,0.5507813c-0.0566406,0.2197266,0.109375,0.4394531,0.328125,0.4394531h1.8710938
		c0.2734375,0,0.5488281-0.2197266,0.6035156-0.4951172l1.0996094-7.0371094
		C52.0087891,7.5175781,51.8447266,7.2983398,51.6240234,7.2983398z M48.7646484,11.2558594
		c-0.21875,1.1542969-1.0996094,1.9794922-2.3085938,1.9794922c-0.6054688,0-1.0449219-0.1650391-1.375-0.5498047
		c-0.328125-0.3847656-0.4394531-0.8789063-0.328125-1.4296875c0.1640625-1.1538086,1.1523438-1.9785156,2.3085938-1.9785156
		c0.6035156,0,1.0449219,0.2197266,1.3730469,0.5493164C48.7646484,10.2119141,48.8759766,10.706543,48.7646484,11.2558594z"/>
	<path fill="#307AFF" d="M54.0439453,3.6142578l-1.7597656,11.1611328c-0.0546875,0.2207031,0.109375,0.3847656,0.3300781,0.3847656
		h1.7578125c0.2753906,0,0.5507813-0.2197266,0.6054688-0.4951172l1.7578125-10.940918
		c0.0566406-0.2197266-0.109375-0.3842773-0.328125-0.3842773h-1.9785156
		C54.2080078,3.3398438,54.0986328,3.4492188,54.0439453,3.6142578z"/>
</g>
</svg>
