<?xml version="1.0" encoding="utf-8"?>
<!-- Generator: Adobe Illustrator 16.0.0, SVG Export Plug-In . SVG Version: 6.00 Build 0)  -->
<!DOCTYPE svg PUBLIC "-//W3C//DTD SVG 1.1//EN" "http://www.w3.org/Graphics/SVG/1.1/DTD/svg11.dtd">
<svg version="1.1" id="Layer_1" xmlns="http://www.w3.org/2000/svg" xmlns:xlink="http://www.w3.org/1999/xlink" x="0px" y="0px"
	 width="48px" height="48px" viewBox="0 0 48 48" enable-background="new 0 0 48 48" xml:space="preserve">
<g>
	<g>
		<g>
			<path fill="#388DFF" d="M31.3398438,11.9599609c-1.2480469-1.4150391-3.5097656-2.0205078-6.3994141-2.0205078h-8.3891602
				c-0.5908203,0-1.09375,0.4262695-1.1875,1.0043945l-3.4936523,21.9790039
				C11.8017578,33.3574219,12.1401367,33.75,12.5825195,33.75h5.1782227l1.3012695-8.1865234l-0.0410156,0.2587891
				c0.0927734-0.5791016,0.5927734-1.0043945,1.1835938-1.0043945h2.4609375c4.8364258,0,8.621582-1.9492188,9.7270508-7.5854492
				c0.0351563-0.1679688,0.0859375-0.4892578,0.0859375-0.4892578
				C32.7929688,14.6572266,32.4765625,13.2436523,31.3398438,11.9599609z"/>
		</g>
	</g>
	<g>
		<g>
			<path fill="#388DFF" d="M35.0068359,19.0288086c-1.2021484,5.5493164-5.0371094,8.4848633-11.1240234,8.4848633h-2.2055664
				l-1.6479492,10.4257813h3.5791016c0.5175781,0,0.9580078-0.3730469,1.0385742-0.8798828l0.0415039-0.2226563l0.8232422-5.1728516
				l0.0546875-0.2851563c0.078125-0.5078125,0.5195313-0.8808594,1.0361328-0.8808594h0.6533203
				c4.2304688,0,7.5410156-1.703125,8.5097656-6.6337891C36.1523438,21.8867188,35.9658203,20.2270508,35.0068359,19.0288086z"/>
		</g>
	</g>
</g>
</svg>
