<?xml version="1.0" encoding="utf-8"?>
<!-- Generator: Adobe Illustrator 16.0.0, SVG Export Plug-In . SVG Version: 6.00 Build 0)  -->
<!DOCTYPE svg PUBLIC "-//W3C//DTD SVG 1.1//EN" "http://www.w3.org/Graphics/SVG/1.1/DTD/svg11.dtd">
<svg version="1.1" id="Layer_1" xmlns="http://www.w3.org/2000/svg" xmlns:xlink="http://www.w3.org/1999/xlink" x="0px" y="0px"
	 width="66px" height="66px" viewBox="0 0 66 66" enable-background="new 0 0 66 66" xml:space="preserve">
<g id="Help_Center_Button">
	<g>
		<path id="Speech_Bubble_Icon_8_" fill="#FFFFFF" d="M41.8242188,20H24.6616211C21.6772461,20,19,21.8847656,19,24.8496094
			v8.5107422v2.2255859v11.8007813c0,0.4423828,0.3876953,0.8398438,0.7929688,1.0185547
			c0.4072266,0.1777344,0.9414063,0.1015625,1.2695313-0.1962891l4.1337891-3.7236328
			c0.109375-0.0966797,0.2202148-0.1845703,0.3061523-0.2646484c0.222168-0.203125,0.4584961-0.4121094,0.5527344-0.4716797
			c0.0893555-0.0107422,0.324707,0.1162109,0.527832,0.1201172C26.7802734,43.8730469,27.015625,44,27.2998047,44h14.5244141
			C44.8105469,44,47,41.3417969,47,38.3769531V24.8496094C47,21.8847656,44.8105469,20,41.8242188,20z M35.078125,39.6992188
			c-0.4375,0.3857422-0.9511719,0.5820313-1.53125,0.5820313c-0.5883789,0-1.1108398-0.1914063-1.5483398-0.5712891
			c-0.4614258-0.3984375-0.7070313-0.9697266-0.7070313-1.6503906c0-0.6064453,0.2275391-1.1494141,0.6586914-1.5712891
			c0.8725586-0.8417969,2.3183594-0.8457031,3.1757813,0.0019531c0.4287109,0.4277344,0.6455078,0.9560547,0.6455078,1.5693359
			C35.7714844,38.7314453,35.5332031,39.2958984,35.078125,39.6992188z M38.3330078,30.0166016
			c-0.2333984,0.4316406-0.5166016,0.8076172-0.8369141,1.1230469c-0.2910156,0.2822266-0.8105469,0.7529297-1.5556641,1.4169922
			c-0.1777344,0.1621094-0.3291016,0.3105469-0.4423828,0.4384766c-0.1113281,0.1279297-0.1679688,0.2177734-0.1972656,0.2724609
			c-0.0390625,0.0771484-0.0742188,0.1630859-0.0976563,0.2421875c-0.03125,0.1113281-0.0771484,0.3066406-0.140625,0.5839844
			c-0.15625,0.859375-0.7480469,1.3632813-1.6157227,1.3632813c-0.4526367,0-0.8603516-0.1582031-1.1743164-0.4589844
			c-0.3266602-0.3105469-0.4907227-0.7490234-0.4907227-1.3046875c0-0.5683594,0.0917969-1.0791016,0.2753906-1.5117188
			c0.1821289-0.4277344,0.4267578-0.8056641,0.7241211-1.1269531c0.2866211-0.3046875,0.6518555-0.6503906,1.0878906-1.0292969
			c0.3710938-0.3261719,0.640625-0.5683594,0.8066406-0.7304688c0.1337891-0.1367188,0.2441406-0.2841797,0.3388672-0.4472656
			c0.0673828-0.1240234,0.1025391-0.2558594,0.1025391-0.4042969c0-0.3222656-0.1132813-0.5761719-0.3554688-0.7998047
			c-0.2519531-0.2314453-0.5800781-0.3447266-1.0004883-0.3447266c-0.4960938,0-0.8491211,0.109375-1.0454102,0.3203125
			c-0.2558594,0.2705078-0.4814453,0.6933594-0.6694336,1.2568359c-0.3671875,1.2089844-1.2182617,1.390625-1.6933594,1.390625
			c-0.4833984,0-0.9135742-0.1787109-1.2509766-0.5214844c-0.3300781-0.3349609-0.503418-0.7314453-0.503418-1.1513672
			c0-0.6679688,0.2124023-1.3457031,0.6328125-2.0166016c0.4199219-0.6591797,1.0258789-1.2119141,1.8061523-1.6357422
			c0.7836914-0.4238281,1.699707-0.6396484,2.7236328-0.6396484c0.9477539,0,1.8022461,0.1787109,2.5444336,0.5332031
			c0.7568359,0.3632813,1.3515625,0.8671875,1.7666016,1.4970703c0.4228516,0.6367188,0.6367188,1.3417969,0.6367188,2.0917969
			C38.7089844,29.0195313,38.5830078,29.5566406,38.3330078,30.0166016z"/>
	</g>
</g>
</svg>
