<?xml version="1.0" encoding="utf-8"?>
<!-- Generator: Adobe Illustrator 16.0.0, SVG Export Plug-In . SVG Version: 6.00 Build 0)  -->
<!DOCTYPE svg PUBLIC "-//W3C//DTD SVG 1.1//EN" "http://www.w3.org/Graphics/SVG/1.1/DTD/svg11.dtd">
<svg version="1.1" id="Layer_1" xmlns="http://www.w3.org/2000/svg" xmlns:xlink="http://www.w3.org/1999/xlink" x="0px" y="0px"
	 width="36px" height="36px" viewBox="0 0 36 36" enable-background="new 0 0 36 36" xml:space="preserve">
<rect x="6" y="6" display="none" fill="#FF5EF4" width="24" height="24"/>
<g id="File_Folder_Icon_23_">
	<path id="Icon_Component_2_57_" fill="#4B80FF" stroke="#4B80FF" stroke-miterlimit="10" d="M28.8847656,17.4082031
		C28.5585938,16.8144531,27.984375,16.5,27.34375,16.5H13.1181641c-0.7041016,0-1.3447266,0.4072266-1.6337891,1.1015625
		l-3.7617188,8.8300781C7.8652344,27.0820313,8.4042969,27.5,9.046875,27.5h15.1347656
		c0.6464844,0,1.2382813-0.3632813,1.5263672-1.015625l3.2519531-7.3105469
		C29.2167969,18.5913086,29.1894531,17.9619141,28.8847656,17.4082031z"/>
	<path id="Icon_Component_1_57_" fill="#4B80FF" stroke="#4B80FF" stroke-miterlimit="10" d="M10.4609375,14.4448242
		C10.7490234,13.7509766,11.6484375,13.5,12.3535156,13.5h11.8164063v-1.3837891c0-0.7983398,0.9814453-0.6162109,0.25-0.6162109
		h-7.8085938c-0.0117188,0-0.0205078-0.4169922-0.0234375-0.4189453l-1.3984375-2.0805664
		C14.9414063,8.6088867,14.5332031,8.5,14.0957031,8.5H9.015625c-0.7333984,0-1.8457031-0.0175781-1.8457031,0.7807617v12.1381836
		L10.4609375,14.4448242z"/>
</g>
</svg>
