<?xml version="1.0" encoding="utf-8"?>
<!-- Generator: Adobe Illustrator 16.0.0, SVG Export Plug-In . SVG Version: 6.00 Build 0)  -->
<!DOCTYPE svg PUBLIC "-//W3C//DTD SVG 1.1//EN" "http://www.w3.org/Graphics/SVG/1.1/DTD/svg11.dtd">
<svg version="1.1" id="Layer_1" xmlns="http://www.w3.org/2000/svg" xmlns:xlink="http://www.w3.org/1999/xlink" x="0px" y="0px"
	 width="14px" height="14px" viewBox="0 0 14 14" enable-background="new 0 0 14 14" xml:space="preserve">
<g>
	<g>
		<path fill="#59B5FF" stroke="#59B5FF" stroke-miterlimit="10" d="M4.4248047,1.3857422
			c0.6259766-0.2460938,1.2851563-0.097168,1.762207,0.4003906l4.0375977,4.1967773
			c0.6132813,0.6308594,0.5878906,1.7558594-0.0507813,2.3647461l-4.0849609,3.9345703
			c-0.4931641,0.4755859-1.1542969,0.5986328-1.7646484,0.3320313c-1.0556641-0.4619141-1.4023438-1.9287109-0.5488281-2.7509766
			l2.8793945-2.7685547L3.7685547,4.097168C3.4550781,3.7709961,3.2919922,3.3730469,3.3007813,2.9492188l0,0
			C3.3134766,2.2724609,3.765625,1.6425781,4.4248047,1.3857422z M4.6884766,10.8125
			c-0.1083984,0.1054688-0.1103516,0.1855469-0.1103516,0.2128906c-0.0029297,0.1435547,0.1191406,0.3134766,0.2744141,0.3818359
			c0.1171875,0.0517578,0.2158203,0.0292969,0.3222656-0.0742188l4.0869141-3.9350586
			c0.1074219-0.0986328,0.2480469-0.2602539,0.0175781-0.5004883L5.2392578,2.699707
			C5.1318359,2.5878906,5.0322266,2.5625,4.9052734,2.6123047C4.75,2.6733398,4.6220703,2.8364258,4.6181641,2.9750977
			C4.6181641,3,4.6171875,3.0776367,4.71875,3.1835938l3.7978516,3.9453125L4.6884766,10.8125z"/>
	</g>
</g>
</svg>
