<?xml version="1.0" encoding="utf-8"?>
<!-- Generator: Adobe Illustrator 16.0.0, SVG Export Plug-In . SVG Version: 6.00 Build 0)  -->
<!DOCTYPE svg PUBLIC "-//W3C//DTD SVG 1.1//EN" "http://www.w3.org/Graphics/SVG/1.1/DTD/svg11.dtd">
<svg version="1.1" id="Layer_1" xmlns="http://www.w3.org/2000/svg" xmlns:xlink="http://www.w3.org/1999/xlink" x="0px" y="0px"
	 width="654px" height="458px" viewBox="0 0 654 458" enable-background="new 0 0 654 458" xml:space="preserve">
<g>
	<g>
		<path fill="#10D2FF" d="M659.8310547,456.4345703c0,4.4003906-3.5996094,8-8,8H2.7353516c-4.3999023,0-8-3.5996094-8-8V4.0375977
			c0-4.3999023,3.6000977-8,8-8h649.0957031c4.4003906,0,8,3.6000977,8,8V456.4345703z"/>
	</g>
	<g>
		<path fill-rule="evenodd" clip-rule="evenodd" fill="#B08454" d="M57.8989258,386.8056641h630.7231445
			c20.7597656,0,33.6884766,16.9863281,28.7275391,37.7451172v0.0029297
			c-4.9570313,20.7636719-25.9990234,37.7490234-46.7587891,37.7490234H39.8642578
			c-20.7583008,0-33.6889648-16.9853516-28.7280273-37.7490234v-0.0029297
			C16.0966797,403.7919922,37.1367188,386.8056641,57.8989258,386.8056641z"/>
		<path fill-rule="evenodd" clip-rule="evenodd" fill="#C89761" d="M70.4643555,386.8056641h366.1567383
			c20.7568359,0,33.6884766,16.9863281,28.7304688,37.7451172l-0.0048828,0.0029297
			c-4.9570313,20.7636719-25.9990234,37.7490234-46.7597656,37.7490234h-366.15625
			c-20.762207,0-33.6894531-16.9853516-28.7314453-37.7490234l0.0019531-0.0029297
			C28.6616211,403.7919922,49.7021484,386.8056641,70.4643555,386.8056641z"/>
		<path fill-rule="evenodd" clip-rule="evenodd" fill="#B08454" d="M247.3764648,386.8056641h126.199707
			c-6.2763672,3.5830078-10.5302734,10.3457031-10.5302734,18.0488281v6.6748047v50.7734375H236.9116211
			c-0.0302734-1.6464844-0.0595703-3.2558594-0.0595703-4.7929688v-52.6552734
			C236.8520508,397.1494141,241.1020508,390.3886719,247.3764648,386.8056641z"/>
		<path display="none" fill-rule="evenodd" clip-rule="evenodd" fill="#ABCDC7" d="M504.1523438,34.496582
			c-43.5566406-30.5375977-94.1572266-49.6948242-144.6005859-51.8168945
			c-2.34375,5.5507813-4.1767578,11.3066406-5.4130859,17.2084961
			c-9.5410156,45.5258789,19.6308594,82.4335938,65.1542969,82.4335938
			C452.4580078,82.3217773,485.1523438,62.7319336,504.1523438,34.496582z"/>
		<path display="none" fill-rule="evenodd" clip-rule="evenodd" fill="#C4E6E0" d="M444.8300781-91.9453125
			c45.5253906,0,74.6953125,36.9072266,65.1513672,82.4326172c-9.5419922,45.5263672-54.1865234,82.4345703-99.7080078,82.4345703
			c-45.5283203,0-74.7011719-36.9082031-65.15625-82.4345703C354.6601563-55.0380859,399.3046875-91.9453125,444.8300781-91.9453125
			z"/>
		<path fill-rule="evenodd" clip-rule="evenodd" fill="#D6F3ED" d="M607.0927734,67.5698242l1.0019531,22.8828125
			c0.1796875,10.7060547-8.4414063,19.621582-19.1474609,19.8012695l-95.7880859,1.6040039l-0.0048828-0.1772461
			c19.4736328-2.9814453,16.4814453-22.5454102,16.2509766-36.2685547l-0.828125-12.4541016
			c-0.1787109-10.7104492,8.4384766-19.6201172,19.1474609-19.800293l95.7939453,0.0566406l0.0029297,0.1787109
			c-9.4667969,1.4487305-16.6992188,8.0976563-16.5341797,17.9174805L607.0927734,67.5698242z"/>
		<path fill-rule="evenodd" clip-rule="evenodd" fill="#EE1F46" d="M334.2675781,265.9433594
			c15.0625,3.2529297,24.6367188,18.1015625,21.3828125,33.1640625
			c-3.2539063,15.0634766-18.1054688,24.6376953-33.1674805,21.3837891
			c-0.5649414-0.1240234-150.1923828-78.6933594-155.8208008-57.2099609
			c-0.2705078,14.9121094,43.5385742,39.4023438,43.8193359,39.5458984
			c13.7363281,6.9863281,19.206543,23.7929688,12.21875,37.5292969
			c-6.9907227,13.7382813-23.7954102,19.2089844-37.5336914,12.2216797
			c-0.4282227-0.2197266-140.4658203-84.2597656-111.8647461-133.6572266
			C104.6152344,152.9584961,333.5869141,265.796875,334.2675781,265.9433594z"/>
		<path fill-rule="evenodd" clip-rule="evenodd" fill="#FF3846" d="M401.2021484,264.1835938
			c69.3789063,0,146.1435547,47.6748047,171.4570313,106.4833984c1.9921875,4.6259766,3.6035156,9.1816406,4.8525391,13.6552734
			H328.3125c-2.5986328-4.4736328-4.9077148-9.0292969-6.8989258-13.6552734
			C296.0986328,311.8583984,331.8203125,264.1835938,401.2021484,264.1835938z"/>
		<path fill-rule="evenodd" clip-rule="evenodd" fill="#D60346" d="M401.2041016,264.1835938
			c11.5078125,0,23.2236328,1.3203125,34.8691406,3.7753906c0.9638672,6.0351563,0.8701172,12.6308594-0.4521484,19.5449219
			c-5.4814453,28.640625-29.9296875,51.859375-54.6113281,51.859375c-24.6835938,0-40.2480469-23.21875-34.7636719-51.859375
			c0.7910156-4.1503906,1.9833984-8.1845703,3.5185547-12.0507813
			C363.5957031,268.2441406,380.9628906,264.1835938,401.2041016,264.1835938z"/>
		<path fill-rule="evenodd" clip-rule="evenodd" fill="#FF3846" d="M405.6083984,264.2539063
			c68.1962891,1.9550781,142.2724609,48.8447266,167.0507813,106.4130859
			c1.9912109,4.6259766,3.6035156,9.1816406,4.8525391,13.6552734h-191.3125
			c-2.5966797-4.9824219-4.9082031-10.0595703-6.8994141-15.2138672
			C361.7421875,323.6533203,373.5605469,284.1767578,405.6083984,264.2539063z"/>
		<path fill-rule="evenodd" clip-rule="evenodd" fill="#B00046" d="M405.6083984,264.2539063
			c10.0888672,0.2890625,20.3017578,1.5683594,30.4677734,3.7128906c0.9609375,6.0302734,0.8671875,12.6259766-0.4550781,19.5371094
			c-5.4814453,28.640625-29.9296875,51.859375-54.6113281,51.859375c-3.2890625,0-6.4101563-0.4150391-9.34375-1.1943359
			C368.4316406,306.1464844,381.109375,279.4853516,405.6083984,264.2539063z"/>
		<path fill-rule="evenodd" clip-rule="evenodd" fill="#B00046" d="M182.465332,284.0703125
			c12.4887695,10.0878906,27.8500977,18.6708984,28.0161133,18.7568359c0.3764648,0.1914063,0.75,0.3935547,1.1162109,0.6025391
			c4.0205078,6.0673828,6.8486328,13.1787109,7.9257813,20.7792969c1.3486328,9.4785156-0.2426758,18.1933594-3.9985352,25.0761719
			c-8.3071289,6.8037109-20.1738281,8.4707031-30.3583984,3.2929688
			c-0.1396484-0.0722656-15.1503906-9.0761719-34.3164063-22.8857422c-0.4648438-1.7910156-0.8359375-3.6220703-1.1010742-5.4833984
			c-3.1630859-22.2792969,9.8964844-40.3417969,29.1650391-40.3417969
			C180.1030273,283.8671875,181.2895508,283.9375,182.465332,284.0703125z"/>
		<path fill-rule="evenodd" clip-rule="evenodd" fill="#FF5F59" d="M188.0541992,225.4052734L188.0541992,225.4052734
			c3.0053711-1.7363281,6.8847656-0.6943359,8.6206055,2.3095703l9.171875,15.8847656
			c1.7319336,3.0048828,0.6938477,6.8837891-2.3100586,8.6210938h-0.0039063
			c-3.0024414,1.7324219-6.8833008,0.6933594-8.6166992-2.3105469l-9.1704102-15.8847656
			C184.0112305,231.0185547,185.0493164,227.1416016,188.0541992,225.4052734z"/>
		<path fill-rule="evenodd" clip-rule="evenodd" fill="#B4ABB7" d="M192.5727539,233.2304688L192.5727539,233.2304688
			c5.7080078-3.2929688,13.065918-1.3222656,16.3613281,4.3818359l3.5029297,6.0693359
			c3.2958984,5.7060547,1.3217773,13.0664063-4.3847656,16.3603516v0.0019531
			c-5.703125,3.2929688-13.0634766,1.3232422-16.3583984-4.3837891l-3.5048828-6.0703125
			C184.8955078,243.8847656,186.8671875,236.5253906,192.5727539,233.2304688z"/>
		<path fill-rule="evenodd" clip-rule="evenodd" fill="#FFE6E0" d="M377.8525391,318.2910156
			c0,0-28.5595703-46.3652344-47.4980469-45.1503906C311.4228516,274.3574219,328.0546875,319.7509766,377.8525391,318.2910156z"/>
		<path fill-rule="evenodd" clip-rule="evenodd" fill="#FFCD59" d="M198.4228516,243.3623047L198.4228516,243.3623047
			c6.5166016-3.7607422,14.9257813-1.5087891,18.6860352,5.0068359l59.4033203,102.890625
			c3.7631836,6.5166016,1.5117188,14.9257813-5.0068359,18.6865234v0.0019531
			c-6.515625,3.7578125-14.9243164,1.5068359-18.6855469-5.0078125l-59.4052734-102.890625
			C189.6533203,255.5351563,191.90625,247.1269531,198.4228516,243.3623047z"/>
		<path fill-rule="evenodd" clip-rule="evenodd" fill="#6E645E" d="M265.0224609,358.7177734h0.0019531
			c2.7436523-1.5820313,6.2827148-0.6357422,7.8671875,2.109375l5.7592773,9.9775391
			c1.5878906,2.7431641,0.6376953,6.2841797-2.1049805,7.8671875l-0.0009766,0.0029297
			c-2.7470703,1.5849609-6.284668,0.6367188-7.8696289-2.1083984l-5.762207-9.9765625
			C261.3305664,363.8408203,262.2788086,360.3017578,265.0224609,358.7177734z"/>
		<path fill-rule="evenodd" clip-rule="evenodd" fill="#D60346" d="M183.8398438,275.8632813
			c19.2705078,0,37.4536133,18.0615234,40.6118164,40.3398438c3.1591797,22.2822266-9.8955078,40.34375-29.1625977,40.34375
			c-19.2719727,0-37.4526367-18.0615234-40.6137695-40.34375
			C151.5136719,293.9248047,164.5708008,275.8632813,183.8398438,275.8632813z"/>
		<path fill-rule="evenodd" clip-rule="evenodd" fill="#F08A62" d="M278.315918,309.3955078
			c8.3969727,4.7285156,9.465332,18.7568359,2.3867188,31.3427734
			c-7.0810547,12.5810547-19.6254883,18.9521484-28.0253906,14.2285156
			c-8.3950195-4.7255859-9.4628906-18.7578125-2.3842773-31.3408203
			C257.3720703,311.0439453,269.9179688,304.6728516,278.315918,309.3955078z"/>
		<path fill-rule="evenodd" clip-rule="evenodd" fill="#FF966C" d="M268.5283203,344.9150391
			c-9.0249023,20.9091797-38.199707,27.2802734-65.1616211,14.2373047
			c-26.9628906-13.046875-41.5048828-40.5703125-32.4790039-61.4785156
			c9.0253906-20.9091797,38.1992188-27.28125,65.1625977-14.2363281
			C263.0117188,296.484375,277.5532227,324.0078125,268.5283203,344.9150391z"/>
		<path fill-rule="evenodd" clip-rule="evenodd" fill="#FF3846" d="M451.9335938,270.8261719
			c-10.8740234,8.6289063-10.4277344,25.9804688,1.0009766,38.7451172
			c11.4267578,12.7646484,29.5087891,16.1171875,40.3837891,7.4824219
			c0.4052734-0.3232422,90.015625-90.2900391,107.1542969-72.4521484
			c8.8173828,13.7402344-16.1552734,43.3632813-16.3085938,43.5996094
			c-7.5996094,11.6054688-2.5576172,29.2392578,11.2724609,39.3828125
			c13.8261719,10.1445313,31.2001953,8.9619141,38.7998047-2.6464844
			c0.2402344-0.3623047,84.1552734-126.4331055,31.5039063-161.6186523
			C621.6904297,133.8813477,452.4199219,270.4345703,451.9335938,270.8261719z"/>
		<path fill-rule="evenodd" clip-rule="evenodd" fill="#B00046" d="M609.4091797,333.8789063
			c9.9990234,2.0126953,19.6640625-1.0615234,24.8251953-8.9414063c0.0830078-0.1230469,9.9736328-14.9833984,20.8310547-35.8808594
			c-8.1845703-4.4453125-18.0966797-7.1269531-28.2763672-7.1269531c-22.8769531,0-38.4570313,13.5214844-34.8046875,30.2089844
			C593.8544922,320.6767578,600.4013672,328.3857422,609.4091797,333.8789063z"/>
		<path fill-rule="evenodd" clip-rule="evenodd" fill="#FF966C" d="M330.5976563,196.4370117
			c5.4970703-18.4506836,24.9160156-28.9536133,43.3642578-23.4541016
			c18.4541016,5.4980469,28.9560547,24.9165039,23.4580078,43.3666992
			c-0.0175781,0.0654297-6.9921875,22.8681641,15.9326172,50.9746094
			c12.1308594,14.9121094,9.8691406,36.8320313-5.0419922,48.9570313
			c-14.9121094,12.1269531-36.8339844,9.8671875-48.9589844-5.0449219
			C312.9672852,254.3867188,330.5478516,196.6064453,330.5976563,196.4370117z"/>
		<path fill-rule="evenodd" clip-rule="evenodd" fill="#D77E5B" d="M330.5976563,196.4370117
			c5.4970703-18.4506836,24.9160156-28.9536133,43.3642578-23.4541016
			c5.5898438,1.6635742,10.4472656,4.609375,14.3525391,8.4125977v62.9208984
			c0,25.484375-13.6425781,47.9335938-33.9882813,60.4140625
			C314.2924805,250.0605469,330.5478516,196.5976563,330.5976563,196.4370117z"/>
		<path fill-rule="evenodd" clip-rule="evenodd" fill="#924E48" d="M211.4160156,38.6396484l1.0297852-1.1660156
			c2.5380859-2.8774414,5.2358398-5.3740234,8.0458984-7.4970703c-15.1210938,25.1367188-15.046875,61.7412109,1.5092773,86.6835938
			v0.0019531c16.5537109,24.9453125,44.2666016,30.2202148,65.4453125,14.2124023
			c-2.0058594,3.3349609-4.2788086,6.4731445-6.8168945,9.3486328l-1.0273438,1.1665039
			c-21.668457,24.5595703-54.7407227,21.5380859-73.4902344-6.7182617h-0.0014648
			C187.3613281,106.4155273,189.7475586,63.1987305,211.4160156,38.6396484z"/>
		<path fill-rule="evenodd" clip-rule="evenodd" fill="#F08A62" d="M281.5366211,198.1293945L281.5366211,198.1293945
			c0,10.2480469-8.3833008,18.6323242-18.6303711,18.6323242h-3.6103516c-10.2470703,0-18.6293945-8.3842773-18.6293945-18.6323242
			l0,0c0-10.246582,8.3823242-18.6298828,18.6293945-18.6298828h3.6103516
			C273.1533203,179.4995117,281.5366211,187.8828125,281.5366211,198.1293945z"/>
		<path fill-rule="evenodd" clip-rule="evenodd" fill="#884640" d="M287.2983398,144.9790039v33.6508789
			c0,11.2436523-9.1943359,20.4360352-20.4355469,20.4360352l0,0c-11.2397461,0-20.434082-9.1923828-20.434082-20.4360352
			v-33.6508789c0-11.2421875,9.1943359-20.4370117,20.434082-20.4370117l0,0
			C278.1040039,124.5419922,287.2983398,133.7368164,287.2983398,144.9790039z"/>
		<path fill-rule="evenodd" clip-rule="evenodd" fill="#FF966C" d="M283.3564453,130.2324219h86.4931641
			c15.1621094,0,27.5703125,12.4086914,27.5703125,27.5712891v65.4160156c0,38.9472656-31.8671875,70.8154297-70.8173828,70.8154297
			l0,0c-38.9492188,0-70.8164063-31.8681641-70.8164063-70.8154297v-65.4160156
			C255.7861328,142.6411133,268.1958008,130.2324219,283.3564453,130.2324219z"/>
		<path fill-rule="evenodd" clip-rule="evenodd" fill="#FDA988" d="M283.3540039,130.2333984H335.59375
			c0.0449219,23.5097656-9.2529297,53.984375-27.203125,83.6176758
			c-12.0693359,19.9262695-26.2875977,36.5610352-40.6474609,48.6235352
			c-7.5458984-11.2558594-11.9570313-24.7626953-11.9570313-39.2539063v-65.4169922
			C255.7861328,142.6381836,268.1904297,130.2333984,283.3540039,130.2333984z"/>
		<path fill-rule="evenodd" clip-rule="evenodd" fill="#A44C51" d="M345.1904297,284.2480469H345.1875
			c-12.7441406,4.7109375-29.3129883-1.0136719-36.8203125-12.7246094l-4.2734375-6.6669922
			c-7.5068359-11.7080078-3.2211914-25.1464844,9.519043-29.8583984h0.003418
			c12.7426758-4.7119141,29.3115234,1.0117188,36.8173828,12.7236328l4.2753906,6.6679688
			C362.2167969,266.0996094,357.9316406,279.5351563,345.1904297,284.2480469z"/>
		<path fill-rule="evenodd" clip-rule="evenodd" fill="#8A3F41" d="M345.1875,284.2480469L345.1875,284.2480469
			c-0.2958984,0.109375-0.5927734,0.2109375-0.8935547,0.3095703c-8.6259766-0.8974609-17.1489258-5.6347656-21.8168945-12.9130859
			l-3.8847656-6.0605469c-6.8237305-10.6455078-2.9296875-22.8613281,8.6547852-27.1455078l0.003418-0.0019531
			c3.4819336-1.2880859,7.2768555-1.7177734,11.0698242-1.4013672c4.9033203,2.4824219,9.1943359,6.1308594,12.1171875,10.6865234
			l4.2714844,6.6650391C362.2148438,266.0996094,357.9316406,279.5332031,345.1875,284.2480469z"/>
		<path fill-rule="evenodd" clip-rule="evenodd" fill="#FF5F59" d="M341.9970703,278.5449219L341.9970703,278.5449219
			c-2.1855469,0.8085938-4.5126953,1.2216797-6.8818359,1.2832031l-1.1367188-1.7753906
			c-5.875-9.1582031-2.5214844-19.6679688,7.4453125-23.3515625v-0.0019531
			c2.1875-0.8066406,4.5136719-1.2236328,6.8818359-1.2832031l1.1357422,1.7734375
			C355.3125,264.3496094,351.9658203,274.859375,341.9970703,278.5449219z"/>
		<path fill-rule="evenodd" clip-rule="evenodd" fill="#FFFDF7" d="M292.4204102,149.9663086h0.0024414
			c1.9213867,0,3.4916992,1.5703125,3.4916992,3.4916992V157.25c0,1.9204102-1.5703125,3.4907227-3.4916992,3.4907227h-0.0024414
			c-1.9213867,0-3.4916992-1.5703125-3.4916992-3.4907227v-3.7919922
			C288.9287109,151.5366211,290.4990234,149.9663086,292.4204102,149.9663086z"/>
		<path fill-rule="evenodd" clip-rule="evenodd" fill="#FFFDF7" d="M292.4204102,163.9746094h0.0024414
			c2.9355469,0,5.3369141,2.4008789,5.3369141,5.3374023v5.8007813c0,2.9345703-2.4013672,5.3349609-5.3369141,5.3349609h-0.0024414
			c-2.9365234,0-5.3369141-2.4003906-5.3369141-5.3349609v-5.8007813
			C287.0834961,166.3754883,289.4838867,163.9746094,292.4204102,163.9746094z"/>
		<path fill-rule="evenodd" clip-rule="evenodd" fill="#924E48" d="M287.4692383,53.8945313h1.2016602
			c25.315918,0,40.4736328,20.7124023,33.6831055,46.0297852v0.003418
			c-6.7880859,25.3154297-33.0541992,46.0253906-58.3730469,46.0253906h-1.2006836
			c-25.3168945,0-40.4741211-20.7099609-33.6826172-46.0253906v-0.003418
			C235.8876953,74.6069336,262.1518555,53.8945313,287.4692383,53.8945313z"/>
		<path fill-rule="evenodd" clip-rule="evenodd" fill="#924E48" d="M398.6464844,122.3984375v0.0019531
			c0,12.956543-10.5957031,23.5527344-23.5546875,23.5527344H260.6757813c-12.956543,0-23.5527344-10.5961914-23.5527344-23.5527344
			v-0.0019531c0-12.9584961,10.5961914-23.5551758,23.5527344-23.5551758h114.4160156
			C388.0507813,98.8432617,398.6464844,109.4399414,398.6464844,122.3984375z"/>
		<path fill-rule="evenodd" clip-rule="evenodd" fill="#924E48" d="M335.2988281,73.5996094h0.0048828
			c12.9541016,0,20.7080078,10.5981445,17.2333984,23.5537109l-2.8046875,10.4638672
			c-3.4746094,12.956543-16.9140625,23.5532227-29.8706055,23.5532227h-0.003418
			c-12.9545898,0-20.7075195-10.5966797-17.2348633-23.5532227l2.8046875-10.4638672
			C308.9047852,84.1977539,322.34375,73.5996094,335.2988281,73.5996094z"/>
		<path fill-rule="evenodd" clip-rule="evenodd" fill="#924E48" d="M412.1953125,144.9790039v33.6508789
			c0,11.2436523-9.1943359,20.4360352-20.4335938,20.4360352l0,0c-11.2421875,0-20.4394531-9.1923828-20.4394531-20.4360352
			v-33.6508789c0-11.2421875,9.1972656-20.4370117,20.4394531-20.4370117l0,0
			C403.0009766,124.5419922,412.1953125,133.7368164,412.1953125,144.9790039z"/>
		<path fill-rule="evenodd" clip-rule="evenodd" fill="#FFFDF7" d="M351.2285156,150.9580078L351.2285156,150.9580078
			c1.4033203,0,2.546875,1.1455078,2.546875,2.5463867v2.7675781c0,1.4033203-1.1435547,2.550293-2.546875,2.550293l0,0
			c-1.4003906,0-2.5488281-1.1469727-2.5488281-2.550293v-2.7675781
			C348.6796875,152.1035156,349.828125,150.9580078,351.2285156,150.9580078z"/>
		<path fill-rule="evenodd" clip-rule="evenodd" fill="#FFFDF7" d="M351.2285156,161.1816406h0.0039063
			c2.140625,0,3.8916016,1.7509766,3.8916016,3.894043v4.2329102c0,2.1425781-1.7509766,3.894043-3.8916016,3.894043h-0.0039063
			c-2.1445313,0-3.8945313-1.7514648-3.8945313-3.894043v-4.2329102
			C347.3339844,162.9326172,349.0839844,161.1816406,351.2285156,161.1816406z"/>
		<path fill-rule="evenodd" clip-rule="evenodd" fill="#FF966C" d="M417.8476563,198.1293945L417.8476563,198.1293945
			c0,10.2480469-8.3789063,18.6323242-18.6308594,18.6323242h-3.609375c-10.2460938,0-18.6308594-8.3842773-18.6308594-18.6323242
			l0,0c0-10.246582,8.3847656-18.6298828,18.6308594-18.6298828h3.609375
			C409.46875,179.4995117,417.8476563,187.8828125,417.8476563,198.1293945z"/>
		<path fill-rule="evenodd" clip-rule="evenodd" fill="#CA7757" d="M404.5244141,206.1650391
			c-0.8037109,0.2568359-1.65625,0.3930664-2.5439453,0.3930664h-1.6328125c-4.6367188,0-8.4277344-3.7924805-8.4277344-8.425293
			v-0.003418c0-4.6357422,3.7910156-8.425293,8.4277344-8.425293h1.6328125c0.8876953,0,1.7402344,0.1357422,2.5439453,0.3930664
			c-3.4023438,1.0839844-5.8857422,4.2836914-5.8857422,8.0322266v0.003418
			C398.6386719,201.8813477,401.1220703,205.0800781,404.5244141,206.1650391z"/>
		<path fill-rule="evenodd" clip-rule="evenodd" fill="#FF5F59" d="M354.0351563,217.3662109
			c8.296875-3.0654297,16.2402344-2.2509766,17.7392578,1.8173828c1.5029297,4.0683594-4.0039063,9.8476563-12.2988281,12.9121094
			c-8.2958984,3.0625-16.2353516,2.2490234-17.7373047-1.8193359
			C340.234375,226.2089844,345.7421875,220.4257813,354.0351563,217.3662109z"/>
		<path fill-rule="evenodd" clip-rule="evenodd" fill="#924E48" d="M335.4648438,206.7885742L335.4648438,206.7885742
			c2.6816406-0.6665039,5.0507813,1.0708008,5.2773438,3.859375l0.4287109,5.4301758
			c0.2236328,2.7890625-1.7841797,5.6113281-4.4619141,6.2773438h-0.0019531
			c-2.6826172,0.6660156-5.0546875-1.0693359-5.2744141-3.8583984l-0.4335938-5.4321289
			C330.7753906,210.277832,332.7832031,207.4550781,335.4648438,206.7885742z"/>
		<path fill-rule="evenodd" clip-rule="evenodd" fill="#924E48" d="M294.628418,26.8466797h1.5532227
			c3.8364258,0,7.4941406,0.3720703,10.9423828,1.0742188c-28.8496094,5.2910156-56.2480469,29.5625-64.0039063,58.4794922l0,0
			c-7.7568359,28.9169922,6.6259766,53.1884766,32.6386719,58.4780273c-3.8305664,0.7036133-7.6831055,1.074707-11.5180664,1.074707
			h-1.5556641c-32.753418,0-52.3662109-26.7973633-43.581543-59.5527344l0,0
			C227.8876953,53.6445313,261.8774414,26.8466797,294.628418,26.8466797z"/>
		<path fill-rule="evenodd" clip-rule="evenodd" fill="#924E48" d="M409.46875,102.0532227l0.0009766,0.0014648
			c2.4716797,2.4736328,2.4716797,6.5180664,0,8.9887695l-9.1474609,9.1479492
			c-2.4716797,2.4716797-6.5136719,2.4716797-8.9882813,0v-0.0009766c-2.4746094-2.4746094-2.4746094-6.5151367,0-8.9902344
			l9.1464844-9.1469727C402.9521484,99.581543,406.9970703,99.581543,409.46875,102.0532227z"/>
		<path fill-rule="evenodd" clip-rule="evenodd" fill="#924E48" d="M417.8447266,123.4394531v0.0004883
			c0,3.4970703-2.8574219,6.355957-6.3574219,6.355957h-12.9345703c-3.4960938,0-6.3574219-2.8588867-6.3574219-6.355957v-0.0004883
			c0-3.4995117,2.8613281-6.3564453,6.3574219-6.3564453h12.9345703
			C414.9873047,117.0830078,417.8447266,119.9399414,417.8447266,123.4394531z"/>
		<path fill-rule="evenodd" clip-rule="evenodd" fill="#A65B55" d="M291.8666992,56.9750977h0.6728516
			c14.1499023,0,22.6245117,11.5766602,18.8286133,25.7294922v0.0019531
			c-3.7954102,14.1538086-18.4794922,25.7294922-32.6289063,25.7294922h-0.6748047
			c-14.1518555,0-22.6254883-11.5756836-18.8295898-25.7294922v-0.0019531
			C263.0307617,68.5517578,277.7128906,56.9750977,291.8666992,56.9750977z"/>
		<path fill-rule="evenodd" clip-rule="evenodd" fill="#A65B55" d="M312.6650391,85.6518555h0.4121094
			c8.6367188,0,13.8071289,7.0664063,11.4902344,15.703125v0.0009766
			c-2.315918,8.6362305-11.2758789,15.7036133-19.9130859,15.7036133h-0.4121094
			c-8.6376953,0-13.8061523-7.0673828-11.4912109-15.7036133v-0.0009766
			C295.0673828,92.7182617,304.0288086,85.6518555,312.6650391,85.6518555z"/>
		<path fill-rule="evenodd" clip-rule="evenodd" fill="#A65B55" d="M394.0058594,125.0566406v0.0019531
			c0,8.4570313-6.9179688,15.3740234-15.3691406,15.3740234h-24.8027344c-8.453125,0-15.3720703-6.9169922-15.3720703-15.3740234
			v-0.0019531c0-8.4541016,6.9189453-15.3681641,15.3720703-15.3681641h24.8027344
			C387.0878906,109.6884766,394.0058594,116.6025391,394.0058594,125.0566406z"/>
		<path fill-rule="evenodd" clip-rule="evenodd" fill="#A65B55" d="M404.3730469,143.9580078v7.9375
			c0,7.4277344-6.0751953,13.5024414-13.5009766,13.5024414h-0.0019531c-7.4267578,0-13.5009766-6.074707-13.5009766-13.5024414
			v-7.9375c0-7.4282227,6.0742188-13.5004883,13.5009766-13.5004883h0.0019531
			C398.2978516,130.4575195,404.3730469,136.5297852,404.3730469,143.9580078z"/>
		
			<ellipse transform="matrix(-0.4184312 0.9082485 -0.9082485 -0.4184312 586.3529053 74.009964)" fill-rule="evenodd" clip-rule="evenodd" fill="#FF5F59" cx="269.4814453" cy="224.7314453" rx="7.8522954" ry="16.0122356"/>
		<path fill-rule="evenodd" clip-rule="evenodd" fill="#D60346" d="M611.4287109,280.6982422
			c22.8740234,0,44.3808594,13.5224609,48.0341797,30.2099609c3.6533203,16.6816406-11.9277344,30.2080078-34.8027344,30.2080078
			c-22.8730469,0-44.3769531-13.5263672-48.0322266-30.2080078
			C572.9726563,294.2207031,588.5546875,280.6982422,611.4287109,280.6982422z"/>
		<path fill-rule="evenodd" clip-rule="evenodd" fill="#B00046" d="M607.6992188,291.3007813
			c17.5869141,0,34.1259766,10.4033203,36.9375,23.2353516c2.8115234,12.8300781-9.1708984,23.2304688-26.7646484,23.2304688
			c-17.5898438,0-34.1308594-10.4003906-36.9404297-23.2304688
			C578.1220703,301.7041016,590.1025391,291.3007813,607.6992188,291.3007813z"/>
		<path fill-rule="evenodd" clip-rule="evenodd" fill="#C89761" d="M50.1162109,384.3193359h658.0039063
			c11.0683594,0,17.9580078,9.0488281,15.3144531,20.1171875v0.0029297
			c-2.6425781,11.0654297-13.8564453,20.1142578-24.921875,20.1142578H40.5048828
			c-11.065918,0-17.9521484-9.0488281-15.3100586-20.1142578v-0.0029297
			C27.8378906,393.3681641,39.0483398,384.3193359,50.1162109,384.3193359z"/>
		<path fill-rule="evenodd" clip-rule="evenodd" fill="#F4B980" d="M111.0410156,384.3193359h387.1953125
			c11.0625,0,17.9521484,9.0488281,15.3076172,20.1171875v0.0029297
			c-2.6416016,11.0654297-13.8554688,20.1142578-24.9208984,20.1142578H101.4326172
			c-11.0668945,0-17.9550781-9.0488281-15.3105469-20.1142578v-0.0029297
			C88.7636719,393.3681641,99.9765625,384.3193359,111.0410156,384.3193359z"/>
		<path fill-rule="evenodd" clip-rule="evenodd" fill="#C89761" d="M243.1630859,384.3193359h126.2041016
			c-9.9804688,1.5029297-17.6894531,10.1640625-17.6894531,20.5351563v6.6748047v13.0244141H225.4833984v-19.6992188
			C225.4833984,394.4814453,233.1923828,385.8222656,243.1630859,384.3193359z"/>
		<path fill-rule="evenodd" clip-rule="evenodd" fill="#FFC68C" d="M12.9189453,384.3193359h98.7954102
			c11.0649414,0,17.9555664,9.0488281,15.3125,20.1171875l-0.0019531,0.0029297
			c-2.6420898,11.0654297-13.8564453,20.1142578-24.9189453,20.1142578H3.3081055
			c-11.0649414,0-17.9536133-9.0488281-15.3115234-20.1142578l0.0009766-0.0029297
			C-9.359375,393.3681641,1.8540039,384.3193359,12.9189453,384.3193359z"/>
		<path fill-rule="evenodd" clip-rule="evenodd" fill="#D60346" d="M616.2763672,211.1523438
			c12.203125-22.7495117,29.1240234-36.6333008,37.796875-31.0131836s5.8085938,28.6186523-6.3916016,51.3676758
			c-12.2021484,22.7509766-29.1230469,36.6367188-37.7958984,31.0146484
			C601.2109375,256.8994141,604.0722656,233.9042969,616.2763672,211.1523438z"/>
		<path fill-rule="evenodd" clip-rule="evenodd" fill="#D60346" d="M338.8476563,349.7958984h11.5488281l2.34375,9.4003906
			c0.7900391,3.1738281-1.1601563,5.7705078-4.3359375,5.7705078l0,0c-3.1796875,0-6.4238281-2.5966797-7.2148438-5.7705078
			L338.8476563,349.7958984L338.8476563,349.7958984z M342.0078125,339.3037109
			c-4.984375,0-8.9970703,2.0244141-11.453125,5.2929688l-0.0097656,0.0117188
			c-2.453125,3.2705078-3.3549805,7.7880859-2.1113281,12.7714844c1.2441406,4.9892578,4.3945313,9.5068359,8.4785156,12.7724609
			l0.0117188,0.0126953c4.0849609,3.2685547,9.1064453,5.2929688,14.0927734,5.2929688
			c4.9853516,0,8.9970703-2.0244141,11.4541016-5.2929688l0.0058594-0.0126953
			c2.4570313-3.265625,3.3544922-7.7832031,2.1123047-12.7724609c-1.2412109-4.9833984-4.3916016-9.5009766-8.4765625-12.7714844
			l-0.0126953-0.0117188C352.015625,341.328125,346.9921875,339.3037109,342.0078125,339.3037109L342.0078125,339.3037109z
			 M353.3847656,348.2246094c-2.921875-2.3388672-6.5195313-3.7861328-10.0976563-3.7861328
			c-3.5761719,0-6.453125,1.4472656-8.2148438,3.7861328c-1.7509766,2.3417969-2.3945313,5.5791016-1.5039063,9.1552734
			c0.8925781,3.578125,3.1464844,6.8164063,6.0673828,9.1582031c2.9248047,2.3369141,6.5244141,3.7851563,10.1005859,3.7851563
			c3.578125,0,6.4541016-1.4482422,8.2119141-3.7851563c1.7548828-2.3417969,2.3974609-5.5800781,1.5039063-9.1582031
			C358.5625,353.8037109,356.3076172,350.5664063,353.3847656,348.2246094z"/>
		<path fill-rule="evenodd" clip-rule="evenodd" fill="#FFE6E0" d="M408.3105469,316.28125
			c0,0-12.9414063-52.8945313,1.2226563-65.515625C423.6992188,238.140625,444.3261719,281.8632813,408.3105469,316.28125z"/>
		<path fill-rule="evenodd" clip-rule="evenodd" fill="#924E48" d="M425.7207031,164.1293945l0.0019531,0.0024414
			c1.75,3.027832,0.7011719,6.9321289-2.3242188,8.6816406l-11.2050781,6.4677734
			c-3.0273438,1.7480469-6.9345703,0.7026367-8.6806641-2.3276367h-0.0019531
			c-1.7480469-3.0288086-0.7021484-6.9335938,2.3261719-8.6816406l11.2041016-6.46875
			C420.0693359,160.0537109,423.9746094,161.1015625,425.7207031,164.1293945z"/>
		<path fill-rule="evenodd" clip-rule="evenodd" fill="#FFF4DC" d="M161.0009766,373.9365234h211.9248047
			c2.8544922,0,5.1894531,2.3369141,5.1894531,5.1914063l0,0c0,2.8574219-2.3349609,5.1943359-5.1894531,5.1943359H161.0009766
			c-2.8554688,0-5.1879883-2.3369141-5.1879883-5.1943359l0,0
			C155.8129883,376.2734375,158.1455078,373.9365234,161.0009766,373.9365234z"/>
		<path fill-rule="evenodd" clip-rule="evenodd" fill="#FFFDF7" d="M314.9526367,373.9365234h155.9545898
			c2.8535156,0,5.1894531,2.3369141,5.1894531,5.1914063l0,0c0,2.8574219-2.3359375,5.1943359-5.1894531,5.1943359H314.9526367
			c-2.8535156,0-5.190918-2.3369141-5.190918-5.1943359l0,0
			C309.7617188,376.2734375,312.0991211,373.9365234,314.9526367,373.9365234z"/>
		<polygon fill-rule="evenodd" clip-rule="evenodd" fill="#FF5F59" points="250.5961914,375.4619141 207.0268555,350.9423828 
			205.199707,368.1904297 141.9643555,328.8310547 157.737793,359.6435547 57.8632813,324.6474609 185.5693359,381.0234375 
			172.7724609,358.2695313 223.6318359,383.9716797 217.9658203,364.1289063 		"/>
		<polygon fill-rule="evenodd" clip-rule="evenodd" fill="#FFCD59" points="259.5439453,375.6298828 220.8374023,346.2851563 
			219.2133789,366.9296875 163.0332031,319.8222656 177.046875,356.6982422 88.3154297,314.8105469 201.7749023,382.2871094 
			190.4023438,355.0556641 235.5878906,385.8193359 230.5576172,362.0673828 		"/>
		<path fill-rule="evenodd" clip-rule="evenodd" fill="#6E645E" d="M290.9697266,360.6513672
			c2.7299805,0,4.1933594,2.2138672,3.2724609,4.9404297c-0.9233398,2.7304688-3.8833008,4.9453125-6.6157227,4.9453125
			c-2.7280273,0-4.1914063-2.2148438-3.2685547-4.9453125C285.28125,362.8652344,288.2407227,360.6513672,290.9697266,360.6513672z"
			/>
		<path fill-rule="evenodd" clip-rule="evenodd" fill="#6E645E" d="M296.184082,354.7578125
			c1.3613281,0,2.4716797-1.1123047,2.4716797-2.4746094c0-1.3574219-1.1103516-2.4707031-2.4716797-2.4707031
			c-1.3598633,0-2.4697266,1.1132813-2.4697266,2.4707031C293.7143555,353.6455078,294.8242188,354.7578125,296.184082,354.7578125z
			"/>
		<path fill-rule="evenodd" clip-rule="evenodd" fill="#6E645E" d="M318.2026367,330.8056641
			c1.3647461,0,2.0107422,1.1064453,1.4433594,2.4697266c-0.5673828,1.3671875-2.1347656,2.4736328-3.4995117,2.4736328
			c-1.3642578,0-2.0102539-1.1064453-1.4399414-2.4736328C315.2714844,331.9121094,316.8383789,330.8056641,318.2026367,330.8056641
			z"/>
		<path fill-rule="evenodd" clip-rule="evenodd" fill="#6E645E" d="M254.3735352,348.5986328
			c1.9111328,0,3.8056641,1.5498047,4.2246094,3.4638672c0.4233398,1.9140625-0.7861328,3.4609375-2.699707,3.4609375
			c-1.9116211,0-3.8046875-1.546875-4.2250977-3.4609375C251.25,350.1484375,252.4594727,348.5986328,254.3735352,348.5986328z"/>
		<path fill-rule="evenodd" clip-rule="evenodd" fill="#6E645E" d="M234.1391602,333.609375
			c1.5043945,0,3.0546875,1.21875,3.4643555,2.7197266c0.4101563,1.5068359-0.4707031,2.7216797-1.9765625,2.7216797
			c-1.5024414,0-3.0527344-1.2148438-3.4643555-2.7216797C231.7543945,334.828125,232.6386719,333.609375,234.1391602,333.609375z"
			/>
		<path fill-rule="evenodd" clip-rule="evenodd" fill="#6E645E" d="M247.815918,333.0605469
			c0.9541016,0,1.7324219-0.7783203,1.7324219-1.7314453c0-0.9541016-0.7783203-1.7304688-1.7324219-1.7304688
			c-0.9536133,0-1.7319336,0.7763672-1.7319336,1.7304688C246.0839844,332.2822266,246.8623047,333.0605469,247.815918,333.0605469z
			"/>
		<path fill-rule="evenodd" clip-rule="evenodd" fill="#6E645E" d="M207.2504883,296.5566406
			c0.9555664,0,1.7348633-0.7744141,1.7348633-1.7304688c0-0.9550781-0.7792969-1.7304688-1.7348633-1.7304688
			c-0.9521484,0-1.7294922,0.7753906-1.7294922,1.7304688C205.5209961,295.7822266,206.2983398,296.5566406,207.2504883,296.5566406
			z"/>
		<path fill-rule="evenodd" clip-rule="evenodd" fill="#FF966C" d="M590.6914063,309.5507813
			c3.1933594-10.1679688,14.9912109-14.0136719,26.3457031-8.5908203
			c11.3544922,5.4208984,17.9707031,18.0605469,14.7763672,28.2304688l-17.4628906,55.1318359H577.46875
			c-4.4248047-5.921875-6.2558594-13.2324219-4.2597656-19.5830078L590.6914063,309.5507813z"/>
		<path fill-rule="evenodd" clip-rule="evenodd" fill="#FDA988" d="M590.6914063,309.5507813
			c2.6484375-8.4375,11.2226563-12.5214844,20.5556641-10.5683594l-15.0996094,47.6679688h-17.2080078L590.6914063,309.5507813z"/>
		<path fill-rule="evenodd" clip-rule="evenodd" fill="#E6845E" d="M573.1035156,375.390625
			c-0.9316406-3.5859375-0.9619141-7.2578125,0.1054688-10.6513672l12.9550781-40.8984375
			c21.125,6.7402344,34.3359375,23.5214844,30.984375,41.9775391c-0.6054688,3.3369141-1.7265625,6.5419922-3.2792969,9.5722656
			H573.1035156z"/>
		<path fill-rule="evenodd" clip-rule="evenodd" fill="#FF966C" d="M515.4365234,366.8398438
			c-1.1064453,6.1113281-0.3974609,12.0390625,1.8056641,17.4824219h102.5849609
			c1.5517578-3.0332031,2.671875-6.2373047,3.2783203-9.5761719c4.1103516-22.6210938-16.6591797-42.7265625-46.3925781-44.9082031
			C546.9853516,327.6552734,519.5507813,344.2207031,515.4365234,366.8398438z"/>
		<path fill-rule="evenodd" clip-rule="evenodd" fill="#FDA988" d="M565.7148438,339.1162109
			c7.1796875,5.8916016,6.53125,18.9521484-1.4521484,29.1728516c-7.9814453,10.21875-20.2744141,13.7304688-27.4541016,7.8398438
			c-7.1835938-5.8935547-6.5361328-18.9541016,1.4482422-29.171875
			C546.2382813,336.734375,558.5322266,333.2236328,565.7148438,339.1162109z"/>
		<path fill-rule="evenodd" clip-rule="evenodd" fill="#FFFDF7" d="M305.6357422,240.0625
			c2.0834961-2.1289063,4.7626953-3.875,7.9770508-5.0644531l0,0c9.4360352-3.4882813,20.9624023-1.2558594,29.3598633,4.8867188
			c-5.5195313,2.7753906-12.5605469,4.4541016-19.9238281,4.3935547l-0.0024414,0.0009766
			C316.1196289,244.21875,310.0546875,242.6308594,305.6357422,240.0625z"/>
		<path fill-rule="evenodd" clip-rule="evenodd" fill="#D77E5B" d="M297.2573242,192.918457
			c-1.0825195-0.8500977-1.2709961-2.4204102-0.418457-3.5053711c0.8520508-1.0839844,2.4243164-1.2719727,3.5048828-0.4189453
			l12.5200195,9.9057617l16.8823242-5.2617188c1.3203125-0.40625,2.7177734,0.3325195,3.1269531,1.6484375
			c0.4042969,1.3198242-0.3330078,2.7182617-1.6523438,3.1245117l-18.1376953,5.6523438
			c-0.7548828,0.2324219-1.609375,0.1044922-2.277832-0.4233398L297.2573242,192.918457z"/>
		<path fill-rule="evenodd" clip-rule="evenodd" fill="#924E48" d="M283.2988281,218.8837891l4.2666016-0.4150391
			c2.0151367-0.1933594,3.9912109,1.2734375,4.3979492,3.265625v0.0019531
			c0.4057617,1.9931641-0.9082031,3.7792969-2.9199219,3.9765625l-4.2651367,0.4140625
			c-2.0151367,0.1953125-3.9902344-1.2734375-4.3969727-3.265625v-0.0039063
			C279.9736328,220.8652344,281.2885742,219.0791016,283.2988281,218.8837891z"/>
		<path fill-rule="evenodd" clip-rule="evenodd" fill="#CAF2FF" d="M377.9814453,74.4663086l0.0009766-0.0004883
			c1.7353516,0.8789063,2.4375,3.0180664,1.5605469,4.7568359l-2.0136719,3.9868164
			c-0.8789063,1.737793-3.0175781,2.4399414-4.7568359,1.5625v-0.0009766
			c-1.7392578-0.8789063-2.4423828-3.0185547-1.5634766-4.7558594l2.015625-3.9873047
			C374.1025391,74.2905273,376.2421875,73.5869141,377.9814453,74.4663086z"/>
		<path fill-rule="evenodd" clip-rule="evenodd" fill="#CAF2FF" d="M390.828125,49.0478516l0.0039063,0.0009766
			c1.7363281,0.878418,2.4394531,3.0185547,1.5615234,4.7558594l-5.8330078,11.5439453
			c-0.8808594,1.7387695-3.0214844,2.4399414-4.7597656,1.5629883l0,0c-1.7392578-0.878418-2.4443359-3.0200195-1.5644531-4.7563477
			l5.8359375-11.5449219C386.953125,48.8710938,389.0898438,48.1679688,390.828125,49.0478516z"/>
		<path fill-rule="evenodd" clip-rule="evenodd" fill="#CAF2FF" d="M362.2011719,56.4892578v0.0024414
			c1.9443359-0.1098633,3.6230469,1.3911133,3.7333984,3.3354492l0.5810547,10.4550781
			c0.1054688,1.9443359-1.3945313,3.6230469-3.3378906,3.7304688l-0.0019531,0.0004883
			c-1.9453125,0.1079102-3.6240234-1.3935547-3.7314453-3.3383789l-0.5810547-10.4526367
			C358.7539063,58.2763672,360.2558594,56.5991211,362.2011719,56.4892578z"/>
		<path fill-rule="evenodd" clip-rule="evenodd" fill="#CAF2FF" d="M361.4824219,43.5766602v-0.0004883
			c1.9433594-0.1064453,3.625,1.3945313,3.7324219,3.3388672l0.0957031,1.6904297
			c0.1074219,1.9458008-1.3945313,3.6245117-3.3408203,3.730957l0,0c-1.9462891,0.1098633-3.6220703-1.3916016-3.7314453-3.3369141
			l-0.0947266-1.690918C358.0361328,45.3637695,359.5361328,43.6850586,361.4824219,43.5766602z"/>
		<path display="none" fill-rule="evenodd" clip-rule="evenodd" fill="#C4E6E0" d="M127.8242188,7.5922852
			c1.2602539,1.6733398,2.3007813,3.4882813,3.1064453,5.3935547l7.2026367,1.3764648
			c2.1049805,0.4033203,3.8989258,1.7539063,3.8989258,3.9023438v4.628418v4.6308594
			c0,2.1474609-1.7939453,3.496582-3.8989258,3.8984375l-7.1787109,1.3725586
			c-0.4106445,0.9702148-0.8828125,1.9243164-1.4243164,2.8603516c-0.1157227,0.2050781-0.2416992,0.3999023-0.3774414,0.5849609
			c-0.418457,0.6767578-0.8623047,1.3256836-1.3354492,1.9501953l2.4106445,6.9243164
			c0.7045898,2.0239258,0.4282227,4.2548828-1.4287109,5.3286133l-4.0117188,2.3139648l-4.0058594,2.3139648
			c-1.8608398,1.0727539-3.9296875,0.1958008-5.331543-1.4277344l-4.7915039-5.5493164
			c-2.0532227,0.2553711-4.144043,0.262207-6.2241211,0.0078125l-4.7944336,5.5415039
			c-1.3950195,1.6235352-3.4658203,2.5004883-5.3256836,1.4277344l-4.0063477-2.3139648l-4.0112305-2.3134766
			c-1.8564453-1.0742188-2.1328125-3.3051758-1.4277344-5.3291016l2.387207-6.8686523
			c-1.2700195-1.6933594-2.3178711-3.5268555-3.1269531-5.453125l-7.1660156-1.3706055
			c-2.1049805-0.4018555-3.8984375-1.753418-3.9013672-3.8984375v-4.6308594v-4.628418
			c0-2.1464844,1.7963867-3.4990234,3.9013672-3.9023438l7.2006836-1.3764648
			c0.4042969-0.9467773,0.8666992-1.8793945,1.3925781-2.7890625c0.5302734-0.9135742,1.1025391-1.777832,1.7177734-2.5981445
			l-2.4052734-6.9248047c-0.7050781-2.0283203-0.4311523-4.2558594,1.4277344-5.3320313l4.0078125-2.3149414L94.3125-9.2861328
			c1.8618164-1.0717773,3.9291992-0.1943359,5.3276367,1.4296875l4.7954102,5.5449219
			c2.0561523-0.2524414,4.1469727-0.2602539,6.2260742-0.0058594l4.7919922-5.5380859
			c1.3984375-1.6230469,3.4672852-2.5024414,5.328125-1.4287109l4.0102539,2.3134766l4.0073242,2.3125
			c1.8569336,1.0761719,2.1367188,3.3066406,1.4287109,5.3320313L127.8242188,7.5922852L127.8242188,7.5922852z
			 M173.0336914-27.1806641l1.5273438-4.3950195c0.4482422-1.2875977,0.2714844-2.7055664-0.9077148-3.3862305l-2.5458984-1.4702148
			l-2.5454102-1.4711914c-1.1831055-0.6806641-2.4975586-0.121582-3.3842773,0.9086914l-3.043457,3.5175781
			c-1.3212891-0.1611328-2.6489258-0.1586914-3.9550781,0.0039063l-3.0454102-3.5214844
			c-0.8920898-1.0332031-2.2041016-1.5893555-3.3852539-0.9086914l-2.5463867,1.4702148l-2.546875,1.4711914
			c-1.1811523,0.6806641-1.3535156,2.0966797-0.9042969,3.3862305l1.5263672,4.3959961
			c-0.3901367,0.5219727-0.7539063,1.0712891-1.0917969,1.6518555c-0.3325195,0.578125-0.6274414,1.1694336-0.8837891,1.7714844
			l-4.5737305,0.875c-1.3374023,0.2568359-2.4775391,1.1147461-2.4775391,2.4775391v2.9399414v2.9399414
			c0.0029297,1.3632813,1.1401367,2.222168,2.4775391,2.4785156l4.5512695,0.8706055
			c0.5117188,1.222168,1.1796875,2.3867188,1.9892578,3.4619141l-1.5175781,4.362793
			c-0.4492188,1.2866211-0.2734375,2.7045898,0.9042969,3.3862305l2.5488281,1.4692383l2.5444336,1.4707031
			c1.1811523,0.6806641,2.4951172,0.1225586,3.3852539-0.90625l3.043457-3.5205078
			c1.3208008,0.1611328,2.6489258,0.1572266,3.9541016-0.0063477l3.0424805,3.5268555
			c0.890625,1.0288086,2.2050781,1.5869141,3.3867188,0.90625l2.5439453-1.4707031l2.5488281-1.4692383
			c1.1791992-0.6816406,1.3535156-2.0996094,0.9077148-3.3862305l-1.5302734-4.3969727
			c0.3012695-0.3964844,0.5839844-0.8085938,0.8481445-1.2392578v-0.0019531l0.0043945-0.0068359
			c0.0825195-0.1152344,0.1630859-0.2363281,0.2363281-0.3613281c0.3442383-0.5961914,0.6411133-1.1992188,0.902832-1.8168945
			l4.5595703-0.8720703c1.3359375-0.2563477,2.4780273-1.1152344,2.4780273-2.4785156v-2.9399414v-2.9399414
			c0-1.362793-1.1420898-2.2207031-2.4780273-2.4775391l-4.5751953-0.875
			C174.4931641-24.9667969,173.8349609-26.1206055,173.0336914-27.1806641L173.0336914-27.1806641z M167.4790039-16.1850586
			c-0.1425781,0.8364258-0.4394531,1.6606445-0.8886719,2.4379883c-2.0512695,3.5532227-6.5952148,4.7724609-10.1508789,2.71875
			c-2.5527344-1.4746094-3.902832-4.2358398-3.6958008-6.9941406l0.0107422-0.1362305l0.0029297-0.043457l0.0151367-0.137207
			l0.0048828-0.0419922c0.1225586-0.9428711,0.4316406-1.8774414,0.9379883-2.7529297
			c0.0556641-0.0991211,0.1083984-0.1948242,0.1557617-0.2963867c2.0385742-3.2319336,6.2016602-4.3837891,9.609375-2.6787109
			c0.1220703,0.0893555,0.2519531,0.1723633,0.3852539,0.25c2.6108398,1.5078125,3.9619141,4.3603516,3.6821289,7.1767578
			l-0.0161133,0.1376953l-0.0058594,0.0424805l-0.0166016,0.1362305l-0.0063477,0.0424805L167.4790039-16.1850586
			L167.4790039-16.1850586z M97.6489258,16.6601563c-0.0742188,0.1533203-0.1538086,0.3017578-0.2387695,0.4516602
			c-0.7973633,1.3789063-1.2827148,2.8500977-1.4750977,4.3359375l-0.0078125,0.0668945l-0.0244141,0.2158203l-0.0048828,0.0664063
			l-0.0195313,0.2163086c-0.3251953,4.3417969,1.7998047,8.6889648,5.8217773,11.0131836
			c5.5957031,3.2314453,12.7495117,1.3110352,15.9804688-4.2851563c0.7963867-1.3779297,1.2822266-2.8530273,1.4741211-4.3378906
			l0.0083008-0.0644531l0.0224609-0.2172852c0.440918-4.4331055-1.684082-8.9223633-5.7944336-11.2973633
			c-0.2084961-0.1210938-0.4135742-0.2553711-0.6044922-0.3935547
			C107.4204102,9.7412109,100.855957,11.5595703,97.6489258,16.6601563z"/>
		<path fill-rule="evenodd" clip-rule="evenodd" fill="#FFFDF7" d="M507.3505859,280.5244141v78.3007813
			c0,14.0146484-11.4785156,25.4970703-25.4941406,25.4970703H356.4492188v-0.2324219
			c25.5546875-3.4755859,22.0664063-29.1474609,22.0664063-47.1142578v-64.6455078
			c0-14.0234375,11.4716797-25.4941406,25.4960938-25.4941406h125.4072266v0.2304688
			c-12.4238281,1.6894531-22.0683594,12.4091797-22.0683594,25.2636719V280.5244141z"/>
		<path fill-rule="evenodd" clip-rule="evenodd" fill="#D4CAC4" d="M395.3935547,311.1015625h5.4199219
			c1.6113281,0,2.9277344,1.3144531,2.9277344,2.9267578v0.0019531c0,1.6132813-1.3164063,2.9296875-2.9277344,2.9296875h-5.4199219
			c-1.6142578,0-2.9287109-1.3164063-2.9287109-2.9296875v-0.0019531
			C392.4648438,312.4160156,393.7792969,311.1015625,395.3935547,311.1015625z"/>
		<path fill-rule="evenodd" clip-rule="evenodd" fill="#D4CAC4" d="M395.3935547,334.5322266h13.3212891
			c1.6103516,0,2.9267578,1.3173828,2.9267578,2.9267578v0.0019531c0,1.6132813-1.3164063,2.9287109-2.9267578,2.9287109
			h-13.3212891c-1.6142578,0-2.9287109-1.3154297-2.9287109-2.9287109v-0.0019531
			C392.4648438,335.8496094,393.7792969,334.5322266,395.3935547,334.5322266z"/>
		<path fill-rule="evenodd" clip-rule="evenodd" fill="#D4CAC4" d="M395.3935547,275.953125h57.5410156
			c1.6142578,0,2.9267578,1.3154297,2.9267578,2.9296875l0,0c0,1.6152344-1.3125,2.9277344-2.9267578,2.9277344h-57.5410156
			c-1.6142578,0-2.9287109-1.3125-2.9287109-2.9277344l0,0C392.4648438,277.2685547,393.7792969,275.953125,395.3935547,275.953125z
			"/>
		<path fill-rule="evenodd" clip-rule="evenodd" fill="#D4CAC4" d="M395.3935547,287.6699219h57.5410156
			c1.6142578,0,2.9267578,1.3144531,2.9267578,2.9277344l0,0c0,1.6152344-1.3125,2.9296875-2.9267578,2.9296875h-57.5410156
			c-1.6142578,0-2.9287109-1.3144531-2.9287109-2.9296875l0,0
			C392.4648438,288.984375,393.7792969,287.6699219,395.3935547,287.6699219z"/>
		<path fill-rule="evenodd" clip-rule="evenodd" fill="#D4CAC4" d="M395.3935547,299.3828125h19.6787109
			c1.6074219,0,2.9277344,1.3173828,2.9277344,2.9316406v0.0019531c0,1.6113281-1.3203125,2.9257813-2.9277344,2.9257813
			h-19.6787109c-1.6142578,0-2.9287109-1.3144531-2.9287109-2.9257813v-0.0019531
			C392.4648438,300.7001953,393.7792969,299.3828125,395.3935547,299.3828125z"/>
		<path fill-rule="evenodd" clip-rule="evenodd" fill="#D4CAC4" d="M395.3935547,350.3408203h51.5
			c1.6123047,0,2.9287109,1.3154297,2.9287109,2.9267578l0,0c0,1.6142578-1.3164063,2.9287109-2.9287109,2.9287109h-51.5
			c-1.6142578,0-2.9287109-1.3144531-2.9287109-2.9287109l0,0
			C392.4648438,351.65625,393.7792969,350.3408203,395.3935547,350.3408203z"/>
		<path fill-rule="evenodd" clip-rule="evenodd" fill="#D4CAC4" d="M475.3798828,272.8730469h6.7294922
			c2.4589844,0,4.6943359,1.0058594,6.3095703,2.6220703c1.6171875,1.6220703,2.6210938,3.8583984,2.6210938,6.3076172v6.0976563
			c0,2.4472656-1.0039063,4.6796875-2.6210938,6.2998047c-1.6308594,1.6259766-3.8632813,2.6318359-6.3095703,2.6318359h-6.7294922
			c-2.4492188,0-4.6826172-1.0058594-6.3037109-2.625c-1.6201172-1.6113281-2.6240234-3.8457031-2.6240234-6.3066406v-6.0976563
			c0-2.4570313,1.0039063-4.6933594,2.6191406-6.3076172C470.6884766,273.8789063,472.9238281,272.8730469,475.3798828,272.8730469
			L475.3798828,272.8730469z M482.109375,277.0625h-6.7294922c-1.2978516,0-2.4853516,0.5351563-3.3457031,1.3955078
			c-0.859375,0.8603516-1.3955078,2.0478516-1.3955078,3.3447266v6.0976563c0,1.3017578,0.5361328,2.484375,1.3955078,3.3447266
			c0.8574219,0.8642578,2.0429688,1.3955078,3.3457031,1.3955078h6.7294922c1.3076172,0,2.4931641-0.53125,3.3447266-1.3847656
			c0.8642578-0.8613281,1.3955078-2.0478516,1.3955078-3.3554688v-6.0976563c0-1.3046875-0.53125-2.4912109-1.3857422-3.3447266
			C484.5976563,277.5976563,483.4130859,277.0625,482.109375,277.0625z"/>
		<path fill-rule="evenodd" clip-rule="evenodd" fill="#D4CAC4" d="M475.3798828,304.8408203h6.7294922
			c2.4589844,0,4.6943359,1.0068359,6.3095703,2.6201172c1.6171875,1.625,2.6210938,3.8603516,2.6210938,6.3085938v6.0966797
			c0,2.4501953-1.0039063,4.6796875-2.6210938,6.3007813c-1.6308594,1.6279297-3.8632813,2.6308594-6.3095703,2.6308594h-6.7294922
			c-2.4492188,0-4.6826172-1.0048828-6.3037109-2.6259766c-1.6201172-1.6123047-2.6240234-3.8447266-2.6240234-6.3056641v-6.0966797
			c0-2.4580078,1.0039063-4.6933594,2.6191406-6.3085938C470.6884766,305.8476563,472.9238281,304.8408203,475.3798828,304.8408203
			L475.3798828,304.8408203z M482.109375,309.0292969h-6.7294922c-1.2978516,0-2.4853516,0.5380859-3.3457031,1.3935547
			c-0.859375,0.8603516-1.3955078,2.0478516-1.3955078,3.3466797v6.0966797c0,1.3027344,0.5361328,2.4882813,1.3955078,3.3466797
			c0.8574219,0.8652344,2.0429688,1.3955078,3.3457031,1.3955078h6.7294922c1.3076172,0,2.4931641-0.5302734,3.3447266-1.3876953
			c0.8642578-0.8623047,1.3955078-2.046875,1.3955078-3.3544922v-6.0966797c0-1.3046875-0.53125-2.4902344-1.3857422-3.3466797
			C484.5976563,309.5673828,483.4130859,309.0292969,482.109375,309.0292969z"/>
		<path fill-rule="evenodd" clip-rule="evenodd" fill="#D4CAC4" d="M475.3798828,339.8349609h6.7294922
			c2.4589844,0,4.6943359,1.0068359,6.3095703,2.6210938c1.6171875,1.6230469,2.6210938,3.859375,2.6210938,6.3076172v6.0986328
			c0,2.4462891-1.0039063,4.6806641-2.6210938,6.2998047c-1.6308594,1.6269531-3.8632813,2.6308594-6.3095703,2.6308594h-6.7294922
			c-2.4492188,0-4.6826172-1.0039063-6.3037109-2.6259766c-1.6201172-1.6103516-2.6240234-3.8466797-2.6240234-6.3046875v-6.0986328
			c0-2.4570313,1.0039063-4.6933594,2.6191406-6.3076172C470.6884766,340.8417969,472.9238281,339.8349609,475.3798828,339.8349609
			L475.3798828,339.8349609z M482.109375,344.0244141h-6.7294922c-1.2978516,0-2.4853516,0.5371094-3.3457031,1.3955078
			c-0.859375,0.8574219-1.3955078,2.0478516-1.3955078,3.34375v6.0986328c0,1.3007813,0.5361328,2.4873047,1.3955078,3.3457031
			c0.8574219,0.8623047,2.0429688,1.3945313,3.3457031,1.3945313h6.7294922c1.3076172,0,2.4931641-0.5322266,3.3447266-1.3857422
			c0.8642578-0.8642578,1.3955078-2.046875,1.3955078-3.3544922v-6.0986328c0-1.3037109-0.53125-2.4921875-1.3857422-3.34375
			C484.5976563,344.5615234,483.4130859,344.0244141,482.109375,344.0244141z"/>
		<path fill-rule="evenodd" clip-rule="evenodd" fill="#6E645E" d="M482.9833984,368.0253906l0.0019531-0.0029297
			c1.4667969-0.8457031,1.9736328-2.7363281,1.1279297-4.2021484l-6.1601563-10.6699219
			c-0.8466797-1.4658203-2.7363281-1.9736328-4.2070313-1.125v0.0019531l-0.2177734,0.1367188
			c-0.4853516,0.2607422-0.9072266,0.6582031-1.2041016,1.1679688l-6.1572266,10.6650391
			c-0.8476563,1.4677734-0.3388672,3.359375,1.1289063,4.2070313l0,0c1.4648438,0.8457031,3.3603516,0.3378906,4.2050781-1.1279297
			l3.6884766-6.3896484l3.5908203,6.2128906C479.6259766,368.3642578,481.5185547,368.8730469,482.9833984,368.0253906z"/>
		<path fill-rule="evenodd" clip-rule="evenodd" fill="#6E645E" d="M481.5654297,318.8603516l0.0019531,0.0019531
			c0.9267578,1.4179688,0.5253906,3.3330078-0.8916016,4.2626953l-2.5751953,1.6855469l1.6865234,2.578125
			c0.9277344,1.4160156,0.5292969,3.3310547-0.8886719,4.2578125l-0.0029297,0.0019531
			c-1.4179688,0.9296875-3.3339844,0.5283203-4.2617188-0.8876953l-1.6845703-2.5761719l-2.578125,1.6855469
			c-1.4160156,0.9296875-3.3330078,0.5283203-4.2636719-0.8857422v-0.0058594
			c-0.9277344-1.4179688-0.5283203-3.3320313,0.8876953-4.2607422l2.5791016-1.6845703l-1.6855469-2.5800781
			c-0.9257813-1.4150391-0.5292969-3.3339844,0.8876953-4.2597656h0.0039063
			c1.4169922-0.9306641,3.3330078-0.5292969,4.2607422,0.8857422l1.6865234,2.5800781l2.5751953-1.6855469
			C478.7236328,317.0449219,480.6376953,317.4443359,481.5654297,318.8603516z"/>
		<path fill-rule="evenodd" clip-rule="evenodd" fill="#6E645E" d="M488.0761719,271.2177734v0.0029297
			c0.9257813,1.4160156,0.5283203,3.3310547-0.8876953,4.2597656l-2.5761719,1.6884766l1.6845703,2.5761719
			c0.9257813,1.4140625,0.5292969,3.3330078-0.8896484,4.2597656h-0.0029297
			c-1.4179688,0.9306641-3.3320313,0.5302734-4.2597656-0.8886719l-1.6865234-2.5771484l-2.5771484,1.6894531
			c-1.4179688,0.9248047-3.3349609,0.5253906-4.2626953-0.8896484l-0.0019531-0.0029297
			c-0.9267578-1.4179688-0.5283203-3.3349609,0.8916016-4.2607422l2.5771484-1.6855469l-1.6865234-2.5791016
			c-0.9277344-1.4179688-0.5273438-3.3339844,0.8896484-4.2617188l0.0019531-0.0009766
			c1.4160156-0.9277344,3.3320313-0.5283203,4.2597656,0.8896484l1.6865234,2.578125l2.578125-1.6894531
			C485.2294922,269.3994141,487.1474609,269.8007813,488.0761719,271.2177734z"/>
		<path fill-rule="evenodd" clip-rule="evenodd" fill="#FFF4DC" d="M568.6318359,143.2680664v78.3032227
			c0,14.0126953-11.4755859,25.4951172-25.4902344,25.4951172h-125.40625v-0.234375
			c25.5507813-3.4726563,22.0654297-29.1445313,22.0654297-47.1137695v-64.6425781
			c0-14.0229492,11.4736328-25.4956055,25.4931641-25.4956055H590.703125v0.234375
			c-12.4208984,1.6875-22.0712891,12.4052734-22.0712891,25.2612305V143.2680664z"/>
		<path display="none" fill-rule="evenodd" clip-rule="evenodd" fill="#99CC66" d="M-34.3647461,331.6728516H94.324707
			c8.7275391,0,15.871582,7.1416016,15.871582,15.8710938v20.9072266c0,8.7275391-7.144043,15.8720703-15.871582,15.8720703
			H-34.3647461c-8.7280273,0-15.8701172-7.1445313-15.8701172-15.8720703v-20.9072266
			C-50.2348633,338.8144531-43.0927734,331.6728516-34.3647461,331.6728516z"/>
		<path display="none" fill-rule="evenodd" clip-rule="evenodd" fill="#85B05A" d="M94.2324219,331.6728516h64.2915039
			c6.8217773,0,12.6713867,4.359375,14.9067383,10.4257813h-6.9990234c-5.2675781,0-9.5805664,4.3134766-9.5805664,9.5839844
			V364.3125c0,5.2685547,4.3129883,9.5810547,9.5805664,9.5810547h6.9990234
			c-2.2353516,6.0703125-8.0849609,10.4296875-14.9067383,10.4296875H94.2324219
			c-8.7314453,0-15.8725586-7.1445313-15.8725586-15.8720703v-20.9072266
			C78.3598633,338.8144531,85.5009766,331.6728516,94.2324219,331.6728516z"/>
		<path display="none" fill-rule="evenodd" clip-rule="evenodd" fill="#FFF4DC" d="M173.3598633,373.8935547H101.722168
			c-5.2700195,0-9.5805664-4.3125-9.5805664-9.5810547v-12.6298828c0-5.2705078,4.3105469-9.5839844,9.5805664-9.5839844h71.6376953
			c-5.2700195,0-9.5834961,4.3134766-9.5834961,9.5839844V364.3125
			C163.7763672,369.5810547,168.0898438,373.8935547,173.3598633,373.8935547z"/>
		<g display="none">
			<path display="inline" fill-rule="evenodd" clip-rule="evenodd" fill="#D4CAB0" d="M104.8271484,349.4335938h49.1000977
				c1.6083984,0,2.9238281,1.3134766,2.9238281,2.9228516v0.0019531c0,1.6064453-1.3154297,2.9228516-2.9238281,2.9228516
				h-49.1000977c-1.6074219,0-2.9213867-1.3164063-2.9213867-2.9228516v-0.0019531
				C101.9057617,350.7470703,103.2197266,349.4335938,104.8271484,349.4335938z"/>
			<path display="inline" fill-rule="evenodd" clip-rule="evenodd" fill="#D4CAB0" d="M104.8271484,360.7109375h49.1000977
				c1.6083984,0,2.9238281,1.3164063,2.9238281,2.9228516l0,0c0,1.6103516-1.3154297,2.9238281-2.9238281,2.9238281h-49.1000977
				c-1.6074219,0-2.9213867-1.3134766-2.9213867-2.9238281l0,0
				C101.9057617,362.0273438,103.2197266,360.7109375,104.8271484,360.7109375z"/>
		</g>
		<path display="none" fill-rule="evenodd" clip-rule="evenodd" fill="#BDE892" d="M3.355957,347.9521484h30.4453125
			c5.8081055,0,10.5615234,4.75,10.5615234,10.5605469l0,0c0,5.8085938-4.753418,10.5673828-10.5615234,10.5673828H3.355957
			c-5.8051758,0-10.5615234-4.7587891-10.5615234-10.5673828l0,0
			C-7.2055664,352.7021484-2.4492188,347.9521484,3.355957,347.9521484z"/>
		<path display="none" fill-rule="evenodd" clip-rule="evenodd" fill="#BDE892" d="M54.6401367,347.9521484h0.0019531
			c1.4301758,0,2.5966797,1.1650391,2.5966797,2.5927734v15.9375c0,1.4287109-1.1665039,2.5976563-2.5966797,2.5976563h-0.0019531
			c-1.4291992,0-2.5961914-1.1689453-2.5961914-2.5976563v-15.9375
			C52.0439453,349.1171875,53.2109375,347.9521484,54.6401367,347.9521484z"/>
		<path fill-rule="evenodd" clip-rule="evenodd" fill="#EEE3C7" d="M538.2158203,134.6391602h6.7294922
			c2.4550781,0,4.6914063,1.0053711,6.3066406,2.6201172c1.6162109,1.6264648,2.6210938,3.859375,2.6210938,6.3100586v6.0976563
			c0,2.4477539-1.0048828,4.6791992-2.6210938,6.2998047c-1.6279297,1.6269531-3.8623047,2.6293945-6.3066406,2.6293945h-6.7294922
			c-2.4511719,0-4.6845703-1.0053711-6.3046875-2.6240234c-1.6201172-1.6118164-2.6259766-3.8457031-2.6259766-6.3051758v-6.0976563
			c0-2.4575195,1.0058594-4.6923828,2.6191406-6.3100586C533.5214844,135.6445313,535.7578125,134.6391602,538.2158203,134.6391602
			L538.2158203,134.6391602z M544.9453125,138.828125h-6.7294922c-1.3007813,0-2.4882813,0.5375977-3.3476563,1.3950195
			c-0.8564453,0.8583984-1.3935547,2.0473633-1.3935547,3.3461914v6.0976563c0,1.3007813,0.5371094,2.4868164,1.3935547,3.347168
			s2.0400391,1.3950195,3.3476563,1.3950195h6.7294922c1.3046875,0,2.4902344-0.534668,3.3417969-1.3881836
			c0.8642578-0.8637695,1.3964844-2.0463867,1.3964844-3.3540039v-6.0976563c0-1.3066406-0.5322266-2.4907227-1.3867188-3.3461914
			C547.4306641,139.3657227,546.2460938,138.828125,544.9453125,138.828125z"/>
		<path fill-rule="evenodd" clip-rule="evenodd" fill="#EEE3C7" d="M538.2158203,166.6069336h6.7294922
			c2.4550781,0,4.6914063,1.0048828,6.3066406,2.621582c1.6162109,1.6235352,2.6210938,3.8588867,2.6210938,6.309082v6.0966797
			c0,2.4462891-1.0048828,4.6787109-2.6210938,6.3007813c-1.6279297,1.6254883-3.8623047,2.6293945-6.3066406,2.6293945h-6.7294922
			c-2.4511719,0-4.6845703-1.0063477-6.3046875-2.6259766c-1.6201172-1.6113281-2.6259766-3.8452148-2.6259766-6.3041992v-6.0966797
			c0-2.4584961,1.0058594-4.6953125,2.6191406-6.309082C533.5214844,167.6118164,535.7578125,166.6069336,538.2158203,166.6069336
			L538.2158203,166.6069336z M544.9453125,170.796875h-6.7294922c-1.3007813,0-2.4882813,0.5341797-3.3476563,1.3935547
			c-0.8564453,0.8583984-1.3935547,2.0449219-1.3935547,3.347168v6.0966797c0,1.3012695,0.5371094,2.4868164,1.3935547,3.3442383
			c0.8564453,0.8642578,2.0400391,1.3945313,3.3476563,1.3945313h6.7294922c1.3046875,0,2.4902344-0.5302734,3.3417969-1.3857422
			c0.8642578-0.8618164,1.3964844-2.0463867,1.3964844-3.3530273v-6.0966797c0-1.3071289-0.5322266-2.4931641-1.3867188-3.347168
			C547.4306641,171.3310547,546.2460938,170.796875,544.9453125,170.796875z"/>
		<path fill-rule="evenodd" clip-rule="evenodd" fill="#EEE3C7" d="M538.2158203,201.6010742h6.7294922
			c2.4550781,0,4.6914063,1.0058594,6.3066406,2.6210938c1.6162109,1.6240234,2.6210938,3.8588867,2.6210938,6.3061523v6.1005859
			c0,2.4472656-1.0048828,4.6777344-2.6210938,6.3007813c-1.6279297,1.6230469-3.8623047,2.6269531-6.3066406,2.6269531h-6.7294922
			c-2.4511719,0-4.6845703-1.0058594-6.3046875-2.6230469c-1.6201172-1.6132813-2.6259766-3.8496094-2.6259766-6.3046875v-6.1005859
			c0-2.4541016,1.0058594-4.6899414,2.6191406-6.3061523C533.5214844,202.6069336,535.7578125,201.6010742,538.2158203,201.6010742
			L538.2158203,201.6010742z M544.9453125,205.7885742h-6.7294922c-1.3007813,0-2.4882813,0.5380859-3.3476563,1.3969727
			c-0.8564453,0.8569336-1.3935547,2.0444336-1.3935547,3.3427734v6.1005859c0,1.3007813,0.5371094,2.4853516,1.3935547,3.3457031
			c0.8564453,0.8613281,2.0400391,1.3945313,3.3476563,1.3945313h6.7294922c1.3046875,0,2.4902344-0.5332031,3.3417969-1.3867188
			c0.8642578-0.8632813,1.3964844-2.046875,1.3964844-3.3535156v-6.1005859c0-1.3032227-0.5322266-2.4887695-1.3867188-3.3427734
			C547.4306641,206.3266602,546.2460938,205.7885742,544.9453125,205.7885742z"/>
		<path fill-rule="evenodd" clip-rule="evenodd" fill="#EEE3C7" d="M545.8183594,229.7919922l0.0029297-0.0029297
			c1.4667969-0.8476563,1.9707031-2.7363281,1.125-4.203125l-6.1572266-10.6674805
			c-0.8457031-1.4672852-2.7392578-1.9755859-4.2070313-1.1279297v0.0014648l-0.2177734,0.1391602
			c-0.4873047,0.2626953-0.9111328,0.6547852-1.2041016,1.1665039l-6.1582031,10.6679688
			c-0.8486328,1.4638672-0.3408203,3.359375,1.1269531,4.2050781l0,0c1.4648438,0.8457031,3.3574219,0.3398438,4.2070313-1.1269531
			l3.6884766-6.3925781l3.5898438,6.2128906C542.4609375,230.1308594,544.3525391,230.640625,545.8183594,229.7919922z"/>
		<path fill-rule="evenodd" clip-rule="evenodd" fill="#EEE3C7" d="M549.4257813,194.2861328L549.4257813,194.2861328
			c1.4648438-0.8476563,1.9726563-2.7392578,1.1289063-4.2060547l-6.1640625-10.6689453
			c-0.8447266-1.4663086-2.7363281-1.9731445-4.2011719-1.1259766l-0.0029297,0.0024414l-0.2177734,0.1381836
			c-0.484375,0.2612305-0.9072266,0.6572266-1.2041016,1.1669922l-6.1611328,10.6660156
			c-0.84375,1.4677734-0.3359375,3.359375,1.1328125,4.2060547l0,0c1.4619141,0.8466797,3.3574219,0.340332,4.2050781-1.128418
			l3.6875-6.3901367l3.5898438,6.2133789C546.0664063,194.6254883,547.9570313,195.1318359,549.4257813,194.2861328z"/>
		<path fill-rule="evenodd" clip-rule="evenodd" fill="#EEE3C7" d="M546.6074219,161.4916992l0.0039063-0.0009766
			c1.4648438-0.8461914,1.9726563-2.7373047,1.1279297-4.2036133l-6.1611328-10.6674805
			c-0.8457031-1.4672852-2.734375-1.9741211-4.2060547-1.1264648l0,0l-0.21875,0.1381836
			c-0.484375,0.2631836-0.90625,0.6567383-1.2021484,1.1674805l-6.1582031,10.6665039
			c-0.8476563,1.4667969-0.3378906,3.359375,1.1289063,4.2070313l0,0c1.4638672,0.8466797,3.3603516,0.340332,4.2060547-1.1279297
			l3.6904297-6.3925781l3.5859375,6.2148438C543.2529297,161.8344727,545.1445313,162.3408203,546.6074219,161.4916992z"/>
		<path fill-rule="evenodd" clip-rule="evenodd" fill="#EEE3C7" d="M514.5146484,180.3842773h-5.4199219
			c-1.6132813,0-2.9296875,1.3168945-2.9296875,2.9296875v0.0024414c0,1.612793,1.3164063,2.9267578,2.9296875,2.9267578h5.4199219
			c1.6103516,0,2.9277344-1.3139648,2.9277344-2.9267578v-0.0024414
			C517.4423828,181.7011719,516.125,180.3842773,514.5146484,180.3842773z"/>
		<path fill-rule="evenodd" clip-rule="evenodd" fill="#EEE3C7" d="M514.5146484,203.8164063h-13.3242188
			c-1.609375,0-2.9277344,1.3154297-2.9277344,2.9301758l0,0c0,1.6137695,1.3183594,2.9301758,2.9277344,2.9301758h13.3242188
			c1.6103516,0,2.9277344-1.3164063,2.9277344-2.9301758l0,0C517.4423828,205.1318359,516.125,203.8164063,514.5146484,203.8164063z
			"/>
		<path fill-rule="evenodd" clip-rule="evenodd" fill="#EEE3C7" d="M514.5146484,145.2368164h-57.5400391
			c-1.6132813,0-2.9296875,1.3168945-2.9296875,2.9291992v0.0009766c0,1.6142578,1.3164063,2.9306641,2.9296875,2.9306641
			h57.5400391c1.6103516,0,2.9277344-1.3164063,2.9277344-2.9306641v-0.0009766
			C517.4423828,146.5537109,516.125,145.2368164,514.5146484,145.2368164z"/>
		<path fill-rule="evenodd" clip-rule="evenodd" fill="#EEE3C7" d="M514.5146484,156.9541016h-57.5400391
			c-1.6132813,0-2.9296875,1.3144531-2.9296875,2.9291992v0.0009766c0,1.612793,1.3164063,2.9282227,2.9296875,2.9282227h57.5400391
			c1.6103516,0,2.9277344-1.3154297,2.9277344-2.9282227v-0.0009766
			C517.4423828,158.2685547,516.125,156.9541016,514.5146484,156.9541016z"/>
		<path fill-rule="evenodd" clip-rule="evenodd" fill="#EEE3C7" d="M514.5146484,168.6704102h-19.6767578
			c-1.6142578,0-2.9316406,1.3144531-2.9316406,2.9287109v0.0004883c0,1.6123047,1.3173828,2.9287109,2.9316406,2.9287109
			h19.6767578c1.6103516,0,2.9277344-1.3164063,2.9277344-2.9287109v-0.0004883
			C517.4423828,169.9848633,516.125,168.6704102,514.5146484,168.6704102z"/>
		<path fill-rule="evenodd" clip-rule="evenodd" fill="#EEE3C7" d="M514.5146484,219.6240234h-51.5
			c-1.6142578,0-2.9287109,1.3154297-2.9287109,2.9287109v0.0009766c0,1.6142578,1.3144531,2.9267578,2.9287109,2.9267578h51.5
			c1.6103516,0,2.9277344-1.3125,2.9277344-2.9267578v-0.0009766
			C517.4423828,220.9394531,516.125,219.6240234,514.5146484,219.6240234z"/>
		
			<ellipse transform="matrix(-0.6558294 -0.7549092 0.7549092 -0.6558294 -17.2467346 507.5735779)" fill-rule="evenodd" clip-rule="evenodd" fill="#D60346" cx="107.0805664" cy="257.7182617" rx="44.1957397" ry="20.933979"/>
		<path fill-rule="evenodd" clip-rule="evenodd" fill="#FFFDF7" d="M256.8608398,171.2871094L256.8608398,171.2871094
			c1.9213867,0,3.4936523,1.5712891,3.4936523,3.4912109v3.7919922c0,1.9204102-1.5722656,3.4912109-3.4936523,3.4912109l0,0
			c-1.9228516,0-3.4926758-1.5708008-3.4926758-3.4912109v-3.7919922
			C253.3681641,172.8583984,254.9379883,171.2871094,256.8608398,171.2871094z"/>
		<path fill-rule="evenodd" clip-rule="evenodd" fill="#FFFDF7" d="M256.8608398,185.2958984h0.003418
			c2.9355469,0,5.3369141,2.4018555,5.3369141,5.3369141v5.8007813c0,2.9345703-2.4013672,5.3354492-5.3369141,5.3354492h-0.003418
			c-2.9355469,0-5.3359375-2.4008789-5.3359375-5.3354492v-5.8007813
			C251.5249023,187.6977539,253.925293,185.2958984,256.8608398,185.2958984z"/>
		<path fill-rule="evenodd" clip-rule="evenodd" fill="#6E645E" d="M313.5356445,359.0185547
			c1.1069336,0,2.0068359-0.9033203,2.0068359-2.0078125s-0.8999023-2.0048828-2.0068359-2.0048828
			c-1.1040039,0-2.0039063,0.9003906-2.0039063,2.0048828S312.4316406,359.0185547,313.5356445,359.0185547z"/>
		<path fill-rule="evenodd" clip-rule="evenodd" fill="#C4E6E0" d="M583.8632813,67.1577148h5.6123047
			c2.0517578,0,3.9160156,0.840332,5.2636719,2.1865234c1.3505859,1.3569336,2.1875,3.2207031,2.1875,5.2636719v5.0869141
			c0,2.0424805-0.8369141,3.9042969-2.1875,5.2592773c-1.3583984,1.3530273-3.2207031,2.1914063-5.2636719,2.1914063h-5.6123047
			c-2.0449219,0-3.9082031-0.8383789-5.2617188-2.1894531c-1.3505859-1.3457031-2.1894531-3.2099609-2.1894531-5.2612305v-5.0869141
			c0-2.0507813,0.8388672-3.9155273,2.1875-5.2636719C579.9482422,67.9980469,581.8144531,67.1577148,583.8632813,67.1577148
			L583.8632813,67.1577148z M589.4755859,70.652832h-5.6123047c-1.0839844,0-2.0732422,0.4472656-2.7910156,1.1640625
			c-0.7148438,0.7163086-1.1669922,1.706543-1.1669922,2.7910156v5.0869141c0,1.0854492,0.4521484,2.0756836,1.1669922,2.7919922
			c0.7119141,0.7202148,1.7011719,1.1645508,2.7910156,1.1645508h5.6123047c1.0917969,0,2.0800781-0.4443359,2.7949219-1.1572266
			c0.71875-0.7202148,1.1591797-1.7094727,1.1591797-2.7993164v-5.0869141c0-1.0883789-0.4404297-2.0776367-1.1523438-2.7910156
			C591.5507813,71.1000977,590.5605469,70.652832,589.4755859,70.652832z"/>
		<path fill-rule="evenodd" clip-rule="evenodd" fill="#C4E6E0" d="M590.2060547,90.6772461l0.0029297-0.0004883
			c1.2226563-0.7075195,1.6445313-2.2851563,0.9394531-3.5068359l-5.1396484-8.9023438
			c-0.7060547-1.2226563-2.2841797-1.6455078-3.5058594-0.9384766l-0.0009766,0.0004883l-0.1835938,0.1157227
			c-0.4082031,0.2192383-0.7587891,0.5473633-1.0058594,0.9746094l-5.1347656,8.8979492
			c-0.7099609,1.2241211-0.2851563,2.8046875,0.9375,3.5097656l0,0c1.2246094,0.706543,2.8027344,0.2836914,3.5107422-0.9404297
			l3.078125-5.3320313l2.9941406,5.1835938C587.4033203,90.9609375,588.9824219,91.3837891,590.2060547,90.6772461z"/>
		<path fill-rule="evenodd" clip-rule="evenodd" fill="#C4E6E0" d="M558.2363281,50.0498047h-34.2402344
			c-1.6152344,0-2.9296875,1.3134766-2.9296875,2.9277344v0.0004883c0,1.6132813,1.3144531,2.9296875,2.9296875,2.9296875
			h34.2402344c1.6152344,0,2.9296875-1.3164063,2.9296875-2.9296875v-0.0004883
			C561.1660156,51.3632813,559.8515625,50.0498047,558.2363281,50.0498047z"/>
		<path fill-rule="evenodd" clip-rule="evenodd" fill="#C4E6E0" d="M558.2363281,67.9057617h-34.2402344
			c-1.6152344,0-2.9296875,1.3168945-2.9296875,2.9296875l0,0c0,1.6142578,1.3144531,2.9291992,2.9296875,2.9291992h34.2402344
			c1.6152344,0,2.9296875-1.3149414,2.9296875-2.9291992l0,0C561.1660156,69.2226563,559.8515625,67.9057617,558.2363281,67.9057617
			z"/>
		<path fill-rule="evenodd" clip-rule="evenodd" fill="#C4E6E0" d="M538.1884766,79.3007813h-14.1923828
			c-1.6132813,0-2.9296875,1.3154297-2.9296875,2.9277344v0.0014648c0,1.6118164,1.3164063,2.9291992,2.9296875,2.9291992
			h14.1923828c1.6132813,0,2.9267578-1.3173828,2.9267578-2.9291992v-0.0014648
			C541.1152344,80.6162109,539.8017578,79.3007813,538.1884766,79.3007813z"/>
		<path fill-rule="evenodd" clip-rule="evenodd" fill="#C4E6E0" d="M550.7841797,79.3007813h-4.1660156
			c-1.6132813,0-2.9306641,1.3154297-2.9306641,2.9277344v0.0014648c0,1.6118164,1.3173828,2.9291992,2.9306641,2.9291992h4.1660156
			c1.6113281,0,2.9277344-1.3173828,2.9277344-2.9291992v-0.0014648
			C553.7119141,80.6162109,552.3955078,79.3007813,550.7841797,79.3007813z"/>
		<path display="none" fill-rule="evenodd" clip-rule="evenodd" fill="#D6F3ED" d="M436.2255859-92.737793
			c45.5253906,0,74.6962891,36.90625,65.1533203,82.4335938c-9.5439453,45.5253906-54.1845703,82.4326172-99.7128906,82.4326172
			c-45.5253906,0-74.6953125-36.9072266-65.1542969-82.4326172C346.0566406-55.831543,390.6982422-92.737793,436.2255859-92.737793z
			"/>
		<path display="none" fill-rule="evenodd" clip-rule="evenodd" fill="#FFFDF7" d="M433.4023438-79.2636719
			c38.0830078,0,62.4853516,30.8735352,54.5019531,68.9594727c-7.9814453,38.0849609-45.328125,68.9594727-83.4121094,68.9594727
			c-38.0859375,0-62.4892578-30.8745117-54.5058594-68.9594727C357.96875-48.3901367,395.3144531-79.2636719,433.4023438-79.2636719
			z"/>
		<path display="none" fill-rule="evenodd" clip-rule="evenodd" fill="#C4E6E0" d="M430.1738281-79.2636719
			c1.1464844,0,2.2841797,0.0288086,3.4023438,0.0859375c-36.8564453,1.8007813-72.203125,31.9453125-79.9453125,68.8735352
			c-7.7363281,36.9277344,14.96875,67.0712891,51.0722656,68.8730469c-1.1445313,0.0576172-2.2929688,0.0864258-3.4414063,0.0864258
			c-38.0839844,0-62.4882813-30.8745117-54.5019531-68.9594727
			C354.7402344-48.3901367,392.0878906-79.2636719,430.1738281-79.2636719z"/>
		<path display="none" fill-rule="evenodd" clip-rule="evenodd" fill="#D6F3ED" d="M369.8632813,3.6459961l-0.0019531-0.0014648
			c-0.7128906-1.4599609,0.0048828-3.0234375,1.5898438-3.4755859l43.3046875-12.3183594
			c1.5888672-0.4516602,3.4667969,0.3720703,4.1787109,1.8349609v0.0004883
			c0.7119141,1.4584961-0.0019531,3.0234375-1.5898438,3.4750977L374.0390625,5.4785156
			C372.453125,5.9301758,370.5742188,5.1054688,369.8632813,3.6459961z"/>
		<g display="none">
			<path display="inline" fill-rule="evenodd" clip-rule="evenodd" fill="#C4E6E0" d="M409.3671875,35.3818359h0.0039063
				c2.0732422,0,3.4082031,1.6923828,2.9736328,3.7646484l-1.7431641,8.3227539
				c-0.4345703,2.0717773-2.4814453,3.7641602-4.5517578,3.7641602h-0.0058594c-2.0673828,0-3.40625-1.6923828-2.9716797-3.7641602
				l1.7421875-8.3227539C405.2519531,37.0742188,407.2998047,35.3818359,409.3671875,35.3818359z"/>
		</g>
		<g display="none">
			<path display="inline" fill-rule="evenodd" clip-rule="evenodd" fill="#C4E6E0" d="M379.8125,21.9736328v0.0024414
				c1.1572266,1.4648438,0.9257813,3.6328125-0.5097656,4.8232422l-8.3300781,6.8837891
				c-1.4375,1.190918-3.5605469,0.9663086-4.71875-0.4985352v-0.0014648
				c-1.1582031-1.4633789-0.9277344-3.6333008,0.5117188-4.8227539l8.3261719-6.8852539
				C376.5332031,20.2861328,378.65625,20.5107422,379.8125,21.9736328z"/>
		</g>
		<g display="none">
			<path display="inline" fill-rule="evenodd" clip-rule="evenodd" fill="#C4E6E0" d="M453.4082031,33.1845703H453.40625
				c-1.7724609,1.4648438-4.3837891,1.1870117-5.8095703-0.6157227l-3.6757813-4.6533203
				c-1.4287109-1.8022461-1.1425781-4.4746094,0.6269531-5.9384766l0.0019531-0.0009766
				c1.7714844-1.465332,4.3857422-1.1879883,5.8095703,0.6157227l3.6787109,4.6523438
				C455.4628906,29.0483398,455.1806641,31.7197266,453.4082031,33.1845703z"/>
		</g>
		<path display="none" fill-rule="evenodd" clip-rule="evenodd" fill="#D6F3ED" d="M432.7519531-56.7456055
			c19.1914063,0,29.5693359,18.1782227,23.1748047,40.6040039c-6.3964844,22.4272461-27.1425781,40.605957-46.3388672,40.605957
			c-17.7509766,0-27.9589844-15.5517578-24.3359375-35.6269531c-2.2929688,17.1499023,6.8125,30.1772461,22.2392578,30.1772461
			c17.296875,0,35.9960938-16.3862305,41.7607422-36.5966797c5.7646484-20.2124023-3.5859375-36.5966797-20.8886719-36.5966797
			c-8.1806641,0-16.6728516,3.6645508-23.9628906,9.6650391C412.8623047-52.0620117,423.0058594-56.7456055,432.7519531-56.7456055z
			"/>
		<path fill-rule="evenodd" clip-rule="evenodd" fill="#EEE2BE" d="M339.0673828,411.5292969v63.7783203
			c0,11.4199219-9.3505859,20.7714844-20.7646484,20.7714844H194.8974609v-0.1933594
			c20.8154297-2.8310547,17.9736328-23.7382813,17.9736328-38.3759766v-52.6552734
			c0-11.4228516,9.3452148-20.7646484,20.7661133-20.7646484h123.4038086v0.1865234
			c-10.1152344,1.3759766-17.9736328,10.1064453-17.9736328,20.578125V411.5292969z"/>
		<path fill-rule="evenodd" clip-rule="evenodd" fill="#D4CAB0" d="M246.074707,496.0791016h-51.1772461v-0.1933594
			c20.8154297-2.8310547,17.9736328-23.7382813,17.9736328-38.3759766v-52.6552734
			c0-11.4228516,9.3452148-20.7646484,20.7661133-20.7646484h51.1777344v0.1865234
			c-10.1152344,1.3759766-17.9731445,10.1064453-17.9731445,20.578125v6.6748047v63.7783203
			C266.8417969,486.7275391,257.4887695,496.0791016,246.074707,496.0791016z"/>
		<path fill-rule="evenodd" clip-rule="evenodd" fill="#FFF4DC" d="M244.8979492,417.7753906v78.3037109
			c0,14.0126953-11.4814453,25.4951172-25.4936523,25.4951172H67.9057617v-0.234375
			c25.5517578-3.4765625,22.0644531-29.1455078,22.0644531-47.1162109v-64.640625
			c0-14.0244141,11.4750977-25.4931641,25.496582-25.4931641h151.4995117v0.2324219
			c-12.4204102,1.6855469-22.0683594,12.40625-22.0683594,25.2607422V417.7753906z"/>
		<path fill-rule="evenodd" clip-rule="evenodd" fill="#EEE2BE" d="M206.6855469,402.6054688h6.7294922
			c2.4580078,0,4.6933594,1.0078125,6.309082,2.6220703c1.6142578,1.6259766,2.6206055,3.8564453,2.6206055,6.3076172v6.0986328
			c0,2.4472656-1.0029297,4.6767578-2.6206055,6.3007813c-1.6293945,1.6240234-3.8608398,2.6298828-6.309082,2.6298828h-6.7294922
			c-2.449707,0-4.6831055-1.0068359-6.3041992-2.6259766c-1.6210938-1.6142578-2.6269531-3.8476563-2.6269531-6.3046875v-6.0986328
			c0-2.4570313,1.0058594-4.6943359,2.621582-6.3076172C201.9931641,403.6132813,204.2285156,402.6054688,206.6855469,402.6054688
			L206.6855469,402.6054688z M213.4150391,406.7958984h-6.7294922c-1.2983398,0-2.4863281,0.5361328-3.3442383,1.3925781
			c-0.8608398,0.8623047-1.3959961,2.046875-1.3959961,3.3466797v6.0986328c0,1.2988281,0.5351563,2.4882813,1.3959961,3.34375
			c0.8530273,0.8623047,2.0400391,1.3955078,3.3442383,1.3955078h6.7294922c1.3046875,0,2.4907227-0.5332031,3.3447266-1.3876953
			c0.8642578-0.8613281,1.3969727-2.0458984,1.3969727-3.3515625v-6.0986328c0-1.3046875-0.5327148-2.4892578-1.3896484-3.3466797
			C215.9013672,407.3320313,214.7177734,406.7958984,213.4150391,406.7958984z"/>
		<path fill-rule="evenodd" clip-rule="evenodd" fill="#EEE2BE" d="M206.6855469,434.5732422h6.7294922
			c2.4580078,0,4.6933594,1.0048828,6.309082,2.6201172c1.6142578,1.6269531,2.6206055,3.8603516,2.6206055,6.3105469v6.0957031
			c0,2.4482422-1.0029297,4.6826172-2.6206055,6.3017578c-1.6293945,1.6210938-3.8608398,2.6279297-6.309082,2.6279297h-6.7294922
			c-2.449707,0-4.6831055-1.0068359-6.3041992-2.6259766c-1.6210938-1.609375-2.6269531-3.8457031-2.6269531-6.3037109v-6.0957031
			c0-2.4599609,1.0058594-4.6933594,2.621582-6.3105469C201.9931641,435.578125,204.2285156,434.5732422,206.6855469,434.5732422
			L206.6855469,434.5732422z M213.4150391,438.7597656h-6.7294922c-1.2983398,0-2.4863281,0.5380859-3.3442383,1.3974609
			c-0.8608398,0.8583984-1.3959961,2.0458984-1.3959961,3.3466797v6.0957031c0,1.3007813,0.5351563,2.4873047,1.3959961,3.3447266
			c0.8530273,0.8642578,2.0400391,1.3945313,3.3442383,1.3945313h6.7294922c1.3046875,0,2.4907227-0.5302734,3.3447266-1.3857422
			c0.8642578-0.8642578,1.3969727-2.046875,1.3969727-3.3535156v-6.0957031c0-1.3066406-0.5327148-2.4921875-1.3896484-3.3466797
			C215.9013672,439.2978516,214.7177734,438.7597656,213.4150391,438.7597656z"/>
		<path fill-rule="evenodd" clip-rule="evenodd" fill="#EEE2BE" d="M110.2734375,451.3554688h24.9785156
			c2.2890625,0,4.1616211,1.8730469,4.1616211,4.1572266v0.0019531c0,2.2880859-1.8725586,4.1611328-4.1616211,4.1611328
			h-24.9785156c-2.2885742,0-4.1601563-1.8730469-4.1601563-4.1611328v-0.0019531
			C106.1132813,453.2285156,107.9848633,451.3554688,110.2734375,451.3554688z"/>
		<path fill-rule="evenodd" clip-rule="evenodd" fill="#EEE2BE" d="M110.2734375,438.7294922h59.1567383
			c2.2900391,0,4.1616211,1.8720703,4.1616211,4.1611328l0,0c0,2.2910156-1.871582,4.1640625-4.1616211,4.1640625h-59.1567383
			c-2.2856445,0-4.1601563-1.8730469-4.1601563-4.1640625l0,0
			C106.1132813,440.6015625,107.987793,438.7294922,110.2734375,438.7294922z"/>
		<path fill-rule="evenodd" clip-rule="evenodd" fill="#EEE2BE" d="M110.2734375,412.25h24.9785156
			c2.2890625,0,4.1616211,1.8720703,4.1616211,4.1621094v0.0009766c0,2.2900391-1.8725586,4.1621094-4.1616211,4.1621094
			h-24.9785156c-2.2885742,0-4.1601563-1.8720703-4.1601563-4.1621094v-0.0009766
			C106.1132813,414.1220703,107.9848633,412.25,110.2734375,412.25z"/>
		<path fill-rule="evenodd" clip-rule="evenodd" fill="#EEE2BE" d="M110.2734375,399.6289063h33.2919922
			c2.2875977,0,4.1582031,1.8730469,4.1582031,4.15625v0.0068359c0,2.2841797-1.8706055,4.1572266-4.1582031,4.1572266h-33.2919922
			c-2.2885742,0-4.1601563-1.8730469-4.1601563-4.1572266v-0.0068359
			C106.1132813,401.5019531,107.9848633,399.6289063,110.2734375,399.6289063z"/>
		<path fill-rule="evenodd" clip-rule="evenodd" fill="#EEE2BE" d="M155.4023438,399.6289063h12.4887695
			c2.2856445,0,4.1586914,1.8730469,4.1586914,4.15625v0.0068359c0,2.2841797-1.8730469,4.1572266-4.1586914,4.1572266h-12.4887695
			c-2.2866211,0-4.1582031-1.8730469-4.1582031-4.1572266v-0.0068359
			C151.2441406,401.5019531,153.1157227,399.6289063,155.4023438,399.6289063z"/>
		<path fill-rule="evenodd" clip-rule="evenodd" fill="#EEE2BE" d="M147.5507813,412.25h24.9794922
			c2.2885742,0,4.1606445,1.8720703,4.1606445,4.1621094v0.0009766c0,2.2900391-1.8720703,4.1621094-4.1606445,4.1621094
			h-24.9794922c-2.2875977,0-4.1606445-1.8720703-4.1606445-4.1621094v-0.0009766
			C143.3901367,414.1220703,145.2631836,412.25,147.5507813,412.25z"/>
		<path fill-rule="evenodd" clip-rule="evenodd" fill="#FFFDF7" d="M325.0009766,266.1591797h1.2250977
			c1.1333008,0,2.0610352,0.9267578,2.0610352,2.0634766l0,0c0,1.1347656-0.9277344,2.0625-2.0610352,2.0625h-1.2250977
			c-1.1347656,0-2.0629883-0.9277344-2.0629883-2.0625l0,0
			C322.9379883,267.0859375,323.8662109,266.1591797,325.0009766,266.1591797z"/>
		<path fill-rule="evenodd" clip-rule="evenodd" fill="#FFFDF7" d="M320.0942383,263.3183594h0.6132813
			c0.5678711,0,1.0317383,0.4609375,1.0317383,1.0292969v0.0019531c0,0.5664063-0.4638672,1.0302734-1.0317383,1.0302734h-0.6132813
			c-0.5664063,0-1.0297852-0.4638672-1.0297852-1.0302734v-0.0019531
			C319.0644531,263.7792969,319.527832,263.3183594,320.0942383,263.3183594z"/>
		<path fill-rule="evenodd" clip-rule="evenodd" fill="#FFFDF7" d="M349.2998047,254.9140625
			c1.6025391,0,2.9111328-1.3085938,2.9111328-2.9121094s-1.3085938-2.9101563-2.9111328-2.9101563
			c-1.6054688,0-2.9111328,1.3066406-2.9111328,2.9101563S347.6943359,254.9140625,349.2998047,254.9140625z"/>
		<path fill-rule="evenodd" clip-rule="evenodd" fill="#FFFDF7" d="M357.6035156,244.0117188
			c0.9179688,0,1.3046875,0.7402344,0.8603516,1.6591797c-0.4423828,0.9179688-1.5439453,1.6601563-2.4638672,1.6601563
			c-0.9169922,0-1.3027344-0.7421875-0.8583984-1.6601563C355.5839844,244.7519531,356.6875,244.0117188,357.6035156,244.0117188z"
			/>
		<path fill-rule="evenodd" clip-rule="evenodd" fill="#FFFDF7" d="M366.2148438,221.34375
			c0.8955078,0,1.4267578,0.7236328,1.1884766,1.6191406c-0.2431641,0.8964844-1.1621094,1.6210938-2.0585938,1.6210938
			c-0.8955078,0-1.4287109-0.7246094-1.1845703-1.6210938C364.4003906,222.0673828,365.3183594,221.34375,366.2148438,221.34375z"/>
		<path fill-rule="evenodd" clip-rule="evenodd" fill="#FFFDF7" d="M320.1772461,352.3417969
			c16.0825195,12.4716797,19.9106445,21.5947266,7.7241211,21.5947266c-14.7524414,0-47.3808594-13.3642578-72.8779297-29.8525391
			c-9.1166992-5.8955078-16.0878906-11.3876953-20.6069336-16.0166016c3.3837891,2.6210938,7.3041992,5.390625,11.7358398,8.2558594
			c25.4990234,16.4882813,58.1254883,29.8515625,72.875,29.8515625
			C328.5019531,366.1748047,328.296875,360.6591797,320.1772461,352.3417969z"/>
		<path fill-rule="evenodd" clip-rule="evenodd" fill="#FFFDF7" d="M233.3110352,268.7226563
			c24.2373047,27.7617188,27.8671875,45.3056641,6.2084961,41.0644531
			c-26.2148438-5.1357422-79.5463867-40.2460938-119.1181641-78.4169922
			c-14.1503906-13.6523438-19.9384766-23.5146484-13.0639648-16.8842773
			c39.5722656,38.1743164,92.9047852,73.2827148,119.1186523,78.418457
			C243.2929688,296.203125,244.8496094,286.328125,233.3110352,268.7226563z"/>
	</g>
</g>
</svg>
