<?xml version="1.0" encoding="utf-8"?>
<!-- Generator: Adobe Illustrator 16.0.0, SVG Export Plug-In . SVG Version: 6.00 Build 0)  -->
<!DOCTYPE svg PUBLIC "-//W3C//DTD SVG 1.1//EN" "http://www.w3.org/Graphics/SVG/1.1/DTD/svg11.dtd">
<svg version="1.1" id="Layer_1" xmlns="http://www.w3.org/2000/svg" xmlns:xlink="http://www.w3.org/1999/xlink" x="0px" y="0px"
	 width="14px" height="14px" viewBox="0 0 14 14" enable-background="new 0 0 14 14" xml:space="preserve">
<path id="Search_Icon" fill="#CCCCCC" d="M13.671875,12.0888672l-2.9199219-2.9199219
	c0.6367188-0.9394531,1.0078125-2.0712891,1.0078125-3.2885742C11.7597656,2.6381836,9.1230469,0,5.8803711,0
	C2.637207,0,0,2.6381836,0,5.8803711c0,3.2416992,2.637207,5.8803711,5.8803711,5.8803711
	c1.2172852,0,2.3500977-0.3720703,3.2895508-1.0078125l2.9179688,2.9189453C12.3066406,13.8916016,12.59375,14,12.8808594,14
	c0.2851563,0,0.5722656-0.1083984,0.7910156-0.328125C14.109375,13.2353516,14.109375,12.5263672,13.671875,12.0888672z
	 M2.2397461,5.8803711c0-2.0083008,1.6333008-3.6396484,3.640625-3.6396484c2.0058594,0,3.6391602,1.6313477,3.6391602,3.6396484
	c0,0.9951172-0.4023438,1.8959961-1.0507813,2.5541992C8.4609375,8.4404297,8.453125,8.4423828,8.4472656,8.4482422
	C8.4433594,8.453125,8.4414063,8.4619141,8.4355469,8.4677734C7.7768555,9.1171875,6.8754883,9.5205078,5.8803711,9.5205078
	C3.8730469,9.5205078,2.2397461,7.8867188,2.2397461,5.8803711z"/>
</svg>
