<?xml version="1.0" encoding="utf-8"?>
<!-- Generator: Adobe Illustrator 16.0.0, SVG Export Plug-In . SVG Version: 6.00 Build 0)  -->
<!DOCTYPE svg PUBLIC "-//W3C//DTD SVG 1.1//EN" "http://www.w3.org/Graphics/SVG/1.1/DTD/svg11.dtd">
<svg version="1.1" id="Layer_1" xmlns="http://www.w3.org/2000/svg" xmlns:xlink="http://www.w3.org/1999/xlink" x="0px" y="0px"
	 width="26px" height="26px" viewBox="0 0 26 26" enable-background="new 0 0 26 26" xml:space="preserve">
<g opacity="0.5">
	<path id="Search_Icon_5_" d="M24.359375,21.6289063l-4.9765625-4.9179688
		c1.0664063-1.5996094,1.6816406-3.5219727,1.6699219-5.5859375c-0.0351563-5.4956055-4.5332031-9.9404297-10.0249023-9.9052734
		c-5.4985352,0.0356445-9.940918,4.5351563-9.9052734,10.0332031c0.0375977,5.4990234,4.5361328,9.9404297,10.0341797,9.9052734
		c2.0605469-0.0117188,3.9760742-0.65625,5.5561523-1.7441406l4.9804688,4.9160156
		c0.3730469,0.3691406,0.859375,0.5488281,1.3476563,0.546875c0.484375-0.0019531,0.9667969-0.1914063,1.3359375-0.5644531
		C25.1152344,23.5664063,25.1074219,22.3632813,24.359375,21.6289063z M4.9204102,11.2285156
		C4.8974609,7.824707,7.6484375,5.0415039,11.0512695,5.0200195c3.4018555-0.0234375,6.1831055,2.7246094,6.2026367,6.1279297
		c0.0097656,1.6748047-0.6503906,3.1958008-1.7226563,4.3168945c-0.0195313,0.0175781-0.0410156,0.03125-0.0605469,0.046875
		c-0.015625,0.0214844-0.03125,0.0449219-0.0488281,0.0605469c-1.1054688,1.0957031-2.6196289,1.7753906-4.2919922,1.7851563
		C7.7294922,17.3789063,4.940918,14.6308594,4.9204102,11.2285156z"/>
	<path d="M23.0253906,25.4726563c-0.6621094,0-1.2832031-0.2558594-1.75-0.7207031l-4.6386719-4.578125
		c-1.6445313,1.0234375-3.5297852,1.5683594-5.4765625,1.578125c-5.8540039,0-10.5932617-4.7070313-10.6328125-10.4946289
		C0.5087891,8.4384766,1.5922852,5.7797852,3.5761719,3.7700195c1.9848633-2.0107422,4.6293945-3.1274414,7.4472656-3.1459961
		c5.8496094,0,10.5859375,4.7089844,10.625,10.4970703C21.6582031,13.0776367,21.140625,14.96875,20.140625,16.625
		l4.6386719,4.5800781c0.4726563,0.4648438,0.7363281,1.0878906,0.7421875,1.7539063
		c0.0039063,0.6679688-0.2519531,1.296875-0.7207031,1.7714844c-0.4667969,0.4746094-1.0917969,0.7382813-1.7578125,0.7421875
		H23.0253906z M16.78125,18.6464844l5.3320313,5.2597656c0.2441406,0.2421875,0.5664063,0.375,0.9121094,0.375v0.5957031
		l0.0097656-0.5957031c0.3496094-0.0019531,0.6738281-0.1386719,0.9179688-0.3867188
		c0.2460938-0.25,0.3808594-0.578125,0.3769531-0.9257813c-0.0019531-0.3476563-0.140625-0.671875-0.3867188-0.9140625
		l-5.328125-5.265625l0.2714844-0.4082031c1.0371094-1.5546875,1.5800781-3.3696289,1.5703125-5.2529297
		c-0.0332031-5.1342773-4.234375-9.3129883-9.3642578-9.3129883C8.5307617,1.831543,6.184082,2.8222656,4.4238281,4.605957
		c-1.7617188,1.7836914-2.722168,4.1435547-2.706543,6.6425781C1.7529297,16.3847656,5.9580078,20.5625,11.0917969,20.5625
		c1.9345703-0.0117188,3.7421875-0.578125,5.2871094-1.640625L16.78125,18.6464844z M11.1333008,17.953125
		c-3.7519531,0-6.7856445-3.0136719-6.8076172-6.7207031c-0.012207-1.8056641,0.6801758-3.5078125,1.9516602-4.7954102
		c1.2709961-1.2856445,2.9648438-2.0009766,4.7700195-2.012207H11.09375c3.7070313,0,6.734375,3.0146484,6.7558594,6.7202148
		c0.0097656,1.7705078-0.6621094,3.4506836-1.8925781,4.7319336l-0.0625,0.0585938
		C15.875,15.9609375,15.8554688,15.9804688,15.8339844,16C14.5761719,17.2480469,12.9047852,17.9414063,11.1333008,17.953125z
		 M11.09375,5.0200195l-0.0385742,0.5957031C9.5673828,5.625,8.171875,6.2138672,7.1240234,7.2739258
		C6.0766602,8.3344727,5.5058594,9.7373047,5.515625,11.2241211c0.0185547,3.0551758,2.519043,5.5375977,5.5737305,5.5375977
		c1.4956055-0.0078125,2.871582-0.5820313,3.9145508-1.6113281l0.140625-0.1386719
		c0.9726563-1.015625,1.5234375-2.4008789,1.5136719-3.8598633C16.640625,8.0986328,14.1464844,5.6157227,11.09375,5.6157227
		V5.0200195z"/>
</g>
</svg>
