<?xml version="1.0" encoding="utf-8"?>
<!-- Generator: Adobe Illustrator 16.0.0, SVG Export Plug-In . SVG Version: 6.00 Build 0)  -->
<!DOCTYPE svg PUBLIC "-//W3C//DTD SVG 1.1//EN" "http://www.w3.org/Graphics/SVG/1.1/DTD/svg11.dtd">
<svg version="1.1" id="Layer_1" xmlns="http://www.w3.org/2000/svg" xmlns:xlink="http://www.w3.org/1999/xlink" x="0px" y="0px"
	 width="36px" height="36px" viewBox="0 0 36 36" enable-background="new 0 0 36 36" xml:space="preserve">
<g id="Link_Icon_5_">
	<g>
		<path id="Link_Component_3_8_" fill="#D0DAE2" stroke="#D0DAE2" stroke-miterlimit="10" d="M18.5849609,21.4345703
			l-2.6015625,2.6015625l0,0l0,0c-1.0771484,1.0751953-2.8271484,1.0751953-3.9023438,0
			c-0.5224609-0.5205078-0.8095703-1.2138672-0.8095703-1.9501953c0-0.7373047,0.2871094-1.4316406,0.8095703-1.9521484l0,0
			l2.6015625-2.6005859c0.3583984-0.3613281,0.3583984-0.9443359,0-1.3027344c-0.3603516-0.359375-0.9414063-0.359375-1.3017578,0
			l-2.6005859,2.6015625v0.0009766c-0.8691406,0.8681641-1.3476563,2.0234375-1.3476563,3.2529297
			c0,1.2265625,0.4785156,2.3808594,1.3476563,3.2509766c0.8955078,0.8964844,2.0751953,1.3447266,3.2509766,1.3447266
			c1.1787109,0,2.3574219-0.4482422,3.2539063-1.3447266l0,0v-0.0009766l2.6005859-2.6025391
			c0.3603516-0.3574219,0.3603516-0.9404297,0-1.2988281C19.5263672,21.0742188,18.9433594,21.0742188,18.5849609,21.4345703z"/>
		<path id="Link_Component_2_8_" fill="#D0DAE2" stroke="#D0DAE2" stroke-miterlimit="10" d="M26.4365234,14.2783203
			c0-1.2285156-0.4785156-2.3818359-1.3476563-3.2509766c-1.7919922-1.7939453-4.7099609-1.7939453-6.5039063,0l0,0
			l-2.6015625,2.6015625c-0.3603516,0.359375-0.3603516,0.9414063,0,1.3007813
			c0.1787109,0.1787109,0.4150391,0.2705078,0.6503906,0.2705078c0.2363281,0,0.4707031-0.0917969,0.6513672-0.2705078
			l2.6005859-2.6015625c0,0,0,0,0-0.0009766c1.0771484-1.0742188,2.8271484-1.0742188,3.9023438,0
			c0.5224609,0.5214844,0.8095703,1.2148438,0.8095703,1.9511719c0,0.7373047-0.2871094,1.4296875-0.8095703,1.9521484l0,0
			l-2.6015625,2.6015625c-0.3583984,0.359375-0.3583984,0.9433594,0,1.3017578
			c0.1796875,0.1787109,0.4160156,0.2695313,0.6513672,0.2695313s0.4697266-0.0908203,0.6503906-0.2695313l2.6005859-2.6005859
			V17.53125C25.9580078,16.6630859,26.4365234,15.5068359,26.4365234,14.2783203z"/>
		<path id="Link_Component_1_8_" fill="#D0DAE2" stroke="#D0DAE2" stroke-miterlimit="10" d="M14.6826172,21.4345703
			c0.1777344,0.1796875,0.4140625,0.2695313,0.6503906,0.2695313c0.2353516,0,0.4716797-0.0898438,0.6503906-0.2695313
			l5.203125-5.2041016c0.3603516-0.359375,0.3603516-0.9414063,0-1.3007813c-0.3583984-0.359375-0.9404297-0.359375-1.3007813,0
			l-5.203125,5.2041016C14.3222656,20.4921875,14.3222656,21.0742188,14.6826172,21.4345703z"/>
	</g>
</g>
</svg>
