<?xml version="1.0" encoding="utf-8"?>
<!-- Generator: Adobe Illustrator 16.0.0, SVG Export Plug-In . SVG Version: 6.00 Build 0)  -->
<!DOCTYPE svg PUBLIC "-//W3C//DTD SVG 1.1//EN" "http://www.w3.org/Graphics/SVG/1.1/DTD/svg11.dtd">
<svg version="1.1" id="Layer_1" xmlns="http://www.w3.org/2000/svg" xmlns:xlink="http://www.w3.org/1999/xlink" x="0px" y="0px"
	 width="36px" height="36px" viewBox="0 0 36 36" enable-background="new 0 0 36 36" xml:space="preserve">
<rect x="6" y="6" display="none" fill="#FF5EF4" width="24" height="24"/>
<g id="Link_Icon_71_">
	<g>
		<g>
			<path id="Link_Component_3_8_" fill="#D1DAE8" d="M18.7817383,22.0712891l-3.206543,3.2060547l0,0l0,0
				c-1.3266602,1.3251953-3.4833984,1.3251953-4.8081055,0c-0.6445313-0.640625-0.9980469-1.4960938-0.9980469-2.4033203
				c0-0.9082031,0.3535156-1.7636719,0.9980469-2.4052734l0,0l3.2055664-3.2050781
				c0.4414063-0.4453125,0.4414063-1.1630859,0-1.6049805c-0.4448242-0.4428711-1.1601563-0.4428711-1.6040039,0
				l-3.2041016,3.2050781v0.0019531c-1.0712891,1.0698242-1.6606445,2.4926758-1.6606445,4.0083008
				c0,1.5117188,0.5893555,2.9335938,1.6606445,4.0058594c1.1030273,1.1044922,2.5566406,1.6572266,4.0058594,1.6572266
				c1.4511719,0,2.9042969-0.5527344,4.0087891-1.6572266l0,0v-0.0009766l3.2045898-3.2070313
				c0.4433594-0.4404297,0.4433594-1.1582031,0-1.6005859C19.9414063,21.6279297,19.2236328,21.6279297,18.7817383,22.0712891z"/>
			<path fill="#D1DAE8" d="M13.1704102,29.0605469c-1.6567383,0-3.2109375-0.6425781-4.3754883-1.8095703
				c-1.1708984-1.1728516-1.8154297-2.7255859-1.8154297-4.3769531c0-1.6552734,0.6445313-3.2109375,1.8154297-4.3789063
				l3.203125-3.2070313c0.6298828-0.6269531,1.7167969-0.6245117,2.3442383-0.0004883
				c0.6445313,0.644043,0.6455078,1.6962891,0.0009766,2.3452148l-3.206543,3.2060547
				c-0.543457,0.5429688-0.8432617,1.2646484-0.8432617,2.0351563s0.2998047,1.4912109,0.8432617,2.03125
				c1.0859375,1.0859375,2.984375,1.0849609,4.0678711,0.0009766l3.206543-3.2050781
				c0.6230469-0.6240234,1.7158203-0.6289063,2.3427734,0c0.3144531,0.3125,0.4873047,0.7294922,0.4873047,1.1728516
				c-0.0009766,0.4433594-0.1748047,0.8583984-0.4892578,1.1699219l-3.2021484,3.2050781
				C16.3823242,28.4179688,14.8276367,29.0605469,13.1704102,29.0605469z M13.1704102,15.8500977
				c-0.1625977,0-0.3149414,0.0639648-0.4311523,0.1791992L9.5351563,19.234375
				C8.5620117,20.2070313,8.0268555,21.5,8.0268555,22.8740234c0,1.3720703,0.5361328,2.6621094,1.5083008,3.6357422
				c0.9677734,0.9697266,2.2587891,1.5039063,3.6352539,1.5039063c1.3769531,0,2.6694336-0.5341797,3.6381836-1.5039063
				l3.2041016-3.2089844c0.1171875-0.1142578,0.1796875-0.2666016,0.1806641-0.4277344
				c0-0.1630859-0.0634766-0.3164063-0.1796875-0.4296875c-0.2324219-0.234375-0.6308594-0.2324219-0.8613281-0.0019531
				l-3.206543,3.2060547c-1.480957,1.4794922-4.0698242,1.4794922-5.5493164,0
				c-0.7421875-0.7382813-1.1503906-1.7226563-1.1503906-2.7734375c0-1.0517578,0.4082031-2.0380859,1.1513672-2.7773438
				l3.2045898-3.203125c0.2363281-0.2387695,0.2373047-0.6274414,0-0.8647461
				C13.4858398,15.9140625,13.3325195,15.8500977,13.1704102,15.8500977z"/>
		</g>
		<g>
			<path id="Link_Component_2_8_" fill="#D1DAE8" d="M28.4550781,13.2539063c0-1.5141602-0.5888672-2.9355469-1.6591797-4.0063477
				c-2.2099609-2.2109375-5.8037109-2.2109375-8.0141602,0l0,0l-3.206543,3.2050781
				c-0.4423828,0.4428711-0.4423828,1.1601563,0,1.6030273c0.2216797,0.2207031,0.5117188,0.3339844,0.8017578,0.3339844
				c0.2910156,0,0.5800781-0.1132813,0.8022461-0.3339844l3.2045898-3.2055664c0,0,0,0,0-0.0009766
				c1.3261719-1.3237305,3.484375-1.3237305,4.8095703,0c0.6425781,0.6430664,0.9970703,1.4970703,0.9970703,2.4047852
				c0,0.9082031-0.3544922,1.7617188-0.9970703,2.4047852l0,0l-3.2070313,3.2050781
				c-0.4404297,0.4438477-0.4404297,1.1635742,0,1.6049805c0.2226563,0.2216797,0.5136719,0.3320313,0.8037109,0.3320313
				s0.578125-0.1103516,0.8007813-0.3320313l3.2050781-3.2050781v-0.0019531
				C27.8662109,16.1918945,28.4550781,14.7666016,28.4550781,13.2539063z"/>
			<path fill="#D1DAE8" d="M22.7900391,21.3242188c-0.4414063,0-0.8583984-0.171875-1.171875-0.4833984
				c-0.6455078-0.6474609-0.6455078-1.6972656-0.0029297-2.3461914l3.2070313-3.206543
				c0.5449219-0.5439453,0.8447266-1.2670898,0.8447266-2.0341797c0-0.7680664-0.2998047-1.4907227-0.8447266-2.034668
				c-1.0820313-1.0820313-2.984375-1.0834961-4.0683594,0.0004883l-3.2041016,3.206543
				c-0.6381836,0.6308594-1.7143555,0.628418-2.3452148,0.0004883c-0.3125-0.3129883-0.4853516-0.7299805-0.4853516-1.171875
				c0-0.4433594,0.1728516-0.859375,0.4853516-1.171875l3.206543-3.2060547
				c1.1689453-1.1679688,2.7236328-1.8115234,4.3779297-1.8115234c1.6552734,0,3.2099609,0.6435547,4.3759766,1.8115234
				c1.1699219,1.1694336,1.8144531,2.7241211,1.8144531,4.3769531c0,1.5810547-0.5888672,3.0708008-1.6611328,4.2192383v0.0048828
				l-3.3564453,3.3608398C23.6435547,21.1523438,23.2294922,21.3242188,22.7900391,21.3242188z M22.7890625,9.3330078
				c1.0488281,0,2.0341797,0.40625,2.7744141,1.1455078c0.7412109,0.7416992,1.1503906,1.7265625,1.1503906,2.7753906
				c0,1.0473633-0.4091797,2.0327148-1.1503906,2.7749023l-3.2060547,3.2055664
				c-0.2363281,0.2382813-0.2382813,0.6259766,0,0.8652344c0.2304688,0.2275391,0.6298828,0.2314453,0.8652344-0.0029297
				l3.2021484-3.2060547c0.9726563-0.9702148,1.5078125-2.2617188,1.5078125-3.6367188
				c0-1.3730469-0.5351563-2.6640625-1.5078125-3.6362305c-0.9697266-0.9697266-2.2607422-1.5048828-3.6357422-1.5048828
				s-2.6679688,0.5351563-3.6376953,1.5048828l-3.2055664,3.2055664c-0.1157227,0.1152344-0.1791992,0.2680664-0.1791992,0.4316406
				c0,0.1625977,0.0634766,0.3149414,0.1791992,0.4301758c0.2333984,0.2333984,0.6274414,0.2319336,0.8647461-0.0014648
				l3.2021484-3.2041016C20.7539063,9.7397461,21.7392578,9.3330078,22.7890625,9.3330078z"/>
		</g>
		<g>
			<path id="Link_Component_1_8_" fill="#D1DAE8" d="M13.9726563,22.0712891
				c0.2192383,0.2216797,0.5112305,0.3330078,0.8012695,0.3330078s0.5810547-0.1113281,0.8012695-0.3330078l6.4111328-6.4125977
				c0.4443359-0.4428711,0.4443359-1.159668,0-1.6030273c-0.4404297-0.4428711-1.1591797-0.4428711-1.6025391,0L13.9726563,20.46875
				C13.527832,20.9101563,13.527832,21.6279297,13.9726563,22.0712891z"/>
			<path fill="#D1DAE8" d="M14.7739258,22.9277344c-0.4448242,0-0.8613281-0.1728516-1.1728516-0.4863281
				c-0.3139648-0.3134766-0.4868164-0.7304688-0.4858398-1.1738281c0-0.4423828,0.1733398-0.8583984,0.487793-1.1708984
				l6.409668-6.4111328c0.6289063-0.6264648,1.71875-0.6259766,2.3457031,0.0004883
				c0.3134766,0.3125,0.4863281,0.7294922,0.4853516,1.1713867c0,0.4428711-0.1728516,0.8588867-0.4863281,1.171875
				l-6.4116211,6.4121094C15.6342773,22.7548828,15.21875,22.9277344,14.7739258,22.9277344z M21.1875,14.2475586
				c-0.1650391,0-0.3183594,0.0634766-0.4345703,0.1791992l-6.4106445,6.4121094
				c-0.1152344,0.1152344-0.1782227,0.2675781-0.1782227,0.4296875c-0.0014648,0.1630859,0.0629883,0.3164063,0.1782227,0.4326172
				c0.2319336,0.2304688,0.6313477,0.2324219,0.8613281,0.0009766l6.4135742-6.4140625
				c0.1142578-0.1152344,0.1777344-0.2685547,0.1777344-0.4306641c0.0009766-0.1621094-0.0634766-0.315918-0.1777344-0.4311523
				C21.5019531,14.3105469,21.3496094,14.2475586,21.1875,14.2475586z"/>
		</g>
	</g>
</g>
</svg>
