<?xml version="1.0" encoding="utf-8"?>
<!-- Generator: Adobe Illustrator 16.0.0, SVG Export Plug-In . SVG Version: 6.00 Build 0)  -->
<!DOCTYPE svg PUBLIC "-//W3C//DTD SVG 1.1//EN" "http://www.w3.org/Graphics/SVG/1.1/DTD/svg11.dtd">
<svg version="1.1" id="Layer_1" xmlns="http://www.w3.org/2000/svg" xmlns:xlink="http://www.w3.org/1999/xlink" x="0px" y="0px"
	 width="36px" height="36px" viewBox="0 0 36 36" enable-background="new 0 0 36 36" xml:space="preserve">
<rect x="6" y="6" display="none" fill="#FF5EF4" width="24" height="24"/>
<g id="Site_Statistics_27_">
	<g id="Icon_170_">
		<g>
			<g>
				<path fill="#4B80FF" d="M28.5566406,7.1547852L22.890625,6.7456055c-0.5625-0.0410156-1.0527344,0.3886719-1.09375,0.9511719
					C21.7558594,8.2587891,22.1855469,8.75,22.7480469,8.7905273l3.0058594,0.2148438l-6.3710938,4.949707L13.9736328,9.690918
					c-0.3994141-0.3173828-0.9716797-0.2866211-1.3398438,0.0610352l-5.7978516,5.5629883
					c-0.4091797,0.3886719-0.4404297,1.0332031-0.0507813,1.4423828c0.3876953,0.4086914,1.0322266,0.4389648,1.4414063,0.0507813
					c0.0097656-0.0102539,0.0097656-0.0102539,0.0205078-0.0205078l5.1533203-4.9492188l5.3378906,4.2026367
					c0.3691406,0.2866211,0.890625,0.296875,1.2578125,0l7.28125-5.6547852l-0.2246094,2.9555664
					c-0.0410156,0.5625,0.3789063,1.0527344,0.9414063,1.09375c0.0302734,0,0.0507813,0,0.0820313,0
					c0.53125,0,0.9804688-0.4086914,1.0214844-0.940918l0.4101563-5.2563477
					C29.5478516,7.6967773,29.1289063,7.2055664,28.5566406,7.1547852z"/>
			</g>
		</g>
		<g>
			<g>
				<path fill="#4B80FF" d="M19.8535156,18.8535156h-3.5791016c-0.5625,0-1.0224609,0.4599609-1.0224609,1.0224609v8.4873047
					c0,0.5625,0.4599609,1.0234375,1.0224609,1.0234375h3.5791016c0.5625,0,1.0234375-0.4609375,1.0234375-1.0234375v-8.4873047
					C20.8769531,19.3134766,20.4160156,18.8535156,19.8535156,18.8535156z"/>
			</g>
		</g>
		<g>
			<g>
				<path fill="#4B80FF" d="M12.5927734,21.2050781H9.0136719c-0.5625,0-1.0224609,0.4609375-1.0224609,1.0234375v6.0332031
					c0,0.5625,0.4599609,1.0224609,1.0224609,1.0224609h3.5791016c0.5625,0,1.0224609-0.4599609,1.0224609-1.0224609v-6.0332031
					C13.6152344,21.6660156,13.1552734,21.2050781,12.5927734,21.2050781z"/>
			</g>
		</g>
		<g>
			<g>
				<path fill="#4B80FF" d="M27.0117188,17.0126953h-3.5791016c-0.5625,0-1.0224609,0.4604492-1.0224609,1.0229492v10.2260742
					c0,0.5625,0.4599609,1.0224609,1.0224609,1.0224609h3.5791016c0.5625,0,1.0234375-0.4599609,1.0234375-1.0224609V18.0356445
					C28.0351563,17.4731445,27.5742188,17.0126953,27.0117188,17.0126953z"/>
			</g>
		</g>
	</g>
</g>
</svg>
