<?xml version="1.0" encoding="utf-8"?>
<!-- Generator: Adobe Illustrator 16.0.0, SVG Export Plug-In . SVG Version: 6.00 Build 0)  -->
<!DOCTYPE svg PUBLIC "-//W3C//DTD SVG 1.1//EN" "http://www.w3.org/Graphics/SVG/1.1/DTD/svg11.dtd">
<svg version="1.1" id="Layer_1" xmlns="http://www.w3.org/2000/svg" xmlns:xlink="http://www.w3.org/1999/xlink" x="0px" y="0px"
	 width="30px" height="30px" viewBox="0 0 30 30" enable-background="new 0 0 30 30" xml:space="preserve">
<rect x="7.5004883" y="7.5009766" display="none" fill="#4EBEFF" width="14.9995117" height="15"/>
<g display="none">
	<g display="inline">
		<g>
			<g>
				<path fill="#FFFFFF" d="M14.9819336,8.0268555c-2,0-3.6357422,1.6347656-3.6357422,3.6347656
					c0,1.9995117,1.6357422,3.6342773,3.6357422,3.6342773c2.0004883,0,3.6352539-1.6347656,3.6352539-3.6342773
					C18.6171875,9.6616211,16.9824219,8.0268555,14.9819336,8.0268555z"/>
			</g>
		</g>
		<g>
			<g>
				<path fill="#FFFFFF" d="M21.21875,18.2011719c-0.09375-0.2382813-0.2226563-0.4609375-0.3652344-0.6660156
					c-0.7285156-1.0800781-1.8554688-1.7944336-3.1269531-1.9682617c-0.1582031-0.0166016-0.3320313,0.0146484-0.4589844,0.1103516
					c-0.6679688,0.4926758-1.4604492,0.746582-2.2856445,0.746582c-0.8261719,0-1.6196289-0.2539063-2.2866211-0.746582
					c-0.1269531-0.0957031-0.3007813-0.1435547-0.4594727-0.1103516c-1.2700195,0.1738281-2.4125977,0.8881836-3.1264648,1.9682617
					c-0.1430664,0.2050781-0.2700195,0.4433594-0.3657227,0.6660156c-0.0478516,0.0957031-0.0317383,0.2070313,0.0161133,0.3007813
					c0.1259766,0.2226563,0.2856445,0.4453125,0.4277344,0.6367188c0.2226563,0.3007813,0.4604492,0.5703125,0.7304688,0.8242188
					c0.222168,0.2226563,0.4755859,0.4277344,0.7299805,0.6347656c1.2543945,0.9375,2.7617188,1.4296875,4.3183594,1.4296875
					c1.5551758,0,3.0629883-0.4921875,4.3168945-1.4296875c0.2539063-0.1894531,0.5078125-0.4121094,0.7304688-0.6347656
					c0.2539063-0.2539063,0.5078125-0.5234375,0.7304688-0.8242188c0.1582031-0.2070313,0.3007813-0.4140625,0.4277344-0.6367188
					C21.2519531,18.4082031,21.2675781,18.296875,21.21875,18.2011719z"/>
			</g>
		</g>
	</g>
</g>
<g display="none">
	<path display="inline" fill="#FFFFFF" d="M19.5419922,15.2695313h-6.7197266V9.4482422
		c0-0.9536133-0.7734375-1.7265625-1.7260742-1.7265625c-0.9536133,0-1.7265625,0.7729492-1.7265625,1.7265625v7.5458984
		c0,0.953125,0.7729492,1.7265625,1.7265625,1.7265625h8.4458008c0.953125,0,1.7265625-0.7734375,1.7265625-1.7265625
		S20.4951172,15.2695313,19.5419922,15.2695313z"/>
</g>
<g display="none">
	<path display="inline" fill="#FFFFFF" d="M19.5205078,8.4111328c-1.0595703,0.0004883-1.9492188,0.7978516-2.0927734,1.824707
		c0.7578125,0.5639648,1.2685547,1.3779297,1.4414063,2.2983398c0.2109375,0.0698242,0.4296875,0.1049805,0.6513672,0.1049805
		c1.1660156,0,2.1142578-0.9482422,2.1142578-2.1137695C21.6347656,9.359375,20.6865234,8.4111328,19.5205078,8.4111328z"/>
	<circle display="inline" fill="#FFFFFF" cx="15.1962891" cy="13.223877" r="2.1140137"/>
	<path display="inline" fill="#FFFFFF" d="M11.2402344,21.7490234c1.4560547,0.4384766,2.8833008,0.6611328,4.2441406,0.6611328
		c2.0458984,0,3.34375-0.5117188,3.6669922-0.6542969v-2.3925781c0-0.7587891-0.2958984-1.4736328-0.8339844-2.0126953
		c-0.5390625-0.5380859-1.2539063-0.8349609-2.0126953-0.8349609h-2.2172852c-1.5698242,0-2.847168,1.2773438-2.847168,2.8476563
		V21.7490234z"/>
	<path display="inline" fill="#FFFFFF" d="M23.4765625,19.0585938v-2.3945313c0-1.5698242-1.2763672-2.8466797-2.8457031-2.8466797
		h-1.7470703c-0.0869141,0.5541992-0.296875,1.0766602-0.6152344,1.534668
		c1.5058594,0.7416992,2.5068359,2.3022461,2.5068359,4.0151367v0.3056641
		C22.2597656,19.5517578,23.2011719,19.1806641,23.4765625,19.0585938z"/>
	<path display="inline" fill="#FFFFFF" d="M10.609375,8.4116211c-1.1660156,0-2.1142578,0.9482422-2.1142578,2.1142578
		c0,1.1655273,0.9482422,2.1137695,2.1142578,2.1137695c0.3271484,0,0.6489258-0.0766602,0.9418945-0.2236328
		c0.1699219-0.7680664,0.5776367-1.4580078,1.1699219-1.9824219C12.6728516,9.3105469,11.7441406,8.4116211,10.609375,8.4116211z"/>
	<path display="inline" fill="#FFFFFF" d="M6.6523438,19.0498047c1.0024414,0.3027344,1.996582,0.5019531,2.9633789,0.5957031
		v-0.2783203c0-1.7128906,1.0014648-3.2734375,2.5083008-4.0151367c-0.3183594-0.4580078-0.5283203-0.9804688-0.6162109-1.534668
		H9.4995117c-1.5698242,0-2.847168,1.2768555-2.847168,2.8466797V19.0498047z"/>
</g>
<g display="none">
	<path display="inline" fill="#FFFFFF" d="M20.0292969,13.5117188h-3.421875v-3.4228516
		c0-0.8413086-0.7075195-1.5292969-1.5483398-1.5292969s-1.5478516,0.6879883-1.5478516,1.5292969v3.4228516h-3.4228516
		c-0.8413086,0-1.5292969,0.7070313-1.5292969,1.5478516s0.6879883,1.5478516,1.5292969,1.5478516h3.4228516v3.421875
		c0,0.8417969,0.7070313,1.5292969,1.5478516,1.5292969s1.5483398-0.6875,1.5483398-1.5292969v-3.421875h3.421875
		c0.8417969,0,1.5292969-0.7070313,1.5292969-1.5478516S20.8710938,13.5117188,20.0292969,13.5117188z"/>
	<path display="inline" fill="#FFFFFF" d="M15.059082,22.0585938c-1.1293945,0-2.0478516-0.9101563-2.0478516-2.0292969v-2.921875
		h-2.9228516c-1.1191406,0-2.0292969-0.9189453-2.0292969-2.0478516c0-1.1293945,0.9101563-2.0478516,2.0292969-2.0478516h2.9228516
		v-2.9228516c0-1.1191406,0.918457-2.0292969,2.0478516-2.0292969s2.0483398,0.9101563,2.0483398,2.0292969v2.9228516h2.921875
		c1.1191406,0,2.0292969,0.918457,2.0292969,2.0478516c0,1.1289063-0.9101563,2.0478516-2.0292969,2.0478516h-2.921875v2.921875
		C17.1074219,21.1484375,16.1884766,22.0585938,15.059082,22.0585938z M10.0883789,14.0117188
		c-0.5581055,0-1.0292969,0.4799805-1.0292969,1.0478516s0.4711914,1.0478516,1.0292969,1.0478516h3.9228516v3.921875
		c0,0.5576172,0.4799805,1.0292969,1.0478516,1.0292969c0.5683594,0,1.0483398-0.4716797,1.0483398-1.0292969v-3.921875h3.921875
		c0.5576172,0,1.0292969-0.4799805,1.0292969-1.0478516s-0.4716797-1.0478516-1.0292969-1.0478516h-3.921875v-3.9228516
		c0-0.5581055-0.4799805-1.0292969-1.0483398-1.0292969c-0.5678711,0-1.0478516,0.4711914-1.0478516,1.0292969v3.9228516H10.0883789
		z"/>
</g>
<g display="none">
	<path display="inline" fill="#FFFFFF" d="M21.2871094,10.2875977h-4.3320313l-1.1806641-1.9267578
		c-0.0742188-0.121582-0.2070313-0.1958008-0.3500977-0.1958008h-3.2631836c-0.5771484,0-1.0473633,0.4697266-1.0473633,1.046875
		v1.7929688v6.2724609c0,0.5771484,0.4702148,1.0478516,1.0473633,1.0478516h7.1630859h1.9628906
		c0.578125,0,1.046875-0.4707031,1.046875-1.0478516v-5.9423828C22.3339844,10.7573242,21.8652344,10.2875977,21.2871094,10.2875977
		z"/>
	<path display="inline" fill="#FFFFFF" d="M9.7929688,18.0273438v-6.2724609H8.6508789
		c-0.5776367,0-1.0473633,0.4697266-1.0473633,1.0473633v8.065918c0,0.5761719,0.4697266,1.046875,1.0473633,1.046875h9.1264648
		c0.578125,0,1.046875-0.4707031,1.046875-1.046875v-0.9726563h-7.1630859
		C10.6308594,19.8955078,9.7929688,19.0576172,9.7929688,18.0273438L9.7929688,18.0273438z"/>
</g>
<g display="none">
	<path display="inline" fill="#FFFFFF" d="M21.5371094,16.1503906l-5.4160156,5.4082031
		c-0.6376953,0.6347656-1.5922852,0.6347656-2.2265625,0l-5.4042969-5.4082031
		c-0.6347656-0.6323242-0.6621094-1.6279297-0.0317383-2.2563477c0.6157227-0.6166992,1.6547852-0.550293,2.2519531,0.0483398
		l2.6411133,2.6416016c0,0,0.0087891-6.9360352,0.0087891-6.9389648c0-0.440918,0.1713867-0.8671875,0.4926758-1.1689453
		c0.7734375-0.7246094,2.1269531-0.53125,2.6411133,0.3964844C16.625,9.1079102,16.6933594,9.3754883,16.6914063,9.6450195
		l-0.0058594,6.9389648c0,0,2.6386719-2.6401367,2.640625-2.6416016c0.5996094-0.5996094,1.6347656-0.6601563,2.2480469-0.0483398
		C22.203125,14.5224609,22.1699219,15.5180664,21.5371094,16.1503906z"/>
</g>
<g display="none">
	<path display="inline" fill="#FFFFFF" d="M7.6264648,15.8305664c0-3.5405273,2.8603516-6.4125977,6.3959961-6.4321289v6.4682617
		h6.4677734c-0.0195313,3.534668-2.890625,6.3959961-6.4316406,6.3959961
		C10.5063477,22.2626953,7.6264648,19.3818359,7.6264648,15.8305664z"/>
	<path display="inline" fill="#FFFFFF" d="M22.4394531,14.230957h-6.4697266V7.7631836c0.0136719,0,0.0253906,0,0.0380859,0
		c3.5507813,0,6.4316406,2.8793945,6.4316406,6.4321289C22.4394531,14.2075195,22.4394531,14.2192383,22.4394531,14.230957z"/>
</g>
<path display="none" fill="#FFFFFF" d="M22.2773438,13.2885742c-0.109375-0.3413086-0.4394531-0.5751953-0.9052734-0.6430664
	l-3.7871094-0.550293l-1.6933594-3.4321289C15.6835938,8.2421875,15.3583984,8.0004883,15,8.0004883
	s-0.6835938,0.2416992-0.8916016,0.6625977l-1.6928711,3.4321289l-3.7875977,0.550293
	c-0.4648438,0.0678711-0.7954102,0.3017578-0.9057617,0.6430664c-0.1113281,0.3413086,0.0180664,0.7246094,0.3549805,1.0522461
	l2.7402344,2.6708984l-0.6469727,3.7734375c-0.0825195,0.4804688,0.0581055,0.7695313,0.190918,0.9277344
	C10.5175781,21.8984375,10.7451172,22,11.0014648,22c0.1938477,0,0.3989258-0.0566406,0.6113281-0.1679688L15,20.0507813
	l3.3867188,1.78125C18.5996094,21.9433594,18.8046875,22,18.9980469,22h0.0009766
	c0.2568359,0,0.484375-0.1015625,0.6396484-0.2871094c0.1328125-0.15625,0.2734375-0.4472656,0.1914063-0.9277344
	l-0.6464844-3.7734375l2.7392578-2.6708984C22.2597656,14.0131836,22.3886719,13.6298828,22.2773438,13.2885742z"/>
<path display="none" fill="#FFFFFF" d="M20.9228516,9.1005859h-1.5693359V8.2299805
	c0-0.3999023-0.3242188-0.7236328-0.7246094-0.7236328h-0.1152344c-0.3984375,0-0.7226563,0.3237305-0.7226563,0.7236328v0.8706055
	h-5.5400391V8.2299805c0-0.3999023-0.3237305-0.7236328-0.7241211-0.7236328h-0.1142578
	c-0.3999023,0-0.7231445,0.3237305-0.7231445,0.7236328v0.8706055H9.1376953c-0.8212891,0-1.4902344,0.668457-1.4902344,1.4897461
	v10.4272461c0,0.8203125,0.6689453,1.4882813,1.4902344,1.4882813h11.7851563c0.8212891,0,1.4902344-0.6679688,1.4902344-1.4882813
	V10.590332C22.4130859,9.769043,21.7441406,9.1005859,20.9228516,9.1005859z M19.0634766,15.6132813l-1.4414063,1.4140625
	l0.3349609,1.9921875c0.0458984,0.2714844-0.0664063,0.546875-0.2890625,0.7089844
	c-0.1269531,0.0917969-0.2763672,0.1367188-0.4277344,0.1367188c-0.1152344,0-0.2314453-0.0253906-0.3359375-0.0800781
	l-1.7910156-0.9355469l-1.7910156,0.9355469c-0.2426758,0.1269531-0.5405273,0.1054688-0.7636719-0.0585938
	c-0.2226563-0.1601563-0.3325195-0.4355469-0.2875977-0.7070313l0.3344727-1.9921875l-1.4418945-1.4140625
	c-0.1972656-0.1923828-0.2680664-0.4814453-0.1831055-0.7431641c0.0849609-0.2631836,0.3120117-0.4560547,0.5854492-0.4956055
	l1.9970703-0.2954102l0.8994141-1.809082c0.1235352-0.2470703,0.3754883-0.4033203,0.6508789-0.4033203
	c0.2758789,0,0.5283203,0.15625,0.6508789,0.4033203l0.8989258,1.809082L18.6611328,14.375
	c0.2724609,0.0390625,0.5009766,0.2319336,0.5859375,0.4951172C19.3310547,15.1318359,19.2607422,15.4199219,19.0634766,15.6132813z
	"/>
<g display="none">
	<g display="inline">
		<path fill="#FFFFFF" d="M7.2958984,12.6455078c0,1.0698242,0.4243164,2.0957031,1.1806641,2.8520508l6.5966797,6.5961914
			l6.5976563-6.5961914c0.7558594-0.7563477,1.1796875-1.7822266,1.1796875-2.8520508v-0.5185547
			c0-2.2270508-1.8046875-4.0327148-4.0332031-4.0327148c-1.0683594,0-2.09375,0.425293-2.8510742,1.1806641l-0.8930664,0.8930664
			l-0.8925781-0.8930664c-0.7563477-0.7553711-1.7822266-1.1806641-2.8520508-1.1806641
			c-2.2270508,0-4.0327148,1.8056641-4.0327148,4.0327148V12.6455078z"/>
	</g>
</g>
<g display="none">
	<path display="inline" fill="#FFFFFF" d="M21.8144531,14.0219727H21.640625
		c-0.0429688-0.1289063-0.0898438-0.2563477-0.1464844-0.3808594v-2.9702148c0-0.2641602-0.2148438-0.4790039-0.4785156-0.4790039
		c-0.9316406,0-1.7597656,0.5356445-2.1542969,1.3476563c-0.234375-0.046875-0.4765625-0.0703125-0.71875-0.0703125h-7.8193359
		c-2.0234375,0-3.6699219,1.6459961-3.6699219,3.6699219v2.0756836c0,0.8828125,0.3188477,1.7382813,0.8979492,2.4042969
		c0.480957,0.5546875,1.1147461,0.9492188,1.8144531,1.1386719v0.2871094c0,0.7910156,0.6445313,1.4355469,1.4360352,1.4355469
		c0.7924805,0,1.4370117-0.6445313,1.4370117-1.4355469v-0.1601563h4.1499023v0.1601563
		c0,0.7910156,0.6445313,1.4355469,1.4355469,1.4355469s1.4355469-0.6445313,1.4355469-1.4355469v-0.3339844
		c0.6132813-0.1933594,1.1621094-0.5449219,1.6015625-1.0292969c0.4335938-0.4785156,0.7285156-1.0488281,0.8652344-1.6699219
		h0.0878906c0.7910156,0,1.4355469-0.6445313,1.4355469-1.4355469v-1.1176758
		C23.25,14.6660156,22.6054688,14.0219727,21.8144531,14.0219727z M13.1157227,15.7768555h1.2768555
		c0.6162109,0,1.1171875,0.5024414,1.1171875,1.1176758c0,0.6171875-0.5009766,1.1171875-1.1171875,1.1171875h-0.1591797v0.4785156
		c0,0.265625-0.2143555,0.4785156-0.4790039,0.4785156c-0.2641602,0-0.4790039-0.2128906-0.4790039-0.4785156v-0.4785156h-0.7978516
		c-0.2641602,0-0.4785156-0.2128906-0.4785156-0.4785156c0-0.2636719,0.2143555-0.4785156,0.4785156-0.4785156h1.9150391
		c0.0883789,0,0.1591797-0.0722656,0.1591797-0.1601563s-0.0708008-0.1582031-0.1591797-0.1582031h-1.2768555
		c-0.6157227,0-1.1166992-0.5019531-1.1166992-1.1186523c0-0.6157227,0.5009766-1.1166992,1.1166992-1.1166992h0.159668v-0.4790039
		c0-0.2641602,0.2148438-0.4785156,0.4790039-0.4785156c0.2646484,0,0.4790039,0.2143555,0.4790039,0.4785156v0.4790039h0.7973633
		c0.2646484,0,0.4790039,0.2143555,0.4790039,0.4785156s-0.2143555,0.4790039-0.4790039,0.4790039h-1.9150391
		c-0.0878906,0-0.1591797,0.0712891-0.1591797,0.1591797S13.027832,15.7768555,13.1157227,15.7768555z"/>
	<path display="inline" fill="#FFFFFF" d="M13.7543945,7.4794922c-1.7568359,0-3.2094727,1.3271484-3.4077148,3.0317383h6.8154297
		C16.9648438,8.8066406,15.5107422,7.4794922,13.7543945,7.4794922z"/>
</g>
<g display="none">
	<path display="inline" fill="#FFFFFF" d="M17.8242188,15.6733398c-2.2695313-1.3374023-2.3505859-4.5834961-0.1601563-6.0366211
		c0.4550781-0.3007813,0.3632813-0.9858398-0.1425781-1.1645508c-0.8007813-0.284668-1.6396484-0.4125977-2.4643555-0.3979492
		c-4.7539063,0.0830078-8.1586914,4.8666992-6.4375,9.4306641c1.1230469,2.9765625,4.1801758,4.953125,7.487793,4.5039063
		c2.875-0.3886719,5.2519531-2.5546875,5.8964844-5.4160156c0.1171875-0.5263672-0.4179688-0.9633789-0.9101563-0.7407227
		C20.0429688,16.3251953,18.8144531,16.2587891,17.8242188,15.6733398z"/>
</g>
<g id="XMLID_17_" display="none">
	<path id="XMLID_203_" display="inline" fill="#FFFFFF" d="M14.1181641,22.5507813v-3.1269531h-1.5439453V17.609375h2.7055664
		c0.449707,0,0.815918-0.3652344,0.815918-0.8164063c0-0.4492188-0.3662109-0.815918-0.815918-0.815918h-0.7177734
		c-1.4477539,0-2.625-1.1777344-2.625-2.625c0-1.2958984,0.9443359-2.3745117,2.1811523-2.5864258V7.5512695
		c-3.7456055,0.4423828-6.6606445,3.637207-6.6606445,7.5S10.3725586,22.109375,14.1181641,22.5507813z"/>
	<path id="XMLID_214_" display="inline" fill="#FFFFFF" d="M15.9316406,10.7275391h1.7226563v1.8125h-3.0922852
		c-0.4477539,0-0.8120117,0.3647461-0.8120117,0.8120117c0,0.4477539,0.3642578,0.8120117,0.8120117,0.8120117h0.7177734
		c1.4506836,0,2.6303711,1.1796875,2.6303711,2.6289063c0,1.2246094-0.8427734,2.2578125-1.9785156,2.5488281v3.2070313
		c3.7304688-0.4570313,6.6308594-3.6445313,6.6308594-7.4975586s-2.9003906-7.0410156-6.6308594-7.4970703V10.7275391z"/>
</g>
<g>
	<polygon fill="#FFFFFF" points="21.1171875,11.8457031 21.1171875,9.8071289 16.1679688,9.8071289 16.1679688,7.5014648 
		13.5429688,7.5014648 13.5429688,9.8071289 8.8857422,9.8071289 8.8857422,15.9223633 18.2753906,15.9223633 
		18.2753906,18.0703125 8.8857422,18.0546875 8.8857422,20.109375 13.5429688,20.109375 13.5429688,22.5019531 
		16.1679688,22.5019531 16.1679688,20.109375 21.1171875,20.109375 21.1171875,13.8837891 11.4960938,13.8837891 
		11.4960938,11.8457031 	"/>
</g>
<g display="none">
	<path display="inline" fill="#FFFFFF" d="M19.3125,14.737793c-0.609375,0.0009766-1.1035156,0.4951172-1.1054688,1.1049805
		v2.0996094c0.0019531,0.6103516,0.4960938,1.1044922,1.1054688,1.1054688h2.9550781V14.737793H19.3125z M20.1699219,18.0263672
		c-0.5507813,0-1-0.4482422-1-1c0-0.5527344,0.4492188-1,1-1c0.5527344,0,1,0.4472656,1,1
		C21.1699219,17.578125,20.7226563,18.0263672,20.1699219,18.0263672z"/>
	<g display="inline">
		<path fill="#FFFFFF" d="M18.6347656,8.6298828c0-0.3583984-0.1738281-0.6948242-0.4667969-0.9018555
			S17.5,7.4692383,17.1621094,7.5888672l-7.6821289,2.7211914h9.1547852V8.6298828z"/>
		<path fill="#FFFFFF" d="M21.1621094,11.0463867H7.8330078v10.3745117c0.0009766,0.609375,0.4951172,1.1035156,1.1049805,1.1044922
			h12.2241211c0.609375-0.0009766,1.1035156-0.4951172,1.1054688-1.1044922v-1.6367188H19.3125
			c-1.0175781-0.0019531-1.8398438-0.8242188-1.8417969-1.8417969v-2.0996094
			c0.0019531-1.0166016,0.8242188-1.8398438,1.8417969-1.8413086h2.9550781v-1.8505859
			C22.265625,11.5415039,21.7714844,11.046875,21.1621094,11.0463867z"/>
	</g>
</g>
</svg>
