<?xml version="1.0" encoding="utf-8"?>
<!-- Generator: Adobe Illustrator 16.0.0, SVG Export Plug-In . SVG Version: 6.00 Build 0)  -->
<!DOCTYPE svg PUBLIC "-//W3C//DTD SVG 1.1//EN" "http://www.w3.org/Graphics/SVG/1.1/DTD/svg11.dtd">
<svg version="1.1" id="Layer_1" xmlns="http://www.w3.org/2000/svg" xmlns:xlink="http://www.w3.org/1999/xlink" x="0px" y="0px"
	 width="66px" height="66px" viewBox="0 0 66 66" enable-background="new 0 0 66 66" xml:space="preserve">
<g id="New__x26__Noteworthy_Button">
	<path id="Star_Icon" fill="#FFC82C" d="M46.8203125,29.3447266c-0.1074219-0.3481445-0.3925781-0.6010742-0.7333984-0.6606445
		l-8.4804688-1.4272461l-3.9165039-8.0073242c-0.1557617-0.3261719-0.4750977-0.5283203-0.8237305-0.5283203
		c-0.3476563,0-0.6679688,0.2021484-0.8261719,0.5283203l-3.9145508,8.0073242l-8.4775391,1.4296875
		c-0.3457031,0.0571289-0.6279297,0.3100586-0.7368164,0.6582031c-0.1064453,0.3491211-0.0214844,0.7265625,0.2260742,0.9868164
		l6.0576172,6.3745117l-1.3242188,8.8916016c-0.0541992,0.3613281,0.0893555,0.7226563,0.3696289,0.9375
		c0.2832031,0.2138672,0.65625,0.2441406,0.9658203,0.0810547l7.6601563-4.0693359l7.6582031,4.0693359
		c0.1347656,0.0693359,0.2763672,0.1044922,0.421875,0.1044922c0.1923828,0,0.3857422-0.0625,0.5439453-0.1855469
		c0.2822266-0.2148438,0.4238281-0.5761719,0.3701172-0.9375l-1.3232422-8.8916016l6.0556641-6.3745117
		C46.8417969,30.0712891,46.9287109,29.6938477,46.8203125,29.3447266z"/>
</g>
</svg>
