<?xml version="1.0" encoding="utf-8"?>
<!-- Generator: Adobe Illustrator 16.0.0, SVG Export Plug-In . SVG Version: 6.00 Build 0)  -->
<!DOCTYPE svg PUBLIC "-//W3C//DTD SVG 1.1//EN" "http://www.w3.org/Graphics/SVG/1.1/DTD/svg11.dtd">
<svg version="1.1" id="Layer_1" xmlns="http://www.w3.org/2000/svg" xmlns:xlink="http://www.w3.org/1999/xlink" x="0px" y="0px"
	 width="36px" height="36px" viewBox="0 0 36 36" enable-background="new 0 0 36 36" xml:space="preserve">
<rect x="6" y="6" display="none" fill="#FF5EF4" width="24" height="24"/>
<path id="Dollar_Sign_53_" fill="#4B80FF" stroke="#4B80FF" stroke-miterlimit="10" d="M24.3398438,19.5058594
	c0.0957031,0.1542969,0.1835938,0.296875-0.0058594-0.0078125c-0.1914063-0.3105469-0.0976563-0.1582031-0.0019531-0.0019531
	c-0.6191406-0.9936523-1.6953125-1.6225586-2.828125-2.0361328c-0.7539063-0.2705078-1.5390625-0.4555664-2.3203125-0.6279297
	v-4.7124023c0.6601563,0.1044922,1.3203125,0.2983398,1.8632813,0.6660156
	c0.2519531,0.1704102,0.4726563,0.3759766,0.6425781,0.6196289c0.0859375,0.1201172,0.1621094,0.2543945,0.2207031,0.3891602
	c0.0566406,0.137207,0.0859375,0.2797852,0.1445313,0.4165039c0.1914063,0.4545898,0.6738281,0.7749023,1.2070313,0.7973633
	c0.5410156,0.0209961,1.0585938-0.2685547,1.2890625-0.7167969c0.1132813-0.2211914,0.1503906-0.4667969,0.1132813-0.7099609
	c-0.0253906-0.1513672-0.0761719-0.3027344-0.1269531-0.4438477c-0.0585938-0.1567383-0.1191406-0.3081055-0.1933594-0.4555664
	c-0.2617188-0.5317383-0.6308594-1.019043-1.0839844-1.4296875c-0.9589844-0.8642578-2.2363281-1.3588867-3.5449219-1.5766602
	c-0.1777344-0.0292969-0.3535156-0.0517578-0.53125-0.0756836V9.4990234V8.2324219
	c0-0.4819336-0.3129883-0.9267578-0.7915039-1.1289063c-0.4824219-0.2080078-1.0683594-0.1259766-1.4658203,0.1977539
	c-0.2880859,0.2324219-0.4550781,0.5756836-0.4550781,0.9311523v1.2666016v0.109375
	c-1.3388672,0.1723633-2.6650391,0.6425781-3.6650391,1.4873047c-0.4667969,0.3974609-0.8476563,0.8730469-1.1132813,1.4013672
	c-0.2832031,0.5673828-0.4111328,1.1811523-0.40625,1.8017578c0.0039063,0.6137695,0.125,1.2324219,0.4179688,1.7832031
	c0.2773438,0.5258789,0.7041016,0.9692383,1.203125,1.3227539c1.0302734,0.7338867,2.3144531,1.1152344,3.5605469,1.4116211
	v4.9267578c-0.6367188-0.1640625-1.2460938-0.4423828-1.7285156-0.8642578
	c-0.2324219-0.2060547-0.4345703-0.4443359-0.5957031-0.6992188c-0.0820313-0.1308594-0.1523438-0.2666016-0.2089844-0.4101563
	c-0.0576172-0.1416016-0.0917969-0.2861328-0.1455078-0.4306641c-0.1689453-0.4658203-0.6347656-0.8056641-1.1689453-0.8496094
	c-0.5429688-0.0439453-1.0722656,0.2236328-1.3242188,0.6630859c-0.1210938,0.2148438-0.1738281,0.4609375-0.1445313,0.7011719
	c0.015625,0.1455078,0.0605469,0.2851563,0.1044922,0.421875c0.0498047,0.1552734,0.1083984,0.3027344,0.1699219,0.4501953
	c0.2412109,0.5673828,0.5927734,1.0917969,1.0244141,1.5517578c0.8642578,0.9267578,2.046875,1.5507813,3.3203125,1.8710938
	c0.2285156,0.0615234,0.4648438,0.1074219,0.6972656,0.1484375v1.4511719c0,0.4785156,0.3125,0.9277344,0.7910156,1.1289063
	c0.4824219,0.2050781,1.0683594,0.125,1.4658203-0.1992188c0.2905273-0.234375,0.4584961-0.578125,0.4584961-0.9296875v-1.3291016
	c1.3652344-0.0986328,2.7363281-0.4638672,3.8300781-1.2402344c1.0371094-0.7353516,1.7324219-1.8193359,1.8730469-3.0185547
	C24.9941406,21.2539063,24.8339844,20.3027344,24.3398438,19.5058594z M16.4682617,16.2319336
	c-0.3154297-0.0913086-0.6064453-0.1821289-0.8662109-0.2788086c-0.3095703-0.1098633-0.6123047-0.2475586-0.8857422-0.418457
	c-0.2460938-0.1513672-0.4863281-0.3452148-0.5996094-0.6020508c-0.1191406-0.2705078-0.1347656-0.5913086-0.1044922-0.8798828
	c0.0322266-0.2875977,0.1416016-0.5581055,0.3193359-0.793457c0.4755859-0.6386719,1.3417969-0.96875,2.1367188-1.1235352
	V16.2319336z M21.9492188,22.5878906c-0.5449219,0.8828125-1.7304688,1.2294922-2.765625,1.3359375v-4.5283203
	c0.6367188,0.1542969,1.2792969,0.3251953,1.8671875,0.6083984c0.2695313,0.1289063,0.5273438,0.28125,0.734375,0.4902344
	c0.1933594,0.1894531,0.3085938,0.4257813,0.3671875,0.6796875C22.2597656,21.6464844,22.2050781,22.1640625,21.9492188,22.5878906z
	"/>
</svg>
