<?xml version="1.0" encoding="utf-8"?>
<!-- Generator: Adobe Illustrator 16.0.0, SVG Export Plug-In . SVG Version: 6.00 Build 0)  -->
<!DOCTYPE svg PUBLIC "-//W3C//DTD SVG 1.1//EN" "http://www.w3.org/Graphics/SVG/1.1/DTD/svg11.dtd">
<svg version="1.1" id="Layer_1" xmlns="http://www.w3.org/2000/svg" xmlns:xlink="http://www.w3.org/1999/xlink" x="0px" y="0px"
	 width="16px" height="16px" viewBox="0 0 16 16" enable-background="new 0 0 16 16" xml:space="preserve">
<g>
	<g>
		<path fill="#FFFFFF" d="M8.6928711,4.2368164l6.0200195,6.0200195c0.3828125,0.3828125,0.3828125,1.0029297,0,1.3857422
			s-1.0039063,0.3828125-1.3867188,0L8,6.3164063l-5.3266602,5.3261719c-0.3828125,0.3828125-1.003418,0.3828125-1.3862305,0
			s-0.3828125-1.0029297,0-1.3857422l6.0200195-6.0205078C7.4985352,4.0449219,7.7490234,3.949707,8,3.949707
			S8.5014648,4.0454102,8.6928711,4.2368164z"/>
		<path fill="#FFFFFF" d="M14.0195313,12.9296875c-0.5292969,0-1.0263672-0.2060547-1.4003906-0.5800781L8,7.7304688
			l-4.6196289,4.6191406c-0.7485352,0.7480469-2.0527344,0.7470703-2.800293,0
			c-0.7719727-0.7714844-0.7719727-2.0283203,0-2.7998047l6.0200195-6.0205078
			C7.3476563,2.7817383,8.6523438,2.78125,9.4003906,3.5297852l6.0195313,6.0200195
			c0.7724609,0.7714844,0.7724609,2.0283203,0,2.7998047C15.0458984,12.7236328,14.5488281,12.9296875,14.0195313,12.9296875z"/>
	</g>
</g>
</svg>
