<?xml version="1.0" encoding="utf-8"?>
<!-- Generator: Adobe Illustrator 16.0.0, SVG Export Plug-In . SVG Version: 6.00 Build 0)  -->
<!DOCTYPE svg PUBLIC "-//W3C//DTD SVG 1.1//EN" "http://www.w3.org/Graphics/SVG/1.1/DTD/svg11.dtd">
<svg version="1.1" id="Layer_1" xmlns="http://www.w3.org/2000/svg" xmlns:xlink="http://www.w3.org/1999/xlink" x="0px" y="0px"
	 width="36px" height="36px" viewBox="0 0 36 36" enable-background="new 0 0 36 36" xml:space="preserve">
<rect x="6" y="6" display="none" fill="#FF5EF4" width="24" height="24"/>
<g>
	<g>
		<g>
			<path fill="#4B80FF" d="M13.9511719,7.7963867c-0.8847656,0-1.6005859,0.7163086-1.6005859,1.6000977H7.5507813
				c-0.8837891,0-1.5996094,0.7163086-1.5996094,1.6000977s0.7158203,1.6000977,1.5996094,1.6000977h4.7998047
				c0,0.8833008,0.7158203,1.6000977,1.6005859,1.6000977c0.8828125,0,1.5996094-0.7167969,1.5996094-1.6000977V9.3964844
				C15.5507813,8.5126953,14.8339844,7.7963867,13.9511719,7.7963867z"/>
		</g>
	</g>
	<g>
		<g>
			<path fill="#4B80FF" d="M28.3505859,16.5966797h-3.2001953c0-0.8837891-0.7158203-1.6000977-1.5996094-1.6000977
				s-1.5996094,0.7163086-1.5996094,1.6000977v3.1992188c0,0.8847656,0.7158203,1.6005859,1.5996094,1.6005859
				s1.5996094-0.7158203,1.5996094-1.6005859h3.2001953c0.8837891,0,1.6005859-0.7158203,1.6005859-1.5991211
				C29.9511719,17.3129883,29.234375,16.5966797,28.3505859,16.5966797z"/>
		</g>
	</g>
	<g>
		<g>
			<path fill="#4B80FF" d="M28.3505859,9.3964844H17.9511719c-0.8847656,0-1.6005859,0.7163086-1.6005859,1.6000977
				s0.7158203,1.6000977,1.6005859,1.6000977h10.3994141c0.8837891,0,1.6005859-0.7163086,1.6005859-1.6000977
				S29.234375,9.3964844,28.3505859,9.3964844z"/>
		</g>
	</g>
	<g>
		<g>
			<path fill="#4B80FF" d="M19.5507813,16.5966797h-12c-0.8837891,0-1.5996094,0.7163086-1.5996094,1.6000977
				c0,0.8833008,0.7158203,1.5991211,1.5996094,1.5991211h12c0.8837891,0,1.5996094-0.7158203,1.5996094-1.5991211
				C21.1503906,17.3129883,20.4345703,16.5966797,19.5507813,16.5966797z"/>
		</g>
	</g>
	<g>
		<g>
			<path fill="#4B80FF" d="M28.3505859,23.7958984h-6.3994141c-0.8847656,0-1.6005859,0.7167969-1.6005859,1.6005859
				s0.7158203,1.6005859,1.6005859,1.6005859h6.3994141c0.8837891,0,1.6005859-0.7167969,1.6005859-1.6005859
				S29.234375,23.7958984,28.3505859,23.7958984z"/>
		</g>
	</g>
	<g>
		<g>
			<path fill="#4B80FF" d="M17.9511719,22.1962891c-0.8847656,0-1.6005859,0.7167969-1.6005859,1.5996094H7.5507813
				c-0.8837891,0-1.5996094,0.7167969-1.5996094,1.6005859s0.7158203,1.6005859,1.5996094,1.6005859h8.7998047
				c0,0.8828125,0.7158203,1.5996094,1.6005859,1.5996094c0.8828125,0,1.5996094-0.7167969,1.5996094-1.5996094v-3.2011719
				C19.5507813,22.9130859,18.8339844,22.1962891,17.9511719,22.1962891z"/>
		</g>
	</g>
</g>
</svg>
