<?xml version="1.0" encoding="utf-8"?>
<!-- Generator: Adobe Illustrator 16.0.0, SVG Export Plug-In . SVG Version: 6.00 Build 0)  -->
<!DOCTYPE svg PUBLIC "-//W3C//DTD SVG 1.1//EN" "http://www.w3.org/Graphics/SVG/1.1/DTD/svg11.dtd">
<svg version="1.1" id="Layer_1" xmlns="http://www.w3.org/2000/svg" xmlns:xlink="http://www.w3.org/1999/xlink" x="0px" y="0px"
	 width="36px" height="36px" viewBox="0 0 36 36" enable-background="new 0 0 36 36" xml:space="preserve">
<rect x="6" y="6" display="none" fill="#FF5EF4" width="24" height="24"/>
<g id="User_Database_27_">
	<g id="Icon_165_">
		<g>
			<g>
				<path fill="#D1DAE8" d="M26.4990234,17.3666992h-1.8554688c0.1884766,0.5175781,0.2919922,1.0771484,0.2919922,1.6586914
					v8.015625c0,0.2421875-0.0419922,0.4765625-0.1191406,0.6933594h3.0683594c1.1464844,0,2.0791016-0.9335938,2.0791016-2.0800781
					v-4.8222656C29.9638672,18.9204102,28.4101563,17.3666992,26.4990234,17.3666992z"/>
			</g>
		</g>
		<g>
			<g>
				<path fill="#D1DAE8" d="M10.9916992,19.0253906c0-0.581543,0.1035156-1.1411133,0.2929688-1.6586914H9.4282227
					c-1.9101563,0-3.4643555,1.5537109-3.4643555,3.465332V25.65625c0,1.1445313,0.9326172,2.078125,2.0786133,2.078125h3.0688477
					c-0.0771484-0.2167969-0.1196289-0.4511719-0.1196289-0.6933594V19.0253906z"/>
			</g>
		</g>
		<g>
			<g>
				<path fill="#D1DAE8" d="M20.0859375,15.5615234h-4.2436523c-1.9101563,0-3.4643555,1.5541992-3.4643555,3.4638672v10.015625
					c0,0.3828125,0.3100586,0.6933594,0.6928711,0.6933594h9.7866211c0.3828125,0,0.6923828-0.3105469,0.6923828-0.6933594
					v-10.015625C23.5498047,17.1157227,21.9960938,15.5615234,20.0859375,15.5615234z"/>
			</g>
		</g>
		<g>
			<g>
				<path fill="#D1DAE8" d="M17.9638672,6.3754883c-2.2973633,0-4.1665039,1.8691406-4.1665039,4.1665039
					c0,1.5581055,0.8598633,2.9194336,2.1303711,3.6337891c0.6025391,0.3388672,1.296875,0.5327148,2.0361328,0.5327148
					S19.3974609,14.5146484,20,14.1757813c1.2705078-0.7143555,2.1308594-2.0756836,2.1308594-3.6337891
					C22.1308594,8.2446289,20.2617188,6.3754883,17.9638672,6.3754883z"/>
			</g>
		</g>
		<g>
			<g>
				<path fill="#D1DAE8" d="M10.6474609,10.2587891c-1.7182617,0-3.1157227,1.3979492-3.1157227,3.1162109
					s1.3974609,3.1157227,3.1157227,3.1157227c0.4360352,0,0.8510742-0.0898438,1.2280273-0.2524414
					c0.6518555-0.2807617,1.1894531-0.7773438,1.5219727-1.3994141c0.2333984-0.4370117,0.3662109-0.9350586,0.3662109-1.4638672
					C13.7636719,11.6567383,12.3657227,10.2587891,10.6474609,10.2587891z"/>
			</g>
		</g>
		<g>
			<g>
				<path fill="#D1DAE8" d="M25.2802734,10.2587891c-1.7177734,0-3.1162109,1.3979492-3.1162109,3.1162109
					c0,0.5288086,0.1328125,1.0268555,0.3662109,1.4638672c0.3330078,0.6220703,0.8701172,1.1191406,1.5224609,1.3994141
					c0.3769531,0.1625977,0.7919922,0.2524414,1.2275391,0.2524414c1.7177734,0,3.1162109-1.3974609,3.1162109-3.1157227
					S26.9980469,10.2587891,25.2802734,10.2587891z"/>
			</g>
		</g>
	</g>
</g>
</svg>
