<?xml version="1.0" encoding="utf-8"?>
<!-- Generator: Adobe Illustrator 16.0.0, SVG Export Plug-In . SVG Version: 6.00 Build 0)  -->
<!DOCTYPE svg PUBLIC "-//W3C//DTD SVG 1.1//EN" "http://www.w3.org/Graphics/SVG/1.1/DTD/svg11.dtd">
<svg version="1.1" id="Layer_1" xmlns="http://www.w3.org/2000/svg" xmlns:xlink="http://www.w3.org/1999/xlink" x="0px" y="0px"
	 width="66px" height="66px" viewBox="0 0 66 66" enable-background="new 0 0 66 66" xml:space="preserve">
<g id="Earnings_Button">
	<g>
		<g id="Wallet_Icon_8_">
			<ellipse id="Icon_Component_4_9_" fill="#FFFFFF" cx="38.0566406" cy="21.0019531" rx="3.964844" ry="3.8461914"/>
			<path id="Icon_Component_3_9_" fill="#FFFFFF" d="M36.8554688,32H45v-2.9125977C45,28.3046875,44.7324219,28,43.9257813,28
				H20.9023438C20.0986328,28,19,28.3046875,19,29.0874023v16.402832C19,46.2734375,20.0986328,47,20.9023438,47h23.0234375
				C44.7324219,47,45,46.2734375,45,45.4902344V42h-8.1445313C35.0957031,42,34,40.9199219,34,39.2148438v-3.8515625
				C34,33.65625,35.0957031,32,36.8554688,32z"/>
			<path id="Icon_Component_2_8_" fill="#FFFFFF" d="M29.0439453,21.5253906c-2.1894531,0-3.9619141,1.7949219-3.9619141,3.9199219
				C25.0820313,25.609375,25.0932617,26,25.1132813,26h7.8642578c0.0205078,0,0.0317383-0.390625,0.0317383-0.5546875
				C33.0092773,23.3203125,31.234375,21.5253906,29.0439453,21.5253906z"/>
			<path id="Icon_Component_1_8_" fill="#FFFFFF" d="M46.25,34h-9.3945313C36.1953125,34,36,34.7216797,36,35.3632813v3.8515625
				C36,39.8535156,36.1953125,40,36.8554688,40H46.25c0.6591797,0,0.75-0.1464844,0.75-0.7851563v-3.8515625
				C47,34.7216797,46.9091797,34,46.25,34z M38.8310547,38.6484375c-0.7744141,0-1.4013672-0.6074219-1.4013672-1.359375
				c0-0.7539063,0.6269531-1.3623047,1.4013672-1.3623047c0.7753906,0,1.4033203,0.6083984,1.4033203,1.3623047
				C40.234375,38.0410156,39.6064453,38.6484375,38.8310547,38.6484375z"/>
		</g>
	</g>
</g>
</svg>
