<?xml version="1.0" encoding="utf-8"?>
<!-- Generator: Adobe Illustrator 16.0.0, SVG Export Plug-In . SVG Version: 6.00 Build 0)  -->
<!DOCTYPE svg PUBLIC "-//W3C//DTD SVG 1.1//EN" "http://www.w3.org/Graphics/SVG/1.1/DTD/svg11.dtd">
<svg version="1.1" id="Layer_1" xmlns="http://www.w3.org/2000/svg" xmlns:xlink="http://www.w3.org/1999/xlink" x="0px" y="0px"
	 width="40px" height="40px" viewBox="0 0 40 40" enable-background="new 0 0 40 40" xml:space="preserve">
<g>
	<rect y="11.1694336" fill="none" width="40.0214844" height="26.7172852"/>
	<path fill="#FFFFFF" d="M22.6621094,20.0131836L27.0839844,24.875c0.4980469,0.5576172,0.7480469,1.0273438,0.7480469,1.4082031
		c0,0.3818359-0.2832031,0.8291016-0.8476563,1.3417969c-0.5644531,0.5136719-1.0410156,0.7705078-1.4296875,0.7705078
		s-0.8398438-0.2939453-1.3535156-0.8798828l-4.1791992-4.796875l-4.1801758,4.796875
		c-0.527832,0.5859375-0.9790039,0.8798828-1.3530273,0.8798828s-0.8505859-0.2607422-1.4296875-0.78125
		c-0.5795898-0.5205078-0.8691406-0.9638672-0.8691406-1.3310547c0-0.3662109,0.2563477-0.8359375,0.7700195-1.4082031
		l4.421875-4.8618164l-4.421875-4.8618164c-0.5136719-0.5424805-0.7700195-1.0043945-0.7700195-1.3862305
		c0-0.3808594,0.2861328-0.8320313,0.8579102-1.3530273c0.5717773-0.5200195,1.0522461-0.7807617,1.440918-0.7807617
		s0.8393555,0.293457,1.3530273,0.8798828l4.1801758,4.7958984l4.1791992-4.7958984
		c0.5292969-0.5864258,0.9794922-0.8798828,1.3535156-0.8798828s0.8476563,0.2568359,1.4189453,0.7700195
		c0.5722656,0.5136719,0.8583984,0.9677734,0.8583984,1.3637695s-0.25,0.8583984-0.7480469,1.3862305L22.6621094,20.0131836z"/>
</g>
</svg>
