<?xml version="1.0" encoding="utf-8"?>
<!-- Generator: Adobe Illustrator 16.0.0, SVG Export Plug-In . SVG Version: 6.00 Build 0)  -->
<!DOCTYPE svg PUBLIC "-//W3C//DTD SVG 1.1//EN" "http://www.w3.org/Graphics/SVG/1.1/DTD/svg11.dtd">
<svg version="1.1" xmlns="http://www.w3.org/2000/svg" xmlns:xlink="http://www.w3.org/1999/xlink" x="0px" y="0px" width="120px"
	 height="120px" viewBox="0 0 120 120" enable-background="new 0 0 120 120" xml:space="preserve">
<g id="Layer_1">
</g>
<g id="Layer_1_copy">
</g>
<g id="Layer_1_copy_2">
</g>
<g id="Layer_1_copy_3">
</g>
<g id="Layer_1_copy_4">
</g>
<g id="Layer_1_copy_5">
</g>
<g id="Layer_1_copy_11">
</g>
<g id="Layer_1_copy_10">
</g>
<g id="Layer_1_copy_9">
</g>
<g id="Layer_1_copy_8">
</g>
<g id="Layer_1_copy_7">
</g>
<g id="Layer_1_copy_6">
</g>
<g id="Layer_1_copy_17">
</g>
<g id="Layer_1_copy_16">
</g>
<g id="Layer_1_copy_15">
</g>
<g id="Layer_1_copy_14">
</g>
<g id="Layer_1_copy_13">
</g>
<g id="Layer_1_copy_12">
</g>
<g id="Layer_1_copy_23">
</g>
<g id="Layer_1_copy_22">
</g>
<g id="Layer_1_copy_25">
	<rect x="-0.9995117" y="-1" fill="#3D597C" width="121.9995117" height="122"/>
	<g>
		<rect y="29.6699219" fill-rule="evenodd" clip-rule="evenodd" fill="none" width="113.2128906" height="83.3300781"/>
		<path fill="#C66338" d="M76.6953125,33.5576172c2.3505859,1.6318359,3.5273438,3.2158203,3.5273438,4.7519531
			c0,0.9130859-0.5527344,2.1845703-1.65625,3.8154297L63.0146484,65.3818359v13.7519531
			c0,1.1044922-0.0361328,1.9326172-0.1083984,2.4833984c-0.0722656,0.5527344-0.2998047,1.1884766-0.6835938,1.9082031
			c-0.3847656,0.7207031-1.0332031,1.2246094-1.9438477,1.5117188c-0.9125977,0.2890625-2.1367188,0.4326172-3.6723633,0.4326172
			c-1.5366211,0-2.7607422-0.1435547-3.671875-0.4326172c-0.9121094-0.2871094-1.5600586-0.8027344-1.9438477-1.546875
			c-0.3847656-0.7441406-0.6123047-1.3925781-0.684082-1.9443359s-0.1079102-1.4042969-0.1079102-2.5556641V65.3818359
			L34.6464844,42.125c-1.1044922-1.6308594-1.6557617-2.9023438-1.6557617-3.8154297
			c0-1.5361328,1.0551758-3.0117188,3.1679688-4.4277344c2.1118164-1.4150391,3.6235352-2.1240234,4.5361328-2.1240234
			c0.9111328,0,1.6308594,0.1923828,2.159668,0.5761719c0.815918,0.5283203,1.6796875,1.5117188,2.5922852,2.9511719
			l11.159668,17.8564453l11.1601563-17.8564453c0.9111328-1.4394531,1.703125-2.3867188,2.3759766-2.84375
			c0.671875-0.4550781,1.4511719-0.6835938,2.3398438-0.6835938C73.3701172,31.7578125,74.7744141,32.3583984,76.6953125,33.5576172
			z"/>
	</g>
	<g>
		<rect x="4" y="30.6699219" fill-rule="evenodd" clip-rule="evenodd" fill="none" width="113.2128906" height="87.3300781"/>
		<path fill="none" stroke="#000000" stroke-width="4" stroke-miterlimit="10" d="M80.6953125,34.5576172
			c2.3505859,1.6318359,3.5273438,3.2158203,3.5273438,4.7519531c0,0.9130859-0.5527344,2.1845703-1.65625,3.8154297
			L67.0146484,66.3818359v13.7519531c0,1.1044922-0.0361328,1.9326172-0.1083984,2.4833984
			c-0.0722656,0.5527344-0.2998047,1.1884766-0.6835938,1.9082031c-0.3847656,0.7207031-1.0332031,1.2246094-1.9433594,1.5117188
			c-0.9130859,0.2890625-2.1367188,0.4326172-3.6728516,0.4326172c-1.5366211,0-2.7607422-0.1435547-3.671875-0.4326172
			c-0.9121094-0.2871094-1.5600586-0.8027344-1.9438477-1.546875c-0.3847656-0.7441406-0.6123047-1.3925781-0.684082-1.9443359
			s-0.1079102-1.4042969-0.1079102-2.5556641V66.3818359L38.6464844,43.125
			c-1.1044922-1.6308594-1.6557617-2.9023438-1.6557617-3.8154297c0-1.5361328,1.0551758-3.0117188,3.1679688-4.4277344
			c2.1118164-1.4150391,3.6235352-2.1240234,4.5361328-2.1240234c0.9111328,0,1.6308594,0.1923828,2.159668,0.5761719
			c0.815918,0.5283203,1.6796875,1.5117188,2.5922852,2.9511719l11.159668,17.8564453l11.1601563-17.8564453
			c0.9111328-1.4394531,1.703125-2.3867188,2.3759766-2.84375c0.671875-0.4550781,1.4511719-0.6835938,2.3398438-0.6835938
			C77.3701172,32.7578125,78.7744141,33.3583984,80.6953125,34.5576172z"/>
	</g>
</g>
<g id="Layer_1_copy_24">
</g>
<g id="Layer_1_copy_21">
</g>
<g id="Layer_1_copy_20">
</g>
<g id="Layer_1_copy_19">
</g>
<g id="Layer_1_copy_18">
</g>
</svg>
