<?xml version="1.0" encoding="utf-8"?>
<!-- Generator: Adobe Illustrator 16.0.0, SVG Export Plug-In . SVG Version: 6.00 Build 0)  -->
<!DOCTYPE svg PUBLIC "-//W3C//DTD SVG 1.1//EN" "http://www.w3.org/Graphics/SVG/1.1/DTD/svg11.dtd">
<svg version="1.1" xmlns="http://www.w3.org/2000/svg" xmlns:xlink="http://www.w3.org/1999/xlink" x="0px" y="0px" width="120px"
	 height="120px" viewBox="0 0 120 120" enable-background="new 0 0 120 120" xml:space="preserve">
<g id="Layer_1">
</g>
<g id="Layer_1_copy">
</g>
<g id="Layer_1_copy_2">
</g>
<g id="Layer_1_copy_3">
</g>
<g id="Layer_1_copy_4">
</g>
<g id="Layer_1_copy_5">
</g>
<g id="Layer_1_copy_11">
</g>
<g id="Layer_1_copy_10">
</g>
<g id="Layer_1_copy_9">
</g>
<g id="Layer_1_copy_8">
</g>
<g id="Layer_1_copy_7">
</g>
<g id="Layer_1_copy_6">
</g>
<g id="Layer_1_copy_17">
</g>
<g id="Layer_1_copy_16">
</g>
<g id="Layer_1_copy_15">
</g>
<g id="Layer_1_copy_14">
	<rect x="-1" y="-1" fill="#56E2FF" width="122" height="122"/>
	<g>
		<rect y="29.6699219" fill-rule="evenodd" clip-rule="evenodd" fill="none" width="113.2128906" height="83.3300781"/>
		<path fill="#FF56E6" d="M75.6875,43.2050781c1.2470703,2.5449219,1.8710938,5.3769531,1.8710938,8.4960938
			c0,3.1210938-0.6240234,5.9404297-1.8710938,8.4609375c-1.25,2.5195313-2.8574219,4.5244141-4.8242188,6.0117188
			C66.8789063,69.2460938,62.75,70.78125,58.4785156,70.78125h-9v8.1367188c0,1.1044922-0.0351563,1.9326172-0.1074219,2.484375
			s-0.3007813,1.1875-0.6835938,1.9072266c-0.6738281,1.2958984-2.5449219,1.9443359-5.6171875,1.9443359
			c-3.359375,0-5.3271484-0.8876953-5.9033203-2.6640625c-0.2880859-0.8164063-0.4326172-2.0634766-0.4326172-3.7441406V38.8857422
			c0-1.1035156,0.0371094-1.9316406,0.1083984-2.4833984c0.0722656-0.5517578,0.2998047-1.1884766,0.6845703-1.9082031
			c0.671875-1.296875,2.5429688-1.9443359,5.6152344-1.9443359h15.4082031c4.2236328,0,8.328125,1.5361328,12.3125,4.6083984
			C72.8300781,38.6464844,74.4375,40.6621094,75.6875,43.2050781z M62.7988281,56.453125
			c1.3916016-1.0546875,2.0878906-2.6386719,2.0878906-4.7519531c0-2.1113281-0.6962891-3.7070313-2.0878906-4.7871094
			c-1.3925781-1.0800781-2.8320313-1.6210938-4.3203125-1.6210938h-9v12.7441406h9.0722656
			C59.9912109,58.0371094,61.40625,57.5097656,62.7988281,56.453125z"/>
	</g>
	<g>
		<rect x="4" y="30.6699219" fill-rule="evenodd" clip-rule="evenodd" fill="none" width="113.2128906" height="87.3300781"/>
		<path fill="none" stroke="#000000" stroke-width="4" stroke-miterlimit="10" d="M79.6875,44.2050781
			c1.2470703,2.5449219,1.8710938,5.3769531,1.8710938,8.4960938c0,3.1210938-0.6240234,5.9404297-1.8710938,8.4609375
			c-1.25,2.5195313-2.8574219,4.5244141-4.8242188,6.0117188C70.8789063,70.2460938,66.75,71.78125,62.4785156,71.78125h-9
			v8.1367188c0,1.1044922-0.0351563,1.9326172-0.1074219,2.484375s-0.3007813,1.1875-0.6835938,1.9072266
			c-0.6738281,1.2958984-2.5449219,1.9443359-5.6171875,1.9443359c-3.359375,0-5.3271484-0.8876953-5.9033203-2.6640625
			c-0.2880859-0.8164063-0.4326172-2.0634766-0.4326172-3.7441406V39.8857422c0-1.1035156,0.0371094-1.9316406,0.1083984-2.4833984
			c0.0722656-0.5517578,0.2998047-1.1884766,0.6845703-1.9082031c0.671875-1.296875,2.5429688-1.9443359,5.6152344-1.9443359
			h15.4082031c4.2236328,0,8.328125,1.5361328,12.3125,4.6083984C76.8300781,39.6464844,78.4375,41.6621094,79.6875,44.2050781z
			 M66.7988281,57.453125c1.3916016-1.0546875,2.0878906-2.6386719,2.0878906-4.7519531
			c0-2.1113281-0.6962891-3.7070313-2.0878906-4.7871094c-1.3925781-1.0800781-2.8320313-1.6210938-4.3203125-1.6210938h-9
			v12.7441406h9.0722656C63.9912109,59.0371094,65.40625,58.5097656,66.7988281,57.453125z"/>
	</g>
</g>
<g id="Layer_1_copy_13">
</g>
<g id="Layer_1_copy_12">
</g>
<g id="Layer_1_copy_23">
</g>
<g id="Layer_1_copy_22">
</g>
<g id="Layer_1_copy_25">
</g>
<g id="Layer_1_copy_24">
</g>
<g id="Layer_1_copy_21">
</g>
<g id="Layer_1_copy_20">
</g>
<g id="Layer_1_copy_19">
</g>
<g id="Layer_1_copy_18">
</g>
</svg>
