<?xml version="1.0" encoding="utf-8"?>
<!-- Generator: Adobe Illustrator 16.0.0, SVG Export Plug-In . SVG Version: 6.00 Build 0)  -->
<!DOCTYPE svg PUBLIC "-//W3C//DTD SVG 1.1//EN" "http://www.w3.org/Graphics/SVG/1.1/DTD/svg11.dtd">
<svg version="1.1" xmlns="http://www.w3.org/2000/svg" xmlns:xlink="http://www.w3.org/1999/xlink" x="0px" y="0px" width="120px"
	 height="120px" viewBox="0 0 120 120" enable-background="new 0 0 120 120" xml:space="preserve">
<g id="Layer_1">
</g>
<g id="Layer_1_copy">
</g>
<g id="Layer_1_copy_2">
</g>
<g id="Layer_1_copy_3">
</g>
<g id="Layer_1_copy_4">
</g>
<g id="Layer_1_copy_5">
</g>
<g id="Layer_1_copy_11">
</g>
<g id="Layer_1_copy_10">
</g>
<g id="Layer_1_copy_9">
</g>
<g id="Layer_1_copy_8">
</g>
<g id="Layer_1_copy_7">
</g>
<g id="Layer_1_copy_6">
</g>
<g id="Layer_1_copy_17">
</g>
<g id="Layer_1_copy_16">
</g>
<g id="Layer_1_copy_15">
</g>
<g id="Layer_1_copy_14">
</g>
<g id="Layer_1_copy_13">
</g>
<g id="Layer_1_copy_12">
</g>
<g id="Layer_1_copy_23">
</g>
<g id="Layer_1_copy_22">
</g>
<g id="Layer_1_copy_25">
</g>
<g id="Layer_1_copy_24">
</g>
<g id="Layer_1_copy_21">
</g>
<g id="Layer_1_copy_20">
</g>
<g id="Layer_1_copy_19">
	<rect x="-1" y="-1" fill="#2F65B2" width="122" height="122"/>
	<g>
		<rect y="29.6699219" fill-rule="evenodd" clip-rule="evenodd" fill="none" width="113.2128906" height="83.3300781"/>
		<path fill="#F75237" d="M86.6660156,32.8378906c3.2158203,1.1523438,4.8242188,2.6884766,4.8242188,4.6074219
			c0,0.625-0.2871094,1.8007813-0.8632813,3.5283203L76.8027344,80.9335938
			c-0.0966797,0.3359375-0.2646484,0.7441406-0.5039063,1.2246094c-0.2412109,0.4804688-0.8769531,1.1152344-1.9082031,1.9082031
			c-1.0332031,0.7910156-2.2568359,1.1875-3.671875,1.1875c-1.4160156,0-2.640625-0.3964844-3.671875-1.1875
			c-1.0332031-0.7929688-1.7167969-1.5722656-2.0527344-2.3408203l-8.4238281-24.8398438
			c-5.328125,15.7441406-8.0400391,23.7597656-8.1357422,24.0478516c-0.0966797,0.2880859-0.3125,0.6962891-0.6474609,1.2246094
			c-0.3369141,0.5283203-0.7207031,1.0078125-1.1523438,1.4394531c-1.1054688,1.1054688-2.4248047,1.65625-3.9599609,1.65625
			c-1.5371094,0-2.796875-0.3603516-3.7802734-1.0800781C37.9101563,83.453125,37.25,82.734375,36.9140625,82.0136719
			l-0.5039063-1.0800781L22.5146484,40.9736328c-0.5283203-1.5839844-0.7919922-2.7597656-0.7919922-3.5283203
			c0-1.9189453,1.6074219-3.4306641,4.8242188-4.5351563c1.390625-0.4794922,2.6513672-0.7207031,3.7792969-0.7207031
			c1.1269531,0,1.9921875,0.3847656,2.5917969,1.1523438s1.140625,1.9433594,1.6210938,3.5273438l7.9199219,24.0488281
			l7.8476563-23.6884766c0.671875-2.015625,1.8955078-3.4072266,3.671875-4.1757813
			c0.7675781-0.3349609,1.7636719-0.5039063,2.9882813-0.5039063c1.2236328,0,2.3632813,0.3955078,3.4199219,1.1884766
			c1.0546875,0.7910156,1.7285156,1.5722656,2.015625,2.3398438l8.2802734,24.9833984l7.9199219-24.1923828
			c0.3837891-1.1035156,0.6953125-1.9189453,0.9365234-2.4472656c0.2392578-0.5273438,0.6835938-1.0449219,1.3320313-1.5488281
			c0.6474609-0.5039063,1.4511719-0.7558594,2.4121094-0.7558594
			C84.2421875,32.1171875,85.3710938,32.3583984,86.6660156,32.8378906z"/>
	</g>
	<g>
		<rect x="4" y="30.6699219" fill-rule="evenodd" clip-rule="evenodd" fill="none" width="113.2128906" height="87.3300781"/>
		<path fill="none" stroke="#000000" stroke-width="4" stroke-miterlimit="10" d="M90.6660156,33.8378906
			c3.2158203,1.1523438,4.8242188,2.6884766,4.8242188,4.6074219c0,0.625-0.2871094,1.8007813-0.8632813,3.5283203
			L80.8027344,81.9335938c-0.0966797,0.3359375-0.2646484,0.7441406-0.5039063,1.2246094
			c-0.2412109,0.4804688-0.8769531,1.1152344-1.9082031,1.9082031c-1.0332031,0.7910156-2.2568359,1.1875-3.671875,1.1875
			c-1.4160156,0-2.640625-0.3964844-3.671875-1.1875c-1.0332031-0.7929688-1.7167969-1.5722656-2.0527344-2.3408203
			l-8.4238281-24.8398438c-5.328125,15.7441406-8.0400391,23.7597656-8.1357422,24.0478516
			c-0.0966797,0.2880859-0.3125,0.6962891-0.6474609,1.2246094c-0.3369141,0.5283203-0.7207031,1.0078125-1.1523438,1.4394531
			c-1.1054688,1.1054688-2.4248047,1.65625-3.9599609,1.65625c-1.5371094,0-2.796875-0.3603516-3.7802734-1.0800781
			C41.9101563,84.453125,41.25,83.734375,40.9140625,83.0136719l-0.5039063-1.0800781L26.5146484,41.9736328
			c-0.5283203-1.5839844-0.7919922-2.7597656-0.7919922-3.5283203c0-1.9189453,1.6074219-3.4306641,4.8242188-4.5351563
			c1.390625-0.4794922,2.6513672-0.7207031,3.7792969-0.7207031c1.1269531,0,1.9921875,0.3847656,2.5917969,1.1523438
			s1.140625,1.9433594,1.6210938,3.5273438l7.9199219,24.0488281l7.8476563-23.6884766
			c0.671875-2.015625,1.8955078-3.4072266,3.671875-4.1757813c0.7675781-0.3349609,1.7636719-0.5039063,2.9882813-0.5039063
			c1.2236328,0,2.3632813,0.3955078,3.4199219,1.1884766c1.0546875,0.7910156,1.7285156,1.5722656,2.015625,2.3398438
			l8.2802734,24.9833984l7.9199219-24.1923828c0.3837891-1.1035156,0.6953125-1.9189453,0.9365234-2.4472656
			c0.2392578-0.5273438,0.6835938-1.0449219,1.3320313-1.5488281c0.6474609-0.5039063,1.4511719-0.7558594,2.4121094-0.7558594
			C88.2421875,33.1171875,89.3710938,33.3583984,90.6660156,33.8378906z"/>
	</g>
</g>
<g id="Layer_1_copy_18">
</g>
</svg>
